<!-- by TradingView --><svg xmlns="http://www.w3.org/2000/svg" width="18" height="18" viewBox="0 0 18 18"><path fill="url(#aw5twxb25)" d="M0 0h18v18H0z"/><path d="M6.38 7.25c.7-.4 1.58-.78 2.28-1.18a.67.67 0 0 1 .67 0l1.4.71c.06.04.06.12 0 .16L8.12 8.38a.2.2 0 0 0-.1.18V9.6a.19.19 0 0 0 .1.17l.78.6a.19.19 0 0 0 .2 0l4.36-2.46c.73-.42.73-1.63 0-2.05L9.54 3.65a1.06 1.06 0 0 0-1.09 0l-3.9 2.21a1.06 1.06 0 0 0-.55.92v4.43a1.04 1.04 0 0 0 .54.93l3.91 2.22a1.1 1.1 0 0 0 1.09 0l3.92-2.22a1.05 1.05 0 0 0 .54-.93V9.27l-4.67 2.66a.67.67 0 0 1-.67 0l-2.27-1.18c-.18-.1-.4-.3-.39-.52V7.77c0-.21.2-.42.38-.52z" fill="#fff"/><defs><linearGradient id="aw5twxb25" x1="2.88" y1="1.44" x2="12.98" y2="16.46" gradientUnits="userSpaceOnUse"><stop stop-color="#1355AE"/><stop offset="1" stop-color="#009DDD"/></linearGradient></defs></svg>