<!-- by TradingView --><svg width="18" height="18" xmlns="http://www.w3.org/2000/svg"><path fill="#F0F3FA" d="M0 0h18v18H0z"/><path d="M4.67 6.497a5 5 0 00-.004 4.996l1.447-.828a3.338 3.338 0 01-.004-3.329" fill="#28D2FF"/><path d="M9 12.332a3.33 3.33 0 01-2.887-1.665l-1.447.827A4.997 4.997 0 009 14v-1.667z" fill="#6DF359"/><path d="M11.876 10.683a3.33 3.33 0 01-2.878 1.649v1.666a4.997 4.997 0 004.325-2.492M9.829 4.833A.834.834 0 008.998 4h-.011A5 5 0 004.67 6.497l1.438.84a3.331 3.331 0 012.89-1.67.835.835 0 00.83-.834z" fill="#A06EFF"/><path d="M5.393 7.751a.833.833 0 100-1.666.833.833 0 000 1.666z" fill="#8C19FF"/><path d="M5.391 11.921a.833.833 0 100-1.666.833.833 0 000 1.666z" fill="#0078FF"/><path d="M9.012 14a.833.833 0 100-1.667.833.833 0 000 1.667z" fill="#00DC32"/><path d="M13.356 6.548a.944.944 0 00-.03-.056v-.003a.833.833 0 00-1.434.847l-.002.002a3.338 3.338 0 01-.013 3.344l1.448.826a5.002 5.002 0 00.031-4.96z" fill="#28D2FF"/><path d="M12.601 11.927a.833.833 0 100-1.666.833.833 0 000 1.666z" fill="#8C19FF"/></svg>