<!-- by TradingView --><svg width="18" height="18" viewBox="0 0 18 18" xmlns="http://www.w3.org/2000/svg"><path fill="#F0F3FA" d="M0 0h18v18H0z"/><path d="M6 4.44h1.83c1.85.03 2.22.02 2.75.26.35.16.75.49.95.78l.18.26-.3-.24c-.68-.6-.9-.92-2.84-.95H7V5l1.26-.01c1.9 0 2.26.3 2.8.74.3.25.39.43.1.21-.4-.3-.56-.44-2.01-.47H7.5V6h1.5c.88 0 2.4.26 2.4 1.02s-.44.98-1.22.98H7.5v.44h1.5c.98.03 2.12-.06 2.84.7.37.38.44.55.13.27-.94-.8-2.31-.85-3.47-.85H6.74V9H8.5c2.06.03 2.47.2 2.9.49.2.14.6.56.57.6 0 .01-.1-.05-.22-.15-.4-.33-.7-.21-2.46-.23-1.55-.02-1.47.04-1.47.14s-.1.12 1.18.15c.88.02 3.34-.28 2.92 1.22-.26.87-3.44.78-4.42.78-2.36 0-2.51.04-2.51.15 0 .11.22.16 3.25.14.92 0 2.98-.05 3.59-.36.06-.07.12-.1.12-.07-.12.48-2.07.63-2.45.64h-1v.5h.8c1.72 0 2.38-.1 2.91-.8.24-.32.27-.28.06.07-.22.35-.65.74-1.02.9-.65.32-.8.36-2.99.39H6.02V14h2.14c1.4-.02 2.97.04 4.05-1.01.56-.55.79-1.13.79-2.02 0-.85-.23-1.52-.7-2.01a1.6 1.6 0 0 1-.24-.3l.15-.35c.31-.63.34-1.67.06-2.44-.34-.93-1.26-1.61-2.46-1.81C9.63 4.03 8.72 4 7.8 4H6v.44Z" fill="#17D5CF"/><path d="M6 5.62c0 .15.02.16.43.14.37-.03.44-.05.46-.16.01-.11-.03-.13-.44-.13-.42 0-.45 0-.45.15ZM6.48 6.5c0 .15.04.15 1.78.15s1.78 0 1.78-.15-.04-.15-1.78-.15-1.78 0-1.78.15Z" fill="#42ACAA"/><path d="M5 7.3H7.57l-.01-.14c-.02-.13-.02-.13-1.04-.15L5 7v.3ZM8.1 7.08c-.06.2.07.22.92.2.8-.01.85-.02.85-.14 0-.12-.05-.12-.87-.14-.75-.01-.87 0-.9.08ZM6.19 10.62c0 .14.02.16.43.14.36-.03.43-.05.45-.16.02-.11-.03-.13-.43-.13-.42 0-.45.02-.45.15Z" fill="#17D5CF"/><path d="M7.37 10.62c0 .14.04.14 1.33.14 1.3 0 1.34 0 1.34-.14s-.04-.15-1.34-.15-1.33 0-1.33.15ZM5.81 11.15c0 .14.04.14 1.19.14s1.19 0 1.19-.14S8.15 11 7 11s-1.19 0-1.19.15Z" fill="#42ACAA"/><path d="M8.76 11.15c0 .14.03.14.74.14.7 0 .74 0 .74-.14S10.21 11 9.5 11c-.7 0-.74 0-.74.15ZM5.81 12.85c0 .14.04.15 1.19.15s1.19 0 1.19-.15c0-.14-.04-.14-1.19-.14s-1.19 0-1.19.14Z" fill="#17D5CF"/><path d="M5 14h.6v-.3H5v.3Z" fill="#42ACAA"/></svg>