<!-- by TradingView --><svg xmlns="http://www.w3.org/2000/svg" width="18" height="18"><path fill="url(#aaj4oiu1w)" d="M0 0h18v18H0z"/><path fill-rule="evenodd" d="M5.91 5.78l-1.41.8v4.74l1.4.83 2.12-1.28v2.53l1.02.6 4.46-2.68v-1.1l-2.1-1.27 2.1-1.28V6.48L9.04 4l-1.02.58V7.1l-2.1-1.32zm3.18 4.45l1.08-.63 2.16 1.29-3.24 1.84v-2.5zm.05-2.54V5.3l3.08 1.8-2.12 1.18-.96-.58zm-3.46-.55v3.66l2.29-1.21V8.35l-2.3-1.21z" fill="#fff"/><defs><linearGradient id="aaj4oiu1w" x1="2.89" y1="16.39" x2="14.9" y2="1.4" gradientUnits="userSpaceOnUse"><stop stop-color="#0D3168"/><stop offset="1" stop-color="#124F9D"/></linearGradient></defs></svg>