<!-- by TradingView --><svg width="18" height="18" viewBox="0 0 18 18" xmlns="http://www.w3.org/2000/svg"><path fill="#F0F3FA" d="M0 0h18v18H0z"/><path d="M15 9A6 6 0 1 1 3 9a6 6 0 0 1 12 0Z" fill="url(#a1kfnxp4w)"/><path fill-rule="evenodd" d="M9 14.5a5.5 5.5 0 1 0 0-11 5.5 5.5 0 0 0 0 11Zm0 .5A6 6 0 1 0 9 3a6 6 0 0 0 0 12Z" fill="url(#b1kfnxp4w)"/><path d="M9.16 6c.1 0 .16.12.08.2L6.9 8.5c-.08.08-.02.2.08.2h.86c.07 0 .13.07.1.14l-.6 2.18a.12.12 0 0 1-.1.08H5.08a.09.09 0 0 1-.09-.09V11l.34-1.33a.09.09 0 0 1 .08-.06h.4c.06 0 .1-.03.12-.08l.49-1.88a.11.11 0 0 0-.11-.14h-.23A.09.09 0 0 1 6 7.42V7.4l.37-1.33A.09.09 0 0 1 6.46 6h2.7Z" fill="#fff"/><path d="M9.98 8.4c.1 0 .16.12.09.2L7.7 10.9a.1.1 0 0 0-.03.08c0 .06.04.12.11.12h2.26c.03 0 .06-.01.08-.03l.93-.95a.28.28 0 0 0 .08-.12l.24-.79c.04-.13.22-.16.3-.05l.08.1c.04.05.06.12.04.19l-.25.86a.28.28 0 0 1-.08.13l-.97.91a.18.18 0 0 1-.12.05H5.74a.18.18 0 0 0-.16.09c-.04.06-.03.12.03.18l.28.3a.1.1 0 0 0 .08.03h5.1c.03 0 .06-.01.08-.03l.94-.93a.3.3 0 0 0 .07-.13l.27-.95a.11.11 0 0 0-.03-.11l-.37-.35a.11.11 0 0 1 0-.16l.74-.69a.28.28 0 0 0 .07-.12l.15-.54a.17.17 0 0 0-.04-.16l-.3-.29c-.13-.12-.35-.06-.39.12l-.05.23c0 .04-.03.08-.06.11l-.74.67a.12.12 0 0 1-.17 0l-.2-.2a.11.11 0 0 1 .01-.16l.71-.61a.28.28 0 0 0 .08-.13l.15-.55a.17.17 0 0 0-.05-.16l-.86-.84a.09.09 0 0 0-.06-.02H9.7c-.05 0-.1.03-.1.08L9 8.26c-.02.07.04.14.12.14h.85Z" fill="#fff"/><defs><linearGradient id="a1kfnxp4w" x1="9" y1="4.17" x2="9" y2="15" gradientUnits="userSpaceOnUse"><stop stop-color="#DD4076"/><stop offset=".52" stop-color="#AF3466"/><stop offset="1" stop-color="#471840"/></linearGradient><linearGradient id="b1kfnxp4w" x1="9" y1="3" x2="9" y2="15" gradientUnits="userSpaceOnUse"><stop stop-color="#F42776"/><stop offset="1" stop-color="#E92776"/></linearGradient></defs></svg>