<!-- by TradingView --><svg width="18" height="18" xmlns="http://www.w3.org/2000/svg"><path fill="url(#paint0_linear)" d="M0 0h18v18H0z"/><path d="M9.326 5.258c-2.251 0-4.039 1.735-4.039 3.781 0 2.033 1.772 3.703 4.039 3.703 1.007 0 1.923-.34 2.627-.9a.653.653 0 01.905.091.62.62 0 01-.094.885A5.515 5.515 0 019.326 14c-2.904 0-5.324-2.165-5.324-4.96C4.002 6.257 6.406 4 9.326 4c1.307 0 2.509.443 3.438 1.182a.62.62 0 01.094.885.653.653 0 01-.905.091c-.704-.56-1.62-.9-2.627-.9z" fill="#fff"/><defs><linearGradient id="paint0_linear" x1="3.349" y1="3.122" x2="21.904" y2="24.434" gradientUnits="userSpaceOnUse"><stop stop-color="#1A1E21"/><stop offset="1" stop-color="#06060A"/></linearGradient></defs></svg>