<!-- by TradingView --><svg width="18" height="18" viewBox="0 0 18 18" xmlns="http://www.w3.org/2000/svg"><path fill="#F0F3FA" d="M0 0h18v18H0z"/><path d="M9 13.45A4.4 4.4 0 0 0 13.45 9 4.4 4.4 0 0 0 9 4.55 4.4 4.4 0 0 0 4.55 9 4.4 4.4 0 0 0 9 13.45ZM14 9A5 5 0 1 1 4 9a5 5 0 0 1 10 0Z" fill="#0052FF"/><path d="M9 5.58v2.44l2 .92-2-3.36Z" fill="#0052FF" fill-opacity=".6"/><path d="M9 5.58 7 8.94l2-.92V5.58Z" fill="#0052FF"/><path d="M9 10.52v1.66l2-2.85-2 1.2Z" fill="#0052FF" fill-opacity=".6"/><path d="M9 12.18v-1.66l-2-1.2 2 2.86Z" fill="#0052FF"/><path d="m9 10.14 2-1.2-2-.92v2.12Z" fill="#0052FF" fill-opacity=".2"/><path d="m7 8.94 2 1.2V8.02l-2 .92Z" fill="#0052FF" fill-opacity=".6"/></svg>