<!-- by TradingView --><svg width="18" height="18" viewBox="0 0 18 18" xmlns="http://www.w3.org/2000/svg"><path fill="#F0F3FA" d="M0 0h18v18H0z"/><path d="M15 9a6 6 0 0 1-2.72 5.03c-.08.05-.25-.08-.33-.03-.07.04-.08.13-.16.17-.06.04-.18 0-.25.04-.06.03-.05.25-.12.28a6 6 0 1 1 1.25-10.23c.1.07.05.37.14.45.1.08.33-.05.42.04A5.98 5.98 0 0 1 15 9Z" fill="#C48635"/><path d="M14.66 9a5.65 5.65 0 0 1-2.55 4.72c-.07.05-.21-.14-.28-.1-.08.05-.12.28-.2.32-.08.04-.3-.04-.38 0-.07.03 0 .25-.07.28A5.64 5.64 0 0 1 3.34 9c0-1.71.77-3.25 1.97-4.28.04-.04.15.03.2 0 .05-.05.04-.2.1-.24a5.63 5.63 0 0 1 6.84.04c.1.08.02.39.12.47.1.09.37-.05.45.04A5.64 5.64 0 0 1 14.66 9Z" fill="#FFE35A"/><path d="M13.67 9a4.67 4.67 0 0 1-8.33 2.9c-.02-.03-.32.08-.35.05-.04-.05.12-.24.08-.3-.05-.07-.25-.08-.3-.16-.06-.1.1-.3.06-.4A4.67 4.67 0 1 1 13.67 9Z" fill="#FFC943"/><path d="M4.39 8.3c.32-.28.8-.7.86-.86.02.07.1.21.18.17.04-.02.1-.15.17-.3.1-.22.23-.5.37-.62l.14-.1c.18-.14.34-.26.46-.62.07.04.24.1.37 0 .06-.06.09-.15.11-.26.04-.16.09-.35.3-.46.26-.16.73-.23.92-.25.48-.1 1.63-.22 2.35.15.57.3.98.73 1.25 1.01.15.17.26.28.32.28l.14-.02c.13-.03.27-.06.36.08.03.04.06.12.09.2.1.26.27.65.65.82a4.67 4.67 0 0 0-9.04.77Z" fill="#DAA537"/><path d="M8.43 6.74c.16-.13.57-.13.57-.13s.41 0 .57.13l.59-.77.19 1.33c.9 1.64 1.64 4.8-1.35 4.84-2.99-.04-2.24-3.2-1.35-4.84l.2-1.33.58.77Z" fill="url(#alf1smjn1)"/><path fill-rule="evenodd" d="M9 6.23a.59.59 0 0 1 .02 0 2.2 2.2 0 0 1 .42.05l.41-.54a.38.38 0 0 1 .68.17l.18 1.27c.45.85.88 2.1.8 3.17a2.3 2.3 0 0 1-.65 1.52c-.42.41-1.04.64-1.85.65H9a2.61 2.61 0 0 1-1.86-.65 2.3 2.3 0 0 1-.65-1.52 6.31 6.31 0 0 1 .8-3.17l.18-1.27a.38.38 0 0 1 .68-.17l.4.54A1.76 1.76 0 0 1 9 6.23H9Zm-.56.5C8.62 6.6 9 6.6 9 6.6s.38 0 .56.12l.01.01.59-.77.19 1.33c.9 1.64 1.64 4.8-1.35 4.84-2.99-.04-2.24-3.2-1.35-4.84l.2-1.33.58.77.01-.01Z" fill="#FFE772"/><path d="M10.54 7.69a6.61 6.61 0 0 0-.2-.39l-.18-1.33-.59.77-.01-.01C9.38 6.6 9 6.6 9 6.6s-.38 0-.56.12l-.01.01-.59-.77-.19 1.33c-.12.22-.23.46-.34.73l-.56.44c.15-.47.34-.92.54-1.29l.18-1.27a.38.38 0 0 1 .68-.17l.4.54A1.76 1.76 0 0 1 9 6.23H9a.59.59 0 0 1 .02 0 2.2 2.2 0 0 1 .42.05l.41-.54a.38.38 0 0 1 .68.17l.18 1.27c.45.85.88 2.1.8 3.17-.02.23-.06.46-.14.69.19-1.75-.42-2.9-.83-3.35ZM6.88 10.45c-.02.54.29 1.7 1.54 1.97.55.12 1 .08 1.36-.04a1.88 1.88 0 0 0 1.25-1.47h-.01c-.24.7-.84 1.21-2.02 1.23-1.43-.02-2-.75-2.12-1.69Z" fill="#FFF49D"/><path d="M6.52 10.57H6.5c-.08.4-.1 1.27.41 1.53h.05c.05 0 .1 0 .21.12.2.22.75.64 1.3.6.7-.04.96-.06 1.12-.09.07 0 .16-.03.27-.06.17-.04.39-.1.59-.13.32-.04.46-.07.6-.28l.12-.2c.02-.07.04-.1.09-.13.08-.04.1-.08.1-.16 0-.04.03-.03.07-.01.05.02.11.04.17 0 .11-.05.1-1.38-.08-1.94h-.02v.53a2.3 2.3 0 0 1-.65 1.52c-.42.41-1.04.64-1.85.65H9a2.61 2.61 0 0 1-1.86-.65 2.21 2.21 0 0 1-.62-1.3Z" fill="#DEAC3B"/><circle cx="9" cy="9" r="1.31" fill="#FFF086"/><circle cx="9" cy="9" r=".91" fill="#C48635"/><circle cx="9" cy="9" r=".6" fill="#B9B9B9"/><defs><linearGradient id="alf1smjn1" x1="9" y1="5.97" x2="9" y2="12.14" gradientUnits="userSpaceOnUse"><stop stop-color="#D6A434"/><stop offset="1" stop-color="#E5AF38"/></linearGradient></defs></svg>