<!-- by TradingView --><svg width="18" height="18" viewBox="0 0 18 18" xmlns="http://www.w3.org/2000/svg"><path fill="url(#auktkmypf)" d="M0 0h18v18H0z"/><path d="M13 7a2 2 0 0 0-2-2H7a2 2 0 0 0-2 2v4c0 1.1.9 2 2 2h4a2 2 0 0 0 2-2V7Z" fill="url(#buktkmypf)"/><path d="M12.44 12.39c-.65.21-1.42.17-1.83.14-1.87-.14-2.56-.76-2.8-1.3-.25-.55-.13-1.14.26-1.43.88-.65 1.53.42 1.53.42a.98.98 0 0 0 .68-.77.95.95 0 0 0-.1-.66c-.17-.27-.44-.4-.44-.4.22-.92-1.1-1.4-1.82-1.65a2.47 2.47 0 0 1-1.26-.93c-.17.61.39 1.26.39 1.26-.47-.4-1.73-.57-1.98-.6A2 2 0 0 0 5 7v4c0 1.1.9 2 2 2h4a2 2 0 0 0 1.44-.61Z" fill="#fff"/><path d="M12.62 12.18c-.65.13-1.64.25-2.84.12-.44-.05-2.03-.36-2.03-1.59 0-1.03.98-1.27 1.85-.49 0 0 0-.4-.23-.78-.2-.31-.56-.6-1.16-.6-.33-.01-.98.23-1.23.84 0 0-.16-.67.26-1.11 0 0-1.47.36-1.2 1.99.01.12.12.65.47 1.1a3.22 3.22 0 0 0 2.06 1.24c.19.04.4.08.62.1H11a2 2 0 0 0 1.62-.82Z" fill="#FFEDDC"/><path d="m9.23 8.3-.18.23s-.18-.4-.54-.74l.72.51Z" fill="#F9A14C"/><defs><linearGradient id="auktkmypf" x1="3.35" y1="3.12" x2="21.9" y2="24.43" gradientUnits="userSpaceOnUse"><stop stop-color="#1A1E21"/><stop offset="1" stop-color="#06060A"/></linearGradient><linearGradient id="buktkmypf" x1="12.23" y1="5.86" x2="6.5" y2="11.44" gradientUnits="userSpaceOnUse"><stop stop-color="#FF9133"/><stop offset="1" stop-color="#FF2905"/></linearGradient></defs></svg>