<!-- by TradingView --><svg width="18" height="18" xmlns="http://www.w3.org/2000/svg"><path fill="url(#paint0_linear)" d="M0 0h18v18H0z"/><path d="M13.687 4.74c-1.6-1.606-3.64-1.792-4.569-1.73l.043.37c1.748-.085 3.11.674 3.565 1.054l-.605.761.3.25.647-.77.399.342.22-.277zm-6.156-.223c.61-.295 2.241-.708 3.887 0l-.396.932c.522.23.983.573 1.354.997l-.27.37-.417-.373-.652.808a2.36 2.36 0 100 3.5l.652.829.328-.294.285.352a3.905 3.905 0 01-.314.303l.625.82c-.877.738-2.05 1.058-2.527 1.125l-.043-.384c1.028-.175 1.788-.615 2.04-.814l-.395-.512a3.883 3.883 0 01-4.74-6.143l-1.042-1.32c-.604.368-1.174 1.245-1.383 1.637l1.206.599-.186.334-1.197-.57c-.818 1.669-.445 3.462-.157 4.15l1.03-.363c.746 2.167 2.814 2.909 3.756 3.009l-.147 1.087a8.614 8.614 0 001.465 0l.057.36c-3.04.345-5.052-1.408-5.678-2.328l.302-.23c1.274 1.585 2.858 2.078 3.49 2.126l.095-.706c-2.025-.4-3.245-2.05-3.585-2.825l-.994.384c-.424-.876-.529-2-.528-2.453.108-3.33 2.565-5.057 3.78-5.503l.125.35-.111.057c-.306.158-.705.364-1.026.62l1.046 1.344a3.865 3.865 0 012.186-.674c.42 0 .823.067 1.2.19l.243-.584c-.534-.178-1.922-.4-3.203.141l-.16-.348zm6.113 8.803c-.563.599-1.503 1.092-1.902 1.264l-.146-.378c.825-.302 1.55-.915 1.808-1.183l.24.297z" fill="#fff"/><defs><linearGradient id="paint0_linear" x1="14.857" y1="2.246" x2="2.451" y2="15.759" gradientUnits="userSpaceOnUse"><stop stop-color="#4B8EFF"/><stop offset="1" stop-color="#8655FE"/></linearGradient></defs></svg>