<!-- by TradingView --><svg width="18" height="18" xmlns="http://www.w3.org/2000/svg"><path fill="#DEB132" d="M0 0h18v18H0z"/><path d="M6.027 8.9L4 9.91l1.058.509c.178-.106.61-.366.903-.568.294-.202.546-.084.635 0v2.06l-.853.504v1.566l-.487.294V15l1.092-.557v-1.46l1.897-1.072v-.851l2.64-1.051c.366-.572.96-.897 1.212-.988v1.534l-.537.336v.683l1.053-.588v-3.1l-1.112.305V5.907l1.013.54L13 4.944c-.033-.301-.387-.746-.601-.583-.31.235.052.534.214.667l-.328.641-.854-.88h-.546v-.192a.34.34 0 00.298-.126c.007-.098.016-.41 0-.872s-.423-.592-.625-.599c-.906-.008-.72.842-.513 1.268v.522h-.73l-1.4 1.267c.165.267.521.859.634 1.09.14.289.353.354.468.363.115.01.35.028.403-.307.043-.268-.328-.293-.52-.271l-.226-.673.802-.352.468 1.857-3.055 1.57-.862-.433z" fill="#fff"/></svg>