<!-- by TradingView --><svg xmlns="http://www.w3.org/2000/svg" width="18" height="18"><path fill="#F0F3FA" d="M0 0h18v18H0z"/><path d="M4.73 4.46l.35 1.99h-.65c-.13 0-.25.1-.25.23L4 10.08c0 .13.11.25.26.25h.38v2.89c0 .13.12.24.26.24h4.73v.52c.05.3.67.52 1.46.52.8 0 1.5-.22 1.54-.52v-.35c.5.12 1.4.05 1.75-.77.15-.33.24-.85-.24-1.29-.45-.4-.97-.47-1.36-.41v-.72H13c.21 0 .38-.16.38-.36v-3.3c0-.13-.11-.24-.25-.24h-1.35l-.2-1.15.45-.47-.33-1.72c-.02-.13-.16-.22-.3-.2l-3.93.66a.26.26 0 00-.19.14l-.3.63L6.65 4a.27.27 0 00-.26-.1l-1.46.28c-.13.03-.22.15-.2.28z" fill="#5B2C16"/><path d="M12.43 12.98c-.67-.6-.33-1.24-.08-1.48.16-.2 1.02-.45 1.68.16a.95.95 0 01.1 1.35c-.29.28-1.03.57-1.7-.03z" fill="#FBCC21"/><path d="M6.28 4.44l-.97.16.13.53.16-.04.25 1.44-.21.05.1.55.98-.16-.2-1.3.84.95.5-1.13.24 1.3.95-.15-.08-.5-.21.03-.23-1.48.2-.03-.1-.53-.94.13-.54 1.2-.87-1.02zm2.77.2l-.1-.58.83-.1.47.73.24-.84.82-.1.07.58h-.2l-.42 1.05.07.47.2-.03.1.52-1.18.2-.08-.52.2-.04L10 5.5l-.77-.9-.18.04z" fill="#F4F4F5"/><path fill-rule="evenodd" d="M4.56 7.18h1.7c.3 0 .56.23.56.5v1.44c0 .28-.25.5-.56.5h-1.7V9.1h.2V7.7h-.2v-.52zm.94.52h.56v1.4H5.5V7.7z" fill="#FEAE00"/><path d="M7 7.18h2.07v.7H8.5V7.7h-.56v.53h.56v.35h-.56v.52h.56v-.18h.56v.7H7V9.1h.2V7.7H7v-.52zm5.82 0h-1.13v.52h.2v1.4h-.2v.52h1.13V9.1h-.19V7.7h.19v-.52zm-3.19 0h-.38v.52h.38v1.4h-.19v.52h1.13V9.1h-.2v-.47h.52v-.49h-.51V7.7h.37v.18h.57v-.7H9.63z" fill="#FBB200"/><path d="M7.57 10.32h2.06v.7h-.56v-.18H8.5v.52h.57v.35H8.5v.53h.57v-.35h.56v.87H7.57v-.52h.18v-1.4h-.18v-.52zm3.93 0H10v.7h.57v-.18h.18v1.4h-.18v.52h1.12v-.53h-.19v-1.39h.2v.18h.56v-.7h-.76zm-6.37 0h1.7c.3 0 .55.21.55.48v.43c0 .27-.25.48-.55.48h-.77v.52h.2v.53H5.12v-.53h.19v-1.4h-.2v-.51zm.99.49h.46v.51h-.46v-.51z" fill="#FEAE00"/><path d="M12.46 13.73c-.04.22-.64.4-1.37.4-.73 0-1.32-.18-1.37-.4v-.57c.03-.23.63-.41 1.37-.41.75 0 1.36.19 1.37.42v.56z" fill="#EA780B"/><ellipse cx="11.09" cy="13.18" rx="1.37" ry=".43" fill="#FEC61D"/></svg>