<!-- by TradingView --><svg xmlns="http://www.w3.org/2000/svg" width="18" height="18"><path fill="#05274A" d="M0 0h18v18H0z"/><path d="M5 5h8v4.36C13 11.64 11.2 14 9 14s-4-2.36-4-4.64V5z" fill="#162C51"/><path fill-rule="evenodd" d="M13.5 4.5h-9v4.84c0 2.54 2.01 5.16 4.5 5.16s4.5-2.62 4.5-5.16V4.5zM13 5H5v4.33c0 2.27 1.8 4.62 4 4.62s4-2.35 4-4.62V5z" fill="#07B3F5"/><path d="M12 6H6v1.85l4.6 3.57-.3.3L6 8.47v.92C6 11.16 7.34 13 9 13c1.53 0 2.8-1.57 2.98-3.2l-4-3.08h.73L12 9.28V6z" fill="#07B3F5"/></svg>