<!-- by TradingView --><svg width="18" height="18" viewBox="0 0 18 18" xmlns="http://www.w3.org/2000/svg"><path fill="#021540" d="M0 0h18v18H0z"/><path d="M9 13c2.3 0 4-1.7 4-4s-1.7-4-4-4-4 1.7-4 4 1.7 4 4 4Zm5-4A5 5 0 1 1 4 9a5 5 0 0 1 10 0Z" fill="#fff"/><path d="M6.16 12.33A3.46 3.46 0 0 0 9 9c0-1.84-1.57-3.3-3.51-3.33-.25.22-.47.48-.66.75a3 3 0 0 1 .6-.06A2.64 2.64 0 0 1 8.17 9a2.7 2.7 0 0 1-2.82 2.7c.25.24.52.45.81.63ZM12.66 11.69h-.2a2.6 2.6 0 0 1-2.63-2.66 2.6 2.6 0 0 1 2.63-2.67c.25 0 .48.03.7.09-.18-.29-.4-.55-.64-.78h-.06A3.41 3.41 0 0 0 9 9.03a3.4 3.4 0 0 0 2.83 3.3c.3-.18.58-.4.83-.64Z" fill="#fff"/><path d="M5.6 12.32c.04-1.45 1.54-2.49 3.4-2.49 1.86 0 3.37 1.04 3.4 2.5.29-.22.54-.47.77-.74C12.72 10.11 11.02 9 9 9s-3.71 1.1-4.17 2.58c.23.27.48.52.77.74ZM5.6 5.68C5.64 7.13 7.14 8.17 9 8.17c1.86 0 3.37-1.04 3.4-2.5.29.22.54.47.77.74C12.72 7.89 11.02 9 9 9S5.29 7.9 4.83 6.42c.23-.27.48-.52.77-.74Z" fill="#fff"/></svg>