<!-- by TradingView --><svg width="18" height="18" viewBox="0 0 18 18" xmlns="http://www.w3.org/2000/svg"><path fill="#F0F3FA" d="M0 0h18v18H0z"/><path d="M7 3.25a8.25 8.25 0 0 1 4 0V7H7V3.25ZM14.75 7a8.25 8.25 0 0 1 0 4H11V7h3.75ZM11 14.75a8.25 8.25 0 0 1-4 0V11h4v3.75ZM3.25 11a8.25 8.25 0 0 1 0-4H7v4H3.25Z" fill="#0278FE"/><path d="m8 6 1-2 1 2H8Z" fill="#5DCBFE"/><path fill="#0378FB" d="M8.44 8.3h3v.4h-3zM8.44 9.38h3v.4h-3z"/><path fill="#5DCBFE" d="M4 8h2v2H4z"/><circle cx="13" cy="9" r="1" fill="#5DCBFE"/><path fill="#5DCBFE" d="m9.43 12 .57.57L8.57 14 8 13.43z"/><path fill="#5DCBFE" d="m10 13.43-.57.57L8 12.57l.57-.57z"/></svg>