<!-- by TradingView --><svg xmlns="http://www.w3.org/2000/svg" width="18" height="18"><path fill="#3B216A" d="M0 0h18v18H0z"/><path d="M9 4.62c0-.34.33-.62.74-.62h.76v9.18c0 .45-.44.82-.98.82H9V4.62z" fill="url(#amql2m50f)"/><path d="M11.26 9.32v-.98h-.15c-2.06 0-3.97 0-3.97-1.32 0-1.46 3.18-1.2 4.46-.6.24.12.59.1.76-.1l.34-.43a.2.2 0 00-.05-.3 7.56 7.56 0 00-3.4-.84c-2.11 0-3.9.96-3.9 2.27 0 1.01 1.1 1.57 1.71 1.74C6.41 8.93 5 9.69 5 10.8c0 1.4 1.9 2.45 4.12 2.45 1.58 0 3.11-.59 3.77-.95a.2.2 0 00.06-.31l-.37-.45c-.18-.22-.54-.24-.8-.12-1.36.64-4.78.93-4.78-.62 0-1.4 1.92-1.4 4.1-1.4h.16v-.08z" fill="#FEFCFF"/><defs><linearGradient id="amql2m50f" x1="11.75" y1="4.35" x2="10.07" y2="14.02" gradientUnits="userSpaceOnUse"><stop stop-color="#FEFCFF"/><stop offset=".17" stop-color="#FEFCFF" stop-opacity="0"/><stop offset=".24" stop-color="#FEFCFF" stop-opacity="0"/><stop offset=".32" stop-color="#FEFCFF"/><stop offset=".42" stop-color="#FEFCFF" stop-opacity="0"/><stop offset=".58" stop-color="#FEFCFF" stop-opacity="0"/><stop offset=".67" stop-color="#FEFCFF"/><stop offset=".76" stop-color="#FEFCFF" stop-opacity="0"/><stop offset=".84" stop-color="#FEFCFF" stop-opacity="0"/><stop offset="1" stop-color="#FEFCFF"/></linearGradient></defs></svg>