<!-- by TradingView --><svg xmlns="http://www.w3.org/2000/svg" width="18" height="18" viewBox="0 0 18 18"><path fill="url(#atvlym2wn)" d="M0 0h18v18H0z"/><path d="M6.54 12.75A3.47 3.47 0 0 1 5.47 8.1c.07-.12.25-.08.3.05.13.47.41.7.41.7-.09-.2-.44-2.5 1.25-3.55.1-.06.21.03.2.14-.08.59-.14 1.85.86 1.5.9-.32.25-2-.08-2.73-.05-.12.06-.25.18-.2 2 .84 3.56 2.2 3 4.68.15.03.64-.06.91-.47.08-.1.24-.11.28.01.27.95.68 3.45-1.5 4.77a1.71 1.71 0 0 0-.45-.63c-.02-.02-.04-.01-.06.01-.09.12-.37.48-.65.5-.52.05-.8-.53-.68-1.16.01-.07-.05-.14-.12-.12-.81.27-1.02.83-1.02.83-.36-.3-.67-.84-.6-2.08 0-.1-.11-.14-.16-.06a5.84 5.84 0 0 0-1 2.46z" fill="#fff"/><defs><linearGradient id="atvlym2wn" x1="3.35" y1="3.12" x2="21.9" y2="24.43" gradientUnits="userSpaceOnUse"><stop stop-color="#1A1E21"/><stop offset="1" stop-color="#06060A"/></linearGradient></defs></svg>