<!-- by TradingView --><svg xmlns="http://www.w3.org/2000/svg" width="18" height="18"><path fill="#101334" d="M0 0h18v18H0z"/><path d="M4 11.5l.48.28.52-.23v-2l7.76-4.04-.98-.67L5 8.24V6.89l5.8-2.72-.93-.67L4 6.26v5.23z" fill="url(#arp5bcrk4)"/><path d="M12 8.05v-1.3l-6 3.3v1.24l6-3.24z" fill="url(#brp5bcrk4)"/><path d="M6.87 13.24l-1.02-.65L12 9.02v1.3l-5.13 2.92z" fill="#CCA362"/><path d="M13.54 6.05l.46.32v5.37L8.84 14.5l-1-.64L13 11.09V6.37l.54-.32z" fill="#CCA362"/><defs><linearGradient id="arp5bcrk4" x1="3.55" y1="9.62" x2="11.3" y2="4.34" gradientUnits="userSpaceOnUse"><stop offset=".05" stop-color="#C5C3C5"/><stop offset=".3" stop-color="#F2F2F2"/><stop offset=".9" stop-color="#BEBBBE"/></linearGradient><linearGradient id="brp5bcrk4" x1="5.32" y1="10.63" x2="13.39" y2="6.82" gradientUnits="userSpaceOnUse"><stop offset=".2" stop-color="#CAA467"/><stop offset=".62" stop-color="#ECC77C"/><stop offset=".92" stop-color="#CCA362"/></linearGradient></defs></svg>