<!-- by TradingView --><svg width="18" height="18" viewBox="0 0 18 18" xmlns="http://www.w3.org/2000/svg"><path fill="url(#ac4e11lae)" d="M0 0h18v18H0z"/><path fill-rule="evenodd" d="M14 13c-.93-3.05-3.83-7.27-5.44-9l.19.42-.07-.07-.92 1.47c-1.35 2.15-3.22 5.13-3.43 6.66l.26-.32c.5-.64 1.3-1.65 2.09-2.88.26.7.64 1.48 1.14 2.13-1.5.28-3.04.88-3.82 1.24a34.1 34.1 0 0 1 4.31-.68c.31.3.65.53 1.02.68l-.31-.43c.02-.07.07-.15.13-.26 1.12-.02 2.78-.1 3.8-.15.41.55.77.94 1.05 1.19Zm-5.6-1.68a8 8 0 0 1 .39-.04c.1-.43.26-.95.44-1.46-.54-.07-1.33-.03-1.81.01.3.5.64 1 .97 1.49ZM7.27 9.6a2.04 2.04 0 0 1 .9-.2l-.25-.43-.13.2a.15.15 0 0 1-.2.06.15.15 0 0 1-.05-.21l.54-.87a4.53 4.53 0 0 1-.69-.08c-.16.3-.33.58-.5.86.1.21.24.43.38.67Zm2.06-.07c-.24-.04-.62-.1-.97-.12l-.03-.07.4-.3.13.27c.03.08.12.11.19.08.07-.04.1-.13.07-.2l-.45-1.05a9.68 9.68 0 0 0 1.53-.22c-.32.36-.62.96-.87 1.61Zm.33 1.22c-.06.19-.13.36-.19.5l.19.02c1.41.1 2.53.28 3.18.41a33.3 33.3 0 0 1-2.38-3.82l-.14.04v.25c0 .52-.33 1.56-.66 2.6Zm.74-3c-.5-.94-1.04-2-1.58-3.16-.26 1.01-.66 2-1.13 2.92.2-.03.4-.05.63-.05.68 0 1.55.16 2.08.29Zm-2.02.47.19.43h-.45l.26-.43Zm.05.73-.12.31-.1-.31h.22Z" fill="#fff"/><defs><linearGradient id="ac4e11lae" x1="3.35" y1="3.12" x2="21.9" y2="24.43" gradientUnits="userSpaceOnUse"><stop stop-color="#1A1E21"/><stop offset="1" stop-color="#06060A"/></linearGradient></defs></svg>