<!-- by TradingView --><svg width="18" height="18" viewBox="0 0 18 18" xmlns="http://www.w3.org/2000/svg"><path fill="url(#a3vk2ejy1)" d="M0 0h18v18H0z"/><path d="M12.9 10.23a1.73 1.73 0 0 0 0-2.46l-2.63-2.65a1.8 1.8 0 0 0-2.54 0L5.1 7.77a1.73 1.73 0 0 0 0 2.46l2.63 2.65a1.8 1.8 0 0 0 2.54 0l2.64-2.65Z" fill="url(#b3vk2ejy1)"/><path d="M10.27 5.12A1.78 1.78 0 0 0 9 4.59v8.82a1.77 1.77 0 0 0 1.27-.53l2.64-2.65a1.73 1.73 0 0 0 0-2.46l-2.64-2.65Z" fill="url(#c3vk2ejy1)"/><path d="m9 10.62 3.24-3.53-1.96-1.96a1.8 1.8 0 0 0-2.56 0L5.76 7.09 9 10.62Z" fill="url(#d3vk2ejy1)"/><path opacity=".73" d="M9 4.59v5.88L6.94 8.41 9 4.6Z" fill="url(#e3vk2ejy1)"/><path d="M12.24 7.09 9 13.4v-2.93l3.24-3.4Z" fill="url(#f3vk2ejy1)"/><path d="M5.76 7.09 9 13.4v-2.94L5.76 7.1Z" fill="url(#g3vk2ejy1)"/><path d="m10.27 5.12 2.64 2.65a1.73 1.73 0 0 1 0 2.46l-2.64 2.65a1.8 1.8 0 0 1-2.54 0L5.1 10.23a1.73 1.73 0 0 1 0-2.46l2.63-2.65a1.8 1.8 0 0 1 2.54 0Zm-5.6 5.52a2.32 2.32 0 0 1-.5-2.53m.5 2.53 2.64 2.66a2.4 2.4 0 0 0 3.38 0l2.63-2.66a2.32 2.32 0 0 0 0-3.28L10.7 4.7a2.4 2.4 0 0 0-3.38 0L4.68 7.36c-.22.21-.39.47-.5.75" fill="url(#h3vk2ejy1)"/><defs><linearGradient id="a3vk2ejy1" x1="3.35" y1="3.12" x2="21.9" y2="24.43" gradientUnits="userSpaceOnUse"><stop stop-color="#1A1E21"/><stop offset="1" stop-color="#06060A"/></linearGradient><linearGradient id="b3vk2ejy1" x1="12.98" y1="12.54" x2="5.74" y2="6.21" gradientUnits="userSpaceOnUse"><stop offset=".01" stop-color="#00FFCE"/><stop offset=".71" stop-color="#7231FF"/><stop offset=".97" stop-color="#231815"/></linearGradient><linearGradient id="c3vk2ejy1" x1="7.79" y1="7.93" x2="12.76" y2="11.42" gradientUnits="userSpaceOnUse"><stop stop-color="#00FFCE"/><stop offset=".71" stop-color="#7231FF"/><stop offset=".97" stop-color="#231815"/></linearGradient><linearGradient id="e3vk2ejy1" x1="9.6" y1="8.17" x2="8.14" y2="7.19" gradientUnits="userSpaceOnUse"><stop stop-color="#fff"/><stop offset="1" stop-color="#00FFCE"/></linearGradient><linearGradient id="f3vk2ejy1" x1="10.03" y1="10.06" x2="8.44" y2="8.89" gradientUnits="userSpaceOnUse"><stop stop-color="#00FFCE"/><stop offset="1" stop-color="#7231FF"/></linearGradient><linearGradient id="g3vk2ejy1" x1="5.92" y1="10.42" x2="9" y2="10.42" gradientUnits="userSpaceOnUse"><stop stop-color="#00FFCE"/><stop offset="1" stop-color="#7231FF"/></linearGradient><linearGradient id="h3vk2ejy1" x1="13.85" y1="9" x2="4.15" y2="9.09" gradientUnits="userSpaceOnUse"><stop offset=".01" stop-color="#04F8D0"/><stop offset=".53" stop-color="#35A0E5"/><stop offset=".97" stop-color="#6D3AFD"/></linearGradient><radialGradient id="d3vk2ejy1" cx="0" cy="0" r="1" gradientUnits="userSpaceOnUse" gradientTransform="matrix(6.28549 0 0 6.47119 9.04 9.87)"><stop stop-color="#00FFCE"/><stop offset="1" stop-color="#7231FF"/></radialGradient></defs></svg>