<!-- by TradingView --><svg width="18" height="18" viewBox="0 0 18 18" xmlns="http://www.w3.org/2000/svg"><path fill="url(#ao22mujkq)" d="M0 0h18v18H0z"/><path d="M7.91 8.14A2.74 2.74 0 0 0 5.76 7C4.29 7 3 8.28 3 9.96 3 11.42 3.98 13 5.57 13c.7 0 1.12-.3 1.45-.66h.03c.12 0 .15.11.15.16v.12c0 .27.2.38.4.38.28 0 .4-.26.4-.41v-1.81a.4.4 0 0 0-.35-.4h-.44c-.39 0-.63.42-.38.73-.04.1-.1.21-.18.31-.16.2-.44.58-1.04.58C4.66 12 4 10.92 4 9.96c0-1.04.6-1.94 1.76-1.94.45 0 1.03.4 1.33.83.1.14.26.15.41.15.4 0 .71-.43.41-.86ZM10.09 8.14A2.74 2.74 0 0 1 12.24 7C13.71 7 15 8.28 15 9.96c0 .6-.18 1.33-.58 1.93a2.35 2.35 0 0 1-2 1.11c-.69 0-1.1-.3-1.44-.66h-.03c-.12 0-.15.11-.15.16v.12c0 .27-.2.38-.4.38-.28 0-.4-.26-.4-.41v-1.81c0-.28.24-.4.35-.4h.44c.39 0 .63.42.38.73.04.1.1.21.18.31.16.2.44.58 1.04.58.95 0 1.61-1.08 1.61-2.04 0-1.04-.83-1.94-1.76-1.94-.74 0-1.03.4-1.33.83-.1.14-.26.15-.41.15-.4 0-.71-.43-.41-.86Z" fill="#fff"/><path d="M5.83 8.77c-.09 0-.16.07-.16.17v.6h-.48a.2.2 0 1 0 0 .38h.48v.6a.17.17 0 0 0 .33 0v-.6h.47a.2.2 0 1 0 0-.38H6v-.6c0-.1-.07-.17-.17-.17Z" fill="#FF0281"/><ellipse cx="12.33" cy="9.15" rx=".33" ry=".38" fill="#FCE102"/><ellipse cx="12.33" cy="10.69" rx=".33" ry=".38" fill="#71FA00"/><ellipse cx="13" cy="9.92" rx=".33" ry=".38" fill="#FF0080"/><ellipse cx="11.67" cy="9.92" rx=".33" ry=".38" fill="#33DAF0"/><path d="M12.5 3c.28 0 .5.26.5.58v1.07C13 5.6 12.33 6 11.5 6H10c-.28 0-.5.39-.5.7v1.06c0 .32-.22.57-.5.57s-.5-.25-.5-.57V6.7C8.5 5.75 9.17 5 10 5h1.5c.28 0 .5-.04.5-.35V3.58c0-.32.22-.58.5-.58Z" fill="#fff"/><defs><linearGradient id="ao22mujkq" x1="3.35" y1="3.12" x2="21.9" y2="24.43" gradientUnits="userSpaceOnUse"><stop stop-color="#1A1E21"/><stop offset="1" stop-color="#06060A"/></linearGradient></defs></svg>