<!-- by TradingView --><svg width="18" height="18" viewBox="0 0 18 18" xmlns="http://www.w3.org/2000/svg"><path fill="#F0F3FA" d="M0 0h18v18H0z"/><circle cx="9" cy="11" fill="#8A51F7" r="4"/><path d="M8.83 11a3.75 3.75 0 0 1-2.16-.67c-.28 1.45-.24 4.34 2.16 4.34 2.4 0 2.45-2.9 2.17-4.34-.28.23-1.1.67-2.17.67Z" fill="#000053"/><path d="M6.83 11.17v-.5a4.28 4.28 0 0 0 4 0v.5a4.28 4.28 0 0 1-4 0ZM8.83 14c-.93 0-1.55-.28-1.83-.5.33.39.83 1 1.83 1s1.56-.67 1.84-1c-.23.17-.9.5-1.84.5Z" fill="#E4E4FC"/><path d="M10.67 3c-1.07 0-1.78.89-2 1.33l1.33 1c1.33-.66 2.11.34 2.33 1h.17C12.5 4.5 12 3 10.67 3Z" fill="#017FBF"/><path d="M7.5 3c1.2 0 1.72 1.11 1.83 1.67L9 6c-.11-.17-.6-.53-1.67-.67-1.06-.13-1.44.73-1.5 1.17h-.16C5.77 5.33 6.3 3 7.5 3Z" fill="#F16386"/><path d="M11 3.67c-1.83 0-2.5 2-2.33 4.33H11c-.11-.83-.1-2.57.83-2.83.94-.27 1.4.66 1.5 1.16h.34A2.62 2.62 0 0 0 11 3.67Z" fill="#E33432"/><path d="M4.67 6.33h-.34c0-1 .67-2.66 2-2.66C9 3.67 9.44 6.5 9.33 8H7c-.11-1-.5-3-1.17-3-.66 0-1.05.89-1.16 1.33Z" fill="#00ADA3"/><path d="m6.83 7.83.17.5h4c.11-.33.3-1 .17-1-.14 0-.4.23-.5.34-.11-.11-.4-.34-.67-.34s-.56.23-.67.34c-.1-.11-.4-.34-.66-.34-.27 0-.56.23-.67.34-.06-.06-.27-.17-.67-.17s-.5.22-.5.33Z" fill="#DAAD47"/><circle cx="4.5" cy="6.83" fill="#DAAD47" r=".5"/><circle cx="13.5" cy="6.5" fill="#DAAD47" r=".5"/><path d="M12.83 6.5a.33.33 0 1 1-.66 0 .33.33 0 0 1 .66 0Z" fill="#DAAD47"/><circle cx="5.67" cy="6.67" fill="#DAAD47" r=".33"/></svg>