<!-- by TradingView --><svg width="18" height="18" viewBox="0 0 18 18" xmlns="http://www.w3.org/2000/svg"><path fill="url(#ax31bcz2r)" d="M0 0h18v18H0z"/><path opacity=".5" fill-rule="evenodd" d="M3.05 13.06c-.09.17-.04.26 0 .28l.46-.06.3-.05c2.53-.44 4.25-.56 4.8-.56l.78.56c.05.03.26 0 .32-.1s-.01-.23-.06-.26c-.04-.02-.19-.2-.26-.29.57-.02 1.96-.05 3-.04a4.9 4.9 0 0 0 1.75-.22c.46.48 1.44 1.49 1.66 1.61.22.13.21.05.19 0a93.38 93.38 0 0 0-3.28-5.27c-1.1-1.53-3-3.95-3.27-4.26-.23-.27-.82-.86-1.04-1.07a18.2 18.2 0 0 1-.07-.08l-.05-.05c-.06-.07-.15-.18-.22-.2-.1-.02-.14.1-.11.19.02.07.14.19.2.24-.5.77-1.62 2.53-2.08 3.45l-.24.47a116.68 116.68 0 0 0-2.74 5.63l-.04.08Zm4.29-7.23-.72 1.61a22.2 22.2 0 0 1 3.96-.15l-2.3-3.56c-.11.23-.55 1.2-.94 2.1ZM4.66 11.4c.2-.35.9-1.69 1.23-2.3.11.28 1.22 2.01 1.76 2.85a8.53 8.53 0 0 0-2.82.62c-.7.32-1.36.48-1.34.36 0-.05.19-.27.4-.53.29-.34.63-.75.77-1ZM6.3 8.48l.22-.59c.4.02 1.37.06 1.95.05h.01l-.08.33c-.04.17-.43.65-.7.98l-.25.32c-.03.08.05.16.09.2l.01.01c.1.03.2-.02.24-.05l.3-.42.37.52c-.44.04-.81.14-.96.2a7.7 7.7 0 0 0-1.2-1.55Zm2.55 1.34c.45 0 .92.05 1.12.08l.36-.8c.17-.41.56-.95.74-1.17l-.16-.17-2 .14.24.45.14.27c0 .02.37.54.55.8.05.1.1.31-.09.32-.18.01-.35-.3-.42-.46l-.48.54Zm-.06 1.99c-.35-.37-.88-1.18-1.1-1.53a8.56 8.56 0 0 1 2.1-.05l-.9 1.58h-.1Zm1-.05c.44-.69 1.37-2.33 1.54-3.4l2.6 3.63c-.58-.16-2.23-.42-4.14-.23Zm-1.41-3 .32-.43.38.5-.7-.07Zm.12.4.15.42.31-.44-.46.03Z" fill="#fff"/><path d="M9.86 5.32c.03-.13.09-.32.81-.32.9 0 2.24.2 2.24 1.14 0 .75-1.24 1.74-1.86 2.14.65-.14 1.95-.13 1.95 1.03 0 1.15-2.3 2.87-3.44 3.58-.09.04-.31.11-.56.11-.3 0-.81-.47-.4-.73.4-.26 3.25-2.72 3.6-3.24.2-.3-.41-.24-1.04-.16-.47.06-.95.11-1.14.03-.46-.2-.14-.7.24-1.03l1.64-1.4c.22-.24.5-.73-.25-.77-.3-.02-.6 0-.86.03-.55.05-.97.09-.97-.32a.23.23 0 0 0 .04-.09Zm-4.5 6.92c-.17-.09-.46-.4-.33-.95l.23-.85c.25-.93.6-2.24.68-2.83l.03-.3c.08-.65.13-1.05.06-1.33-.1-.33-.04-.56.2-.57.23-.01.76.09.74 1.48 0 1.11-.27 1.91-.4 2.17.17-.14.6-.44 1-.44.52 0 .6.73.6 1.27v1.2c-.05.3-.07.7.33 0 .18-.29.27-.5.34-.63.13-.27.15-.3.35-.3.32 0 .06.69-.14 1.13l-.03.06c-.19.43-.4.89-.9.89-.81 0-.76-1.13-.72-2.08.01-.3.02-.57 0-.8-.57.16-.89.96-1.11 1.53l-.06.15c-.3.72-.55 1.2-.87 1.2Z" fill="#fff"/><defs><linearGradient id="ax31bcz2r" x1="0" y1="9" x2="18" y2="9" gradientUnits="userSpaceOnUse"><stop offset="0" stop-color="#5144FF"/><stop offset=".96" stop-color="#00E5FF"/></linearGradient></defs></svg>