<!-- by TradingView --><svg width="18" height="18" viewBox="0 0 18 18" xmlns="http://www.w3.org/2000/svg"><path fill="url(#asmvhwznj)" d="M0 0h18v18H0z"/><path fill-rule="evenodd" d="M3.05 13.06c-.09.17-.04.26 0 .28l.46-.06.3-.05c2.53-.44 4.25-.56 4.8-.56l.78.56c.05.03.26 0 .32-.1s-.01-.23-.06-.26c-.04-.02-.19-.2-.26-.29.57-.02 1.96-.05 3-.04a4.9 4.9 0 0 0 1.75-.22c.46.48 1.44 1.49 1.66 1.61.22.13.21.05.19 0a93.38 93.38 0 0 0-3.28-5.27c-1.1-1.53-3-3.95-3.27-4.26-.23-.27-.82-.86-1.04-1.07a18.2 18.2 0 0 1-.07-.08l-.05-.05c-.06-.07-.15-.18-.22-.2-.1-.02-.14.1-.11.19.02.07.14.19.2.24-.5.77-1.62 2.53-2.08 3.45l-.24.47a116.68 116.68 0 0 0-2.74 5.63l-.04.08Zm4.29-7.23-.72 1.61a22.2 22.2 0 0 1 3.96-.15l-2.3-3.56c-.11.23-.55 1.2-.94 2.1ZM4.66 11.4c.2-.35.9-1.69 1.23-2.3.11.28 1.22 2.01 1.76 2.85a8.53 8.53 0 0 0-2.82.62c-.7.32-1.36.48-1.34.36 0-.05.19-.27.4-.53.29-.34.63-.75.77-1ZM6.3 8.48l.22-.59c.4.02 1.37.06 1.95.05h.01l-.08.33c-.04.17-.43.65-.7.98l-.25.32c-.03.08.05.16.09.2l.01.01c.1.03.2-.02.24-.05l.3-.42.37.52c-.44.04-.81.14-.96.2a7.7 7.7 0 0 0-1.2-1.55Zm2.55 1.34c.45 0 .92.05 1.12.08l.36-.8c.17-.41.56-.95.74-1.17l-.16-.17-2 .14.24.45.14.27c0 .02.37.54.55.8.05.1.1.31-.09.32-.18.01-.35-.3-.42-.46l-.48.54Zm-.06 1.99c-.35-.37-.88-1.18-1.1-1.53a8.56 8.56 0 0 1 2.1-.05l-.9 1.58h-.1Zm1-.05c.44-.69 1.37-2.33 1.54-3.4l2.6 3.63c-.58-.16-2.23-.42-4.14-.23Zm-1.41-3 .32-.43.38.5-.7-.07Zm.12.4.15.42.31-.44-.46.03Z" fill="#646A2C"/><path d="M7.32 11.98c-.14.06-.4.03-.3-.59.12-.78 2.42-6.08 3.06-6.17.5-.07.64 2.67.64 4.05C11.35 7.85 12.75 5 13.29 5c.68-.01.98 1.1.94 2.07-.03.77.2 1.68.32 2.03.18-.22.91 2.53 0 2.3-.6-.16-1.2-3.4-1.44-5-.6 1.64-2 4.92-2.71 4.81-.7-.1-.92-2.12-.94-3.11-.5 1.21-1.64 3.68-2.14 3.88Zm-4-.05c-.12.12-.36.17-.31-.57.02-.37.14-1.15.26-1.97.19-1.23.39-2.57.31-2.8a.8.8 0 0 0-.26-.36c-.1-.08-.14-.12 0-.2.26-.12 1.1.07 1.04.87l-.22 2.45c.25-.26.85-.76 1.16-.76.4 0 .56.32.56.95l-.02.48c-.04.55-.07 1.11.26 1.11.29 0 .53-.55.69-.92.07-.17.13-.3.16-.3.08-.04.05.17.02.36a2 2 0 0 0-.02.21c0 .17-.05 1.29-.85 1.29-.8 0-.8-.7-.8-1.22l.01-.31c.02-.5.04-1.05-.3-.9-.43.2-1.04 1.34-1.13 1.68-.1.34-.41.84-.56.91Z" fill="#fff"/><defs><linearGradient id="asmvhwznj" x1="3.35" y1="3.12" x2="21.9" y2="24.43" gradientUnits="userSpaceOnUse"><stop stop-color="#1A1E21"/><stop offset="1" stop-color="#06060A"/></linearGradient></defs></svg>