<!-- by TradingView --><svg width="18" height="18" viewBox="0 0 18 18" xmlns="http://www.w3.org/2000/svg"><path fill="url(#aawsr0b3y)" d="M0 0h18v18H0z"/><path fill-rule="evenodd" d="M3.05 13.06c-.09.17-.04.26 0 .28l.46-.06.3-.05c2.53-.44 4.25-.56 4.8-.56l.78.56c.05.03.26 0 .32-.1s-.01-.23-.06-.26c-.04-.02-.19-.2-.26-.29.57-.02 1.96-.05 3-.04a4.9 4.9 0 0 0 1.75-.22c.46.48 1.44 1.49 1.66 1.61.22.13.21.05.19 0a93.38 93.38 0 0 0-3.28-5.27c-1.1-1.53-3-3.95-3.27-4.26-.23-.27-.82-.86-1.04-1.07a18.2 18.2 0 0 1-.07-.08l-.05-.05c-.06-.07-.15-.18-.22-.2-.1-.02-.14.1-.11.19.02.07.14.19.2.24-.5.77-1.62 2.53-2.08 3.45l-.24.47a116.68 116.68 0 0 0-2.74 5.63l-.04.08Zm4.29-7.23-.72 1.61a22.2 22.2 0 0 1 3.96-.15l-2.3-3.56c-.11.23-.55 1.2-.94 2.1ZM4.66 11.4c.2-.35.9-1.69 1.23-2.3.11.28 1.22 2.01 1.76 2.85a8.53 8.53 0 0 0-2.82.62c-.7.32-1.36.48-1.34.36 0-.05.19-.27.4-.53.29-.34.63-.75.77-1ZM6.3 8.48l.22-.59c.4.02 1.37.06 1.95.05h.01l-.08.33c-.04.17-.43.65-.7.98l-.25.32c-.03.08.05.16.09.2l.01.01c.1.03.2-.02.24-.05l.3-.42.37.52c-.44.04-.81.14-.96.2a7.7 7.7 0 0 0-1.2-1.55Zm2.55 1.34c.45 0 .92.05 1.12.08l.36-.8c.17-.41.56-.95.74-1.17l-.16-.17-2 .14.24.45.14.27c0 .02.37.54.55.8.05.1.1.31-.09.32-.18.01-.35-.3-.42-.46l-.48.54Zm-.06 1.99c-.35-.37-.88-1.18-1.1-1.53a8.56 8.56 0 0 1 2.1-.05l-.9 1.58h-.1Zm1-.05c.44-.69 1.37-2.33 1.54-3.4l2.6 3.63c-.58-.16-2.23-.42-4.14-.23Zm-1.41-3 .32-.43.38.5-.7-.07Zm.12.4.15.42.31-.44-.46.03Z" fill="#fff" opacity=".3"/><path fill-rule="evenodd" d="M7.77 12.12c0-.5.15-.8.23-.87 0 .4.15.55.4.55a7.2 7.2 0 0 0 1.45-.55c.25-.12.62-1.1.38-1.35l-.41-.38C9.36 9.11 8.68 8.5 8.4 8.14c-.38-.49-.31-.89-.16-1.2.15-.32 1.07-1.68 1.52-1.82.45-.14 1.16.6 1.16.7 0 .09-.24.13-.45-.1-.22-.24-.41 0-.85.53l-.03.04c-.36.44-.6.94-.67 1.14l2 2.06c-.03-.07.04-.43.52-1.35.27-.51.43-1.21.56-1.82.17-.74.3-1.34.58-1.32.5.04 1.86 3.58 1.86 5.85 0 2.28-.84 3.2-1.1 3.15-.27-.06-.24-.36 0-.56.22-.19.18-1.57.12-3.03l-1.73-.22c-.48 1.13-.9 2.05-1.05 2.07-.26.03-.25-.3-.21-.46-.23.3-.83.91-1.45.91H8.9c-.7 0-1.13 0-1.13-.6Zm5.21-5.06c.1.44.3 1.4.4 2.37h-1.33c.34-.85.69-1.73.93-2.37Zm-9.66 5.87c-.12.13-.36.18-.31-.63.02-.4.14-1.26.26-2.17.19-1.35.4-2.82.31-3.08a.89.89 0 0 0-.26-.4c-.09-.08-.14-.13 0-.2.26-.15 1.1.07 1.04.94-.04.7-.16 2.09-.22 2.7.26-.28.86-.84 1.17-.84.4 0 .56.35.56 1.05 0 .16 0 .34-.02.52-.03.6-.06 1.23.27 1.23.29 0 .53-.61.69-1.01.07-.19.13-.33.16-.35.08-.03.05.2.02.4l-.02.25c0 .17-.05 1.4-.85 1.4-.8 0-.8-.76-.8-1.33v-.35c.02-.54.05-1.15-.3-.97-.43.21-1.05 1.46-1.14 1.84-.1.37-.4.92-.56 1Z" fill="#fff"/><defs><linearGradient id="aawsr0b3y" x1="9" y1="0" x2="9" y2="18" gradientUnits="userSpaceOnUse"><stop stop-color="#3BBFF1"/><stop offset="1" stop-color="#0E0934"/></linearGradient></defs></svg>