<!-- by TradingView --><svg width="18" height="18" viewBox="0 0 18 18" xmlns="http://www.w3.org/2000/svg"><path fill="url(#aokf1jbwl)" d="M0 0h18v18H0z"/><path fill-rule="evenodd" d="M3.05 13.06c-.09.17-.04.26 0 .28l.46-.06.3-.05c2.53-.44 4.25-.56 4.8-.56l.78.56c.05.03.26 0 .32-.1s-.01-.23-.06-.26c-.04-.02-.19-.2-.26-.29.57-.02 1.96-.05 3-.04a4.9 4.9 0 0 0 1.75-.22c.46.48 1.44 1.49 1.66 1.61.22.13.21.05.19 0a93.38 93.38 0 0 0-3.28-5.27c-1.1-1.53-3-3.95-3.27-4.26-.23-.27-.82-.86-1.04-1.07a18.2 18.2 0 0 1-.07-.08l-.05-.05c-.06-.07-.15-.18-.22-.2-.1-.02-.14.1-.11.19.02.07.14.19.2.24-.5.77-1.62 2.53-2.08 3.45l-.24.47a116.68 116.68 0 0 0-2.74 5.63l-.04.08Zm4.29-7.23-.72 1.61a22.2 22.2 0 0 1 3.96-.15l-2.3-3.56c-.11.23-.55 1.2-.94 2.1ZM4.66 11.4c.2-.35.9-1.69 1.23-2.3.11.28 1.22 2.01 1.76 2.85a8.53 8.53 0 0 0-2.82.62c-.7.32-1.36.48-1.34.36 0-.05.19-.27.4-.53.29-.34.63-.75.77-1ZM6.3 8.48l.22-.59c.4.02 1.37.06 1.95.05h.01l-.08.33c-.04.17-.43.65-.7.98l-.25.32c-.03.08.05.16.09.2l.01.01c.1.03.2-.02.24-.05l.3-.42.37.52c-.44.04-.81.14-.96.2a7.7 7.7 0 0 0-1.2-1.55Zm2.55 1.34c.45 0 .92.05 1.12.08l.36-.8c.17-.41.56-.95.74-1.17l-.16-.17-2 .14.24.45.14.27c0 .02.37.54.55.8.05.1.1.31-.09.32-.18.01-.35-.3-.42-.46l-.48.54Zm-.06 1.99c-.35-.37-.88-1.18-1.1-1.53a8.56 8.56 0 0 1 2.1-.05l-.9 1.58h-.1Zm1-.05c.44-.69 1.37-2.33 1.54-3.4l2.6 3.63c-.58-.16-2.23-.42-4.14-.23Zm-1.41-3 .32-.43.38.5-.7-.07Zm.12.4.15.42.31-.44-.46.03Z" fill="#fff" opacity=".5"/><path d="M9.5 12.83c-.13-.08-.25-.33.27-.74.2-.14.58-.31 1.02-.5 1.06-.45 2.39-1.02 1.87-1.7a5 5 0 0 0-1.76-1.14c-.74-.36-1.4-.67-1.4-1.06 0-.75 1.05-1.8 1.9-2.24A3.74 3.74 0 0 1 12.95 5c.14.28.38.88.21 1.07-.17.19-.56-.08-.74-.23-.6.35-1.8 1.1-1.87 1.32-.1.28.1.45 1.1.66 1.01.2 2.35 1.13 2.35 2.06 0 .94-2.44 3.03-3.83 3.12-.31 0-.58-.11-.68-.17Zm-5.19.09c-.12.14-.35.2-.3-.65.02-.42.13-1.31.25-2.26.18-1.4.38-2.93.3-3.2a.93.93 0 0 0-.25-.4c-.09-.1-.13-.15 0-.23.25-.15 1.07.07 1.01.98-.04.73-.16 2.18-.21 2.8.25-.28.83-.87 1.13-.87.38 0 .54.38.54 1.1 0 .17 0 .35-.02.54-.03.63-.06 1.28.26 1.28.28 0 .52-.64.67-1.05.07-.2.12-.34.16-.36.07-.04.04.2.02.42l-.02.25c0 .18-.06 1.46-.83 1.46-.78 0-.78-.8-.78-1.39l.01-.36c.02-.56.04-1.2-.3-1.01-.41.22-1 1.52-1.1 1.91-.09.39-.4.96-.54 1.04Z" fill="#fff"/><defs><linearGradient id="aokf1jbwl" x1="0" y1="0" x2="18" y2="18" gradientUnits="userSpaceOnUse"><stop stop-color="#FF3409"/><stop offset=".51" stop-color="#FE00DC"/><stop offset="1" stop-color="#A500FF"/></linearGradient></defs></svg>