<!-- by TradingView --><svg xmlns="http://www.w3.org/2000/svg" width="18" height="18"><path fill="#F0F3FA" d="M0 0h18v18H0z"/><path fill-rule="evenodd" d="M9.25 5.1c.12-.03.23-.1.32-.18l2.81 1.55a.8.8 0 00-.06.38L9.25 8.57V5.11zM8.49 9L5.48 7.3c-.1.12-.23.2-.37.26v2.86c.15.05.28.15.38.27l3-1.69zm-2.83 2.16l3.09-1.73v3.45a.83.83 0 00-.34.2l-2.83-1.53a.8.8 0 00.08-.39zM9.51 9l3-1.68c.09.11.21.2.36.26v2.84a.84.84 0 00-.37.26L9.51 9zm-.26.43l3.07 1.72a.85.85 0 00.08.4L9.57 13.1a.83.83 0 00-.32-.2V9.43zm-.5-4.31v3.45L5.66 6.84a.8.8 0 00-.06-.37l2.8-1.55c.1.09.21.16.34.2zm-.6-.8c0 .07.01.12.03.18l-2.9 1.6a.84.84 0 00-.45-.13.82.82 0 00-.83.82c0 .35.23.66.55.77v2.86a.82.82 0 00-.55.77c0 .45.37.81.83.81.15 0 .28-.03.4-.1l2.94 1.6a.82.82 0 00.82 1 .83.83 0 00.81-1l2.93-1.59A.83.83 0 0014 11.2a.83.83 0 00-.58-.78V7.58c.34-.1.58-.42.58-.78a.83.83 0 00-.84-.83.85.85 0 00-.46.14L9.8 4.5a.82.82 0 00-.81-1 .83.83 0 00-.83.83z" fill="#282828"/><circle cx="9" cy="9" r="2" fill="#03A0DD"/></svg>