<!-- by TradingView --><svg width="18" height="18" viewBox="0 0 18 18" xmlns="http://www.w3.org/2000/svg"><path fill="#F0F3FA" d="M0 0h18v18H0z"/><path d="M9 15a6 6 0 0 0 5.94-6.86l-1.28 1.04a4.67 4.67 0 0 1-9.32-.01H4.3L3.06 8.15A6 6 0 0 0 9 15Zm3.28-9.53 2.09.85a6 6 0 0 0-9.04-2.07l2.35.27a4.67 4.67 0 0 1 4.3.9l.3.05Zm-5.13 5.15a16.9 16.9 0 0 0-3.76-3.66c-.05-.05-.16-.18-.15-.32 0-1.08 1.54-1.54 2.53-1.54.56 0 .95.06 1.28.11.25.04.47.07.7.07.27 0 .65-.06 1.02-.11.39-.06.78-.12 1.08-.12.46 0 .81.2.93.3-.67.08-1.41.3-1.7.41.27.1.5.32.59.43 1.72-.6 2.96-.12 3.37.2a6.73 6.73 0 0 0-2.68.58l.42.39c1.19-.34 1.9-.04 2.1.15-.47.04-1.13.2-1.4.27l1.5.77c.19 1.9-.9 2.26-2.12 2.27-1.15.01-1.33.54-1.5 1l-.03.1a6 6 0 0 0-.17 1.57c-.2-.86-.62-2.76-.7-3.46-.08-.78.24-.85.52-.9.03-.02.07-.02.1-.03.3-.08.63-.4.5-.81a1.7 1.7 0 0 0-.45-.7c.51 1 .23 1.1-.28 1.27l-.29.1c-.68.28-.5 1.44-.46 1.73.03.23.32 1.4.46 1.95-1.04.2-1.36-.55-1.51-.9-.12-.27-.43-1.05-.57-1.41.22.06.54.22.67.3ZM5.98 5.54c-.39-.03-.7.05-.82.08.1.36.37.55.71.55.28 0 .5-.23.58-.35l-.47-.28Z" fill="url(#aggttgoyq)"/><defs><linearGradient id="aggttgoyq" x1="3.81" y1="5.89" x2="15.46" y2="10.34" gradientUnits="userSpaceOnUse"><stop stop-color="#00B1D3"/><stop offset="1" stop-color="#00EED4"/></linearGradient></defs></svg>