<!-- by TradingView --><svg width="18" height="18" viewBox="0 0 18 18" xmlns="http://www.w3.org/2000/svg"><path fill="#F0F3FA" d="M0 0h18v18H0z"/><path d="M6.35 6h7.76l-2.46-1.58H3.87L6.35 6Zm8.43.5h-8.5a.2.2 0 0 1-.1-.03L3.1 4.43a.24.24 0 0 1-.1-.26c.03-.1.12-.17.22-.17h8.5c.03 0 .07.01.1.03l3.08 2.04c.08.05.12.16.1.26a.22.22 0 0 1-.22.17ZM6.5 13.58h7.63L11.65 12H3.9l2.59 1.58Zm8.3.42h-8.5a.2.2 0 0 1-.12-.03L3.1 11.93a.24.24 0 0 1-.1-.26c.03-.1.12-.17.22-.17h8.5c.03 0 .07.01.1.03l3.08 2.04c.08.05.12.16.1.26a.22.22 0 0 1-.22.17ZM9 10.5a1.5 1.5 0 0 1-.02-3H9a1.49 1.49 0 0 1 1.5 1.48c0 .83-.66 1.51-1.49 1.52H9Z"/></svg>