<!-- by TradingView --><svg width="18" height="18" viewBox="0 0 18 18" xmlns="http://www.w3.org/2000/svg"><path fill="#181B1E" d="M0 0h18v18H0z"/><path fill-rule="evenodd" d="M9 15A6 6 0 1 0 9 3a6 6 0 0 0 0 12Zm0-.69A5.31 5.31 0 1 0 9 3.7 5.31 5.31 0 0 0 9 14.3Z" fill="#F58580"/><path d="M9 6c.2 0 .36.16.36.37v6.26c0 .2-.16.37-.36.37a.37.37 0 0 1-.36-.37V6.37c0-.2.16-.37.36-.37Z" fill="#F0F3FA"/><path d="M8 11.37c0-.2.16-.37.36-.37h1.28c.2 0 .36.16.36.37 0 .2-.16.37-.36.37H8.36a.37.37 0 0 1-.36-.37ZM7 8.03c0-.2.16-.37.36-.37h3.28c.2 0 .36.16.36.37 0 .2-.16.36-.36.36H7.36A.37.37 0 0 1 7 8.03Z" fill="#F0F3FA"/><path d="M10.53 6.46c.14.13.14.35.01.48L9.27 8.27 7.93 9.59a.33.33 0 0 1-.47 0 .34.34 0 0 1 0-.48l1.32-1.32 1.27-1.32a.34.34 0 0 1 .48 0Z" fill="#F0F3FA"/><path d="M7.47 6.46a.34.34 0 0 1 .48.01L9.21 7.8l1.33 1.32c.13.13.13.34 0 .48a.34.34 0 0 1-.48 0L8.72 8.26 7.46 6.94a.34.34 0 0 1 0-.48Z" fill="#F0F3FA"/></svg>