<!-- by TradingView --><svg width="18" height="18" viewBox="0 0 18 18" xmlns="http://www.w3.org/2000/svg"><path fill="#F0F3FA" d="M0 0h18v18H0z"/><path d="M9 7a2 2 0 1 1 0 3.99A2 2 0 0 1 9 7Z" fill="url(#aahaz2zvd)"/><path d="m7.95 7.76-.06.16c.36 0 .31.05.51-.16.21-.23.17-.12.52-.13.54-.01.22-.36.97-.36-.57.15-.44.3-.81.5-.3.17-.67.3-1.03.31l.2.2c.86.03.74.3 1.3.22.31-.05.77-.02 1.08.05l.27.13-.91-.04c.2.32-.01-.01-.03.98l.24.17c.13.1.14.08.2.21.07.12.05.2.09.33A2 2 0 0 0 9 7h-.1c-.08.08-.2.13-.43.37-.2.21-.39.28-.53.39ZM10.32 10.5c-.16-.18-.4-.09-1.06-.23-.2-.04-.4-.13-.5-.15-.3-.04-.13.08-.5-.03.1.25.14.07.16.43-.12-.05-.13-.07-.23-.14l-.55-.47c-.1-.12-.1-.18-.25-.26-.13-.07-.19-.06-.31-.14a2 2 0 0 0 3.24.99Z" fill="#051332"/><path d="M8.87 9.08c-.1.2-.24.24-.52.26-.41.03-.34.1-.63.15v.12c.18.03.34.13.45.3.57.19.19.05.44.04.12 0 .35.13.52.15l.56.1c.3.04.35-.08.6.1V10c-.71-.48-.18-1.06-.6-1.08-.31-.02-.6.15-.82.16Z" fill="#051332"/><path d="M7.06 9.46c.8.04.22.06.76-.13.17-.07.3-.01.48-.04.19-.03.24-.12.37-.2.3-.3.64-.1.9-.24-.2-.12-.24-.02-.45-.11-.16-.08-.14-.13-.32-.2-.33-.13-.6.07-.76-.25-.22-.1-.36-.13-.55-.01-.2.12-.17.14-.43.23a1.95 1.95 0 0 0 0 .95ZM7.1 8.42c.23-.06.12-.07.3-.23.31-.26.25.03.12-.33.27.14.2.24.38-.1l.05-.45c-.41.25-.72.64-.86 1.11Z" fill="#051332"/><path fill-rule="evenodd" d="M13 4.34c-.12-.47-2-.45-4.21.05-2.2.5-3.9 1.3-3.78 1.77.11.47 2 .45 4.2-.05 2.21-.5 3.9-1.3 3.78-1.77ZM9.47 5.68c1.72-.44 3.02-.99 3.02-1.2 0-.4-1.56-.24-3.39.14-1.9.4-3.6 1.08-3.6 1.43 0 .39 1.98.13 3.97-.37ZM13 11.84c-.12-.47-2-.45-4.21.05-2.2.5-3.9 1.3-3.78 1.77.11.47 2 .45 4.2-.05 2.21-.5 3.9-1.3 3.78-1.77Zm-3.52 1.34c1.72-.44 3.02-.99 3.02-1.2 0-.4-1.56-.24-3.39.14-1.9.4-3.6 1.08-3.6 1.43 0 .39 1.98.13 3.97-.37Z" fill="#181B1E"/><defs><linearGradient id="aahaz2zvd" x1="9" y1="7" x2="9" y2="10.99" gradientUnits="userSpaceOnUse"><stop stop-color="#733D14"/><stop offset=".28" stop-color="#D77925"/><stop offset=".58" stop-color="#A74121"/><stop offset=".75" stop-color="#D47825"/><stop offset="1" stop-color="#8B4C18"/></linearGradient></defs></svg>