<!-- by TradingView --><svg width="18" height="18" viewBox="0 0 18 18" xmlns="http://www.w3.org/2000/svg"><path fill="url(#a2kqcsihx)" d="M0 0h18v18H0z"/><path fill-rule="evenodd" d="M12 14c-.44 0-.93-.1-1.46-.27A8.12 8.12 0 0 1 9 12.99c-.52.32-1.04.56-1.55.74-.53.18-1.01.27-1.45.27a2 2 0 0 1-1.47-.53c-.6-.61-.7-1.65-.26-2.93.17-.5.42-1.02.74-1.54a8.13 8.13 0 0 1-.74-1.54c-.44-1.28-.34-2.32.26-2.93.61-.6 1.65-.7 2.93-.26.5.18 1.02.42 1.54.74a8.08 8.08 0 0 1 1.54-.74c1.28-.43 2.32-.34 2.93.26.6.61.7 1.65.26 2.93A8.1 8.1 0 0 1 12.99 9c.32.52.57 1.04.74 1.54.44 1.28.34 2.32-.26 2.93A2 2 0 0 1 12 14Zm-.93-2.93A11.7 11.7 0 0 1 9 12.72 11.7 11.7 0 0 1 5.28 9 11.73 11.73 0 0 1 9 5.28 11.7 11.7 0 0 1 12.72 9c-.44.7-1 1.41-1.65 2.07Zm.16.16c-.64.64-1.32 1.19-2 1.63.46.27.93.5 1.39.65 1.19.4 2.14.33 2.68-.2.54-.55.62-1.5.2-2.7a7.77 7.77 0 0 0-.64-1.39c-.44.69-1 1.37-1.63 2Zm-4.46 0a12 12 0 0 1-1.63-2.01c-.27.47-.5.94-.65 1.4-.4 1.19-.33 2.14.2 2.68.55.54 1.5.62 2.7.2.45-.15.92-.37 1.39-.64-.69-.44-1.37-1-2-1.63Zm0-4.46c-.64.64-1.19 1.32-1.63 2-.27-.46-.5-.93-.65-1.39-.4-1.19-.33-2.14.2-2.68.32-.31.76-.47 1.31-.47.41 0 .87.09 1.38.26.46.16.93.38 1.4.65-.69.44-1.37 1-2 1.63Zm4.46 0a12.01 12.01 0 0 0-2.01-1.63c.47-.27.94-.5 1.4-.65.5-.17.97-.26 1.38-.26.55 0 1 .16 1.3.47.54.54.62 1.5.2 2.68-.15.46-.37.93-.64 1.4-.44-.69-1-1.37-1.63-2ZM6.5 9c2.46-.35 2.47-2.5 2.47-2.5v.03a2.66 2.66 0 0 0 2.53 2.44V9c-2.46.35-2.47 2.5-2.47 2.5v-.03C8.67 9.04 6.5 9.03 6.5 9.03V9Z" fill="#fff"/><defs><linearGradient id="a2kqcsihx" x1="3.35" y1="3.12" x2="21.9" y2="24.43" gradientUnits="userSpaceOnUse"><stop stop-color="#1A1E21"/><stop offset="1" stop-color="#06060A"/></linearGradient></defs></svg>