<!-- by TradingView --><svg width="18" height="18" viewBox="0 0 18 18" xmlns="http://www.w3.org/2000/svg"><path fill="url(#arirnj2ft)" d="M0 0h18v18H0z"/><path fill-rule="evenodd" d="M4.1 11c3.33 2.42 5.53 1.97 5.53 1.97C12.05 12.97 14 11.2 14 9s-1.95-3.96-4.37-3.96c0 0-2.2-.48-5.53 1.97l.58.13L3 9l1.68 1.86-.58.13ZM9 8H7.83l-.62 3H7.2L7 12H8.8l.2-1h-.63L9 8Zm1.75-2H8.13L8 7h2.29s.72-.07.72.59c0 .9-.97.91-.97.91h-.39l-.15 1h.54s.63-.12.63.6c0 .73-.67 1-.67 1l-.18.9c1.15 0 1.91-1.02 1.91-1.97 0-.94-.72-1.03-.72-1.03.13 0 .99-.45.99-1.79C12 6.02 10.75 6 10.75 6Z" fill="#F0F3FA"/><defs><linearGradient id="arirnj2ft" x1="16.23" y1="3.7" x2="2.09" y2="15.11" gradientUnits="userSpaceOnUse"><stop stop-color="#DC738F"/><stop offset="1" stop-color="#514CDF"/></linearGradient></defs></svg>