<!-- by TradingView --><svg width="18" height="18" fill="none" xmlns="http://www.w3.org/2000/svg"><path fill="#E1F345" d="M0 0h18v18H0z"/><path opacity=".9" fill-rule="evenodd" clip-rule="evenodd" d="M8.638 5.425c.202-.517.705-1.04 1.734-1.425.171.3.426.91.423 1.474 1.335.234 2.413 1.285 2.77 2.656.239.175.415.38.494.5.038.095.114.365.114.685.146.208.411.74.3 1.198-.26-.042-.598-.131-.944-.278a3.658 3.658 0 01-1.65 2.132 3.262 3.262 0 01-1.649.446h-.133a1.476 1.476 0 01-.14.251c-.02-.034-.04-.07-.063-.107-.13.3-.569.682-.786.845a2.739 2.739 0 01-.12-.424 4.725 4.725 0 01-.386.622c-.114-.182-.299-.617-.348-1.187H6.96c-.595 0-1.155-.16-1.644-.444a3.577 3.577 0 01-1.27-1.259A3.86 3.86 0 013.5 9.119c0-.256.024-.505.07-.746.096-.497.285-.958.547-1.361.194-.297.427-.562.692-.787a3.66 3.66 0 01-.508-.524c1.256.176 1.79-.385 2.068-.677.06-.061.107-.111.147-.14.216-.15.8.055 1.175.187.026.01.052.018.076.026.123.043.21.172.27.328h.601z" fill="url(#paint0_linear_1530)"/><circle cx="13.5" cy="13" r="1" fill="url(#paint1_linear_1530)"/><rect x="6" y="8" width="5" height="2" rx="1" fill="#E1F345"/><defs><linearGradient id="paint0_linear_1530" x1="6.229" y1="4.832" x2="6.428" y2="13.999" gradientUnits="userSpaceOnUse"><stop stop-color="#8DA23B"/><stop offset=".474" stop-color="#061A00"/><stop offset="1" stop-color="#5D7745"/></linearGradient><linearGradient id="paint1_linear_1530" x1="13.5" y1="12" x2="13.5" y2="14" gradientUnits="userSpaceOnUse"><stop stop-color="#374E27"/><stop offset="1" stop-color="#030B02"/></linearGradient></defs></svg>