<!-- by TradingView --><svg width="18" height="18" viewBox="0 0 18 18" xmlns="http://www.w3.org/2000/svg"><path fill="#308D8A" d="M0 0h18v18H0z"/><path d="M7.46 7.31c1.04-1 2.09-2.02 3.56-2.28 2.03-.26 3.42 1.27 2.85 3.32-.09.37-.26.72-.49 1.02l-.08.1c-.13.16-.31.38-.49.48l.14.5.03.12.02.08.01.03.11.4c.01.05 0 .1-.02.14.05.14-.02.32-.22.31-.4.05-.8.1-1.2.13-.69.06-1.38.13-2.06.26-1.23.21-2.43.57-3.57 1.08a.18.18 0 0 1-.13-.06.18.18 0 0 1-.14-.08c-.11-.2-.18-.43-.24-.65a4.65 4.65 0 0 0-.24-.68c-.34.09-.7.1-1.06.03-1.5-.21-1.53-1.73-.67-2.72.54-.6 1.42-.8 2.19-.73l.19.03c.16.02.35.05.5.12.34-.3.67-.62 1-.94Zm5.14 2.26a2.64 2.64 0 0 0 .72-3.16c-.27-.56-.89-.82-1.47-.94-1.15-.18-2.25.5-3.1 1.23-.37.32-.72.66-1.07 1A11.3 11.3 0 0 1 5.9 9.21c-.23.15-.46-.2-.23-.36l.35-.25a2.42 2.42 0 0 0-2.06.45c-.41.42-.78 1.22-.36 1.75.61.55 1.57.4 2.24.04a.21.21 0 0 1 .28.1c.1.25-.19.37-.43.45.1.23.18.47.26.71l.14.42A15.32 15.32 0 0 1 9 11.6c.87-.19 1.75-.28 2.63-.37l1.05-.1a14.4 14.4 0 0 1-.23-.83c-.03-.1-.07-.22-.07-.32a7.7 7.7 0 0 0-1.53 0c-.38.03-.76.07-1.14.16l-.6.18a178.67 178.67 0 0 1-.25.07.2.2 0 0 1-.22-.06.22.22 0 0 1-.02-.24.21.21 0 0 1 .12-.1c.37-.14.74-.25 1.13-.33.3-.05.62-.09.93-.11.26-.32.3-.79.16-1.17-.08-.27.32-.4.4-.13a1.64 1.64 0 0 1-.06 1.27h.49a2.58 2.58 0 0 0 .41-1.06c.03-.27.44-.23.42.05 0 .21-.09.72-.28 1.04h.07l.18.03Zm-5.77 1.65c.41-.17.84-.3 1.27-.4.26-.08.39.32.13.4l-.15.04-.38.1a5.74 5.74 0 0 0-.8.29c-.17.09-.33.18-.46.01-.13-.24.15-.35.34-.42l.05-.02Z" fill="#fff"/></svg>