<!-- by TradingView --><svg width="18" height="18" xmlns="http://www.w3.org/2000/svg"><path fill="#F0F3FA" d="M0 0h18v18H0z"/><path d="M7 9.427l-2 2.322v-6.75a1 1 0 112 0v4.428z" fill="url(#paint0_linear)"/><path d="M6.928 7.768l-.088-3.3 5.52 6.87a1.03 1.03 0 01-.147 1.434.982.982 0 01-1.398-.144l-3.887-4.86z" fill="url(#paint1_linear)"/><path d="M5.002 11.669l2-2.45V12a1 1 0 01-2 0v-.332z" fill="#FFC524"/><path d="M5.002 5.358l2 2.525V5a1 1 0 10-2 0v.358z" fill="#91D450"/><path d="M12.894 6.06A1.502 1.502 0 0011.5 4a1.502 1.502 0 00-1.408 2.025c.284.957 1.028 1.702 1.4 1.975a4.022 4.022 0 001.402-1.94z" fill="#FF7819"/><circle cx="11.5" cy="5.5" r=".5" fill="#AC46BC"/><defs><linearGradient id="paint0_linear" x1="7" y1="8.089" x2="5" y2="8.07" gradientUnits="userSpaceOnUse"><stop stop-color="#5DC17C"/><stop offset="1" stop-color="#8CD037"/></linearGradient><linearGradient id="paint1_linear" x1="6.839" y1="6.013" x2="12.339" y2="12.667" gradientUnits="userSpaceOnUse"><stop stop-color="#9CD863"/><stop offset="1" stop-color="#49ADDA"/></linearGradient></defs></svg>