<!-- by TradingView --><svg width="18" height="18" viewBox="0 0 18 18" xmlns="http://www.w3.org/2000/svg"><path fill="#F0F3FA" d="M0 0h18v18H0z"/><path fill="#130F19" d="M4 4h10v10H4z"/><path d="M7.33 5.85v-.1c-.25-.54-.55-.32-.7-1.02a.08.08 0 0 0-.01-.04.86.86 0 0 1-.1-.1c-.33-.47-.6-.08-.98-.38a.1.1 0 0 0-.04-.02c-.1-.01-.13-.07-.12-.15 0-.02 0-.03-.03-.04-.02 0-.02 0-.02.02v.18c0 .01 0 .02-.02.02-.97 0-.63-.03-1.18.04A.22.22 0 0 1 4 4.3v.86c.12-.2.34.93 2.68 1.15.35.07.31-.5.65-.46Z" fill="#407695"/><path d="M4.3 5.23v.03c.03.2.97.05 1.15.47l.03.03c1.02.6.53.93-1.38-.03-.06-.03-.08-.22-.1-.2v-.46l.04-.06h.05l.01.01c.12 0 .17.13.2.2Z" fill="#24597B"/><path d="m4.2 5.58.05.03c.62.1.91.48 1.02.6.02.01.03.03.05.03.02.01.02.02 0 .02s-.06.06-.08.06c-.1-.04-.18-.1-.27-.06l-.97.4V5.36c.02-.03.07-.02.14.03.01 0 .03.02.03.04a.1.1 0 0 1 0 .05c0 .04 0 .08.03.11Z" fill="#124268"/><path d="M5.48 4.82c.25.2.34.3.51.47l.2.17a.3.3 0 0 1 .07.08c.04.07.1.09.18.07l.07-.05c.17-.18.56.25.56.4a8.36 8.36 0 0 0-.86.27c-.84.33-.18-.62-.84-.77a.04.04 0 0 1-.03-.02.06.06 0 0 1 0-.03l-.01-.04-.23-.4a.05.05 0 0 0-.04-.02c-.18-.04-.23-.12-.15-.25-.02-.02-.02-.04 0-.05h.02l.27.03c.01 0 .03 0 .04.02l.03.04h.03c.14-.01.2.01.18.08Z" fill="#759AB3"/><path d="m10.11 5.64.55.1.46.05a.06.06 0 0 1 .05.06l-.05.64v.15l.01.04.27.12.1.06c.2.14.34.33.42.58l.02.39c-.01.13-.04.27-.1.4-.01.05 0 .07.05.08l.16.01a.1.1 0 0 0 .1-.06c.05-.08.11-.15.2-.21.13-.11.3-.27.46-.32.13-.04.23-.12.38-.1.01 0 .03 0 .03.02.09.09.13.2.13.32l.05.42c.02.09.02.16.01.22a7.81 7.81 0 0 0 0 .26l.12.15c.02.01.02.04.02.06v.01c.03.01.04.03.04.06 0 .06.05.16.12.3.03.2-.01.37-.09.55a.83.83 0 0 1-.11.2 1.57 1.57 0 0 1-.47.44 6.5 6.5 0 0 0-.26.17l-.27.12a.05.05 0 0 0-.03.06l.06.16a.43.43 0 0 1-.1.46.4.4 0 0 1-.21.1.39.39 0 0 1-.25-.07 1.34 1.34 0 0 1-.2-.2c-.07-.07-.1-.17-.13-.26a.07.07 0 0 0-.07-.05h-.4a.03.03 0 0 0-.02.02v.01l.03.3c0 .08-.03.16-.08.24-.09.09-.2.12-.34.09a.89.89 0 0 1-.46-.4l-.1-.25a.05.05 0 0 0-.03-.03 71.88 71.88 0 0 1-.62-.14.55.55 0 0 1-.19-.08.08.08 0 0 0-.05 0H9.1a.1.1 0 0 0-.04.01l-.03.02H9c-.22.3-.5.65-.86.74-.23.06-.43-.07-.4-.32a.65.65 0 0 1 .2-.38l.16-.16c.02-.02.02-.03 0-.04a.19.19 0 0 0-.06-.02c-.02 0-.03 0-.03.02-.01.07-.03.15-.1.17a14.39 14.39 0 0 1-1.03.64c-.24.1-.44.1-.61-.03-.06-.07-.08-.14-.08-.2 0-.1.04-.21.1-.33l.23-.26c.13-.11.27-.2.42-.29.05-.02.06-.05.05-.1l-.13-.39a.04.04 0 0 0-.03-.03 2.25 2.25 0 0 1-1.17-.48c-.3-.21-.5-.47-.66-.78l-.04-.18c0-.09.01-.17.04-.25.13-.23.33-.19.55-.14.43.21.74.56.98.98.04.05.1.08.18.09.01 0 .02 0 .03-.02.1-.35.3-.62.59-.82l.01-.03-.02-.08v-.28l-.03-.34-.02-.38-.02-.43-.02-.38-.03-.46v-.1c.02-.04.04-.05.09-.06l.18-.02.36-.02h.03l.62-.08.25-.03a5.42 5.42 0 0 0 .67-.05c.09 0 .17-.02.25-.01l.46.05Z" fill="#080D13"/><path d="M4.02 4C4.01 4 4 4 4 4.02v.35c1.4.08 1.69.4 2.46.3a.87.87 0 0 0 .1.12l.01.02c.07.35.41.72.58.85l.03.04.07.16c0-.04.04-.05.08-.06.06 0 .12 0 .18-.02.66-.04 1.32-.18 1.97-.18a1 1 0 0 0 .1 0h.15c.5.04 1 .13 1.5.2l.04.01.01.05-.06.64v.15c0 .01 0 .02.02.03.38.17.63.28.8.77l.02.39c-.01.13-.04.27-.1.4-.01.05 0 .07.05.08l.16.01a.1.1 0 0 0 .1-.06c.16-.27.68-.67 1.06-.64l.04.02c.08.1.12.2.12.33.02.08.04.1.07.1a.68.68 0 0 0 .06-.14c.13-.44-.03-.1-.05-.57a.1.1 0 0 0 0-.04.3.3 0 0 1-.02-.22c.18-.6-.22-.3-.48-.83-.2-.18-.27-.61-.44-.75a.08.08 0 0 0-.1 0c-.47.4-.55.27-1.02.22-.2-.02-.26-.02-.38-.18a.05.05 0 0 1-.02-.04c.03-.28-.08-.36-.25-.53a.04.04 0 0 1-.02-.04c0-.03-.01-.05-.05-.06a.36.36 0 0 1-.24-.19.26.26 0 0 0-.07-.08c-.08-.07-1.97-.6-1.36-.63h-5.1Z" fill="#0A335E"/><path d="m7.2 5.96.03.46c-.38-.09-.7.05-1.05.16-.23.08-.51.17-.74.11-.28-.08-.56-.23-.86-.16-.18.05-.37.11-.57.2V6.4l.79-.3.16.01.15.02.2.04c.18.1.38.14.58.12l.32-.06a8.4 8.4 0 0 1 .86-.27.4.4 0 0 1 .13 0Z" fill="#FE031B"/><path d="m7.23 6.42.02.38c-.14-.03-.28-.07-.42-.08-.16 0-.32.02-.46.07l-.6.2c-.19.05-.38.05-.58-.01-.14-.04-.28-.12-.43-.14-.28-.04-.5.05-.76.13v-.25c.21-.08.4-.14.58-.19.3-.07.58.08.86.16.23.06.5-.03.74-.1.34-.12.67-.26 1.05-.17Z" fill="#FF9429"/><path d="m7.25 6.8.02.43c-.18-.07-.37-.15-.55-.16-.58-.06-1.06.4-1.63.24l-.26-.1c-.27-.1-.54-.09-.83.03v-.27c.26-.08.48-.17.76-.13.15.02.29.1.43.14.2.06.4.06.59 0l.59-.19c.14-.05.3-.07.46-.07.14 0 .28.05.42.08Z" fill="#FEFD38"/><path d="m7.27 7.23.02.38-.48-.15c-.32-.11-.58-.07-.92.05-.22.07-.4.12-.55.14-.2.03-.38 0-.54-.08A1.2 1.2 0 0 0 4 7.5v-.25c.29-.12.56-.13.83-.02l.26.1c.57.14 1.05-.3 1.63-.25.18.01.37.1.55.16Z" fill="#00FB30"/><path d="m7.29 7.61.02.34c-.27-.02-.52-.13-.78-.22a.95.95 0 0 0-.5 0l-.6.18c-.15.05-.3.06-.45.05-.17-.02-.36-.1-.53-.17a.77.77 0 0 0-.44-.02L4 7.49c.28-.06.54-.04.8.08.16.08.34.1.54.08.14-.02.33-.07.55-.14.34-.12.6-.16.92-.05l.48.15Z" fill="#0058F4"/><path d="m7.31 7.95.01.28a.67.67 0 0 1-.28.02 2.4 2.4 0 0 1-.5-.16 1.4 1.4 0 0 0-1 .02c-.22-.05-.41-.09-.54.14-.16 0-.32-.03-.48-.1A1.26 1.26 0 0 0 4 8v-.24a.77.77 0 0 1 .45.02c.17.07.36.15.53.17.15.01.3 0 .45-.05l.6-.18c.21-.04.38-.04.5 0 .26.09.51.2.78.22Z" fill="#FF0AF6"/><path d="m7.32 8.23.02.08-.01.03c-.3.2-.49.47-.6.82 0 .01 0 .02-.02.02-.08 0-.14-.04-.18-.1a2.36 2.36 0 0 0-.98-.97c.33-.1.67-.16 1-.02.18.08.34.13.49.16.08.01.17 0 .28-.02Z" fill="#60B1CB"/><path d="m5 8.68-.04-.18a.12.12 0 0 0-.07.03.05.05 0 0 1-.04.01c-.16 0-.15.4-.16.5-.04.52.64 1.47.92 1.84.02.02.14.05.15.07.1.11.12.27.26.34.02 0-.01.5 0 .53.4.68.57.2.56.18-.1-.18-.38-.4-.37-.64 0-.1.02-.23.09-.35l.22-.26c-.03-.03-.18-.12-.18-.14l-.01-.03-.03-.01c-1.07-.05.44-.53-.38-.76a.15.15 0 0 1-.1-.19c0-.01 0-.02.02 0 .04.03.08.04.12.04a5.07 5.07 0 0 1-.3-.2c-.3-.21-.51-.47-.66-.78Z" fill="#2F628C"/><path d="M5.96 9.66a2.25 2.25 0 0 0 .89.3l.01.01.13.39c.01.05 0 .08-.05.1-.15.08-.3.18-.42.29-1.22-.12-.41-.89-.6-.94a.15.15 0 0 1-.1-.19c0-.01 0-.02.02 0 .04.03.08.04.12.04Z" fill="#336D98"/><path d="M13.83 9.33c-.05 0-.07-.03-.06-.06l-.07.17c.1.5-.27.94-.66 1.2a6.5 6.5 0 0 0-.26.17l-.28.12a.05.05 0 0 0-.02.06c.04.1.1.2.1.32-.01.12-.05.22-.13.3.03.07.06.1.08.12-.3.56.35.48.42.67.67 1.77 1.02-1.73 1.02-1.77-.13.02-.12-1.24-.14-1.3Z" fill="#0B2B52"/><path d="M9.96 11.05a71.7 71.7 0 0 1-.4-.08.55.55 0 0 1-.19-.08.08.08 0 0 0-.05 0H9.1a.1.1 0 0 0-.04.01l-.03.02a.02.02 0 0 0-.02 0l-.04.06c-.22.27-.47.6-.82.68-.23.06-.43-.07-.4-.32a.65.65 0 0 1 .2-.38c0-.02-.01-.03-.04-.03a14.38 14.38 0 0 1-1.27.78c1.77 1.27 3.47 1.27 3.68-.31l-.1-.26a.05.05 0 0 0-.03-.03.58.58 0 0 0-.22-.06Z" fill="#4B7295"/><path d="M13.97 12.5V14h-.52a.2.2 0 0 1 0-.15c.18-.41-.53-.61-.59-.94a1.18 1.18 0 0 1-.01-.37.1.1 0 0 1 .08-.1c.1-.02.2-.01.28.03.22.12.28 0 .28-.21.04-.1.08.09.13-.03.1-.24.35.5.34.34l.01-.07Z" fill="#1F3148"/><path d="M11.98 11.64c.06.04.15.06.25.06a.4.4 0 0 0 .22-.09c.03.07.06.1.08.12.11.07.24.35.33.36h.02c.08.03.5.26.5.24.01-.06.04-.1.1-.09l.01.02c0 .62-.28-.17-.61.22a.1.1 0 0 0-.03.06c-.02.12-.01.25.01.37.01.08.05.14.1.2a.3.3 0 0 0 .12.1c.56.21.26.47.37.79h-2.62l.02-.13-.01-.03c-.98-.35-1.12-.55-1.87-1.11-.18-.03-.5-.02-.67 0-.35-.3-.65-.31-1.06-.52-.32-.18-.27-.05-.87-.32l-.02-.01c-.03-.04-.05-.21-.07-.27-.01.01-.02-.01-.01-.07.17.12.37.13.61.03v.01c-.17.03-.24.1-.38.13 1.53-.03 5.54 1.66 4.7-.25l-.04-.3c0-.01 0-.03.02-.03h.01c.2 0 .41-.1.48.12.06.17.17.28.3.39Z" fill="#0D4C76"/><path d="M4.51 8.14a1.2 1.2 0 0 0-.5-.14L4 10.03c.13-.11.27.51.25.56-.1.23.06.26.2.28l.15.04c.32.15.57.14.7.6a.4.4 0 0 1 .01.18c-.05.29-.12.39-.1.47.02.07.13.13.43.31l.02.03c.03.1.08.12.14.13l.07.03c.47.19.57.15.74.09.09-.03.2-.07.4-.1.19 0 .3.13.4.24.26.35 1.33.24 1.46.73 0 .02.01.03.03.03.01 0 .45.29.37.35h1.71l.02-.13-.01-.03c-.18-.14-1.3-.98-1.5-.94h-.03a.34.34 0 0 0-.1-.02.26.26 0 0 1-.12-.03c-.13-.06-.26-.1-.38-.13a5.35 5.35 0 0 1-1.96-.74h-.01l-.01-.02-.02.01a.22.22 0 0 0-.15-.03l-.14.01c-.22-.02-.28 0-.3-.03-.05-.04 0-.16-.26-.6a6.79 6.79 0 0 0-.68-.9.44.44 0 0 1-.07-.12l-.18-.34c-.1-.19-.38-.68-.36-.92 0-.1 0-.33.04-.4.02-.05.12-.15.18-.15-.01-.09 0-.17.03-.25a1.1 1.1 0 0 1-.46-.1Z" fill="#0E3A61"/><path d="m10.47 5.85-.43-.05-.1-.01-.3-.05-.05-.02a.02.02 0 0 0-.02.03l-.01 2.41-2.13.08a.04.04 0 0 1-.05-.04l-.1-2.31v-.01h.02l2.22-.22h.19l.74.12c.01 0 .02 0 .02.02v.05Z" fill="#9AEAEF"/><path d="m9.63 5.74-.02 2.4c-.01-.01-.03 0-.05.02V5.75a.02.02 0 0 1 .03-.03c.02 0 .03 0 .04.02Z" fill="#1A2A2E"/><path d="m9.63 5.74.31.05c-.15.06-.23.16-.23.3 0 .14.05.24.17.3.1.06.2.05.27-.02.19-.17.1-.45-.1-.57l.42.05-.01.27c0 .07 0 .12-.06.17l-.21.2-.02.04.02.89c0 .01 0 .02.02.03l.2.14.02.05-.02.11v.01a.02.02 0 0 1-.02.01h-.01c-.13-.07-.33-.18-.48-.14a.06.06 0 0 0-.04.02c-.08.15-.13.32-.14.5l-.03.03c-.06 0-.08 0-.08-.05l.02-2.39Z" fill="#5198C1"/><path d="M11.1 5.9c-.16.02-.32 0-.47-.03-.04 0-.06.01-.07.05l-.01.32h-.02V5.8c0-.02.01-.02.02-.02.2 0 .39.05.56.11Z" fill="#9AEAEF"/><path d="m11.1 5.9-.06.73c0 .02-.01.03-.03.03-.06-.01-.1-.02-.15-.07-.15-.16-.34-.12-.46.06a.67.67 0 0 0-.09.23l-.05-.29.03-.04.22-.2c.03-.02.05-.07.04-.11l.01-.32c0-.04.03-.05.07-.05.15.04.31.05.48.03Z" fill="#5198C1"/><path d="M10.48 6.82a.1.1 0 0 1-.07-.02c.04-.16.14-.24.29-.24.04 0 .04 0 0 .02h-.03a.3.3 0 0 0-.19.24ZM10.78 6.74l-.06.13c-.05.01-.08 0-.1-.03a.75.75 0 0 1-.02-.05.5.5 0 0 1 .18-.05Z" fill="#E4F4F8"/><path d="M10.4 6.8a.1.1 0 0 0 .08.02c0 .12-.03.2.02.34.05.12.13.17.25.16.03 0 .03 0 0 .02-.17.12-.33-.1-.36-.26a.5.5 0 0 1 .02-.28Z" fill="#336D98"/><path d="m10.6 6.8.02.04c.02.04.05.04.1.03l.05-.01c.06.03.12.03.18 0v.02H11v.01a.02.02 0 0 0 0 .01l.12.02a.05.05 0 0 0 .04 0l.05-.05v.02h.04c-.02.02-.04.03-.04.05v.03l.12.06a.8.8 0 0 0-.16.29.03.03 0 0 1-.03 0c-.08-.06-.06-.2-.03-.27l-.01-.01h-.02a.48.48 0 0 0-.04.15c0 .11-.04.12-.1.03-.03-.06-.04-.14 0-.23l-.01-.01h-.02a.34.34 0 0 0-.02.24c0 .02 0 .03-.02.02a.14.14 0 0 1-.1-.06.32.32 0 0 1-.04-.23h-.01c-.04.1-.04.18.01.26a.1.1 0 0 1-.1-.04c-.1-.12-.1-.25-.02-.38Z" fill="#0F54B2"/><path d="m11.32 7.03-.11-.06c-.01 0-.02-.02-.01-.03 0-.02.02-.03.04-.05.07-.02.13-.01.19.04v.03l-.1.07Z" fill="#E4F4F8"/><path d="m10.76 7.18-.03.03a.27.27 0 0 1-.02-.27l.01.01c-.01.08 0 .16.04.23Z" fill="#0B2B52"/><path d="M11.52 7.02c.03.03.06.06.07.09a.16.16 0 0 1-.12.05l-.12-.1c.08-.05.13-.07.17-.04Z" fill="#E4F4F8"/><path d="M10.3 7.05c.06.1.07.22.17.31.16.15.27.07.42-.03a.06.06 0 0 1 .09.05l-.06.75a.03.03 0 0 1-.02.03c-.03 0-.05 0-.07-.02a2.5 2.5 0 0 0-.37-.32V7.6c0-.02 0-.03-.02-.04l-.2-.16h.03l.02-.05.01-.3Z" fill="#5198C1"/><path d="m11.35 7.07.12.09-.19.25c0 .02-.02.02-.03 0a.08.08 0 0 1-.03-.06c0-.13.04-.22.13-.28Z" fill="#0F54B2"/><path d="M11.52 7.2c.02.1.06.14.12.14a.35.35 0 0 0-.24.15c-.05.06-.07.05-.07-.02 0-.12.06-.2.19-.27Z" fill="#0F54B2"/><path d="M11.76 7.38c.02.05.02.1.02.15h-.1l-.07-.14c.05-.04.1-.04.15-.01Z" fill="#E4F4F8"/><path d="M10.99 7.93a13.53 13.53 0 0 0 .07-.55h.01c.29.14.36.5.22.76a1.93 1.93 0 0 0-.09.16.03.03 0 0 1-.02 0L11 8.2a.04.04 0 0 1-.03-.04c0-.08 0-.15.02-.23Z" fill="#0D4C76"/><path d="m11.61 7.39.07.15a.48.48 0 0 0-.23.1c-.05.04-.07.03-.05-.03.02-.1.1-.18.21-.22ZM11.7 7.58c0 .05 0 .1.03.17l-.1.01a.33.33 0 0 0-.17.05.02.02 0 0 1-.03-.01v-.03a.33.33 0 0 1 .26-.19Z" fill="#0F54B2"/><path d="M11.77 7.58c.13 0 .13.16.08.23v.03a.2.2 0 0 1 0 .18c-.01.01-.02.02-.03.01a.18.18 0 0 1-.08-.05c.02-.05.04-.1.03-.14 0-.02 0-.03-.02-.03h-.04a.1.1 0 0 1-.04 0l.02-.02v-.02h-.06l.1-.02c.06 0 .07-.05.04-.17Z" fill="#336D98"/><path d="M13.23 9.57a.4.4 0 0 0-.37.17c-.09.12-.11.24-.06.37.07.18.29.27.47.19.08-.04.09-.03.03.04a2.6 2.6 0 0 1-1.76.74 3 3 0 0 1-1.57-.42c-.54-.34-.86-.93-.45-1.51l.25-.29a.05.05 0 0 0 .01-.04c-.04-.35-.02-.7.07-1.02.01-.06.06-.12.13-.11.4.04.82.46 1.07.8l.02.01h.03v-.05a.03.03 0 0 1 0-.04l.02-.01c.43-.07.84-.06 1.23.05h.02v-.02c0-.02 0-.03-.02-.04l-.16-.04a.02.02 0 0 1-.01-.01.02.02 0 0 1 0-.02 1.6 1.6 0 0 1 .97-.62h.02c.06.05.1.19.12.25.07.28.07.57.02.87a.1.1 0 0 0 .02.09c.25.28.34.59.26.91-.01.09-.03.09-.06 0a.34.34 0 0 0-.1-.18.32.32 0 0 0-.2-.07Z" fill="#8E8E8E"/><path d="M11.67 7.8a.1.1 0 0 0 .04.02l-.03.14a.45.45 0 0 0-.14-.01c-.15.04-.17.01-.06-.1.03-.03.1-.04.19-.05Z" fill="#0F54B2"/><path d="M11.71 7.82h.04c.01 0 .02 0 .02.02 0 .05 0 .1-.03.14a.1.1 0 0 1-.06-.02l.03-.14Z" fill="#60B1CB"/><path d="M11.67 8.01a.34.34 0 0 0-.04.15l-.23-.02c-.02 0-.02 0-.02-.02 0-.03 0-.06.03-.07a.25.25 0 0 1 .26-.04Z" fill="#0F54B2"/><path d="M11.72 8.04c.05.02.08.06.08.1a.07.07 0 0 1-.06.08h-.03c-.02 0-.03-.02-.03-.05l.04-.13Z" fill="#336D98"/><path d="m5.27 8.62-.21-.28c.06-.32.48-.19.64-.07a.02.02 0 0 1 0 .03.7.7 0 0 0-.43.32Z" fill="#8E8E8E"/><path d="M9.48 8.41a.14.14 0 0 0-.1.09l-.18-.22c-.01-.01 0-.02.02-.02h.09c.02 0 .04 0 .06.02l.1.13ZM9.43 8.26c.03-.02.06-.01.1 0 .05.03.09.07.12.12l.06.16c0 .05-.01.08-.04.1l-.24-.38Z" fill="#336D98"/><path d="m9.29 8.48-.17-.06a1.5 1.5 0 0 0-.43-.08c.1-.05.2-.08.3-.08.07 0 .13.02.18.07l.12.15Z" fill="#A4A3C1"/><path d="M8.46 8.4c-.05-.02-.1 0-.17.08-.2.2-.34.46-.4.74-.02.06 0 .09.04.09a1.6 1.6 0 0 0 0 .68c-.07.03-.12-.04-.16-.22-.05-.32 0-.62.13-.92.1-.2.25-.38.45-.52.09-.06.18-.04.28-.05.02 0 .03 0 0 .02l-.17.1Z" fill="#0BA9E6"/><path d="M7.54 9.06a.78.78 0 0 0-.44.64.04.04 0 0 0 .04.03c.12 0 .19.02.19.07.32.17.52.42.6.75.02.1.04.27-.07.33-.1-.03-.15-.08-.17-.18l-.01-.04a.55.55 0 0 0-.2-.14c-.02 0-.03 0-.03.02 0 .06 0 .1-.03.16a.9.9 0 0 1-.4.43c-.2-.17-.28-.53 0-.65a.07.07 0 0 0 .05-.08c-.1-.25-.17-.51-.22-.8a1.57 1.57 0 0 1-.03-.45c.02-.1.06-.21.12-.33.13-.21.3-.37.52-.48l.27-.03.3-.01v.01c-.24.2-.4.45-.5.75Z" fill="#fff"/><path d="M8.26 8.3c-.05 0-.08 0-.1.03a1.83 1.83 0 0 0-.47.81c-.01.08 0 .12.04.14-.04.24-.03.48.02.71.02.06 0 .07-.04.03-.04-.05-.09-.09-.1-.16a2.56 2.56 0 0 1-.07-.47c.01-.45.2-.81.56-1.07.05-.04.1-.03.16-.02Z" fill="#0BA9E6"/><path d="M8.26 8.3h.02c.02 0 .02 0 0 .01-.23.2-.39.44-.48.73l-.07.24c-.04-.02-.05-.06-.03-.14a1.83 1.83 0 0 1 .47-.81c.01-.02.04-.03.09-.03Z" fill="#60B1CB"/><path d="m5.06 8.34.2.28a.8.8 0 0 0-.05.22c0 .05-.02.06-.05 0-.08-.16-.14-.3-.1-.5Z" fill="#5E5D6E"/><path d="M5.88 8.47c-.03-.04-.09-.04-.15-.02-.17.08-.26.17-.27.3-.05.12-.07.23-.07.35h-.02a.2.2 0 0 1-.1-.15c-.03-.28.08-.47.33-.58.13-.06.24-.04.33.06v.03h-.05Z" fill="#0BA9E6"/><path d="M8.69 8.34c.17.01.32.04.43.08l.17.06a1.26 1.26 0 0 1 .26.5V9l-.13.16c-.01.02-.03.02-.05.02-.26-.12-.54.04-.67.26a.84.84 0 0 0-.12.38c-.2.04-.41.04-.62 0-.08-.59.19-1.22.73-1.48Z" fill="#fff"/><path d="M8.46 8.4c-.24.2-.4.43-.48.7l-.05.2c-.04 0-.06-.02-.04-.08.06-.28.2-.53.4-.74.07-.08.12-.1.17-.07Z" fill="#E4F4F8"/><path d="M9.48 8.41c.1.13.17.26.21.4a.09.09 0 0 1-.03.09c-.03.02-.06 0-.08-.04h.03a.03.03 0 0 0 0-.03c-.03-.1-.09-.2-.15-.3-.02-.02-.04-.02-.06 0 0-.01 0-.02-.02-.03a.14.14 0 0 1 .1-.09Z" fill="#0BA9E6"/><path d="M5.88 8.47a.5.5 0 0 0-.3.15l-.12.13c0-.13.1-.22.27-.3.06-.02.12-.02.15.02Z" fill="#E4F4F8"/><path d="M6.09 8.64c-.02-.03-.05-.04-.09-.03-.1.02-.27.1-.33.2-.04.04-.03.07 0 .08a.62.62 0 0 0-.09.24c-.04.01-.05-.01-.05-.07.01-.07.05-.11 0-.18H5.5a.02.02 0 0 1-.03-.02v-.02c.1-.21.26-.33.47-.34.08 0 .14.04.19.12l-.01.02h-.03Z" fill="#0BA9E6"/><path d="M6.76 9.47a307.47 307.47 0 0 0-.56-.13c-.2-.09-.37-.2-.53-.35.11-.22.29-.32.52-.28a2.17 2.17 0 0 1 .29.41c.05.1.14.12.23.14.01 0 .02.01.02.03l.03.18Z" fill="#fff"/><path d="M5.47 8.84v.02a.02.02 0 0 0 .02.02h.04c.05.07.01.11 0 .18 0 .06.01.08.05.07v.16c0 .01 0 .02-.01.01-.18-.08-.16-.31-.1-.46Z" fill="#336D98"/><path d="M5.67 9c.16.14.34.25.53.34l.28.08.28.05.08.38a.02.02 0 0 1 0 .02.02.02 0 0 1-.03 0 2.1 2.1 0 0 1-1.08-.43.22.22 0 0 1-.08-.13.54.54 0 0 1 .02-.32ZM7.54 9.06c-.04.26-.07.5 0 .75 0 .03 0 .04-.03.02-.06-.04-.12-.05-.18-.03 0-.05-.07-.08-.19-.07a.04.04 0 0 1-.04-.05c.04-.29.19-.5.44-.62Z" fill="#A4A3C1"/><path d="M8.7 10c-.02.03-.05.04-.08.02-.04-.32.05-.57.28-.74.11-.1.26-.11.45-.05l.02.03c0 .04-.04.07-.08.06-.27-.04-.46.12-.56.36a.73.73 0 0 0-.03.31Z" fill="#0BA9E6"/><path d="M8.82 9.9a.1.1 0 0 0 0 .04.02.02 0 0 1-.03.02h-.01l-.02-.01-.02-.07c-.01-.3.22-.56.53-.5.03 0 .04.01.03.04a.89.89 0 0 0-.03.38l.02.17c0 .01 0 .02-.02.03l-.07.06c-.02.02-.02.01-.01 0a.46.46 0 0 0 0-.44c-.03-.08-.1-.1-.18-.1-.15.04-.2.25-.2.39Z" fill="#fff"/><path d="M9.15 9.82v.02a.12.12 0 0 1-.04.04h-.03c0-.01 0-.02-.02-.02a.01.01 0 0 0-.02 0c0 .03 0 .05.02.06h.04a.2.2 0 0 0 .06-.04h.02c0 .1-.07.27-.2.22a.15.15 0 0 1-.07-.07.37.37 0 0 1 .02-.39c.08-.11.2-.04.23.06v.04c-.02.03-.02.05-.01.08Z" fill="#8E8E8E"/><path d="M13.4 10.18c.15-.14.16-.37.03-.5-.13-.14-.36-.13-.5.02-.15.14-.17.37-.04.5.13.14.36.13.5-.02Z" fill="#FF8F92"/><path d="M7.77 9.77c.04.18.09.25.16.22a.9.9 0 0 0 .05.19l.07.18c.03.09.07.17.14.24.03.04.02.05-.03.04h-.02l-.03-.02a.57.57 0 0 1-.11-.13c-.13-.21-.2-.45-.23-.72Z" fill="#336D98"/><path d="M7.96 9.81c.2.05.41.05.62 0-.03.2.01.4.11.57.04.07.1.14.17.19.03.02.03.03 0 .04l-.21.02a.02.02 0 0 1-.02-.02.28.28 0 0 0 .03-.2.48.48 0 0 0-.26-.36c-.12-.05-.28-.01-.33.12a.01.01 0 0 1-.01.01h-.01a1.02 1.02 0 0 1-.1-.37ZM8.74 9.88l.02.07h.03a.02.02 0 0 0 .02 0 .1.1 0 0 1 0-.04c.02.13.07.22.17.26-.02.03 0 .07.07.12l-.02.1c0 .03 0 .03-.02.01a.33.33 0 0 0-.05-.06c-.02-.02-.04-.02-.04.02h-.03a.64.64 0 0 1-.15-.48Z" fill="#A4A3C1"/><path d="M8.7 10c.02.18.09.34.2.46.06.06.13.1.2.13.02 0 .02.01 0 .02a.06.06 0 0 1-.05 0 .7.7 0 0 1-.43-.6c.03.03.06.02.08-.02Z" fill="#2F628C"/><path d="M9.32 10.18c-.09.01-.15.07-.18.17 0 .02 0 .03.02.03h.03a.2.2 0 0 0-.04.13c0 .02 0 .02-.02 0a.37.37 0 0 1 .03-.37c.02-.03.07-.05.1-.07a.06.06 0 0 1 .06-.01s.02 0 .02.02l.02.03c0 .05-.01.07-.04.07ZM8.29 10.09c-.04.04-.04.07 0 .1-.08-.01-.12 0-.15.05-.04.06-.05.05-.04-.02.02-.1.08-.14.19-.13Z" fill="#0BA9E6"/><path d="M8.46 10.14c.07.05.12.13.15.24.04.16-.02.3-.22.28-.02 0-.03 0 0-.02l.07-.05c.02 0 .03-.02.03-.03.05-.16-.03-.2-.1-.32.05 0 .07-.03.07-.1Z" fill="#336D98"/><path d="m9.32 10.18-.13.2h-.03c-.02 0-.02-.01-.02-.03.03-.1.1-.16.18-.17Z" fill="#60B1CB"/><path d="M9.4 10.36c-.09 0-.14.06-.15.17 0 .01 0 .02.02.02h.02l-.01.1h-.02a.32.32 0 0 1 .05-.4.08.08 0 0 1 .06-.03c.03 0 .06.02.08.06.02.03 0 .06-.04.08Z" fill="#0BA9E6"/><path d="M8.28 10.24c-.02.12.02.15.13.09.02.03.04.05.04.08l.01.08a.1.1 0 0 1-.04.06.1.1 0 0 1-.07.01.18.18 0 0 1-.07-.03.27.27 0 0 1-.1-.13.19.19 0 0 1-.01-.08.1.1 0 0 1 .03-.07.1.1 0 0 1 .08-.01Z" fill="#336D98"/><path d="M9.34 10.63c.1.07.21.12.33.13.06.01.06 0 .02-.03a.71.71 0 0 1-.26-.32.14.14 0 0 1 .06-.04l.04.01a2.1 2.1 0 0 0 .88.57l-.11.1h-.02l-.69-.14c-.1-.02-.16-.06-.22-.15-.03-.05-.04-.09-.03-.13Z" fill="#A4A3C1"/><path d="M9.43 10.41c.05.13.14.24.26.32.04.03.04.04-.02.03a.72.72 0 0 1-.33-.13c0-.1.02-.17.09-.22Z" fill="#fff"/><path d="m7.86 10.88-.4.26a.36.36 0 0 1-.2.07.38.38 0 0 1-.24-.08.9.9 0 0 0 .4-.43c.03-.06.03-.1.03-.16 0-.02 0-.03.02-.02.08.04.15.08.2.14.02.01.02.03.02.04.02.1.08.15.17.18Z" fill="#A4A3C1"/><path d="M7.2 11.3a.18.18 0 0 1-.15 0c-.16-.09-.27-.23-.32-.44a.26.26 0 0 1 .02-.17c.03-.08.05-.08.04.01-.01.26.12.45.4.6Z" fill="#60B1CB"/><path d="M8.98 10.78c-.05 0-.09.04-.15.03a1.58 1.58 0 0 0-.38 0 .07.07 0 0 1-.07-.05c0-.02 0-.03.02-.03.05 0 .1-.02.13-.04a.15.15 0 0 1 .07-.02c.2-.02.38-.02.56 0a.1.1 0 0 1 .06.04c.03.03.02.04-.02.05-.08 0-.15 0-.22.02Z" fill="#0F54B2"/><path d="M6.8 11.26c-.13-.15-.2-.33-.16-.52l.02-.01.02.01c0 .25.14.54.39.62.02.01.02.02 0 .03H7a.42.42 0 0 1-.22-.13Z" fill="#60B1CB"/><path d="M6.75 11.28c-.15.08-.32.12-.5.12a.4.4 0 0 1 .06-.3c.06-.12.14-.22.24-.3h.02c0 .18.06.34.18.48Z" fill="#8E8E8E"/><path d="M8.27 10.85c-.02-.03 0-.04.02-.03.03 0 .05.01.07.03a.1.1 0 0 0 .04.01l.5.04c.03 0 .04.02.01.04l-.12.13a.12.12 0 0 1-.08.03c-.21.02-.36-.07-.44-.25Z" fill="#A4A3C1"/><path d="M8.19 11c.03 0 .05 0 .08.02l.02.01.03-.02c.07.06.21.15.31.15.02 0 .04 0 .05.02.02.01.02.02 0 .03a.46.46 0 0 1-.49-.2Z" fill="#336D98"/><path d="M8 11.07c0 .04-.03.1-.1.18-.04.06-.05.16-.04.3-.13-.15-.03-.36.07-.51.01-.03.03-.03.05-.01l.02.04Z" fill="#8E8E8E"/><path d="M10.49 11.23c-.04-.04-.02-.07.04-.1a.43.43 0 0 0 .11-.1c.04-.02.07-.02.1 0v.03l-.25.17Z" fill="#60B1CB"/><path d="M10.42 11.02c-.04.05-.04.08-.01.08a.37.37 0 0 0-.05.08c-.02.08-.04.07-.06 0-.01-.07.02-.12.12-.16ZM10.64 11.03a.44.44 0 0 1-.11.1c-.06.03-.08.06-.04.1a.37.37 0 0 0-.06.09c-.03.08-.05.07-.06-.01-.01-.05 0-.09.05-.13a.41.41 0 0 0 .07-.07.36.36 0 0 1 .06-.06c.02-.02.05-.03.1-.02Z" fill="#2F628C"/><path d="M12.48 11.18c-.02.14-.07.23-.16.26-.17.06-.33-.13-.39-.28.1-.11.24-.15.4-.1.06.01.11.05.15.12Z" fill="#8E8E8E"/><path d="M8 11.07c.12.2.29.26.5.3a.02.02 0 0 1 0 .02.02.02 0 0 1 0 .02.87.87 0 0 1-.39.2c-.12.03-.2.01-.25-.05-.01-.15 0-.25.05-.31.06-.08.09-.14.1-.18Z" fill="#5E5D6E"/><path d="M11.1 11.28v.16c0 .01 0 .02-.02.03-.16.14-.3.05-.4-.1l-.1-.16c.17-.14.47-.2.53.07Z" fill="#8E8E8E"/><path d="M8.2 11.1c.1.1.22.16.37.17.01 0 .02.01.01.03a.04.04 0 0 1-.05.03.53.53 0 0 1-.4-.2c.03 0 .05 0 .06-.03ZM11.9 11.13l-.1.13c-.03.06-.05.05-.05-.02 0-.1.04-.14.14-.14.02 0 .03.01.01.03Z" fill="#2F628C"/><path d="M11.93 11.16c.06.15.22.34.4.28.08-.03.13-.12.15-.26.05.15.03.27-.07.36-.16.16-.38.1-.53-.05-.1-.1-.03-.25.05-.33ZM10.59 11.2l.1.17c.1.15.23.24.4.1l.01-.03v-.16c.05.23.02.46-.26.44-.14-.01-.26-.1-.37-.24a.06.06 0 0 1-.02-.04c0-.1.05-.17.14-.23ZM6.75 11.28l.2.16a.01.01 0 0 1 0 .01c-.16.09-.63.22-.7-.05.18 0 .35-.04.5-.12Z" fill="#5E5D6E"/><path d="M9.43 7.3c0-.09-.01-.1-.04-.05V5.9c0-.03-.01-.04-.04-.04a42.4 42.4 0 0 0-1.92.16l-.01.02.05 1.08c-.02-.07-.03-.05-.04.06l-.07-1.2a.03.03 0 0 1 .02-.02c.67-.04 1.34-.1 2-.17.03 0 .04.01.04.04V7.3Z" fill="#131725"/><path d="M9.4 7.25 9.38 8a.01.01 0 0 1-.02.01l-1.8.06a.05.05 0 0 1-.05-.05l-.05-.9-.05-1.09v-.02l.03-.01c.66-.07 1.3-.12 1.9-.15.03 0 .04.01.04.04v1.35Z" fill="#F9C3AA"/><path d="m7.47 7.12.05.91a.05.05 0 0 0 .05.05l1.8-.06a.01.01 0 0 0 .02-.01v-.76c.03-.05.04-.04.04.04v.74a.04.04 0 0 1-.03.04l-1.9.06-.02-.02-.05-.93c.01-.1.02-.13.04-.06Z" fill="#080D13"/><path d="M9.88 6.11c.05.02.09 0 .1-.03v-.02c0-.05-.02-.06-.07-.05a.12.12 0 0 1 .05-.05.1.1 0 0 1 .07 0c.02 0 .04.02.05.04.02.01.03.03.03.06a.2.2 0 0 1 0 .13.13.13 0 0 1-.05.06.1.1 0 0 1-.07.01.12.12 0 0 1-.07-.05.18.18 0 0 1-.04-.1Z" fill="#0F54B2"/><path d="M9.9 6c.06 0 .08.01.09.06v.02c-.02.04-.06.05-.11.03 0-.04 0-.07.03-.1Z" fill="#E4F4F8"/><path d="M13.1 7.75a.04.04 0 0 1 .05.01 1.37 1.37 0 0 1 .1 1.01.04.04 0 0 1-.04.01h-.01a1.6 1.6 0 0 0-.7-.31.05.05 0 0 1-.02-.07c.14-.27.35-.49.62-.65ZM10.34 7.92a1.57 1.57 0 0 1 .44.45.04.04 0 0 1-.02.03h-.02a1.81 1.81 0 0 0-.83.35.04.04 0 0 1-.04-.03c-.05-.29-.04-.56.03-.83.02-.07.05-.1.1-.1.11.01.25.07.34.13Z" fill="#5E5D6E"/><path d="M12.78 9.69a.26.26 0 0 1-.2 0 .27.27 0 0 1-.1-.44.26.26 0 0 1 .28-.06.27.27 0 0 1 .1.44.26.26 0 0 1-.08.06ZM10.85 9.7a.26.26 0 0 1-.2.01.27.27 0 0 1-.04-.5.26.26 0 0 1 .2 0 .27.27 0 0 1 .04.49Z" fill="#080D13"/><path d="M10.5 10.29a.36.36 0 0 1-.27.1.45.45 0 0 1-.29-.13.45.45 0 0 1-.13-.29c0-.1.03-.2.1-.28.07-.07.17-.1.28-.1.1 0 .2.05.29.13.07.08.12.18.13.29 0 .1-.03.2-.1.28Z" fill="#4E2B2B"/><path d="M11.9 9.76a.1.1 0 0 1 0 .05l-.04.04a.2.2 0 0 1-.06.03.26.26 0 0 1-.15 0 .2.2 0 0 1-.06-.03.14.14 0 0 1-.04-.04.1.1 0 0 1-.01-.04l.01-.05c0-.02.02-.03.04-.05a.2.2 0 0 1 .06-.02.26.26 0 0 1 .2.02c.02 0 .03.02.04.04a.1.1 0 0 1 .02.05Z" fill="#080D13"/><path d="M9.07 7.97a2.09 2.09 0 0 0-.2-.03c-.06-.01-.09.03-.14.04-.32 0-.64-.01-.96.01h-.15l-.03-.03-.01-.43c0-.12.08-.21.02-.34-.1-.22.03-.47-.05-.7a.47.47 0 0 1 .02-.31l.02-.02.09-.06h.01c.47-.07.94-.08 1.4-.15.06 0 .1 0 .13.03.1.08.08.38.06.5l.01.13c.1.3.04.9.03 1.23 0 .12-.15.15-.25.13Z" fill="#FF8FFA"/><path d="M12.52 9.3c-.03.04-.03.1 0 .13.04.02.09.02.12-.02s.03-.1 0-.13c-.03-.02-.09-.01-.12.02ZM10.58 9.33c-.03.04-.02.1.01.12.04.02.09 0 .12-.04s.02-.1-.02-.11c-.03-.03-.08-.01-.11.03Z" fill="#fff"/><path d="M9.97 10.24c.16.15.39.15.52 0 .13-.13.1-.36-.05-.5-.15-.15-.39-.16-.52-.02s-.1.38.05.52ZM11.7 9.82c.08 0 .13-.04.13-.08s-.06-.07-.13-.07-.13.04-.13.08.06.07.13.07Z" fill="#FF8F92"/><path d="M10.3 11.4c.41.68.95.08 1.23.5v.05c-.02.04 0 .08.03.1l.06.05c.05.05.08.1.1.16.02.07 0 .1-.08.12H11.31c-.12.08-1.92-.03-2.12-.03h-.04c-.17-.1-.29-.02-.28-.2.01-.15.2-.2.18-.44 0-.02 0-.03.02-.04.05-.01.09-.03.14 0 .36.17.8-.04.74-.27v-.03c.05-.06.1-.08.17-.05a.1.1 0 0 1 .06.06c0 .02.02.03.04.02h.09Z" fill="#638BA6"/></svg>