<!-- by TradingView --><svg xmlns="http://www.w3.org/2000/svg" width="18" height="18"><path fill="#F0F3FA" d="M0 0h18v18H0z"/><path fill-rule="evenodd" d="M14.97 9.55C15 9.37 15 9.2 15 9v-.03c.34-.06.7-.17.92-.26.05-.02.08-.07.08-.13v-1.1c0-.09-.08-.16-.15-.13-.22.07-.58.17-1.02.22a6 6 0 10-.17 3.43c.41 0 .97-.17 1.26-.29.05-.02.08-.07.08-.13v-1.1c0-.09-.08-.16-.15-.13a5 5 0 01-.88.2zm-1.5-.12a4.56 4.56 0 00.02-.66l-.12-.04a6.73 6.73 0 00-1.59-.3c-.29.03-.81.18-1.14.28-.07.03-.14-.04-.14-.13v-1.2c0-.05.03-.1.07-.12.26-.1.76-.26 1.21-.26.27 0 .67.12 1.1.26l.3.09a4.5 4.5 0 100 3.33 5.66 5.66 0 00-1.4-.25c-.29.03-.81.18-1.14.28-.07.03-.14-.04-.14-.13v-1.2c0-.05.03-.1.07-.12.26-.1.76-.26 1.21-.26.27 0 .67.12 1.1.26l.6.17z"/></svg>