<!-- by TradingView --><svg width="18" height="18" xmlns="http://www.w3.org/2000/svg"><path fill="url(#paint0_linear)" d="M0 0h18v18H0z"/><path d="M7.437 8.982L4.59 6 4 6.626l2.258 2.356L4 11.357l.59.643 2.847-3.018z" fill="#F15E3F"/><path d="M10.563 8.982L13.41 6l.59.626-2.258 2.356L14 11.357l-.59.643-2.848-3.018z" fill="#F4BF2E"/><path d="M9.018 10.563L12 13.41l-.626.59-2.356-2.258L6.643 14 6 13.41l3.018-2.848z" fill="#26A497"/><path d="M9.018 7.437L12 4.59 11.374 4 9.018 6.258 6.643 4 6 4.59l3.018 2.847z" fill="#86C444"/><defs><linearGradient id="paint0_linear" x1="3.349" y1="3.122" x2="21.904" y2="24.434" gradientUnits="userSpaceOnUse"><stop stop-color="#1A1E21"/><stop offset="1" stop-color="#06060A"/></linearGradient></defs></svg>