<!-- by TradingView --><svg width="18" height="18" viewBox="0 0 18 18" xmlns="http://www.w3.org/2000/svg"><path fill="#F0F3FA" d="M0 0h18v18H0z"/><path d="M6 11v2.38c-.87-1.22-2.04-2.5-2.82-3.76a1.17 1.17 0 0 1-.1-.2L6 11Z" fill="url(#azqabdq2r)"/><path d="M6 7v4L3.08 9.41c-.13-.34-.1-.71.1-1.03l.02-.03L6 7Z" fill="url(#bzqabdq2r)"/><path d="M11.47 4 9 5.5 6.43 4.02 6.67 4h4.8Z" fill="url(#czqabdq2r)"/><path d="M12 7 9 5.5 11.47 4c.03 0 .53.1.53.5V7Z" fill="#FF5743"/><path d="M14.9 8.52 12 7V4.45l2.9 4.07Z" fill="url(#dzqabdq2r)"/><path d="M14.86 9.56 12 11V7l2.9 1.52c.15.34.13.71-.04 1.04Z" fill="url(#ezqabdq2r)"/><path d="M14.86 9.56S12.84 12.19 12 13.5V11l2.86-1.44Z" fill="#BC0164"/><path d="M12 13.5s-.1.44-.5.5L9 12.62 12 11v2.5Z" fill="url(#fzqabdq2r)"/><path d="M6 4.47V7L3.2 8.35C3.98 7.09 5.16 5.69 6 4.47Z" fill="url(#gzqabdq2r)"/><path d="M9 5.5 6 7V4.47c0 .03.14-.41.5-.47L9 5.5Z" fill="url(#hzqabdq2r)"/><path d="M11.5 14H7v-2.34l2 .98 2.5 1.35Z" fill="#BF0161"/><path d="M9 9v2l-2-1V8l2 1Z" fill="#E02250"/><path d="M11 8v2l-2 1V9l2-1Z" fill="#B71C48"/><path d="M11 8 9 9l-2-.94L9 7l2 1Z" fill="#E54520"/><defs><linearGradient id="azqabdq2r" x1="3.5" y1="9.78" x2="5.3" y2="13.47" gradientUnits="userSpaceOnUse"><stop stop-color="#ED303A"/><stop offset="1" stop-color="#CD0154"/></linearGradient><linearGradient id="bzqabdq2r" x1="4.28" y1="7.12" x2="4.28" y2="10.76" gradientUnits="userSpaceOnUse"><stop stop-color="#F84512"/><stop offset="1" stop-color="#F60"/></linearGradient><linearGradient id="czqabdq2r" x1="7.5" y1="4.47" x2="10.17" y2="4.65" gradientUnits="userSpaceOnUse"><stop stop-color="#FED12F"/><stop offset="1" stop-color="#FAA831"/></linearGradient><linearGradient id="dzqabdq2r" x1="12.67" y1="5.87" x2="14.34" y2="8.63" gradientUnits="userSpaceOnUse"><stop stop-color="#EF4738"/><stop offset="1" stop-color="#D6004C"/></linearGradient><linearGradient id="ezqabdq2r" x1="13.72" y1="7.22" x2="13.72" y2="10.8" gradientUnits="userSpaceOnUse"><stop stop-color="#C30957"/><stop offset="1" stop-color="#991D4B"/></linearGradient><linearGradient id="fzqabdq2r" x1="10.76" y1="10.8" x2="10.76" y2="13.99" gradientUnits="userSpaceOnUse"><stop stop-color="#9A154A"/><stop offset="1" stop-color="#65085D"/></linearGradient><linearGradient id="gzqabdq2r" x1="3.67" y1="8.06" x2="5.49" y2="5.14" gradientUnits="userSpaceOnUse"><stop stop-color="#F89633"/><stop offset="1" stop-color="#FFDB2E"/></linearGradient><linearGradient id="hzqabdq2r" x1="8.5" y1="5.41" x2="5.53" y2="4.53" gradientUnits="userSpaceOnUse"><stop stop-color="#FEAE01"/><stop offset="1" stop-color="#FF8739"/></linearGradient></defs></svg>