<!-- by TradingView --><svg width="18" height="18" viewBox="0 0 18 18" xmlns="http://www.w3.org/2000/svg"><path fill="url(#aoi5iuhhv)" d="M0 0h18v18H0z"/><path d="m6.76 6-.32.95 1.98 1.42L6.85 9.5 5 8.16 5.7 6h1.06Zm.36 0L8.7 7.14v1.01L6.85 6.82 7.12 6Zm-.27 3.93 1.86 1.34V8.6L6.85 9.93Zm.35.68 1.5 1.1V13l-1.85-1.34.35-1.05Z" fill="#E1AA00"/><path d="M11.25 6h1.04L13 8.16 11.15 9.5 9.59 8.37l1.97-1.42-.31-.95ZM9.3 7.14 10.89 6l.26.82L9.3 8.15v-1Zm1.84 2.79L9.3 8.59v2.68l1.85-1.33v-.01ZM9.3 11.7l1.5-1.09.35 1.05L9.3 13v-1.3Z" fill="#FFC800"/><path fill-rule="evenodd" d="M9 14.5a5.5 5.5 0 1 0 0-11 5.5 5.5 0 0 0 0 11Zm0 .5A6 6 0 1 0 9 3a6 6 0 0 0 0 12Z" fill="#FFC800"/><defs><linearGradient id="aoi5iuhhv" x1="3.35" y1="3.12" x2="21.9" y2="24.43" gradientUnits="userSpaceOnUse"><stop stop-color="#1A1E21"/><stop offset="1" stop-color="#06060A"/></linearGradient></defs></svg>