<!-- by TradingView --><svg width="18" height="18" fill="none" xmlns="http://www.w3.org/2000/svg"><path fill="#F0F3FA" d="M0 0h18v18H0z"/><circle cx="9" cy="9" r="5" fill="#C000A3"/><circle cx="12.5" cy="4.5" r="1.5" fill="#630655"/><path fill-rule="evenodd" clip-rule="evenodd" d="M5.228 7C5.102 7 5 7.119 5 7.266c0 .147.102.266.228.266.152 0 .251.09.251.268v2.399c0 .079-.03.176-.098.176-.148 0-.229.14-.229.312s.08.312.229.312h1.503c.148 0 .232-.14.232-.313 0-.172-.084-.311-.232-.311-.068 0-.095-.097-.095-.176v-.8h.437a1.2 1.2 0 100-2.399H5.229zm1.56.76c0-.088.062-.16.138-.16.286 0 .518.27.518.6 0 .332-.232.6-.518.6-.076 0-.137-.07-.137-.159V7.76zm6.205 1.045c.1 1.099-.837 2.077-2.094 2.185-1.258.108-2.358-.695-2.459-1.794-.1-1.1.837-2.078 2.094-2.186 1.257-.108 2.358.696 2.459 1.795zm-1.646-.03c.232.597.132 1.184-.223 1.31-.355.127-.831-.254-1.063-.852-.231-.597-.131-1.184.224-1.31.355-.128.83.254 1.063.851z" fill="#F0F1F6"/><path fill="#E8E8EA" d="M11.492 4h2v1h-2z"/></svg>