<!-- by TradingView --><svg width="18" height="18" viewBox="0 0 18 18" xmlns="http://www.w3.org/2000/svg"><path fill="url(#aurp1zbje)" d="M0 0h18v18H0z"/><path d="M11.9 7.57H9.77c0-.3-.18-.86-.89-.86-.7 0-.9.5-.89.75 0 .67 1.09 1.12 1.62 1.26 2.06.6 2.43 1.82 2.37 2.35.1.98-.34 2.93-2.94 2.93s-3.11-1.66-3.04-2.57h2.02c0 .31.16.84 1.02.84.7 0 .93-.7.95-.97.05-.26-.3-.73-1.97-1.2C5.93 9.5 6 8.01 6 7.62 6 7.23 6 5 8.95 5c2.35 0 2.94 1.7 2.94 2.57Z" fill="#fff"/><path fill="#E50913" d="M6 4h6v1H6z"/><defs><linearGradient id="aurp1zbje" x1="3.35" y1="3.12" x2="21.9" y2="24.43" gradientUnits="userSpaceOnUse"><stop stop-color="#1A1E21"/><stop offset="1" stop-color="#06060A"/></linearGradient></defs></svg>