<!-- by TradingView --><svg width="18" height="18" viewBox="0 0 18 18" xmlns="http://www.w3.org/2000/svg"><path fill="#86CE41" d="M0 0h18v18H0z"/><path d="M10 4H4c0 1.17 1.5 2 2.33 2H10c.67 0 2 .53 2 2s-1.17 1.83-2 2c.93.4 1.83 2.94 2 4h2c-.13-2-1.06-2.83-1.33-3C13.83 10.33 14 9 14 8c0-3.17-2.5-4-4-4ZM6 8H4c.49.3 1.4 1.49 1.78 3.18A4.84 4.84 0 0 0 7.5 14h.88C7.89 11.36 6.8 8.71 6 8Z" fill="#F7F7F7"/><path d="M8.38 9.06c-.26-.7-1.56-1.11-1.88-1.05C7.64 8.89 8.35 11.53 9 14h1a81.6 81.6 0 0 0-1.62-4.94Z" fill="#F7F7F7"/></svg>