<!-- by TradingView --><svg width="18" height="18" viewBox="0 0 18 18" xmlns="http://www.w3.org/2000/svg"><path fill="url(#ap1m3ss25)" d="M0 0h18v18H0z"/><path d="M9 15A6 6 0 1 0 9 3a6 6 0 0 0 0 12Zm0-.5a5.5 5.5 0 1 0 0-11 5.5 5.5 0 0 0 0 11Z" fill="#268B85"/><circle cx="9" cy="9" r="5.5" fill="#2C1D78"/><path d="M11.48 8.42c-.05-.09-.1-.26.07-.26h.68c.1-.01.31-.07.41-.26l.03-.05c.12-.21.21-.4.21-.51v-.76c0-.07-.03-.2-.14-.2-.1 0-.14.05-.19.1-.01.03-.03.06-.06.08l-.02.03c-.08.08-.15.16-.22.07-.08-.1-.56-.67-.8-.76a.83.83 0 0 0-.52-.06l-.87.29c-.25-.02-.78-.06-1.04-.06a2.5 2.5 0 0 0-.04 0c-.26 0-.8.04-1.04.06l-.87-.29a.83.83 0 0 0-.52.06c-.24.1-.72.66-.8.76-.07.09-.14 0-.22-.07l-.03-.03-.06-.07c-.05-.06-.09-.12-.18-.12-.1 0-.14.14-.14.21v.76c0 .12.1.3.2.5l.03.06c.1.19.32.25.41.26h.69c.18 0 .12.17.07.26a43.35 43.35 0 0 1-.64 1.26c.04.06.13.2.18.25.06.05.08.17.08.22l-.21.17c.22.31.7.98.82 1.12.12.14.19.45.21.6.53.34 1.54.47 2.02.49h.04c.48-.02 1.5-.15 2.02-.5.02-.14.09-.45.21-.59.13-.14.6-.8.82-1.12l-.21-.17c0-.05.02-.17.07-.22.06-.05.15-.19.19-.25l-.19-.37-.45-.89Z" fill="url(#bp1m3ss25)"/><circle cx="8.03" cy="9.08" r=".91" fill="#4C4E4D"/><circle cx="8.03" cy="9.08" r=".7" fill="#707271"/><circle cx="8.03" cy="9.08" r=".58" fill="#B2B4B3"/><circle cx=".91" cy=".91" r=".91" transform="matrix(-1 0 0 1 10.95 8.17)" fill="#4C4E4D"/><circle cx=".7" cy=".7" r=".7" transform="matrix(-1 0 0 1 10.74 8.38)" fill="#707271"/><circle cx=".58" cy=".58" r=".58" transform="matrix(-1 0 0 1 10.61 8.5)" fill="#B2B4B3"/><path d="M8.02 8.7c.16 0 .5.11.5.44 0 .24-.24.32-.36.32-.2 0-.6-.06-.6-.36s.3-.4.46-.4Zm2.05 0c-.17 0-.5.11-.5.44 0 .24.24.32.36.32.2 0 .6-.06.6-.36s-.31-.4-.46-.4Z" fill="#FEFEFE"/><path d="M11.62 6.01a.83.83 0 0 0-.7-.17l-.86.3c-.25-.03-.78-.07-1.04-.07h-.04c-.26 0-.8.04-1.04.06l-.87-.29a.83.83 0 0 0-.76.23c.04.04.12.07.36.02.31-.06.54-.1.78 0a2 2 0 0 0 .64.14c.1 0 .27 0 .45-.02l.4-.03c.2 0 .78.08 1.05.11l.68-.2c.21-.06.53-.13.75-.06.1.02.16.01.2-.02Zm-5.54 4.2.06-.05c0-.05-.02-.16-.08-.22a1.91 1.91 0 0 1-.18-.24c.05-.1.15-.33.19-.38l.45-.9c.05-.08.1-.26-.07-.26h-.69c-.1 0-.3-.07-.4-.25l-.03-.06c-.12-.2-.21-.38-.21-.5v-.76c0-.07.03-.22.14-.22.1 0 .13.06.18.12l.06.07.03.03c.06.07.12.13.18.1 0 .07-.01.16-.13.06l-.15-.17c-.05-.06-.08-.1-.12-.08-.05.03-.07.69-.07 1.02.02.11.16.36.53.38l.35.02c.3.01.53.02.58.1.07.1.04.4-.04.52-.1.12-.5.96-.52 1.07-.02.08.01.13.08.24l.04.06c.08.12.03.26 0 .32-.03.01-.1.03-.15 0l-.03-.02Zm5.88.04.1.08c-.21.32-.68.99-.8 1.13-.13.14-.2.46-.22.6-.44.28-1.2.42-1.72.47.05-.06.13-.1.26-.14.3-.08 1.07-.34 1.42-.46.02-.14.08-.42.11-.5.03-.08.57-.81.85-1.18Zm.3-3.57c.06.06.14-.01.2-.09.02 0 .03-.02.03-.03l.06-.07c.05-.06.1-.12.2-.12s.13.15.13.22v.75c0 .13-.1.3-.2.51l-.04.06c-.1.18-.31.25-.4.25h-.69c-.18 0-.12.18-.07.27a43.23 43.23 0 0 0 .64 1.27c-.04.06-.13.2-.19.24-.05.06-.07.17-.07.22l.04.04a.65.65 0 0 1-.04.03c-.06.03-.13.01-.16 0-.03-.06-.07-.2 0-.32l.04-.06c.07-.1.1-.16.08-.24a9.3 9.3 0 0 0-.5-1.07c-.1-.12-.12-.42-.05-.52.05-.08.28-.09.58-.1.1 0 .23 0 .35-.02.37-.02.5-.27.52-.38 0-.33-.01-1-.06-1.02-.04-.02-.07.02-.12.08l-.16.17c-.13.1-.13 0-.12-.07Z" fill="url(#cp1m3ss25)"/><defs><linearGradient id="ap1m3ss25" x1="3.35" y1="3.12" x2="21.9" y2="24.43" gradientUnits="userSpaceOnUse"><stop stop-color="#1A1E21"/><stop offset="1" stop-color="#06060A"/></linearGradient><linearGradient id="bp1m3ss25" x1="9" y1="5.82" x2="9" y2="12.53" gradientUnits="userSpaceOnUse"><stop stop-color="#0E100F"/><stop offset=".45" stop-color="#1C1E1D"/><stop offset="1" stop-color="#141615"/></linearGradient><linearGradient id="cp1m3ss25" x1="9" y1="5.82" x2="9" y2="12.53" gradientUnits="userSpaceOnUse"><stop offset=".04" stop-color="#191921"/><stop offset=".54" stop-color="#2E2F33"/><stop offset="1" stop-color="#1D1E23"/></linearGradient></defs></svg>