<!-- by TradingView --><svg xmlns="http://www.w3.org/2000/svg" width="18" height="18"><path fill="url(#asezy1yuk)" d="M0 0h18v18H0z"/><path d="M4.5 7.74a4.7 4.7 0 014.52-3.39 4.69 4.69 0 014.63 3.85.35.35 0 10.68-.12 5.39 5.39 0 00-5.31-4.43 5.39 5.39 0 00-5.27 4.18c-.03.14.03.3.15.37l4.32 2.7c.14.09.32.07.43-.05l1.8-1.8a.35.35 0 00-.5-.5l-1.6 1.6-3.86-2.4zm4.9-.88c.1-.12.29-.14.42-.05l4.36 2.7c.12.07.19.21.17.35a5.39 5.39 0 01-5.33 4.49A5.38 5.38 0 013.65 9.6a.35.35 0 01.7-.08 4.68 4.68 0 004.67 4.13 4.69 4.69 0 004.6-3.68L9.68 7.55l-1.6 1.6a.35.35 0 11-.5-.5l1.8-1.8z" fill="#fff"/><defs><linearGradient id="asezy1yuk" x1=".48" y1="1.13" x2="16.55" y2="17.2" gradientUnits="userSpaceOnUse"><stop stop-color="#1E55A3"/><stop offset="1" stop-color="#39B5BA"/></linearGradient></defs></svg>