<!-- by TradingView --><svg xmlns="http://www.w3.org/2000/svg" width="18" height="18" viewBox="0 0 18 18"><path fill="#F0F3FA" d="M0 0h18v18H0z"/><path d="M9 7.44l.95-.97L9 5.5l-.97.97L13 11.53 9.52 15h-1.1L5 11.53l2.46-2.5 1.48 1.5-1.02 1 1.08.94.92-.94-.98-1-1.48-1.5L5 6.46 8.42 3h1.1L13 6.47l-2.46 2.55-1.55-1.58z" fill="url(#amjda0jsq)"/><path d="M8.42 3l3.47 3.47H13L9.52 3h-1.1z" fill="url(#bmjda0jsq)"/><path d="M13 6.47h-1.1L9.95 8.42l.59.6L13 6.47z" fill="url(#cmjda0jsq)"/><path d="M9.78 13.15l1.68-1.62H13L9.52 15l-3.34-3.47h1.9l1.7 1.62z" fill="url(#dmjda0jsq)"/><path d="M6.18 11.53l1.87-1.9.9.9-.87 1h-1.9z" fill="url(#emjda0jsq)"/><path d="M6.62 6.47l4.84 5.06H13L9 7.44c-.29-.29-.9-.97-.9-.97H6.62z" fill="url(#fmjda0jsq)"/><path d="M10.54 9.02l1.1-1.13L9.9 6.51l-.9.93 1.54 1.58z" fill="url(#gmjda0jsq)"/><path d="M7.46 9.02l-1.76 1.8 2.38.7.86-.99-1.48-1.5z" fill="url(#hmjda0jsq)"/><path d="M8.31 4.83l.68.67-.89.97H6.62l1.69-1.64z" fill="url(#imjda0jsq)"/><defs><linearGradient id="amjda0jsq" x1="7.94" y1="13.54" x2="12.07" y2="6.87" gradientUnits="userSpaceOnUse"><stop stop-color="#C20FF6"/><stop offset=".49" stop-color="#749CCE"/><stop offset="1" stop-color="#47C1C1"/></linearGradient><linearGradient id="bmjda0jsq" x1="9.29" y1="3.33" x2="12.51" y2="7" gradientUnits="userSpaceOnUse"><stop stop-color="#4AF3FF"/><stop offset="1" stop-color="#087792"/></linearGradient><linearGradient id="cmjda0jsq" x1="13.4" y1="6.93" x2="11" y2="9.01" gradientUnits="userSpaceOnUse"><stop stop-color="#004957"/><stop offset="1" stop-color="#7A97D0"/></linearGradient><linearGradient id="dmjda0jsq" x1="6.97" y1="12.67" x2="9.85" y2="14.83" gradientUnits="userSpaceOnUse"><stop stop-color="#D29BFF"/><stop offset="1" stop-color="#B661E2"/></linearGradient><linearGradient id="emjda0jsq" x1="7.57" y1="9.61" x2="7.57" y2="11.48" gradientUnits="userSpaceOnUse"><stop stop-color="#7599CE"/><stop offset="1" stop-color="#69039C"/></linearGradient><linearGradient id="fmjda0jsq" x1="7.86" y1="7.54" x2="12.47" y2="11.54" gradientUnits="userSpaceOnUse"><stop stop-color="#1EB8F1"/><stop offset="1" stop-color="#9F76DB"/></linearGradient><linearGradient id="gmjda0jsq" x1="10.44" y1="7.51" x2="9.15" y2="9.08" gradientUnits="userSpaceOnUse"><stop stop-color="#313131" stop-opacity="0"/><stop offset="1"/></linearGradient><linearGradient id="hmjda0jsq" x1="7.25" y1="10.39" x2="8.61" y2="9.03" gradientUnits="userSpaceOnUse"><stop stop-color="#313131" stop-opacity="0"/><stop offset="1"/></linearGradient><linearGradient id="imjda0jsq" x1="8.77" y1="5.26" x2="8.16" y2="6.29" gradientUnits="userSpaceOnUse"><stop stop-color="#4ADAE8"/><stop offset="1" stop-color="#5E92C9"/></linearGradient></defs></svg>