<!-- by TradingView --><svg xmlns="http://www.w3.org/2000/svg" width="18" height="18" viewBox="0 0 18 18"><path fill="url(#aqczbinmu)" d="M0 0h18v18H0z"/><path d="M8.48 7.37a2.85 2.85 0 0 0 2.31 2.16c.11.02.21.01.32 0h.16c.95 0 1.73.78 1.73 1.74v.04A1.7 1.7 0 0 1 11.3 13h-.03a1.73 1.73 0 0 1-1.72-1.93c0-.11.02-.22 0-.34a2.84 2.84 0 0 0-2.28-2.25c-.13-.03-.25-.02-.38-.02h-.16A1.74 1.74 0 0 1 5 6.69a1.73 1.73 0 0 1 3.47.05l-.01.2c-.01.15-.02.29.02.44zM11.27 5a1.73 1.73 0 1 1 0 3.47 1.73 1.73 0 0 1 0-3.47zm-4.5 8a1.73 1.73 0 1 0-.01 0z" fill="#4FD6CF"/><defs><linearGradient id="aqczbinmu" x1="3.35" y1="3.12" x2="21.9" y2="24.43" gradientUnits="userSpaceOnUse"><stop stop-color="#1A1E21"/><stop offset="1" stop-color="#06060A"/></linearGradient></defs></svg>