<!-- by TradingView --><svg width="18" height="18" viewBox="0 0 18 18" xmlns="http://www.w3.org/2000/svg"><path fill="#F0F3FA" d="M0 0h18v18H0z"/><path d="M14 12.5 9.03 15l-4.76-2.38-.27-.41V6.29L6.14 4h5.7L14 6.29v6.21Z"/><path d="M4.33 12.1V6.13l1.93-1.77h5.53l1.88 1.78v5.95l-4.63 2.34-4.7-2.35Z" fill="#9D1302"/><path d="m5.45 7.43-1-.57-.03 5.08 3.8 1.91v-1.08L5.45 11.3V7.43Z" fill="#F6A703"/><path d="m5.17 7.2-.83-.5.07.39.79.49.25-.16-.28-.16v-.05Z" fill="#F5BC42"/><path d="M4.33 12.12V6.69l.25.17v5.06l-.25.2Z" fill="#F9D993"/><path d="m8.33 12.7-2.89-1.45-.22.13 2.87 1.46.24-.14Z" fill="#F9C352"/><path d="m4.87 11.82.37-.46 2.87 1.48-2.8-1.34-.44.32Z" fill="url(#a0ziy0jo3)"/><path d="m8.08 13.69-3.5-1.77-.24.19 4 1.95V12.7l-.26.16v.83Z" fill="#EE7B02"/><path d="m10 12.88-.33-.15 2.9-1.43.24.21L10 12.88Z" fill="#F9EDE3"/><path d="M12.57 11.3V7.5h.25l-.04 4.04-.21-.22Z" fill="#FDD16C"/><path d="M9.69 12.74v1.12l.3-.2v-.77l-.3-.15Z" fill="#E6B480"/><path d="M13.36 11.95 10 13.67v-.8l2.79-1.37.58.45Z" fill="#CA6A16"/><path d="M12.79 7.53v3.98l.64.49V7.06l-.64.47Z" fill="#F6A803"/><path d="M10 13.66c-.1.06-.27.2-.32.2v.2l3.98-1.94-.32-.18L10 13.66Z" fill="#B7490D"/><path d="M13.67 6.73v5.4l-.25-.12V6.96l.25-.23Z" fill="#DC7202"/><path d="M5.83 6.57 4.74 5.9l.34-.07.65.43.98-1.01.12.2-1 1.12Z" fill="#DEAB5C"/><path d="m5.72 6.28-.64-.45.34-.53.87-.76.4.71-.97 1.03Z" fill="#F4F598"/><path d="m4.72 5.86.04.04.34-.07 1.12-1.15.4.42-.4-.76-1.5 1.52Z" fill="#FEFEF7"/><path d="M11.18 5.46H6.84l-.15-.22h4.59l-.1.22Z" fill="#DEA007"/><path d="m6.68 5.26-.31-.65h5.23l-.33.65H6.68Z" fill="#F5E90C"/><path d="M11.74 4.33H6.22l.15.29h5.22l.15-.29Z" fill="#FCF8AC"/><path d="m13.1 5.73-1.36-1.4-.5.94.92.98.94-.52Z" fill="#F2A503"/><path d="m12.2 6.55-1.02-1.1.08-.2.89 1 .94-.53.19.22-1.08.61Z" fill="#DC7502"/><path d="M6 6.87v3.96l2.95 1.4 3.05-1.4V6.87l-1.18-.98H7.14L6 6.87Z" fill="#CF340B"/><path d="m6.6 6 .4.5v1.02l3 2.12V10H8v-.55l-.97-.86L6.82 11H11V9.49L8.74 7.52V7h1.76V6H6.6ZM11 6v1.12l.6.53V6H11Z" fill="#fff"/><path d="m5.55 6.65-.88-.51v.44l.88.53v-.46Zm6.93 0 .9-.51v.44l-.9.53v-.46Zm-3.7 7.24v-1.12h.46v1.12h-.46Z" fill="#670000"/><defs><linearGradient id="a0ziy0jo3" x1="5.09" y1="11.53" x2="6.02" y2="12.48" gradientUnits="userSpaceOnUse"><stop stop-color="#FCEABF"/><stop offset="1" stop-color="#FCEABF" stop-opacity="0"/></linearGradient></defs></svg>