<!-- by TradingView --><svg width="18" height="18" viewBox="0 0 18 18" xmlns="http://www.w3.org/2000/svg"><path fill="#EDB307" d="M0 0h18v18H0z"/><path d="M6.42 9.5H4.7a.7.7 0 0 1-.64-.99l1.85-3.97a1 1 0 0 1 .9-.54c.65 0 .9.43.9 1.09 0 .17-.87 2.05-1.3 2.91H9c.63 0 .94.63.5 1.07l-4.66 4.57L6.42 9.5ZM10.37 4H7.42c.2.13.6.53.6.96 0 .42-.21.9-.32 1.04h2.55c.57.03 1.75.35 1.75 1.84 0 1.56-.94 2.26-1.6 2.28L12.18 14h1.36c.32 0 .53-.34.39-.63l-1.2-2.44A4.1 4.1 0 0 0 14 8.1 3.88 3.88 0 0 0 10.37 4Zm-.44 7.52c-.05-.32-.07-.88.1-1.18L11.69 14h-.67l-1.09-2.48Z" fill="#fff"/></svg>