<!-- by TradingView --><svg width="18" height="18" xmlns="http://www.w3.org/2000/svg"><path fill="url(#paint0_linear)" d="M0 0h18v18H0z"/><path d="M6.333 7.527v.63C5.537 8.571 5 9.36 5 10.262c0 .69.315 1.314.82 1.755h-.003l2.708 2.288C9 14.736 9.65 15 10.369 15 11.822 15 13 13.916 13 12.58c0-.904-.537-1.691-1.333-2.107v-.525C12.463 9.532 13 8.745 13 7.842c0-.785-.406-1.483-1.036-1.926L9.546 3.761A2.735 2.735 0 007.63 3C6.178 3 5 4.084 5 5.42c0 .904.537 1.691 1.333 2.107zm1.793.244l.005-.001-.003.001h-.002zm-.458.006c.007-1.282 1.187-2.326 2.665-2.377v.03c0 .875-.545 1.64-1.359 2.056-.137.199-.152.374-.03.554.83.413 1.39 1.186 1.39 2.07a2.638 2.638 0 010 .102c0 1.287-1.183 2.336-2.664 2.388a2.09 2.09 0 01-.002-.101c0-.883.556-1.655 1.384-2.069a.47.47 0 00.03-.525c-.844-.41-1.415-1.19-1.415-2.083v-.045z" fill="#fff"/><defs><linearGradient id="paint0_linear" x1="9" y1="-1.268" x2="9" y2="19.383" gradientUnits="userSpaceOnUse"><stop stop-color="#FEA901"/><stop offset=".486" stop-color="#FD6734"/><stop offset="1" stop-color="#FDA606"/></linearGradient></defs></svg>