<!-- by TradingView --><svg width="18" height="18" fill="none" xmlns="http://www.w3.org/2000/svg"><path fill="url(#paint0_linear_1530)" d="M0 0h18v18H0z"/><path fill-rule="evenodd" clip-rule="evenodd" d="M13.996 11.75V6.256L9 3.506v5.496l-4.995 2.749L9 14.5l4.992-2.748.003.002v-.003l.002-.001-.002-.001z" fill="#64C557"/><path d="M4 6.255l5.002-2.75v5.5l-4.997 2.75L4 6.255z" fill="#118AB2"/><path d="M9.003 3.5L14 6.25l-1.563.992-5-2.876L9.004 3.5z" fill="#00F8B7"/><path d="M12.475 7.253l-.032 1.695-5.005-2.772V4.363l5.037 2.89z" fill="#09BD8E"/><path d="M7.436 6.176l5.002 2.764-1.876 1.034-4.998-2.767 1.872-1.031z" fill="#FFE3A3"/><path d="M10.561 9.974v1.85L5.563 8.97V7.204l4.998 2.77z" fill="#FFBB1D"/><path d="M5.563 8.968l5 2.83L9 12.667 4.003 9.917l1.56-.949z" fill="#FF965E"/><path d="M9 12.665v1.833l-5-2.75V9.915l5 2.75z" fill="#D94C00"/><path d="M12.439 7.24l1.56-.98v5.5l-1.56.848V7.241z" fill="#06D6A0"/><path d="M10.561 9.968l1.879-1.031-.002 3.673-1.877 1.024V9.968z" fill="#FFD166"/><path d="M9 12.665l1.561-.868v1.847L9 14.499v-1.834z" fill="#F3722C"/><defs><linearGradient id="paint0_linear_1530" x1="3.349" y1="3.122" x2="21.904" y2="24.434" gradientUnits="userSpaceOnUse"><stop stop-color="#1A1E21"/><stop offset="1" stop-color="#06060A"/></linearGradient></defs></svg>