<!-- by TradingView --><svg width="18" height="18" fill="none" xmlns="http://www.w3.org/2000/svg"><path fill="#303757" d="M0 0h18v18H0z"/><path d="M13.51 7.2l.435.682a.141.141 0 01-.01.165l-4.829 5.902a.137.137 0 01-.212 0l-4.83-5.902a.141.141 0 01-.01-.165L4.49 7.2h9.022z" fill="#47A9F1"/><path d="M13.777 7.619l-1.022-1.606a.138.138 0 00-.06-.052l-2.088-.949A.137.137 0 0010.55 5h-3.1a.136.136 0 00-.057.012l-2.088.949a.138.138 0 00-.06.052L4.222 7.619h9.555z" fill="#7EC7FF"/><path d="M9 6.886l1.897 2.549H7.104L9 6.885z" fill="#75C1FF"/><path d="M9.7 13.223l-.594.726a.137.137 0 01-.212 0l-.594-.725-1.196-3.79h3.793L9.7 13.224z" fill="#8DCCFC"/><path d="M9 6.886l-3.362-.507 1.466 3.056L9 6.885z" fill="#BFE2F7"/><path d="M4 7.968L5.638 6.38l1.465 3.056L4 7.968z" fill="#87CBFF"/><path d="M4 7.968L5.638 6.38l-.362-.401L4 7.968z" fill="#47A9F1"/><path d="M9 6.886l3.362-.507-1.466 3.056L9 6.885z" fill="#4BAEF7"/><path d="M14 7.968L12.362 6.38l-1.465 3.056L14 7.968z" fill="#6EBEFF"/><path d="M14 7.968L12.362 6.38l.362-.401L14 7.968z" fill="#389BE3"/></svg>