<!-- by TradingView --><svg width="18" height="18" xmlns="http://www.w3.org/2000/svg"><path fill="#393941" d="M0 0h18v18H0z"/><path d="M5.599 4.655l.03 2.182c4.352-1.947 6.59 1.298 7.164 3.164l1.077.132a4.369 4.369 0 00-.417-1.035H14c-.13-.553-.637-1.205-.874-1.462l.462-.196c-.329-.58-1.032-1.09-1.342-1.271l.395-.294c-.541-.543-1.316-.81-1.636-.875l.243-.299c-.352-.161-1.403-.169-1.885-.152V4c-.621.02-1.526.445-1.9.655l-.037-.624c-.43.2-1.006.773-1.24 1.035l-.587-.411z" fill="#8A71EA"/><path d="M12.924 10.025c0 .085-.003.17-.008.254 0 0-1.858.115-3.423 1.008C7.93 12.179 6.74 14 6.74 14a4.415 4.415 0 01-2.452-3.975c0-2.434 1.933-4.407 4.318-4.407s4.319 1.973 4.319 4.407z" fill="#fff"/><path d="M6.215 6.5c.065-.2-.028-.29-.083-.31 1.207-.58 1.973-.609 2.205-.551-.532 1.26-2.177 1.766-2.314 1.622-.137-.143.11-.513.192-.762zM9.41 5.995c1.37.066 2.515 1.279 2.916 1.877l.243.564c-1.34.213-2.188-.494-2.445-.875-.117-.172-.064-.238 0-.26.532-.177.96.015 1.109.134.515.446.855.608.96.634a5.502 5.502 0 01-.728-.634c-.346-.35-.729-.391-.877-.368-.7.114-1.32.014-1.542-.05-.448-.168-1.247-.551-.85-.749.397-.198.975-.264 1.215-.273z" fill="#8A71EA"/><path d="M4.091 6.114l1.566.72-.263.268c-.417-.25-1.273-.778-1.362-.89-.077-.098.002-.112.06-.098z" fill="#fff"/><path d="M5.929 8.383l-1.887-2.14c.448.277 1.452.909 1.887 1.219.435.31 1.02.32 1.257.288a8.202 8.202 0 011.036-.094c.426 0 .765.223.886.82.097.48-.217.832-.385.948-.17.117-2.935 1.936-3.217 2.056-.281.12-.421.22-.518-.052-.122-.341-.124-.65-.135-.774-.01-.1.02-.177.035-.203.15-.24.492-.78.666-1.027.174-.245.182-.734.164-.947.091.047.283.13.312.092.029-.038-.055-.14-.101-.186z" fill="#8A71EA"/><path d="M8.116 10.175c.244.808-.12 1.608-.331 1.907 1.329-1.133 2.354-1.554 2.7-1.623.583-2.068-.744-2.92-.979-2.99-.187-.054-.183.043-.158.099.55 1.486-.592 2.357-1.232 2.607z" fill="#8A71EA"/></svg>