<!-- by TradingView --><svg width="18" height="18" viewBox="0 0 18 18" xmlns="http://www.w3.org/2000/svg"><path fill="url(#a4vyqdeo3)" d="M0 0h18v18H0z"/><path d="m7.45 8-.4.75-.41.75-.41-.75L5.82 8 5 6.5l.4-.75.42-.75.82 1.5.81 1.5Z" fill="#7D8DFE"/><path d="M9.9 6.52H6.63L5.82 5h3.27l.4.76.42.76Z" fill="#4F45F2"/><path d="M14 8h-3.27L9.9 6.52h3.27L14 8Z" fill="#7D8DFE"/><path d="m14 8-.4.75-.42.75-.4.75-.42.75h-1.63l.4-.75.42-.75.4-.75.41-.75H14Z" fill="#4F45F2"/><path d="m10.73 11-.41.75-.82 1.5-.4.75H7.45l.81-1.5.41-.75.41-.75h1.64Z" fill="#7D8DFE"/><path d="M8.3 12.52 7.44 14l-.4-.75-.82-1.5-.41-.75.4-.75.42-.75.4.75 1.25 2.27Z" fill="#4F45F2"/><defs><linearGradient id="a4vyqdeo3" x1="15.11" y1="2.22" x2="2.14" y2="15.01" gradientUnits="userSpaceOnUse"><stop stop-color="#1C1655"/><stop offset="1" stop-color="#110D32"/></linearGradient></defs></svg>