<!-- by TradingView --><svg xmlns="http://www.w3.org/2000/svg" width="18" height="18"><path fill="url(#atuer32wk)" d="M0 0h18v18H0z"/><path d="M5 6H4v4a2.5 2.5 0 005 0V6H8v4a1.5 1.5 0 01-3 0V6zm5 1.5h1v4h-1z" fill="#fff"/><path d="M12 7.5a2 2 0 00-2 2V12h1V9.5a1 1 0 112 0V12h1V9.5a2 2 0 00-2-2z" fill="#fff"/><defs><linearGradient id="atuer32wk" x1="9" y1="0" x2="9" y2="18" gradientUnits="userSpaceOnUse"><stop stop-color="#5079DD"/><stop offset="1" stop-color="#3E3BAC"/></linearGradient></defs></svg>