<!-- by TradingView --><svg width="18" height="18" viewBox="0 0 18 18" xmlns="http://www.w3.org/2000/svg"><path fill="#F0F3FA" d="M0 0h18v18H0z"/><path fill-rule="evenodd" d="M9.44 11.78a4.48 4.48 0 0 0 4.43-4.43A4.48 4.48 0 0 0 9.44 2.9 4.39 4.39 0 0 0 5 6.96H5V15c.4 0 2.22-.01 2.22-1.66V7.49c0-1.34 1.66-1.61 2.36-1.61.65 0 2.08.54 2.08 1.75s-1.25 1.59-1.4 1.59l-.22-.04c-.18-.04-.41-.1-.6-.1-.78 0-1.07.72-1.11 1.08v1.49c.35.08.72.13 1.1.13Zm0-7.33c.05.44-.22.84-.6.88-.38.04-.73-.28-.78-.72-.06-.45.2-.84.59-.89.38-.04.73.28.78.73Zm-1.45.82c.2.4.06.86-.29 1.01-.35.15-.78-.05-.97-.46-.2-.41-.06-.86.29-1.02.35-.15.78.06.97.47Zm3.47 1.01c-.35-.15-.48-.6-.3-1.01.2-.41.63-.62.98-.47.35.16.48.61.29 1.02-.19.4-.62.61-.97.46ZM9.8 4.52c-.05.45.21.84.6.88.37.05.72-.28.78-.72.05-.44-.21-.84-.6-.88-.37-.05-.72.28-.78.72Z" fill="#FF6434"/></svg>