<!-- by TradingView --><svg width="18" height="18" viewBox="0 0 18 18" xmlns="http://www.w3.org/2000/svg"><path fill="#F0F3FA" d="M0 0h18v18H0z"/><circle cx="9" cy="9" r="6" fill="url(#ajumisqdq)"/><path d="M14.67 10.96a6.01 6.01 0 0 1-1.9 2.71c-.61-.59-1.16-1.97-.48-2.75.66-.75 1.8-.32 2.38.04Z" fill="url(#bjumisqdq)"/><path d="M6.52 14.46a6.02 6.02 0 0 1-2.94-2.87c.48-.18 1.27-.23 2.04.47.88.79 1.02 1.84.9 2.4Z" fill="#C49D41"/><path d="M4.79 4.73c.49.22 1.14.38 1.62.14l.42-.21c.47-.25.58-.3.98-.21.18.04.34.16.49.28.25.2.52.41.98.31.65-.15 1.8-.9 1.8-1.67a5.99 5.99 0 0 0-6.3 1.36Z" fill="#B38B3E"/><path d="M10.98 5.47H9.64L9 7.17l-.65-1.7H7.02l.96 2.54L5 7v1.35L6.92 9 5 9.65V11l2.92-1-.96 2.53h1.33l.7-1.85.71 1.85h1.34l-.94-2.45 2.9.98V9.7L10.9 9l2.1-.71V6.94l-2.96 1 .94-2.47Z"/><defs><linearGradient id="ajumisqdq" x1="3.37" y1="9.31" x2="14.35" y2="7.6" gradientUnits="userSpaceOnUse"><stop stop-color="#D3A955"/><stop offset=".24" stop-color="#CEA651"/><stop offset=".46" stop-color="#FFD57E"/><stop offset=".75" stop-color="#FBD072"/><stop offset="1" stop-color="#FCC766"/></linearGradient><linearGradient id="bjumisqdq" x1="11.97" y1="10.9" x2="14.49" y2="12.8" gradientUnits="userSpaceOnUse"><stop stop-color="#BC8E3A"/><stop offset="1" stop-color="#79622D"/></linearGradient></defs></svg>