<!-- by TradingView --><svg width="18" height="18" viewBox="0 0 18 18" xmlns="http://www.w3.org/2000/svg"><path fill="url(#afr3cgmuy)" d="M0 0h18v18H0z"/><path d="M8.17 12.67A4.5 4.5 0 0 0 9.88 4 5.04 5.04 0 1 1 4 9.88a4.5 4.5 0 0 0 4.17 2.8Z" fill="#FFCE6C"/><path d="M12.67 8.17a4.5 4.5 0 0 1-7.13 3.66 4.5 4.5 0 1 0 6.1-6.53 4.49 4.49 0 0 1 1.03 2.87Z" fill="#FFF1B4"/><path d="M4.17 8.65a4.18 4.18 0 0 0 3.94 3.6c-.55-3.28-2.86-3.76-3.94-3.6Z" fill="#EFC705"/><path d="M12.3 8.65a4.18 4.18 0 0 1-3.94 3.6c.56-3.28 2.86-3.76 3.94-3.6Z" fill="#0082E4"/><path d="M8.04 11.15c.1.23.17.57.2.71.13-.86.86-2.72 2.76-3.22 0-.5-.05-1.63-.27-2.16a4.64 4.64 0 0 0-2.7 4.67Z" fill="#52C9C7"/><path d="M7.82 10.64c-.72-1.43-1.85-1.93-2.32-2-.03-.4 0-1.39.24-2.16a4.47 4.47 0 0 1 2.39 2.49 4.84 4.84 0 0 0-.3 1.67Z" fill="#ADD004"/><path d="M7.1 7.18c.58.52 1.01 1.25 1.15 1.55a5.3 5.3 0 0 1 1.13-1.55 5.82 5.82 0 0 0-1.13-1.84c-.55.51-.99 1.44-1.14 1.84Z" fill="#5CCC4E"/><defs><linearGradient id="afr3cgmuy" x1="3.35" y1="3.12" x2="21.9" y2="24.43" gradientUnits="userSpaceOnUse"><stop stop-color="#1A1E21"/><stop offset="1" stop-color="#06060A"/></linearGradient></defs></svg>