<!-- by TradingView --><svg width="18" height="18" viewBox="0 0 18 18" xmlns="http://www.w3.org/2000/svg"><path fill="#EA672F" d="M0 0h18v18H0z"/><path d="M6.56 4.94h4.58c0 .1-.04.34-.18.47.75.2 2.1.93 2.51 2.05l-.34-.16c.4.67 1.24 2.22.69 3.46l-.35-.47c.06.51-.21 2.02-1.73 3.14l-.17-.32c-.34.47-1.26 1.27-1.68 1.27v-.6c0 .45-.62.98-.89 1.22-.29-.2-.89-.76-.89-1.26v.64c-.51-.2-1.59-.65-1.73-1.27l-.17.32c-.63-.36-1.86-1.66-1.73-3.14l-.34.47a4.1 4.1 0 0 1 .69-3.46l-.3.16c.18-.47.69-1.56 2.2-2.05 0 0-.17-.1-.17-.47Z" fill="#CD9751"/><path d="M6.5 6.51a3.5 3.5 0 0 0-1.79.63l-.17.32a3.3 3.3 0 0 1 1.96-.63c.71 0 1.79 0 2.5.16.71-.16 1.93-.16 2.5-.16.57 0 1.6.42 1.96.63l-.17-.32a3.56 3.56 0 0 0-1.79-.63c-.71 0-1.85.21-2.5.32-.6-.1-1.79-.32-2.5-.32ZM6.32 8.4c-.71.79-1.49 1.68-1.78 2.2v-.31l-.36.15c.28-.37 1.55-1.52 2.14-2.04ZM13.82 10.44c-.14-.63-1.6-1.62-2.14-2.04.9.94 1.78 1.83 1.78 2.2v-.31l.36.15ZM5.79 11.39c0-1.02.41-2 .71-2.36l.18 4.4-.36-.47-.18.31a5.51 5.51 0 0 1-.35-1.88ZM12.21 11.39c0-1.14-.35-2.05-.71-2.36l-.18 4.24.36-.31.18.31c.06-.1.35-.78.35-1.88ZM8.29 13.74V12.5c-.18.1-.36.44-.36.94 0 .5.06.84.18.94v-.63C8.1 14.24 9 15 9 15s.9-.79.9-1.26v.63c.05-.16.17-.56.17-.94 0-.38-.24-.79-.36-.94v1.25c0 .16-.47.84-.71.95-.43-.26-.71-.79-.71-.95ZM9 5.73l-1.79-.79h-.53c0 .38.12.47.18.47L9 6.04c.6-.15 1.82-.5 1.96-.63.15-.12.18-.36.18-.47L9 5.73Z" fill="#925E2C"/><path fill-rule="evenodd" d="m9.9 13.78-.01.08c-.03.13-.09.26-.18.39-.19.28-.49.55-.67.72-.02 0-.03.02-.04.03-.19-.13-.5-.42-.7-.74-.11-.17-.19-.35-.19-.52v.64l-.18-.07c-.48-.2-1.2-.54-1.46-.99a.73.73 0 0 1-.09-.2l-.17.3a2 2 0 0 1-.15-.09c-.6-.42-1.55-1.5-1.59-2.74l.01-.3-.34.47a4.19 4.19 0 0 1 .7-3.46l-.3.16c.02-.07 0-.14.03-.22A3.49 3.49 0 0 1 6.73 5.4c-.15-.09-.23-.33-.23-.47h4.64c0 .1-.04.34-.18.47l.18.05c.71.25 1.78.87 2.24 1.78l.1.22-.35-.16.14.24c.4.71.97 1.96.62 3.03a2 2 0 0 1-.07.19l-.35-.47v.29a4.07 4.07 0 0 1-1.73 2.85l-.17-.32-.12.15c-.34.4-.97.94-1.38 1.08a.55.55 0 0 1-.18.04v-.6Zm.17.39v-.39c0-.08-.08-.15-.18-.16-.1 0-.17.07-.18.16 0 .17-.12.38-.3.6-.14.15-.3.29-.42.4a3 3 0 0 1-.4-.4c-.18-.21-.3-.44-.3-.64 0-.08-.08-.15-.18-.15-.1 0-.18.07-.18.15v.4c-.22-.1-.48-.22-.72-.37-.35-.2-.6-.44-.65-.69-.02-.06-.08-.11-.15-.12a.19.19 0 0 0-.19.09l-.08.14a4 4 0 0 1-.93-1 2.97 2.97 0 0 1-.55-1.9c0-.06-.04-.13-.12-.15a.2.2 0 0 0-.2.06l-.12.16c-.12-.7-.02-1.87.76-2.98a.14.14 0 0 0-.02-.19.2.2 0 0 0-.14-.05c.27-.5.85-1.22 1.97-1.59.07-.02.11-.07.12-.13 0-.08-.14-.22-.16-.32h4.19a.4.4 0 0 1-.1.2.14.14 0 0 0-.05.15c.02.05.06.1.12.1.35.1.85.33 1.32.66.35.26.68.57.9.93a.2.2 0 0 0-.13.05.14.14 0 0 0-.03.18c.2.34.5.88.69 1.49.15.5.22 1.03.1 1.53l-.14-.19a.2.2 0 0 0-.2-.06c-.08.02-.13.09-.12.16a3.7 3.7 0 0 1-1.5 2.87l-.07-.12a.18.18 0 0 0-.15-.1.19.19 0 0 0-.16.08 4.68 4.68 0 0 1-1.35 1.14Z" fill="#0E0C0D"/><ellipse cx="6.86" cy="7.14" rx=".71" ry=".63" fill="#EFD29A"/><ellipse rx=".71" ry=".63" transform="matrix(-1 0 0 1 11.14 7.14)" fill="#EFD29A"/><path fill-rule="evenodd" d="M11.14 7.61c-.3 0-.53-.2-.53-.47 0-.26.24-.47.53-.47.3 0 .54.21.54.47s-.24.47-.54.47Zm0 .16c-.4 0-.71-.28-.71-.63 0-.34.32-.63.71-.63.4 0 .72.29.72.63 0 .35-.32.63-.72.63ZM6.86 7.61c-.3 0-.54-.2-.54-.47 0-.26.24-.47.54-.47.3 0 .53.21.53.47s-.24.47-.53.47Zm0 .16c-.4 0-.72-.28-.72-.63 0-.34.32-.63.72-.63.4 0 .71.29.71.63 0 .35-.32.63-.71.63Z" fill="#0E0C0D"/><path d="M7.21 7.3c0 .18-.16.32-.35.32-.2 0-.36-.14-.36-.32 0-.17.16-.31.36-.31.2 0 .35.14.35.31ZM10.79 7.3c0 .18.16.32.35.32.2 0 .36-.14.36-.31 0-.18-.16-.32-.36-.32-.2 0-.35.14-.35.32Z" fill="#CD9451"/><path fill-rule="evenodd" d="M11.14 7.55c-.15 0-.28-.11-.28-.25s.13-.25.28-.25c.16 0 .29.11.29.25s-.13.25-.29.25Zm0 .06c-.2 0-.35-.14-.35-.31 0-.17.16-.31.35-.31.2 0 .36.14.36.31 0 .17-.16.31-.36.31ZM6.86 7.55c-.16 0-.29-.11-.29-.25s.13-.25.29-.25c.15 0 .28.11.28.25s-.13.25-.28.25Zm0 .06c-.2 0-.36-.14-.36-.31 0-.17.16-.31.36-.31.2 0 .35.14.35.31 0 .17-.16.31-.35.31Z" fill="#0E0C0D"/><path d="M9 6.83c-.67 0-1.63.2-1.96.31-.28 1.08-.9 2.72-.9 3.93 0 .47.23.94.34 1.1h5.02c.17-.05.36-.63.36-1.1 0-1.1-.5-2.96-.9-3.93A8.7 8.7 0 0 0 9 6.83Z" fill="#F3DB91"/><path d="m7.23 7.1-.28.98v.03l-.3.98c-.18.7-.33 1.4-.33 1.98 0 .38.16.76.26.94h4.86l.03-.04a2.26 2.26 0 0 0 .21-.9c0-1.05-.51-2.98-.9-3.96A7.98 7.98 0 0 0 9 6.83c-.6 0-1.39.17-1.77.28Zm3.7-.12c.39.97.93 3 .93 4.1 0 .46-.2 1.04-.36 1.1H6.48a2.2 2.2 0 0 1-.34-1.1c0-.91.34-2.05.63-3.01l.3-1.08A7.8 7.8 0 0 1 9 6.67c.67 0 1.53.2 1.92.3Z" fill="#0E0C0D"/><ellipse cx="7.39" cy="8.56" rx=".54" ry=".47" fill="#0E0C0D"/><ellipse cx="10.61" cy="8.56" rx=".54" ry=".47" fill="#0E0C0D"/><path d="M7.4 8.4c0 .09-.09.16-.19.16s-.17-.07-.17-.16.08-.16.17-.16c.1 0 .18.07.18.16ZM10.6 8.4c0 .09-.07.16-.17.16s-.18-.07-.18-.16.08-.16.18-.16c.1 0 .18.07.18.16Z" fill="#EFF5EB"/><path d="M9.9 8.87a7.3 7.3 0 0 0-.36-2.04H8.46c-.11.52-.35 1.26-.35 2.04 0 .79.12 1.05.18 1.42H9.7c.06-.16.18-.66.18-1.42Z" fill="#D3A363"/><path d="M9.4 6.83h-.79l-.07.35a6.68 6.68 0 0 0-.26 1.65c0 .56.06.84.12 1.1l.03.15h1.14c.06-.2.14-.64.14-1.25 0-.67-.19-1.62-.3-2Zm.3 3.41H8.29l-.06-.28c-.06-.26-.12-.55-.12-1.13 0-.63.15-1.22.27-1.7l.1-.46h1.07c.11.32.35 1.4.35 2.16 0 .75-.12 1.25-.18 1.41ZM9 11.23c.03 0 .06.01.08.03a1.19 1.19 0 0 0 .76.47c.11 0 .2-.03.28-.08a.5.5 0 0 0 .15-.14c.02-.03.07-.04.11-.02.04.01.06.05.04.08a.73.73 0 0 1-.58.29c-.16 0-.35-.08-.51-.17a1.46 1.46 0 0 1-.33-.27c-.09.1-.2.2-.33.27-.16.1-.35.17-.51.17a.73.73 0 0 1-.58-.29c-.02-.03 0-.07.04-.08.04-.02.09 0 .11.02a.5.5 0 0 0 .15.14c.08.05.17.08.28.08a1.19 1.19 0 0 0 .77-.47c0-.02.04-.03.07-.03Z" fill="#0E0C0D"/><path d="M10.07 10.29c0 .52-.48.94-1.07.94-.6 0-1.07-.42-1.07-.94 0-.53.48-.95 1.07-.95.6 0 1.07.42 1.07.95Z" fill="#D93C29"/><path fill-rule="evenodd" d="M9 11.07c.5 0 .9-.35.9-.78 0-.44-.4-.79-.9-.79s-.9.35-.9.79c0 .43.4.78.9.78Zm0 .16c.6 0 1.07-.42 1.07-.94 0-.53-.48-.95-1.07-.95-.6 0-1.07.42-1.07.95 0 .52.48.94 1.07.94Z" fill="#0E0C0D"/><path d="M9.54 9.97c0 .26-.24.47-.54.47-.3 0-.54-.2-.54-.47 0-.26.24-.47.54-.47.3 0 .54.21.54.47Z" fill="#F3A398"/><path d="M9 6.83c-.71 0-1.6.2-1.96.31.17-.63.71-1.41.17-2.2-.32-.47-1.36-.15-1.78 0A2.62 2.62 0 0 1 7.57 4c.86 0 1.31.21 1.43.31v2.52Z" fill="#E74A86"/><path d="M9 6.83c.71 0 1.6.2 1.96.31-.17-.63-.71-1.41-.17-2.2.32-.47 1.36-.15 1.78 0A2.62 2.62 0 0 0 10.43 4c-.86 0-1.31.21-1.43.31v2.52Z" fill="#4B84F5"/><path d="M9 4.47a.2.2 0 0 1-.13-.04c-.03-.03-.14-.1-.36-.16a3.53 3.53 0 0 0-.94-.11c-.66 0-1.17.19-1.54.44l.3-.05c.37-.04.82-.01 1.04.31.46.68.2 1.36 0 1.89l-.01.01-.06.15c.45-.1 1.13-.24 1.7-.24.58 0 1.25.13 1.7.24l-.06-.15v-.01c-.2-.53-.47-1.21 0-1.89.21-.32.66-.35 1.03-.3.1 0 .2.02.3.04a2.67 2.67 0 0 0-1.54-.44c-.41 0-.72.05-.94.1-.22.07-.33.14-.36.17a.2.2 0 0 1-.13.04Zm3.35.23a2 2 0 0 1 .22.24l-.32-.1c-.49-.15-1.2-.27-1.46.1-.42.62-.19 1.23.02 1.77a9.62 9.62 0 0 1 .15.43A7.88 7.88 0 0 0 9 6.83a7.88 7.88 0 0 0-1.96.31l.05-.18.1-.25c.2-.54.44-1.15.02-1.77-.25-.37-.97-.25-1.46-.1-.13.03-.24.07-.32.1A2.74 2.74 0 0 1 7.57 4c.86 0 1.31.21 1.43.31.12-.1.57-.31 1.43-.31.88 0 1.53.32 1.92.7Z" fill="#0E0C0D"/><ellipse cx="12.93" cy="5.26" rx=".71" ry=".63" fill="#EE4684"/><ellipse cx="5.07" cy="5.26" rx=".71" ry=".63" fill="#4B84F5"/><path fill-rule="evenodd" d="M5.07 5.73c.3 0 .54-.21.54-.47s-.24-.47-.54-.47c-.3 0-.53.2-.53.47 0 .26.24.47.53.47Zm0 .16c.4 0 .72-.29.72-.63 0-.35-.32-.63-.72-.63-.4 0-.71.28-.71.63 0 .34.32.63.71.63ZM12.93 5.73c.3 0 .53-.21.53-.47s-.24-.47-.53-.47c-.3 0-.54.2-.54.47 0 .26.24.47.54.47Zm0 .16c.4 0 .71-.29.71-.63 0-.35-.32-.63-.71-.63-.4 0-.72.28-.72.63 0 .34.32.63.72.63Z" fill="#0E0C0D"/></svg>