<!-- by TradingView --><svg width="18" height="18" xmlns="http://www.w3.org/2000/svg"><path fill="#278DC1" d="M0 0h18v18H0z"/><path d="M5 7c0 .641.47.976 1 1 .53.024 1-.359 1-1s-.504-1-1-1-1 .359-1 1zm2-3h1.002v3c0 1.16-.91 2-2.002 2-1.093 0-2-.84-2-2 0-1.16.894-2 2-2 .448 0 .725.085 1 .271V4zm6 7c0-.642-.435-1-1-1-.565-.001-1 .358-1 1 0 .641.477.987 1 1 .523.013 1-.359 1-1zm-2 3h-1v-3c0-1.16.87-2.011 2-2 1.13.011 2 .84 2 2 0 1.16-.892 2-2 2-.448 0-.702-.093-1-.286V14zm0-9c.642 0 1 .425 1 1s-.359 1-1 1c-.642 0-1.012-.434-1-1 .012-.566.358-1 1-1zm0-1c-1.16 0-2.02.865-2 2 .02 1.135 1 1.986 2 2 1 .014 2-.792 2-2 0-.401-.064-.653-.286-1H14V4h-3zm-5 7.998C6 12.666 6.488 13 7 13s1-.334 1-1.002c0-.668-.457-1.002-1-.998-.543.004-1 .33-1 .998zm3 0C9 13.206 8.16 14 7 14H4v-1h1.295C5.12 12.704 5 12.446 5 11.998c0-1.146.905-2.002 2-1.998 1.095.004 2 .79 2 1.998z" fill="#FFFFFE"/></svg>