<!-- by TradingView --><svg width="18" height="18" viewBox="0 0 18 18" xmlns="http://www.w3.org/2000/svg"><path fill="#F0F3FA" d="M0 0h18v18H0z"/><path d="M14.76 9A5.76 5.76 0 1 0 3.24 9a5.76 5.76 0 0 0 11.52 0Z" fill="#5C1073"/><path d="M9 3.48a5.52 5.52 0 1 0 0 11.04A5.52 5.52 0 0 0 9 3.48ZM3 9a6 6 0 1 1 12 0A6 6 0 0 1 3 9Z" fill="url(#atqiwl3iu)"/><path d="M12.55 9.66c.15.14.36.23.58.23a.87.87 0 1 0-.57-1.53l-.99-1.3a.12.12 0 0 0-.21.08v.92l-1.51.67a.3.3 0 0 0-.17.29c0 .1.06.2.17.26l1.5.68v.92c0 .11.15.16.22.07l.98-1.3Z" fill="url(#btqiwl3iu)"/><path d="M8.34 12.55a.87.87 0 1 0 1.3.01l1.3-.98a.12.12 0 0 0-.07-.22h-.92l-.67-1.51A.3.3 0 0 0 9 9.68a.3.3 0 0 0-.27.17l-.68 1.5h-.92a.12.12 0 0 0-.08.22l1.3.98Z" fill="url(#ctqiwl3iu)"/><path d="M5.47 8.33a.87.87 0 1 0-.02 1.3l.98 1.3c.07.1.21.05.21-.07l.01-.92 1.5-.66A.3.3 0 0 0 8.32 9a.3.3 0 0 0-.17-.27l-1.48-.7v-.91a.12.12 0 0 0-.21-.08l-.99 1.29Z" fill="url(#dtqiwl3iu)"/><path d="M9.7 5.48a.87.87 0 1 0-1.3-.02l-1.3.96c-.1.07-.05.22.06.22h.93l.65 1.5a.3.3 0 0 0 .26.18.3.3 0 0 0 .29-.16l.7-1.49.92.01c.11 0 .16-.15.07-.22L9.7 5.48Z" fill="url(#etqiwl3iu)"/><defs><linearGradient id="atqiwl3iu" x1="9.72" y1=".82" x2="7.96" y2="17.06" gradientUnits="userSpaceOnUse"><stop stop-color="#FFC85F"/><stop offset="1" stop-color="#DF2D62"/></linearGradient><linearGradient id="btqiwl3iu" x1="14.75" y1="9.24" x2="9.08" y2="8.59" gradientUnits="userSpaceOnUse"><stop stop-color="#FFC85F"/><stop offset="1" stop-color="#DF2D62"/></linearGradient><linearGradient id="ctqiwl3iu" x1="8.75" y1="14.75" x2="9.43" y2="9.08" gradientUnits="userSpaceOnUse"><stop stop-color="#FFC85F"/><stop offset="1" stop-color="#DF2D62"/></linearGradient><linearGradient id="dtqiwl3iu" x1="3.27" y1="8.73" x2="8.94" y2="9.43" gradientUnits="userSpaceOnUse"><stop stop-color="#FFC85F"/><stop offset="1" stop-color="#DF2D62"/></linearGradient><linearGradient id="etqiwl3iu" x1="9.31" y1="3.27" x2="8.59" y2="8.93" gradientUnits="userSpaceOnUse"><stop stop-color="#FFC85F"/><stop offset="1" stop-color="#DF2D62"/></linearGradient></defs></svg>