<!-- by TradingView --><svg width="18" height="18" viewBox="0 0 18 18" xmlns="http://www.w3.org/2000/svg"><path fill="url(#aufeihzvq)" d="M0 0h18v18H0z"/><path fill-rule="evenodd" d="M9 14.54A5.54 5.54 0 1 0 9 3.46a5.54 5.54 0 0 0 0 11.08ZM9 15A6 6 0 1 0 9 3a6 6 0 0 0 0 12ZM8.84 4.8h.53l2.15 3.79-.25.54L8.84 4.8ZM6.48 8.59l.23.47 1.85-3.14 1.07 1.93c-.13-.03-.5-.1-.91-.07l-.28.54c.56-.19 1.38 0 1.59.17l.51.93h.59l-2.57-4.5-2.08 3.67Zm.44.83 1.64-2.95.28.45-.91 1.76c.2-.06.7-.17 1.12-.17.4 0 .78.12.86.2l.19.61c-.06-.08-.36-.28-1.03-.28s-1.3.26-1.52.38h-.63Zm.82.84h-.42v1.37c0 .19-.1.3-.21.36a.48.48 0 0 1-.21.04c-.25 0-.42-.15-.42-.4v-1.37h-.42v1.37c0 .48.39.73.84.73.45 0 .84-.25.84-.73v-1.37Zm1.65 1.54c0-.2-.23-.27-.4-.32l-.03-.01c-.31-.1-.73-.25-.73-.64 0-.41.46-.57.8-.57.38 0 .8.2.8.63h-.41c0-.2-.2-.3-.4-.3-.14 0-.34.06-.34.24s.24.25.4.3h.03c.33.1.73.27.73.67 0 .42-.44.56-.8.56-.4 0-.88-.2-.88-.67h.45c0 .26.21.35.44.35.15 0 .34-.07.34-.24Zm1.3.56h.25c.57 0 1-.42 1-1v-.1c0-.57-.42-1-1-1H10.26v2.1H10.68Zm0-.34h.25c.38 0 .58-.3.58-.65v-.1c0-.35-.2-.67-.58-.67h-.26v1.42Z" fill="url(#bufeihzvq)"/><defs><linearGradient id="aufeihzvq" x1="3.21" y1="2.09" x2="14.63" y2="16.07" gradientUnits="userSpaceOnUse"><stop stop-color="#D04B42"/><stop offset="1" stop-color="#AD2E74"/></linearGradient><linearGradient id="bufeihzvq" x1="6.06" y1="4.8" x2="11.73" y2="13.83" gradientUnits="userSpaceOnUse"><stop stop-color="#FFE2DF"/><stop offset=".33" stop-color="#F9D6DD"/><stop offset="1" stop-color="#EDC0DD"/></linearGradient></defs></svg>