<!-- by TradingView --><svg width="18" height="18" viewBox="0 0 18 18" fill="none" xmlns="http://www.w3.org/2000/svg"><path fill="#F0F3FA" d="M0 0h18v18H0z"/><path d="M6.5 13.75c-.22-.08-.68-.24-.75-.25l.75-.45v.7Z" fill="#DB8A00"/><path d="M7.8 13.5c0 .2-.36.38-.79.38-.43 0-.78-.17-.78-.39v-.35s1.21.01 1.57.06v.3Z" fill="url(#asvpzzsaj)"/><path d="M8.19 4.02c-.37 0-.75.33-.9.5l.38.03.78-.3.12-.07a.51.51 0 0 0-.38-.16Z" fill="#A9A7A8"/><path d="M8.46 4.22a.89.89 0 0 0-.85.34l3.6.67 2.02 2.4.36-1.66-1.87-1.44c-.9-.08-2.8-.25-3.26-.31Z" fill="#703CBF"/><path d="M12.26 4.4c-.57 0-1.16.3-1.37.44l.68.26c.2-.15.66-.44 1-.44.35 0 .6.09.7.14-.1-.14-.45-.4-1.01-.4Z" fill="#E3DCD6"/><path d="m6.06 4.94 1.49 2.54v.11L13 8.84l.17-.16-2.17-3.12-4.95-.62Z" fill="url(#bsvpzzsaj)"/><path d="m12.65 8.45-.47-.72-4.16-1.32v1.04l4.63 1Z" fill="url(#csvpzzsaj)"/><path d="M7.68 7.38 6.35 5.25l.94.12 1.11 1.8-.72.21Z" fill="url(#dsvpzzsaj)"/><path d="m10.82 5.75-3.77-.4 1.07 1.69 4.06.7-1.36-1.99Z" fill="url(#esvpzzsaj)"/><path d="M14 6.26c0-.7-.5-1.28-.76-1.48-.64-.36-1.36-.06-1.64.13v.43l1.83 2.64c.2-.28.57-1.02.57-1.72Z" fill="url(#fsvpzzsaj)"/><path d="M13.37 6.29c0-.67-.58-.83-.87-.82l.02.6.42 1.25c.15-.07.43-.37.43-1.03Z" fill="#B2A8B1"/><path d="M12.5 5.46c-.2 0-.38.14-.44.2l.75 1.45c.12-.05.37-.27.37-.77 0-.62-.44-.88-.68-.88Z" fill="#5C09B9"/><path d="m9.06 12.64-4.72-1.6-.34.91c.24.1.76.33.96.4.1-.04.33-.08.44-.1l2.22.81c.44.17.53.38.52.47l.85.22.07-1.11Z" fill="url(#gsvpzzsaj)"/><path d="m4.52 10.84-.18.2 4.74 1.65 3.65-1.21-.36-.11-3.29 1.03-4.56-1.56Z" fill="url(#hsvpzzsaj)"/><path d="M9.05 12.68 9 13.74c.2-.03.61-.1.71-.14 0-.15.1-.27.14-.31.62-.23 1.91-.69 2.16-.69.24 0 .4.08.46.11l.49-.3-.24-.93-3.67 1.2Z" fill="url(#isvpzzsaj)"/><path d="M9.89 13.48v-.25l.37-.17.41.14v.25l-.39.16-.4-.13Z" fill="url(#jsvpzzsaj)"/><path d="m9.87 13.48-.19.18.6.21v-.26l-.4-.13Z" fill="url(#ksvpzzsaj)"/><path d="M10.28 13.87v-.26l.38-.17.2.17-.58.26Z" fill="url(#lsvpzzsaj)"/><path d="M10.27 14v-.13l-.58-.22-.01.04.19.2.4.1Z" fill="#21CE41"/><path d="M10.28 13.99v-.13l.52-.3.1.09-.1.17-.52.17Z" fill="url(#msvpzzsaj)"/><path d="m10.85 13.25-.19-.05v.24l.25.21-.06-.4Z" fill="#21CE41"/><path d="m9.1 12.44-.07-1.79-.76-.18.12 1.7.7.27Z" fill="url(#nsvpzzsaj)"/><path d="m9.78 10.48-.76.18.07 1.74.65-.2.04-1.72Z" fill="url(#osvpzzsaj)"/><path d="m4.94 9.54-.56-.2.15 1.5.58.22-.17-1.52Z" fill="url(#psvpzzsaj)"/><path d="m5.06 9.58-.13-.06.17 1.5.14.07-.18-1.51Z" fill="url(#qsvpzzsaj)"/><path d="m12.18 9.98-.2.03-.1 1.53.15-.04.15-1.52Z" fill="url(#rsvpzzsaj)"/><path d="m12.7 9.88-.54.12-.15 1.58.48-.18.2-1.52Z" fill="url(#ssvpzzsaj)"/><path d="M8.27 10.43 5.05 9.6l.18 1.5 3.15 1.1-.1-1.77Z" fill="url(#tsvpzzsaj)"/><path d="m4.16 9.26-.15-.94 4.97 1.23.05 1.1-1.52-.4-.25.28a.43.43 0 0 1-.45.14l-.84-.25a.44.44 0 0 1-.26-.2l-.29-.53-1.26-.43Z" fill="url(#usvpzzsaj)"/><path d="m11.98 10.03-2.2.45-.06 1.72 2.18-.67.08-1.5Z" fill="url(#vsvpzzsaj)"/><path d="m9.03 10.67-.06-1.1 4.15-.73-.21 1-3.88.83Z" fill="url(#wsvpzzsaj)"/><ellipse cx="7.01" cy="13.2" rx=".78" ry=".39" fill="#F5A000"/><path d="m7.72 7.62-3.7.69L8.98 9.6l4.13-.76-5.4-1.22Z" fill="url(#xsvpzzsaj)"/><path d="M5.6 8.26c-.05-.01-.2.16-.22.22l3.51.93c.12.03 3.43-.58 3.34-.64-.08-.06-3.9-.87-3.96-.9-.06-.03-2.64.4-2.68.39Z" fill="#824006"/><path d="M6.6 12.62c.1.13-.04.42-.3.64-.28.23-.58.3-.68.17l-.16-.21s.76-.62 1-.78l.14.18Z" fill="url(#ysvpzzsaj)"/><path d="M6.65 8.27c.04.11-.12.26-.34.32-.22.07-.42.03-.46-.07l-.05-.18s.62-.18.81-.21l.04.14Z" fill="#F3A100"/><path d="M8.23 7.84c0 .11-.18.22-.42.22-.23 0-.43-.08-.44-.2v-.2s.66 0 .85.02l.01.16Z" fill="#FFD703"/><path d="M8.22 7.67c0 .12-.18.22-.41.23-.24 0-.44-.09-.44-.2-.01-.12.18-.22.41-.23.24 0 .44.09.44.2Z" fill="#FEC900"/><path d="M8.67 7.61c-.07.1-.27.06-.46-.09-.2-.14-.3-.34-.25-.44l.1-.16s.54.41.69.56l-.08.13Z" fill="#FFE408"/><path d="M8.75 7.48c-.06.1-.27.06-.46-.1-.2-.14-.3-.34-.24-.44.06-.1.26-.06.46.09s.3.35.24.45Z" fill="#EFDC03"/><path d="M9.19 7.86c.02.12-.15.25-.39.29-.23.04-.44-.03-.46-.14l-.03-.2s.65-.1.85-.1l.03.15Z" fill="#FFE408"/><path d="M9.16 7.7c.02.12-.15.25-.39.29-.23.04-.44-.03-.46-.14-.02-.12.16-.25.39-.28.23-.04.44.02.46.14Z" fill="#EFDC03"/><path d="M8.71 7.94c.04.1-.12.26-.35.33-.23.07-.44.03-.47-.08-.03-.12.12-.27.35-.34.23-.06.44-.03.47.09Z" fill="#FFC00B"/><path d="M10 8.73c0 .2-.3.36-.69.37-.38 0-.7-.14-.71-.34l-.02-.3s1.09-.03 1.4.01l.02.26Z" fill="#D2A600"/><path d="M9.99 8.47c0 .19-.3.36-.69.36-.39.01-.7-.14-.72-.33 0-.2.3-.36.69-.37.38 0 .7.14.72.34Z" fill="#DA7003"/><path d="M9.95 7.66c.1.1.01.35-.2.58-.22.22-.48.32-.59.22L9 8.31s.61-.62.82-.78l.14.13Z" fill="#FFE203"/><path d="M11.63 8.87c-.04.14-.3.15-.57.01-.27-.13-.46-.36-.41-.5l.07-.22s.76.38.97.52l-.06.2Z" fill="#FFD60C"/><path d="M8.72 8.53c.07.12-.07.34-.32.5-.24.14-.49.17-.56.05-.07-.11-.1-.19-.1-.19s.67-.42.89-.52l.09.16Z" fill="url(#zsvpzzsaj)"/><path d="M10.8 8.77c0 .13-.2.2-.46.18-.25-.03-.46-.15-.46-.28v-.2s.71.08.92.13v.17Z" fill="#E48B0D"/><path d="m11.6 4.9-.62.68 2.2 3.1.42-.6-2-3.17Z" fill="url(#aasvpzzsaj)"/><path d="M8.12 4.57c.06-.06.18-.17.23-.25.08-.1.26-.2.35-.18l1 .12c.12.02.34.1.34.31v.18l1.55.15-.6.7-4.93-.66.47-.52 1.59.15Z" fill="url(#absvpzzsaj)"/><path d="M6.47 12.44c.1.13-.04.42-.31.64-.27.23-.57.3-.67.17-.1-.13.04-.42.3-.64.28-.22.58-.3.68-.17Z" fill="#FFC406"/><path d="M8.62 8.37c.07.12-.07.34-.3.5-.25.14-.5.17-.57.05-.07-.11.07-.33.31-.49.24-.15.5-.18.56-.06Z" fill="#FEC70F"/><path d="M6.73 7.88c.04.13-.15.3-.4.38-.27.08-.51.04-.55-.1-.04-.12.14-.3.4-.37.27-.08.51-.04.55.09Z" fill="#FFC406"/><path d="M9.8 7.53c.11.1.02.35-.2.57-.21.23-.48.33-.58.23-.1-.1-.02-.35.2-.58.22-.22.48-.32.58-.22Z" fill="url(#acsvpzzsaj)"/><path d="M11.7 8.68c-.05.14-.3.15-.58.01-.27-.13-.46-.36-.41-.5.04-.14.3-.15.57-.01.27.13.46.36.41.5Z" fill="#FFC01D"/><path d="m6.77 8.23-.06-.16.2-.23.31-.03.07.17-.22.22-.3.03Z" fill="url(#adsvpzzsaj)"/><path d="m6.76 8.23-.08.18.45-.04-.07-.17-.3.03Z" fill="url(#aesvpzzsaj)"/><path d="m7.14 8.37-.07-.17.21-.23.17.05-.31.35Z" fill="url(#afsvpzzsaj)"/><path d="m7.17 8.45-.04-.09.28-.35.09.02-.03.15-.3.27Z" fill="url(#agsvpzzsaj)"/><path d="M10.8 8.6c0 .13-.2.2-.46.18-.25-.03-.46-.16-.46-.28 0-.13.2-.21.46-.18.26.02.46.15.46.28Z" fill="#D13201"/><path d="m9.88 8.3-.14-.24.06-.25.24-.13.43-.07.5.34-.03.4-.15.14-.55.03-.36-.22Z" fill="url(#ahsvpzzsaj)"/><path d="m10 7.9.06-.23.4-.06.36.25-.06.24-.4.04-.36-.23Z" fill="url(#aisvpzzsaj)"/><path d="m9.99 7.9-.23.12.52.38.06-.26-.35-.23Z" fill="url(#ajsvpzzsaj)"/><path d="m10.29 8.4.06-.26.4-.05.16.21-.62.1Z" fill="url(#aksvpzzsaj)"/><path d="m10.25 8.51.04-.12.57-.14.08.11-.14.14-.55.01Z" fill="url(#alsvpzzsaj)"/><path d="M7.67 9c-.04.12-.28.16-.55.06s-.45-.28-.42-.41l.06-.22s.75.27.96.38L7.67 9Z" fill="url(#amsvpzzsaj)"/><path d="M7.72 8.81c-.04.13-.28.16-.55.07-.27-.1-.45-.28-.42-.42.04-.13.29-.16.55-.06.27.1.45.28.42.41Z" fill="#FEC70F"/><path d="M7.91 8.27c.04.1-.1.27-.33.36-.22.1-.44.08-.48-.03l-.07-.18s.63-.25.83-.3l.05.15Z" fill="#FDD306"/><path d="M7.85 8.12c.05.1-.1.27-.32.36-.23.1-.44.08-.49-.03-.04-.11.11-.27.33-.36.23-.1.44-.08.48.03Z" fill="#F5B207"/><path fill-rule="evenodd" d="m6.3 9.33-.19-.06v.08l.13.06v.63L6.09 10v.1l.22.06v.12h.07v-.12l.05.05v.1h.07v-.1c.1.01.28 0 .28-.15 0-.14-.12-.25-.19-.28.04 0 .13-.04.13-.17s-.15-.2-.22-.21v-.2h-.07v.18l-.07-.02V9.2H6.3v.13Zm.06.35v-.24c.11.03.24.1.24.18 0 .06-.05.1-.09.1a.71.71 0 0 1-.15-.04Zm0 .13v.26l.18.04c.05 0 .1-.03.1-.1 0-.09-.14-.18-.28-.2Z" fill="#411489"/><defs><linearGradient id="asvpzzsaj" x1="7.8" y1="13.44" x2="6.16" y2="13.43" gradientUnits="userSpaceOnUse"><stop stop-color="#F59A05"/><stop offset=".43" stop-color="#EBC60F"/><stop offset="1" stop-color="#C77009"/></linearGradient><linearGradient id="bsvpzzsaj" x1="5.95" y1="5" x2="13.48" y2="8.36" gradientUnits="userSpaceOnUse"><stop stop-color="#BF4DC9"/><stop offset="1" stop-color="#DB3CB0"/></linearGradient><linearGradient id="csvpzzsaj" x1="12.42" y1="8.02" x2="8.13" y2="7.28" gradientUnits="userSpaceOnUse"><stop stop-color="#C360BB"/><stop offset=".61" stop-color="#D78B69"/></linearGradient><linearGradient id="dsvpzzsaj" x1="6.78" y1="5.26" x2="7.89" y2="7.1" gradientUnits="userSpaceOnUse"><stop stop-color="#4D08BA"/><stop offset="1" stop-color="#9F4ACC"/></linearGradient><linearGradient id="esvpzzsaj" x1="9.72" y1="5.37" x2="9.72" y2="7.74" gradientUnits="userSpaceOnUse"><stop offset=".16" stop-color="#500995"/><stop offset=".63" stop-color="#7328B8"/></linearGradient><linearGradient id="fsvpzzsaj" x1="12.27" y1="4.69" x2="13.39" y2="7.85" gradientUnits="userSpaceOnUse"><stop stop-color="#C4C2C2"/><stop offset="1" stop-color="#7A7A83"/></linearGradient><linearGradient id="gsvpzzsaj" x1="4" y1="11.57" x2="9.04" y2="12.98" gradientUnits="userSpaceOnUse"><stop stop-color="#FCB3D1"/><stop offset="1" stop-color="#E54DEB"/></linearGradient><linearGradient id="hsvpzzsaj" x1="8.91" y1="11.61" x2="8.55" y2="12.59" gradientUnits="userSpaceOnUse"><stop offset=".59" stop-color="#9123AB"/><stop offset=".81" stop-color="#CD73E4"/></linearGradient><linearGradient id="isvpzzsaj" x1="9" y1="13.01" x2="12.8" y2="12.08" gradientUnits="userSpaceOnUse"><stop stop-color="#752ACC"/><stop offset=".53" stop-color="#BF56BF"/><stop offset="1" stop-color="#7926B2"/></linearGradient><linearGradient id="jsvpzzsaj" x1="10.61" y1="13.24" x2="9.9" y2="13.4" gradientUnits="userSpaceOnUse"><stop stop-color="#41DD00"/><stop offset="1" stop-color="#E0FCA8"/></linearGradient><linearGradient id="ksvpzzsaj" x1="9.98" y1="13.48" x2="9.92" y2="13.81" gradientUnits="userSpaceOnUse"><stop stop-color="#0F8318"/><stop offset=".93" stop-color="#21CE41"/></linearGradient><linearGradient id="lsvpzzsaj" x1="10.57" y1="13.44" x2="10.5" y2="13.79"><stop stop-color="#0F8318"/></linearGradient><linearGradient id="msvpzzsaj" x1="10.59" y1="13.56" x2="10.53" y2="13.92" gradientUnits="userSpaceOnUse"><stop stop-color="#0F8318"/><stop offset=".93" stop-color="#21CE41"/></linearGradient><linearGradient id="nsvpzzsaj" x1="8.68" y1="10.47" x2="8.68" y2="12.44" gradientUnits="userSpaceOnUse"><stop stop-color="#DFDDD8"/><stop offset="1" stop-color="#EDECE8"/></linearGradient><linearGradient id="osvpzzsaj" x1="9.4" y1="10.48" x2="9.4" y2="12.4" gradientUnits="userSpaceOnUse"><stop stop-color="#AFA0B5"/><stop offset="1" stop-color="#7E737C"/></linearGradient><linearGradient id="psvpzzsaj" x1="4.74" y1="9.34" x2="4.74" y2="11.06" gradientUnits="userSpaceOnUse"><stop stop-color="#DFDDD8"/><stop offset="1" stop-color="#EDECE8"/></linearGradient><linearGradient id="qsvpzzsaj" x1="5.09" y1="9.52" x2="5.09" y2="11.09" gradientUnits="userSpaceOnUse"><stop stop-color="#AFA0B5"/><stop offset="1" stop-color="#7E737C"/></linearGradient><linearGradient id="rsvpzzsaj" x1="12.03" y1="9.98" x2="12.03" y2="11.54" gradientUnits="userSpaceOnUse"><stop stop-color="#A9A1B0"/><stop offset="1" stop-color="#B79BB2"/></linearGradient><linearGradient id="ssvpzzsaj" x1="12.36" y1="9.88" x2="12.36" y2="11.58" gradientUnits="userSpaceOnUse"><stop stop-color="#AFA0B5"/><stop offset="1" stop-color="#7E737C"/></linearGradient><linearGradient id="tsvpzzsaj" x1="5.06" y1="10.2" x2="8.25" y2="10.81" gradientUnits="userSpaceOnUse"><stop stop-color="#642CAB"/><stop offset="1" stop-color="#895FD4"/></linearGradient><linearGradient id="usvpzzsaj" x1="4.23" y1="8.91" x2="9.07" y2="9.95" gradientUnits="userSpaceOnUse"><stop stop-color="#FCCBAD"/><stop offset="1" stop-color="#D830ED"/></linearGradient><linearGradient id="vsvpzzsaj" x1="10.4" y1="10.03" x2="10.92" y2="12.19" gradientUnits="userSpaceOnUse"><stop offset=".24" stop-color="#5408B5"/><stop offset=".37" stop-color="#6615CA"/></linearGradient><linearGradient id="wsvpzzsaj" x1="8.97" y1="10.09" x2="12.83" y2="8.83" gradientUnits="userSpaceOnUse"><stop stop-color="#752ACC"/><stop offset=".53" stop-color="#BF56BF"/><stop offset="1" stop-color="#7926B2"/></linearGradient><linearGradient id="xsvpzzsaj" x1="13.01" y1="8.61" x2="4.1" y2="8.32" gradientUnits="userSpaceOnUse"><stop stop-color="#921EB3"/><stop offset="1" stop-color="#EA8ED7"/></linearGradient><linearGradient id="ysvpzzsaj" x1="6.53" y1="12.6" x2="5.68" y2="13.31" gradientUnits="userSpaceOnUse"><stop stop-color="#F4B122"/><stop offset="1" stop-color="#FFE404"/></linearGradient><linearGradient id="zsvpzzsaj" x1="8.66" y1="8.51" x2="7.91" y2="9" gradientUnits="userSpaceOnUse"><stop stop-color="#F4B122"/><stop offset="1" stop-color="#FFE404"/></linearGradient><linearGradient id="aasvpzzsaj" x1="11.22" y1="5.37" x2="13.5" y2="8.13" gradientUnits="userSpaceOnUse"><stop stop-color="#752ACC"/><stop offset=".43" stop-color="#BF56BF"/><stop offset="1" stop-color="#7926B2"/></linearGradient><linearGradient id="absvpzzsaj" x1="6.34" y1="4.87" x2="11.33" y2="5.26" gradientUnits="userSpaceOnUse"><stop stop-color="#F9A1CA"/><stop offset="1" stop-color="#DA35EB"/></linearGradient><linearGradient id="acsvpzzsaj" x1="9.7" y1="7.55" x2="8.97" y2="8.22" gradientUnits="userSpaceOnUse"><stop stop-color="#FEBF04"/><stop offset="1" stop-color="#FDD001"/></linearGradient><linearGradient id="adsvpzzsaj" x1="7.19" y1="7.85" x2="6.74" y2="8.15" gradientUnits="userSpaceOnUse"><stop stop-color="#41DD00"/><stop offset="1" stop-color="#E0FCA8"/></linearGradient><linearGradient id="aesvpzzsaj" x1="6.83" y1="8.2" x2="6.89" y2="8.44" gradientUnits="userSpaceOnUse"><stop stop-color="#0F8318"/><stop offset=".93" stop-color="#21CE41"/></linearGradient><linearGradient id="afsvpzzsaj" x1="7.22" y1="8" x2="7.28" y2="8.25" gradientUnits="userSpaceOnUse"><stop stop-color="#0F8318"/><stop offset=".93" stop-color="#21CE41"/></linearGradient><linearGradient id="agsvpzzsaj" x1="7.27" y1="8.07" x2="7.33" y2="8.32" gradientUnits="userSpaceOnUse"><stop stop-color="#0F8318"/><stop offset=".93" stop-color="#21CE41"/></linearGradient><linearGradient id="ahsvpzzsaj" x1="10.49" y1="7.62" x2="10.13" y2="8.32" gradientUnits="userSpaceOnUse"><stop stop-color="#0F8318"/><stop offset=".93" stop-color="#21CE41"/></linearGradient><linearGradient id="aisvpzzsaj" x1="10.76" y1="7.88" x2="10.03" y2="7.86" gradientUnits="userSpaceOnUse"><stop stop-color="#41DD00"/><stop offset="1" stop-color="#E0FCA8"/></linearGradient><linearGradient id="ajsvpzzsaj" x1="10.09" y1="7.93" x2="9.94" y2="8.23" gradientUnits="userSpaceOnUse"><stop stop-color="#0F8318"/><stop offset=".93" stop-color="#21CE41"/></linearGradient><linearGradient id="aksvpzzsaj" x1="10.67" y1="8.06" x2="10.51" y2="8.38" gradientUnits="userSpaceOnUse"><stop stop-color="#0F8318"/><stop offset=".93" stop-color="#21CE41"/></linearGradient><linearGradient id="alsvpzzsaj" x1="10.66" y1="8.19" x2="10.51" y2="8.51" gradientUnits="userSpaceOnUse"><stop stop-color="#0F8318"/><stop offset=".93" stop-color="#21CE41"/></linearGradient><linearGradient id="amsvpzzsaj" x1="7.65" y1="8.93" x2="6.79" y2="8.74" gradientUnits="userSpaceOnUse"><stop stop-color="#F4B122"/><stop offset="1" stop-color="#FFE404"/></linearGradient></defs></svg>