<!-- by TradingView --><svg width="18" height="18" viewBox="0 0 18 18" xmlns="http://www.w3.org/2000/svg"><path fill="url(#aezmah0kl)" d="M0 0h18v18H0z"/><path d="M11.47 9.88c-.55.66-1.15.79-2.02.79a2.8 2.8 0 0 1-1.47-.5l-.58.74c.47.36 1.2.59 2.05.59.75 0 1.37.01 2.02-.44l.87.86A5.44 5.44 0 0 1 9 13.17a3.4 3.4 0 0 1-3.34-2.11c.7-.4 1.18-1.23 1.18-2.06 0-.7-.5-1.56-1.18-2.06A3.58 3.58 0 0 1 9 4.84c1.1-.02 2.57.53 3.34 1.24l-.87.86c-.65-.41-1.27-.44-2.02-.44-.79 0-1.6.2-2.05.59l.58.73c.35-.22 1-.5 1.47-.5.85 0 1.47.14 2.02.8l2.03-2.04A5.49 5.49 0 0 0 9 4C6.83 4 5.2 5.3 4.5 7.33c.78.33 1.44.92 1.44 1.67 0 .75-.65 1.35-1.44 1.67.53 2.2 2.29 3.37 4.5 3.33 2-.04 3.65-.82 4.5-2.08l-2.03-2.04Z" fill="url(#bezmah0kl)"/><defs><linearGradient id="aezmah0kl" x1="3.35" y1="3.12" x2="21.9" y2="24.43" gradientUnits="userSpaceOnUse"><stop stop-color="#1A1E21"/><stop offset="1" stop-color="#06060A"/></linearGradient><linearGradient id="bezmah0kl" x1="5.34" y1="12.82" x2="14.26" y2="5.48" gradientUnits="userSpaceOnUse"><stop stop-color="#801DE5"/><stop offset=".58" stop-color="#E651C0"/><stop offset="1" stop-color="#F498B6"/></linearGradient></defs></svg>