<!-- by TradingView --><svg width="18" height="18" viewBox="0 0 18 18" xmlns="http://www.w3.org/2000/svg"><path fill="#F0F3FA" d="M0 0h18v18H0z"/><path d="M8.6 13.99A5.04 5.04 0 0 1 4 9a5.09 5.09 0 0 1 4.88-4.99.19.19 0 0 1 .12.18v1.63a.18.18 0 0 1-.18.18A2.9 2.9 0 0 0 6 9a3 3 0 0 0 6 .18.18.18 0 0 1 .18-.18h1.63a.19.19 0 0 1 .18.12l.01.07A5.11 5.11 0 0 1 8.6 14Z" fill="#0E1D51"/><path d="M10.18 4c-.05 0-.1.02-.13.05a.18.18 0 0 0-.05.13v1.64c0 .05.02.1.05.13.03.03.08.05.13.05H12v1.82a.19.19 0 0 0 .05.13.18.18 0 0 0 .13.05h1.64c.05 0 .1-.02.13-.05a.18.18 0 0 0 .05-.13V4h-3.82Z" fill="url(#ak02ubab1)"/><defs><linearGradient id="ak02ubab1" x1="9.77" y1="6.17" x2="13.97" y2="6.17" gradientUnits="userSpaceOnUse"><stop stop-color="#7B7CF2"/><stop offset="1" stop-color="#2DCAED"/></linearGradient></defs></svg>