<!-- by TradingView --><svg xmlns="http://www.w3.org/2000/svg" width="18" height="18"><path fill="#F0F3FA" d="M0 0h18v18H0z"/><path d="M6.65 5.13v-.26c0-.5.31-.87 1.02-.87.72 0 1.02.37 1.02.87v.26c0 .49-.3.86-1.02.86-.7 0-1.02-.37-1.02-.86zm2.66 0v-.26c0-.5.3-.87 1.02-.87.7 0 1.01.37 1.01.87v.26c0 .49-.3.86-1.01.86S9.3 5.62 9.3 5.13zm2.65 2.4v.27c0 .5.3.86 1.02.86.71 0 1.02-.37 1.02-.86v-.27c0-.5-.31-.86-1.02-.86-.7 0-1.02.37-1.02.86zm0 2.67v.27c0 .5.3.86 1.02.86.71 0 1.02-.37 1.02-.86v-.27c0-.49-.31-.86-1.02-.86-.7 0-1.02.37-1.02.86zm-2.65 2.68v.25c0 .5.3.87 1.02.87.7 0 1.01-.37 1.01-.87v-.25c0-.5-.3-.87-1.01-.87-.72 0-1.02.37-1.02.87zm0-2.41v-.27c0-.49.3-.86 1.02-.86.7 0 1.01.37 1.01.86v.27c0 .5-.3.86-1.01.86s-1.02-.37-1.02-.86zm0-2.94v.27c0 .5.3.86 1.02.86.7 0 1.01-.37 1.01-.86v-.27c0-.5-.3-.86-1.01-.86-.72 0-1.02.37-1.02.86zm-2.66 5.35v.25c0 .5.31.87 1.02.87s1.02-.37 1.02-.87v-.25c0-.5-.3-.87-1.02-.87-.7 0-1.02.37-1.02.87zm0-2.41v-.27c0-.49.31-.86 1.02-.86.72 0 1.02.37 1.02.86v.27c0 .5-.3.86-1.02.86-.7 0-1.02-.37-1.02-.86zm0-2.94v.27c0 .5.31.86 1.02.86S8.7 8.29 8.7 7.8v-.27c0-.5-.3-.86-1.02-.86-.7 0-1.02.37-1.02.86zM4 10.47v-.27c0-.49.3-.86 1.02-.86.7 0 1.02.37 1.02.86v.27c0 .5-.31.86-1.02.86-.72 0-1.02-.37-1.02-.86zm0-2.94v.27c0 .5.3.86 1.02.86.7 0 1.02-.37 1.02-.86v-.27c0-.5-.31-.86-1.02-.86S4 7.04 4 7.53z" fill="#00D1AF"/></svg>