<!-- by TradingView --><svg xmlns="http://www.w3.org/2000/svg" width="18" height="18"><path fill="#F0F3FA" d="M0 0h18v18H0z"/><path d="M11.81 12.01a4.5 4.5 0 001.69-3.4 2.73 2.73 0 00-2.16-4.3c-.18 0-.36.03-.54.06a4.48 4.48 0 00-6.2 3.16 2.72 2.72 0 001.43 4.35c.35.3.75.56 1.18.75a.75.75 0 00.03.75A2.49 2.49 0 0011.8 12z" fill="#EE1A20"/><path d="M13.69 6.86c0 1.18-.9 2.14-2.03 2.23v-.64c.79-.08 1.4-.76 1.4-1.59 0-.88-.7-1.59-1.56-1.59-.86 0-1.56.71-1.56 1.6 0 .59.31 1.1.78 1.37v.7c-.3-.11-.56-.29-.78-.52v1.94H9.3V6.87a2.2 2.2 0 012.19-2.23c1.2 0 2.19 1 2.19 2.22zM10.87 9v.59a1.72 1.72 0 01-2.68 1.43 2.37 2.37 0 00.8-1.93H9V5.6h-.63v2.03c-.22-.24-.49-.43-.79-.57v.72a1.762 1.762 0 01.18 2.82 1.72 1.72 0 01-.32-1.1V6.54H6.8v2.9a2.47 2.47 0 00.4 1.47 1.73 1.73 0 01-2.28-1.66c0-.97.78-1.75 1.73-1.75v-.64A2.35 2.35 0 004.3 9.23a2.35 2.35 0 003.32 2.15 2.31 2.31 0 003.23-.17v.55l.02.19-.01.16v.05c-.1.78-.76 1.39-1.56 1.39-.7 0-1.3-.48-1.5-1.13l-.47.5c.36.75 1.1 1.26 1.97 1.26 1.21 0 2.19-1 2.19-2.23V7.17h-.63V9h-.03.03z" fill="#FFFCFF"/></svg>