<!-- by TradingView --><svg width="18" height="18" viewBox="0 0 18 18" xmlns="http://www.w3.org/2000/svg"><path fill="#F550EA" d="M0 0h18v18H0z"/><path d="M12.64 5.4c.74.71 1.2 1.58 1.36 2.6h-2.04A2.9 2.9 0 0 0 9 5.67c-.92 0-1.66.3-2.23.9-.36.38-.6.9-.73 1.43H4a4.53 4.53 0 0 1 1.36-2.6A4.98 4.98 0 0 1 9 4c1.47 0 2.68.46 3.63 1.4Zm-7.28 7.2A4.62 4.62 0 0 1 4 10h2.04c.13.53.37 1.05.73 1.44.57.6 1.31.9 2.24.9A2.9 2.9 0 0 0 11.96 10H14a4.62 4.62 0 0 1-1.36 2.6A4.97 4.97 0 0 1 9.01 14c-1.49 0-2.7-.46-3.65-1.4Z" fill="#fff"/></svg>