<!-- by TradingView --><svg width="18" height="18" viewBox="0 0 18 18" xmlns="http://www.w3.org/2000/svg"><path fill="#0561F3" d="M0 0h18v18H0z"/><path d="M8.65 12V9.17h.7v3.26L6.68 14l-2.5-1.47.34-.62 2.16 1.26 1.97-1.16Z" fill="#fff"/><path d="M6.68 5 9 6.37 11.33 5 14 6.58V9.7l-2.67 1.58L9 9.9l-2.32 1.38L4 9.7V6.58L6.68 5Zm2.67 4.28 1.98 1.17 1.97-1.17V7l-1.97-1.16-1.98 1.16v2.3ZM8.33 6.8l-1.65-.97-1.66.97 1.65 1.08L8.33 6.8Zm-2 1.7L4.7 7.44v1.84l1.63.96V8.5Zm.7 1.75 1.62-.97V7.44L7.02 8.5v1.75Z" fill="#fff"/></svg>