<!-- by TradingView --><svg xmlns="http://www.w3.org/2000/svg" width="18" height="18"><path fill="#FFF700" d="M0 0h18v18H0z"/><path fill-rule="evenodd" d="M8.1 5.79a.94.94 0 01.37-.76c.04-.01.12 0 .12.18 0 .17.4.53.6.69.03.03.14.08.33 0a2.58 2.58 0 00-.5-.38c.27-.24 1-.57 1.91.06l.1-.1a1.83 1.83 0 00-.46-.27c.03-.14.1-.43.09-.5-.01-.08.17.06.22.12l.4.46 2.16-1.77a.1.1 0 01.15.14L12.1 6.04l.04.05.1.15.21.41.14.28.06.14c.06.13.1.22.13.25.03.05.05.12.05.19v.22a3 3 0 01-.06.37 3.97 3.97 0 01.32.34c.03.05.04.1.04.16v.18l-.02.35-.05 1-.12 1.28a.9.9 0 01-.14.42c0 .36-.23.47-.35.49h-1l-.33-.38c-.23-.1-.5-.24-.75-.37-.07.12-.14.3-.1.47.05.2.34.63.48.8-.09.42-.37 1.32-.76 1.66.11-.29.28-.98.03-1.45-.3-.56-.65-1.2-.33-1.85a3.94 3.94 0 01-.54-.35c-.27-.23-.46-.6-.6-1.01a5.7 5.7 0 01-.26-1.2c-.03-.3-.04-.75-.03-1.17H8.2l-.42.43-.18.2c.08.4-.01 1.82-.93 2.9-.72.83-.6 2.28-.32 2.74-.53-.27-1.65-1.18-1.9-2.34-.6-1-.62-2.25.03-3.26.18-.27.4-.45.66-.57l-.07.02a2.5 2.5 0 011.19-.75c.24-.32.9-1.06 1.84-1.05zm.34.85c-.02.53-.05 1.48 0 1.99.04.34.13.77.26 1.16.14.39.32.74.55.93.19.17.62.41 1.08.65l.68.34.53.15c.16.05.5.1.64-.03.17-.17.02-.58-.15-.96-.14-.3-.74-.36-1.02-.35-.09 0-.26-.04-.26-.07 0-.04.05-.05.07-.05 1.03.1 1.8-.15 2.06-.3a.33.33 0 00.04-.04l.01-.17c-.06-.05-.24-.02-.4.01l-.14.03a72.9 72.9 0 01-1.79.14c-.09-.02-.54-.28-.75-.4-.14 0-.46-.01-.51-.05-.05-.04-.25-.23-.24-.3 0-.04.04-.05.06-.04.06.07.2.23.3.28.1.05.39-.02.52-.06l.67-.37c.2-.1.34-.34.41-.47a.79.79 0 01.05-.08c.05-.05.08-.02.1 0a1.6 1.6 0 00-.15.39c-.01.12.15.16.23.16.19-.32.85-.4 1.16-.4.01-.02.03-.07 0-.15-.02-.1-.46-.6-.66-.82-.16-.18-.17-.5-.16-.65.02-.11.13-.34.36-.36.15-.02.29.01.38.06l-.04-.09a6.02 6.02 0 00-.3-.54l-.32.5c-.23.04-.66 0-.85-.24a.85.85 0 01-.2-.57 3.03 3.03 0 00-2.22.77zm3.96.24l.06.12.07.14c.06.12.1.23.14.28l.03.1v.2c-.02.14-.05.3-.08.39v.05l.03.03a3.7 3.7 0 01.33.34l.02.08v.17c0 .12-.02.25-.03.33l-.01.2a.1.1 0 00-.05.05l-.05.29h-.2l-.37-.45.03-.07c.1-.07.27-.27.26-.47 0-.2-.3-.5-.44-.62.16.01.46.02.47-.02.02-.06-.08-.33-.29-.35-.16-.03-.3.1-.35.17-.05-.15-.15-.48-.07-.57a3 3 0 00.03-.04c.09-.12.23-.31.47-.35zm.5 3.55l-.06-.01c-.06-.06-.27.03-.36.1-.07.07-.06.21-.05.27l.16.5c-.02.12-.03.36.02.43.03.05.08 0 .13-.07a.74.74 0 00.06-.26l.1-.96zm-1-.56c-.02 0-.04-.02-.06-.05l.02-.02.06-.11c.09-.15.15-.26.2-.25l.02-.01c.12.12.27.28.25.33-.04.07-.46.13-.5.11zm-1.7-.23c-.02-.02-.05-.07-.03-.1.03-.04.7-.49.75-.48.03 0 .07.05.12.1.04.05.1.1.12.1h.11c.14.01.35.02.37.04.02.03-.03.17-.06.24a.84.84 0 01-.57.29c-.36.02-.64-.02-.81-.2zm.34-2.97c-.7-.2-1.17.27-1.3.53.3-.3.54-.34.9-.37.36-.04.88.37.91.62.03.2-.1.34-.17.39a.76.76 0 00-1 .06c-.1.07-.14.2.5.2.65 0 .86-.49.9-.73.04-.15-.03-.5-.74-.7z"/></svg>