<!-- by TradingView --><svg width="18" height="18" viewBox="0 0 18 18" xmlns="http://www.w3.org/2000/svg"><path fill="url(#axnhmnnyq)" d="M0 0h18v18H0z"/><path d="M9.75 9.96c-.3-.1-.61-.14-.93-.13l.03-.15c.02-.06.06-.09.13-.07.22.05.46.07.72.07.03 0 .05.02.05.04v.24Z"/><path d="M12.5 8.37a.5.5 0 0 0 .13.1c-.13.19-.29.36-.3.61v.69a1.91 1.91 0 0 1-.52-.83c.29-.17.52-.36.7-.57ZM9.18 8.6c.22.2.36.43.41.7H9.02l-.03-.02v-.05l.19-.63ZM12.89 8.88c.28.35.51.73.7 1.14-.74-.08-.97-.46-.7-1.14ZM5.03 9.2c-.02.33 0 .63.07.9.02.06.08.12.17.16-.33.68-.71 1.34-1.14 1.97-.19.29-.4.52-.61.79a.03.03 0 0 0 0 .03l.01.02h.02c.27-.02.53-.08.79-.19 1.07-.45 2.13-.77 3.29-.88.05 0 .06-.03.03-.07-.33-.4-.6-.8-.85-1.23.29-.07.54-.19.77-.34.3.5.63.98.99 1.43.11.13.26.12.35-.02.3-.52.54-.98.72-1.4a.8.8 0 0 1 .14.03c.35.11.41-.55.44-.73 0-.01 0-.02.02-.03.01 0 .02 0 .02.02.03.28-.04.6.16.84l-.7 1.27c0 .03 0 .04.03.04 1.25-.09 2.47.06 3.77.21l.26.05c.1.02.12 0 .05-.08a9.48 9.48 0 0 1-1.2-1.72c.47.18.89.24 1.25.17.53.77.92 1.4 1.16 1.89.22.45.4.8.52 1.01.1.2.25.31.4.46.05.05.05.1.02.14l-.02.03-.02.02a.08.08 0 0 1-.1-.01l-1.67-1.57a.06.06 0 0 0-.06-.02c-.3.09-.58.14-.83.15-.99.05-1.98.03-2.96.04-.27 0-.53.06-.8.06-.1 0-.1.03-.04.08.16.13.34.28.27.5l-.02.03-.03.02a.37.37 0 0 1-.39-.04 28.92 28.92 0 0 1-.73-.52 4.93 4.93 0 0 0-.97.08 43.2 43.2 0 0 0-3.57.5 3.4 3.4 0 0 1-.46.06c-.15.01-.3.03-.43.07-.03.01-.05 0-.07-.01-.09-.06-.1-.14-.04-.23.14-.2.22-.33.25-.4.37-.96.72-1.75 1.05-2.35.13.11.25.12.35 0a.98.98 0 0 0 .26-.69c0-.02 0-.04-.02-.06a.1.1 0 0 0-.07-.03l-.08.07c-.02-.19.07-.36.25-.52Z" fill="#323101"/><path d="m6.78 9.33.09.02c-.02.1.04.16.18.18l.29.45-.56.3-.04-.08c.03-.03.05-.07.04-.15v-.72ZM7.37 9.53h.36l.03.01.02.02v.03l-.01.03-.26.24a1.88 1.88 0 0 0-.13-.21c-.03-.03-.03-.08 0-.12ZM9.75 9.96v.23l-1.02-.05.09-.3c.32-.02.63.02.93.12Z" fill="#323101"/><path fill-rule="evenodd" d="m11.55 8.6.8-.43c.03-.03.02-.07 0-.11-.73-.92-1.5-1.94-2.33-3.05-.3-.4-.72-.77-1.1-1.1a5.15 5.15 0 0 1-.76-.9.1.1 0 0 0-.07 0 .1.1 0 0 0-.04.01l-.01.01c-.06.04-.07.1-.04.16l.1.22v.06l-.12.22-.26.45a34.49 34.49 0 0 0-2.43 4.37c.03.02.06.03.1.03.03 0 .04.02.04.04l-.03.11c0 .03-.02.04-.05.02a.26.26 0 0 0-.1-.02.2.2 0 0 0-.06.12c.04.02.07.04.08.06.04.1.06.22.05.37 0 .24 0 .5.04.8.23-.32.4-.64.51-.95.02-.07.05-.07.07 0a1.14 1.14 0 0 0 .37.56l-.03-.44v-.33l.04-.32a.16.16 0 0 1-.1-.13c-.01-.03 0-.08.02-.14a.9.9 0 0 0 .1-.37c.07-.2.27-.28.63-.22a1.51 1.51 0 0 1 .53.2h.86l.04.01.02.02M8.1 4.11a17.11 17.11 0 0 1-1.45 3.35l.01.02.02.01h.02c.11-.02.22-.02.33-.02.1 0 .21 0 .32-.02.16-.04.31-.05.47-.07.11 0 .22-.02.33-.04a6.95 6.95 0 0 1 2.41 0c.04 0 .05-.01.03-.04l-.3-.45a7.93 7.93 0 0 1-.32-.47A163.64 163.64 0 0 0 8.3 3.72a.05.05 0 0 0-.05 0l-.02.03c-.01.06-.05.13-.08.19s-.06.11-.07.17Z" fill="#323101"/><path d="M8.42 7.93a.06.06 0 0 1 .01.03L8.42 8l-.77 1.22c.17.02.32.06.44.13l.04.06c.08.33-.06.54-.33.77.18.06.36.05.54-.04.01-.46.1-.9.28-1.34a.6.6 0 0 0-.29-.03.04.04 0 0 1-.02-.01.03.03 0 0 1 0-.04l.28-.39.02-.02a.05.05 0 0 1 .05 0l.01.02.05.04a.1.1 0 0 0 .08-.01l.14-.3c-.05-.03-.07-.06-.08-.1a.14.14 0 0 1 0-.02V7.9l.03-.02.22-.07c-.06-.04-.08-.1-.05-.21.01-.03.03-.04.05-.05a.34.34 0 0 1 .38.07l.23.2.85-.1c.08-.09.16-.1.22-.02.19.2.18.65.18.97v.22c0 .04.02.06.06.05.06 0 .09-.03.1-.07l.14-.56V8.3l.03.01.25.3" fill="#323101"/><path d="M9.72 7.83a3 3 0 0 1 .5 1.45c0 .05.03.06.06.01a.27.27 0 0 0 .04-.12c.06-.48.15-.96.25-1.44.08-.09.16-.1.22-.02.24.26.17.88.17 1.19 0 .04.03.06.07.05.06 0 .09-.03.1-.07l.42-.27.8-.44c.09.03.14.1.15.2-.17.21-.4.4-.7.57l-.62.4h-.01v.03l.01.01c.37.21.73.44 1.08.7.12.08.17.18.14.3 0 .02 0 .02-.02.03a.08.08 0 0 1-.05.03h-.03c-.6-.17-1.04-.5-1.3-.97a.05.05 0 0 0-.03-.02h-.03c-.03.01-.05.03-.05.07 0 .23-.04.48-.1.73-.03.16-.15.38-.37.25-.2-.24-.13-.56-.16-.84 0-.01 0-.02-.02-.02a.03.03 0 0 0-.02.03c-.03.18-.09.84-.44.73a.8.8 0 0 0-.14-.03.46.46 0 0 0 .1-.18l.01-.23v-.24c0-.02-.02-.04-.05-.04-.26 0-.5-.02-.72-.07-.07-.02-.11 0-.13.07l-.03.15-.09.31-.1.18a.12.12 0 0 1-.04.04.14.14 0 0 1-.18-.03.45.45 0 0 1-.07-.2c.01-.45.1-.9.28-1.33l.18-.44.14-.3.12-.13.02-.02a.07.07 0 0 1 .07.01l.02.03c.06.23.06.45 0 .65l-.19.63a.06.06 0 0 0 .01.05l.03.02h.67c.03-.01.05-.03.05-.05A2.98 2.98 0 0 0 9.2 7.7a.04.04 0 0 0-.04 0 .25.25 0 0 0-.05.1c-.06-.03-.08-.1-.05-.2.01-.03.03-.04.05-.05a.34.34 0 0 1 .38.07l.23.2ZM7.5 7.9c.15.12.24.21.28.27.2.34-.1.74-.36 1-.05.04-.04.06.04.06l.2-.01c.16.02.3.06.43.13l.04.06c.08.33-.06.54-.33.77l-.22.18c-.23.15-.48.27-.77.34a.59.59 0 0 1-.33-.08c-.08-.05-.1-.11-.08-.2 0-.02.02-.04.05-.04.11-.02.22-.05.33-.1l.56-.3a.61.61 0 0 0 .17-.12l.26-.24.01-.03v-.03l-.02-.02h-.03l-.36-.01h-.32c-.14-.02-.2-.08-.18-.18.1-.14.17-.24.3-.37.15-.16.45-.5.26-.7A.91.91 0 0 0 6.97 8c-.19-.04-.4-.07-.63-.09.07-.2.27-.28.63-.22.2.04.38.1.53.2Z" fill="#fff"/><path d="M12.89 8.88c-.27.68-.04 1.06.7 1.14l.74-.07a.18.18 0 0 1 .13.03l.04.06.02.06c0 .24-.42.3-.64.34-.37.07-.78.01-1.25-.17l-.3-.5v-.69c.01-.25.16-.42.3-.62.2-.23.44-.42.7-.57.21-.11.47-.13.5.15.02.08 0 .13-.06.17-.07.04-.08.03-.04-.03s.05-.1.03-.12a.07.07 0 0 0-.1 0c-.31.25-.57.53-.77.82ZM4.78 9.72l.08-.07a.1.1 0 0 1 .07.03l.02.06c0 .28-.09.5-.26.7-.1.1-.22.1-.35 0-.1-.14-.14-.25-.14-.34l-.01-.64c0-.08-.03-.09-.09-.02-.25.3-.45.66-.57 1.06-.03.07-.08.1-.16.07a.12.12 0 0 1-.05-.03.1.1 0 0 1-.03-.06c-.02-.22-.01-.42.02-.61l.2-1.36a1.04 1.04 0 0 0-.06-.5l.01-.02.01-.01.02-.01c.53-.1.4 1.07.36 1.28 0 .05 0 .06.04.02.11-.13.34-.2.47-.05.18.2.14.56.14.8 0 .06.02.11.06.15a.04.04 0 0 0 .05 0l.01-.02.16-.43ZM6.78 9.33v.72c0 .08 0 .12-.04.15-.16.08-.26.05-.3-.08-.07-.18-.1-.34-.13-.47l-.03-.44v-.33l.04-.32c0-.13.03-.25.1-.36 0-.02.03-.03.05-.02.1.03.16.1.19.2.08.32.12.64.12.95ZM5.29 8.5c.03.03.06.04.1.04.03 0 .04.02.03.04l-.02.11c0 .03-.02.04-.05.02a6.82 6.82 0 0 1-.64-.18c-.08-.02-.1-.06-.05-.11a.12.12 0 0 1 .1-.03l.53.12ZM5.19 8.81c.04.02.07.04.08.06.04.1.06.23.05.37 0 .24 0 .5.04.8a.45.45 0 0 1-.09.22c-.1-.04-.15-.1-.17-.17-.07-.26-.1-.56-.07-.9-.04-.28.02-.4.16-.38Z" fill="#fff"/><defs><linearGradient id="axnhmnnyq" x1="3.35" y1="3.12" x2="21.9" y2="24.43" gradientUnits="userSpaceOnUse"><stop stop-color="#1A1E21"/><stop offset="1" stop-color="#06060A"/></linearGradient></defs></svg>