<!-- by TradingView --><svg width="18" height="18" viewBox="0 0 18 18" xmlns="http://www.w3.org/2000/svg"><path fill="#BE3746" d="M0 0h18v18H0z"/><path fill-rule="evenodd" d="M3.05 13.06c-.09.17-.04.26 0 .28l.46-.06.3-.05c2.53-.44 4.25-.56 4.8-.56l.78.56c.05.03.26 0 .32-.1s-.01-.23-.06-.26c-.04-.02-.19-.2-.26-.29.57-.02 1.96-.05 3-.04a4.9 4.9 0 0 0 1.75-.22c.46.48 1.44 1.49 1.66 1.61.22.13.21.05.19 0a93.38 93.38 0 0 0-3.28-5.27c-1.1-1.53-3-3.95-3.27-4.26-.23-.27-.82-.86-1.04-1.07a18.2 18.2 0 0 1-.07-.08l-.05-.05c-.06-.07-.15-.18-.22-.2-.1-.02-.14.1-.11.19.02.07.14.19.2.24-.5.77-1.62 2.53-2.08 3.45l-.24.47a116.68 116.68 0 0 0-2.74 5.63l-.04.08Zm4.29-7.23-.72 1.61a22.2 22.2 0 0 1 3.96-.15l-2.3-3.56c-.11.23-.55 1.2-.94 2.1ZM4.66 11.4c.2-.35.9-1.69 1.23-2.3.11.28 1.22 2.01 1.76 2.85a8.53 8.53 0 0 0-2.82.62c-.7.32-1.36.48-1.34.36 0-.05.19-.27.4-.53.29-.34.63-.75.77-1ZM6.3 8.48l.22-.59c.4.02 1.37.06 1.95.05h.01l-.08.33c-.04.17-.43.65-.7.98l-.25.32c-.03.08.05.16.09.2l.01.01c.1.03.2-.02.24-.05l.3-.42.37.52c-.44.04-.81.14-.96.2a7.7 7.7 0 0 0-1.2-1.55Zm2.55 1.34c.45 0 .92.05 1.12.08l.36-.8c.17-.41.56-.95.74-1.17l-.16-.17-2 .14.24.45.14.27c0 .02.37.54.55.8.05.1.1.31-.09.32-.18.01-.35-.3-.42-.46l-.48.54Zm-.06 1.99c-.35-.37-.88-1.18-1.1-1.53a8.56 8.56 0 0 1 2.1-.05l-.9 1.58h-.1Zm1-.05c.44-.69 1.37-2.33 1.54-3.4l2.6 3.63c-.58-.16-2.23-.42-4.14-.23Zm-1.41-3 .32-.43.38.5-.7-.07Zm.12.4.15.42.31-.44-.46.03Z" fill="#C65664"/><path d="M10.94 6.32c.09.7-1.17 1.86-1.48 2.5-.1-.11-.25-1.56-.33-1.85-.06-.23-.27-.93-.61-.88-.44.06-.53 1.06-.52 2.02.01.74.08 1.46.1 1.72.07.47.08 2.2.88 2.1.7-.08.47-1.37.49-1.84.15-.07 1.02-.3 1.26-.34.22-.08.78-.16 1.05-.14-.09.2-.93.96-1.17 1.2-.48.5-1.1 1.04-1.53 1.58-.08.1-.1.2-.1.28.01.18.18.3.31.32.46.08 1.27-.48 1.58-.71.72-.52 1.2-1.22 1.75-1.87.27-.32.28-.32.38-.76-.11-.64-.21-1.1-1.13-1.1-.37 0-.76.21-1.27.3l1-1.6c.18-.3.32-.54.32-.98a.93.93 0 0 0-.46-.8A3.86 3.86 0 0 0 9.59 5C9.16 5 8 5.12 8 5.75c.14.05.65-.1.9-.05.5.15 1.76.25 2.04.62Z" fill="#fff"/><path d="M7.97 12.8c.53-.04 1.1-1.52 1.02-2.05-.02-.14-.1-.22-.32-.18a22.5 22.5 0 0 1-.66 1.58c-.2-.72-.04-1.63-.25-2.36-.09-.31-.28-.63-.65-.62-.4 0-.56.34-.77.47.02-.38.1-.77.12-1.18C6.55 6.67 6.04 6 5.7 6c-.15 0-.26.13-.26.35.1.09.04.04.15.08-.09.99-.12 1.9-.25 2.88-.07.51-.49 3.07-.29 3.52a.3.3 0 0 0 .48.08c.2-.2.27-.82.4-1.12.34-.74.52-1.1.96-1.71.1-.14.09-.14.19-.18.1.33.03 1.27.06 1.7.05.48.26 1.23.83 1.2Z" fill="#fff"/></svg>