<!-- by TradingView --><svg width="18" height="18" viewBox="0 0 18 18" xmlns="http://www.w3.org/2000/svg"><path fill="#EBE5D9" d="M0 0h18v18H0z"/><path fill-rule="evenodd" d="M3.05 13.06c-.09.17-.04.26 0 .28l.46-.06.3-.05c2.53-.44 4.25-.56 4.8-.56l.78.56c.05.03.26 0 .32-.1s-.01-.23-.06-.26c-.04-.02-.19-.2-.26-.29.57-.02 1.96-.05 3-.04a4.9 4.9 0 0 0 1.75-.22c.46.48 1.44 1.49 1.66 1.61.22.13.21.05.19 0a93.38 93.38 0 0 0-3.28-5.27c-1.1-1.53-3-3.95-3.27-4.26-.23-.27-.82-.86-1.04-1.07a18.2 18.2 0 0 1-.07-.08l-.05-.05c-.06-.07-.15-.18-.22-.2-.1-.02-.14.1-.11.19.02.07.14.19.2.24-.5.77-1.62 2.53-2.08 3.45l-.24.47a116.68 116.68 0 0 0-2.74 5.63l-.04.08Zm4.29-7.23-.72 1.61a22.2 22.2 0 0 1 3.96-.15l-2.3-3.56c-.11.23-.55 1.2-.94 2.1ZM4.66 11.4c.2-.35.9-1.69 1.23-2.3.11.28 1.22 2.01 1.76 2.85a8.53 8.53 0 0 0-2.82.62c-.7.32-1.36.48-1.34.36 0-.05.19-.27.4-.53.29-.34.63-.75.77-1ZM6.3 8.48l.22-.59c.4.02 1.37.06 1.95.05h.01l-.08.33c-.04.17-.43.65-.7.98l-.25.32c-.03.08.05.16.09.2l.01.01c.1.03.2-.02.24-.05l.3-.42.37.52c-.44.04-.81.14-.96.2a7.7 7.7 0 0 0-1.2-1.55Zm2.55 1.34c.45 0 .92.05 1.12.08l.36-.8c.17-.41.56-.95.74-1.17l-.16-.17-2 .14.24.45.14.27c0 .02.37.54.55.8.05.1.1.31-.09.32-.18.01-.35-.3-.42-.46l-.48.54Zm-.06 1.99c-.35-.37-.88-1.18-1.1-1.53a8.56 8.56 0 0 1 2.1-.05l-.9 1.58h-.1Zm1-.05c.44-.69 1.37-2.33 1.54-3.4l2.6 3.63c-.58-.16-2.23-.42-4.14-.23Zm-1.41-3 .32-.43.38.5-.7-.07Zm.12.4.15.42.31-.44-.46.03Z" fill="#C4BBAD"/><path d="M9.27 6.4c-.26.22-.18.28-.11.28.26 0 1.36-.08 1.87-.13-.54 1.5-1.68 4.63-1.87 5.2-.24.7 0 1.18.36 1.18.29 0 .52-.35.6-.53l.68-1.83c.41.05 1.22.1 1.65.1.4 0 .95-.24 1.47-.47.22-.1.44-.2.64-.26.64-.24.44-.57.28-.64a5.48 5.48 0 0 0-1.4 0c-.33.04-1.07.26-1.58.47-.26.11-.6.19-.86.24l.03-.09a56.8 56.8 0 0 1 1.8-4.17c.23-.3.01-.75-.3-.75-.26 0-.5.08-.6.13-.78.32-2.4 1.03-2.66 1.26Zm-4.93 6.53c-.13.13-.38.18-.33-.63.02-.4.14-1.26.27-2.17.2-1.35.41-2.82.33-3.08a.89.89 0 0 0-.27-.4c-.1-.08-.15-.13 0-.2.27-.15 1.15.07 1.1.94l-.24 2.7c.27-.28.9-.84 1.23-.84.4 0 .58.35.58 1.05 0 .16 0 .34-.02.52-.03.6-.07 1.23.28 1.23.3 0 .56-.61.72-1.01.08-.19.14-.33.18-.35.08-.03.05.2.02.4l-.02.25c0 .17-.06 1.4-.9 1.4-.84 0-.84-.76-.84-1.33v-.35c.03-.54.05-1.15-.31-.97-.45.21-1.1 1.46-1.2 1.84-.1.37-.42.92-.58 1Z"/></svg>