<!-- by TradingView --><svg width="18" height="18" viewBox="0 0 18 18" xmlns="http://www.w3.org/2000/svg"><path fill="url(#asghhylp1)" d="M0 0h18v18H0z"/><path opacity=".5" fill-rule="evenodd" d="M3.05 13.06c-.09.17-.04.26 0 .28l.46-.06.3-.05c2.53-.44 4.25-.56 4.8-.56l.78.56c.05.03.26 0 .32-.1s-.01-.23-.06-.26c-.04-.02-.19-.2-.26-.29.57-.02 1.96-.05 3-.04a4.9 4.9 0 0 0 1.75-.22c.46.48 1.44 1.49 1.66 1.61.22.13.21.05.19 0a93.38 93.38 0 0 0-3.28-5.27c-1.1-1.53-3-3.95-3.27-4.26-.23-.27-.82-.86-1.04-1.07a18.2 18.2 0 0 1-.07-.08l-.05-.05c-.06-.07-.15-.18-.22-.2-.1-.02-.14.1-.11.19.02.07.14.19.2.24-.5.77-1.62 2.53-2.08 3.45l-.24.47a116.68 116.68 0 0 0-2.74 5.63l-.04.08Zm4.29-7.23-.72 1.61a22.2 22.2 0 0 1 3.96-.15l-2.3-3.56c-.11.23-.55 1.2-.94 2.1ZM4.66 11.4c.2-.35.9-1.69 1.23-2.3.11.28 1.22 2.01 1.76 2.85a8.53 8.53 0 0 0-2.82.62c-.7.32-1.36.48-1.34.36 0-.05.19-.27.4-.53.29-.34.63-.75.77-1ZM6.3 8.48l.22-.59c.4.02 1.37.06 1.95.05h.01l-.08.33c-.04.17-.43.65-.7.98l-.25.32c-.03.08.05.16.09.2l.01.01c.1.03.2-.02.24-.05l.3-.42.37.52c-.44.04-.81.14-.96.2a7.7 7.7 0 0 0-1.2-1.55Zm2.55 1.34c.45 0 .92.05 1.12.08l.36-.8c.17-.41.56-.95.74-1.17l-.16-.17-2 .14.24.45.14.27c0 .02.37.54.55.8.05.1.1.31-.09.32-.18.01-.35-.3-.42-.46l-.48.54Zm-.06 1.99c-.35-.37-.88-1.18-1.1-1.53a8.56 8.56 0 0 1 2.1-.05l-.9 1.58h-.1Zm1-.05c.44-.69 1.37-2.33 1.54-3.4l2.6 3.63c-.58-.16-2.23-.42-4.14-.23Zm-1.41-3 .32-.43.38.5-.7-.07Zm.12.4.15.42.31-.44-.46.03Z" fill="#fff"/><path d="M5.03 11.03c-.12.56.15.88.3.97.3 0 .53-.49.8-1.23.22-.58.5-1.54 1.1-1.71.04.98-.32 2.94.64 2.94.5 0 .68-.51.86-.97.19-.46.42-1.17.14-1.17-.3 0-.18.09-.64.97-.37.7-.35.3-.3 0V9.59c0-.55-.08-1.3-.55-1.3-.38 0-.78.3-.93.46.12-.27.36-1.1.37-2.23.01-1.43-.47-1.53-.69-1.52-.21.01-.27.25-.18.58.08.33 0 .83-.09 1.67-.09.85-.67 3.08-.83 3.78Z" fill="#fff"/><path d="M13.5 11.25c-.22 0-.27-.4-.26-.6 0-.17-.02-.57-.1-.85-.1-.34-.13.17-1.27 1.45C10.73 12.52 9 12.32 9 9.57 9 6.83 11.9 5 12.69 5c.78 0 .81.41.81.76 0 .34-.68.97-1.01.84-.33-.13.3-.34.52-.66.23-.31.08-.41-.52-.18-.6.23-1.97 2.08-2.28 3.16-.31 1.07.36 2.23.49 2.13.13-.1 1.7-2.06 2.54-2.63.85-.58.77.44.75.95-.02.52-.21 1.88-.49 1.88Z" fill="#fff"/><defs><linearGradient id="asghhylp1" x1="0" y1="9" x2="18" y2="9" gradientUnits="userSpaceOnUse"><stop offset="0" stop-color="#3BC85E"/><stop offset=".96" stop-color="#30CEB1"/></linearGradient></defs></svg>