<!-- by TradingView --><svg width="18" height="18" viewBox="0 0 18 18" xmlns="http://www.w3.org/2000/svg"><path fill="#191434" d="M0 0h18v18H0z"/><path fill-rule="evenodd" d="M3.05 13.06c-.09.17-.04.26 0 .28l.46-.06.3-.05c2.53-.44 4.25-.56 4.8-.56l.78.56c.05.03.26 0 .32-.1s-.01-.23-.06-.26c-.04-.02-.19-.2-.26-.29.57-.02 1.96-.05 3-.04a4.9 4.9 0 0 0 1.75-.22c.46.48 1.44 1.49 1.66 1.61.22.13.21.05.19 0a93.38 93.38 0 0 0-3.28-5.27c-1.1-1.53-3-3.95-3.27-4.26-.23-.27-.82-.86-1.04-1.07a18.2 18.2 0 0 1-.07-.08l-.05-.05c-.06-.07-.15-.18-.22-.2-.1-.02-.14.1-.11.19.02.07.14.19.2.24-.5.77-1.62 2.53-2.08 3.45l-.24.47a116.68 116.68 0 0 0-2.74 5.63l-.04.08Zm4.29-7.23-.72 1.61a22.2 22.2 0 0 1 3.96-.15l-2.3-3.56c-.11.23-.55 1.2-.94 2.1ZM4.66 11.4c.2-.35.9-1.69 1.23-2.3.11.28 1.22 2.01 1.76 2.85a8.53 8.53 0 0 0-2.82.62c-.7.32-1.36.48-1.34.36 0-.05.19-.27.4-.53.29-.34.63-.75.77-1ZM6.3 8.48l.22-.59c.4.02 1.37.06 1.95.05h.01l-.08.33c-.04.17-.43.65-.7.98l-.25.32c-.03.08.05.16.09.2l.01.01c.1.03.2-.02.24-.05l.3-.42.37.52c-.44.04-.81.14-.96.2a7.7 7.7 0 0 0-1.2-1.55Zm2.55 1.34c.45 0 .92.05 1.12.08l.36-.8c.17-.41.56-.95.74-1.17l-.16-.17-2 .14.24.45.14.27c0 .02.37.54.55.8.05.1.1.31-.09.32-.18.01-.35-.3-.42-.46l-.48.54Zm-.06 1.99c-.35-.37-.88-1.18-1.1-1.53a8.56 8.56 0 0 1 2.1-.05l-.9 1.58h-.1Zm1-.05c.44-.69 1.37-2.33 1.54-3.4l2.6 3.63c-.58-.16-2.23-.42-4.14-.23Zm-1.41-3 .32-.43.38.5-.7-.07Zm.12.4.15.42.31-.44-.46.03Z" fill="#32385C"/><path d="m15.86 9.08.12-.29c.08-.44-.1-.79-.29-1.17l-.03-.06c-.06-.11-.14-.2-.23-.27l-.13-.12A4.15 4.15 0 0 0 12.84 6c-.47-.04-.75.07-1.26.26a.15.15 0 0 0-.07.06l-.21.31v.21c.07.18.13.18.2 0v-.23c.33-.05.66-.06 1-.04.32.03.63.11.93.25.72.35 1.74 1.14 1.52 1.95-.21.75-1.53 1.83-2.2 2.24a3.04 3.04 0 0 0-.57.4l-.2.03a.12.12 0 0 0-.09.06.63.63 0 0 0-.08.2c.3.65 1.37.04 1.87-.25l.14-.08c.08-.04.16-.1.24-.17l.22-.16c.15-.1.4-.33.79-.73l.42-.52.37-.72Zm-5.76-1.7-1.43-.27h-.06c-.18 0-.4 0-.42.21 0 .03.01.06.04.07.27.18.52.28.73.3.23.03.4.07.5.14.28.16.44.26.5.32.3.3.37.62.21.96a1.41 1.41 0 0 1-.85.8c-.37.15-.99.39-1.2.2-.17-.1-.27-.2-.27-.4-.01-.58.06-1.13.13-1.7l-.02-.28c0-.03-.02-.04-.05-.05-.46-.11-.56.49-.62.9l-.02.1-.07.61c-.05.3-.01.61.1.95l.03.06.39.35c.71.24 1.23.14 1.95-.07.13-.12.28-.21.45-.28a.2.2 0 0 0 .08-.05l.17-.18c.11-.1.22-.2.3-.35 0-.04.02-.07.04-.1.14-.28.28-.54.32-.88 0-.44-.21-.85-.57-1.09a5.15 5.15 0 0 1-.36-.27Zm2.22.72.05.56.25 1.76v.14c-.01.15-.01.34-.18.38-.03.01-.05 0-.08-.02l-.17-.16c-.1-.1-.2-.18-.26-.32-.33-.73-.31-1.4-.29-2.13l.01-.3c0-.2.07-.35.23-.47a.08.08 0 0 1 .1 0c.22.12.33.3.34.56ZM4.68 9.21a.74.74 0 0 0-.5-.04.77.77 0 0 0-.25.09c-.02 0-.03 0-.03-.02.02-.4.03-.79.02-1.18a.8.8 0 0 0-.41-.7.18.18 0 0 0-.13-.02.18.18 0 0 0-.06.02.16.16 0 0 0-.05.04c-.06.1-.05.15.04.19.03.01.05.04.05.08-.02.4-.1.96-.24 1.67A9.92 9.92 0 0 0 3 11.16c.13.12.26.1.4-.06.07-.1.1-.21.12-.33a.9.9 0 0 1 .14-.38c.12-.16.2-.28.24-.36a1.81 1.81 0 0 1 .37-.45h.03s.02 0 .02.02l.01.02.01.32c0 .32 0 .64.18.94.12.22.31.28.58.2a.15.15 0 0 0 .08-.07l.15-.19c.1-.14.22-.27.25-.44a1.5 1.5 0 0 0 0-.47l-.01-.02a.05.05 0 0 0-.05 0c-.26.09-.35.45-.4.69H5.1l-.02.06c-.02.07-.06.1-.12.07a.08.08 0 0 1-.04-.02.07.07 0 0 1-.01-.04L4.8 9.53l-.06-.25a.1.1 0 0 0-.06-.07ZM6.1 8.18a2.5 2.5 0 0 0-.77-.12.15.15 0 0 0-.07-.02.1.1 0 0 0-.06.02.08.08 0 0 0-.03.04v.1c.01.03.04.05.08.06.17.01.31.07.45.16l.05.01.54.06c.1.03.16 0 .16-.09 0-.06-.03-.1-.1-.12l-.25-.1Zm.1 2.27-.05.22a.1.1 0 0 1-.03.04.12.12 0 0 1-.05.03.13.13 0 0 1-.1-.01c-.27-.18-.27-.68-.27-1.05V9.4l-.03-.54c0-.08.03-.14.11-.18a.22.22 0 0 1 .16-.02c.04.01.07.05.1.1.2.41.18.82.17 1.34v.35Z" fill="#fff"/></svg>