<!-- by TradingView --><svg width="18" height="18" viewBox="0 0 18 18" xmlns="http://www.w3.org/2000/svg"><path fill="#181B1E" d="M0 0h18v18H0z"/><path d="M14 12.96 9 4 4 13a5.34 5.34 0 0 1 2.1-.55c.44 0 .86.08 1.18.15.2.04.36.07.46.07.85 0 1.56-.54 1.91-.81.11-.09.19-.14.22-.14.22 0 .32.16.42.32.1.16.19.32.4.32.07 0 .13-.06.2-.14.07-.08.16-.18.31-.18.35 0 .59.4.68.63.03-.1.14-.31.36-.31.16 0 .26.16.35.29.06.09.1.17.17.17.05 0 .08-.02.11-.04.07-.05.17-.1.46-.1.26 0 .49.13.67.28Z" fill="url(#au4xmfl3d)"/><path d="M14 12.96 9.01 4l-5 8.99a4.99 4.99 0 0 1 2.1-.63c.43 0 .85.12 1.17.22.2.05.36.1.46.1.85 0 1.56-.55 1.91-.82.11-.09.19-.14.22-.14.22 0 .32.16.42.32.1.16.19.32.4.32.07 0 .13-.06.2-.14.07-.08.16-.18.31-.18.35 0 .59.41.68.64.03-.11.14-.32.36-.32.16 0 .26.16.35.29.06.09.1.17.17.17a.2.2 0 0 0 .11-.04c.07-.04.17-.1.46-.1.26 0 .5.13.67.28Z" fill="url(#bu4xmfl3d)"/><defs><linearGradient id="au4xmfl3d" x1="9" y1="4" x2="9" y2="13" gradientUnits="userSpaceOnUse"><stop stop-color="#B4386C"/><stop offset="1" stop-color="#F87056"/></linearGradient><linearGradient id="bu4xmfl3d" x1="10.03" y1="10.72" x2="13.18" y2="12.41" gradientUnits="userSpaceOnUse"><stop stop-color="#FDC570" stop-opacity="0"/><stop offset="1" stop-color="#FEC574"/></linearGradient></defs></svg>