<!-- by TradingView --><svg width="18" height="18" viewBox="0 0 18 18" xmlns="http://www.w3.org/2000/svg"><path fill="url(#azaguscqn)" d="M0 0h18v18H0z"/><path d="m6.84 3.11.25.45.13.27.7 1.28.13.24.03.01a3.49 3.49 0 0 1 1.88 0L11 3.42l.22-.4.02-.02h.01l1.34.83.16.1v.02l-.36.67-.9 1.67v.04l.24.27a3.86 3.86 0 0 1 .72 1.46h2.53c.01 0 .02 0 .02.02v1.86h-3.17a.1.1 0 0 1-.06-.03l-.52-.52a.06.06 0 0 0-.05-.02h-.71v.02c-.22 1-1.22 1.5-2.1 1.08a1.52 1.52 0 0 1-.88-1.1h-1.4c-.02 0-.02.01-.02.03.33 2.67 3.33 3.66 5.07 1.72h.02l1.58 2.93a.02.02 0 0 1 0 .02l-1.5.93a.02.02 0 0 1-.03 0v-.01l-1.27-2.34h-.01l-.02-.01a3.37 3.37 0 0 1-1.87 0l-.01.01L6.78 15h-.03l-1.48-.9c-.02-.02-.03-.03-.02-.05l1.27-2.33a.03.03 0 0 0 0-.04 3.83 3.83 0 0 1-.96-1.73H3.01V8.07l.04-.01h3.13a.08.08 0 0 1 .06.03l.53.52v.01h.73l.02-.01c.4-1.68 2.59-1.67 2.96 0l.02.02h1.4a.01.01 0 0 0 .01 0V8.6c-.2-1.84-1.82-3.07-3.55-2.66a2.9 2.9 0 0 0-1.53.93L6.14 5.6l-.56-1.05-.06-.11-.27-.5v-.01l.01-.01.27-.17L6.75 3h.03l.06.1Zm2.87.97.3.05a.02.02 0 0 1 .01.03l-.3.57-.02.02h-.03a3.62 3.62 0 0 0-1.27-.01c-.05.02-.1 0-.13-.07a27.14 27.14 0 0 0-.28-.54H8a4.43 4.43 0 0 1 1.71-.05Zm-4.5 3.4c.12-.33.27-.63.45-.92l.22-.31a.05.05 0 0 0 0-.05l-.3-.56v-.01a.02.02 0 0 0-.03 0 5.45 5.45 0 0 0-1 1.85v.02h.65l.02-.03Zm7.46-1.57a5 5 0 0 1 .78 1.59h-.64l-.02-.03a4.39 4.39 0 0 0-.68-1.24l.01-.02a69.4 69.4 0 0 1 .33-.58l.22.28Zm-8.12 4.62a5.1 5.1 0 0 0 1.03 1.84l.31-.58v-.03a4.34 4.34 0 0 1-.7-1.26h-.63a.02.02 0 0 0-.01.01.02.02 0 0 0 0 .02Zm8.2.1.05-.11.02-.02h.64v.02a5.09 5.09 0 0 1-1.03 1.86l-.31-.58v-.04c.26-.34.47-.71.63-1.13ZM8.3 13.26l-.31.6a.02.02 0 0 0 0 .02 4.4 4.4 0 0 0 2.03-.02l-.31-.6-.03-.01a3.8 3.8 0 0 1-1.38.01Z" fill="#fff"/><defs><linearGradient id="azaguscqn" x1="2.2" y1="0" x2="18" y2="18" gradientUnits="userSpaceOnUse"><stop stop-color="#0F0E0C"/><stop offset=".2" stop-color="#1E3756"/><stop offset=".35" stop-color="#676A74"/><stop offset=".47" stop-color="#2C3D57"/><stop offset=".87" stop-color="#0D0B10"/></linearGradient></defs></svg>