<!-- by TradingView --><svg xmlns="http://www.w3.org/2000/svg" width="18" height="18"><path fill="url(#acawkw2vi)" d="M0 0h18v18H0z"/><path fill-rule="evenodd" d="M9 13.5c2.76 0 5-2.7 5-5.25S11.76 4.5 9 4.5 4 5.7 4 8.25a5.12 5.12 0 005 5.25zM6 9a1 1 0 00.52-.15c.75 1.18 1.6 2.54 2.45 2.55.68 0 1.91-1.68 2.47-2.57a1 1 0 10-.43-1 11.36 11.36 0 01-2.12 2.72A17.54 17.54 0 017 7.93 1 1 0 106 9z" fill="#fff"/><defs><linearGradient id="acawkw2vi" x1="3.35" y1="3.12" x2="21.9" y2="24.43" gradientUnits="userSpaceOnUse"><stop stop-color="#1A1E21"/><stop offset="1" stop-color="#06060A"/></linearGradient></defs></svg>