<!-- by TradingView --><svg width="18" height="18" viewBox="0 0 18 18" xmlns="http://www.w3.org/2000/svg"><path fill="url(#anlohq5uq)" d="M0 0h18v18H0z"/><path fill-rule="evenodd" d="m9 3 5 4.23v3.54L9 15l-5-4.05V7.23L9 3ZM4.36 7.69v2.8l1.73-1.4-1.73-1.4Zm2.01 1.63-1.9 1.54 4.35 3.54v-3.1L6.37 9.32Zm2.8 1.98v3.08l4.37-3.69-1.85-1.42-2.51 2.03Zm2.8-2.26 1.67 1.28V7.7l-1.66 1.35Zm1.57-1.73-1.85 1.5-2.51-1.94V3.62l4.36 3.7Zm-4.72-3.7v3.27L6.37 8.86 4.46 7.31l4.36-3.7ZM9 7.2l-2.35 1.9L9 10.99l2.4-1.95L9 7.2Z" fill="#FDB913"/><defs><linearGradient id="anlohq5uq" x1="3.35" y1="3.12" x2="21.9" y2="24.43" gradientUnits="userSpaceOnUse"><stop stop-color="#1A1E21"/><stop offset="1" stop-color="#06060A"/></linearGradient></defs></svg>