<!-- by TradingView --><svg xmlns="http://www.w3.org/2000/svg" width="18" height="18"><path fill="url(#aaf1ylk5e)" d="M0 0h18v18H0z"/><path d="M4 6.4c0-.41.45-1.12 1-1.4v8H4V6.4z" fill="#8799E0"/><path d="M13 5h1v4h-1V6h-.78v2.75c0 .36-.4 1-.89 1.25V5H13zM9.56 5h.88v7a2.9 2.9 0 001.86-1.02c.56-.59.7-1.28.7-1.98h1c0 .88-.3 1.98-1.01 2.73A4.59 4.59 0 0110.44 13h-.88V5zM7.54 6.82C7.02 7.44 7 8.1 7 8.7V12h.78V8.5c0-.43.4-1.2.9-1.5v6H6V8.65c.01-.78.27-1.75.87-2.45A3.82 3.82 0 019.56 5v1c-.94 0-1.5.21-2.02.82z" fill="#5A86E7"/><defs><linearGradient id="aaf1ylk5e" x1="3.35" y1="3.12" x2="21.9" y2="24.43" gradientUnits="userSpaceOnUse"><stop stop-color="#1A1E21"/><stop offset="1" stop-color="#06060A"/></linearGradient></defs></svg>