<!-- by TradingView --><svg width="18" height="18" viewBox="0 0 18 18" xmlns="http://www.w3.org/2000/svg"><path fill="#181B1E" d="M0 0h18v18H0z"/><path d="M14.97 8.89 13.22 6.1A.26.26 0 0 0 13 6H9a.26.26 0 0 0-.21.11L7.2 8.41a.12.12 0 0 1-.13.04C7.04 8.44 7 8.4 7 8.35v-.82C7 6.68 6.65 6 5.7 6H4.26c-.13 0-.25.1-.25.22v1.3c0 .6.42 1.16 1.03 1.39a.1.1 0 0 1 .07.1.1.1 0 0 1-.07.08C4.42 9.32 4 9.87 4 10.47v1.3c0 .13.11.23.25.23H5.7C6.65 12 7 11.32 7 10.47v-.83c0-.04.03-.08.08-.1h.03c.04 0 .07.02.1.05l1.58 2.3c.04.07.12.11.21.11h4c.09 0 .17-.04.21-.11l1.76-2.78a.2.2 0 0 0 .03-.1.2.2 0 0 0-.03-.12ZM11 10a1 1 0 1 1 0-2 1 1 0 0 1 0 2Z" fill="#EE99D0"/></svg>