<!-- by TradingView --><svg width="18" height="18" viewBox="0 0 18 18" xmlns="http://www.w3.org/2000/svg"><path fill="#181B1E" d="M0 0h18v18H0z"/><path fill-rule="evenodd" d="M8.2 6H6v2.4C6 10 7.53 10 8 10c.27 0 .55 0 .55.6 0 .4-.34.4-.55.4-2.98 0-3-2.1-3-2.78V5.38c0-.3.4-.4.61-.38.63.02 1.25.01 1.88 0h.93C10.97 5 11 6.77 11 8c0 .25-.15.5-.4.5-.4 0-.6-.16-.6-.57C10 6.07 9.28 6.04 8.22 6H8.2ZM10 8.5a.5.5 0 0 0-.5-.5.5.5 0 0 0-.5.5c0 .27.23.5.5.5a.5.5 0 0 0 .5-.5ZM8.5 9c.27 0 .5.23.5.5a.5.5 0 0 1-.5.5.5.5 0 0 1-.5-.5c0-.27.23-.5.5-.5ZM13 7a1 1 0 0 1 .42 1.9c-.07.56-.43 2.1-2.14 2.1H10.86s-.04 1.94-1.93 2.36c-.15.37-.51.64-.95.64-.55 0-1.01-.44-1.01-1a1.02 1.02 0 0 1 1.94-.41c.45-.2 1.09-.75 1.09-2.15a5.23 5.23 0 0 0 0-.13c0-.2.13-.3.25-.31.1 0 .18.03.2.04 0 0 1.66.7 2.23-1.1A1 1 0 0 1 13 7Zm0 .67c.18 0 .33.15.33.33 0 .18-.15.33-.33.33a.34.34 0 0 1-.33-.33c0-.18.15-.33.33-.33ZM8.32 13a.34.34 0 0 0-.34-.33c-.18 0-.32.13-.33.33a.34.34 0 0 0 .67 0Z" fill="url(#awrc0xcu4)"/><defs><linearGradient id="awrc0xcu4" x1="9.78" y1="4.58" x2="9.5" y2="14" gradientUnits="userSpaceOnUse"><stop stop-color="#F8A322"/><stop offset=".44" stop-color="#AE5172"/><stop offset=".91" stop-color="#6804BE"/></linearGradient></defs></svg>