<!-- by TradingView --><svg width="18" height="18" fill="none" xmlns="http://www.w3.org/2000/svg"><path fill="#1E0232" d="M0 0h18v18H0z"/><path fill-rule="evenodd" clip-rule="evenodd" d="M6 4H4v3h2V4zm3.5 6.5v-3h-2v3h2zm4.5.5v3h-1v-3h1zM8.5 7a1.5 1.5 0 100-3 1.5 1.5 0 000 3zm5 2a1.5 1.5 0 11-3 0 1.5 1.5 0 013 0zM12 11h-2v3h2v-3z" fill="url(#paint0_linear_1530)"/><defs><linearGradient id="paint0_linear_1530" x1="4" y1="4.77" x2="15.399" y2="13.442" gradientUnits="userSpaceOnUse"><stop stop-color="#41F9FD"/><stop offset="1" stop-color="#F72F77"/></linearGradient></defs></svg>