<!-- by TradingView --><svg width="18" height="18" viewBox="0 0 18 18" xmlns="http://www.w3.org/2000/svg"><path fill="url(#ab4tqd3ph)" d="M0 0h18v18H0z"/><path d="M4 13.7V4.3c0-.17.13-.3.3-.3h1.43c.16 0 .27.13.27.3v7.4c0 .17.16.3.32.3H9.7c.16 0 .3.13.3.3v1.4a.3.3 0 0 1-.3.3H4.3a.3.3 0 0 1-.3-.3Z" fill="url(#bb4tqd3ph)"/><path d="M14 4.3v9.4a.3.3 0 0 1-.3.3h-1.4c-.15 0-.3-.13-.3-.3V6.3c0-.16-.12-.3-.28-.3H8.3A.3.3 0 0 1 8 5.7V4.3c0-.16.14-.29.3-.29h5.4c.17 0 .3.13.3.3Z" fill="url(#cb4tqd3ph)"/><path d="M8 8.2c0-.11.09-.2.2-.2h1.6c.11 0 .2.09.2.2v1.6c0 .11-.09.2-.2.2H8.2a.2.2 0 0 1-.2-.2V8.2Z" fill="url(#db4tqd3ph)"/><defs><linearGradient id="ab4tqd3ph" x1="3.35" y1="3.12" x2="21.9" y2="24.43" gradientUnits="userSpaceOnUse"><stop stop-color="#1A1E21"/><stop offset="1" stop-color="#06060A"/></linearGradient><linearGradient id="bb4tqd3ph" x1="6.98" y1="4" x2="6.98" y2="14" gradientUnits="userSpaceOnUse"><stop stop-color="#D58A85"/><stop offset="1" stop-color="#BF6996"/></linearGradient><linearGradient id="cb4tqd3ph" x1="11.02" y1="14" x2="11.02" y2="4" gradientUnits="userSpaceOnUse"><stop stop-color="#578ECE"/><stop offset="1" stop-color="#67E2FD"/></linearGradient><linearGradient id="db4tqd3ph" x1="9" y1="8" x2="9" y2="10" gradientUnits="userSpaceOnUse"><stop stop-color="#6ABADD"/><stop offset="1" stop-color="#5CA1D8"/></linearGradient></defs></svg>