<!-- by TradingView --><svg width="18" height="18" viewBox="0 0 18 18" xmlns="http://www.w3.org/2000/svg"><path fill="#F0F3FA" d="M0 0h18v18H0z"/><path d="M15 9A6 6 0 1 1 3 9a6 6 0 0 1 12 0Z" fill="#C7D101"/><path d="m5.78 8.1-.02.02v.01l.15.03c.02 0 .02.01.01.03 0 .02-.02.03-.05.03a19.16 19.16 0 0 1-.4-.03v.01l-.09.77a.07.07 0 0 0 .05.07c.1.04.27.08.31.19l.1.24c.06.12.01.3-.04.41-.09.2-.32.22-.52.2l-.02.02c-.04.1-.05.2-.05.3 0 .1-.03.17-.08.25-.02.03-.03.03-.05 0v-.03a4.25 4.25 0 0 1-.02-.52l-.02-.02-.39-.16-.02-.04.03-.06a.07.07 0 0 0 0-.07 1.01 1.01 0 0 1-.07-.26.02.02 0 0 1 .02 0h.03v.01c.05.2.18.3.4.33.02 0 .04-.01.04-.05a4.3 4.3 0 0 1 .02-.6.07.07 0 0 0-.04-.03c-.1-.02-.2-.07-.24-.17-.06-.12-.18-.2-.17-.34.01-.07.02-.14.01-.22 0-.3.28-.45.54-.45.02 0 .03 0 .04-.03l.07-.3c0-.03.03-.04.06-.03.05.01.1.02.16.01.03 0 .04.02.04.05l-.06.3a.03.03 0 0 0 .02.03c.11.02.24.04.38.03.05 0 .05.02.01.05-.03.03-.08.03-.14.02ZM6.95 8.28a.05.05 0 0 1 .04-.01c.02 0 .03.01.02.03-.05.23-.12.45-.2.67-.08.17-.13.35-.19.54a.03.03 0 0 0 .03.03h.18a.1.1 0 0 1 .04 0c.14.06.33.04.48.04a.02.02 0 0 1 .02.01.02.02 0 0 1 0 .02c0 .02-.01.04-.03.05a.24.24 0 0 1-.11.02 13.53 13.53 0 0 0-.66.03c-.03.03 0 .08-.06.1-.01.02-.03.01-.03 0a.2.2 0 0 1-.02-.09.05.05 0 0 0-.04-.05H6.4a.1.1 0 0 1-.08-.03v-.02a.5.5 0 0 0 .2-.11l.01-.04a89 89 0 0 1 .27-1.24c.02-.1.1-.14.12-.23A.02.02 0 0 1 6.95 8h.01c.02.01.02.02.02.04l-.06.24a.02.02 0 0 0 0 .02.02.02 0 0 0 .03 0Z" fill="#E1100B"/><path d="M4.74 8.36c0-.2.24-.3.41-.32.06 0 .06.01.01.04-.14.07-.27.17-.4.3 0 0-.02 0-.02-.02Z" fill="#C7D101"/><path d="M11.8 8.39h.05v.03c-.04.23-.11.45-.2.66-.09.18-.12.37-.19.55v.01a.02.02 0 0 0 .02.01c.09.02.17-.01.26 0 .12.04.26.05.44.05.06 0 .07.01.02.05a.18.18 0 0 1-.1.04 50.58 50.58 0 0 1-.69.04l-.02.08a.02.02 0 0 1-.03.02h-.01a.05.05 0 0 1-.04-.04c0-.07-.04-.1-.1-.1-.03 0-.04-.01-.04-.03v-.03l.06-.02c.02 0 .04-.01.05-.04a.1.1 0 0 1 .05-.04.07.07 0 0 0 .05-.05l.26-1.22c.03-.12.1-.14.13-.24.01-.03.02-.03.04 0 .02.01.02.03.01.05a.73.73 0 0 0-.04.21.02.02 0 0 0 .02 0Z" fill="#E1100B"/><path d="m5.39 8.2-.02-.01-.02.01-.08.75v.02h.03l.01-.01.09-.76h-.01Z" fill="#C7D101"/><path d="M7.81 8.36c0-.04-.02-.05-.05-.05h-.2c-.03 0-.07-.02-.07-.06 0-.01 0-.02.02-.02a1.78 1.78 0 0 1 .58.02v.02c-.06.41-.13.79-.22 1.12a.61.61 0 0 1-.07.18.05.05 0 0 0 .04.07h.12c.03 0 .06 0 .08.03l.03.03c.02.01.02.03-.01.03a1.95 1.95 0 0 1-.61-.03.03.03 0 0 1 0-.04.05.05 0 0 1 .03-.02h.2c.03-.01.04-.02.04-.04.03-.17.07-.34.07-.51l.02-.73Z" fill="#E1100B"/><path d="m5.2 8.24-.04.6a.03.03 0 0 1-.05.03l-.24-.16a.03.03 0 0 1-.02-.04l.13-.37A.03.03 0 0 1 5 8.28l.15-.07a.03.03 0 0 1 .05.03Z" fill="#C7D101"/><path d="m8.33 9.8-.03.02c-.04.03-.06.02-.06-.03v-.04a7.52 7.52 0 0 1 .17-.59c0-.04 0-.07.04-.1a.08.08 0 0 0 .04-.04c.03-.16.08-.33.14-.5.04-.08.1-.12.12-.2.03-.1.06-.1.08 0 .08.39.17.76.2 1.16 0 .07.02.14.05.22 0 .02 0 .03-.02.03l-.1-.01a.04.04 0 0 1-.02-.04 2.86 2.86 0 0 0-.08-.5l-.04-.02H8.6a.04.04 0 0 0-.03.04 1.5 1.5 0 0 1-.09.37.84.84 0 0 0-.06.23.03.03 0 0 1-.02 0h-.02c-.02-.02-.03-.02-.05 0Z" fill="#E1100B"/><path d="m7.88 8.7.01-.37a.03.03 0 0 1 .02-.02.25.25 0 0 1 .09-.02l.01.02a5.82 5.82 0 0 0-.13.4Z" fill="#C7D101"/><path d="M9.42 8.87c-.05.12-.04.24-.08.36-.05.15-.08.31-.1.49 0 .02-.01.03-.04.03a.02.02 0 0 1-.02-.01.02.02 0 0 1 0-.02c.02-.15.04-.3.04-.45 0-.08.03-.15.05-.23a8.71 8.71 0 0 1 .2-.74c.03 0 .04.01.05.03a21.34 21.34 0 0 0 .22 1.2c0 .07.02.07.03.01l.11-.88a.39.39 0 0 1 .14-.25c.04-.04.06-.04.05.02L9.9 9.56c0 .04-.03.08-.06.1-.04.02-.05.05-.07.09-.04.07-.07.06-.08-.02a.37.37 0 0 0-.09-.18.12.12 0 0 1-.02-.06l-.03-.18c0-.05-.03-.08-.06-.12a.07.07 0 0 1-.02-.05l-.01-.26c0-.06-.02-.06-.04-.01ZM12.44 8.4h-.25c-.03 0-.04-.02-.04-.04v-.02l.01-.02c.27-.03.48-.03.62-.01a7.23 7.23 0 0 0 .45.06v.01c0 .02 0 .03-.03.03a4.38 4.38 0 0 1-.62 0l-.03.52v.01a.03.03 0 0 0 .02.01h.01a6.55 6.55 0 0 1 .44.04h.01v.03c-.15.08-.3.07-.45.06-.02 0-.03 0-.03.02l-.01.5c0 .01 0 .03-.02.04l-.07.06a.03.03 0 0 0 0 .04.03.03 0 0 0 .02.02l1.19.06c.03 0 .04.01.03.04v.01l-.02.02c-.2-.01-.39-.02-.58-.01a5.26 5.26 0 0 1-.65.02l-.04.04c0 .02-.02.02-.03 0-.02-.02-.03-.04-.02-.06.06-.27.15-.6.07-.87v-.04a.27.27 0 0 0 .03-.12 22.65 22.65 0 0 1-.01-.45ZM10.76 9.7a.95.95 0 0 1-.36-.01c-.2-.04-.2-.16-.2-.33 0-.26.02-.49.07-.69.03-.12.1-.27.25-.28.13 0 .36-.02.48.04 0 0 .02.01.02.03l-.01.02a.03.03 0 0 1-.03.01.83.83 0 0 0-.27-.02c-.2.02-.35.23-.39.4-.03.12-.03.26-.02.42 0 .08.06.09.11.13.13.08.26.12.4.12a.04.04 0 0 0 .03-.02v-.01h.01a.02.02 0 0 0 0-.03h-.02a.3.3 0 0 1-.19-.06v-.04h.04l.4.02c.02 0 .04.02.05.04a.03.03 0 0 1 0 .03.03.03 0 0 1-.03 0 .15.15 0 0 0-.1 0 .05.05 0 0 0-.03.03l-.17.4v.01h-.04l-.01-.03v-.03c0-.04.01-.09.03-.13 0-.02 0-.03-.02-.03Z" fill="#E1100B"/><path d="m8.56 9.03.18-.52a.01.01 0 0 1 .02 0l.08.55a.01.01 0 0 1-.01.01l-.26-.02a.01.01 0 0 1 0-.02ZM5.13 8.97v.01L5.11 9h-.04a.47.47 0 0 1-.1-.05l-.02-.02a.47.47 0 0 1-.1-.08.12.12 0 0 1-.01-.03v-.03h.01l.28.18ZM5.63 9.18 5.4 9.1h-.03v.01l.01.02.23.09.03-.01-.01-.03ZM5.7 9.45l.03.3a.05.05 0 0 1-.04.05l-.34.06a.05.05 0 0 1-.06-.06l.06-.53a.05.05 0 0 1 .08-.04l.25.19a.05.05 0 0 1 .02.03ZM4.94 9.93c.07.02.13.03.14.01 0-.01-.05-.04-.12-.06-.07-.02-.13-.03-.14-.02 0 .02.05.05.12.07ZM5.7 9.86v.05a.1.1 0 0 1-.03.03.2.2 0 0 1-.05.03.26.26 0 0 1-.06.02l-.12.02h-.06L5.33 10a.1.1 0 0 1-.04-.03.06.06 0 0 1-.02-.03l.42-.08Z" fill="#C7D101"/></svg>