<!-- by TradingView --><svg xmlns="http://www.w3.org/2000/svg" width="18" height="18"><path fill="url(#apywsfdif)" d="M0 0h18v18H0z"/><path fill-rule="evenodd" d="M15 9.87L9.21 4 5.8 7.48 4.7 6.39 3 8.13 8.79 14l3.42-3.48 1.08 1.09L15 9.87zm-8.36 1.09l.65-.66-.86-.87 3-3.04.86.87.64-.65L9.2 4.87 5.8 8.35 4.7 7.26l-.85.87 2.78 2.83zm4.72-3.92l-.65.66.86.86-3 3.05-.86-.87-.64.65 1.72 1.74 3.42-3.48 1.08 1.09.85-.87-2.78-2.83zm-1.93.22L7.29 9.43l1.28 1.3 2.14-2.16-1.28-1.3z" fill="#F0F0F0"/><defs><linearGradient id="apywsfdif" x1="3.35" y1="3.12" x2="21.9" y2="24.43" gradientUnits="userSpaceOnUse"><stop stop-color="#1A1E21"/><stop offset="1" stop-color="#06060A"/></linearGradient></defs></svg>