<!-- by TradingView --><svg width="18" height="18" fill="none" xmlns="http://www.w3.org/2000/svg"><path fill="url(#paint0_linear_1530)" d="M0 0h18v18H0z"/><path d="M14.717 8.122l-2.642-3.69A1.014 1.014 0 0011.241 4c-.334 0-.638.157-.835.433l-.288.401-.287-.401A1.014 1.014 0 008.997 4c-.334 0-.638.157-.835.433l-.284.396-.284-.396A1.016 1.016 0 006.76 4c-.333 0-.638.157-.835.433L3.282 8.122a1.51 1.51 0 000 1.756l2.643 3.69c.197.274.5.432.835.432.334 0 .637-.157.834-.433L9 11.603l.29.406.002.004 1.113 1.554c.197.275.5.433.835.433.334 0 .637-.157.834-.433l2.642-3.689a1.503 1.503 0 00.001-1.756zM8.584 4.747a.503.503 0 01.413-.214c.165 0 .316.078.413.214l.385.538L9 6.395 8.2 5.28l.383-.533zm-1.411 8.505a.503.503 0 01-.827 0l-2.641-3.69a.968.968 0 010-1.126l2.641-3.69a.503.503 0 01.414-.213c.165 0 .316.078.413.214l.382.534-2.035 2.84a1.507 1.507 0 00.002 1.757l.155.214 1.364 1.916c.173.243.431.393.718.425l-.586.819zm1.115-1.557a.505.505 0 01-.826 0L6.06 9.724h-.002l-.118-.163a.968.968 0 010-1.127l1.937-2.703.798 1.115-.912 1.274a1.51 1.51 0 000 1.757l.912 1.274-.387.544zM9 7.3l.815 1.137a.968.968 0 010 1.127L9 10.7l-.815-1.137a.968.968 0 010-1.127L9 7.299zm1.236 2.578a1.51 1.51 0 000-1.757l-.912-1.274.796-1.11 1.932 2.7a.968.968 0 01-.002 1.128l-.309.438-1.203 1.692a.506.506 0 01-.823.004l-.392-.547.913-1.274zm4.06-.314l-2.642 3.689a.503.503 0 01-.826 0l-.586-.819c.286-.032.544-.184.718-.427l1.034-1.452.001.001.17-.24.197-.278-.001-.002.112-.16a1.51 1.51 0 000-1.756l-2.03-2.834.385-.538a.503.503 0 01.413-.214c.165 0 .316.078.413.214l2.642 3.689a.968.968 0 010 1.127z" fill="url(#paint1_linear_1530)"/><path opacity=".4" d="M7.874 12.44c-.04 0-.079-.002-.12-.007l-.566.798.428.308 1.037-1.452a1.024 1.024 0 01-.779.353z" fill="url(#paint2_linear_1530)"/><path opacity=".4" d="M10.122 12.44c.04 0 .08-.002.12-.007l.566.798-.428.308-1.031-1.45c.195.226.474.351.773.351z" fill="url(#paint3_linear_1530)"/><path opacity=".4" d="M8.672 11.148l.33.46-.501.687-.33-.447.501-.7z" fill="url(#paint4_linear_1530)"/><path opacity=".6" d="M7.554 5.28l.325.455L6.704 7.38l-.41-.331 1.26-1.77z" fill="url(#paint5_linear_1530)"/><path opacity=".6" d="M8.678 6.846l.32.456-.748 1.056-.41-.332.838-1.18z" fill="url(#paint6_linear_1530)"/><path opacity=".6" d="M9.795 5.285l.323.453-.794 1.108L9 6.394l.794-1.109z" fill="url(#paint7_linear_1530)"/><defs><linearGradient id="paint0_linear_1530" x1="3.349" y1="3.122" x2="21.904" y2="24.434" gradientUnits="userSpaceOnUse"><stop stop-color="#1A1E21"/><stop offset="1" stop-color="#06060A"/></linearGradient><linearGradient id="paint1_linear_1530" x1="5.215" y1="12.861" x2="12.936" y2="5.292" gradientUnits="userSpaceOnUse"><stop stop-color="#FFDE67"/><stop offset=".583" stop-color="#FF7E8D"/><stop offset=".818" stop-color="#FF57B2"/></linearGradient><linearGradient id="paint2_linear_1530" x1="8.325" y1="12.076" x2="7.417" y2="13.336" gradientUnits="userSpaceOnUse"><stop stop-color="#78005B"/><stop offset=".348" stop-color="#7A025A" stop-opacity=".652"/><stop offset=".51" stop-color="#820955" stop-opacity=".49"/><stop offset=".633" stop-color="#8E154E" stop-opacity=".367"/><stop offset=".737" stop-color="#A12643" stop-opacity=".263"/><stop offset=".828" stop-color="#B83C36" stop-opacity=".172"/><stop offset=".911" stop-color="#D65725" stop-opacity=".089"/><stop offset=".986" stop-color="#F87711" stop-opacity=".014"/><stop offset="1" stop-color="#FF7E0D" stop-opacity="0"/></linearGradient><linearGradient id="paint3_linear_1530" x1="10.486" y1="13.258" x2="9.631" y2="12.052" gradientUnits="userSpaceOnUse"><stop stop-color="#FF7E0D" stop-opacity="0"/><stop offset=".009" stop-color="#F97811" stop-opacity=".013"/><stop offset=".065" stop-color="#D65825" stop-opacity=".089"/><stop offset=".127" stop-color="#B93D36" stop-opacity=".173"/><stop offset=".195" stop-color="#A12643" stop-opacity=".266"/><stop offset=".272" stop-color="#8F154E" stop-opacity=".371"/><stop offset=".363" stop-color="#820955" stop-opacity=".495"/><stop offset=".482" stop-color="#7A025A" stop-opacity=".657"/><stop offset=".734" stop-color="#78005B"/></linearGradient><linearGradient id="paint4_linear_1530" x1="8.354" y1="12.069" x2="9.045" y2="11.095" gradientUnits="userSpaceOnUse"><stop stop-color="#FF7E0D" stop-opacity="0"/><stop offset=".013" stop-color="#F97910" stop-opacity=".019"/><stop offset=".114" stop-color="#D25427" stop-opacity=".166"/><stop offset=".219" stop-color="#B1363A" stop-opacity=".318"/><stop offset=".326" stop-color="#981E48" stop-opacity=".473"/><stop offset=".438" stop-color="#860D53" stop-opacity=".634"/><stop offset=".555" stop-color="#7B0359" stop-opacity=".805"/><stop offset=".69" stop-color="#78005B"/></linearGradient><linearGradient id="paint5_linear_1530" x1="6.359" y1="7.116" x2="7.887" y2="5.619" gradientUnits="userSpaceOnUse"><stop stop-color="#FF4630" stop-opacity="0"/><stop offset=".572" stop-color="#B31F48" stop-opacity=".572"/><stop offset="1" stop-color="#78005B"/></linearGradient><linearGradient id="paint6_linear_1530" x1="7.943" y1="8.133" x2="8.961" y2="7.135" gradientUnits="userSpaceOnUse"><stop stop-color="#FF4630" stop-opacity="0"/><stop offset=".572" stop-color="#B31F48" stop-opacity=".572"/><stop offset="1" stop-color="#78005B"/></linearGradient><linearGradient id="paint7_linear_1530" x1="9.06" y1="6.576" x2="10.08" y2="5.575" gradientUnits="userSpaceOnUse"><stop stop-color="#FF4630" stop-opacity="0"/><stop offset=".572" stop-color="#B31F48" stop-opacity=".572"/><stop offset="1" stop-color="#78005B"/></linearGradient></defs></svg>