<!-- by TradingView --><svg width="18" height="18" viewBox="0 0 18 18" xmlns="http://www.w3.org/2000/svg"><path fill="url(#acdoxkw4x)" d="M0 0h18v18H0z"/><path fill-rule="evenodd" d="M8.52 4.03c.1.06.17.16.17.27v2.58a.3.3 0 0 1-.13.24l-.9.65C8.1 8.05 8.7 8.44 8.7 9c0 .6-.55 1.01-1.04 1.27l.9.6a.3.3 0 0 1 .14.25v2.58a.3.3 0 0 1-.17.26.32.32 0 0 1-.32-.01l-3.44-2.27A1.6 1.6 0 0 1 4 10.36c0-.37.17-.82.76-1.35C4.3 8.65 4 8.22 4 7.64c0-.7.86-1.3 1.39-1.62l2.8-1.96c.1-.07.22-.08.33-.03Zm-3.2 2.78c-.22.17-.7.5-.7.83 0 .44.3.72.63.98l.94-.58.62.35-1.03.6c.33.24.8.56 1.28.88.34-.14 1-.44 1-.87 0-.46-.77-.74-1.1-.96-.55-.35-1.28-.68-1.63-1.23Zm-.06 2.58c-.57.48-.63.81-.63.97a1 1 0 0 0 .48.81l.27.18.06-.15c.15-.31.44-.6.94-.81l.46.43c-.38.16-.76.48-.83.63-.05.1-.06.2-.06.28l2.11 1.4v-1.85a377.74 377.74 0 0 1-2.8-1.9Zm.58-2.94c.2.43.88.71 1.27.97l.95-.7V4.9L5.84 6.45Zm3.64-2.41c.1-.06.22-.05.32.01l3.28 2.12c.54.35.92.8.92 1.47 0 .53-.36.99-.75 1.34.34.26.75.7.75 1.38 0 .86-.66 1.27-1.1 1.53l-.13.09-2.97 1.97a.32.32 0 0 1-.32.02.3.3 0 0 1-.17-.27v-2.58c0-.1.05-.18.13-.24l.88-.64c-.5-.28-1-.6-1-1.24 0-.55.6-.98 1-1.27l-.87-.6a.3.3 0 0 1-.14-.25V4.3a.3.3 0 0 1 .17-.26Zm1.4 4.06c-.25.16-.94.54-.94.9 0 .49.76.76 1.1.95v.01c.6.38 1.33.7 1.71 1.3.37-.24.63-.46.63-.9 0-.47-.33-.78-.62-.99l-.95.7-.62-.31L12.22 9l-1.35-.91Zm1.85.52-2.8-1.9V4.87l2.02 1.3c.33.21-.63.91-.76 1.01l.62.3c.35-.27.61-.45.77-.9l.15.1c.37.23.64.5.64.96 0 .4-.35.73-.64.98Zm-.5 2.98c-.28-.47-.9-.73-1.34-1.02l-.95.7v1.84l2.3-1.52Z" fill="url(#bcdoxkw4x)"/><defs><linearGradient id="acdoxkw4x" x1="3.35" y1="3.12" x2="21.9" y2="24.43" gradientUnits="userSpaceOnUse"><stop stop-color="#1A1E21"/><stop offset="1" stop-color="#06060A"/></linearGradient><linearGradient id="bcdoxkw4x" x1="9" y1="4" x2="9" y2="14" gradientUnits="userSpaceOnUse"><stop stop-color="#FF7EEE"/><stop offset="1" stop-color="#9A0086"/></linearGradient></defs></svg>