<!-- by TradingView --><svg width="18" height="18" viewBox="0 0 18 18" xmlns="http://www.w3.org/2000/svg"><path fill="url(#any5oj5zu)" d="M0 0h18v18H0z"/><path d="M10.05 8.45a4.8 4.8 0 0 1-.05.05l.03.04c.25.35.47.66.47 1.46 0 1.14-.33 2-1.5 2s-1.5-.94-1.5-2C7.5 8.28 9 7.06 9 7.06 9.79 6.36 11.81 5 12.47 5c.56 0 .54.58.53.76V12h1v1h-1.9c-.34 0-.6-.3-.6-.68V8c-1.08 0-1.26.21-1.45.45Zm-.42 1.93C9.63 9.59 9 9 9 9s-.59.61-.63 1.38c0 .4.11 1.02.63 1.02s.63-.61.63-1.02ZM7.22 8H6.5v4.31c0 .39-.27.69-.61.69H4v-1h1V5.81c0-.12-.08-.8.53-.8.5 0 1.8.95 2.47 1.5-.32.32-.6 1.2-.78 1.49Z" fill="#F0F3FA"/><defs><linearGradient id="any5oj5zu" x1="0" y1="0" x2="18" y2="18" gradientUnits="userSpaceOnUse"><stop stop-color="#0ECBC5"/><stop offset="1" stop-color="#CFD978"/></linearGradient></defs></svg>