<!-- by TradingView --><svg width="18" height="18" fill="none" xmlns="http://www.w3.org/2000/svg"><path fill="#F0F3FA" d="M0 0h18v18H0z"/><path fill-rule="evenodd" clip-rule="evenodd" d="M9 15A6 6 0 109 3a6 6 0 000 12zm0-.667A5.333 5.333 0 109 3.667a5.333 5.333 0 000 10.666z" fill="#000"/><path fill-rule="evenodd" clip-rule="evenodd" d="M12.667 6v5.667H12v-3.88l-1 1.238v2.642H8.01l2.323-2.877V7.734L8.16 10.231 6 7.738v3.929h-.667V6L8.16 9.214 11 6v1.964L12.667 6zm-2.334 3.85L9.405 11h.928V9.85z" fill="#000"/></svg>