<!-- by TradingView --><svg width="18" height="18" viewBox="0 0 18 18" xmlns="http://www.w3.org/2000/svg"><path fill="#F0F3FA" d="M0 0h18v18H0z"/><path d="M10.23 3.12c-.1.11-.21.2-.33.26-.03.02-.03.02 0 .03.08 0 .18-.06.31-.17.02-.02.05-.02.06 0l.19.22.08.05h.03l.05-.05v-.04a.12.12 0 0 0-.07-.02l-.06-.04a.76.76 0 0 1-.17-.21c.29.05.56.13.8.23.07.13.15.16.25.1l.6.3c.01.02 0 .03-.03.03v.03c.02.03.05.03.1-.01.06.02.11.05.16.09l.14.1c.17.11.34.24.52.38-.1.06-.22.1-.37.12a5.18 5.18 0 0 0-.98.3.6.6 0 0 1-.21.07.67.67 0 0 0-.18.06c-.12.06-.25.15-.41.27l-.03-.01.01-.04h.01c.03-.03.05-.06.05-.08a.3.3 0 0 0-.04-.23l-.1-.26c-.12-.3-.3-.48-.56-.55l-.41-.07a.77.77 0 0 0-.48-.2.06.06 0 0 0-.07.05.2.2 0 0 1-.05.07.05.05 0 0 1-.03.01.62.62 0 0 1-.44-.2l-.1-.14c-.02 0-.02-.02-.01-.03l.1-.14c.01-.02.03-.02.05-.01.16.1.35.16.58.2.01 0 .02 0 .01.01a.15.15 0 0 0 0 .1c0 .02 0 .03.02.02.02 0 .04-.02.05-.05l-.01-.04-.01-.02c0-.02 0-.03.02-.03.13-.02.23 0 .3.04-.01.04-.02.08 0 .1 0 .02.01.03.03.03.02 0 .04 0 .04-.03v-.15l.18-.16a.03.03 0 0 0 .01-.03.27.27 0 0 0-.06-.1v-.02l.01-.01.18-.03c.05-.01.05-.02 0-.03a1.2 1.2 0 0 0-.58.04c-.01 0-.01 0 0 0v.02h.03a.42.42 0 0 1 .1-.02c.02 0 .04 0 .06.03v.03l-.04.06c-.02.02-.03.04-.01.07l.01.07s0 .02-.02.02l-.22.03h-.02V3.5a.26.26 0 0 0 .02-.1c0-.01-.01-.02-.03-.02-.03 0-.05.02-.05.05v.07l-.03.02c-.2-.03-.4-.1-.56-.2v-.04a.2.2 0 0 1 .05-.07c.02-.02.02-.02 0-.03-.04 0-.07.01-.1.04-.01.03-.04.03-.06.01-.1-.06-.14-.13-.13-.2a6.18 6.18 0 0 1 1.85.08Z" fill="#D9D7D1"/><path d="M8.38 3.03c-.01.08.03.15.13.21.02.02.05.02.07 0 .02-.04.05-.05.09-.05.02 0 .02.02 0 .03a.2.2 0 0 0-.05.07v.03c.17.12.36.18.56.2.01.01.02 0 .02-.01l.01-.07c0-.03.02-.04.04-.04h.01l.03.01-.02.1v.03h.02l.22-.03c.02 0 .02-.01.02-.02l-.01-.07c0-.01 0-.02.02-.02.01 0 .02 0 .03.02.04.08.04.15 0 .2-.07-.05-.17-.06-.3-.04-.02 0-.03.01-.02.03v.02c.02.01.02.03.02.04-.01.03-.03.05-.05.05-.01 0-.02 0-.03-.02l.01-.1v-.02c-.24-.03-.43-.1-.6-.2-.01 0-.03 0-.04.02l-.1.14v.03l.11.14c.05.1.12.19.2.26V4c0 .01 0 .02-.02.03l-.2.06c-.02 0-.03.02-.01.04l.2.34-.12-.09-.55-.9-.18-.32.01-.01h.05a14.7 14.7 0 0 1 .43.68c.01.01.03.02.04.01h.07c.02 0 .02-.02.02-.03a2.36 2.36 0 0 0-.27-.4c-.04-.05-.08-.1-.11-.17l-.1-.18h.07c-.02.03-.01.06 0 .08.02.01.03.02.04.01.05 0 .08-.04.1-.1l.14-.03Z" fill="#A9A4A2"/><path d="M9.2 3.17a.1.1 0 0 0 0-.08v-.03l.03-.02c.08.01.13.03.16.06v.04c-.03.05-.07.07-.12.05h-.04c-.07.07-.14.07-.21-.02-.01-.02-.01-.03.01-.03h.05l.08.03h.04Z" fill="#C8C3B8"/><path d="M8.03 3.07a56.71 56.71 0 0 1 .21.34c.1.13.2.26.27.4 0 .02 0 .03-.02.03l-.07.01-.04-.01-.1-.13a14.67 14.67 0 0 0-.36-.56H7.9v.02l.17.32a6.84 6.84 0 0 0 .39.91c.17.4.2.78.1 1.17-.02.02-.03.04-.06.04h-.39c.16-.1.23-.24.2-.4l-.1-.88a2.24 2.24 0 0 0-.12-.46.8.8 0 0 0-.14-.25h-.03l-.02.01c-.04.08-.06.17-.08.26a3.46 3.46 0 0 0-.02.34 8.99 8.99 0 0 0 0 .81c.02.14 0 .28-.03.41l-.05-.22a.09.09 0 0 0-.07-.07.7.7 0 0 1-.2-.1l.04-.25c.06-.54.08-1.1.09-1.64l.45-.1Z" fill="#7B7575"/><path d="M10.32 3.15c.04.08.1.15.17.21l.06.04c.03 0 .05.01.07.03v.03l-.05.04a.03.03 0 0 1-.03 0 .22.22 0 0 1-.09-.04 5.1 5.1 0 0 0-.18-.22c-.01-.02-.04-.02-.06 0-.13.11-.23.17-.3.17-.04 0-.04-.01 0-.03.11-.06.22-.15.32-.25.04 0 .07 0 .09.02Z" fill="#C8C3B8"/><path d="m8.38 3.48-.18-.24v-.03l.08-.07h.03l.2.18v.02l-.1.13c0 .02-.02.02-.03 0Z" fill="#D9D7D1"/><path d="M7.58 3.17a17.67 17.67 0 0 1-.12 1.9l-.11-.09a.43.43 0 0 1-.11-.17.53.53 0 0 0-.15-.17l-.74-.79-.16-.15c.43-.23.9-.4 1.39-.53Z" fill="#6F6563"/><path d="M9.57 3.62c.04-.05.04-.11 0-.2a.03.03 0 0 0-.03-.02c-.02 0-.02 0-.02.02-.02-.03-.01-.05 0-.07a13.34 13.34 0 0 0 .05-.09l-.06-.03a.42.42 0 0 0-.1.02h-.03v-.02c.19-.06.38-.07.58-.04.05.01.05.02 0 .03l-.18.03-.02.01v.02c.04.03.06.07.07.1v.04l-.18.15a.04.04 0 0 0-.02.04l.01.1c0 .03-.02.04-.04.04s-.03 0-.03-.02c-.02-.03-.01-.07 0-.11Z" fill="#C8C3B8"/><path d="m11.11 3.38.26.1c-.1.06-.18.03-.26-.1Z" fill="#A9A4A2"/><path d="M8.62 4.4c.05.1.09.22.1.33a3.82 3.82 0 0 1 .04.43h.01l.02-.03.1-.51c0-.02 0-.03.03-.02l.2.03c.02 0 .03.02.03.04l.02.15c.01.04.02.04.05.01.1-.12.15-.27.17-.45a.6.6 0 0 0-.11-.46c-.03-.01-.04-.03-.04-.05 0-.01.01-.02.03-.02.08 0 .16.03.23.09l.2.2a.3.3 0 0 1 .1.14c.03.1.04.19.03.26a7.21 7.21 0 0 0-.1.93h-.04l-.1-.04-.02-.01h.05c.02 0 .02 0 .02-.02L9.5 5v-.02l.21-.19.01-.01.03-.29c0-.03 0-.04-.03-.05l-.2-.08c-.03-.01-.05 0-.05.03a8 8 0 0 1-.15.62l-.04.25-.28-.18h-.03l-.02.01v.02l.16.14a.3.3 0 0 0 .1.26.95.95 0 0 1-.27.1c-.06 0-.06.02 0 .04.05.02.12.01.2-.03a1 1 0 0 1 .27-.1.1.1 0 0 1 .05 0l.02.02-.01.02-.1.1-.01.02.01.01.13.05v.03a1.3 1.3 0 0 1-.5-.03l-.06.01a.07.07 0 0 0-.03.04v.03c-.02.04 0 .06.05.06h.28v.01l-.01.02c-.18.04-.37.07-.57.07l-.02.01v.02l.69.1c.07 0 .14 0 .2-.04.04 0 .07.02.09.04-.16.11-.3.24-.41.4-.22.3-.35.5-.4.6-.1.16-.21.43-.34.8h-.03l.1-.35v-.14a.56.56 0 0 1-.3-.22l.01-.03.13-.12.01-.03a.02.02 0 0 0-.02-.01l-.17-.02a.24.24 0 0 1-.12-.07l-.1-.08-.4-.3-.07-.12v-.05a.9.9 0 0 0 .36-.3v-.03l-.2-.48-.24-.37-.1-.2.12.08a.7.7 0 0 0 .2.1c.03 0 .05.03.06.06l.05.22.01.16c0 .02.01.03.03.03l.3-.03h.4c.02 0 .03-.01.04-.04.1-.38.08-.77-.1-1.17l-.12-.3-.26-.6.55.9Z" fill="#92887F"/><path d="m8.11 5.61-.3.03c-.02 0-.03 0-.03-.03l-.01-.16c.03-.13.05-.27.04-.4l-.03-.3a8.99 8.99 0 0 1 .04-.86c.02-.09.04-.17.08-.26l.02-.01h.03c.06.08.1.16.14.25.05.15.1.3.11.46l.11.88c.03.17-.04.3-.2.4Z" fill="#6F6563"/><path d="m6.19 3.7.16.15.12.16a18.13 18.13 0 0 1 .54.62c0 .02-.01.04-.03.05l-.2.2-.03.03a3.7 3.7 0 0 1-.17.11.42.42 0 0 0-.1.09c-.04.04-.06.09-.06.13 0 .04.02.08.05.1a.48.48 0 0 0 .15.07c.03.02.04.04.05.07 0 0 0 .02-.02.03a1.1 1.1 0 0 0-.34.46c-.07.21-.05.41.07.6h.03a.03.03 0 0 0 0-.05.64.64 0 0 1 0-.6.5.5 0 0 1 .15-.15l.18-.15h.02l.01.02v.22c0 .04-.03.11-.07.2l-.07.2-.14.32a.58.58 0 0 0-.07.21c-.03.25-.05.4-.04.46.05.3.15.56.31.8l.28.3v.03l-.01.02a.2.2 0 0 0-.06.03v.02l.18.01-.04.18-.06.16a1 1 0 0 1-.1.28 7.27 7.27 0 0 1-.25.38.23.23 0 0 1-.09.11v.03a.4.4 0 0 0 .2.04l.02-.02a.3.3 0 0 1 .25-.15c.07.08.13.17.17.27.01.03.05.07.1.1l.26.12a.2.2 0 0 1 .06.06l.01.04c0 .02 0 .03-.02.02l-1.2-.47-1.2-.48a6.6 6.6 0 0 0-.38-.34c-.3-.24-.47-.47-.54-.68-.01-.04 0-.07.04-.1.19-.1.39-.13.6-.05.4.15.83.32 1.29.52.02.01.03 0 .03-.02a12.95 12.95 0 0 1-.03-.84 3.2 3.2 0 0 0-.22-.83 7.02 7.02 0 0 1-.62-2.56l.42-.3h.03l.38-.23Z" fill="#D9D7D1"/><path d="m9.64 3.98-.14-.04a.41.41 0 0 0-.23-.09c-.02 0-.03 0-.03.02s.01.04.04.05l.06.11.01.04v.12c-.04.1-.06.19-.08.28 0 .03-.02.05-.05.05a.9.9 0 0 1-.25.02.43.43 0 0 1-.24-.06l-.2-.34c0-.02 0-.03.02-.04l.2-.06.02-.03v-.04a.9.9 0 0 1-.2-.26c.12.13.27.2.44.2l.03-.01a.2.2 0 0 0 .06-.07.06.06 0 0 1 .06-.05c.18.01.34.08.48.2Z" fill="#C7B9A9"/><path d="M11.7 3.85c.08.03.12.03.14-.02.03.07.04.15.03.23l.01.03c.03.04.04.08.03.13l.01.04.02.03v.03c0 .01-.03.02-.07.01-.01 0-.02 0-.01-.02.01-.03.02-.05 0-.07a.04.04 0 0 0-.02-.03h-.02c-.02-.01-.02-.02 0-.03a1.95 1.95 0 0 0 .06-.04v-.02c0-.01 0-.02-.02-.02a47.58 47.58 0 0 0-.11-.01v-.03l.04-.02c.01 0 .02-.01.01-.03l-.02-.06a.03.03 0 0 0-.02-.02h-.03c-.02 0-.03 0-.02-.01v-.07ZM7.09 4.63c.02.06.05.1.07.12.05.05.04.06-.02.04a.14.14 0 0 1-.05-.03h-.03l-.27.12.2-.2A.08.08 0 0 0 7 4.63c0-.02 0-.04-.02-.06l-.52-.56a.77.77 0 0 1-.12-.16l.74.78Z" fill="#C8C3B8"/><path d="m8.62 4.4.11.07c.05.04.13.07.24.07.09 0 .17 0 .25-.02.03 0 .04-.02.05-.05l.07-.28c.01-.03.02-.07.01-.12v-.04l-.07-.1c.1.1.13.26.1.45a.89.89 0 0 1-.16.45c-.03.03-.04.03-.05 0l-.02-.16c0-.02-.01-.03-.03-.04l-.2-.03c-.02 0-.03 0-.04.02l-.1.51-.01.02h-.03V5.1c0-.17 0-.3-.02-.37a1.26 1.26 0 0 0-.1-.34Z" fill="#9B937C"/><path d="M9.64 3.98a1.11 1.11 0 0 0 .43.2l-.13.05-.02.02c0 .31-.02.62-.06.93-.01.1 0 .2.01.28 0 .04 0 .08.02.1 0 .03.02.04.05.05.02.01.05 0 .07 0l.3-.22c.13-.07.22-.12.28-.17.04-.03.06-.08.05-.14 0-.01 0-.02.02-.03.06-.03.08-.09.05-.19a.3.3 0 0 1 .04.23c0 .03-.02.05-.05.07v.01l-.02.01-.01.03-.09 1.44.02-.86c0-.17 0-.31-.02-.43 0-.02-.02-.03-.04-.02-.2.1-.37.2-.51.33a.76.76 0 0 0-.17.24.83.83 0 0 0-.07.28v.13a4.76 4.76 0 0 1-.1.64h-.01v-.62c0-.08-.02-.18-.04-.28a.03.03 0 0 0-.02-.02h-.03l-.04.03a.37.37 0 0 1-.21.04 69.29 69.29 0 0 0-.69-.1v-.02l.02-.01a2.14 2.14 0 0 0 .58-.09h-.28c-.05 0-.07-.03-.06-.07V5.8l.04-.05A.07.07 0 0 1 9 5.74c.19.05.36.06.5.03l.02-.01-.01-.02-.13-.05-.01-.01v-.02l.1-.1c.02 0 .02-.01.02-.02l-.02-.02a.1.1 0 0 0-.05 0 1 1 0 0 0-.27.1c-.08.04-.15.05-.2.03-.06-.02-.06-.04 0-.05a.95.95 0 0 0 .27-.1.61.61 0 0 0 .18-.09V5.4l-.28-.14-.16-.14V5.1H9l.28.17.27.15h-.02l-.01.03v.04c.08.12.14.24.19.37l.02.01.02-.01a.52.52 0 0 1 .15-.17v-.03l-.32-.21.1.04h.04l.01-.04c.01-.27.04-.57.1-.9a.62.62 0 0 0-.03-.26.3.3 0 0 0-.1-.13 1.9 1.9 0 0 1-.2-.21l.13.04Z" fill="#A9A4A2"/><path d="M10.05 4.05a.9.9 0 0 0 .23.19v.02h-.02a1.8 1.8 0 0 0-.24-.1c-.19-.06-.31-.12-.38-.18l.41.07Z" fill="#C7B9A9"/><path d="M10.05 4.05c.26.07.44.25.56.55l.1.26c.03.1 0 .16-.05.2-.02 0-.02 0-.02.02 0 .06-.01.1-.05.14-.06.05-.15.1-.27.17 0-.15 0-.28-.05-.42 0-.02 0-.03.03-.03h.12c.04.01.08.02.12.01.02 0 .03-.01.03-.02l-.01-.06c-.05-.26-.2-.41-.45-.46-.02 0-.03 0-.03.03v.26a.2.2 0 0 0-.08-.03c-.02 0-.03 0-.03.02v.05l.05.03.08.02c-.1.07-.16.16-.17.25l-.06.42a.88.88 0 0 1 0-.28 9.86 9.86 0 0 0 .07-.95l.13-.04.2.07h.01v-.02a.9.9 0 0 1-.23-.19Z" fill="#92887F"/><path d="M5.36 4.23a7.02 7.02 0 0 0 .62 2.56 3.2 3.2 0 0 1 .24 1.26v.42c0 .02 0 .02-.02.01-.46-.2-.9-.37-1.3-.52a.67.67 0 0 0-.6.06c-.03.02-.04.05-.03.09.07.2.25.44.54.68.13.1.26.22.38.34l-2.09-.8a.16.16 0 0 1-.02-.1 6.09 6.09 0 0 1 1.36-3.1l-.01-.02.22-.22-.1.14v.04c0 .27 0 .54-.03.81a3.04 3.04 0 0 1-.45 1.33 13.29 13.29 0 0 0-.17.33l.55.23c.02 0 .03 0 .04-.02.2-.36.32-.73.38-1.11.09-.61.09-1.2 0-1.78 0-.07-.03-.12-.07-.14l.56-.49Z" fill="#C8C3B8"/><path d="M9.57 5.41h-.01l-.27-.15c0-.1.02-.18.04-.26a8 8 0 0 0 .15-.6c0-.04.02-.05.06-.04l.19.08c.02 0 .03.02.03.05l-.03.29v.01l-.21.19c-.01 0-.02.02-.01.03l.13.39c0 .01 0 .02-.02.02h-.05Z" fill="#7B7575"/><path d="M12.97 4.5a96.5 96.5 0 0 1-1.05.31.35.35 0 0 0-.16.12 5.97 5.97 0 0 0-.3.72c-.04.12-.08.4-.11.85a5.75 5.75 0 0 1-.07.31h-.01l-.01-.04v-.25a229.04 229.04 0 0 1 .01-1.16l-.37.06a.06.06 0 0 0-.05.04 1.56 1.56 0 0 0-.08.4c-.05.79-.1 1.5-.16 2.17l-.01.08a2.7 2.7 0 0 1-.11.59l-.01-.01v-.55c.01-.71.04-1.51.09-2.41v-.17c0-.02-.01-.03-.04-.03a.4.4 0 0 0-.17.05c-.22.1-.34.21-.37.3l-.05.1a3.9 3.9 0 0 0-.1.44 38.83 38.83 0 0 0-.14 1.52v-.02h.01a6.08 6.08 0 0 1-.1.6s-.02 0-.02-.02l.01-.54c.03-.41.04-.83.05-1.24 0-.2 0-.4-.02-.6a.15.15 0 0 0-.08-.05l.03-.03h.04l.02.02.05.29a5.2 5.2 0 0 1-.01.6h.01a4.76 4.76 0 0 0 .1-.76.83.83 0 0 1 .07-.28c.04-.1.1-.18.17-.24.14-.13.31-.24.5-.33.03 0 .04 0 .05.02.02.12.03.26.02.42l-.02.87-.07 1.42c0 .02 0 .03.02.03l.02-.01a324.19 324.19 0 0 0 .22-2.65.7.7 0 0 1 .07-.21l.03-.03c.14-.08.3-.16.49-.23a2.1 2.1 0 0 0 .33-.16c.05-.03.14-.07.25-.1.19-.06.37-.12.55-.2a.91.91 0 0 0 .37-.1c0-.02.04.02.11.1Z" fill="#8E8C93"/><path d="M10.56 4.87a1.6 1.6 0 0 0-.23-.06h-.04l-.02.05c0 .02.01.03.03.03l.12.05h-.12c-.03 0-.03.01-.03.03.04.13.06.27.05.42L10 5.6a.08.08 0 0 1-.07.01.08.08 0 0 1-.05-.05.32.32 0 0 1-.02-.1l.06-.42c.01-.1.07-.18.17-.25.02 0 .04 0 .06-.02.01 0 .02 0 0-.02a.27.27 0 0 0-.08-.05v-.26c0-.03.01-.04.03-.03.25.04.4.2.45.46Z" fill="#7B7575"/><path d="m14.42 6.43-.13.2a4.22 4.22 0 0 1-1.05.66c-.18.07-.34.11-.46.12l-.6.03a.72.72 0 0 0-.7.52 289.63 289.63 0 0 0-.27.79c-.03.06-.05.06-.08 0a.9.9 0 0 0-.22-.34c-.02-.03-.04-.03-.07 0a.74.74 0 0 0-.14.26 2.5 2.5 0 0 0-.07.35 11.44 11.44 0 0 0-.1.9 97.83 97.83 0 0 0-.08.6h-.01l-.02-.02-.05-.36a113.17 113.17 0 0 0-.01-2.06v-.64c0-.17-.01-.3-.04-.38a.56.56 0 0 0-.22-.29c-.03-.02-.05-.01-.06.02a.96.96 0 0 0-.12.38l-.05.53-.3 2.44a.69.69 0 0 1-.08.24v-.2a18.27 18.27 0 0 0 .02-1.53l.03-1.3a3.53 3.53 0 0 0-.05-.54h-.03a2.14 2.14 0 0 0-.39.62c-.07.14-.14.26-.22.35-.08.1-.14.19-.16.25a3.93 3.93 0 0 0-.13.29l-.01-.01-.08-.13c0-.02-.02-.02-.02 0-.09.22-.13.39-.13.5l-.04.58a1.6 1.6 0 0 1 0-.64l.02-.11.04-.11a5.8 5.8 0 0 1 .48-1.3c.05-.09.18-.29.4-.59a3.63 3.63 0 0 1-.41.64v.01h.01l.4-.54a.8.8 0 0 1 .3-.24.07.07 0 0 1 .07 0c.02.01.03.03.03.06L9.6 7.96a6.3 6.3 0 0 0 .02.56c.01 0 .02 0 .02-.02a6.08 6.08 0 0 0 .07-.57H9.7V7.8a38.83 38.83 0 0 1 .19-1.68.45.45 0 0 1 .05-.14.48.48 0 0 0 .05-.09c.03-.1.15-.2.37-.31a.4.4 0 0 1 .18-.05c.02 0 .03.01.03.03v.17a64.14 64.14 0 0 0-.08 2.97l.01-.01c.04-.13.08-.32.1-.58v-.08a87.13 87.13 0 0 0 .2-2.36l.05-.2c0-.03.02-.05.05-.05l.37-.06c.02 0 .03 0 .03.02a234.39 234.39 0 0 0-.04 1.4v.02l.02.01c.01 0 .02 0 .02-.02l.05-.3c.03-.44.07-.72.1-.84a5.94 5.94 0 0 1 .31-.72c.04-.05.1-.09.16-.12a1.81 1.81 0 0 1 .38-.1l.67-.2.13.1.13.12.33.38c.33.38.62.82.86 1.32Z" fill="#606370"/><path d="m7.35 4.98.09.2-.13-.1-.03-.02a5.17 5.17 0 0 0-.54.1.61.61 0 0 1-.06.03c-.05.03-.06.02-.05-.03l-.01-.08c.01-.04.05-.1.13-.17l.04-.03.27-.12h.03l.05.03c.06.02.07 0 .02-.04a.37.37 0 0 1-.07-.12c.08.08.13.14.15.18.02.07.06.12.1.17Z" fill="#A39078"/><path d="m4.64 4.9.16-.18c.04.02.07.07.08.14a6.2 6.2 0 0 1-.01 1.78c-.06.38-.19.75-.38 1.11 0 .02-.02.02-.04.02l-.55-.22v-.03a13.29 13.29 0 0 1 .35-.62c.15-.33.24-.67.27-1.02a6.92 6.92 0 0 0 .03-.85l.1-.14Z" fill="#C7B9A9"/><path d="m10.08 4.7.08.05v.02a.16.16 0 0 1-.06.02l-.08-.02-.04-.03v-.05c0-.01 0-.02.02-.02a.2.2 0 0 1 .08.03Z" fill="#C8C3B8"/><path d="M10.56 4.87v.06s0 .02-.02.02h-.12l-.12-.06a.03.03 0 0 1-.03-.03c0-.02 0-.03.02-.04h.04c.08 0 .15.03.23.05Z" fill="#58575F"/><path d="M6.75 4.91a.47.47 0 0 0-.13.17v.14c0 .02 0 .02.02.03a.3.3 0 0 0 .12.02h.02v.04l-.16.1a1.02 1.02 0 0 1-.15-.06.14.14 0 0 1-.05-.11c0-.04.02-.09.06-.13a.42.42 0 0 1 .1-.09l.17-.1Z" fill="#C7B9A9"/><path d="M7.44 5.19v.07a7.92 7.92 0 0 1-.33.06.72.72 0 0 0-.18.06.24.24 0 0 0-.1.09v.11l.02.14a.28.28 0 0 0-.17-.16c-.02 0-.02-.01-.01-.02l.07-.1-.01-.01a.31.31 0 0 0-.11-.01l.16-.11v-.03l-.02-.01a.3.3 0 0 1-.12-.02c-.01 0-.02-.01-.02-.03v-.14l.01.08c-.01.05 0 .06.05.04a.61.61 0 0 0 .06-.05 5.16 5.16 0 0 1 .58-.08l.12.12Z" fill="#C0B593"/><path d="M7.02 5.2c-.01 0-.01 0 0 0v-.02l.03-.02a1 1 0 0 1 .29-.02c.03 0 .04.02.03.05v.02c-.02.04-.05.05-.09.04a.66.66 0 0 0-.26-.04Z" fill="#D9D7D1"/><path d="M7.58 6.54c-.14-.1-.3-.07-.48.06a.83.83 0 0 0-.25.46 1.48 1.48 0 0 0-.03.5l-.02.01-.02-.01a.95.95 0 0 1-.03-.32 2.8 2.8 0 0 1 .05-.35c.02-.11 0-.12-.04-.01-.07.16-.1.33-.1.51.02.2.07.36.17.5l.26.37c.02.02.01.03-.02.03l-.11-.02a.12.12 0 0 1-.08-.06l-.2-.27a2.7 2.7 0 0 1-.16-.44.92.92 0 0 1-.03-.3c.02-.13.06-.28.14-.44l.33-.62a.07.07 0 0 0 0-.08l-.1-.18-.01-.16c0-.05 0-.1-.02-.14v-.12a.24.24 0 0 1 .1-.08.72.72 0 0 1 .18-.06 1.9 1.9 0 0 1 .3-.04c.02 0 .03 0 .03-.02v-.07c.12.17.2.3.23.37a23.8 23.8 0 0 0 .21.51.9.9 0 0 1-.35.3c-.02.01-.02.03-.01.04l.06.13Z" fill="#A39078"/><path d="m9.12 5.25.28.14v.02a.61.61 0 0 1-.18.1.3.3 0 0 1-.1-.26Z" fill="#7B7575"/><path d="M6.85 5.72v.16l.07.21-.01.04c-.13.1-.2.18-.23.23a1.4 1.4 0 0 0-.19.85c0 .11 0 .2.03.29l.17.44v.1c-.16-.23-.26-.5-.3-.8-.02-.05 0-.2.03-.45a.58.58 0 0 1 .07-.21c.05-.08.1-.18.14-.32l.07-.2c.04-.09.06-.16.06-.2a3.68 3.68 0 0 0 0-.24h-.02l-.18.15a.5.5 0 0 0-.15.16c-.1.19-.1.39 0 .6.02.01.01.02 0 .04h-.03a.65.65 0 0 1-.07-.6c.07-.17.18-.32.34-.46l.02-.03c0-.03-.02-.05-.05-.07.04 0 .08 0 .1.02l.02.01-.07.1v.02c.09.03.15.08.18.16Z" fill="#C7B9A9"/><path d="m9.56 5.41.03.02.32.22v.03a.52.52 0 0 0-.15.17l-.02.01-.02-.01a2.33 2.33 0 0 0-.2-.41l.02-.02.02-.01Z" fill="#C8C3B8"/><path d="M7.25 5.67c-.13.03-.24.05-.36.05-.02 0-.03-.02-.02-.03.04-.08.1-.14.17-.18a.82.82 0 0 1 .26-.06c.03 0 .06 0 .08.04l.06.11v.02c0 .01 0 .02-.02.02l-.17.03Z" fill="#92887F"/><path d="M7.63 6.24a.97.97 0 0 0-.18-.3V5.9l.12-.1a.04.04 0 0 1 .05 0 .3.3 0 0 1 .1.06v.04c0 .13-.02.24-.04.33-.01.06-.03.06-.05 0Z" fill="#B9A384"/><path d="M6.5 7.2c-.04-.3.02-.58.18-.84.03-.05.1-.13.23-.23v-.04l-.05-.2.1.17v.08l-.33.62c-.08.16-.12.3-.14.45Z" fill="#C0B593"/><path d="M9.63 6.11c.02.2.02.4.02.6 0 .42-.02.84-.05 1.25l.02-1.52a.07.07 0 0 0-.03-.06.07.07 0 0 0-.07 0 .8.8 0 0 0-.3.24 63 63 0 0 0-.4.54l-.01-.01v-.02c.15-.2.3-.4.4-.62.12-.16.26-.29.42-.4Z" fill="#7B7575"/><path d="M14.71 7.2a4.35 4.35 0 0 1-1.22.87c-.18.08-.38.14-.59.18l-.66.08c-.17.01-.32.06-.45.13a1.05 1.05 0 0 0-.37.4c-.06.1-.1.17-.14.21a.41.41 0 0 1-.2.15.8.8 0 0 0-.25.1.44.44 0 0 0-.15.18 1.53 1.53 0 0 0-.12.51 6.99 6.99 0 0 0-.07 1.24l-.06.06a.11.11 0 0 0-.06-.02l-.03-.13c.01-.65 0-1.3-.04-1.96-.02-.32-.1-.55-.24-.68-.03-.02-.05-.02-.07 0-.1.12-.16.3-.2.56 0 .1-.05.42-.11.93-.04.3-.1.51-.17.64-.01.02-.02.02-.02 0v-.27a.69.69 0 0 0 .07-.24 1529.58 1529.58 0 0 0 .4-3.17.96.96 0 0 1 .08-.18c.01-.03.03-.04.06-.02.1.08.18.17.22.29.03.08.04.21.04.38V8.85l.01 1.3a4.14 4.14 0 0 0 .07.36h.01c.01 0 .02 0 .02-.02a98.66 98.66 0 0 1 .23-1.82c.03-.1.08-.18.14-.26.03-.02.05-.03.07 0 .1.1.18.21.22.34.03.06.05.06.08 0l.05-.16c.13-.39.2-.6.22-.62.11-.34.34-.51.7-.53l.6-.03c.12 0 .28-.05.46-.12l.42-.22c.23-.13.44-.28.63-.45.03-.02.07-.09.13-.2.12.26.22.51.3.78Z" fill="#58575F"/><path d="M7.58 6.54a8.93 8.93 0 0 0 .63.44l.1.03-.19.07a.33.33 0 0 0-.13.07.9.9 0 0 0-.1.13.2.2 0 0 0 0-.11c0-.02-.01-.02-.03-.02l-.4.06s-.02 0-.02-.02a.62.62 0 0 0-.1-.22c-.05-.09-.1-.17-.12-.26-.03-.06-.05-.06-.07 0a.86.86 0 0 0-.04.45c.03.18.11.29.25.34.18.06.33.01.45-.13l.05.06-.04.04c-.1.12-.19.2-.25.23-.1.05-.2.02-.29-.1h-.02l-.01.01-.04.6a.33.33 0 0 1 0-.18L7.18 8h-.05a.1.1 0 0 0-.04.06v.08l.04.12.03.02h.02c.01 0 .02 0 .02-.02v-.03l-.02.32-.06.09c-.05.08-.07.07-.05-.02v-.15l-.17-.02c-.02 0-.02 0 0-.02a.2.2 0 0 1 .05-.03l.02-.02v-.03l-.29-.3v-.11l.19.27c.02.03.04.05.08.06l.11.02c.03 0 .04 0 .02-.03l-.26-.37a.9.9 0 0 1-.16-.5c-.01-.18.02-.35.1-.51.04-.1.05-.1.03 0v.04a2.8 2.8 0 0 0-.05.32c0 .11 0 .22.03.32l.02.01.02-.01v-.01c-.02-.17-.01-.33.03-.5a2 2 0 0 0 .09.86c.02.05.04.1.07.13h.03v-.01c.03-.1.04-.18.04-.23.01-.1 0-.17-.04-.23l-.06-.17a.74.74 0 0 1-.02-.42l.08-.18a.65.65 0 0 0 .06-.2c.18-.13.34-.15.48-.06Z" fill="#B9A384"/><path d="M7.1 6.6a.65.65 0 0 1-.06.2l-.08.18c-.03.15-.03.3.02.42l.06.17c.04.06.05.14.04.23 0 .05-.01.13-.04.23l-.01.01h-.02a.37.37 0 0 1-.07-.13 2 2 0 0 1-.1-.85.83.83 0 0 1 .26-.46Z" fill="#D9D7D1"/><path d="m7.89 7.28-.08.09c-.12.15-.27.19-.45.13-.14-.05-.22-.16-.25-.34a.86.86 0 0 1 .04-.44c.02-.06.04-.06.07 0 .03.08.07.16.13.25.04.06.07.13.09.22 0 .02.01.03.03.02l.4-.06s.02 0 .02.02a.2.2 0 0 1 0 .11Z" fill="#A39078"/><path d="M9.49 10.19a7.91 7.91 0 0 1-.07-1.24 2 2 0 0 0-.08-.47.06.06 0 0 0-.06-.05c-.03 0-.05.01-.07.04-.15.27-.3.57-.44.9a4.28 4.28 0 0 0-.21.63c-.05.15-.12.3-.2.46-.24.4-.5.8-.77 1.18-.21.29-.36.5-.44.66-.14.24-.27.52-.4.84-.1.2-.2.5-.34.87a1.12 1.12 0 0 1-.15.28l.02-.04c0-.09.03-.17.05-.26a328.48 328.48 0 0 0 .29-.93l.14-.4.11-.1v.03c.05-.07.1-.17.17-.32a3.53 3.53 0 0 1 .38-.62c.12-.15.2-.27.25-.35l.22-.33a5.1 5.1 0 0 0 .44-.7.47.47 0 0 0 .05-.21c0-.18-.04-.4-.1-.67v-.13l.04-.57c0-.12.04-.29.13-.51 0-.02.01-.02.02 0l.08.13h.03l.1-.28.17-.25c.08-.1.15-.21.22-.35l.17-.33c.07-.1.14-.2.22-.28l.03-.01.02.02c.02.17.03.34.03.52a1981.86 1981.86 0 0 0-.05 2.84Z" fill="#58575F"/><path d="m8.55 7.41-.37-.01c-.02 0-.03 0-.02.03l.1.3c-.04-.07-.13-.13-.27-.19a1.51 1.51 0 0 1-.06-.02c-.05-.03-.09-.02-.12.02a.99.99 0 0 0-.23.67c0 .02 0 .02.02.02.22-.07.4-.2.58-.38a.39.39 0 0 1-.06.14l.01.01c.12-.02.2-.07.27-.15a.9.9 0 0 0 .14-.3l-.1.37-.32.23c-.03.03-.17.08-.4.16a.03.03 0 0 0-.03.02c-.01.08 0 .12.04.15l.14.1v.01l-.4.37c-.02 0-.02.01-.01.02 0 .01 0 .02.02.02.13 0 .27.05.4.12.02.01.02.03.01.04-.16.26-.23.5-.2.7 0 .02 0 .03.02.04h.02c.1.07.16.13.2.2.02.05.04.14.05.26a1.25 1.25 0 0 0-.2-.35.63.63 0 0 1-.12-.2.9.9 0 0 1 0-.35 2.9 2.9 0 0 1 .06-.38l-.03.01c-.05.07-.1.1-.16.07-.02 0-.03 0-.03.02-.01.12 0 .25.03.38l-.01.03-.05.01c-.02 0-.05-.02-.08-.07a.44.44 0 0 0-.01-.02c-.01-.02-.02-.04-.01-.08v-.37l.05-.27v-.04a.45.45 0 0 0-.23-.2l.02-.32v-.01l.04-.61.01-.02h.02c.09.13.19.16.3.1.05-.02.14-.1.24-.22l.04-.04.04-.01a.64.64 0 0 0 .33-.32.21.21 0 0 0 .08-.05c.02-.02.01-.04 0-.04l-.1-.03.17.03.02.01v.03l-.14.12v.03c.07.1.17.18.3.21Z" fill="#A39078"/><path d="M8.3 7c.02.02.03.03 0 .06a.21.21 0 0 1-.07.04.42.42 0 0 0-.26.25.21.21 0 0 1-.07.07h-.04a.1.1 0 0 1-.05-.05l.08-.09a.9.9 0 0 1 .1-.12.33.33 0 0 1 .13-.08l.19-.07Z" fill="#C7B9A9"/><path d="M8.23 7.1a.64.64 0 0 1-.33.32.21.21 0 0 0 .07-.08c.05-.12.14-.2.26-.24Z" fill="#B9A384"/><path d="m15 8.67-.04.26a4.15 4.15 0 0 1-2.37.85c-.23.02-.4.04-.51.07-.18.04-.33.1-.45.2-.08.06-.19.18-.32.36l-.11.13c-.08.1-.18.19-.3.28-.08.06-.2.18-.34.35l-.07.08.02-.72a7 7 0 0 1 .06-.6c.02-.15.06-.3.11-.43a.44.44 0 0 1 .15-.19.79.79 0 0 1 .25-.1.41.41 0 0 0 .2-.14 1.53 1.53 0 0 0 .19-.28c.1-.15.2-.25.32-.33.13-.07.28-.12.45-.14.3-.02.52-.05.66-.07.2-.04.4-.1.6-.18a4.35 4.35 0 0 0 1.21-.88 4.94 4.94 0 0 1 .22.87l.07.6Z" fill="#47454B"/><path d="M8.55 7.41v.15a.9.9 0 0 1-.15.29.42.42 0 0 1-.27.15V8a.39.39 0 0 0 .05-.14c.03.02.06-.02.08-.11l-.1-.31c0-.02 0-.03.02-.03l.37.01Z" fill="#B9A384"/><path d="M8.26 7.74c-.02.09-.05.13-.08.11-.17.18-.36.31-.58.38-.02 0-.02 0-.02-.02 0-.25.07-.47.23-.66.03-.05.07-.05.12-.03l.06.02c.14.06.23.13.27.2ZM8.48 7.9c-.08.16-.12.33-.14.5l-.04.1a.35.35 0 0 0-.02.12l-.02.16c-.02.1-.01.26.02.48v.13c0 .23.02.44.06.63-.13.03-.23.14-.3.33 0 .01 0 .02-.02.03h-.05v-.02c0-.12-.02-.2-.05-.26a.5.5 0 0 0-.2-.2.05.05 0 0 1-.03-.04c-.03-.2.04-.44.2-.7v-.04A.96.96 0 0 0 7.47 9c-.01 0-.02 0-.02-.02v-.02l.4-.36v-.02a2.49 2.49 0 0 0-.13-.1c-.04-.02-.05-.07-.04-.14 0-.02.01-.03.02-.03l.41-.15.33-.24.03-.02Z" fill="#A38761"/><path d="m5.19 9.13 1.2.48a3 3 0 0 0-.27.17c-.09.06-.08.07.02.05l.06-.04.03-.01a.4.4 0 0 1 .2.09l.07.04.06.02.1.02c.2.03.33.06.41.1.2.09.37.23.5.42l-.35-.13-.41-.17-.28-.1H6.5l-.13.24c-.03.04-.05.02-.04-.05l.1-.18v-.05A.05.05 0 0 0 6.4 10l-.25-.1H6.1c-.1.01-.2.06-.28.14a.13.13 0 0 1-.05 0h-.02v-.01c.07-.07.14-.12.21-.17v-.02a.35.35 0 0 0-.1-.05.37.37 0 0 0-.11-.15A33.02 33.02 0 0 1 3.1 8.45a.03.03 0 0 1-.02-.03l.02-.1 2.09.81Z" fill="#9B937C"/><path d="M9.49 10.19v.45c0 .03 0 .03.02 0 .07-.12.13-.33.17-.63l.12-.93c.03-.25.1-.44.19-.55.02-.03.04-.03.07 0 .14.12.22.35.24.67.04.65.05 1.3.04 1.96a6.06 6.06 0 0 1-.14-.37.66.66 0 0 0-.15-.22c-.03-.03-.05-.03-.08 0-.16.17-.27.43-.33.76-.04.24-.08.54-.11.9l-.06.28c-.02.08-.04.08-.05 0a74.12 74.12 0 0 0-.03-.8c0-.15-.03-.3-.08-.47a.5.5 0 0 0-.22-.3.4.4 0 0 0-.36-.03c-.19.07-.36.24-.5.5l-.4.62-.39.62-.88 1.51c-.04.07-.1.15-.19.24l-.14-.07.01-.02c.07-.09.13-.19.17-.3l.33-.87a8 8 0 0 1 .4-.84c.1-.15.24-.37.45-.66.27-.38.53-.78.76-1.18a2.14 2.14 0 0 0 .24-.58c.07-.23.13-.4.18-.51.14-.33.3-.63.44-.9a.06.06 0 0 1 .07-.04c.03 0 .05.02.06.05a2 2 0 0 1 .08.47l.01.4c.01.37.03.65.06.84Z" fill="#47454B"/><path d="m3.03 8.45.01.2c0 .02.01.03.03.04l2.75 1.09c-.12.07-.23.08-.33.02l-.1-.05a12.08 12.08 0 0 0-1.24-.48l-.96-.38a.24.24 0 0 1-.13-.12A.3.3 0 0 0 3 8.7l.03-.25Z" fill="#3E3941"/><path d="M7.19 8.56c.1.04.17.1.22.2l.01.03-.04.27c-.01.12-.05.24-.1.36v.03l.26.35c.2.3.3.65.32 1.04-.08.02-.13-.04-.13-.18 0-.02 0-.02-.02-.02l-.08.01c-.03.02-.07.02-.13.01l.17-.12v-.02l-.1-.04c-.13-.2-.3-.34-.5-.43a1.76 1.76 0 0 0-.5-.11.29.29 0 0 1-.07-.03.31.31 0 0 1-.06-.04.4.4 0 0 0-.2-.09l-.04.01a.84.84 0 0 1-.06.04c-.1.03-.1 0-.02-.05a3 3 0 0 1 .27-.17l1.2.47c.01 0 .02 0 .02-.02l-.01-.04a.2.2 0 0 0-.06-.05l-.25-.12.04-.18v-.04c-.06-.13-.16-.18-.32-.16a.3.3 0 0 0-.25.15l-.03.02a.4.4 0 0 1-.19-.04v-.03a.23.23 0 0 0 .1-.11 7.28 7.28 0 0 0 .25-.38 1 1 0 0 0 .1-.28l.05-.16.04-.17v.15c-.02.1 0 .1.05.02l.06-.08Z" fill="#C0B593"/><path d="M14.79 10.56a.75.75 0 0 1-.28.2 4.1 4.1 0 0 1-1.4.29l-.85.02c-.3 0-.55.07-.75.2l-.45.27-.63-.23.06-.06.07-.08c.15-.17.26-.29.34-.35a2.13 2.13 0 0 0 .4-.41c.14-.18.25-.3.33-.36.12-.1.27-.16.45-.2a4.19 4.19 0 0 1 .8-.1l.63-.11a4.15 4.15 0 0 0 1.45-.71l.04-.26a7.17 7.17 0 0 1-.21 1.89Z" fill="#3E3941"/><path d="M5.82 9.78h.03c.04.02.08.03.11.06v.02c-.07.05-.14.1-.2.17v.01h.06a8.25 8.25 0 0 0 .44.18.1.1 0 0 1 .02.07.38.38 0 0 1-.1.22C5.14 10.12 3 9.76 3 9.16V8.7a.3.3 0 0 1 .06.07c.03.06.07.1.13.12a50.81 50.81 0 0 1 1.58.61 12.07 12.07 0 0 1 .72.3c.1.06.2.05.33-.02Z" fill="#2D312F"/><path d="M7.06 8.96c.04-.1.11-.2.2-.26h.03l.01.02c0 .07-.02.13-.04.2a.44.44 0 0 1-.12.15c-.1.1-.2.2-.3.34a.19.19 0 0 1-.13.06H6.7v-.02l.1-.16.17-.25c0-.02.01-.02.02-.03.04 0 .06-.02.07-.05Z" fill="#D9D7D1"/><path d="M7.98 10.36v.01c.03.03.07.04.1.03l.02-.01.14-.18h.04c.01 0 .02.02 0 .04l-.01.07-.4.52c-.02-.4-.13-.74-.33-1.04a18.37 18.37 0 0 0-.26-.38c.06-.12.09-.24.1-.36l-.01.37v.08l.02.02c.03.05.06.07.08.07h.05l.01-.04a1.06 1.06 0 0 1-.03-.38c0-.02.01-.02.03-.02.06.02.11 0 .16-.07l.02-.01h.01l.01.03a2.9 2.9 0 0 0-.08.35.9.9 0 0 0 .01.36c.02.04.05.1.12.19.08.1.15.22.2.35Z" fill="#B9A384"/><path d="m7.24 9.31-.07.06h-.03l-.01-.01V9.27l.14-.13h.03v.03l-.06.14ZM7.05 9.4l-.13.03-.02-.01V9.4l.12-.1h.02l.02.09-.01.02Z" fill="#D9D7D1"/><path d="m6.18 10.52.1.04 1.28.5.09.06v.04c-.29.4-.54.82-.77 1.26l-.12.25a37.51 37.51 0 0 0-.27.79 316.28 316.28 0 0 1-.26.87L5.68 14a1.63 1.63 0 0 0-.28-.22 4.2 4.2 0 0 1-.72-.64 6.04 6.04 0 0 1-1.65-3.7v-.1l.01-.02h.03l3.1 1.2Z" fill="#C0B593"/><path d="M6.88 12.59v-.03a.26.26 0 0 0 0-.14 11.15 11.15 0 0 1 .77-1.3c-.02-.03-.05-.04-.09-.06a.29.29 0 0 0 .2-.09v-.02l-.02-.02-.01-.03a.2.2 0 0 0-.01-.09.03.03 0 0 0-.03-.02.66.66 0 0 0-.29.04v-.04l.22-.09c.02 0 .03-.02.02-.04v-.01a.13.13 0 0 1 .07-.02c.01 0 .02.01.02.03 0 .14.05.2.13.18l.41-.52c.04-.1.07-.2.07-.3-.04-.2-.06-.4-.06-.64.06.27.1.5.1.68 0 .06-.01.13-.05.22a8.2 8.2 0 0 1-.66 1.02c-.05.08-.13.2-.25.35a5.27 5.27 0 0 0-.38.62l-.16.32Z" fill="#6F6563"/><path d="M7.29 9.85c-.06-.04-.1-.08-.11-.1A.95.95 0 0 0 7 9.46c.16-.03.26.03.31.16v.04l-.03.18Z" fill="#C8C3B8"/><path d="M6.32 10.26a.14.14 0 0 1-.04.03.1.1 0 0 0-.02-.07 8.14 8.14 0 0 1-.44-.18.54.54 0 0 1 .28-.15h.04l.25.1c.02.01.03.02.03.04v.05l-.1.18ZM6.81 10.17c0 .06.04.1.13.15.03.01.03.02 0 .02a.38.38 0 0 1-.2-.05c-.03-.02-.06-.02-.11-.01-.06 0-.1 0-.13-.04a.03.03 0 0 0-.03 0c-.03 0-.05.01-.05.03a.6.6 0 0 1-.06.18v-.14l.13-.23c0-.02.02-.02.04-.02l.28.1Z" fill="#47454B"/><path d="m6.81 10.17.41.17c0 .05-.05.07-.12.07-.14 0-.26.02-.37.06v.01l.01.01.03.01c.1-.02.2-.04.34-.05.08-.01.15 0 .19.02a9.1 9.1 0 0 0 .19.13l-.02.06v.02c.05 0 .06 0 .03-.02h.13c.02.02.01.04-.01.04l-.22.1v.03c.1-.04.2-.05.29-.04l.03.02a.2.2 0 0 1 0 .1l.02.03h.01v.03a.29.29 0 0 1-.19.1l-1.28-.51c0-.04.03-.08.08-.11a.6.6 0 0 0 .06-.18c0-.02.02-.03.05-.04l.03.01c.03.03.07.04.13.03l.11.01c.06.04.13.06.2.06.03 0 .03 0 0-.02-.09-.04-.13-.1-.13-.15Z" fill="#2D312F"/><path d="M6.32 10.26c0 .07 0 .09.04.05v.14c-.05.03-.08.07-.08.11l-.1-.04a.38.38 0 0 0 .1-.23l.04-.03Z" fill="#6F6563"/><path d="m10.34 11.16.03.13a2.26 2.26 0 0 0-.5-.17c-.07.1-.12.22-.16.33-.05.2-.09.43-.1.7l-.1 1.27-.08.4c0 .02-.02.03-.03.03h-.02l-.02-.05a34.33 34.33 0 0 0-.02-2.07c0-.2-.05-.4-.13-.59a.03.03 0 0 0-.02-.01c-.14 0-.24.06-.3.2l-.07.2c-.08.33-.16.58-.24.77-.08.19-.18.35-.3.5-.02 0-.15.12-.4.34-.27.23-.5.5-.68.78-.1.15-.29.35-.57.6l-.26-.12.2-.24a172.52 172.52 0 0 1 1.26-2.13l.4-.62c.14-.27.31-.43.5-.5a.4.4 0 0 1 .36.03c.1.06.18.16.22.3.05.17.07.32.08.45a73.8 73.8 0 0 1 .03.81c0 .08.03.09.05 0 .03-.09.05-.18.06-.28.03-.35.07-.65.11-.89.06-.33.17-.59.33-.76.03-.03.05-.03.08 0 .06.05.11.12.15.21a2.52 2.52 0 0 1 .14.38Z" fill="#3E3941"/><path d="M14.79 10.56a6.26 6.26 0 0 1-.97 1.95h-.04a6.95 6.95 0 0 1-.71-.24l-2-.73.44-.27c.2-.13.45-.2.75-.2l.85-.02c.48-.02.94-.11 1.4-.29.1-.04.19-.1.28-.2ZM9.86 11.12l.45.27a39.57 39.57 0 0 0 .05 2.58h.03l.01-.02c.04-.17.06-.38.07-.61l.04-1.42c0-.14 0-.28-.03-.43l.44.28.15.4c.14.4.11.8-.08 1.16l-.28.52a4.22 4.22 0 0 0-.33.85c-.05.14-.08.13-.1 0a1.68 1.68 0 0 0-.18-.5.13.13 0 0 0-.13-.07.17.17 0 0 0-.1.04c-.18.15-.31.42-.4.81a6.1 6.1 0 0 1-2.84-.47c.28-.25.47-.44.57-.59.18-.29.41-.55.68-.78l.4-.35c.12-.14.22-.3.3-.5.08-.18.16-.44.24-.76l.07-.2c.06-.14.16-.2.3-.2l.02.01c.08.2.12.39.13.6a34.33 34.33 0 0 1 .02 2.06c0 .02 0 .03.02.04l.02.01c.01 0 .02 0 .03-.02.03-.13.06-.26.07-.41.05-.45.08-.88.1-1.27.02-.27.06-.5.11-.7.04-.11.09-.23.15-.33Z" fill="#383136"/><path d="M10.37 11.29a.1.1 0 0 1 .06.01l.63.24 2 .73a6.98 6.98 0 0 0 .76.24.27.27 0 0 0 .07-.06c-.16.37-.49.63-.78.9a1.06 1.06 0 0 0-.45-.63 2.76 2.76 0 0 0-.3-.18 16.35 16.35 0 0 1-1.22-.64l-.21-.13-.45-.28-.17-.1-.45-.27c.18.03.35.09.51.17Z" fill="#1E1D21"/><path d="m10.3 11.4.18.1.03.42-.04 1.42a3.65 3.65 0 0 1-.08.62h-.03a39.65 39.65 0 0 1-.05-2.57Z" fill="#47454B"/><path d="M11.14 11.9c.15.22.25.37.28.46.13.3.16.63.08.99a2.1 2.1 0 0 1-.7 1.18c-.1.08-.18.18-.27.27-.34.1-.7.15-1.05.18.08-.4.21-.66.4-.8a.17.17 0 0 1 .1-.05c.05 0 .1.02.12.08.09.16.15.32.17.48.03.15.06.15.11.01l.04-.13c.1-.32.2-.56.29-.72.1-.17.2-.34.28-.52.2-.37.22-.75.08-1.16l-.15-.4.22.13Z" fill="#2D312F"/><path d="M13.11 13.35a10.82 10.82 0 0 0-.5.44c-.62.47-1.32.8-2.08 1.01l.27-.28.27-.27c.22-.27.36-.57.43-.9.08-.37.05-.7-.08-1a3.16 3.16 0 0 0-.28-.45l.18.09c.31.18.66.36 1.04.55l.3.18a1.06 1.06 0 0 1 .45.63Z" fill="#2B242C"/></svg>