<!-- by TradingView --><svg width="18" height="18" viewBox="0 0 18 18" xmlns="http://www.w3.org/2000/svg"><path fill="#F0F3FA" d="M0 0h18v18H0z"/><path d="M6.08 10.44c-.32.08-.5.26-.57.48-.07.22-.02.5.19.77.2.27.51.53.94.7a2 2 0 0 0 1.18.1c.32-.09.6-.27.67-.48.07-.23.02-.5-.19-.77-.2-.28-.61-.53-1.04-.7a2 2 0 0 0-1.18-.1Zm-.12-.46c.44-.1.96-.07 1.47.12.5.2 1 .5 1.26.86.2.27.33.6.31.91 0 .1-.02.19-.05.28-.14.42-.5.68-.94.79a2.71 2.71 0 0 1-2.7-.98c-.2-.26-.32-.56-.31-.87 0-.1.02-.21.05-.32.14-.41.48-.68.91-.79ZM3.97 7.3c-.29.05-.43.17-.47.32-.05.13 0 .34.2.58a2.35 2.35 0 0 0 2.02.73c.3-.05.44-.17.48-.3.04-.13 0-.34-.21-.58-.2-.23-.53-.46-.93-.61-.41-.15-.8-.2-1.09-.14Zm-.08-.47c.4-.06.87 0 1.34.17.47.18.86.45 1.12.75.26.3.42.66.3 1.02-.11.37-.47.56-.85.63a2.8 2.8 0 0 1-1.33-.15h-.01a2.83 2.83 0 0 1-1.12-.75c-.25-.29-.42-.66-.3-1.02.11-.38.46-.58.85-.65ZM11.17 10.5c-.34.01-.53.13-.6.26-.06.13-.05.35.15.64.2.28.52.57.94.8.44.21.86.3 1.18.3.34-.01.52-.13.59-.26.06-.13.05-.35-.15-.64-.2-.28-.52-.57-.94-.8a2.48 2.48 0 0 0-1.17-.3Zm-.02-.5c.45-.01.96.11 1.45.37.48.25.88.6 1.13.95.24.35.37.78.18 1.15-.2.36-.62.52-1.05.53-.44.01-.96-.11-1.45-.37-.5-.25-.9-.6-1.14-.95-.24-.35-.37-.78-.18-1.15.2-.36.63-.52 1.06-.53Z" fill="#1A47DE"/><path fill-rule="evenodd" d="M8.8 7.57c-.25.04-.36.14-.4.23-.03.09 0 .24.17.45.17.2.45.4.8.54.35.15.68.2.92.16.26-.03.37-.13.4-.22.04-.09.02-.25-.16-.45-.17-.2-.45-.4-.8-.54-.35-.15-.68-.2-.92-.17Zm1.12-.26a2.3 2.3 0 0 0-1.17-.2c-.35.04-.67.2-.8.52-.12.33.03.66.25.92.23.27.58.5.98.67.41.18.83.24 1.18.2.34-.04.66-.2.79-.53.12-.32-.03-.66-.25-.91-.23-.27-.57-.51-.98-.67Z" fill="#1A47DE"/><path d="M12.49 7.91c-.02.06 0 .2.15.38.16.18.33.38.66.53.32.15.63.22.87.21.23 0 .32-.07.34-.12.02-.06 0-.19-.15-.37a2.2 2.2 0 0 0-.75-.53 1.77 1.77 0 0 0-.78-.22c-.23 0-.32.07-.34.12Zm.25-.6c.32 0 .7.1 1.08.27.38.18.7.41.9.66.2.24.35.55.24.84v.02c-.14.3-.48.4-.78.4a2.5 2.5 0 0 1-1.9-.91 1 1 0 0 1-.28-.65.6.6 0 0 1 .04-.2c.14-.32.39-.42.7-.42ZM6.79 5.46c-.24.02-.3.1-.32.14-.02.05-.01.17.15.34.15.17.42.33.74.46.33.12.63.16.85.14.24-.02.3-.1.32-.14.02-.05.01-.17-.15-.34a2 2 0 0 0-.73-.46 2.05 2.05 0 0 0-.86-.14ZM6.75 5c.3-.03.69.03 1.06.17.37.14.7.34.9.57.2.22.36.5.26.8-.11.3-.43.42-.72.44-.3.03-.68-.03-1.05-.17-.38-.14-.7-.34-.91-.57A.92.92 0 0 1 6 5.64l.03-.2c.11-.29.43-.4.72-.43Z" fill="#1A47DE"/><path fill-rule="evenodd" d="M10.7 5.79c-.22 0-.25.07-.26.08v.01c-.01.03-.02.12.13.3.14.15.37.32.66.44.3.14.56.2.76.2.21-.01.27-.08.28-.1 0-.02.02-.12-.13-.29a1.92 1.92 0 0 0-.66-.45c-.3-.14-.58-.2-.78-.2Zm.98-.24a2.3 2.3 0 0 0-1-.23c-.27 0-.53.1-.64.39a.53.53 0 0 0-.04.17c-.01.23.11.44.26.6.19.22.43.42.77.57.34.16.68.24.97.23.28 0 .59-.1.71-.38s-.03-.57-.21-.78a2.4 2.4 0 0 0-.82-.57Z" fill="#1A47DE"/><path d="m9.25 9.07-1.36 1.57-.36-.3 1.35-1.57.37.3ZM5.98 10.3l-.57-1.02.42-.22.57 1.01-.42.23ZM10.58 11.52l-1.93.19-.05-.47 1.93-.2.05.48ZM13.4 9.12l-.83 1.48-.42-.23.84-1.48.42.23ZM10.83 10.32l-.73-.98.39-.28.73.99-.39.27ZM12.3 8.47h-1.43V8h1.44v.47ZM10 7.54l.76-.93.38.29-.76.93-.38-.29ZM8.5 7.5l-.36-.53.4-.27.36.52-.4.27ZM10.26 6.47H8.8L8.81 6h1.46v.47ZM5.54 7.32l1.23-1.05.31.36-1.23 1.04-.31-.35ZM8.23 8.44l-1.88.03V8l1.88-.03v.47Z" fill="#1A47DE"/></svg>