<!-- by TradingView --><svg width="18" height="18" viewBox="0 0 18 18" xmlns="http://www.w3.org/2000/svg"><path fill="#181B1E" d="M0 0h18v18H0z"/><path d="M4 12h10v2H4v-2ZM8.5 3h1l.04 8.5H8.5V3Z" fill="#F0F3FA"/><path d="M9.83 6h1.92s.4-2-2.8-2C6.24 4 6.19 5.72 6.19 5.97c0 .2-.12 1.47 1.48 1.9 1.6.42 2.33.46 2.33 1.08 0 .62-.52.8-.95.8C8.62 9.76 8 9.82 8 9H6s-.14 2 2.95 2C12.05 11 12 9.04 12 8.74c0-.28-.06-1.37-1.81-1.83C8.44 6.46 8 6.45 8 5.81c0-.53.7-.59 1.03-.59.25 0 .8-.1.8.78Z" fill="#F0F3FA"/></svg>