<!-- by TradingView --><svg width="18" height="18" viewBox="0 0 18 18" xmlns="http://www.w3.org/2000/svg"><path fill="#F0F3FA" d="M0 0h18v18H0z"/><path d="M9 4a5 5 0 1 1 0 10A5 5 0 0 1 9 4Z" fill="url(#agubjttmp)"/><path d="M9 4.28a4.73 4.73 0 1 1 0 9.45 4.73 4.73 0 0 1 0-9.45Z" fill="url(#bgubjttmp)"/><path d="M5.92 10.12c-.05-.11-.15-.19-.24-.38-.09-.2-.26-.69-.41-.8-.31-.2-.2.03-.36.06l-.3-.39c-.02.37-.07.96.1 1.24.08.14.62.52.78.56a1.07 1.07 0 0 0-.36-.43l.64.4.13.12c.06.17.07.12.15.28.2.04.26-.05.4-.17.14-.12.24-.18.32-.34.12-.27.1-.34.5-.4.2.27-.1.19.28.26.15.03.37.04.46-.02l-.14-.15c-.4-.29-.4-1-.3-1.55-.29.13-.14.09-.3.33-.14.23-.1.09-.14.43l-.17-.26a.89.89 0 0 1-.27.2c.01.36.1.3-.18.52-.2.15-.15.18-.31.38l-.1.19-.18-.08Z" fill="url(#cgubjttmp)"/><path d="m10.48 12.18.01-.07c.04-.2.15-.62.44-.37.3.25-.07.42-.18.52.04.27-.02.4-.1.58-.3.18-.1.08-.42.07-.25 0-.22.16-.08.27.3.02.4-.05.65-.14l.2-.18c.39-.25.48-1 .1-1.34-.2-.16-.46-.15-.74-.22-.37-.08-.33-.27-.43-.6l-.04-.03c-.26-.02-.5.01-.4.32.1.3.47.19.75.68.06.11.06.12.1.23l.06.16c.06.13-.04 0 .08.12Z" fill="#38FEFE"/><path d="M11.55 6.64c-.1.25-.26.38-.33.7-.03.32.07.44.18.64v-.25c-.03-.73.74-.9 1.25-.81.3.05.17.1.28-.01-.23-.24-.36-.45-.85-.47-.02-.44-.16-.7-.48-.85.08.36.23.69-.04 1.05Z" fill="#48FC2E"/><path d="M6.3 6.13c.08-.25.27-.6.4-.86-.23.1-.79.54-.87.7-.26.5-.25.67-.27 1.3 0 .22.04.23-.15.32l-.08-.79c-.28.2-.2 0-.37.41-.23.52-.35.71 0 1.16.13.17.33.16.53.27.12.29.15.61.41.86a.17.17 0 0 0 .02-.04l.05-.56.07.7c.38-.3.21-.77.4-.91.07-.06.02.02.16-.07.12-.08.1-.1.18-.17.23-.16.22.07.38-.3l.06-.06.08-.08c.13-.2.1-.46.01-.62-.07.09-.04.13-.08.24 0-.22-.07-.41-.3-.54l-.03.43-.01.2c-.25-.23.02-.73-.18-.91-.13-.16-.07-.16-.09-.22-.02-.07 0-.06-.03-.16a1.2 1.2 0 0 0-.12-.22l-.18.39v-.47Z" fill="url(#dgubjttmp)"/><path d="M6.05 11c.02.25.23.38.42.32.05-.01.36-.24.48-.3-.14.26-.13.2-.08.56.07-.03.09-.06.1-.07l.14-.07c.17-.06.07.1.23-.2.19-.34.18-.4.23-.82-.04-.1.08-.09-.15-.04-.1.02-.1.05-.15.1-.2.22 0 .13-.36.2-.38.07-.4.3-.62.43l-.24-.1Z" fill="#6EFBF8"/><path d="m12.17 7.9-.02-.31c.2-.07.3-.04.5 0 .14.2.23.52 0 .77-.23.22-.5.09-.8.1-.1-.1-.13-.1-.3-.11-.14 0-.26.02-.4.04-.15.17-.2.03-.3.35l-.04.28.1.23.01.04.02.03.04.06c.36.6-.16.72-.26.52-.1-.16.04-.14.13-.28-.18-.05-.23-.03-.36.04-.15.52.31.75.78.58.57-.2.12-.63.1-.92l.1-.32c.24-.12.24-.24.53-.11a.96.96 0 0 0 1.3-1.07l-.05-.28c-.2-.14-.12-.23-.37-.28a.71.71 0 0 0-.52-.17c-.67 0-.96.85-.5 1.1.31.2.67.07.67-.31-.18.07-.19.08-.36.01Z" fill="url(#egubjttmp)"/><path d="M7.57 12.78c.18-.36-.2-.3-.3-.52.1-.2.18-.04.44-.79-.5.14-1.06.47-1.06 1.02 0 .08.03.16.05.25.1.01.02-.01.05.06.18.1.36.25.67.16.14-.11.06-.02.15-.18Z" fill="#4BFFFF"/><path d="M10.13 10.8c.22.2.2.38.58.26.14-.18.08-.16.04-.4.43.03.4.13.69.22.08.03.17.05.27.06l.2-.02c.18-.04.04-.01.12-.05.2-.02.28-.15.37-.27.32-.43-.1-.06.11-.34.11-.15.2-.15.28-.37.24-.64-.5-1.06-.9-.68-.2.18-.2.76.27.7.04-.37-.08 0-.11-.3.49-.39.71.62-.22.82l-.11.02-.12.02c-.6.06-1.49-.4-1.47.34Z" fill="#32FD2D"/><path d="m5.98 11.5-.62-.07c.13.5.33.43.64.68.3.25.78.18.65-.29-.4-.08-.08.09-.44.15-.21-.1-.21-.19-.23-.46Z" fill="#44FEFF"/><path d="M12.88 10.41c.35-.44.52-.44.53-.73.02-.5-.31-.2-.04-.94a.53.53 0 0 0-.33.3c-.14.29-.05.3.04.5.2.48-.46.35-.2.87Z" fill="#D5FE01"/><path d="M11.1 11.13c-.02.53.68.2 1.02.31-.07.22-.91.5-.28.85.25.05.27-.01.38-.18 0-.2 0-.16-.1-.29.29-.08.39-.2.4-.53.03-.3.15-.2.17-.49a.9.9 0 0 1-.29.25c-.68.4-1-.24-1.3.08Z" fill="url(#fgubjttmp)"/><path d="M5.15 10.98c.2 0 .17-.04.37.01.15.04.12.09.26.04-.1-.17-.02-.15-.17-.28l-.82-.46c0 .44.17.5.38.56-.06.08-.05.01-.02.13Z" fill="#F7F412"/><path d="M9.76 8.84c.03.2-.03.3-.1.44-.24.05-.48-.08-.45-.37.13-.2.39-.37.55-.07Zm-.93.24c-.1.12-.23.25-.46.2-.14-.24-.15-.34 0-.56.28-.08.49.06.46.36Zm-.18-.63C8.4 8.3 8 8.61 8 9c0 .16.1.34.28.5l.08.02c.26.13.51-.05.65-.22.05.07.5.45.65.2l.07-.02c.22-.11.28-.27.27-.46 0-.12-.03-.25-.07-.4l-.13-.1-.01-.02c-.33-.14-.58-.06-.78.16-.08-.12-.17-.17-.36-.2Z" fill="url(#ggubjttmp)"/><path d="M10.44 5.42c-.08-.23-.17-.34-.5-.37l.02.45c-.23.12-.36.26-.64.02l-.09-.08-.06-.05c0-.77.44-.45.68-.73-.23 0-.43-.08-.77-.07-.25 0-.63.06-.8.02-.14.15-.03.06-.22.15-.2.1-.38.17-.5.45h.11l.08-.02c-.14.1-.21.18-.25.4l-.01.04-.02.04-.02.08v.22l.17.4-.06.02-.27-.33c-.08 1.8 1.2 1.07 1.88 1.5.58-.08 1.07.47 1.25.96.1.26.1.38.1.7l.1-.35c0-.27-.07-.33.2-.45-.14-.17.01-.03-.15-.12l-.17-.06c-.03-.17 0-.22.1-.34.3-.02.17.04.38.08l-.05-.2c-.07-.07-.04-.04-.13-.09.06-.12.12-.2.13-.37l-.36.12-.08-.01-.4.05-.04-.11c0-.02 0-.02-.02-.03-.49.22-.8.03-1.16-.1l.04-.02.11-.05c.06-.02.07-.01.15-.05.07-.02.18-.09.23-.12.12-.1.23-.24.22-.46 0-.42-.5-.68-.76-.25.04.39.17.17.16.43-.54.1-.82-.27-.75-.75.15.14.07.2.26.37l.02-.04.03-.07c.25-.51.62-.35 1.06-.2.33.46.28.7-.02 1.17.36-.04.3-.17.6-.14.44-.22.84-.37.72-1.09l-.1-.1c-.06.11-.2.3-.28.28V5.7l-.12-.28Z" fill="url(#hgubjttmp)"/><path d="M9.86 10.43c.24-.05.43-.24.34-.5a.96.96 0 0 0-.35.32l-.15.01c-.28.26-.98.27-1.33.08h-.03c.32.63-.03.66-.35 1.15-.2.32-.39 1-.08 1.36.13.27.2.29.44.45.58.13.6.17 1.18-.01.16-.15.31-.24.4-.48l.1-.1c.25-.9-.15-1.6-1.1-1.44.03-.05-.37.26-.3.63.04.29.27.38.6.28v-.46c.44 0 .32.7-.28.69h-.07c-.54-.18-.66-.74-.33-1.28.23-.37.66-.58 1.28-.7h.03Z" fill="url(#igubjttmp)"/><defs><linearGradient id="agubjttmp" x1="9" y1="4" x2="9" y2="14" gradientUnits="userSpaceOnUse"><stop stop-color="#109AF9"/><stop offset="1" stop-color="#A211E0"/></linearGradient><linearGradient id="bgubjttmp" x1="9" y1="4.28" x2="9" y2="13.72" gradientUnits="userSpaceOnUse"><stop offset=".04" stop-color="#A57A70"/><stop offset=".32" stop-color="#350100"/><stop offset="1" stop-color="#02233B"/></linearGradient><linearGradient id="cgubjttmp" x1="4.44" y1="9.15" x2="7.97" y2="9.44" gradientUnits="userSpaceOnUse"><stop offset=".14" stop-color="#FFF500"/><stop offset=".75" stop-color="#EFB806"/></linearGradient><linearGradient id="dgubjttmp" x1="7.68" y1="7.24" x2="5.18" y2="8.71" gradientUnits="userSpaceOnUse"><stop offset=".21" stop-color="#F96C1A"/><stop offset=".47" stop-color="#FFF000"/></linearGradient><linearGradient id="egubjttmp" x1="10.47" y1="8.41" x2="13.71" y2="8.41" gradientUnits="userSpaceOnUse"><stop offset=".2" stop-color="#72ED00"/><stop offset="1" stop-color="#C9FF00"/></linearGradient><linearGradient id="fgubjttmp" x1="11.9" y1="10.8" x2="11.9" y2="12.31" gradientUnits="userSpaceOnUse"><stop stop-color="#26F960"/><stop offset="1" stop-color="#4CFFFF"/></linearGradient><linearGradient id="ggubjttmp" x1="8.01" y1="9" x2="10.13" y2="9" gradientUnits="userSpaceOnUse"><stop stop-color="#F3C923"/><stop offset=".48" stop-color="#E4EBE8"/><stop offset="1" stop-color="#4FF631"/></linearGradient><linearGradient id="hgubjttmp" x1="9.13" y1="4.59" x2="10.62" y2="8.56" gradientUnits="userSpaceOnUse"><stop stop-color="#FFFF6F"/><stop offset=".33" stop-color="#F5190C"/><stop offset=".65" stop-color="#F3230C"/><stop offset=".96" stop-color="#CAF301"/></linearGradient><linearGradient id="igubjttmp" x1="8.98" y1="9.94" x2="8.98" y2="13.41" gradientUnits="userSpaceOnUse"><stop offset=".54" stop-color="#41FEFF"/><stop offset="1" stop-color="#fff"/></linearGradient></defs></svg>