<!-- by TradingView --><svg width="18" height="18" viewBox="0 0 18 18" xmlns="http://www.w3.org/2000/svg"><path fill="url(#a0pyvik5a)" d="M0 0h18v18H0z"/><path d="m10.4 4.55.16.31c0 .02-.01.03-.04.03l-.13-.22c-.14-.2-.4-.07-.36.18-.08.03-.1.1-.07.22.03.09.1.19.2.29-.17-.06-.24-.24-.28-.35a.1.1 0 0 0-.03-.04.09.09 0 0 0-.12 0 .77.77 0 0 1-.25.17c-.07.03-.14.08-.21.13a.58.58 0 0 1-.5.11.7.7 0 0 1-.36-.15c-.11-.11-.06-.25-.12-.38-.06-.16-.16-.42-.36.06a.46.46 0 0 0-.05.2c0 .06-.05.1-.13.14-.03.02-.05 0-.06-.02v-.07l.13-.3c.07-.18-.1-.27-.22-.25-.02 0-.03-.02-.04-.06.26-.26.58-.4.97-.43a.78.78 0 0 1 .84 0c.03.02.05.03.08.03.35-.01.67.12.94.4Z" fill="#FFE8AD"/><path d="m10.16 5.36.2.13-.36.13c-.04.02-.09-.01-.1-.06a.29.29 0 0 0-.07-.16.07.07 0 0 0-.06-.03.7.7 0 0 0-.23.07.55.55 0 0 1-.23.05h-.3a1.1 1.1 0 0 1-.88-.57c-.05-.09-.12-.09-.2 0 .03-.24.1-.43.25-.59a.1.1 0 0 1 .07-.03h.03c.03 0 .04.02.03.05a.53.53 0 0 0 0 .35c.01.04.02.1.01.14-.03.2.33.51.45.54.17.04.34 0 .5-.11.07-.05.14-.1.21-.13.1-.04.17-.1.25-.17.05-.05.13-.03.15.04.04.1.11.29.28.35Z" fill="#F8D397"/><path d="M7.56 4.55c.01.04.02.06.04.06-.14.2-.22.34-.23.43-.02.16.01.25.11.25 0 .03-.03.04-.07.04-.05 0-.06.02-.03.06v.03c0 .03.01.05.04.05l.41.11c.04.01.06 0 .08-.04l.06-.19c.02-.06.1-.08.14-.03.1.11.22.16.37.16.03 0 .06 0 .08.03.07.06.15.1.24.1.21.04.61.08.84-.02.05-.02.1-.02.15 0 .06.03.1.08.15.13l.02.03H10a.7.7 0 0 0 .45-.15.46.46 0 0 0 .17-.26c0-.02.02-.03.05-.03.01.19 0 .36-.03.52l-.16.15a.16.16 0 0 1-.07.03c-.2.06-.5.09-.65-.1-.01-.02-.03-.03-.06-.02a.42.42 0 0 1-.21.02 1.4 1.4 0 0 0-.24-.03h-.47a3.4 3.4 0 0 0-.66-.09.08.08 0 0 0-.07.04l-.09.13-.02.03H7.9a.9.9 0 0 0-.28.01c-.03 0-.05 0-.07-.02a.9.9 0 0 1-.27-.44v-.21c.01-.24.08-.47.19-.68a.13.13 0 0 1 .05-.06l.04-.04Z" fill="#B9AA88"/><path d="M10.52 4.9c.02.1.02.2 0 .3 0 .04-.02.05-.05.06-.24.06-.37-.16-.44-.4-.02-.1 0-.18.02-.21a.22.22 0 0 1 .08-.06.2.2 0 0 1 .19.02l.07.06.13.22Z" fill="#050325"/><path d="M7.6 4.61a.43.43 0 0 1 .1-.01l.07.04a.2.2 0 0 1 .05.23l-.12.29a.3.3 0 0 1-.22.13c-.1 0-.13-.09-.11-.25.01-.09.09-.23.23-.43Z" fill="#020113"/><path d="M10.35 5.5c.16-.04.26-.15.3-.35.02.05.02.1.02.16-.03 0-.04 0-.05.03-.02.1-.08.19-.17.26-.36.28-.35.28-.62.15-.05-.03-.14-.18-.2-.16-.22.1-.62.06-.83.03a.47.47 0 0 1-.24-.11.12.12 0 0 0-.08-.03.46.46 0 0 1-.37-.16.08.08 0 0 0-.04-.02c-.04-.02-.08 0-.1.05l-.06.19c-.02.04-.15.13-.19.12-.06-.02-.57-.23-.31-.33.04 0 .06 0 .07-.04a.3.3 0 0 0 .22-.13c-.01.02-.01.05 0 .07 0 .03.02.04.05.02.08-.03.12-.08.13-.14 0-.08.02-.14.05-.2.08-.08.15-.08.2.01a1.11 1.11 0 0 0 .6.52.7.7 0 0 0 .28.05h.3c.08 0 .15-.02.23-.05a.7.7 0 0 1 .23-.07c.02 0 .05 0 .06.03.24.26.05.27.52.1Z" fill="#E4C093"/><path d="M10.03 4.85c.07.25.2.47.44.41.03 0 .04-.02.05-.06.02-.1.02-.2 0-.3.03-.01.04-.02.04-.04.06.08.1.18.1.3-.05.2-.15.3-.3.33l-.2-.13a.71.71 0 0 1-.2-.3c-.04-.1-.01-.18.07-.2Z" fill="#FCE2E5"/><path d="m12.65 5.11.24-.13a.08.08 0 0 1 .06-.01c.02 0 .04.02.05.04.04.06.05.12.03.19 0 .03-.02.05-.04.07a.26.26 0 0 0-.05.1.2.2 0 0 1 0 .1l-.05.06c-.2.07-.34.22-.5.4a.9.9 0 0 1-.32.08.1.1 0 0 0-.07.03.76.76 0 0 1-.55.2c-.16-.01-.3.03-.46.06-.04 0-.05-.02-.04-.05 0-.02 0-.04.02-.06l.79-.53c.11-.04.16-.12.15-.24l.4-.44c.05-.04.13-.03.15.04l.05.14c.02.04.04.05.07.02l.07-.07Z" fill="#FFE8AD"/><path d="m6.1 5.46-.02.12c0 .03 0 .05.03.07.03.03.08.05.13.06l.74.5c0 .07-.03.1-.07.1l-.56-.14a.63.63 0 0 1-.17-.07c-.14-.08-.28-.08-.41-.18a4.46 4.46 0 0 1-.6-.55.12.12 0 0 0-.07-.04h-.06c-.07-.04-.1-.12-.06-.25.01-.03.03-.05.06-.05.14.02.25.08.33.16.08.09.13.07.14-.05 0-.04.02-.07.03-.1.03-.04.05-.05.09-.03.18.11.34.26.47.45Z" fill="#FEDEA5"/><path d="M5.04 5.32h.06l.08.05c.17.19.36.37.59.55.13.1.27.1.4.18.06.03.12.06.18.07l.56.14c.04 0 .06-.03.07-.1l.23.14c.05.06.06.1.05.15 0 .03-.03.04-.05.03-.17-.04-.33-.1-.5-.08l-.23.02a.51.51 0 0 1-.22-.04 5.06 5.06 0 0 0-.66-.24l-.66-.62c-.02-.08.01-.15.1-.19l.01-.02v-.04Z" fill="#C9E9AD"/><path d="M12.94 5.36c.16.03.2.13.1.28 0 .03 0 .06.02.08.04.06.07.12.08.18l-.01.04-.03.03-.99.63-1.5-.02c-.03 0-.04-.01-.04-.05 0-.02 0-.05.02-.07a.24.24 0 0 1 .09-.04c.04-.02.07-.06.06-.12l.23-.1a.12.12 0 0 0-.02.05c0 .03 0 .05.04.05.15-.03.35-.15.51-.14.52.02.92-.45 1.39-.63l.04-.05a.2.2 0 0 0 0-.12Z" fill="#B5EFBB"/><path d="M7.28 5.54a.9.9 0 0 0 .27.44c.02.02.04.03.07.02.26-.05.28.05.43-.17a.08.08 0 0 1 .07-.04c.23 0 .44.03.66.08.07.02.23.02.47 0l.24.04c.07.01.15 0 .21-.02.03 0 .05 0 .06.02.15.19.45.16.65.1.03 0 .05-.01.07-.03l.16-.15c-.05.2-.13.35-.23.46a4.63 4.63 0 0 1-.62-.1.3.3 0 0 1-.16-.11.08.08 0 0 0-.07-.04A5.7 5.7 0 0 1 8.17 6c-.03 0-.05 0-.06.03-.05.14-.15.2-.29.17-.03 0-.05 0-.06.02-.05.06-.1.08-.17.07a.09.09 0 0 1-.07-.04.61.61 0 0 0-.13-.17l-.12-.34.01-.2Z" fill="#779879"/><path d="m4.94 5.57.66.62.04.02c.2.06.42.13.62.22.07.03.14.04.22.04.07 0 .15 0 .22-.02.18-.02.34.04.5.08.03.01.05 0 .06-.03.01-.04 0-.1-.05-.15.08.03.18.1.29.22l-1.55.1-1.05-.69c-.02-.01-.03-.04-.03-.07.01-.05.04-.1.08-.13.02-.02.03-.05.02-.08l-.03-.13Z" fill="#9EF2B8"/><path d="M10.41 6.3a1 1 0 0 1-.7.46c-.03 0-.05.03-.05.06s0 .05.03.07c.04.01.08.01.14 0-.44.12-1.06-.06-1.6.01a.2.2 0 0 0 .03-.11c0-.03 0-.04-.03-.03l-.1-.01a1.37 1.37 0 0 1-.74-.68c.18.15.45.18.72-.05.01-.03.03-.04.06-.03.4.07.87.09 1.39.05.03 0 .05.01.07.04.05.06.1.1.15.11.11.03.32.07.63.1Z" fill="#068F61"/><path d="M10.74 6.3c.6.13.37.29 1.37.3l-.46.27-1.73.03.82-.6Z" fill="#9EF2B8"/><path d="M9.42 6.72v.01a.1.1 0 0 0-.05-.09c-.02-.01-.04-.02-.07-.01-.29.03-.57.03-.84.01-.04-.12.06-.16.3-.11.1.02.18.03.25.02.08-.01.16-.03.24-.07a.11.11 0 0 1 .1.01l.04.04.02.04v.15ZM7.5 6.57l.8.4c-.5 0-1.27-.1-1.77-.08a.57.57 0 0 0-.26.02.62.62 0 0 0-.32-.25l1.55-.09Z" fill="#6BF0A9"/><path d="M13.74 7.28c.03.15-.06.3-.2.29-.4-.03-.72 0-1.12-.07a1.05 1.05 0 0 0-.45 0 5.7 5.7 0 0 1-1.15.17c-.7.04-.55.43-1.3 0-.3-.1-.53-.13-.66-.1l-.36.06c-.12.01-.24.1-.37.26-.04-.01-.06-.01-.07 0l.03-.04a.05.05 0 0 0 0-.07c-.07-.1-.15-.13-.25-.1a.57.57 0 0 1-.24 0 1.63 1.63 0 0 1-.5-.17.54.54 0 0 0-.18-.06c-.17-.03-.3-.08-.48-.06-.52.05-1.02.06-1.52.02-.2-.01-.4.03-.6 0v-.04c-.02-.02-.04-.02-.06 0a.25.25 0 0 0-.1.22c-.03-.05-.03-.11.01-.2.02-.02.01-.04-.02-.05-.12-.06-.17-.16-.14-.3a.1.1 0 0 1 .03-.06.08.08 0 0 1 .05-.02h.44c.05 0 .06-.03.05-.08a.34.34 0 0 1 0-.26 3.3 3.3 0 0 1 1.05.26c.2.05.42.05.64.03a.57.57 0 0 1 .26-.02c.37 0 .73.03 1.1.02l.45.03c.13.02.28 0 .45-.04.27-.07.56-.06.83-.04.03 0 .04 0 .05-.04v-.09c0 .05.01.09.04.12h.04c.02-.01.03-.02.03-.04 0-.03 0-.03.02-.01.09.09.18.12.29.1.07-.03.1-.03.09 0l1.73-.03c.29.03.57.04.84-.07.23-.09.47-.16.73-.21.03 0 .06 0 .09.02.1.06.11.16.05.28v.02l.01.03h.02l.5.01c.04 0 .07.02.09.06.03.09.03.16-.02.22-.04.05-.11.06-.22.05Z" fill="#FEDEA5"/><path d="M9.41 6.73v.1c0 .02-.02.04-.05.03a2.6 2.6 0 0 0-.83.04c-.4.17-.12 0-.3 0 .17-.02.24-.1.23-.26a5.08 5.08 0 0 0 .91 0 .1.1 0 0 1 .04.09Z" fill="#B5EFBB"/><path d="M13.74 7.28c.13.2.12.32-.02.38-.54.01-1.04.2-1.57.17-.42-.02-.84 0-1.27 0-.1 0-.19.02-.27.07l-.25.15c-.1.07-.23.08-.38.03l-.45-.41c.74.43.6.04 1.3 0 .41-.02.8-.08 1.14-.17.13-.03.28-.03.45 0 .25.05.5.03.75.03.02 0 .09 0 .2-.03a.8.8 0 0 1 .2 0c.15 0 .2-.07.17-.22Z" fill="#C9E9AD"/><path d="M8.06 7.89c-.08.07-.2.08-.34.03l-.81-.27c-.27-.08-.6-.03-.9-.04l-1.09-.05c-.2 0-.38.02-.55.08H4.3a.24.24 0 0 0-.13-.05c-.01-.08.02-.16.09-.22.02-.02.04-.02.06 0v.03c.2.04.4 0 .6.01.5.04 1 .03 1.52-.02.18-.02.31.03.48.06.06 0 .12.03.18.06.15.08.32.14.5.17.08.02.16.01.24 0 .1-.03.18 0 .25.1.02.02.02.04 0 .07l-.03.04Z" fill="#E7E4AA"/><path d="M8.06 7.89c0-.01.03-.01.07 0-.13.14-.34.28-.4.47-.15-.23-.04-.22-.58-.38A8.08 8.08 0 0 0 4.5 7.7l-.26-.03c-.03-.01-.05-.04-.06-.08.04 0 .08.01.13.04.02.02.05.02.07 0 .17-.05.36-.08.55-.07l1.1.05c.29.01.62-.04.89.04l.81.27c.14.05.26.04.34-.03Z" fill="#C9E9AD"/><path d="m9.53 7.67.45.4c.18.24.29.52.32.85-.1 1.93-2.17 2.4-2.6.29l-.03-.3c0-.23.12-.45.14-.69l.32-.33c.13-.16.25-.25.37-.26l.36-.06c.13-.03.36 0 .67.1Z" fill="#0C363C"/><path d="m13.72 7.66-.06.04c-.03.02-.03.05-.02.08.04.05.04.11 0 .18a.13.13 0 0 1-.04.05.11.11 0 0 1-.07.02l-2.34-.01h-.4c-.02 0-.04.03-.04.06l-.02.25.02.78-.02.53a.36.36 0 0 0-.09.23c0 .03-.02.05-.05.06l-.29.1a.07.07 0 0 0-.03.01c-.11.12-.19.1-.22-.06.22-.31.3-.67.25-1.06a1.6 1.6 0 0 0-.32-.84c.15.05.27.04.38-.03.08-.06.17-.1.25-.15a.56.56 0 0 1 .27-.07c.43 0 .83-.2 1.25-.18.52.02 1.05.02 1.59 0ZM4.23 7.67l.26.03a10.58 10.58 0 0 1 1.79.04c.3-.01.6.03.9.12.53.15.4.27.55.5-.2.41-.23.83-.08 1.27.03.1.11.13.12.25 0 .03 0 .06.03.08l.14.2c-.1.12-.2.13-.32.06a.13.13 0 0 0-.16 0c-.14.11-.13.23.04.34l.07.07c.07.07.09.14.18.19.17.1.36.17.54.23.19.06.37-.01.57.05v.16l-1.18-.07c.04-.08.02-.14-.05-.17-.1-.05-.18-.06-.23-.04v-.06a.12.12 0 0 0-.03-.05.77.77 0 0 1-.24-.5c0-.3-.01-.58-.03-.87l.03-1.24c0-.07-.01-.13-.03-.17-.02-.05-.06-.07-.12-.08a.7.7 0 0 0-.29.01 37 37 0 0 0-2.28.03c-.04 0-.08-.03-.12-.1.02-.14 0-.24-.06-.28Z" fill="#9EF2B8"/><path d="M9.62 8.38a.56.56 0 0 0-.31-.24c-.1-.01-.17-.06-.18-.14-.01-.06.04-.1.09-.08l.1.05c.04.02.06.01.08-.02l.06-.09c.01-.02.03-.03.06-.03.05 0 .1.03.14.07.06.05.06.1.01.17a.1.1 0 0 1-.07.04h-.01a.01.01 0 0 0 0 .01c.1.12.1.2.03.26Z" fill="#01AAAC"/><path d="M7.13 8.26c-.04.15-.05.3-.04.45 0 .03 0 .06-.02.09-.02.06-.1.2-.1.19-.05-.37-.2-.6-.44-.66l.16-.3A.7.7 0 0 1 6.98 8c.06 0 .1.03.12.08.02.04.03.1.03.17ZM11.2 8.02c.03.09.08.17.14.25l-.2.13c-.14.09-.35.08-.36.07a.35.35 0 0 1-.05-.14l.02-.25c0-.03.02-.05.05-.05l.4-.01Z" fill="#03E08B"/><path d="M9.3 8.14c.14.03.24.11.32.24-.06-.01-.09.01-.08.07l.01.03c.11.12.08.22.16.35.02.03.04.04.07.04l.1-.01c.05-.01.08.01.1.07v.09c-.02.07-.06.1-.12.1a.15.15 0 0 0-.12.04c-.07.07-.1.05-.1-.06a.96.96 0 0 0-.2-.65.12.12 0 0 0-.08-.05.2.2 0 0 1-.1-.04c-.02-.02-.02-.05 0-.07.03-.05.04-.1.05-.15Z" fill="#01848A"/><path d="M7.81 8.22c-.01.15-.04.29-.08.42-.04.12-.06.21-.06.28 0 .1 0 .2.03.29 0 .02.01.02.04.02 0 .04.01.07.03.07-.04.14 0 .24.09.32 0 .07.02.12.07.14 0 .13.07.22.21.27.02 0 .03.01.03.03l-.01.02h-.01v.02c0 .04.02.07.05.07-.08 0-.13.01-.14.06v.05a.3.3 0 0 0-.12-.11 2.2 2.2 0 0 1-.3-.54 1.57 1.57 0 0 1 .17-1.4Z" fill="#068F61"/><path d="M7.13 8.26 7.1 9.5v-.26c0-.1-.02-.1-.06-.02l-.15.27a.22.22 0 0 0-.05.06c-.03-.3-.11-.61-.24-.93-.04-.09-.08-.14-.13-.17l.06-.12c.56.16.37.86.54.47a.18.18 0 0 0 .02-.1c-.01-.15 0-.3.04-.44ZM11.34 8.27l.17.29c-.19.06-.34.19-.45.37a.29.29 0 0 0-.04.12l-.02.13c0 .13.06.24.07.39l-.18-.3c-.04-.12-.09-.18-.14-.16l-.02-.78.05.14.03.01c.02 0 .03-.01.02-.04.1.01.21.02.3-.04l.21-.13Z" fill="#6BF0A9"/><path d="m9.46 8.78-.6-.25a.06.06 0 0 0-.06.01l-.25.21c-.05 0-.03-.07.06-.2a.16.16 0 0 1 .05-.05.14.14 0 0 1 .07-.02.3.3 0 0 0 .18-.08.1.1 0 0 1 .08-.02c.22.04.38.17.47.4Z" fill="#01AAAC"/><path d="M6.47 8.45c.05.03.1.08.13.17.13.32.2.63.24.93l-.22.33-.19.35a1.3 1.3 0 0 1-.27.36.05.05 0 0 1-.04.01H6.1c-.1-.04-.28-.06-.36-.14a.46.46 0 0 0-.25-.1c.11-.05.26-.14.43-.26a.8.8 0 0 0 .31-.44c.05-.2 0-.38-.16-.57l.4-.64Z" fill="#C9DA91"/><path d="m8.12 9.05-.01.18c-.01.08 0 .15.05.24.06.1.15.22.28.35l-.1.13c-.04.03-.03.05 0 .07a.5.5 0 0 1 .17.08c.07.05.09.04.06-.04l-.01-.04c0-.03 0-.06.03-.07a.71.71 0 0 0 .28-.38c.01-.03.03-.04.06-.04l.08.01L9 9.7c0 .04 0 .05.04.04.13-.03.22 0 .26.09 0 .02-.02.03-.04.04a.26.26 0 0 0-.24.22c0 .03-.02.05-.05.06-.1.03-.15.1-.14.23l-.17.01c-.16.01-.33-.11-.46-.2-.1-.03-.01-.27.01-.3a.08.08 0 0 0 .01-.09c-.05-.11-.14-.2-.18-.32a1.4 1.4 0 0 1-.07-.27h-.01c-.06.1-.12.12-.19.1-.02 0-.03-.03-.03-.07l.02-.03a.05.05 0 0 0 0-.05.47.47 0 0 1 .03-.34c0-.03 0-.05-.02-.07-.03-.03-.03-.05 0-.07a.38.38 0 0 1 .13-.03c.1 0-.01-.03.18-.07h.03c.04.02.05.06.04.1a1 1 0 0 0-.04.38Z" fill="#01AAAC"/><path d="m11.51 8.56.07.09c-.18.07-.28.2-.3.38 0 .12 0 .28.03.47.03.15.07.27.15.37.13.16.3.33.5.49.04.04.05.07.02.1a.53.53 0 0 0-.14.14c-.02.02-.04.03-.07.02a.3.3 0 0 1-.08-.07l-.62-.98c0-.15-.07-.26-.07-.4l.02-.12c0-.05.02-.09.04-.12.11-.18.26-.3.45-.37Z" fill="#AFE89F"/><path d="m11.58 8.65.1.21a.24.24 0 0 0-.14 0c-.03.02-.04.04-.04.07 0 .13.02.25.06.35.02.03.02.06 0 .09-.04.16-.05.27-.03.34.12.35.34.57.66.66.03.05 0 .1-.1.16-.03.02-.07 0-.1-.08.02-.02.01-.05-.03-.09-.2-.16-.37-.33-.5-.5a.73.73 0 0 1-.15-.36l-.03-.47c.02-.19.12-.31.3-.38Z" fill="#C9DA91"/><path d="M9.53 8.87c.03.16.02.3-.01.39-.04.1-.1.13-.18.09.03-.15.05-.3.05-.44 0-.07.05-.09.14-.04Z" fill="#01AAAC"/><path d="M11.69 8.86c.08.18.15.28.2.31.2.1.38.24.55.42.05.05.05.1 0 .15l-.08.05c-.07.06-.07.11-.01.17.09.08.14.18.16.3-.03.12-.09.16-.17.12-.07-.03-.12-.04-.15-.01-.32-.09-.54-.3-.66-.66-.02-.07-.01-.18.04-.34v-.1a.87.87 0 0 1-.07-.34c0-.03.01-.05.04-.06.04-.02.09-.02.15-.01Z" fill="#F8D397"/><path d="M10.3 8.92c.05.4-.03.75-.25 1.06-.28.46-.69.67-1.21.62-.3-.04-.56-.14-.77-.32-.01-.02-.02-.04-.01-.05.01-.05.06-.07.14-.06.13.1.3.22.46.21l.17-.01c.05.06.1.07.17.04a.08.08 0 0 0 .04-.06c.03-.1.1-.16.2-.17.06-.01.08-.05.07-.12l-.05-.2c.02 0 .03-.02.04-.04.05.06.1.13.12.21 0 .03.02.06.05.08.06.04.07.09.03.15-.01.03 0 .04.02.02l.17-.1a.07.07 0 0 0 .03-.05c.01-.03-.01-.08-.06-.16.19-.18.3-.38.33-.62 0-.07.01-.11.02-.13.1-.14.15-.12.14.06-.01.16-.07.34-.17.52v.03l.02.01h.03c.2-.27.28-.58.27-.92Z" fill="#07C793"/><path d="M6.07 9.09c.16.19.21.38.16.57a.8.8 0 0 1-.31.44c-.17.12-.32.2-.43.25-.03.05-.06.03-.1-.07a.19.19 0 0 1 .03-.18l.17-.23c.03-.03.02-.06-.01-.08-.27-.17-.03-.32.14-.47a.51.51 0 0 1 .19-.12c.1-.03.15-.07.16-.11Z" fill="#F8D397"/><path d="M8.44 9.82a1.6 1.6 0 0 1-.28-.35.4.4 0 0 1-.05-.24l.36-.07c.03 0 .06 0 .07.03l.17.26c.02.02.02.05 0 .07a.53.53 0 0 1-.27.3Z" fill="#01848A"/><path d="m10.89 9.28.18.29.62.98c.01.05 0 .09-.01.11a.07.07 0 0 1-.11 0c-.2-.25-.32-.55-.49-.8a3.38 3.38 0 0 1-.22-.42.15.15 0 0 1-.02-.08c0-.03.02-.06.05-.08Z" fill="#15684C"/><path d="M9.99 9.35c-.03.24-.14.44-.33.62l-.22-.34a.1.1 0 0 1 0-.09c.04-.1.11-.13.2-.1.03 0 .05 0 .06-.02.07-.07.17-.1.29-.07Z" fill="#01848A"/><path d="M6.9 9.5c.05.07.05.14 0 .2-.2.23-.37.59-.55.9a.1.1 0 0 1-.03.03.1.1 0 0 1-.08.01c-.25-.1.04-.11.19-.41.06-.12.12-.24.2-.35a71.48 71.48 0 0 0 .26-.39Z" fill="#15684C"/><path d="M7.93 9.76c-.05-.02-.07-.07-.07-.14.04-.05.09-.07.12-.06.03 0 .05.01.06.05.02.08-.02.13-.1.15Z" fill="#01AAAC"/><path d="M10.73 9.64c.03.28.01.55-.04.81l-.1.27c-.05.08-.09.16-.12.26l-1.38.14c-.02 0-.03 0-.05-.02H9a.22.22 0 0 0-.13 0c-.2-.06-.38 0-.57-.05a3.21 3.21 0 0 1-.54-.23c-.1-.05-.11-.12-.18-.2a.38.38 0 0 0-.07-.06c-.17-.11-.18-.23-.04-.34a.13.13 0 0 1 .16 0c.12.07.22.06.32-.05.05.02.1.06.13.11.2.18.46.28.77.32.52.05.93-.16 1.2-.62.04.16.12.18.23.06l.03-.02.3-.09c.02 0 .04-.03.04-.06.01-.1.04-.18.09-.23Z" fill="#78FBC0"/><path d="m7.68 11.2.01 1.5-.01.44c.02-.64-.42-.17-.63-.21a.07.07 0 0 1-.06-.04.36.36 0 0 1-.04-.17l.45-1.74c.05-.02.12-.01.23.04.07.03.09.09.05.17Z" fill="#D3CE9A"/><path d="M10.47 10.98c.04.04.07.15.07.34-.12-.06-.2-.02-.26.12a.08.08 0 0 1-.05.05h-.07c-.02-.12-.1-.18-.26-.18-.36 0-.65.02-.9.07v-.28h.04c.02.02.03.02.05.02l1.38-.14Z" fill="#A2DEA7"/><path d="M8.86 11.1c.04-.02.08-.01.13 0l.01.28V13.29a.2.2 0 0 1-.14 0V11.1Z" fill="#181E26"/><path d="m7.68 11.2 1.18.06v1.53c-.38.04-.77 0-1.17-.1v-1.5Z" fill="#EFE0A0"/><path d="M10.16 11.5c-.02 0-.03.01-.03.03l-.01 1.18a2 2 0 0 1-.55.01A1.2 1.2 0 0 1 9 12.5v-1.11c.25-.05.54-.07.9-.07.15 0 .24.06.26.18Z" fill="#FEDEA5"/><path d="m10.54 11.32.35 1.58a.26.26 0 0 0-.13.1c-.02.01-.04.02-.07 0-.17-.06-.37-.02-.37.12 0 .04-.16.06-.19.1l-.01-.5c0-.12-.28-1.6.42-1.4Z" fill="#E4D5AC"/><path d="M9 12.5c.16.11.35.2.57.22a2 2 0 0 0 .55 0l.01.5.11.22c.02.03 0 .04-.02.05-.4.07-.8.06-1.21-.05L9 13.3v-.8Z" fill="#C9E9AD"/><path d="M6.95 12.72c0 .06.01.12.04.17.01.02.03.04.06.04.2.04.65-.43.63.2.02.05.02.1 0 .15l-.22.24c-.14-.03-.28.04-.5-.05-.1-.04-.2-.1-.3-.16l.22-.3a.18.18 0 0 0 .04-.09l.03-.2Z" fill="#A2DEA7"/><path d="M8.86 12.8v.55c-.02 0-.03 0-.03.02s-.01.03-.03.03a4.34 4.34 0 0 1-1.08-.08 1.89 1.89 0 0 1-.05-.04c.03-.05.03-.1 0-.14l.02-.44c.4.1.8.13 1.17.1Z" fill="#C9E9AD"/><path d="m10.9 12.9.24.46a.37.37 0 0 1-.2.13c-.08.02-.2.03-.37.03a.1.1 0 0 1-.08-.02.75.75 0 0 1-.25-.38l.04-.15c.01-.03.3-.01.41.04.03 0 .05 0 .07-.02a.26.26 0 0 1 .13-.09Z" fill="#B5EFBB"/><path d="M10.24 13.12c.04.14.12.27.25.38a.1.1 0 0 0 .08.02c.17 0 .29-.01.36-.03a.37.37 0 0 0 .21-.13c.11.14.1.27-.03.4a.09.09 0 0 1-.08.02c-.34-.04-.6.03-.78.22H9.2a.18.18 0 0 1-.13-.06.22.22 0 0 1-.05-.15v-.35c.4.1.81.12 1.21.05.03 0 .04-.02.02-.05l-.1-.22a.25.25 0 0 0 .03-.13c0-.03.02-.04.04-.02.02 0 .02.02.03.05Z" fill="#78FBC0"/><path d="m7.67 13.28.05.04.05.02c.34.06.68.08 1.03.06.02 0 .03 0 .03-.03 0-.01.01-.02.03-.02v.4H7.5c-.03 0-.04-.02-.05-.05a.4.4 0 0 1 .01-.18l.21-.24Z" fill="#9EF2B8"/><path d="M6.67 13.31c.09.07.19.12.29.16.22.09.36.02.5.05a.4.4 0 0 0 0 .18c0 .03.01.05.04.05h1.36c0 .14-.06.22-.2.23-.2.02-.52.01-.97-.01-.14-.01-.23-.06-.27-.14a.07.07 0 0 0-.03-.03.06.06 0 0 0-.03 0c-.19 0-.49 0-.65-.1a.12.12 0 0 1-.05-.06.49.49 0 0 1 0-.33Z" fill="#78FBC0"/><path d="M9.28 4.64c.02.18-.03.31-.13.41-.08.09-.2.12-.33.09-.28-.06-.34-.27-.18-.65.25-.16.47-.1.64.15Z" fill="#050325"/><path d="M8.64 4.49c-.16.38-.1.6.18.65.13.03.25 0 .33-.09.1-.1.15-.23.13-.41.2.16.16.35-.1.59a.5.5 0 0 1-.26.12.27.27 0 0 1-.19-.04.61.61 0 0 1-.31-.54c0-.07.02-.13.06-.18a.3.3 0 0 1 .16-.1Z" fill="#FCE2E5"/><path d="M8.74 7.89a.13.13 0 0 1-.03-.08c0-.03 0-.06.02-.08a.1.1 0 0 1 .07-.05c.14-.01.26 0 .38.03.05.02.1.16.02.17H9.2L9 7.83c-.04-.01-.06 0-.06.05v.1c0 .03-.02.06-.05.07a.32.32 0 0 1-.16.03c-.03 0-.06 0-.08.03-.06.06-.13.05-.2.11a.1.1 0 0 0-.03.05c0 .03-.03.05-.06.05s-.05 0-.07-.02c-.02-.01-.03-.03-.03-.06 0-.07.04-.12.1-.13.03 0 .06-.01.08-.03a.43.43 0 0 1 .27-.14l.01-.01.01-.01a.03.03 0 0 0 0-.03Z" fill="#01AAAC"/><path d="M8.36 8.06c-.03.03-.06.03-.1.01l-.02-.02-.02-.03a.09.09 0 0 1 0-.06c.04-.08.1-.14.17-.16h.05c.01 0 .03 0 .04.02a.1.1 0 0 1 .02.05v.05c-.02.1-.07.15-.14.14ZM7.84 8.45a.97.97 0 0 1 .26-.34c.02-.02.04-.01.05.02l-.01.08c-.06.08-.1.16-.14.24-.02.05-.05.07-.1.07-.02 0-.06 0-.06-.05v-.02ZM8.67 8.2c.11 0 .23 0 .35-.02.06-.01.1 0 .15.04.03.02.02.04 0 .06a.29.29 0 0 1-.24 0 .1.1 0 0 0-.08 0l-.3.15c-.03.02-.04 0-.03-.04 0-.05.03-.1.06-.14a.13.13 0 0 1 .04-.03l.05-.02ZM9.95 8.62a.46.46 0 0 0-.04-.2c-.08-.05-.1-.1-.06-.18l.02-.02a.05.05 0 0 1 .05 0l.02.02c.14.19.2.38.2.59v.03l-.02.02-.02.01h-.03c-.04-.02-.06-.06-.05-.1A.1.1 0 0 0 10 8.7l-.05-.08Z" fill="#01AAAC"/><path d="M9.91 8.42c.03.05.04.12.04.2-.1.05-.17.05-.22 0-.02-.02-.02-.04 0-.06l.18-.14Z" fill="#01848A"/><defs><linearGradient id="a0pyvik5a" x1="0" y1="9" x2="18" y2="9" gradientUnits="userSpaceOnUse"><stop stop-color="#0664D6"/><stop offset="1" stop-color="#18BDDD"/></linearGradient></defs></svg>