<!-- by TradingView --><svg width="18" height="18" viewBox="0 0 18 18" xmlns="http://www.w3.org/2000/svg"><path fill="#F0F3FA" d="M0 0h18v18H0z"/><circle cx="9" cy="9" r="6" fill="url(#ay25burl3)"/><circle cx="9.03" cy="9.13" r="5.27" fill="#696A6A"/><path d="M3.81 9.9a5.32 5.32 0 0 1 1.3-4.3v3.1l-1.3 1.2ZM14.21 10.14a5.3 5.3 0 0 0-1.5-4.78v3.36l1.5 1.42ZM9.83 14.34a5.31 5.31 0 0 1-1.87-.04l.95-1.45.92 1.5Z" fill="#CBDBFC"/><path d="m12.36 5.06.17.15v6.33l.72.63-.13.15-.76-.7V5.07Zm-1.04 6.76v2.06l-.2.09v-2.15h.2Z" fill="#9BADB7"/><path d="M6 6.69V6.6l1.22-.72 1.81.95 1.82-.94 1.15.7v.15L9.03 8.29 6 6.69Zm0 .44v1.14l2.12 1.09v2.79l.7.36V8.63L6 7.13Zm3.18 5.45.7-.37V9.35L12 8.33V7.18L9.18 8.63v3.95ZM12 8.75l-1.77.84v2.43l1.77-.94V8.75Zm-4.24 3.22V9.6L6 8.7v2.38l1.76.9Zm2.7-6.31-1.38-.85-1.46.85 1.41.75 1.43-.75Z" fill="#323232"/><path d="M13.24 5.95V7.8h.9a5.25 5.25 0 0 0-.9-1.86Z" fill="#86859C"/><defs><linearGradient id="ay25burl3" x1="3.85" y1="6.01" x2="14.38" y2="11.42" gradientUnits="userSpaceOnUse"><stop stop-color="#848484"/><stop offset="1" stop-color="#313131"/></linearGradient></defs></svg>