<!-- by TradingView --><svg width="18" height="18" viewBox="0 0 18 18" xmlns="http://www.w3.org/2000/svg"><path fill="#F0F3FA" d="M0 0h18v18H0z"/><path d="M8.67 3.06a.24.24 0 0 1 .2-.06c.05.01.07.04.07.09-.03.22-.04.58-.2.73-.05.05-.08.04-.06-.03l.03-.25c.01-.04 0-.08-.02-.11a.17.17 0 0 0-.1-.07.18.18 0 0 1-.11-.07l-.13-.17c-.03-.05-.03-.07.02-.1a.2.2 0 0 1 .2.05c.01 0 .03.02.05.01.02 0 .04 0 .05-.02Z" fill="#6B6461"/><path d="m9.58 4.1-.54-.17c.22-.23.29-.5.2-.83-.01-.05 0-.08.05-.09.09-.02.18.03.18.13l.01.03c.04.04.06.04.08-.01l.03-.08c.01-.04.03-.05.06-.01.03.03.04.06.05.1.01.04.03.07.06.08.03.02.06.02.08-.01.02-.03.04-.03.07 0 .01.02.02.05 0 .08-.1.25-.2.51-.33.78Z" fill="#C4C2C0"/><path d="M8.22 3.75c-.05-.3-.2-.46-.46-.48a.26.26 0 0 0-.15-.03.4.4 0 0 1 .35-.14c.04 0 .07.01.1.04.21.17.38.34.16.6Z" fill="#6B6461"/><path d="M10.39 3.17c-.07.4-.24.73-.52 1a.06.06 0 0 0 .04.1l.52.08c.02.05.05.07.1.06.23.14.46.22.7.25.05 0 .08.02.1.05l.18.18c.18.17.41.2.6.4 0 .07-.03.1-.06.1a.21.21 0 0 0-.07-.06c-.03-.01-.04 0-.05.02l.01.04.52.5a.53.53 0 0 0-.02.23l-.36-.48h-.03l-.02.01c-.02.01-.02.03 0 .04l.36.48c0 .05 0 .07-.02.09 0 0-.03 0-.05-.02a2.29 2.29 0 0 0-.25-.19c-.08-.05-.1-.03-.07.06 0 0 .03 0 .08.03-.06.02-.09.06-.07.12l.03.06.33.27c.03.02.03.04 0 .06l-.02.03h-.01l-.31-.24c-.05-.04-.08-.03-.08.03v.16c-.15.08-.17.22-.06.41.02.03.02.06.02.09l-.03.2c0 .04.01.08.04.11l.3.27c.08.17.1.33.05.47l-.85-.06a.21.21 0 0 1-.1-.04 1.14 1.14 0 0 0-.79-.18c-.02-.09.02-.14.13-.17.05 0 .06-.04.05-.08l-.03-.09a.14.14 0 0 1 0-.1c.03-.07.02-.14-.03-.2a13.3 13.3 0 0 1-.33-.5.17.17 0 0 0-.08-.08.75.75 0 0 0-.42-.03c-.04-.04-.08-.05-.12-.03h-.12c-.04 0-.07 0-.1.03l-1.35.99c-.04.03-.07.02-.1-.01-.07-.06-.14-.07-.22-.02a.53.53 0 0 0-.17.16.21.21 0 0 1-.28.07l-.62-.34-.26-.2-.7-.89c-.03-.04-.07-.05-.11-.01a.58.58 0 0 0-.17.23h-.01a.02.02 0 0 1-.02 0l-.03-.03a.06.06 0 0 1-.02-.07c.08-.16.2-.3.34-.41a.15.15 0 0 0 .04-.07L5.85 6c.05-.04.05-.05-.02-.02-.13.06-.2.17-.33.21-.05.02-.08 0-.09-.05-.07-.28.2-.5.4-.67.04-.05.03-.07-.03-.07h-.06c-.02 0-.04-.01-.04-.03v-.04c.01-.03.03-.05.06-.06a.58.58 0 0 0 .34-.28c.12-.22.3-.4.55-.55.19-.11.4-.14.61-.2.04-.02.06-.05.05-.1V4.1c0-.04.03-.07.07-.07l.17-.02c.06-.04.11-.1.14-.16.03-.04.02-.08-.03-.1a1 1 0 0 0-.4-.08c-.12 0-.13-.04-.04-.12a.4.4 0 0 1 .2-.07 1 1 0 0 1 .59.3c.03.04.05.03.06-.01.02-.04 0-.07-.05-.1a.58.58 0 0 1-.24-.4c.26.02.41.18.46.48v.4c0 .03.01.04.03.02.07-.04.13-.06.18-.04.29.09.5.02.61-.2l.54.17c.31-.17.49-.48.53-.91 0-.04.03-.06.07-.07.09 0 .16.02.21.05Z" fill="#D4B49E"/><path d="m10.39 3.17.64.19c.04 0 .05.03.05.06l-.49.86a.1.1 0 0 1-.08.05l-.08.02-.52-.07a.07.07 0 0 1-.05-.08l.01-.03c.28-.27.45-.6.52-1Z" fill="#fff"/><path d="m7.6 3.24-.2.24a.4.4 0 0 0-.2.07c-.1.08-.08.12.05.12a1 1 0 0 1 .39.08c.05.02.06.06.03.1a.45.45 0 0 1-.15.16l-.46-.05h-.09a1.7 1.7 0 0 0-1.2.82l-.5.5.35-.67c.43-.57.92-1 1.45-1.3.14-.08.32-.1.54-.07Z" fill="#3F312C"/><path d="M7.6 3.24c.07 0 .12 0 .16.03.02.16.1.3.24.4.05.03.07.06.05.1 0 .04-.03.05-.06.01a1 1 0 0 0-.58-.3l.2-.24Z" fill="#8B8B8B"/><path d="m11.08 3.42.1.04a.43.43 0 0 0-.06.13c-.01.03 0 .04.03.05h.05c-.1.28-.24.51-.42.7l-.25.07c-.05.01-.09 0-.1-.06a.16.16 0 0 1 .08-.02.1.1 0 0 0 .08-.05l.5-.86Z" fill="#C4C2C0"/><path d="M11.18 3.46c.08-.02.13 0 .15.05 0 .02 0 .04-.02.04s-.03.02-.04.04l-.07.05h-.05c-.03 0-.04-.02-.03-.05a.43.43 0 0 1 .06-.13ZM13.59 7.13c-.14.09-.19.22-.16.4a.1.1 0 0 1-.03.08h-.03a.5.5 0 0 1-.15-.3 1.13 1.13 0 0 0-.1-.33c-.05-.1-.08-.21-.1-.33l-.12-.42-.07-.25.02-.05a.05.05 0 0 1 .04 0 .05.05 0 0 1 .03.01c.07.1.15.12.23.04a.1.1 0 0 0 .01-.14l-.32-.39-.14-.36c.01-.04.03-.05.05-.06l.04.03c.09.13.17.27.23.41.01.02.02.02.03.01.02 0 .02-.01.02-.02a6.67 6.67 0 0 1-.17-.49.95.95 0 0 0-.25-.4c-.37-.37-.74-.77-1.24-.94 0-.03.01-.05.05-.06a5.61 5.61 0 0 1 2.31 1.81c.12.16.16.33.12.5-.05.18-.09.18-.13 0l-.13-.51c0-.02-.02-.02-.03-.02h-.03v.01l.15.75c.03.1.1.17.16.24a.13.13 0 0 1 .03.1c0 .04-.02.07-.04.1-.06.09-.1.08-.12-.03l-.02-.01c-.04 0-.05.02-.04.05.02.06 0 .1-.05.14a.11.11 0 0 0-.05.1v.33Z" fill="#fff"/><path d="m11.27 3.59.14.04c.5.17.87.57 1.24.94.12.12.2.25.25.4a6.72 6.72 0 0 0 .16.51h-.04a3.44 3.44 0 0 0-.23-.42l-.04-.03c-.02 0-.04.02-.05.06a3.36 3.36 0 0 0-.94-.56.63.63 0 0 0-.4 0 .3.3 0 0 1-.24-.02.07.07 0 0 1-.03-.06.06.06 0 0 1 .03-.06c.2-.12.42-.22.67-.27.02 0 .02-.02.02-.03v-.03l-.02-.02c-.27.03-.5.13-.7.3a.22.22 0 0 1-.14.05c-.07 0-.13 0-.17-.04.18-.2.32-.43.42-.7l.07-.06Z" fill="#3F312C"/><path d="m7.06 3.96-1.29.82a1.7 1.7 0 0 1 1.2-.82h.09Z" fill="#87665A"/><path d="m7.06 3.96.47.05-.17.02c-.04 0-.06.03-.07.07v.04c0 .04 0 .07-.05.08-.2.07-.42.1-.6.2-.26.16-.44.34-.56.56a.58.58 0 0 1-.34.28.09.09 0 0 0-.06.1c0 .02.02.03.04.03h.06c.06 0 .07.02.03.07-.2.17-.47.4-.4.67.01.05.04.07.1.05.13-.04.2-.15.32-.21.07-.03.07-.02.02.02a.14.14 0 0 0-.05.06c0 .03-.02.05-.04.07-.15.11-.26.25-.34.4a.06.06 0 0 0 .02.08l.03.03a.02.02 0 0 0 .02 0 .02.02 0 0 0 .01-.01c.04-.1.1-.17.17-.22.04-.04.08-.03.12.01l.7.89a.62.62 0 0 1-.39-.34c-.03-.07-.14-.16-.32-.26-.01.05-.02.08-.04.1-.03.04-.05.04-.07-.01-.02-.06-.07-.1-.15-.1-.09 0-.11.05-.07.12.03.05.03.08.01.12-.03.05-.02.09.04.1.02 0 .03.02.04.03.02.04 0 .07-.03.1a.68.68 0 0 0-.23.2.5.5 0 0 0-.14.17c-.03.05-.02.06.03.03.06-.03.1-.08.12-.16.12-.13.23-.15.3-.06l.33.35.2.12c.04.04.04.06-.03.06A5.82 5.82 0 0 0 4.5 8a.34.34 0 0 1 .07-.32c.08-.1.1-.16.06-.18-.01-.04 0-.06.04-.07.03 0 .05-.02.06-.05l.39-1.31a1.8 1.8 0 0 1 0-.56c.03-.15.07-.22.14-.24l.5-.5 1.29-.8Z" fill="#C0A293"/><path d="m12.7 5.09.14.36c0 .1-.04.13-.1.1l-.01-.02c-.06-.15-.14-.24-.25-.28-.14-.06-.15-.03-.04.06.16.14.29.36.39.67l.07.25a3.27 3.27 0 0 1-.42-.58c-.07-.12-.2-.24-.37-.35-.19-.22-.42-.24-.6-.41a2.98 2.98 0 0 1-.17-.18.16.16 0 0 0-.1-.05 1.93 1.93 0 0 1-.71-.25l.25-.06c.04.03.1.05.17.04.05 0 .1-.02.14-.05.2-.17.43-.27.7-.3l.01.01.01.04c0 .01 0 .02-.02.03a2.2 2.2 0 0 0-.7.3.06.06 0 0 0 0 .06l.03.03a.3.3 0 0 0 .23.01.63.63 0 0 1 .41 0c.32.13.63.31.94.57Z" fill="#6B6461"/><path d="M5.67 4.18c-.07.2-.09.34-.05.43l-.35.66c-.07.02-.11.1-.14.24a1.8 1.8 0 0 0 0 .56l-.32.44a.12.12 0 0 1-.12.05c-.05-.01-.1 0-.12.04a.04.04 0 0 1-.04.02.04.04 0 0 1-.03-.03c-.01-.03-.03-.04-.06-.03a.07.07 0 0 0-.06.06l-.01.1c0 .03-.03.05-.06.07-.05.01-.07.04-.06.09 0 .04.03.06.07.08.03 0 .05.03.04.07 0 .03-.01.06-.04.08a.18.18 0 0 0-.06.12c0 .17.03.18.1.02.09-.22.2-.39.35-.5.09-.07.11-.05.08.05a.76.76 0 0 1-.1.18.15.15 0 0 0-.02.11c.02.14-.07.27-.28.39-.12.07-.2.03-.23-.1a.29.29 0 0 1 .03-.23.1.1 0 0 0 0-.12.28.28 0 0 1-.05-.12c0-.04 0-.08.03-.12.07-.13.09-.29.06-.47a.23.23 0 0 0-.05-.12c-.06-.06-.05-.12.01-.18a.17.17 0 0 0 .04-.07c.08-.21.13-.42.16-.62.02-.15.1-.3.22-.43.18-.19.38-.36.6-.5a2.58 2.58 0 0 1-.19.54c.04.12.07.12.1 0 .12-.38.3-.63.55-.76ZM12.84 5.45l.32.4a.1.1 0 0 1-.01.14c-.08.07-.16.05-.23-.05a.05.05 0 0 0-.03-.02.05.05 0 0 0-.04.01.08.08 0 0 0-.02.05c-.1-.3-.23-.53-.4-.67-.1-.1-.1-.12.05-.06.11.04.2.13.25.28 0 0 0 .02.02.02.05.03.09 0 .09-.1Z" fill="#C4C2C0"/><path d="M12.05 5.4c.21.12.35.3.41.5l-.52-.5c-.01-.02-.02-.03-.01-.05 0-.03.02-.03.05-.02l.07.06Z" fill="#6B6461"/><path d="M12.11 5.3c.18.11.3.23.37.35.15.25.3.45.42.58l.11.42c.03.12.06.23.11.33s.09.22.1.34c.02.1.06.2.15.29h.03a.1.1 0 0 0 .03-.09c-.03-.17.02-.3.16-.39.05.1.04.2-.03.27a.14.14 0 0 0-.04.1v.15c0 .03-.02.07-.04.1l-.27.33a.13.13 0 0 1-.09.05l-.31.03c-.24-.1-.44-.33-.6-.7-.03-.05-.07-.07-.1-.1-.06-.06-.06-.06-.02 0 .06.1.12.24.12.35l-.29-.27a.13.13 0 0 1-.04-.11l.03-.2c0-.03 0-.06-.02-.09-.1-.19-.09-.33.06-.41.22.24.42.5.6.75.13.2.33.3.4.53.02.1.07.1.13.03l.05-.06a.25.25 0 0 0 .02-.27l-.37-.7a.1.1 0 0 0-.08-.06.1.1 0 0 0-.09.03c-.04.06-.09.06-.15.03-.04-.02-.04-.05-.03-.09a.44.44 0 0 0 .04-.24.13.13 0 0 0-.05-.1c-.14-.09-.25-.2-.34-.34A1.21 1.21 0 0 1 12 6.1c-.03-.1-.01-.1.07-.06l.25.19c.02.02.04.03.05.02.01-.02.02-.04.02-.09l.02.02c.02 0 .04 0 .04-.03v-.04c-.01-.1 0-.17.01-.22a.9.9 0 0 0-.41-.5c.03 0 .05-.04.06-.1Z" fill="#C4C2C0"/><path d="m4.17 8.16-.02.07c-.07.16-.13.22-.32.2l-.27-.01c-.22-.1-.4-.09-.56.07a6.04 6.04 0 0 1 1-2.84h.03l.03.01v.03a.5.5 0 0 0-.07.23c0 .43.07.84.02 1.3-.03.22-.03.45-.02.7.01.1.07.18.18.24Z" fill="#fff"/><path d="M12.44 6.12c.01 0 .02.02.01.04 0 .03-.02.04-.04.03l-.02-.02-.37-.48v-.04l.03-.02h.03l.36.49Z" fill="#87665A"/><path d="M11.07 6.17c.02.09.1.15.17.13.06-.02.1-.11.07-.2-.03-.1-.1-.15-.17-.13-.07.02-.1.1-.07.2Z" fill="#AC8C7C"/><path d="m14.98 8.77-.05-.02-.03-.11c.03-.58-.68-.31-1.03-.18l-.3-.04.53-2.35c.02-.1.06-.1.11-.02.5.83.75 1.73.77 2.72ZM12.08 6.14c.09.13.2.25.34.35.03.02.05.05.05.09.01.08 0 .16-.04.24-.01.04 0 .07.03.09.06.03.11.03.15-.03a.1.1 0 0 1 .13-.01.1.1 0 0 1 .04.03l.37.7a.24.24 0 0 1-.02.28l-.05.06c-.06.08-.11.07-.14-.03-.06-.24-.26-.34-.4-.53a7.64 7.64 0 0 0-.59-.75v-.16c0-.06.03-.07.08-.03l.31.24.04-.03c.02-.02.02-.04 0-.06l-.34-.27a.1.1 0 0 1-.03-.06c-.02-.06 0-.1.07-.12Z" fill="#fff"/><path d="m10.48 6.71-.32-.33c-.02-.01-.02-.03 0-.04l.04-.01h.01c.37.29.62.6.74.93.04.12.03.13-.05.04-.17-.18-.26-.42-.42-.59Z" fill="#C0A293"/><path d="M9.7 6.62c-.04.04-.05.07-.04.08-.22.13-.38.3-.5.5a.12.12 0 0 1-.12.07c-.28 0-.46.16-.52.5 0 .03-.02.06-.06.08l-.75.42c.02-.18-.03-.28-.16-.3-.13-.03-.22.05-.26.23a.46.46 0 0 1-.39-.17.58.58 0 0 1-.1-.26 1.83 1.83 0 0 0-.06-.27l.62.34a.21.21 0 0 0 .28-.07c.04-.07.1-.12.17-.16.08-.05.15-.04.21.02.04.03.07.04.1 0l1.35-.98a.16.16 0 0 1 .1-.03h.13Z" fill="#87665A"/><path d="M9.7 6.62c.04-.02.08 0 .12.03l.05.02a.1.1 0 0 1 .06.07c.01.04.04.06.08.05.07 0 .12.03.16.09.04.07.09.12.16.16.04.02.04.04-.01.05-.24.06-.25.3-.42.45-.06.06-.12.1-.18.13-.2-.07-.22-.18-.08-.34l.3-.3c.03-.03.03-.05 0-.08l-.28-.25c-.01-.01 0-.04.04-.08Z" fill="#6B6461"/><path d="M9.82 6.65a.75.75 0 0 1 .42.03c.04.01.06.04.08.07l.33.5c.05.07.06.14.03.2a.14.14 0 0 0 0 .11l.03.09c.01.04 0 .07-.05.08-.1.03-.15.08-.13.17l-.95-.08c-.05 0-.06-.02-.02-.05l.16-.1c.06-.03.12-.07.18-.13.17-.15.18-.39.42-.45.05 0 .05-.03 0-.05a.4.4 0 0 1-.15-.16.15.15 0 0 0-.16-.09c-.04 0-.07-.01-.07-.05a.1.1 0 0 0-.07-.07l-.05-.02Z" fill="#AC8C7C"/><path d="m5.78 6.7.14 1c-.1-.13-.21-.24-.32-.36-.09-.1-.19-.07-.31.06v-.04a.68.68 0 0 1 .22-.2c.04-.03.05-.06.03-.1a.05.05 0 0 0-.04-.03c-.06-.01-.07-.05-.04-.1.02-.04.02-.07 0-.12-.05-.07-.03-.11.06-.11.08 0 .13.03.15.09.02.05.04.05.07.01a.23.23 0 0 0 .04-.1Z" fill="#6B6461"/><path d="m6.48 7.3.26.2.07.27c.02.12.05.2.1.26.1.12.22.18.38.17.13-.06.27-.04.42.07l.75-.42a.12.12 0 0 0 .06-.08c.06-.34.24-.5.52-.5.05 0 .09-.02.11-.06.13-.21.3-.38.5-.51l.3.25c.02.03.02.05 0 .08l-.3.3c-.15.16-.12.27.07.34l-.16.1c-.04.03-.03.04.02.05l.95.08c.3-.03.56.03.78.18.04.02.07.04.1.04l.86.06a3.24 3.24 0 0 1 .3.05l.01.03c.02.03 0 .06-.03.06a.53.53 0 0 1-.2 0l-1-.05a.11.11 0 0 0-.1.06.29.29 0 0 1-.25.16c-.05 0-.08.03-.09.08-.05.33-.18.63-.37.88a.1.1 0 0 1-.09.04.19.19 0 0 0-.15.09.16.16 0 0 1-.13.06A7.36 7.36 0 0 1 8.3 9.5a.13.13 0 0 1-.09-.07c-.11-.2-.22-.41-.31-.61-.09-.17-.23-.26-.44-.27a.17.17 0 0 0-.13.05.78.78 0 0 0-.18.25l-.23.5-.66.19h-.06l-.5.06c-.38.05-.69.01-.92-.12l-.35-.9c-.07.03-.12.03-.16.01-.04-.02-.06-.06-.07-.12a9.1 9.1 0 0 1-.04-.23c0-.02 0-.04.02-.07a.3.3 0 0 1 .15-.1.43.43 0 0 0 .19-.06 5.82 5.82 0 0 1 1.58-.13c.06 0 .07-.02.02-.06a.74.74 0 0 0-.19-.12l-.14-1c.18.11.29.2.32.27.08.16.2.28.38.34Z" fill="#3F312C"/><path d="m12.8 8.16.5.3c.03.03.06.03.1.02l.17-.06.3.04-.67.16c-.04-.06-.12-.07-.22-.04a.54.54 0 0 0-.2-.06c-.03 0-.05.02-.05.06.02.14.01.29-.02.43-.01.04-.03.05-.07.03l-.02-.02V9l-.04-.58c0-.05-.02-.07-.06-.07h-.15l-.03-.03c.07.02.14.02.2 0 .05 0 .06-.03.04-.06a.1.1 0 0 0-.02-.03 3.25 3.25 0 0 0-.3-.05c.06-.14.04-.3-.05-.47a.84.84 0 0 0-.12-.35c-.04-.06-.04-.06.01 0 .04.03.08.05.1.1.17.37.37.6.6.7Z" fill="#6B6461"/><path d="M4.64 7.5c.04.02.02.08-.06.18-.08.1-.1.2-.07.32a.43.43 0 0 1-.18.06c-.06 0-.07-.04-.04-.1.05-.13.16-.28.35-.46Z" fill="#fff"/><path d="M10.55 9.2c-.3-.19-.54-.32-.73-.4-.22-.07-.39.08-.6.08-.1 0-.19.02-.28.06-.16.08-.16.14.01.2.05 0 .09.05.11.11.02.05 0 .06-.03.03l-.8-.52a.09.09 0 0 0-.13.07v.06a.48.48 0 0 1-.06-.22l.1-.05c.1.1.24.14.39.11l.58-.13c.1-.05.15-.12.14-.19a.07.07 0 0 1 .1-.07 8.47 8.47 0 0 0 .78.34v-.05l-.02-.02L9 8.1c0-.06 0-.09.03-.1a3.25 3.25 0 0 1 1.5.14.2.2 0 0 1 .1.06l.02.03c.06.06.09.04.1-.04 0-.01 0-.02.02-.02.03 0 .04 0 .04.03 0 .05-.02.08-.05.11a.16.16 0 0 0-.06.1l-.16.8Z" fill="#AC8C7C"/><path d="M7 8.75c-.3.1-.46.29-.47.54-.33.12-.67.18-1 .18.01-.2.12-.32.31-.4.24-.08.37-.14.4-.16.15-.09.28-.18.4-.29.02.03.06.03.12.02a.03.03 0 0 0 .02-.02V8.6l-.01-.01L6 8.12c-.2-.02-.39 0-.56.04L5.37 8c.25-.05.5-.04.75.03.3.09.54 0 .82.2.03.03.05.06.05.1v.42Z" fill="#C0A293"/><path d="M9.04 7.99C9 8 9 8.03 9 8.09l-.25-.02a.1.1 0 0 0-.1.05.14.14 0 0 0-.03.1c0 .03 0 .06-.04.07a.15.15 0 0 0-.05.05l-.4.28-.1.05-.02-.39c0-.04.01-.07.04-.1.1-.08.22-.12.35-.11.05 0 .09 0 .12-.02a.86.86 0 0 1 .5-.06Z" fill="#87665A"/><path d="m5.37 8 .07.16c-.1.03-.17.08-.2.15 0 .05 0 .06.04.02.11-.1.25-.15.39-.14.01 0 .02.01.02.03 0 .02 0 .03-.02.04l-.3.2a.14.14 0 0 1-.09.03c-.07 0-.12.05-.15.17l.4.27c.02.01.05.02.08.01.25-.04.52-.13.8-.28a.11.11 0 0 0 .04-.05.1.1 0 0 0 0-.06c0-.02-.02-.02-.06-.02l.03-.03c.09 0 .16.05.22.12-.12.1-.25.2-.4.29-.03.02-.16.08-.4.17-.2.07-.3.2-.31.39l-.47-.05a.14.14 0 0 1-.1-.05 1.75 1.75 0 0 1-.4-.94l.06-.28c.23-.1.48-.14.75-.15Z" fill="#D4B49E"/><path d="M6 8.12c-.23-.01-.34.01-.33.07a.52.52 0 0 0-.4.14c-.03.04-.04.03-.02-.01.02-.08.08-.13.2-.16.16-.04.35-.06.55-.04Z" fill="#6B6461"/><path d="m4.62 8.15-.05.27-.18-.12c-.04-.03-.04-.05 0-.08.05-.06.13-.08.23-.07ZM4.15 8.23l.04.23c0 .06.03.1.07.12.04.02.1.02.16 0a.67.67 0 0 0-.26.42c-.03 0-.05 0-.06-.02-.02-.01-.02-.03-.01-.06l.05-.2c.01-.04 0-.07-.05-.08l-.54-.22c.1 0 .2 0 .28.02.19.01.25-.05.32-.21Z" fill="#87665A"/><path d="m12.34 8.32.03.02c-.02.06-.04.1-.01.16.05.13.08.27.07.41 0 .18.07.3.05.5v.36c.03.35.05.67.05.97-.12.17-.23.35-.3.55a1 1 0 0 0-.07.57c.04.25.1.49.15.73v.1l-.17.43c-.06.18-.18.25-.36.28l-1.79.99c-.14-.04-.3-.18-.48-.43 0-.05-.02-.08-.04-.1-.03-.01-.06 0-.07.03v.04c-.02.04-.05.07-.1.07a.54.54 0 0 0-.24.09c-.05.03-.07.01-.07-.05 0-.02 0-.04.02-.05.04-.04.03-.07-.02-.1-.05-.02-.1-.01-.16.03-.07.05-.16.1-.25.18a.66.66 0 0 1-.08-.3c0-.14-.04-.15-.12-.05a.74.74 0 0 0-.07.1.16.16 0 0 1-.1.09c-.1.03-.2.08-.29.14-.21.15-.55.2-.81.12a.67.67 0 0 0-.32-.02.1.1 0 0 1-.07-.01.1.1 0 0 1-.05-.06l-.3-.78a.14.14 0 0 1 0-.12.95.95 0 0 1 .27-.33c.08-.06.07-.08-.03-.05s-.2.03-.3-.01c-.05-.02-.08-.01-.09.04-.14.44-.07.75.14 1.17.01.03.02.06.01.1 0 .04-.04.06-.09.05a.33.33 0 0 0-.16.07.81.81 0 0 1-.32-.17.2.2 0 0 1-.06-.1.6.6 0 0 0-.12-.23c-.04-.06-.06-.05-.05.02 0 .03 0 .05.02.08.03.08 0 .1-.06.04-.6-.4-1.1-.89-1.47-1.48l.08-.44a9.64 9.64 0 0 0 .25-1l-.01.01a.95.95 0 0 1-.28.43c-.08.04-.17.02-.26-.05-.15-.12-.2-.26-.17-.42l.13-.26c.03-.04.06-.06.1-.05.07.02.12 0 .16-.03.04-.03.04-.05-.02-.05h-.1c-.05 0-.08-.02-.1-.07-.08-.29-.2-.54-.36-.77-.13-.18-.1-.37-.13-.58-.01-.06.01-.08.07-.05.13.05.27.12.4.2.05.02.08.05.09.1.02.06 0 .11-.04.16a.06.06 0 0 1-.1-.03v-.08c0-.02 0-.03-.02-.03h-.03c-.03.01-.03.03-.03.06a8.22 8.22 0 0 0 .34.87l.07.02c.23-.03.24.23.3.38.01.02.02.02.03.01l.02-.02c.01 0 .02-.01.01-.02-.07-.17-.19-.5-.14-.67l-.01-.06c-.04-.03-.06-.03-.06.03 0 .04-.01.07-.05.09-.03 0-.05 0-.06-.03-.04-.15-.02-.27.07-.35a.12.12 0 0 0 .04-.08c0-.1.03-.2.08-.3a.13.13 0 0 0-.01-.13c-.03-.04-.08-.06-.16-.04-.03-.06-.02-.11 0-.16a.67.67 0 0 1 .26-.42l.35.9a.4.4 0 0 0-.14.26c-.04.23.17.4.21.63a.05.05 0 0 0 .06.05l.03-.01a.74.74 0 0 0 .18-.21c.17-.27.65-.23.58-.61l.5-.06c.03.06.04.1.03.16 0 .04-.03.08-.07.13-.42.5-.78 1.03-.7 1.7l.01.16c.01.24.3.3.5.34v.05a.06.06 0 0 0 .06.03h.02c.16-.15.32-.28.5-.39a.2.2 0 0 1 .1-.03h.77a.5.5 0 0 0 .2 0c.29-.03.57 0 .76.24.13.15.26.27.41.36.11.07.14.05.07-.07l-.05-.1c0-.02.02-.04.04-.06l.16.18c.04.04.08.05.13.04.34-.07.3-.41.19-.66-.02-.04-.05-.05-.09-.02-.04.03-.08.02-.11-.02-.03-.03-.07-.04-.1-.01a.28.28 0 0 0-.1.07.4.4 0 0 0-.3-.04.16.16 0 0 1-.17-.07l-.56-.87a.1.1 0 0 0-.06-.05c-.03 0-.05-.02-.07-.06a.06.06 0 0 1 .05-.08l.48-.07c.16.04.29 0 .38-.1a.1.1 0 0 1 .12-.01.1.1 0 0 1 .03.03c.15.23.32.42.53.56.1.07.13.05.08-.07-.16-.39-.42-.92-.83-1.1-.06-.02-.08 0-.07.07l.1.34c0 .01-.02.02-.08.02v-.05c0-.02-.02-.03-.04-.04-.2-.1-.4-.18-.62-.25a.15.15 0 0 0-.1.01c-.26.1-.33.33-.57.49l-.2-.15c.03-.13-.01-.22-.12-.28a.1.1 0 0 0-.1.01.3.3 0 0 0-.08.11l-.04.02h-.1a.08.08 0 0 1-.05-.06.64.64 0 0 1-.02-.12l.4-.48.23-.5c.04-.1.1-.18.18-.25a.17.17 0 0 1 .13-.05c.2 0 .35.1.44.27l.31.61c.02.04.05.06.1.07a7.36 7.36 0 0 0 1.94.13.16.16 0 0 0 .06-.04c.04-.06.1-.09.15-.09a.1.1 0 0 0 .09-.04c.2-.25.32-.55.37-.88.01-.05.04-.08.1-.08.1-.01.18-.07.23-.16a.11.11 0 0 1 .12-.06l.98.05ZM14.9 8.64c-.06-.1-.15-.1-.27-.04-.2.1-.4.22-.57.33-.13 0-.25.03-.37.08a.52.52 0 0 0-.27.2c-.1.17-.17.33-.22.5-.02.04 0 .07.05.07.03 0 .06.02.08.04-.02.1-.04.14-.05.14-.13.01-.14.06-.04.14.07.06.13.14.17.22.03.04.03.08.01.12l-.17.45a.18.18 0 0 0 .13.24l.1-.01c.2-.08.38-.22.55-.43 0 .07.02.12.04.15-.14.1-.21.32-.2.68-.01-.03-.02 0-.04.08a.4.4 0 0 0 0-.03c0-.02-.01-.03-.03-.01-.22.2-.5.31-.82.32-.04 0-.06-.02-.06-.06l-.03-.68c.07-.5.09-1 .06-1.52-.01-.18 0-.35.06-.5l.2-.5.66-.16c.35-.13 1.06-.4 1.03.18Z" fill="#D4B49E"/><path d="M8.54 8.34c-.07.08-.1.14-.1.2 0 .03 0 .04.04.02a.13.13 0 0 0 .06-.07c.02-.05.05-.07.1-.03.13.07.28.12.47.14l-.58.13a.4.4 0 0 1-.38-.1l.4-.3Z" fill="#D4B49E"/><path d="m12.37 8.34.15.01c.04 0 .06.02.06.07l.04.58v.02l.02.02c.04.02.06 0 .07-.03.03.01.04.03.04.04v.03c-.12.08-.13.18-.03.3l.04.02h.04a.25.25 0 0 0 .14-.14c.1-.25.12-.47.04-.68.1-.03.18-.02.22.04l-.19.5c-.05.15-.07.32-.06.5.03.52 0 1.02-.06 1.52-.26-.02-.38-.16-.36-.4 0-.3-.02-.62-.05-.97a1.73 1.73 0 0 1 0-.37c.02-.18-.06-.3-.05-.49a.93.93 0 0 0-.08-.41c-.02-.05 0-.1.02-.16Z" fill="#AC8C7C"/><path d="m3.56 8.42.53.22c.05.01.06.04.05.09a1.8 1.8 0 0 1-.05.2v.05l.07.02c-.02.05-.03.1 0 .16a.5.5 0 0 1-.04.15c-.02.05-.04.05-.07.02a2.05 2.05 0 0 0-.78-.54.12.12 0 0 0-.15.06l-.01.06.04.57c0 .04.02.07.05.1.15.13.24.3.26.5a1.56 1.56 0 0 1-.44-.68L3 8.5c.16-.17.34-.19.56-.08Z" fill="#C0A293"/><path d="m6.42 8.5-.03.03a.52.52 0 0 1-.29.16c-.12.02-.2-.02-.21-.1.1-.03.18-.08.22-.16.02-.03.05-.04.09-.03a.7.7 0 0 1 .22.1Z" fill="#C4C2C0"/><path d="M5.89 8.59c.02.08.09.12.21.1.11-.02.21-.08.3-.16.03 0 .05 0 .06.02a.1.1 0 0 1-.01.06.11.11 0 0 1-.05.05 2.7 2.7 0 0 1-.8.28c-.02.01-.05 0-.08-.01l-.39-.27.4-.17a.1.1 0 0 1 .1.02c.09.07.17.1.26.08Z" fill="#AC8C7C"/><path d="M12.98 8.58c.08.2.06.43-.04.68a.25.25 0 0 1-.14.14h-.04a.07.07 0 0 1-.04-.02c-.1-.12-.1-.22.02-.3.01 0 .02-.02.01-.03 0-.01-.01-.03-.04-.04.03-.14.04-.29.02-.43 0-.04.02-.06.06-.06.06 0 .12.02.2.06Z" fill="#C4C2C0"/><path d="m14.9 8.64.03.1a.1.1 0 0 1-.02.07.06.06 0 0 1-.08 0 .33.33 0 0 0-.17-.08.1.1 0 0 0-.1.1v.04c.1.15.16.31.16.48a.2.2 0 0 1-.03.1.65.65 0 0 0-.08.52l-.58.72c-.17.21-.35.35-.55.43a.18.18 0 0 1-.23-.13v-.1l.17-.45a.15.15 0 0 0 0-.12.72.72 0 0 0-.18-.22c-.1-.08-.09-.13.04-.14a152.66 152.66 0 0 1 .24-.5c.06-.1.14-.2.24-.28l.3-.25.57-.33c.12-.07.21-.05.27.04ZM7 8.75c-.04.3-.2.48-.47.54.01-.25.17-.43.47-.54Z" fill="#87665A"/><path d="m14.93 8.75.05.02.02.47-.4.73a.65.65 0 0 1 .09-.51.2.2 0 0 0 .03-.1.9.9 0 0 0-.15-.49.1.1 0 0 1 .09-.14c.06.01.12.04.17.08a.06.06 0 0 0 .08 0 .1.1 0 0 0 .02-.06Z" fill="#AC8C7C"/><path d="m10.55 9.21-.12.2a.13.13 0 0 1-.1.07c-.63.03-1.25 0-1.87-.13-.22-.05-.35-.2-.36-.46v-.06a.09.09 0 0 1 .14-.07l.79.52c.04.03.05.02.03-.03-.02-.06-.06-.1-.1-.12-.18-.05-.18-.11-.02-.19a.67.67 0 0 1 .28-.06c.21 0 .38-.15.6-.07.2.07.44.2.73.4Z" fill="#D4B49E"/><path d="M4.16 9.16c.08-.02.13 0 .16.04s.03.09 0 .14a.83.83 0 0 0-.07.29c0 .03-.02.05-.04.08-.1.08-.11.2-.07.35.01.03.03.04.06.03.04-.02.06-.05.05-.1 0-.05.02-.05.05-.02.02.02.02.04.02.06-.05.17.07.5.14.67v.02l-.03.02H4.4c-.07-.16-.08-.42-.3-.4a.11.11 0 0 1-.13-.06 8.21 8.21 0 0 1-.29-.82c0-.03 0-.05.03-.06h.03c.02 0 .02.01.02.03v.08a.06.06 0 0 0 .1.03c.04-.05.06-.1.04-.16a.16.16 0 0 0-.08-.1 7.97 7.97 0 0 0-.4-.2c-.07-.03-.1-.01-.08.05.04.2 0 .4.13.58.15.23.28.48.36.77.02.05.05.07.1.07h.1c.06 0 .06.02.02.05a.16.16 0 0 1-.15.03c-.05 0-.08 0-.1.05l-.14.26a.06.06 0 0 1-.05-.04c.07-.16.15-.3.08-.47a.9.9 0 0 0-.24-.35.75.75 0 0 0-.26-.5.15.15 0 0 1-.05-.1l-.04-.57a.11.11 0 0 1 .04-.1.12.12 0 0 1 .12-.02c.3.12.56.3.78.54.03.03.05.03.07-.02a.5.5 0 0 0 .04-.15Z" fill="#87665A"/><path d="M13.67 10.29a.61.61 0 0 1-.2-.19c-.03-.05-.03-.1.02-.14a.1.1 0 0 1 .16.06c0 .09.05.15.12.18h.02a.05.05 0 0 0 .05-.03c.07-.3.02-.54-.16-.71a.08.08 0 0 1-.01-.1c.02-.05.07-.07.13-.05.11.02.21 0 .3-.05a.22.22 0 0 0 .09-.09l.14-.25a.06.06 0 0 1 .06-.03.06.06 0 0 1 .05.03c.34.83-.25 1.68-.93 2.09a.11.11 0 0 1-.17-.12c.04-.18.1-.34.19-.5a.1.1 0 0 1 .1-.04h.03c.04-.02.04-.04 0-.06Z" fill="#C0A293"/><path d="m14.06 8.93-.3.25a.89.89 0 0 0-.24.28l-.19.36a.14.14 0 0 0-.08-.04c-.05 0-.07-.03-.05-.07.05-.17.12-.33.22-.5.06-.09.15-.16.28-.2.11-.05.23-.07.36-.08Z" fill="#C0A293"/><path d="M15 9.24a5.99 5.99 0 0 1-3.38 5.16c0-.16.07-.3.22-.41.2-.14.33-.31.4-.5.24-.43.45-.88.62-1.36.04-.1.13-.17.29-.18a1 1 0 0 0 .68-.35c.02-.08.03-.1.05-.08l.2-.68a.36.36 0 0 1-.05-.15l.58-.72.39-.73Z" fill="#fff"/><path d="m6.91 9.34-.4.48c.03.1.01.18-.06.22a.24.24 0 0 0-.1.1c-.14.22-.34.42-.6.6l-.04-.01-.02-.04v-.04c.37-.3.55-.67.56-1.12l.66-.19Z" fill="#AC8C7C"/><path d="M4.77 9.47c.23.13.54.17.92.12.07.38-.4.34-.58.6a.74.74 0 0 1-.18.22.05.05 0 0 1-.09-.04c-.04-.22-.25-.4-.21-.63a.4.4 0 0 1 .14-.27ZM6.19 9.53h.06c0 .45-.19.82-.55 1.12-.02 0-.02.02-.01.04l.02.04h.04c.26-.17.46-.37.6-.6a.24.24 0 0 1 .1-.1c.07-.03.1-.1.06-.2l.02.11c.01.03.03.05.06.06h.09c-.06.06-.06.1-.02.11.27.08.5.2.66.4l-.22.5a.14.14 0 0 0 0 .1l.02.07c.01.04 0 .07-.03.1l-.33.24-.8.5c-.2-.04-.49-.1-.5-.34v-.16c-.09-.67.27-1.2.7-1.7.03-.05.06-.09.06-.13 0-.05 0-.1-.03-.16Z" fill="#C0A293"/><path d="M8.29 10.4c.06-.1.16-.16.3-.2.04 0 .06-.02.05-.05v-.04l-.1-.34c-.02-.07 0-.09.06-.06.4.17.67.7.83 1.1.05.1.02.13-.08.06-.2-.14-.38-.32-.53-.56a.1.1 0 0 0-.07-.05.1.1 0 0 0-.08.03c-.1.1-.22.14-.38.1Z" fill="#AC8C7C"/><path d="m8.55 10.13-.29.02A.7.7 0 0 0 8 10c-.09-.02-.17.01-.26.1l-.19.25a.31.31 0 0 1-.09.13c-.02.02-.02.04 0 .05l.03.03c.03.03.04.06.04.1l-.03.44c0 .04-.02.08-.06.1a.72.72 0 0 1-.03.04c-.06.04-.05.06.02.04.21-.06.36.03.43.28-.2-.03-.28.02-.25.13a.5.5 0 0 1-.19-.01c.02-.05.02-.08 0-.11-.01-.02-.04-.03-.08-.03l-.57-.02.33-.24c.03-.03.04-.06.03-.1l-.02-.07a.13.13 0 0 1 0-.1l.22-.5h.05c.02 0 .03-.02.03-.04v-.04l-.04-.01a.18.18 0 0 1-.14-.13c.24-.16.31-.38.57-.49a.15.15 0 0 1 .1 0 4.03 4.03 0 0 1 .66.28v.05Z" fill="#AC8C7C"/><path d="m7.03 10.14-.31-.16a.3.3 0 0 1 .08-.1.1.1 0 0 1 .1-.02c.11.06.15.15.13.28Z" fill="#C0A293"/><path d="M8.26 10.15a2 2 0 0 0-.72.2c.06-.1.12-.17.2-.25.08-.09.16-.12.25-.1a.7.7 0 0 1 .27.15ZM6.68 10c.01 0 .03 0 .04-.02l.3.16.2.15c.02.06.07.1.14.13l.03.01.01.04c0 .02-.01.03-.03.03h-.05c-.17-.18-.39-.31-.66-.39-.04-.01-.04-.05.02-.1Z" fill="#3F312C"/><path d="m8.26 10.15.3-.02c.05 0 .07 0 .08-.02v.04c0 .03 0 .05-.04.05-.15.04-.25.1-.31.2l-.48.06a.06.06 0 0 0-.05.06v.02c.02.04.04.06.07.06a.1.1 0 0 1 .06.05l.56.87c.02.03.04.05.07.06h.1a.4.4 0 0 1 .3.05c-.13.17-.16.3-.08.42a.13.13 0 0 0-.04.06l-.27-.13a.25.25 0 0 1-.08-.07.99.99 0 0 0-.6-.35c-.07-.25-.22-.34-.43-.28-.07.02-.08 0-.02-.04a.67.67 0 0 0 .03-.04.15.15 0 0 0 .06-.1l.03-.44a.12.12 0 0 0-.04-.1l-.03-.03c-.02-.01-.02-.03 0-.05a.31.31 0 0 0 .1-.13 2 2 0 0 1 .71-.2Z" fill="#C0A293"/><path d="M12.15 10.72a.37.37 0 0 1-.06-.17.08.08 0 0 1 .12-.07c.08.06.09.14.02.24a.05.05 0 0 1-.04.02.05.05 0 0 1-.04-.02Z" fill="#AC8C7C"/><path d="M12.53 10.74c-.02.24.1.38.36.4l.03.68c0 .04.02.06.06.06.32 0 .6-.11.83-.32.01-.02.02-.01.02 0v.04a1 1 0 0 1-.68.35c-.16.01-.25.07-.3.18-.16.48-.37.93-.61 1.35-.07 0-.14.05-.22.16-.02.04-.04.04-.07.01a.8.8 0 0 1-.17-.25c.18-.03.3-.1.36-.28l.17-.43a.18.18 0 0 0 0-.1l-.15-.73a1 1 0 0 1 .06-.57c.08-.2.19-.38.31-.55Z" fill="#C0A293"/><path d="m14.07 10.84-.2.68c-.01-.36.06-.59.2-.68Z" fill="#AC8C7C"/><path d="m3.62 10.9.05.04c-.04.16.02.3.17.42.09.07.18.1.26.05 0 .05.02.1.07.14-.3-.03-.73-.31-.55-.65Z" fill="#C0A293"/><path d="m4.14 11.97.03-.42a.22.22 0 0 1-.07-.14.95.95 0 0 0 .28-.43h.01l.02.01c-.08.33-.17.66-.27.98ZM6.76 11.52l.57.02c.04 0 .07.01.08.03.02.03.02.06 0 .1h-.76a.2.2 0 0 0-.11.04 4 4 0 0 0-.52.4.05.05 0 0 1-.05-.02l-.01-.02v-.05l.8-.5Z" fill="#87665A"/><path d="M8.84 12.05c-.08-.11-.05-.25.08-.42a.28.28 0 0 1 .1-.07c.03-.03.07-.02.1.01.03.04.07.05.11.02.04-.03.07-.02.09.02.1.25.15.6-.2.66-.04.01-.08 0-.12-.04l-.16-.18Z" fill="#AC8C7C"/><path d="M7.85 11.56c.25.05.45.17.6.35.02.03.05.06.08.07l.27.13.05.1c.07.12.05.14-.07.07-.15-.09-.28-.2-.4-.36-.2-.23-.48-.27-.78-.23-.03-.11.06-.15.25-.13Z" fill="#87665A"/><path d="M6.67 12.44c.2-.23.1-.54.5-.61.05-.01.1 0 .14.06.12.16.24.3.36.41.2.2.16.28-.11.26-.3-.02-.58-.03-.84-.02-.1 0-.11-.03-.05-.1Z" fill="#AC8C7C"/><path d="M8.58 14.1c-.28.13-.57.25-.89.35a1.3 1.3 0 0 1-.81-.04c-.2-.09-.4-.16-.6-.23.05 0 .08 0 .1-.05 0-.04 0-.07-.02-.1-.2-.42-.28-.73-.14-1.17.01-.05.04-.06.1-.04.08.04.18.04.3.01.09-.03.1-.01.02.05-.11.08-.2.2-.27.33a.14.14 0 0 0 0 .12l.3.78c.01.03.03.05.05.06a.1.1 0 0 0 .07.01c.1-.02.21-.01.32.02.26.08.6.03.81-.12.1-.06.2-.1.3-.14a.16.16 0 0 0 .1-.09.75.75 0 0 1 .06-.1c.08-.1.12-.09.12.04 0 .1.02.2.08.31Z" fill="#C0A293"/><path d="M11.78 13.4c.05.1.1.18.17.25.03.03.05.03.07 0 .08-.12.15-.17.22-.17-.08.2-.2.37-.4.5-.15.12-.23.26-.22.42-.53.29-1.1.44-1.69.47l1.7-1.04c.03-.03.03-.05 0-.06a.06.06 0 0 0-.07 0l-.94.55c-.2.12-.4.1-.63.07l1.8-1Z" fill="#AC8C7C"/><path d="M9.93 14.87c-.05.08-.2.11-.42.09a.86.86 0 0 1 0-1c.18.25.34.39.48.43.23.02.43.05.63-.07l.94-.55a.06.06 0 0 1 .06 0c.04.01.04.03 0 .06l-1.69 1.04Z" fill="#87665A"/><path d="M9.51 13.96a.86.86 0 0 0 0 1 4 4 0 0 1-1.76-.12l.57-.12a.6.6 0 0 0 .29-.12c.1-.07.17-.15.24-.22.06-.07.05-.08-.03-.04-.14.08-.23.14-.4.16-.4.05-.82.12-1.24.2a3.13 3.13 0 0 1-1.06-.45c.04-.04.1-.06.16-.07.2.07.4.14.6.23.23.1.58.12.81.04.32-.1.61-.22.89-.35l.25-.18c.06-.04.1-.05.16-.03.05.03.06.06.02.1a.08.08 0 0 0-.02.05c0 .06.02.08.07.05A.54.54 0 0 1 9.3 14c.05 0 .08-.03.1-.07v-.04c.01-.04.04-.04.07-.03.02.02.04.05.04.1Z" fill="#AC8C7C"/><path d="M7.75 14.84a.88.88 0 0 1-.57-.14c.42-.08.83-.15 1.24-.2.17-.02.26-.08.4-.16.08-.04.09-.03.03.04l-.24.22a.6.6 0 0 1-.29.12l-.57.12Z" fill="#87665A"/></svg>