<!-- by TradingView --><svg width="18" height="18" viewBox="0 0 18 18" xmlns="http://www.w3.org/2000/svg"><path fill="#A19B9D" d="M0 0h18v18H0z"/><path d="m9.5 11.83-.25-.63.77-.3.27.72-.7.27-.1-.06Z" fill="#958989"/><path d="m9.7 10.76-.06.2.16-.03h.13l.14.15.18.56-.27.1.05.06.17.13.29.03.22.03.26-.16.46-.4.04-.24-.04-.46-.15-.36-.41.08h-.4l-.27-.04-.27.12-.23.23Z" fill="#F9BA51"/><path d="M10.23 10.41c.11.26.24.62.27.95v.29c.05.05.13.2 0 .31l.21.03.26-.16.46-.4.04-.24-.04-.46-.15-.36-.41.08h-.4l-.24-.04Z" fill="#BC7F2F"/><path d="M7.19 13.39c-.1.09-.08.27-.06.35l.43.64c.3.18.28.53.24.69l.56-.26v-.46l.2-.77c0-.05-.1-.1-.15-.12a36.2 36.2 0 0 0-.85-.2c-.18-.02-.26.02-.37.13Z" fill="url(#azehal1zj)"/><path d="M6.6 14.26c-.33.12-.38.65-.36.9a.64.64 0 0 0-.08.14l.08.28.37.1c.51-.02 1.54-.08 1.57-.1l.54-.42-.29-.4-.39.19-.22.1v-.21l-.1-.3-.16-.17h.54v.1l.02.2.08.04.16-.06-.05-.28-.08-.05v-.15l-.08-.09.03-.3-.03-.07-.51-.03-.54.05c-.03.02-.1.07-.1.14 0 .08.07.17.1.21l-.1.12c.01-.03-.05-.06-.4.06Z" fill="#FFFDFF"/><path d="M9.8 14.25v1.12c0 .05.25.39.32.4.06.02.83-.05.92-.07a2 2 0 0 0 .45-.22 4.7 4.7 0 0 0-.09-.63l-.26-.45c.02-.03.06-.1.07-.15.01-.05-.07-.12-.11-.16.03-.04.1-.15.1-.2a.28.28 0 0 0-.06-.14c-.03-.04-.2-.13-.61-.13s-.62.12-.68.18l-.04.15.04.14-.05.16Z" fill="#FFF8FB"/><path d="M10.43 15.76v-.3h.22l-.07-1.14h.09l-.13-.7c.4 0 .57.09.6.13.02.02.06.08.06.14 0 .05-.07.16-.1.2.04.04.12.11.11.16a.62.62 0 0 1-.07.15l.26.45.1.63a2 2 0 0 1-.46.22l-.61.06Zm-3.87-.09v-.3c.08 0 .27.03.32.02 0-.32.12-.97.66-1.03h.16l-.09-.68h.03l.5.03.04.06-.03.31.08.1v.14l.08.05.05.28-.16.06-.08-.04-.03-.2v-.1h-.53l.16.17.1.3v.22l.22-.11.4-.19.28.4-.54.42c-.03.02-1.06.08-1.57.1h-.05Z" fill="#D5C0C7"/><path d="M7.58 13.24c-.1-.74-.3-2.37-.24-2.93l.3.03 1.09.02.9-.06.5-.07.09.13-.28.13-.23.3-.08.2-.12.05c-.06-.12-.29-.35-.72-.35-.08.01-.25.05-.3.17-.04.14-.1.48-.16.9-.04.35 0 1.25.03 1.66-.05.03-.2.08-.31 0a1.85 1.85 0 0 0-.47-.18Zm2.01-1.35c.12.32.35 1.06.32 1.46.1-.05.33-.15.46-.15.14 0 .25.04.3.06v-1.3l-.12-.02c-.07.01-.22.02-.3 0a.91.91 0 0 1-.25-.2l-.41.15Z" fill="#3B72AB"/><path d="M7.6 9.93c-.13.02-.4-.03-.51-.06-.05.18.09.32.16.37.12.04.5.12 1.1.12.61 0 1.42-.08 1.75-.12l.26.18.3.04c.7 0 .78-.33.73-.49 0-.01-.01-.03-.13.03-.15.07-.67.05-.9 0a1.08 1.08 0 0 1-.4-.2c-.1.04-.38.13-.72.13-.42 0-.68-.1-.83-.1-.14 0-.65.08-.81.1Z" fill="#958989"/><path d="M7.24 5.5c.27.26.87.56 1.14.69l1.7-.57c.66-.24.76-.8.76-1.13 0-.25-.21-.54-.32-.65l-.53-.7.08-.12c.03.01.12.02.26 0 .15-.01.21-.14.22-.2l-.4-.43c-.08-.11-.41-.34-1.11-.34-.88 0-1.17.27-1.57.62-.31.27-.37.81-.37 1.05-.2.2-.32.95-.32 1.1 0 .13.1.37.46.68Z" fill="#FCFCFE"/><path d="m7.08 3.74.28.22L8.53 5.5l-.15.69 1.7-.57c.66-.24.76-.8.76-1.13 0-.25-.21-.54-.32-.65l-.53-.7.08-.12c.03.01.12.02.26 0 .13-.01.2-.1.21-.17h-.04l-.49-.2-.22.28-.46 1.37a4.73 4.73 0 0 1-1.8-.54 1 1 0 0 1-.38-.47 1.8 1.8 0 0 0-.05.43l-.02.02Z" fill="#CEC0C0"/><path d="m10.14 6.42-.19.3-.02.26.12.25.1.26v.56l-.03.27-.08.25-.22.35-.07.37c0 .1.03.33.17.46.17.17.38.34.9.3.5-.05.8-.1.83-.5l-.17-.92-.05-.72-.05-.54-.3-.79-.26-.41-.14-.15-.16.08-.26.17-.12.15Zm-3.4 2.87c-.22-.13-.67-.5-.67-.94 0-.43.35-.86.52-1.02l.13-.2.15-.32.09-.38.06.06a13.76 13.76 0 0 0 .31.71l-.14.58.03.25-.23.47-.14.26-.06.4v.16l-.05-.03Z" fill="#FBFFFE"/><path d="m9.86 9.68.06.07c.17.17.38.34.89.3.5-.05.81-.1.84-.5l-.17-.92-.05-.72-.05-.54-.3-.79-.26-.41-.14-.15-.17.08-.21.14c.26.17.55.47.65.94.12.55.09.81.06 1.03-.01.13-.02.24 0 .39l.01.11c.08.46.24 1.38-1.12.98h-.04ZM7.2 6.91c-.19.31-.42.8-.42 1.13 0 .18.08.35.2.49l.01-.03.23-.47-.03-.25.14-.58-.13-.3Z" fill="#CEC0C0"/><path d="M7.5 9.93c-.24 0-.52-.17-.63-.25l-.07-.13-.01-.25.01-.38.12-.3.23-.42.04-.3.08-.43.03-.32-.1-.32-.22-.45.21-.27.4-.31.4.22.33.13.16-.02 1.04-.33c.14-.06.45-.17.59-.15.13.02.43.26.57.37-.07.04-.25.14-.4.25-.2.15-.26.38-.32.5a.44.44 0 0 0-.02.28c.06.06.17.24.19.52.02.35.02.82-.08.96-.1.15-.3.56-.3.76 0 .17.12.4.2.5-.12.04-.4.14-.68.14-.35 0-.57-.1-.9-.1-.31 0-.58.1-.88.1Z" fill="#DC4D23"/><path d="M10.29 6.27c.15-.11.32-.21.4-.25a2.15 2.15 0 0 0-.58-.37c-.14-.02-.45.09-.6.15l-.14.04c.27.07.6.2.92.43Zm-3.3.1v.01l.2.45.1.32-.02.32-.08.43-.04.3-.23.41-.12.31V9c.04-.13.13-.26.23-.38.11-.16.23-.32.27-.51l.08-.3c.1-.31.2-.62-.08-.98A7.88 7.88 0 0 1 7 6.38Zm-.2 2.95c.13.39.95.55 1.1.5.04 0 .07-.02.11-.04.17-.08.42-.19.85-.15.53.04.58-.12.6-.37.04-.24.23-.66.38-.92.1-.17.15-.77.17-1.2.05.09.11.23.13.43.02.35.02.82-.08.96-.1.15-.3.56-.3.76 0 .17.12.4.2.5-.12.04-.4.14-.68.14-.18 0-.33-.03-.47-.05a2.6 2.6 0 0 0-.42-.04c-.16 0-.31.02-.46.04-.14.03-.28.05-.43.05-.23 0-.5-.17-.62-.25l-.07-.13-.01-.23Z" fill="#992E19"/><path d="M10.66 13.26a.74.74 0 0 0-.26-.06v-1.25h.15l.11.02v1.29Zm-.72-2.77v.01a9.9 9.9 0 0 0-.11-.23l.3-.04.09.13-.28.13Zm-1.44.37c.04-.1.17-.15.26-.16a.33.33 0 0 0-.12-.04l-.02-.3-.09.01.02.28c-.62.05-.61 1.74-.52 2.75l.02.02c.12.08.26.03.31 0-.03-.41-.07-1.31-.03-1.65.06-.43.12-.77.17-.91Z" fill="#314D65"/><path d="m9.66 13.64.15.18.1-.1.43-.08.24-.02.46.08.08-.01.1-.07.03-.14-.46-.19-.43-.09-.3.1-.4.24v.1Z" fill="#C8543B"/><path d="m7.67 2.54-.1.08c-.17.15-.28.35-.34.56-.07.2-.08.41-.08.53v.02c-.1.16-.3.62-.3 1.13 0 .12.05.24.16.37.1.13.25.25.4.37.33.23.71.42.97.53.4-.13 1.28-.43 1.69-.55.49-.14.72-.57.72-.9 0-.26-.08-.48-.12-.56l-.73-.93.11-.2h.03a1.55 1.55 0 0 0 .4-.03l.05-.04V2.9s0-.03-.02-.04a2.85 2.85 0 0 0-.38-.41v-.01c-.08-.11-.42-.36-1.1-.36-.43 0-.68.05-.88.14-.16.07-.3.18-.48.32Zm.44-.4c.22-.1.48-.14.92-.14.7 0 1.06.25 1.17.38a2.93 2.93 0 0 1 .4.44l.02.07a.1.1 0 0 1-.01.07.2.2 0 0 1-.1.07.67.67 0 0 1-.15.04h-.25l-.06.11.7.9c.04.09.13.32.13.6 0 .36-.25.82-.79.98-.4.12-1.3.42-1.7.56h-.03a5.46 5.46 0 0 1-1-.55 2.27 2.27 0 0 1-.43-.39.69.69 0 0 1-.18-.42c0-.52.2-.98.31-1.16 0-.13.02-.33.08-.54.06-.22.18-.44.37-.6l.1-.08c.18-.14.32-.26.5-.34Z" fill="#2E4650"/><path d="M10.6 6c-.2-.16-.44-.29-.56-.33l.04-.08a2.48 2.48 0 0 1 .73.5c.15.16.31.44.44.77s.22.7.22 1.03a6.7 6.7 0 0 0 .22 1.6c0 .05 0 .2-.1.34-.09.13-.26.25-.57.25h-.54A1.03 1.03 0 0 1 10 9.9a.68.68 0 0 1-.29-.57 1.05 1.05 0 0 1 .2-.63 1.05 1.05 0 0 0 .19-.62c0-.33 0-.52-.03-.65a.64.64 0 0 0-.14-.3c-.06-.07-.06-.18-.04-.28.02-.11.07-.23.14-.35.13-.21.33-.42.57-.5Zm.07.07c-.23.06-.43.25-.56.47-.07.1-.11.22-.13.32-.02.1-.01.18.02.22.09.1.14.2.16.34.03.14.03.33.03.66 0 .17-.02.3-.06.4-.04.1-.1.18-.14.26a.98.98 0 0 0-.19.6c0 .23.11.4.26.5.14.1.31.15.43.16h.53c.28 0 .42-.1.5-.22a.57.57 0 0 0 .08-.3 6.78 6.78 0 0 1-.22-1.59c0-.32-.09-.68-.22-1a2.58 2.58 0 0 0-.49-.82ZM7.24 6c.13-.12.27-.2.36-.26l.05.07c-.08.05-.22.14-.35.25a1 1 0 0 0-.28.36 1.67 1.67 0 0 0-.1.41.77.77 0 0 1-.2.4c-.12.13-.27.3-.4.5-.12.2-.2.42-.2.65 0 .18.1.37.24.54.15.16.32.3.43.37l-.05.07c-.12-.08-.3-.22-.45-.4-.14-.16-.27-.37-.27-.58 0-.25.1-.5.23-.7.12-.2.28-.38.4-.5a.7.7 0 0 0 .18-.36l.02-.1.08-.33c.05-.14.18-.28.31-.4Z" fill="#2E4650"/><path d="M7.24 7.1a6.9 6.9 0 0 1-.3-.72l.1-.03c.05.17.2.55.28.7.03.07.04.15.03.23 0 .08-.02.17-.04.26l-.02.11-.03.13-.01.08v.05c.01.04 0 .09 0 .14l-.06.16c-.05.12-.11.23-.16.3-.2.28-.2.56-.2.9 0 .16.1.29.25.37a1 1 0 0 0 .59.1l.28-.04h.06l.17-.04c.14-.01.26-.02.42.02a3.42 3.42 0 0 0 1.03.04.76.76 0 0 0 .28-.1l.05.06c-.08.06-.2.1-.31.12a3.52 3.52 0 0 1-1.07-.04 1.02 1.02 0 0 0-.39-.01l-.16.02a21.6 21.6 0 0 1-.35.06 1.1 1.1 0 0 1-.64-.11c-.18-.1-.3-.25-.3-.44 0-.35 0-.66.21-.95a1.56 1.56 0 0 0 .2-.44.21.21 0 0 0 .01-.1.2.2 0 0 1 0-.07l.01-.1.03-.13a8 8 0 0 0 .06-.35c0-.08 0-.14-.02-.18Z" fill="#2E4650"/><path d="M7.08 10a.55.55 0 0 1 0-.18l.1.02c-.02.03-.02.1-.01.16 0 .06.03.13.08.18.02.03.08.06.17.08l.33.04a14.22 14.22 0 0 0 2.36-.1l.02.09c-.26.04-.92.11-1.45.11-.33 0-.67 0-.93-.02a2.37 2.37 0 0 1-.35-.04.44.44 0 0 1-.22-.1.41.41 0 0 1-.1-.23Z" fill="#2E4650"/><path d="M10.04 10.17a.7.7 0 0 1 0-.3l.08.02a.63.63 0 0 0 .01.26c.03.1.08.18.17.21.14.05.34.06.53.05.1 0 .18-.02.25-.04a.42.42 0 0 0 .15-.06.3.3 0 0 0 .09-.16.66.66 0 0 0 .01-.18h.1c0 .04 0 .12-.02.2a.37.37 0 0 1-.12.2.5.5 0 0 1-.19.08c-.07.02-.17.04-.27.04-.19.02-.4 0-.56-.05a.37.37 0 0 1-.23-.27ZM7.56 13.3c-.23-.85-.3-2.37-.31-3.02h.09c0 .65.08 2.16.31 3l-.09.03ZM9.44 11.05c-.05-.13-.28-.39-.76-.29-.04 0-.07.03-.1.09a.82.82 0 0 0-.1.22c-.05.19-.08.44-.1.72-.04.57-.01 1.23.02 1.67h-.1c-.02-.44-.05-1.1-.01-1.67.02-.28.05-.55.1-.74a.9.9 0 0 1 .1-.25c.05-.06.1-.1.17-.12.53-.1.8.18.86.34l-.08.03ZM9.88 13.4a7.82 7.82 0 0 0-.34-1.56l.09-.03c.1.29.29.97.33 1.55l-.08.04ZM6.36 14.61c-.09.21-.08.47-.05.64l-.09.01c-.03-.18-.04-.45.05-.68a.65.65 0 0 1 .22-.3c.11-.07.25-.12.44-.12.44 0 .68.15.81.35.13.2.14.42.13.57h-.09a.9.9 0 0 0-.11-.53c-.11-.17-.33-.3-.74-.3a.62.62 0 0 0-.38.1.57.57 0 0 0-.2.26Z" fill="#2E4650"/><path d="M7.66 15.2c-.3.13-.6.24-.83.24-.43 0-.6-.13-.62-.24l.1-.02c0 .05.1.17.52.17.2 0 .5-.1.79-.22.29-.13.57-.28.74-.39l.05.07c-.17.1-.46.26-.75.4ZM7.08 14.15l-.03.05h-.09c0-.04.03-.08.07-.11.04-.03.1-.06.2-.08.17-.03.47-.04.92.02h.01a.2.2 0 0 1 .1.07c.02.04.03.1.02.16a.22.22 0 0 1-.2.17l-.55-.02v-.08l.54.02c.03 0 .1-.02.12-.1.01-.05 0-.08-.01-.1a.1.1 0 0 0-.05-.04 2.85 2.85 0 0 0-.89-.01.42.42 0 0 0-.16.05Z" fill="#2E4650"/><path d="M8.1 13.76a3.53 3.53 0 0 0-.9 0 .3.3 0 0 0-.14.07.08.08 0 0 0-.03.06c0 .03.02.06.04.1l.07.07-.06.06a.52.52 0 0 1-.08-.1.27.27 0 0 1-.06-.12c0-.05.02-.1.06-.13.04-.04.1-.07.2-.08.29-.06.69-.04.92-.02.07.01.13.08.11.15l-.06.25-.08-.02.05-.25c0-.02-.01-.04-.04-.04Z" fill="#2E4650"/><path d="M7.23 13.4a.5.5 0 0 0-.06.32h-.09c-.01-.1 0-.24.07-.35.03-.06.09-.11.16-.14a.49.49 0 0 1 .28 0l.45.11.04.02.25.04c.11 0 .2.03.23.1.02.03.03.06.03.1v.13a2.29 2.29 0 0 1-.13.48 9.83 9.83 0 0 0-.06.2v.4h-.09a13.06 13.06 0 0 1 .01-.46l.02-.07.04-.1.02-.08c.05-.14.1-.3.1-.38v-.11c0-.04 0-.06-.02-.07-.01-.03-.05-.05-.15-.06a1.03 1.03 0 0 1-.32-.06 8.3 8.3 0 0 0-.44-.11.4.4 0 0 0-.23 0 .23.23 0 0 0-.11.1Z" fill="#2E4650"/><path d="M8.17 14.66v-.01a.23.23 0 0 1-.01-.07v-.19h-.08a1 1 0 0 0-.01.2l.01.09c.02.03.04.06.09.06.05 0 .1-.02.14-.05a.35.35 0 0 0 .08-.07l-.07-.05-.06.06a.17.17 0 0 1-.09.03Z" fill="#2E4650"/><path fill-rule="evenodd" d="M6.24 15.2c-.02.15.04.44.43.44.5 0 1.7-.53 1.75-.59.05-.04 0-.19-.04-.25v-.4l.04-.15 1.4.04.02.09c.07-.05.33-.15.71-.15.39 0 .6.11.65.17l.03.08c.26.14.77.5.77.77 0 .36-.77.75-3.03.75s-3.52-.4-2.73-1v.2Zm4.4.2c-.5 0-.73-.14-.79-.22-.05-.27.02-.83.71-.83.71 0 .85.58.83.87-.04.06-.26.18-.76.18Zm.77-.06c-.77.3-1.32.12-1.5 0 0 .2.19.33.7.33.4 0 .7-.13.8-.2v-.13Z" fill="#2E4650"/><path d="M10.53 14.02c-.23 0-.45.03-.56.07a.2.2 0 0 0-.13.14.38.38 0 0 0 0 .18l-.09.02a.46.46 0 0 1 0-.22.29.29 0 0 1 .19-.2 1.92 1.92 0 0 1 .94-.04c.1.02.2.06.28.12.05.04.08.08.1.12 0 .05 0 .09-.03.12a.2.2 0 0 1-.07.07.16.16 0 0 1-.1.02l.02-.08.03-.01a.1.1 0 0 0 .05-.04v-.06c0-.02-.02-.05-.06-.08a.6.6 0 0 0-.25-.1 1.6 1.6 0 0 0-.32-.03Z" fill="#2E4650"/><path d="M10.6 13.68c-.22 0-.45.01-.6.07-.1.04-.14.1-.14.16 0 .07.02.13.05.17l-.08.04a.34.34 0 0 1-.06-.21c0-.1.06-.18.2-.24.17-.06.4-.08.63-.08l.3.03c.09.01.16.03.2.05.1.05.15.14.15.23s-.05.18-.14.22l-.04-.08c.06-.02.1-.08.1-.14a.16.16 0 0 0-.1-.15 2.4 2.4 0 0 0-.48-.07Z" fill="#2E4650"/><path d="M9.78 13.5a.3.3 0 0 0-.08.08v.05l.07.08a.69.69 0 0 0 .1.08l-.03.08h-.02a.27.27 0 0 1-.04-.03.8.8 0 0 1-.08-.08.4.4 0 0 1-.07-.1c-.02-.03-.03-.07-.01-.12a.37.37 0 0 1 .1-.1 1.1 1.1 0 0 1 .68-.26 1.69 1.69 0 0 1 .77.2.9.9 0 0 1 .07.04l.05.04c.03.03.02.07.02.1l-.05.07a.74.74 0 0 1-.13.11l-.06-.06a.66.66 0 0 0 .12-.1.16.16 0 0 0 .03-.05v-.01l-.03-.03a1.87 1.87 0 0 0-.79-.24 1 1 0 0 0-.62.24ZM9.26 11.06l.58-.18.03.08-.58.18c-.02.01-.03.03-.02.06l.25.6c.01.03.04.04.06.03l.68-.24.03.08-.68.24c-.07.02-.14-.01-.17-.08l-.26-.6c-.03-.07.01-.14.08-.17Z" fill="#2E4650"/><path d="M10.26 10.42c-.51.15-.57.45-.55.57l-.09.02c-.03-.17.06-.51.61-.67l.03.08ZM10.75 11.86a.4.4 0 0 1-.33.14c-.29 0-.42-.16-.45-.25l.08-.03c.02.06.12.2.37.2.13 0 .2-.05.26-.12a.4.4 0 0 0 .09-.2l.09.02c-.01.06-.04.16-.1.24Z" fill="#2E4650"/><path d="M11.46 10.8c.03.2.04.4.04.48 0 .1-.07.19-.16.28l-.16.13-.2.17c-.22.2-.42.18-.5.12l.06-.06c.03.02.18.07.38-.12l.2-.17c.06-.05.1-.1.15-.13.1-.09.14-.15.14-.22a3.43 3.43 0 0 0-.1-.74.35.35 0 0 0-.1-.16l.06-.07c.06.05.1.12.13.2.02.09.05.18.06.28Z" fill="#2E4650"/><path d="M11.44 11.37c0 .01 0 .04-.02.05-.34.2-.76.26-.93.25-.02 0-.04-.02-.04-.04s.02-.04.04-.04c.16 0 .56-.04.88-.24.02 0 .05 0 .07.02ZM9.9 10.97a.15.15 0 0 0-.1 0l-.02-.09c.04 0 .1-.01.16.01.06.03.11.08.14.17l.2.6h-.07l-.21-.58c-.03-.07-.06-.1-.1-.11ZM7.5 9.93v.4h-.08v-.4h.09ZM8.78 9.87l.01.5H8.7l-.01-.5h.09ZM10.37 10.01v.4h-.09v-.4h.09ZM10.6 10.04v.4h-.1v-.4h.1ZM10.85 10.05v.4h-.08v-.4h.08ZM11.1 10.01v.4H11v-.4h.1ZM8.45 8.01v.17c0 .14-.03.26-.07.38l-.02.04c-.05.14-.1.3-.1.53 0 .46.2.64.22.66l-.06.06c-.03-.03-.24-.22-.24-.72 0-.24.05-.4.1-.55l.01-.05a1.03 1.03 0 0 0 .07-.51v-.9a6.12 6.12 0 0 1 .1-.87.4.4 0 0 1 .08-.16l.07.05a.32.32 0 0 0-.06.13 6.05 6.05 0 0 0-.1.85v.9Z" fill="#2E4650"/><path d="M8.29 7.98v.2c0 .14-.04.26-.08.38l-.02.04c-.04.14-.09.3-.09.53 0 .46.2.64.21.66l-.06.06c-.03-.03-.24-.22-.24-.72a1.62 1.62 0 0 1 .11-.6c.04-.12.08-.22.08-.35v-.2a20 20 0 0 1 .03-1.47l.05-.23a.39.39 0 0 1 .08-.16l.06.06a.31.31 0 0 0-.05.12l-.05.22-.04.62v.84ZM9.12 6.26l-.04.3c0 .1.01.14.03.2l.04.2c0 .05 0 .09-.03.12a.12.12 0 0 1-.08.05.28.28 0 0 1-.16-.03h-.02v-.03a2.73 2.73 0 0 1 .04-1.09L9 6a2.1 2.1 0 0 0-.09.57c0 .23.02.4.03.46.03.02.06.02.08.02.02 0 .02 0 .03-.02v-.06c0-.08-.01-.14-.03-.19a.68.68 0 0 1-.03-.21l.04-.32.07-.32.08.01-.06.32ZM7.82 5.98l.02-.04.08.02-.01.05c-.04.12-.12.35-.12.56 0 .23.02.4.03.46.03.02.06.02.08.02.01 0 .02 0 .02-.02 0 0 .02-.02.01-.06a.85.85 0 0 0-.03-.19.68.68 0 0 1-.03-.21c0-.08.02-.19.04-.29l.04-.14.03-.14.1.02-.04.13a7.89 7.89 0 0 0-.08.42.6.6 0 0 0 .02.2c.02.04.04.1.04.2 0 .04 0 .08-.02.1a.12.12 0 0 1-.08.06.28.28 0 0 1-.16-.03h-.02v-.03a1.9 1.9 0 0 1 .09-1.09ZM7.04 4.78c0 .3.93.9 1.4 1.17.25-.14.83-.44 1.07-.54.3-.14.7-.47.7-.68 0-.21-.29-.4-.4-.45-.1-.05-.26-.22-.69-.25-.35-.02-.7-.13-.82-.18a2.29 2.29 0 0 0-.75-.27c-.2 0-.3.2-.34.31-.06.18-.17.6-.17.9ZM9.83 2.98c.04.1.1.2.18.3v-.1a1.61 1.61 0 0 1-.12-.22.03.03 0 0 0-.03-.02c-.02 0-.03.02-.03.04ZM6.92 7.75c0-.02.03-.03.05-.03.08.02.14.06.19.1l.09.13c0 .02 0 .05-.03.06-.02 0-.05 0-.05-.02a.4.4 0 0 0-.08-.1.28.28 0 0 0-.14-.09c-.02 0-.04-.02-.03-.05Z" fill="#2E4650"/><path d="M6.85 8.1a.04.04 0 0 1 0-.05.37.37 0 0 1 .19-.1.57.57 0 0 1 .16 0c.03 0 .04.02.04.04s-.02.04-.05.03l-.13.01a.28.28 0 0 0-.15.07.05.05 0 0 1-.06 0ZM9.64 11.6c0 .03.01.03.02.04l.04.01a.07.07 0 0 0 .06-.03v-.05l-.06-.02c-.02 0-.03 0-.04.02l-.02.03Zm-.05-.08a.15.15 0 0 1 .11-.05.14.14 0 0 1 .16.14l-.01.04-.03.04a.16.16 0 0 1-.12.04c-.04 0-.08 0-.1-.03a.12.12 0 0 1-.05-.1c0-.03.02-.06.04-.08Z" fill="#2E4650"/><path d="M8.87 4.89c.09 0 .17-.12.17-.26 0-.15-.08-.27-.17-.27-.1 0-.17.12-.17.27 0 .14.07.26.17.26Zm-1.07.05c.1 0 .17-.12.17-.27 0-.14-.08-.26-.17-.26-.1 0-.17.12-.17.26 0 .15.07.27.17.27Z" fill="#EADD5D"/><path d="M9.33 11.42a.08.08 0 0 1-.02-.05l-.1-.23.31-.12.35-.1.13.12-.54.19c-.13.04-.16.1-.15.14l.02.05Z" fill="#2E4650"/><defs><linearGradient id="azehal1zj" x1="7.84" y1="13.89" x2="7.49" y2="13.88" gradientUnits="userSpaceOnUse"><stop stop-color="#773E20"/><stop offset=".51" stop-color="#C65327"/></linearGradient></defs></svg>