<!-- by TradingView --><svg width="18" height="18" viewBox="0 0 18 18" xmlns="http://www.w3.org/2000/svg"><path fill="url(#a2uqbuzsc)" d="M0 0h18v18H0z"/><path d="M10.61 4H7C5.83 4 4 5.15 4 7.33c0 2.19 1.22 2.78 1.83 3L4.15 14h2.23L8.5 9h-1C7 9 6 8.77 6 7.5 6 6.58 6.74 6 7.5 6h2.26l.85-2ZM7.47 14H11c1.22 0 3-1.15 3-3.33 0-2.19-1.22-2.8-1.83-3.03L13.85 4H11.7L9.58 9h.92c.5 0 1.5.23 1.5 1.5S10.97 12 10.5 12H8.31l-.84 2Z" fill="#fff"/><defs><linearGradient id="a2uqbuzsc" x1="5.3" y1=".96" x2="13.18" y2="17.2" gradientUnits="userSpaceOnUse"><stop stop-color="#242A3F"/><stop offset=".38" stop-color="#321B65"/><stop offset=".73" stop-color="#622065"/><stop offset="1" stop-color="#C56058"/></linearGradient></defs></svg>