<!-- by TradingView --><svg width="18" height="18" fill="none" xmlns="http://www.w3.org/2000/svg"><path fill="#F0F3FA" d="M0 0h18v18H0z"/><path fill-rule="evenodd" clip-rule="evenodd" d="M3.847 10.886a2.795 2.795 0 010-4.01L6.955 3.83a2.933 2.933 0 014.09 0l3.108 3.047a2.795 2.795 0 010 4.009l-3.108 3.046a2.96 2.96 0 01-.054.052l-.25-.783.012-.012 2.664-2.598a2.376 2.376 0 000-3.42l-2.664-2.598a2.523 2.523 0 00-3.506 0L4.583 7.171a2.376 2.376 0 000 3.42l2.664 2.598.018.017-.238.794a2.86 2.86 0 01-.072-.068l-3.108-3.046zm6.683 1.655l2.26-2.281c.66-.666.66-1.746 0-2.412L10.196 5.23a1.68 1.68 0 00-2.39 0L5.21 7.85a1.716 1.716 0 000 2.41l2.257 2.278.306-1.022-1.911-1.929a1.004 1.004 0 010-1.41L8.3 5.714a.982.982 0 011.398 0l2.44 2.462c.386.39.386 1.02 0 1.41l-1.93 1.948.321 1.007zm-.57-1.789l1.454-1.468a.544.544 0 000-.765L9.38 6.465a.533.533 0 00-.758 0L6.586 8.52a.544.544 0 000 .765l1.424 1.438.21-.702a1.386 1.386 0 01-.591-1.139c0-.764.614-1.384 1.371-1.384s1.371.62 1.371 1.384c0 .492-.254.923-.636 1.169l.224.702z" fill="url(#paint0_linear_1530)"/><defs><linearGradient id="paint0_linear_1530" x1="9" y1="3" x2="9" y2="14.071" gradientUnits="userSpaceOnUse"><stop stop-color="#530491"/><stop offset="1" stop-color="#03F3FB"/></linearGradient></defs></svg>