<!-- by TradingView --><svg width="18" height="18" viewBox="0 0 18 18" xmlns="http://www.w3.org/2000/svg"><path fill="url(#azyhrdzxo)" d="M0 0h18v18H0z"/><path fill-rule="evenodd" d="M9.07 3.04 8.98 3l-.09.04a4.76 4.76 0 0 0-2.18 1.88 4.56 4.56 0 0 0-2.59 1.03l-.08.06v.1c-.12 1.24.07 2.2.45 2.93-.5 1-.55 2.12-.44 2.87v.1l.09.06a4.58 4.58 0 0 0 2.6 1.04c.41.7 1.1 1.35 2.16 1.85L9 15l.09-.05a5.05 5.05 0 0 0 2.14-1.85c.79 0 1.68-.3 2.63-1.03l.08-.07.01-.1c.1-1.22-.1-2.16-.45-2.88.39-.72.59-1.67.46-2.9L13.95 6l-.09-.06c-.96-.7-1.84-1-2.62-1.02a4.73 4.73 0 0 0-2.17-1.88ZM4.48 6.27a4.19 4.19 0 0 1 2-.85 3.74 3.74 0 0 0-.23 1.91c-.65.3-1.13.72-1.47 1.22a4.82 4.82 0 0 1-.3-2.28Zm0 5.47a4.72 4.72 0 0 1 .3-2.23 3.52 3.52 0 0 0 1.5 1.17 4.31 4.31 0 0 0 .23 1.93 4.28 4.28 0 0 1-2.02-.87Zm1.15-2.01c.23.19.48.34.73.46.1-.44.25-.85.41-1.17a4.8 4.8 0 0 1-.44-1.2c-.6.3-1.02.73-1.3 1.2.17.29.38.52.6.7Zm1.12 2.02c-.04-.3-.05-.6-.02-.9.42.13.83.18 1.18.18.18.31.44.65.76.96-.23.18-.48.32-.76.44-.27.1-.57.18-.9.2a3.24 3.24 0 0 1-.26-.88Zm1.49-1.08c.17.32.44.69.78 1.01.35-.33.6-.7.77-1.03l.07-.12H10c.35 0 .79-.06 1.24-.22-.1-.46-.27-.86-.44-1.16l-.07-.12.06-.12c.22-.46.37-.88.45-1.28a3.5 3.5 0 0 0-1.22-.2l-.13.01-.07-.11A5.03 5.03 0 0 0 9 6.28c-.35.32-.6.69-.77 1l-.06.13h-.13c-.48.03-.9.1-1.27.23.1.5.29.93.47 1.25l.08.13-.07.12c-.18.32-.35.75-.44 1.23.44.14.88.19 1.23.18h.14l.07.12Zm-.16 2.2c.35-.14.67-.33.95-.56a3.86 3.86 0 0 0 1.67.75c-.37.5-.91 1-1.72 1.4a4.23 4.23 0 0 1-1.7-1.37c.28-.04.55-.11.8-.21Zm2.07-.45c.25.1.53.17.82.2a3.26 3.26 0 0 0 .34-1.82c-.42.13-.83.2-1.18.2-.18.32-.43.67-.74.99.23.17.48.32.76.43Zm3.35-.67c-.74.54-1.41.8-2.02.86a3.77 3.77 0 0 0 .27-1.99A3.87 3.87 0 0 0 13.2 9.5c.23.58.36 1.32.3 2.26Zm.01-5.47c.09.94-.04 1.68-.3 2.26a3.56 3.56 0 0 0-1.46-1.22 3.86 3.86 0 0 0-.26-1.9c.6.08 1.28.33 2.02.86Zm-1.17 1.98a3.22 3.22 0 0 0-.67-.45c-.08.38-.22.78-.41 1.2.16.3.31.7.41 1.12a3.4 3.4 0 0 0 1.3-1.12 3.1 3.1 0 0 0-.63-.75ZM10.97 5.4c.25.49.39 1.07.33 1.75-.41-.14-.82-.2-1.16-.2-.25-.39-.51-.7-.78-.97a2.87 2.87 0 0 1 1.62-.58Zm-1.06-.26c-.34.13-.65.3-.92.52a3.41 3.41 0 0 0-1.74-.72c.36-.52.92-1 1.74-1.41.55.24 1.23.72 1.71 1.4-.28.04-.55.11-.8.2Zm-2.92.26c.53.02 1.1.18 1.63.57-.32.32-.57.66-.74.97-.44.03-.84.1-1.19.22a3.65 3.65 0 0 1 .3-1.76ZM7.33 9l1.15-.62.55-1.14.55 1.14 1.09.61-1.09.63-.55 1.14-.55-1.14-1.15-.63Z" fill="#fff"/><defs><linearGradient id="azyhrdzxo" x1="3.35" y1="3.12" x2="21.9" y2="24.43" gradientUnits="userSpaceOnUse"><stop stop-color="#1A1E21"/><stop offset="1" stop-color="#06060A"/></linearGradient></defs></svg>