<!-- by TradingView --><svg width="18" height="18" viewBox="0 0 18 18" xmlns="http://www.w3.org/2000/svg"><path fill="url(#atgz1vzka)" d="M0 0h18v18H0z"/><path d="M7.87 5.22c.05.04 0 .07-.13.1l-.24-.24c-.09-.1-.18-.17-.26-.22a.76.76 0 0 0-.51-.1c-.03 0-.06 0-.09-.02-.09-.04-.21-.04-.37 0h-.02c-.03.02-.04 0-.04-.03l-.01-.1-.28-.13c-.26-.1-.52-.12-.79-.06a.48.48 0 0 0-.25.11c-.08.08-.18.16-.28.23-.12.09-.17.24-.16.44a3.36 3.36 0 0 0 .14.67.4.4 0 0 1 .03.22c0 .02 0 .04.02.06.02.04.05.04.07.03l-.2.48c0 .03-.03.04-.06.04-.02-.01-.03-.02-.04-.05a.52.52 0 0 1 .04-.37c.02-.03.01-.06-.02-.08a.08.08 0 0 1-.03-.05.1.1 0 0 1 0-.05c.02-.05 0-.1-.02-.15a.12.12 0 0 1-.02-.08c0-.16 0-.32-.02-.5-.08-.52.1-.87.54-1.02.02-.01.02-.02.01-.04v-.02h-.02c-.26.09-.46.25-.6.49a.09.09 0 0 1-.07.04c-.02 0-.02 0-.02-.02l.16-.7c.19-.14.39-.13.6.01.08.06.15.08.22.07.49-.11.9 0 1.21.37l.07.03a.9.9 0 0 0 .15-.02.73.73 0 0 1 .18-.01c.3.03.53.1.68.2.1.08.24.23.43.47Z" fill="#C8BFC2"/><path d="m4.33 4.1-.16.7c0 .02 0 .03.02.02.03 0 .05-.02.07-.04.14-.24.34-.4.6-.5h.01l.01.03c.01.02 0 .03-.01.04-.44.15-.62.5-.54 1.03.02.17.03.33.02.49 0 .03 0 .06.02.08.03.05.04.1.02.15a.1.1 0 0 0 0 .05c0 .02.01.04.03.05.03.02.04.05.02.08a.52.52 0 0 0-.04.37c0 .03.02.04.04.05.03 0 .05 0 .07-.04l.2-.48.14-.2a.1.1 0 0 1 .03 0c.02 0 .02.01.01.03a2.86 2.86 0 0 0-.23.55l.01.03c.01.03 0 .06-.02.07a.11.11 0 0 0-.06.05c-.01.02 0 .05.01.07.07.07.07.14 0 .2-.02.03-.02.05 0 .07l.08.1c.04.04.03.05-.02.04l-.03-.01a.06.06 0 0 0-.06 0 .05.05 0 0 0-.02.05c0 .02 0 .04.02.06l.05.07c.02.02.02.05-.01.06a.16.16 0 0 0-.06.06c-.02.05-.01.08.04.1l.7.22v.03l-.66-.13c-.02 0-.03 0-.03.03s0 .05.02.08c.04.04.08.07.14.08l.45.1v.03c0 .02 0 .02-.02.02a1.75 1.75 0 0 0-.47-.06c-.11 0-.12.04-.02.1.11.06.25.09.4.09.03 0 .04 0 .03.03v.04H5.1a2 2 0 0 0-.33-.02c-.08 0-.09.02-.03.07a.5.5 0 0 0 .28.1c.02 0 .03 0 .04.02v.03l-.04.03a.37.37 0 0 1-.14.01c-.02 0-.04.01-.04.04 0 .02 0 .03.02.04.07.04.16.06.27.06.01.08 0 .15-.03.21 0 .02-.03.03-.05.03l-.2-.04c-.14-.1-.28-.28-.41-.58a.94.94 0 0 1-.08-.32c-.02-.35 0-.68.05-1 0-.02 0-.04-.02-.06a.43.43 0 0 1-.08-.1 2 2 0 0 1-.28-1.22c.01-.13 0-.26-.01-.38-.08-.53.02-.88.3-1.06Z" fill="#AC9493"/><path d="M5.92 4.48a.75.75 0 0 1-.22.04 2.5 2.5 0 0 0-.52.07.9.9 0 0 0-.44.29.37.37 0 0 0-.09.21c0 .09 0 .17.02.24.05.15.13.32.26.5l-.08.14-.15.21c-.02.01-.05 0-.07-.03a.1.1 0 0 1-.02-.06.4.4 0 0 0-.03-.22 3.36 3.36 0 0 1-.14-.68c0-.2.04-.34.16-.43.1-.07.2-.15.28-.23.06-.06.15-.1.25-.11.27-.06.53-.03.79.06Z" fill="#E7D7D6"/><path d="m5.92 4.48.28.14c-.39.23-.72.52-.98.86l-.3.35c-.12-.18-.2-.35-.25-.5a.58.58 0 0 1-.02-.24c.01-.08.04-.15.1-.21a.9.9 0 0 1 .43-.29 1.9 1.9 0 0 1 .52-.07c.07 0 .15-.01.22-.04Z" fill="#ECECEC"/><path d="M6.2 4.62c.01.02.02.05.01.1 0 .03.01.04.04.03h.02c.16-.05.28-.05.37 0h.09c.2-.02.36.02.5.11.1.05.18.13.27.22l.24.25-.15.14a1.14 1.14 0 0 0-.74-.6c-.23-.07-.48-.01-.75.15-.3.19-.53.42-.69.7-.1.17-.14.34-.15.53 0 .2.15.26.44.19l.09-.02a.96.96 0 0 1 .54.05l-.07.1-.43.54a.41.41 0 0 0-.41 0 .12.12 0 0 1-.08.01.78.78 0 0 1-.42-.17.07.07 0 0 1-.03-.08l.02-.14c0-.09 0-.15.02-.2.03-.1.05-.2.05-.31 0-.06.02-.13.05-.23l.05-.13c.03-.13.09-.23.18-.31.02-.02.02-.04 0-.06h-.04c.27-.35.6-.64.98-.87Z" fill="#E7D7D6"/><path d="m7.59 5.47-.25.17c-.48.32-.82.6-1 .83a.96.96 0 0 0-.64-.03c-.3.07-.44 0-.44-.19s.06-.36.15-.52c.16-.29.4-.52.7-.71.26-.16.5-.22.74-.15.32.08.57.28.74.6Z" fill="#ECECEC"/><path d="m7.87 5.22.2.04c-.23.1-.45.25-.66.42-.13.11-.26.21-.4.3-.15.1-.28.21-.38.32-.17.17-.28.28-.35.33 0-.02 0-.04-.02-.06l.07-.1a5.02 5.02 0 0 1 1.26-1l.15-.14c.13-.04.18-.07.13-.1Z" fill="#AC9493"/><path d="M8.07 5.26c.93.06 1.61.36 2.05.9.25.3.43.66.56 1.08l-.07.03a.06.06 0 0 0-.04.06c.03.58-.1 1.1-.4 1.53-.16.25-.33.5-.48.76-.07.1-.13.22-.17.35 0 .02 0 .04.02.05.02.02.04.02.07 0 .02-.01.05-.01.07.02.04.05.05.12.04.19-.05.4-.05.8 0 1.22.01.08.03.15.07.21.05.09.07.18.07.27 0 .03.01.05.03.08.04.06.09.11.15.16.02.01.03.04.03.07v.06c0 .03.01.06.03.08.06.1.12.18.16.28.13.26.38.5.77.75a.47.47 0 0 1 .14.13.1.1 0 0 0 .05.04l.36.07h-.34c-.24-.12-.4-.2-.47-.27a3.66 3.66 0 0 1-1.03-1.36.12.12 0 0 0-.05-.09 3.29 3.29 0 0 1-.2-.96c0-.13-.07-.23-.2-.3-.02-.01-.04 0-.05.02l-.09.2a.1.1 0 0 1-.05.06.66.66 0 0 1-.33.03.62.62 0 0 1-.3-.1c-.14-.1-.3-.18-.48-.23a.42.42 0 0 1-.11-.06.37.37 0 0 0-.13-.07 16.21 16.21 0 0 0-1.5-.56l-.7-.29a.1.1 0 0 1-.06-.07v-.03c-.01-.03 0-.04.03-.03l.76.28c.02 0 .04 0 .05-.03l.01-.02-.01-.02-.75-.35c0-.06.04-.09.1-.09l.5.18c.02 0 .02 0 .02-.02a23.09 23.09 0 0 1 2.13.96c.24.12.52.14.83.06a.13.13 0 0 0 .09-.06l.06-.2a.81.81 0 0 1 .06-.19l.11-.23c.12-.25.21-.42.3-.53a4.25 4.25 0 0 0 .36-.6l.05-.15c.06-.15.1-.28.1-.36.01-.16.03-.31.06-.47a1.2 1.2 0 0 0 0-.47c-.18-.82-.75-1.35-1.72-1.6a1.44 1.44 0 0 0-1.22.22c-.45.3-.84.67-1.16 1.07a.15.15 0 0 1-.08.05.17.17 0 0 0-.1.1 2.1 2.1 0 0 1-.1.22c-.09.16-.13.27-.15.36-.06.36-.05.71.03 1.07l.05.07h.02c.02.04.02.06-.02.06-.1 0-.15.04-.18.1a1 1 0 0 1-.24-.19c-.03-.02-.03-.05 0-.07h.04l.16.06c.04 0 .04-.02.02-.04a.95.95 0 0 0-.36-.25.06.06 0 0 1-.04-.05c0-.05 0-.1.02-.13.02-.04.04-.05.07-.01.06.07.14.12.24.15.04.01.04 0 .02-.02a.9.9 0 0 0-.22-.21.08.08 0 0 1-.04-.09c0-.03.02-.06.05-.08.02-.02.04-.01.05.01.02.05.05.08.1.1.01.01.02 0 .02-.01v-.08a.18.18 0 0 1-.1-.13c-.01-.04 0-.06.04-.06a.1.1 0 0 1 .07.02c.04.03.06.02.05-.04a.18.18 0 0 0-.06-.1c-.01-.02-.02-.04 0-.06.17-.38.3-.6.37-.67.12-.11.22-.24.3-.37.07-.05.18-.16.35-.33.1-.1.23-.21.38-.32.14-.09.27-.19.4-.3.2-.17.43-.31.66-.42Z" fill="#D5C1C1"/><path d="m5.22 5.48.04.01c.02.02.02.04 0 .06a.58.58 0 0 0-.18.3L5.03 6a.68.68 0 0 0-.05.23c0 .1-.02.21-.05.31a.68.68 0 0 0-.02.2c0 .06 0 .11-.02.14 0 .04 0 .06.03.08.13.1.28.16.42.17l.08-.01a.41.41 0 0 1 .4 0c-.03.09-.12.24-.25.45a4 4 0 0 0-.43 1.06c-.1 0-.2-.02-.27-.06-.02 0-.02-.02-.02-.04 0-.03.02-.04.04-.04l.14-.01.03-.03v-.03c0-.01 0-.02-.03-.03a.5.5 0 0 1-.28-.09c-.06-.05-.05-.07.03-.07a2 2 0 0 1 .35.02V8.2c0-.02 0-.03-.02-.03a.77.77 0 0 1-.41-.1c-.1-.05-.1-.08.02-.09.15 0 .3.02.47.06.02 0 .02 0 .03-.02V8L5.2 8l-.45-.1a.25.25 0 0 1-.14-.08.11.11 0 0 1-.02-.08c0-.03.01-.04.03-.03a17.18 17.18 0 0 0 .66.12V7.8l-.7-.23c-.05-.01-.06-.04-.04-.09a.16.16 0 0 1 .06-.06c.03-.01.03-.04.01-.06a.63.63 0 0 0-.05-.07.1.1 0 0 1-.02-.06c0-.02 0-.03.02-.04a.06.06 0 0 1 .06-.01h.03c.05.02.06.01.02-.03l-.08-.1c-.02-.02-.02-.04 0-.07.07-.06.07-.13 0-.2-.02-.02-.02-.05 0-.07a.11.11 0 0 1 .05-.05c.03-.01.03-.04.02-.07V6.5c.06-.17.13-.33.22-.5.01-.01 0-.02-.01-.03h-.03l.08-.14.29-.35Z" fill="#D5C1C1"/><path d="M6.2 9.47a7.72 7.72 0 0 0-.1-.05 1.44 1.44 0 0 1-.49-.3c.01-.05.05-.07.11-.06.07 0 .14.03.2.05h.02v-.02l-.22-.13c.03-.07.09-.1.18-.11.04 0 .04-.02.02-.05l-.02-.01a.1.1 0 0 1-.05-.07c-.08-.36-.1-.71-.03-1.07.02-.09.06-.2.14-.36l.1-.21a.17.17 0 0 1 .11-.1c.03-.02.06-.03.08-.06.32-.4.71-.76 1.16-1.07.37-.26.78-.33 1.22-.22.97.25 1.54.78 1.72 1.6.03.15.03.3 0 .47-.03.16-.05.31-.06.47 0 .08-.04.2-.1.36l-.05.16a4.25 4.25 0 0 1-.36.6c-.09.1-.18.27-.3.52l-.11.23a.81.81 0 0 0-.06.19.77.77 0 0 1-.06.2.13.13 0 0 1-.09.06c-.31.08-.59.06-.83-.06a23.06 23.06 0 0 0-2.13-.96ZM8.24 6.1c-.06-.05-.13-.06-.22-.03a4.1 4.1 0 0 0-.64.25c-.18.1-.33.25-.46.46l-.09.12c-.17.26-.26.45-.27.56a3.02 3.02 0 0 1-.04.42c.01.05.02.1.04.13l.02.14c.01.26.06.48.14.67.07.16.2.32.37.5.02.02.05.04.09.05l.06.03c.22.14.45.27.69.38.09.04.23.08.42.12l.18.04c.13.03.29.03.48 0 .07 0 .17-.09.3-.23l.08-.07c.04-.04.08-.1.13-.2a.98.98 0 0 1 .12-.18.55.55 0 0 0 .11-.19c.08-.21.12-.43.12-.63l-.01-.83c0-.1-.02-.18-.05-.26a2 2 0 0 1-.07-.28.17.17 0 0 0-.04-.09.59.59 0 0 1-.15-.22 10.14 10.14 0 0 0-.45-.36.66.66 0 0 0-.25-.1.86.86 0 0 1-.25-.09.77.77 0 0 0-.3-.09.1.1 0 0 1-.06-.02Z" fill="#E7D7D6"/><path d="M8.3 6.11c.1.01.2.04.3.1l.25.08c.1.01.18.05.26.1a10.14 10.14 0 0 1 .44.36c.03.08.08.16.15.22.02.03.04.06.04.1a2 2 0 0 0 .07.27c.03.08.05.17.05.26l.01.83c0 .2-.04.42-.12.63a.55.55 0 0 1-.1.2.98.98 0 0 0-.13.17.86.86 0 0 1-.2.27c-.14.14-.24.22-.31.23-.2.03-.35.03-.48 0l-.18-.04c-.2-.04-.33-.08-.42-.12a6.27 6.27 0 0 1-.84-.46 1.7 1.7 0 0 1-.37-.5c-.08-.19-.13-.41-.14-.67 0-.05 0-.1-.02-.14a1.99 1.99 0 0 1-.04-.17l.04-.38c0-.11.1-.3.27-.56l.09-.12c.13-.21.28-.36.46-.46.2-.1.4-.18.64-.25.09-.03.16-.02.22.03a.1.1 0 0 0 .06.02Z" fill="#ECECEC"/><path d="M6.26 6.57c.02.02.03.04.02.06-.08.13-.18.26-.3.37-.07.07-.2.29-.38.67l.01.06c.03.03.05.06.06.1 0 .06-.01.07-.05.04a.1.1 0 0 0-.07-.02c-.04 0-.05.02-.04.06 0 .06.04.1.1.13v.08c0 .02 0 .02-.02.01a.22.22 0 0 1-.1-.1c-.01-.02-.03-.03-.05 0a.13.13 0 0 0-.05.07c0 .04 0 .07.04.09a.9.9 0 0 1 .22.2c.02.03.02.04-.02.03a.53.53 0 0 1-.24-.15c-.03-.04-.05-.03-.07 0a.28.28 0 0 0-.02.14c0 .02.02.04.04.05.14.06.26.14.36.25.02.02.02.04-.02.04a.42.42 0 0 1-.16-.07L5.3 8.5c-.02-.02-.04-.01-.05 0-.05.08-.05.15 0 .22.02.02.02.03 0 .05a.12.12 0 0 0-.09.04c-.03.03-.03.06-.02.09l.04.04a15.41 15.41 0 0 0 .36.2l.06-.02c.06.08.22.18.5.3l.1.05c0 .02-.01.03-.02.02a9.86 9.86 0 0 1-.51-.18 1.81 1.81 0 0 1-.44-.27c-.08-.07-.1-.06-.07.05.06.18.2.29.41.31l.75.35c.01 0 .02.01.01.02v.02c-.02.03-.04.04-.06.03l-.76-.28c-.03-.01-.04 0-.04.03l.01.03c0 .03.03.06.06.07l.7.3c.01.06 0 .1-.04.09l-.53-.18-.02.01v.02c0 .03 0 .04.03.05l.82.34v.1a18.46 18.46 0 0 1-1.21-.39c-.03.02-.03.03 0 .05l1.4.55a3.34 3.34 0 0 1-1.39-.38c-.03-.02-.05-.01-.03.03.01.04.04.08.08.1.23.1.47.2.74.27l1.83.52c.07.01.13.04.2.09v.04h-.01a.92.92 0 0 0-.34-.11 1.64 1.64 0 0 1-.32-.08c-.14-.04-.3-.09-.5-.13a15.82 15.82 0 0 1-1.6-.44c-.02 0-.04.02-.04.06l-.1.01a.68.68 0 0 1-.11-.29 4.76 4.76 0 0 1-.07-1.08.37.37 0 0 0-.05-.22 1.44 1.44 0 0 0-.13-.18l.2.04c.02 0 .04 0 .05-.03a.34.34 0 0 0 .03-.2 4 4 0 0 1 .43-1.07c.13-.21.22-.36.26-.45l.43-.54Z" fill="#7E6867"/><path d="M10.68 7.24v.05l.05.14c.13.47.13.93.02 1.39-.04.17-.16.45-.35.84a3.17 3.17 0 0 0-.22 2.34l.18.45a.7.7 0 0 0 .17.26l.37.38c.13.15.29.24.47.28a.1.1 0 0 1 .06.05c.04.05.1.07.16.07a.1.1 0 0 1 .07.02c.04.03.08.05.13.06a.2.2 0 0 0 .13-.03.22.22 0 0 1 .1-.04c.03 0 .06-.01.07-.04.13-.2.31-.36.55-.46.07-.03.1 0 .08.07-.04.15-.17.3-.4.42a.12.12 0 0 1-.07.02c-.1 0-.19.02-.25.08-.11.09-.25.1-.42.06l-.36-.07a.1.1 0 0 1-.05-.04l-.03-.02a.46.46 0 0 0-.1-.11c-.4-.24-.65-.5-.78-.75-.04-.1-.1-.19-.16-.28a.14.14 0 0 1-.03-.08v-.06a.08.08 0 0 0-.03-.07.6.6 0 0 1-.15-.16.14.14 0 0 1-.03-.08c0-.1-.02-.18-.07-.27a.55.55 0 0 1-.07-.21 4.93 4.93 0 0 1 0-1.22.25.25 0 0 0-.04-.2c-.02-.02-.05-.02-.07 0h-.08c-.01-.02-.02-.04-.01-.06.04-.13.1-.24.17-.35l.49-.76c.28-.44.42-.95.4-1.53 0-.03 0-.05.03-.06l.07-.03Z" fill="#E7D7D6"/><path d="M13.92 9.98a12.6 12.6 0 0 1-.21 1.95c-.06.22-.21.48-.47.75a.88.88 0 0 0-.16.26.15.15 0 0 0 0 .07.37.37 0 0 1-.17.35l-.2.22a.51.51 0 0 1-.3.13l-.54.04c-.1 0-.2-.01-.32-.04l-.3-.07h.33c.17.06.3.04.42-.05a.37.37 0 0 1 .25-.08c.02 0 .05 0 .07-.02.23-.13.36-.27.4-.42.02-.08-.01-.1-.08-.07-.24.1-.42.25-.55.46a.09.09 0 0 1-.07.04.22.22 0 0 0-.1.04.2.2 0 0 1-.13.03.27.27 0 0 1-.13-.06.1.1 0 0 0-.07-.02c-.07 0-.12-.02-.16-.07a.1.1 0 0 0-.06-.05.91.91 0 0 1-.47-.28c.24.13.5.22.78.27.08.01.14-.02.18-.08l.04-.07c.05-.07.03-.11-.05-.13a1.4 1.4 0 0 1-.51-.25c-.1-.08-.13-.19-.1-.33a.52.52 0 0 1 .23-.33c.18-.1.34-.25.49-.44.09-.12.19-.15.3-.1.13.06.25.16.38.29a.1.1 0 0 0 .11.02c.15-.06.26-.13.3-.22.12-.18.24-.35.37-.51.06-.08.1-.17.11-.28a4.22 4.22 0 0 0-.03-1c-.03-.02-.04-.06-.02-.1a.13.13 0 0 0 0-.08l-.05-.22v-.2c.17.2.23.44.2.71 0 .03 0 .04.03.03h.03c.03 0 .05-.03.06-.06.1-.35-.07-.8-.5-1.37-.03-.05-.06-.05-.1 0v.06l-.4-.45c-.1-.1-.2-.2-.3-.27l-.34-.24a1.67 1.67 0 0 0-.87-.29l-.44-.02c-.04-.01-.06-.01-.07 0l-.04-.14c.85-.08 1.58.15 2.18.68.6.53.96 1.2 1.05 2.01Zm-1.1 2.94c.03.1 0 .2-.07.27v.04h.02c.01.02.03.02.05 0 .15-.15.17-.32.06-.49-.04-.06-.09-.07-.15-.04a1.6 1.6 0 0 0-.57.5v.02c.02.02.03.02.05 0l.05-.04c.18-.18.36-.28.52-.29.02 0 .04.01.04.03Z" fill="#C8BFC2"/><path d="M10.8 7.43c.06.08.17.13.32.14a1.9 1.9 0 0 1 .67.27.8.8 0 0 1 .2.25c.07.13.04.24-.09.33-.09.06-.17.13-.24.22a3.63 3.63 0 0 1-.46.44 3 3 0 0 0-.18.19l-.2.2c-.1.08-.17.17-.22.27a2.2 2.2 0 0 1-.25.34.14.14 0 0 0-.03.06.72.72 0 0 1-.06.17.36.36 0 0 0-.03.1c-.03.14-.07.16-.13.05l.1-.35c.03-.1.1-.25.2-.45.2-.4.3-.67.35-.84.11-.46.1-.92-.02-1.39 0-.01.03-.01.07 0Z" fill="#322E2E"/><path d="M11.24 7.45c.08.03.15.06.21.1l.2.08c.07.02.15.06.25.12l.12.08c.12.07.23.14.33.23l.26.38.04.03c.14.05.18.15.12.28a2 2 0 0 1-.73.79l-.2.14c-.12.1-.25.18-.39.25-.16.09-.28.18-.37.29-.2.23-.35.48-.46.75l-.16.37c-.06.11-.1.24-.13.36 0 .03-.01.05-.03.07-.03.04-.03.1 0 .16 0 .02 0 .04-.02.06-.02.02-.05.02-.1 0a3.18 3.18 0 0 1-.07-1.53c.05.1.1.1.12-.05 0-.03.01-.07.03-.1.03-.05.05-.1.06-.17l.03-.06c.1-.11.18-.22.25-.34.05-.1.13-.2.22-.27l.2-.2a2.96 2.96 0 0 1 .27-.26c.17-.16.3-.28.37-.37.07-.09.15-.16.24-.22.13-.1.16-.2.1-.33a.8.8 0 0 0-.2-.25 1.9 1.9 0 0 0-.67-.27c-.16-.01-.27-.06-.33-.14l.44.02Z" fill="#635454"/><path d="M11.24 7.45c.36.03.65.12.87.29l.34.24c.1.07.2.16.3.27l.4.45c.14.17.23.38.29.63l-.02.13v.07l.06.22v.08c-.02.04 0 .08.02.1l.03.06c.04.27.04.59 0 .94a.52.52 0 0 1-.1.28c-.14.16-.26.33-.37.51-.05.09-.16.16-.31.22a.1.1 0 0 1-.11-.02 1.28 1.28 0 0 0-.38-.29c-.11-.05-.21-.02-.3.1-.15.19-.3.33-.49.44a.52.52 0 0 0-.22.33c-.04.14-.01.25.09.33.14.11.31.2.51.25.08.02.1.06.05.13l-.04.07c-.04.06-.1.09-.18.08a2.69 2.69 0 0 1-.78-.27l-.37-.38c.05-.03.07-.08.05-.15a.64.64 0 0 1 .06-.38c.23-.54.5-1.02.8-1.44a.52.52 0 0 1 .17-.16c.06-.03.14-.09.23-.18a.88.88 0 0 1 .4-.24c.3-.11.5-.22.6-.33.1-.1.19-.24.28-.4.06-.11.07-.23.05-.36a.62.62 0 0 0-.18-.34 3.33 3.33 0 0 0-1.54-1.18 2.12 2.12 0 0 0-.21-.1Z" fill="#A69D9C"/><path d="M12.35 8.06c.22.17.44.4.64.67-.07.33-.24.61-.54.85-.11.1-.25.18-.4.26l-.49.26c-.2.13-.39.33-.54.6l-.27.46c-.1.16-.17.31-.2.47-.06.2-.1.35-.16.47a.1.1 0 0 0 0 .07c.04.14.03.23-.03.28l-.18-.46c.05.02.08.02.1 0a.05.05 0 0 0 .01-.06c-.02-.06-.02-.12.01-.16a.17.17 0 0 0 .03-.07c.03-.12.07-.25.13-.36l.16-.37c.1-.27.26-.52.46-.75.09-.1.21-.2.37-.29.14-.07.27-.16.38-.25l.21-.14c.16-.12.28-.2.34-.27a2 2 0 0 0 .4-.52c.05-.13.01-.23-.13-.28a.08.08 0 0 1-.04-.03l-.26-.38Z" fill="#696868"/><path d="M5.52 8.68h-.04c-.03.03-.03.06 0 .08a1 1 0 0 0 .24.2 299.26 299.26 0 0 1 .22.15h-.02a.89.89 0 0 0-.2-.05c-.06-.01-.1 0-.1.06l-.07.02-.06-.01a15.41 15.41 0 0 1-.34-.23c-.01-.03 0-.06.02-.09a.12.12 0 0 1 .08-.03l.02-.01v-.05c-.06-.07-.06-.14-.01-.21 0-.02.03-.03.05-.01l.2.18Z" fill="#AC9493"/><path d="M13.44 9.33a1.61 1.61 0 0 0-.29-.63v-.06c.04-.05.07-.05.1 0 .43.56.6 1.02.5 1.37-.01.03-.03.05-.06.06h-.03c-.02.01-.03 0-.03-.03a.93.93 0 0 0-.2-.71Z" fill="#E7D7D6"/><path d="M12.99 8.73c.1.1.15.2.18.34.02.13 0 .25-.05.35-.1.17-.18.3-.28.41-.1.11-.3.22-.6.33l-.14.05a.88.88 0 0 0-.26.2c-.1.08-.17.14-.23.17a.52.52 0 0 0-.16.16c-.3.42-.58.9-.81 1.44a.64.64 0 0 0-.06.38c.02.07 0 .12-.05.15a.7.7 0 0 1-.17-.26c.06-.05.07-.14.03-.28a.1.1 0 0 1 0-.07c.05-.12.1-.28.15-.47.04-.16.11-.31.21-.47.1-.16.2-.31.27-.45.15-.28.33-.48.54-.6l.49-.27c.15-.08.29-.17.4-.26.3-.24.47-.52.54-.85Z" fill="#817877"/><path d="M5.68 9.31c-.06 0-.1.03-.1.1-.21-.03-.35-.14-.41-.32-.04-.1-.01-.12.07-.05.12.1.26.19.44.27Z" fill="#AC9493"/><path d="M6.2 10.06a69.05 69.05 0 0 1 1.57.58c.16.05.3.11.45.2v.02l-.03.02h-.01L6.5 10.3l-.82-.34a.05.05 0 0 1-.03-.07h.02l.53.17Z" fill="#D5C1C1"/><path d="M6.25 9.96a16.17 16.17 0 0 1 1.5.56c.04.01.08.03.13.07l.11.06c.18.05.34.13.47.24.06.04.17.07.31.09.15.01.26 0 .33-.03a.1.1 0 0 0 .05-.06l.09-.2c0-.02.03-.03.05-.02.13.07.2.17.2.3a3.29 3.29 0 0 0 .2.96c.03.03.05.05.05.09l.03.1c.24.5.57.91 1 1.26.07.06.23.15.47.26l.31.07c.11.03.22.04.32.04l.53-.04a.51.51 0 0 0 .3-.13c.08-.07.15-.15.2-.22.01.04.03.04.08 0 .04-.02.05-.01.03.02a.14.14 0 0 0-.02.07c0 .03-.01.05-.05.06-.02 0-.04.02-.05.05 0 .02-.01.03-.03.04l-.2.1-.34.13-.42-.01c-.16 0-.3-.02-.43-.05l-.32-.08a.38.38 0 0 1-.15-.07.62.62 0 0 0-.14-.09 2.28 2.28 0 0 1-.42-.24 5.83 5.83 0 0 1-.24-.18.3.3 0 0 1-.07-.12.26.26 0 0 0-.1-.13.12.12 0 0 1-.04-.05.2.2 0 0 0-.1-.11.09.09 0 0 1-.04-.06.55.55 0 0 0-.13-.24.19.19 0 0 1-.05-.08 2.6 2.6 0 0 0-.23-.62c-.05-.1-.13-.12-.23-.05a.6.6 0 0 1-.43.1 13.6 13.6 0 0 1-.93-.12l-1.46-.24c-.26-.04-.52-.1-.76-.18-.11-.06-.14-.1-.07-.12.16.08.33.13.5.16l.84.13.64.1a4.67 4.67 0 0 1 .66.13v-.02c.02-.02 0-.04-.01-.04-.5-.12-1.03-.24-1.58-.34l-.3-.09c-.12-.05-.11-.07.02-.05.21.02.43.06.65.11a9.92 9.92 0 0 0 .79.17 2.34 2.34 0 0 0 .5.09v-.02c-.64-.18-1.29-.35-1.94-.5a7.56 7.56 0 0 1-.93-.28.18.18 0 0 0-.08-.06c0-.04.02-.06.05-.06a.6.6 0 0 1 .12.05l.08.03c.49.15.95.27 1.39.36.2.04.36.09.5.13.1.04.21.06.32.08.1.01.22.05.34.11l.01-.02v-.02a.65.65 0 0 0-.2-.1l-1.83-.51a4.93 4.93 0 0 1-.74-.27.16.16 0 0 1-.08-.1c-.02-.04 0-.05.03-.03.44.23.9.35 1.4.38.21.01.46.07.72.18.24.1.47.17.7.23.03 0 .07 0 .11-.02.03-.01.03-.02 0-.03l-1.72-.57-.01-.1 1.67.58h.01l.03-.02v-.03a1.86 1.86 0 0 0-.45-.19.6.6 0 0 1-.1-.04 69.03 69.03 0 0 0-1.45-.54c.03 0 .04-.03.03-.1Z" fill="#AC9493"/><path d="m6.52 10.4 1.72.57c.03 0 .03.02 0 .03a.16.16 0 0 1-.12.02 5.73 5.73 0 0 1-.69-.23c-.26-.1-.5-.17-.73-.18l-1.4-.55c-.03-.02-.03-.03 0-.05a18.46 18.46 0 0 0 1.22.39Z" fill="#D5C1C1"/><path d="M13.92 9.98c.15.82.09 1.62-.18 2.39a4.8 4.8 0 0 1-.33.8c-.16.27-.41.45-.75.54l.2-.1a.06.06 0 0 0 .03-.05c0-.03.03-.05.05-.05.04 0 .05-.03.05-.06 0-.02 0-.05.02-.07.02-.03 0-.04-.03-.02-.05.04-.07.04-.07 0 .12-.1.17-.2.16-.35l.01-.07c.05-.11.1-.2.16-.26.26-.27.41-.53.47-.75.1-.43.16-1.08.21-1.95Z" fill="#A69D9C"/><path d="m5.22 10.6.1-.02c.04.02.07.04.08.06-.06.12 0 .24.18.37.02.02.02.03 0 .05l-.02.03c-.07.02-.04.06.07.12a.3.3 0 0 0 0 .19c0 .02.02.04.05.05l.03.02c.12.06.2.1.27.1a59.98 59.98 0 0 1 1.5.23v.02h-.01a9.1 9.1 0 0 1-1.43-.11c-.02 0-.03 0-.03.03.01.04.04.06.07.07l.38.05 1.5.12c.3.03.3.05 0 .07h-.4l-1.37-.08c-.08 0-.08.02-.02.06.05.03.11.05.19.06a17.75 17.75 0 0 0 1.72.05v.02l-.01.02c-.51.04-1.01.05-1.5.03-.03 0-.04.01-.02.04l.04.04c.01.02.04.03.06.03l1.06-.01c.02 0 .03 0 .03.03v.02c.01.02 0 .03-.01.03-.33.03-.64.05-.95.03a.1.1 0 0 0-.09.04l-.02.03c-.02.03-.01.04.02.04.42 0 .84-.02 1.25-.07.1-.01.23 0 .39.05l.2.05c.21.03.47.04.76.02.04 0 .08-.01.11-.03.14-.07.3.03.5.3l.01.03a3.59 3.59 0 0 0 1.57 1.08c-.08.06-.18.05-.3-.01a.82.82 0 0 0-.27-.1 3.16 3.16 0 0 0-.47 0c-.33.01-.82 0-1.45-.03a4.2 4.2 0 0 1-1.23-.28 3.55 3.55 0 0 1-1.11-.68 4.87 4.87 0 0 1-1.43-2.14c-.02-.07-.02-.11 0-.13Z" fill="#635454"/><path d="M5.4 10.64c.38.14.69.24.93.29a32.71 32.71 0 0 1 1.95.5l-.01.01c-.11 0-.28-.03-.5-.1a7.1 7.1 0 0 0-1.44-.28c-.13 0-.14.01-.02.06.1.04.2.08.3.1.54.1 1.07.2 1.58.33.02 0 .03.02.02.04v.02h-.02c-.22-.06-.43-.1-.65-.14l-.64-.09c-.28-.05-.56-.1-.84-.13a1.77 1.77 0 0 1-.5-.16l.03-.03c.01-.02.01-.03-.01-.05-.18-.13-.24-.25-.18-.37Z" fill="#7E6867"/><path d="M5.63 11.21c.24.08.5.14.76.18l1.46.24c.26.05.57.1.93.13a.6.6 0 0 0 .43-.11c.1-.07.18-.06.23.05.1.2.18.4.23.62l.05.08c.06.07.1.15.13.24 0 .02.02.04.04.06a.2.2 0 0 1 .1.1c0 .03.02.05.05.06l.09.13c.02.06.04.1.07.12l.24.18c.15.1.29.19.42.24.05.02.1.05.14.09.04.03.1.05.15.07l.32.08c.12.03.27.04.43.05l.42.01c-.25.13-.53.17-.84.13a3.58 3.58 0 0 1-1.58-1.1c-.2-.28-.36-.38-.5-.31a.28.28 0 0 1-.1.03 3.33 3.33 0 0 1-.97-.07c-.16-.04-.3-.06-.4-.05-.4.05-.82.07-1.24.07-.03 0-.04-.01-.02-.04l.02-.03a.1.1 0 0 1 .09-.04c.3.02.62 0 .95-.03.01 0 .02-.01.02-.03v-.02c-.01-.02-.02-.03-.04-.03l-1.06.01a.08.08 0 0 1-.06-.03l-.04-.04c-.02-.03-.01-.04.02-.04a11.45 11.45 0 0 0 1.51-.05v-.02l-.02-.01c-.53.01-1.1 0-1.7-.04a.39.39 0 0 1-.2-.06c-.05-.04-.05-.06.02-.06a71.24 71.24 0 0 1 1.78.08c.3-.02.3-.04 0-.07a324.47 324.47 0 0 1-1.88-.17.08.08 0 0 1-.07-.07c0-.02 0-.03.03-.03a9.1 9.1 0 0 0 1.44.11v-.02l-.02-.02c-.5-.08-.99-.14-1.48-.2a.86.86 0 0 1-.3-.13.09.09 0 0 1-.05-.05.3.3 0 0 1 0-.19Z" fill="#7E6867"/><path d="M12.78 12.9c-.16 0-.34.1-.52.28l-.05.05h-.05v-.03c.14-.2.33-.37.57-.5.06-.03.11-.02.15.04.11.17.1.34-.06.5h-.05l-.02-.01v-.04c.07-.08.1-.17.07-.27 0-.02-.02-.03-.04-.03Z" fill="#E7D7D6"/><defs><linearGradient id="atgz1vzka" x1="0" y1="15.33" x2="19.49" y2="-1.55" gradientUnits="userSpaceOnUse"><stop stop-color="#271FDE"/><stop offset=".22" stop-color="#2924C8"/><stop offset=".49" stop-color="#2A6BCF"/><stop offset=".85" stop-color="#CC43B5"/></linearGradient></defs></svg>