<!-- by TradingView --><svg width="18" height="18" viewBox="0 0 18 18" xmlns="http://www.w3.org/2000/svg"><path fill="#F0F3FA" d="M0 0h18v18H0z"/><mask id="aham5zf23" maskUnits="userSpaceOnUse" x="3" y="5" width="12" height="8"><path d="M3 5h12v8H3V5Z" fill="#fff"/></mask><g mask="url(#aham5zf23)"><path d="m14.18 7.68-1.6-1.76a2.8 2.8 0 0 0-.91-.69A2.56 2.56 0 0 0 9 5.54a2.6 2.6 0 0 0-3.58.37l-1.6 1.76a3.39 3.39 0 0 0 0 4.4c.26.3.57.53.92.69a2.56 2.56 0 0 0 2.67-.31 2.6 2.6 0 0 0 3.18 0 2.6 2.6 0 0 0 3.59-.36 3.39 3.39 0 0 0 0-4.4Zm-7.64 3.88c-.63.34-1.4.21-1.92-.36a2.02 2.02 0 0 1 0-2.64l1.6-1.77c.15-.17.33-.31.54-.4a1.54 1.54 0 0 1 1.37.04L7.01 7.67a3.23 3.23 0 0 0-.83 2.2c0 .6.15 1.17.43 1.66l-.07.03Zm3.65-.36c-.16.17-.34.31-.55.4a1.54 1.54 0 0 1-1.29 0c-.2-.09-.39-.23-.55-.4a2.02 2.02 0 0 1 0-2.64L9 7.23l1.2 1.33c.65.72.65 1.91 0 2.64Zm3.19 0a1.57 1.57 0 0 1-2 .33 3.34 3.34 0 0 0-.4-3.86L9.88 6.43c.62-.33 1.4-.21 1.91.36v.01l1.6 1.75v.01c.16.18.28.38.37.6a2.03 2.03 0 0 1-.37 2.05Z" fill="#4EC3C9"/></g></svg>