<!-- by TradingView --><svg width="18" height="18" viewBox="0 0 18 18" xmlns="http://www.w3.org/2000/svg"><path fill="url(#agx25fdtp)" d="M0 0h18v18H0z"/><path d="M8.76 6.22c-.42 1.29-.48 2.49-.2 3.07-.55-.34-1.77-.42-3.12-.14-1.75.36-3.07 1.17-2.93 1.82.14.65 1.67.89 3.43.53a5.47 5.47 0 0 0 2.67-1.2c.1.66.62 1.6 1.43 2.49 1.2 1.32 2.58 2.03 3.08 1.58.5-.44-.07-1.87-1.27-3.19-.8-.89-1.7-1.5-2.35-1.67.55-.36 1.17-1.33 1.57-2.56.55-1.69.48-3.22-.16-3.42-.64-.2-1.6 1-2.15 2.69Z" fill="#fff"/><defs><linearGradient id="agx25fdtp" x1="9" y1="0" x2="9" y2="18" gradientUnits="userSpaceOnUse"><stop stop-color="#70AEDC"/><stop offset="1" stop-color="#4085BF"/></linearGradient></defs></svg>