<!-- by TradingView --><svg width="18" height="18" viewBox="0 0 18 18" fill="none" xmlns="http://www.w3.org/2000/svg">
<rect width="18" height="18" fill="#004AAD"/>
<path fill-rule="evenodd" clip-rule="evenodd" d="M12.3988 9.46309C12.4507 9.52443 12.504 9.57503 12.5589 9.61489C12.6965 9.71534 12.8166 9.85254 12.9192 10.0265C12.9569 10.0906 12.9959 10.1547 13.036 10.2189C13.083 10.2943 13.1457 10.3772 13.224 10.4677C13.2829 10.5358 13.3617 10.5969 13.4602 10.6512C13.5888 10.7221 13.7187 10.787 13.8498 10.846C13.855 10.8482 13.8588 10.8468 13.8612 10.8417C13.874 10.8139 13.886 10.786 13.897 10.7581C14.1584 10.0922 14.2906 9.40014 14.2937 8.68195C14.2967 7.96041 14.169 7.27059 13.9106 6.6125C13.4838 5.52541 12.785 4.64606 11.814 3.97443C11.7144 3.90539 11.6084 3.83828 11.496 3.77309C10.9053 3.42977 10.2771 3.20012 9.61153 3.08415C9.34713 3.03804 9.08264 3.01088 8.81807 3.00267C8.87854 3.00089 8.93918 3 9 3C9.79567 3 10.5611 3.15223 11.2962 3.4567C12.0313 3.76117 12.6801 4.1947 13.2427 4.7573C13.8053 5.31989 14.2388 5.96874 14.5433 6.70384C14.8478 7.43895 15 8.20433 15 9C15 9.79567 14.8478 10.5611 14.5433 11.2962C14.2388 12.0313 13.8053 12.6801 13.2427 13.2427C12.6801 13.8053 12.0313 14.2388 11.2962 14.5433C10.5611 14.8478 9.79567 15 9 15C8.20433 15 7.43895 14.8478 6.70384 14.5433C5.96874 14.2388 5.31989 13.8053 4.7573 13.2427C4.1947 12.6801 3.76117 12.0313 3.4567 11.2962C3.15223 10.5611 3 9.79567 3 9C3 8.94297 3.00078 8.88609 3.00235 8.82936C3.02832 9.75804 3.2699 10.6323 3.72708 11.4523C3.78698 11.5597 3.85072 11.6645 3.91829 11.7667C4.57561 12.7616 5.45966 13.4857 6.57045 13.9389C6.58356 13.9443 6.59217 13.9402 6.59625 13.9266C6.61605 13.8608 6.64019 13.796 6.66865 13.7322C6.72138 13.6142 6.77552 13.4949 6.83109 13.3742C6.86612 13.2983 6.93493 13.1935 7.03753 13.0598C7.08444 12.9986 7.11866 12.9525 7.1402 12.9214C7.18413 12.8578 7.22609 12.7824 7.26606 12.6951C7.35381 12.5033 7.44534 12.314 7.54064 12.1274C7.62207 11.9681 7.71409 11.8323 7.81669 11.7201C7.84281 11.6914 7.88235 11.6489 7.93532 11.5927C8.02555 11.4968 8.09238 11.4238 8.13582 11.3735C8.34375 11.133 8.53379 10.9454 8.70594 10.8108C8.7453 10.78 8.76727 10.7467 8.77185 10.7108C8.77705 10.6703 8.75675 10.6377 8.71095 10.613C8.65179 10.581 8.59573 10.5528 8.54276 10.5286C8.47828 10.4991 8.39084 10.4424 8.28044 10.3586L8.24424 10.3312C8.11354 10.2327 7.97623 10.1603 7.83229 10.1139C7.51137 10.01 7.17677 9.92468 6.8285 9.85776C6.60918 9.81554 6.39161 9.76339 6.17576 9.70131C6.05769 9.66728 5.9484 9.63034 5.84791 9.59049C5.63503 9.50605 5.44128 9.37835 5.26665 9.20737C5.10006 9.04421 4.96305 8.85411 4.85563 8.63706C4.7758 8.47564 4.70067 8.30628 4.63025 8.12897C4.55847 7.94781 4.55859 7.76348 4.63062 7.57599C4.69832 7.40004 4.76039 7.2691 4.81682 7.18318C4.83019 7.16294 4.85136 7.13171 4.88032 7.0895C4.96596 6.96496 5.02432 6.86997 5.05538 6.80453L5.08341 6.74493C5.13453 6.63541 5.17568 6.55415 5.20687 6.50113C5.29437 6.35287 5.39276 6.21479 5.50205 6.0869C5.50923 6.07858 5.52086 6.06716 5.53695 6.05263C5.55205 6.0391 5.563 6.02848 5.56981 6.02078C5.57785 6.01159 5.57866 6.00178 5.57222 5.99135C5.56282 5.97621 5.5523 5.96162 5.54066 5.94759L5.4859 5.88277C5.41102 5.79449 5.35613 5.72725 5.32123 5.68106C5.26244 5.60345 5.21745 5.53286 5.18626 5.46929C5.11039 5.31483 5.07982 5.13453 5.09455 4.92841C5.10421 4.79233 5.16101 4.68324 5.26498 4.60117C5.37154 4.51698 5.49295 4.45713 5.62922 4.42162C5.74023 4.39257 5.87619 4.3768 6.03708 4.37431L6.86785 4.36165C6.99446 4.35966 7.13642 4.33942 7.29373 4.30093C7.33086 4.29174 7.36984 4.28659 7.41068 4.28547C7.6972 4.27802 7.99751 4.27473 8.31163 4.2756C8.90632 4.27734 9.40503 4.47632 9.80776 4.87254C9.84414 4.9083 9.90219 4.95989 9.98189 5.02731C10.0768 5.10777 10.1438 5.16887 10.1828 5.21059C10.3049 5.34158 10.4107 5.49853 10.5002 5.68143C10.574 5.83254 10.6425 6.0147 10.7057 6.22789C10.7384 6.33791 10.7585 6.44078 10.7661 6.53651C10.7945 6.89511 10.8367 7.1982 10.8927 7.4458C10.9126 7.5342 10.9293 7.58598 10.9428 7.60113L10.9651 7.62627C11.0546 7.72722 11.119 7.80594 11.1583 7.86244C11.2436 7.98413 11.3176 8.08116 11.3802 8.15355C11.4653 8.25177 11.5532 8.33403 11.6438 8.40034C11.6943 8.43734 11.7372 8.48744 11.7726 8.55064C11.8374 8.66612 11.8998 8.78662 11.96 8.91216C11.9809 8.95574 12.0265 9.01236 12.0968 9.08202C12.1431 9.12796 12.1759 9.16372 12.1952 9.1893C12.2118 9.2114 12.2359 9.24474 12.2676 9.28932C12.3239 9.36829 12.3676 9.42621 12.3988 9.46309Z" fill="black"/>
<path d="M10.0198 5.89098C9.97408 5.87889 9.90678 5.85698 9.81788 5.82525C9.72785 5.79314 9.65935 5.77092 9.61238 5.75858C9.60307 5.75606 9.58915 5.75234 9.57064 5.74743C9.35658 5.69102 9.1978 5.64305 9.0943 5.60351C9.06572 5.59268 9.03008 5.58563 8.98739 5.58236C8.66832 5.55818 8.35913 5.58129 8.05983 5.65167C7.82134 5.70758 7.63253 5.76456 7.49339 5.82261C7.45348 5.83923 7.39908 5.87178 7.3302 5.92025C7.28021 5.95538 7.24162 5.98032 7.21442 5.99505C7.04167 6.08848 6.88137 6.18191 6.73355 6.27534C6.71541 6.2868 6.68809 6.30342 6.65157 6.3252C6.57187 6.3728 6.51344 6.41089 6.4763 6.43947C6.4695 6.44463 6.46301 6.44432 6.45684 6.43853C6.34075 6.32999 6.23341 6.20136 6.13481 6.05266C6.08042 5.97068 6.04289 5.88569 6.02224 5.79767C6.00361 5.71809 5.99668 5.62517 6.00147 5.51889C6.00524 5.43327 6.04289 5.35741 6.11441 5.2913C6.17422 5.23602 6.24959 5.19365 6.3405 5.16419C6.41781 5.13913 6.50476 5.12339 6.60133 5.11697C6.86664 5.09921 7.2012 5.09115 7.60502 5.09279C7.73534 5.0933 7.87958 5.07296 8.03773 5.03178C8.07211 5.02297 8.11756 5.01894 8.1741 5.0197C8.25267 5.02045 8.375 5.01705 8.54108 5.0095C8.70704 5.00182 8.82528 4.99879 8.89579 5.00043C8.9104 5.00081 8.93231 5.00131 8.96152 5.00194C9.11854 5.00534 9.23614 5.01 9.31434 5.01592C9.44529 5.02587 9.56088 5.04312 9.66111 5.06767C9.73578 5.08605 9.82191 5.1176 9.91949 5.1623C9.97716 5.18874 10.0615 5.23117 10.1726 5.2896C10.1814 5.29426 10.1879 5.29772 10.1922 5.29999C10.2796 5.34607 10.367 5.41495 10.4544 5.50662C10.5714 5.62913 10.6984 5.7424 10.8355 5.8464C10.8767 5.87763 10.9149 5.9166 10.9502 5.96332C11.0876 6.14539 11.1935 6.34875 11.2679 6.57338C11.2777 6.60298 11.2941 6.64856 11.3172 6.71013C11.3522 6.80343 11.3767 6.8742 11.3906 6.92243C11.4143 7.00364 11.4277 7.07718 11.4309 7.14303C11.4375 7.28267 11.4481 7.41489 11.4626 7.53967C11.4634 7.54685 11.4602 7.54962 11.4532 7.54798C11.4407 7.54508 11.4319 7.53715 11.4267 7.52418C11.3722 7.38731 11.3111 7.25642 11.2435 7.13151C11.2115 7.07258 11.1818 6.9874 11.1544 6.87596C11.1345 6.79588 11.0908 6.71126 11.0235 6.62211C10.8709 6.4204 10.7283 6.27824 10.5957 6.19563C10.5814 6.18682 10.56 6.17297 10.5314 6.15408C10.4354 6.09075 10.3615 6.05121 10.3097 6.03547C10.2218 6.00865 10.1502 5.97301 10.095 5.92856C10.0729 5.91081 10.0479 5.89828 10.0198 5.89098Z" fill="#FFFC92"/>
<path d="M10.5537 6.62212C10.6028 6.79437 10.6591 6.93068 10.7227 7.03103C10.7987 7.15091 10.8904 7.28501 10.9977 7.43334C11.0146 7.45651 11.0435 7.48742 11.0844 7.52608C11.1296 7.56864 11.1607 7.60295 11.1777 7.62901C11.2262 7.7033 11.2729 7.77898 11.3178 7.85604C11.3926 7.9841 11.4817 8.09302 11.5849 8.1828C11.6879 8.2722 11.7668 8.35102 11.8216 8.41927C11.9233 8.54606 12.0151 8.6801 12.097 8.82138C12.1173 8.85651 12.1413 8.91148 12.1689 8.98627C12.1766 9.00679 12.1824 9.02222 12.1863 9.03254C12.2111 9.09714 12.2579 9.1635 12.3266 9.23162C12.3609 9.26562 12.3884 9.31114 12.4094 9.36818C12.4707 9.53451 12.5176 9.68845 12.5503 9.82998C12.5625 9.88324 12.5574 9.94141 12.5351 10.0045C12.5015 10.0994 12.4526 10.1862 12.3884 10.2648C12.3164 10.353 12.2374 10.4143 12.1515 10.4485C12.1148 10.4633 12.0598 10.4864 11.9866 10.518C11.8517 10.5763 11.749 10.617 11.6786 10.6401C11.6019 10.6651 11.4871 10.7055 11.3343 10.7613C11.0892 10.8506 10.9036 10.9124 10.7773 10.9466C10.6334 10.9856 10.4541 10.9968 10.2396 10.9802C10.1922 10.9766 10.1435 10.9588 10.0934 10.9268C10.0002 10.8676 9.92602 10.8131 9.87087 10.7634C9.79381 10.6943 9.72462 10.6474 9.66329 10.6227C9.45377 10.5387 9.28982 10.4393 9.17146 10.3245C9.14489 10.2986 9.11505 10.2773 9.08194 10.2604C9.05612 10.2473 9.01734 10.228 8.96559 10.2024C8.77155 10.1067 8.62882 10.0269 8.53741 9.96294C8.34589 9.82897 8.11571 9.74429 7.84688 9.70891C7.59543 9.67592 7.34246 9.6399 7.08798 9.60087C7.0531 9.59546 7.01891 9.5874 6.98542 9.57669C6.90257 9.55025 6.81713 9.53042 6.72912 9.5172C6.6965 9.51216 6.6649 9.5048 6.6343 9.4951C6.43409 9.43139 6.24119 9.36887 6.05559 9.30755C5.854 9.24094 5.69811 9.14354 5.58793 9.01536C5.42424 8.82484 5.28706 8.64346 5.17637 8.47121C5.14943 8.42953 5.12355 8.37387 5.09875 8.30424C5.05921 8.19331 5.02647 8.07866 5.00053 7.9603C4.99852 7.95111 5.00223 7.94683 5.01168 7.94746C5.03094 7.94897 5.04932 7.94576 5.06683 7.93782C5.1347 7.9071 5.18708 7.88015 5.22397 7.85699C5.279 7.82236 5.32332 7.78351 5.35694 7.74045C5.38892 7.69953 5.41927 7.66024 5.44798 7.62259C5.50011 7.5546 5.53631 7.47659 5.55658 7.38857C5.57799 7.29628 5.57773 7.20921 5.55582 7.12736C5.5222 7.00119 5.48915 6.87679 5.45667 6.75414C5.45364 6.74243 5.45402 6.73078 5.4578 6.7192C5.47568 6.6643 5.49885 6.61242 5.5273 6.56357C5.5812 6.47089 5.63075 6.35857 5.67595 6.22661C5.6961 6.16806 5.73299 6.11014 5.78663 6.05285C5.83322 6.00299 5.88655 5.95936 5.94661 5.92196C5.95769 5.91503 5.97456 5.90477 5.99723 5.89117C6.07101 5.84697 6.12358 5.8109 6.15494 5.78295C6.18365 5.75738 6.20952 5.73818 6.23256 5.72534C6.36037 5.65331 6.49743 5.58179 6.64375 5.51078C6.68631 5.49013 6.75002 5.44794 6.83489 5.38423C6.91371 5.32505 6.99191 5.26373 7.06947 5.20027C7.09528 5.17911 7.1279 5.16293 7.16731 5.15172C7.55614 5.04029 7.90927 4.99024 8.22671 5.00157C8.2981 5.00421 8.3632 5.01592 8.42201 5.0367C8.52085 5.07183 8.62095 5.10167 8.72232 5.12623C8.78037 5.14033 8.8369 5.15846 8.89193 5.18062C8.91384 5.18944 8.94708 5.20045 8.99165 5.21368C9.05033 5.23105 9.09396 5.24667 9.12254 5.26052C9.20086 5.29854 9.2812 5.32625 9.36355 5.34362C9.41757 5.35495 9.48562 5.38624 9.56772 5.43749C9.62048 5.47048 9.66203 5.49359 9.69238 5.50681C9.75282 5.53325 9.81628 5.57002 9.88277 5.61711C9.96688 5.6768 10.049 5.73812 10.1292 5.80108C10.1961 5.85346 10.2489 5.90087 10.2875 5.9433C10.3373 5.99795 10.3759 6.05644 10.4033 6.11877C10.4577 6.24179 10.5081 6.37463 10.5546 6.51729C10.5642 6.54663 10.564 6.5754 10.5542 6.60361C10.5521 6.60965 10.5519 6.61582 10.5537 6.62212Z" fill="#F4C9B8"/>
<path d="M5.31054 8.39489C5.31759 8.34176 5.31872 8.2805 5.31394 8.21112C5.31217 8.18531 5.30229 8.16428 5.28428 8.14803C5.26653 8.13204 5.24475 8.12417 5.21893 8.12442C5.20886 8.12455 5.20156 8.12008 5.19702 8.11101C5.19262 8.10195 5.1935 8.09339 5.19967 8.08533C5.23795 8.03609 5.27251 8.0082 5.30336 8.00166C5.34176 7.99347 5.37954 8.01563 5.41669 8.06814C5.46932 8.14268 5.49123 8.22346 5.48241 8.31047C5.47637 8.37065 5.46013 8.42669 5.43368 8.47857C5.40699 8.53132 5.37293 8.57338 5.3315 8.60473C5.23581 8.67726 5.12903 8.67865 5.01117 8.60889C5.00336 8.60423 4.99965 8.59743 5.00003 8.58849L5.00475 8.43871C5.005 8.43091 5.00903 8.42751 5.01684 8.42851C5.15043 8.4469 5.24519 8.44041 5.30109 8.40906C5.30663 8.40591 5.30978 8.40119 5.31054 8.39489Z" fill="white"/>
<path d="M9.45257 8.14125C9.5596 8.09617 9.66934 8.0577 9.78178 8.02584C9.91677 7.98769 10.0567 7.99178 10.2017 8.03812C10.2594 8.0565 10.298 8.09913 10.3172 8.16599C10.3582 8.30701 10.3638 8.43696 10.3342 8.55583C10.3009 8.68993 10.2258 8.79072 10.1089 8.85822C9.97708 8.93427 9.83429 8.97274 9.68055 8.97362C9.57125 8.97437 9.46712 8.97538 9.36815 8.97664C9.29008 8.97765 9.22297 8.95228 9.16681 8.90052C9.11644 8.85406 9.0798 8.79173 9.05688 8.71354C9.05021 8.69075 9.04536 8.65625 9.04234 8.61003C9.03906 8.56118 9.03359 8.52491 9.02591 8.50124C9.02162 8.48789 9.01678 8.4748 9.01136 8.46196C8.98228 8.39182 9.00903 8.33081 9.09163 8.27894C9.13696 8.25048 9.20754 8.22227 9.30336 8.19432C9.30626 8.19344 9.3084 8.19281 9.30979 8.19243C9.35688 8.17858 9.40447 8.16152 9.45257 8.14125Z" fill="black"/>
<path d="M9.38291 8.44158C9.39525 8.47117 9.41647 8.49371 9.44656 8.5092C9.49806 8.53577 9.54491 8.54137 9.58709 8.52601C9.63254 8.50939 9.65905 8.47193 9.6666 8.41363C9.67454 8.35281 9.66704 8.29816 9.64413 8.24969C9.62486 8.20901 9.5908 8.16576 9.54195 8.11993C9.53691 8.11527 9.53527 8.1096 9.53704 8.10293C9.5388 8.09626 9.54302 8.09204 9.54969 8.09027L9.89968 8.0015C9.91768 7.99684 9.93046 8.00301 9.93802 8.02001C9.94381 8.03336 9.94645 8.0474 9.94595 8.06213C9.94091 8.20379 9.8828 8.32756 9.77162 8.43346C9.67605 8.5245 9.55183 8.59401 9.39897 8.64198C9.34394 8.6591 9.29251 8.66603 9.24466 8.66276C9.14342 8.6557 9.07303 8.61119 9.03349 8.52922C8.99987 8.45959 8.99156 8.37283 9.00856 8.26895C9.00957 8.26265 9.01303 8.25837 9.01895 8.25611C9.09929 8.22576 9.18031 8.19416 9.26203 8.16129C9.33104 8.13359 9.39991 8.11873 9.46866 8.11672C9.47798 8.11647 9.48176 8.12094 9.48 8.13013C9.4766 8.14851 9.47175 8.16683 9.46545 8.18509C9.43737 8.26643 9.40967 8.34318 9.38235 8.41533C9.37907 8.42414 9.37926 8.43289 9.38291 8.44158Z" fill="white"/>
<path d="M9.00526 8.07662L9.0676 8.00808C9.07774 7.99694 9.08744 7.99732 9.09671 8.00921L9.13577 8.05897C9.13927 8.06348 9.14052 8.06855 9.13952 8.07418L9.13426 8.10535C9.13214 8.11737 9.125 8.12257 9.11286 8.12094L9.0169 8.10836C9.00926 8.10736 9.00407 8.10323 9.00131 8.09597C8.99869 8.0887 9 8.08226 9.00526 8.07662Z" fill="white"/>
<path d="M7.2474 9.26868C7.1488 9.22171 7.05512 9.18557 6.96635 9.16026C6.93953 9.15271 6.89892 9.14849 6.84453 9.14761C6.78975 9.14673 6.74883 9.14238 6.72176 9.13457C6.71735 9.13332 6.7108 9.13143 6.70211 9.12891C6.65401 9.11506 6.61813 9.10618 6.59446 9.10228C6.55643 9.09585 6.51695 9.09434 6.47603 9.09774C6.3753 9.10631 6.28004 9.11531 6.19026 9.12475C6.13738 9.13029 6.08833 9.12966 6.04313 9.12286C6.01089 9.11821 5.99673 9.09976 6.00063 9.06752C6.0029 9.04901 6.01329 9.03888 6.0318 9.03711C6.23012 9.01835 6.41276 9.00601 6.57972 9.0001C6.61234 8.99896 6.66182 9.00797 6.72818 9.0271C6.74581 9.03227 6.75897 9.03598 6.76765 9.03825C6.79032 9.04417 6.82469 9.0475 6.87078 9.04826C6.91397 9.04889 6.94608 9.05172 6.96711 9.05676C7.05663 9.07791 7.1675 9.1172 7.29972 9.17462C7.36771 9.20421 7.39239 9.25854 7.37376 9.33762C7.36947 9.35562 7.3582 9.36651 7.33995 9.37029C7.31879 9.37445 7.30582 9.36607 7.30104 9.34517C7.29222 9.30702 7.27434 9.28152 7.2474 9.26868Z" fill="black"/>
<path d="M11.7167 13.7014C11.7376 13.7118 11.7547 13.7075 11.768 13.6883C11.8093 13.6289 11.8491 13.5735 11.8874 13.5221C11.9764 13.4031 12.0372 13.2607 12.0699 13.0947C12.0777 13.0553 12.0898 13.018 12.1061 12.9829C12.2533 12.6687 12.3561 12.4237 12.4146 12.2478C12.4523 12.1336 12.4961 12.0211 12.5458 11.9105C12.6031 11.7834 12.6537 11.6238 12.6975 11.4315C12.7066 11.3922 12.7094 11.3326 12.706 11.2526C12.7025 11.1664 12.7065 11.102 12.7181 11.0596C12.7662 10.8852 12.8271 10.7382 12.9009 10.6187C12.9416 10.5528 12.9675 10.4831 12.9787 10.4099C12.9879 10.3504 12.9885 10.2758 12.9806 10.1858C12.975 10.1201 12.9891 10.0649 13.0231 10.0202C13.0394 9.99892 13.0593 9.99445 13.083 10.0068C13.1138 10.0228 13.1458 10.061 13.1789 10.1214C13.2022 10.1637 13.2222 10.1932 13.2388 10.2098C13.3019 10.2729 13.3467 10.3437 13.3731 10.4223C13.3888 10.4692 13.4143 10.5185 13.4496 10.5704C13.5552 10.7255 13.6454 10.8307 13.7201 10.8858C13.8159 10.9566 13.9698 11.0481 14.1817 11.1603C14.2255 11.1834 14.2583 11.2009 14.2801 11.2126C14.2902 11.218 14.2927 11.2259 14.2878 11.2364C14.0537 11.7251 13.7601 12.1712 13.4069 12.5749C13.0483 12.9845 12.6432 13.3333 12.1915 13.6211C11.2355 14.23 10.1832 14.5331 9.03464 14.5302C9.02393 14.5302 9.0189 14.5248 9.01953 14.5139C9.02091 14.4896 9.02028 14.4656 9.01764 14.442C9.01399 14.41 9.00901 14.3619 9.00272 14.2979C8.98735 14.1407 8.97168 14.0227 8.95569 13.9437C8.92798 13.807 8.90305 13.669 8.88089 13.5297C8.87082 13.4656 8.84614 13.4021 8.80685 13.3391C8.80333 13.3335 8.79798 13.3249 8.7908 13.3134C8.70253 13.1715 8.63145 13.0689 8.57756 13.0056C8.48627 12.8982 8.38988 12.8244 8.28839 12.7842C8.23651 12.7637 8.18696 12.7423 8.13975 12.7202C8.1371 12.7189 8.13314 12.7171 8.12785 12.7147C8.07446 12.6898 8.04033 12.6689 8.02548 12.6522C8.00231 12.6262 7.99494 12.5887 8.00338 12.5394C8.00804 12.5117 8.01666 12.487 8.02925 12.4652C8.1014 12.3402 8.18835 12.2193 8.29009 12.1026C8.30999 12.0798 8.33762 12.045 8.37301 11.9983C8.41569 11.9419 8.44931 11.9006 8.47387 11.8746C8.53594 11.809 8.59821 11.7408 8.66066 11.67C8.78683 11.527 8.92685 11.4082 9.08072 11.3136C9.14507 11.2742 9.22496 11.2157 9.3204 11.1382C9.351 11.1132 9.38437 11.0912 9.42051 11.0721C9.48926 11.0357 9.55505 10.9968 9.61788 10.9553C9.6238 10.9514 9.63035 10.9497 9.63753 10.9502C9.74254 10.9582 9.85467 11.0267 9.97391 11.1559C10.0501 11.2384 10.1278 11.3223 10.207 11.4077C10.2616 11.4667 10.3108 11.5311 10.3545 11.6007C10.3697 11.6251 10.3925 11.6616 10.4227 11.7101C10.5957 11.9876 10.7331 12.1945 10.8348 12.3307C10.8777 12.3881 10.9161 12.4503 10.9498 12.5171C11.0954 12.806 11.2148 13.0563 11.3079 13.2681C11.3942 13.4639 11.5304 13.6083 11.7167 13.7014Z" fill="#121120"/>
<path d="M12.2937 11.5634C12.3436 11.4788 12.3393 11.3978 12.2809 11.3204C12.2784 11.3171 12.2778 11.3135 12.2792 11.3096C12.2804 11.3057 12.283 11.3032 12.2869 11.302C12.397 11.2694 12.4921 11.2195 12.5723 11.1523C12.6345 11.1004 12.7048 11.0506 12.7833 11.003C12.7932 10.9971 12.7973 10.9998 12.7954 11.0112C12.7718 11.1591 12.7516 11.3005 12.7347 11.4354C12.725 11.5129 12.6976 11.6283 12.6524 11.7814C12.6428 11.8138 12.6357 11.838 12.6311 11.8541C12.6222 11.8847 12.6041 11.9284 12.5767 11.9852C12.5496 12.0411 12.5321 12.0834 12.5243 12.1121C12.5048 12.1835 12.4816 12.2491 12.4546 12.3089C12.4156 12.3958 12.3683 12.5249 12.3128 12.6961C12.3036 12.7246 12.2966 12.746 12.2918 12.7605C12.2779 12.803 12.2691 12.802 12.2656 12.7575C12.2595 12.6803 12.2481 12.6169 12.2314 12.5671C12.2097 12.5021 12.1762 12.4484 12.1307 12.406C12.0681 12.3475 12.025 12.2783 12.0013 12.1986C11.9993 12.1917 11.9996 12.1849 12.0021 12.1782C12.0827 11.9614 12.1799 11.7565 12.2937 11.5634Z" fill="white"/>
<path d="M11.6048 11.8481C11.5937 11.8764 11.6079 11.9259 11.6473 11.9966C11.6788 12.053 11.7097 12.0977 11.7399 12.1307C11.8192 12.2172 11.8617 12.3165 11.8674 12.4287C11.872 12.5204 11.872 12.6107 11.8672 12.6998C11.866 12.7214 11.8619 12.7419 11.8549 12.7611C11.8233 12.8463 11.7957 12.9287 11.772 13.0086C11.7518 13.0763 11.7117 13.1736 11.6515 13.3004C11.6503 13.3025 11.6495 13.3042 11.649 13.3053C11.6345 13.3358 11.6121 13.3463 11.5816 13.337C11.5558 13.3291 11.5344 13.3123 11.5174 13.2866C11.4868 13.2406 11.4607 13.1945 11.439 13.1481C11.3699 13.0008 11.3041 12.8441 11.2418 12.6778C11.2 12.5665 11.1822 12.4614 11.1885 12.3624C11.1957 12.2507 11.2336 12.1533 11.3022 12.0702C11.319 12.0498 11.3349 12.0294 11.3498 12.009C11.3959 11.9459 11.3807 11.8509 11.3041 11.724C11.2496 11.6339 11.1829 11.5516 11.1041 11.4774C11.0506 11.4267 11.016 11.3626 11.0004 11.2851C10.9989 11.2776 11.0014 11.2719 11.008 11.2679C11.1119 11.204 11.2002 11.1637 11.273 11.1468C11.3363 11.1321 11.4049 11.1185 11.4788 11.106C11.5239 11.0983 11.5889 11.0799 11.6738 11.0507C11.7458 11.0257 11.8007 11.0092 11.8385 11.001C11.8528 10.998 11.865 11.0018 11.8751 11.0123C11.9379 11.0776 11.9464 11.1492 11.9006 11.2273C11.7952 11.4066 11.6966 11.6135 11.6048 11.8481Z" fill="#6F76D6"/>
<path d="M10.0094 12.052C10.2064 12.1153 10.3759 12.0991 10.5181 12.0033C10.527 11.9972 10.5322 11.9996 10.5336 12.0103C10.541 12.0706 10.5591 12.117 10.5879 12.1497C10.5976 12.1606 10.6121 12.1768 10.6312 12.1984C10.6958 12.271 10.7428 12.3263 10.7723 12.3642C10.8209 12.4268 10.8602 12.4879 10.8903 12.5474C10.9 12.5664 10.9024 12.587 10.8975 12.609C10.8931 12.6295 10.8832 12.6478 10.8679 12.664C10.7345 12.8039 10.6865 12.9832 10.7237 13.2019C10.7241 13.2041 10.7232 13.2054 10.7209 13.2057C10.7192 13.2059 10.7175 13.2056 10.716 13.2047C10.7149 13.2042 10.7141 13.2033 10.7137 13.2021C10.6937 13.1444 10.6503 13.0681 10.5836 12.9731C10.5646 12.9461 10.539 12.9036 10.5069 12.8457C10.4838 12.8037 10.4658 12.7726 10.4531 12.7524C10.4368 12.7267 10.409 12.691 10.3694 12.6454C10.3192 12.5877 10.2845 12.5408 10.2655 12.5049C10.2438 12.464 10.2194 12.4249 10.1924 12.3876C10.131 12.3029 10.0672 12.195 10.0011 12.0639C9.99985 12.0615 9.99966 12.0591 10.0005 12.0565C10.0021 12.052 10.005 12.0505 10.0094 12.052Z" fill="white"/>
<path d="M8.58663 14.6309C8.0438 14.6008 7.51671 14.4967 7.00536 14.3187C7.00234 14.3177 7.00058 14.3156 7.00007 14.3125C6.9997 14.3093 7.00077 14.3068 7.00328 14.3049C7.00454 14.304 7.00643 14.3027 7.00895 14.3009C7.0631 14.2622 7.09917 14.2269 7.11718 14.1952C7.19562 14.0569 7.24612 13.9125 7.26865 13.7621C7.27583 13.714 7.29296 13.6693 7.32003 13.628C7.36863 13.5538 7.41214 13.4764 7.45054 13.3958C7.49575 13.301 7.55499 13.2029 7.62827 13.1014C7.65056 13.0707 7.67763 13.0455 7.70949 13.026C7.74852 13.0021 7.78416 12.9947 7.81639 13.0037C7.86399 13.0173 7.90693 13.0352 7.94521 13.0574C8.05286 13.1201 8.15952 13.1912 8.26516 13.2708C8.3149 13.3082 8.35532 13.3627 8.38642 13.4342C8.40719 13.4819 8.42715 13.5478 8.44629 13.6317C8.47752 13.7685 8.50812 13.9113 8.53808 14.0603C8.5814 14.2755 8.603 14.4606 8.60287 14.6156C8.60287 14.6264 8.59745 14.6315 8.58663 14.6309Z" fill="#121120"/>
</svg>
