<!-- by TradingView --><svg width="18" height="18" xmlns="http://www.w3.org/2000/svg"><path fill="#FF8836" d="M0 0h18v18H0z"/><path d="M3.59 6h3.151c.019 0 .032 0 .046.014a.082.082 0 01.037.033l3.833 6.25a.095.095 0 010 .107l-1.568 2.55a.097.097 0 01-.083.046.095.095 0 01-.082-.047L3.513 6.15a.1.1 0 010-.099.098.098 0 01.032-.037A.095.095 0 013.591 6zm6.604 0h4.214c.019 0 .032.005.046.014.014.01.025.022.032.037.009.015.014.03.014.047 0 .024 0 .038-.014.052l-2.104 3.433a.095.095 0 01-.13.034.097.097 0 01-.036-.034L10.107 6.15a.1.1 0 010-.099.097.097 0 01.037-.037A.095.095 0 0110.19 6h.004z" fill="#fff"/></svg>