<!-- by TradingView --><svg width="18" height="18" viewBox="0 0 18 18" xmlns="http://www.w3.org/2000/svg"><path fill="#F0F3FA" d="M0 0h18v18H0z"/><path fill-rule="evenodd" d="M9 14.5a5.5 5.5 0 1 0 0-11 5.5 5.5 0 0 0 0 11Zm0 .5A6 6 0 1 0 9 3a6 6 0 0 0 0 12Z" fill="#CED2DB"/><path d="m5.47 7.47.87-.88 2.2 2.2a.25.25 0 0 1 0 .35l-2.2 2.2-.87-.88 1.5-1.5-1.5-1.5ZM8.96 9.32a.25.25 0 0 0-.17.07l-2.2 2.2.88.87 1.5-1.5 1.5 1.5.87-.88-2.2-2.19a.25.25 0 0 0-.18-.07ZM9.32 8.96c0 .07.02.13.07.18l2.2 2.2.87-.88-1.5-1.5 1.5-1.5-.88-.87L9.4 8.8a.25.25 0 0 0-.07.17ZM8.96 8.61c.07 0 .13-.02.18-.07l2.2-2.2-.88-.87-1.5 1.5-1.5-1.5-.87.87 2.2 2.2c.04.05.1.07.17.07Z"/></svg>