<!-- by TradingView --><svg xmlns="http://www.w3.org/2000/svg" width="18" height="18" viewBox="0 0 18 18"><path fill="url(#alq53xpkz)" d="M0 0h18v18H0z"/><path d="M5.05 9.73c0 .77.2 1.5.54 2.14l-.63.31a5.23 5.23 0 0 1 8.69-5.75l-.53.46a4.53 4.53 0 0 0-8.07 2.84zm4.4 3.07A3.08 3.08 0 1 1 12 7.84l.53-.46a3.77 3.77 0 1 0-3.1 6.12v-.7zm1.33-1.97a1.62 1.62 0 1 1 .14-2.03l.53-.45a2.32 2.32 0 1 0-.26 3.05l-.41-.57z" fill="#fff"/><defs><linearGradient id="alq53xpkz" x1="3.35" y1="3.12" x2="21.9" y2="24.43" gradientUnits="userSpaceOnUse"><stop stop-color="#1A1E21"/><stop offset="1" stop-color="#06060A"/></linearGradient></defs></svg>