<!-- by TradingView --><svg width="18" height="18" viewBox="0 0 18 18" xmlns="http://www.w3.org/2000/svg"><path fill="url(#amlzxfwil)" d="M0 0h18v18H0z"/><path fill-rule="evenodd" d="M9 13.94a4.94 4.94 0 1 0 0-9.88 4.94 4.94 0 0 0 0 9.88ZM9 15A6 6 0 1 0 9 3a6 6 0 0 0 0 12Z" fill="#FBB935"/><path d="M6.5 8.3c-.27 0-.44.25-.5.37v1.83c0 .67.67 1.5 1.67 1.5.8 0 1.16-.33 1.33-.67.17.34.78.67 1.17.67 1.16 0 1.83-.83 1.83-1.41V7.36c0-.12-.1-.36-.5-.36s-.5.24-.5.36v2.97c0 .24-.17.67-.83.67-.67 0-.67-.43-.67-.67v-2.3c0-.12-.1-.36-.5-.36s-.5.24-.5.36v2.3c0 .24-.3.67-.83.67-.54 0-.67-.43-.67-.67V8.67c0-.18-.17-.36-.5-.36Z" fill="#FFB830"/><defs><linearGradient id="amlzxfwil" x1="3.35" y1="3.12" x2="21.9" y2="24.43" gradientUnits="userSpaceOnUse"><stop stop-color="#1A1E21"/><stop offset="1" stop-color="#06060A"/></linearGradient></defs></svg>