<!-- by TradingView --><svg xmlns="http://www.w3.org/2000/svg" width="18" height="18"><path fill="#F0F3FA" d="M0 0h18v18H0z"/><path d="M6.48 4.5c2.03-.74 5.92-1.22 7.49 2.77.62 1.86.2 3.09-.44 3.66l-.03.15c-.34 1.03-1.83 2.14-2.54 2.57-.25.1-.8.29-.95.29-.2 0-.8-.32-1.2-.8-.42-.49-.67-1-.56-1.79.1-.62 1.04-1.2 1.5-1.42h.78a52.89 52.89 0 01-4.37-3.4c-.5-.6-.76-1.7.32-2.02z" fill="#2845AD"/><path d="M9.2 5.28c-2.31.76-2.75 2-2.68 2.53.2 1.96 5.47 3.37 6.3 3.42.67.04 1.04-.04 1.1-.19.62-2.12.38-2.73.07-3.74-.27-.86-1-1.82-1.46-2.17-.25-.22-1-.61-3.32.15zm-4.96 1.5a5.36 5.36 0 012.12-2.29c.62-.27 1.08-.08 1.14-.03.07.07.23.4-.44 1.13-.5.55-1.99 1-2.82 1.19zM6.83 14a5.35 5.35 0 01-2.8-6.7c.88 1.04 2.54 3.2 2.76 4.35.19 1.03.12 1.9.04 2.35zm6.7-2.35c.16 0 .06.15 0 .25-.23.34-.62.82-1 1.2-.53.5-1.71 1.19-1.9.71-.2-.47.32-.85.79-1.24.47-.4 1.92-.92 2.11-.92z" fill="#5098FA"/></svg>