<!-- by TradingView --><svg width="18" height="18" viewBox="0 0 18 18" xmlns="http://www.w3.org/2000/svg"><path fill="url(#atyn0laee)" d="M0 0h18v18H0z"/><path d="M4 10.64v-3.8c0-.34.2-.65.54-.81L8.58 4.1c.31-.14.69-.13.99.03l3.95 2.2c.3.16.48.45.48.77v3.54c0 .3-.16.59-.44.76L9.64 13.8c-.34.2-.78.21-1.11 0L4.45 11.4a.89.89 0 0 1-.45-.75Z" fill="url(#btyn0laee)"/><path d="M10 13.6c-.3.2-.61.42-1 .4-.37-.02-.7-.32-1-.5V9.34l-.76.37c-.25.1-.83.2-1.07-.14-.31-.43-.16-1 .15-1.14.18-.09.77-.48 1.28-.81l.5-.33c.15-.1.6-.29.9-.29.3 0 .75.19.9.29l1.65 1c.25.14.67.57.3 1.14-.36.57-1.07.33-1.38.14L10 9.34v4.26Z" fill="#fff"/><defs><linearGradient id="atyn0laee" x1="3.35" y1="3.12" x2="21.9" y2="24.43" gradientUnits="userSpaceOnUse"><stop stop-color="#1A1E21"/><stop offset="1" stop-color="#06060A"/></linearGradient><linearGradient id="btyn0laee" x1="11.46" y1="4.77" x2="7.2" y2="13.21" gradientUnits="userSpaceOnUse"><stop stop-color="#F2445B"/><stop offset="1" stop-color="#A023B1"/></linearGradient></defs></svg>