<!-- by TradingView --><svg width="18" height="18" viewBox="0 0 18 18" xmlns="http://www.w3.org/2000/svg"><path fill="url(#ap0qkrlgi)" d="M0 0h18v18H0z"/><path d="M3 5.4s.3.64.55 1.66l.35-.88L3 5.4Z" fill="#59438F"/><path d="m3.9 6.18-.35.88c.2.78.35 1.79.32 2.9l.6-1.65c-.04-.32-.08-.66-.14-1.02l.39.35.2-.56-1.02-.9Z" fill="#80478F"/><path d="M5.17 8.82s.4 2.15-.55 4.18l.32-.1 1.13-3.27a7.45 7.45 0 0 1-.9-.8ZM4.92 7.06l-.2.57 1.57 1.38.2-.59-1.57-1.36ZM3.22 12.97S5 12.84 4.46 8.3l-.6 1.65c-.03.97-.21 2-.64 3.02Z" fill="#D42C78"/><path d="m8.13 8.33-.4.5.36.35.16-.73a1.42 1.42 0 0 1-.12-.12ZM8.56 7.16l.3-1.36-2.34 2.65-.03-.03-.2.6.23.2 2.04-2.06ZM5.71 12.04s.27-.97.19-1.79l1.56.93s.08-.04.2-.13l.23-1.03c-.13.1-.26.2-.42.3 0 0-.6-.1-1.4-.69L4.95 12.9c.43-.12 1.26-.34 2.38-.47l.18-.78c-.59.08-1.2.2-1.8.4Z" fill="#DEB343"/><path d="m8.96 6.75 1.33 1.38.17-.75L8.88 5.8h-.01l-.31 1.36.4-.4ZM9.75 10.55l.14-.63-.46-.35c.23-.23.47-.49.72-.77v-.02l-.42-.48s-.28.35-.8.83l-.68-.67-.16.73.39.37-.59.47-.23 1.03c.24-.16.73-.5 1.33-1.07l.76.56ZM7.51 11.65l-.18.77c.6-.08 1.28-.14 2.02-.15l.17-.76c-.63 0-1.3.04-2 .14Z" fill="#81BA5A"/><path d="M10.84 10.47s-.3-.06-.95-.55l-.14.63c.4.27.82.52 1.22.66 0 0 .38-.56 1-1.15l.17-.86a6.9 6.9 0 0 0-1.3 1.27ZM11.32 9.22l.99-.87.17-.88-1.03.9-.99-.99-.17.75 1.03 1.09ZM9.52 11.52l-.17.76c.66 0 1.38.01 2.14.1l.14-.72c-.6-.08-1.32-.14-2.1-.14Z" fill="#5EA4D4"/><path d="m14.08 8.15-.15.72c.35-.14.72-.16 1.1-.01l.06-.43c-.25-.2-.58-.32-1-.28Z" fill="#80478F"/><path d="m13.62 12.05-.56-.14-.18.65c.57.11 1.16.26 1.75.43 0 0-.9-1.62-.7-4.13l-.59 2.07c.06.37.15.74.28 1.12Z" fill="#80478F"/><path d="M16 9.35s-.28-.57-.93-.93l-.08.43c.32.1.66.26 1.01.5Z" fill="#59438F"/><path d="M13.6 7.19s-.19.48-.3 1.27c-.33.17-.74.4-1.17.74l-.17.86c.35-.33.79-.67 1.28-.92-.03.53-.01 1.14.1 1.8l.8-2.79-.11.01c.13-.84.4-1.77.87-2.75l-2.4 2.06-.17.88 1.27-1.16ZM11.63 11.65l-.14.72c.45.05.9.12 1.38.2l.18-.65c-.33-.1-.83-.19-1.42-.27Z" fill="#D42C78"/><defs><linearGradient id="ap0qkrlgi" x1="3.35" y1="3.12" x2="21.9" y2="24.43" gradientUnits="userSpaceOnUse"><stop stop-color="#1A1E21"/><stop offset="1" stop-color="#06060A"/></linearGradient></defs></svg>