<!-- by TradingView --><svg width="18" height="18" fill="none" xmlns="http://www.w3.org/2000/svg"><path fill="#1741C3" d="M0 0h18v18H0z"/><path fill-rule="evenodd" clip-rule="evenodd" d="M6.197 8.725V6.146A3.988 3.988 0 005 9c0 1.379.698 2.595 1.76 3.314 1.906-1.455 3.868-2.952 4.216-3.185.397-.265.818-.077.83.156v2.565A3.988 3.988 0 0013 9a3.996 3.996 0 00-1.774-3.324C9.287 7.11 7.274 8.58 6.926 8.813c-.524.35-.716.145-.729-.088zm4.829 3.725v-2.393l-3.49 2.666c.453.179.947.277 1.464.277.74 0 1.432-.2 2.026-.55zm-4.388.958a5 5 0 005.43-8.357c.673-.5 1.304-.972 1.813-1.357.09-.095.216-.341 0-.568-.216-.228-.57-.095-.72 0l-1.893 1.417a5 5 0 00-5.338 8.404l-1.81 1.38c-.09.094-.217.34 0 .569.207.22.49.04.644-.059l.017-.01 1.857-1.419zm.357-5.666V5.538A3.982 3.982 0 019 5c.473 0 .926.082 1.347.232l-3.352 2.51z" fill="#fff"/></svg>