<svg width="33" height="30" viewBox="0 0 33 30" fill="none" xmlns="http://www.w3.org/2000/svg">
<path d="M0.06 23.28C0.15999 23.12 0.31998 23.11 0.54 23.25C5.53998 26.15 10.98 27.6 16.86 27.6C20.78 27.6 24.65 26.87 28.47 25.41C28.57 25.37 28.715 25.31 28.905 25.23C29.095 25.15 29.23 25.09 29.31 25.05C29.61 24.93 29.845 24.99 30.015 25.23C30.185 25.47 30.13 25.69 29.85 25.89C29.49 26.15 29.03 26.45 28.47 26.79C26.75 27.81 24.83 28.6 22.71 29.16C20.59 29.72 18.52 30 16.5 30C13.38 30 10.43 29.455 7.65 28.365C4.86999 27.275 2.37999 25.74 0.18 23.76C0.06 23.66 0 23.56 0 23.46C0 23.4 0.01998 23.34 0.06 23.28ZM9.09 14.73C9.09 13.35 9.42999 12.17 10.11 11.19C10.79 10.21 11.72 9.47001 12.9 8.97C13.98 8.51001 15.31 8.18001 16.89 7.98C17.43 7.92 18.31 7.83999 19.53 7.74V7.23C19.53 5.94999 19.39 5.09001 19.11 4.65C18.69 4.05 18.03 3.75 17.13 3.75H16.89C16.23 3.81 15.66 4.02 15.18 4.38C14.7 4.74 14.39 5.24001 14.25 5.88C14.17 6.27999 13.97 6.51 13.65 6.57L10.2 6.15C9.85998 6.06999 9.69 5.88999 9.69 5.61C9.69 5.55 9.69999 5.48001 9.72 5.4C10.06 3.62001 10.895 2.30001 12.225 1.44C13.555 0.57999 15.11 0.09999 16.89 0H17.64C19.92 0 21.7 0.59001 22.98 1.77C23.1808 1.97091 23.3663 2.18651 23.535 2.415C23.705 2.64501 23.84 2.85 23.94 3.03C24.04 3.21 24.13 3.47001 24.21 3.81C24.29 4.14999 24.35 4.38501 24.39 4.515C24.43 4.64499 24.46 4.92501 24.48 5.355C24.5 5.78499 24.51 6.03999 24.51 6.12V13.38C24.51 13.9 24.585 14.375 24.735 14.805C24.885 15.235 25.03 15.545 25.17 15.735C25.31 15.925 25.54 16.23 25.86 16.65C25.98 16.83 26.04 16.99 26.04 17.13C26.04 17.29 25.96 17.43 25.8 17.55C24.14 18.99 23.24 19.77 23.1 19.89C22.86 20.07 22.57 20.09 22.23 19.95C21.95 19.71 21.705 19.48 21.495 19.26C21.285 19.04 21.135 18.88 21.045 18.78C20.955 18.68 20.81 18.485 20.61 18.195C20.41 17.905 20.27 17.71 20.19 17.61C19.07 18.83 17.97 19.59 16.89 19.89C16.21 20.09 15.37 20.19 14.37 20.19C12.83 20.19 11.565 19.715 10.575 18.765C9.585 17.815 9.09 16.47 9.09 14.73ZM14.25 14.13C14.25 14.91 14.445 15.535 14.835 16.005C15.225 16.475 15.75 16.71 16.41 16.71C16.47 16.71 16.555 16.7 16.665 16.68C16.775 16.66 16.85 16.65 16.89 16.65C17.73 16.43 18.38 15.89 18.84 15.03C19.06 14.65 19.225 14.235 19.335 13.785C19.445 13.335 19.505 12.97 19.515 12.69C19.525 12.41 19.53 11.95 19.53 11.31V10.56C18.37 10.56 17.49 10.64 16.89 10.8C15.13 11.3 14.25 12.41 14.25 14.13ZM26.85 23.79C26.89 23.71 26.95 23.63 27.03 23.55C27.53 23.21 28.01 22.98 28.47 22.86C29.23 22.66 29.97 22.55 30.69 22.53C30.89 22.51 31.08 22.52 31.26 22.56C32.16 22.64 32.7 22.79 32.88 23.01C32.96 23.13 33 23.31 33 23.55V23.76C33 24.46 32.81 25.285 32.43 26.235C32.05 27.185 31.52 27.95 30.84 28.53C30.74 28.61 30.65 28.65 30.57 28.65C30.53 28.65 30.49 28.64 30.45 28.62C30.33 28.56 30.3 28.45 30.36 28.29C31.1 26.55 31.47 25.34 31.47 24.66C31.47 24.44 31.43 24.28 31.35 24.18C31.15 23.94 30.59 23.82 29.67 23.82C29.33 23.82 28.93 23.84 28.47 23.88C27.97 23.94 27.51 24 27.09 24.06C26.97 24.06 26.89 24.04 26.85 24C26.81 23.96 26.8 23.92 26.82 23.88C26.82 23.86 26.83 23.83 26.85 23.79Z" fill="black"/>
</svg>
