<?xml version="1.0" encoding="UTF-8" standalone="no" ?>
<!DOCTYPE svg PUBLIC "-//W3C//DTD SVG 1.1//EN" "http://www.w3.org/Graphics/SVG/1.1/DTD/svg11.dtd">
<svg xmlns="http://www.w3.org/2000/svg" xmlns:xlink="http://www.w3.org/1999/xlink" version="1.1" width="1080" height="1080" viewBox="0 0 1080 1080" xml:space="preserve">
<desc>Created with Fabric.js 5.2.4</desc>
<defs>
</defs>
<rect x="0" y="0" width="100%" height="100%" fill="transparent"></rect>
<g transform="matrix(1 0 0 1 540 540)" id="e8c8f618-96ba-4784-90d1-b20bd5ccc995"  >
<rect style="stroke: none; stroke-width: 1; stroke-dasharray: none; stroke-linecap: butt; stroke-dashoffset: 0; stroke-linejoin: miter; stroke-miterlimit: 4; fill: #0055ff; fill-rule: nonzero; opacity: 1; visibility: hidden;" vector-effect="non-scaling-stroke"  x="-540" y="-540" rx="0" ry="0" width="1080" height="1080" />
</g>
<g transform="matrix(0 0 0 0 0 0)" id="5e645da5-4b7f-4aa7-937b-67bb204a7508"  >
</g>
<g transform="matrix(0 0 0 0 112.5 0)"  >
<g style=""   >
		<g transform="matrix(1 0 0 1 0 0)"  >
<path style="stroke: #0055ff; stroke-width: 1; stroke-dasharray: none; stroke-linecap: butt; stroke-dashoffset: 0; stroke-linejoin: miter; stroke-miterlimit: 4; fill: none; fill-rule: nonzero; opacity: 1;" vector-effect="non-scaling-stroke"  transform=" translate(-13, -11)" d="M 4.5 21.5 L 23.5 21.5 L 23.5 0.5 L 2.5 0.5 L 2.5 19.5 M 2.5 14.5 L 7.5 14.5 M 11.5 14.5 L 23.5 14.5 M 3 7.5 L 23 7.5 M 16.5 1 L 16.5 21" stroke-linecap="round" />
</g>
		<g transform="matrix(1 0 0 1 0 0)"  >
<path style="stroke: #0055ff; stroke-width: 1; stroke-dasharray: none; stroke-linecap: butt; stroke-dashoffset: 0; stroke-linejoin: miter; stroke-miterlimit: 4; fill: none; fill-rule: nonzero; opacity: 1;" vector-effect="non-scaling-stroke"  transform=" translate(-13, -11)" d="M 9.5 0.5 L 9.5 12.5 M 9.5 16.5 L 9.5 21.5 M 3.9000000000000004 20.1 L 8.100000000000001 15.900000000000002 M 11 13 L 23 1 M 4.4 21 L 23.5 15 M 3.1 19.6 L 9 0.5 M 23.5 21.5 C 23.5 9.90202025355334 14.09797974644666 0.5 2.5 0.5" stroke-linecap="round" />
</g>
		<g transform="matrix(1 0 0 1 -10.5 10.5)"  >
<circle style="stroke: #0055ff; stroke-width: 1; stroke-dasharray: none; stroke-linecap: butt; stroke-dashoffset: 0; stroke-linejoin: miter; stroke-miterlimit: 4; fill: none; fill-rule: nonzero; opacity: 1;" vector-effect="non-scaling-stroke"  cx="0" cy="0" r="2" />
</g>
		<g transform="matrix(1 0 0 1 -3.5 3.5)"  >
<circle style="stroke: #0055ff; stroke-width: 1; stroke-dasharray: none; stroke-linecap: butt; stroke-dashoffset: 0; stroke-linejoin: miter; stroke-miterlimit: 4; fill: none; fill-rule: nonzero; opacity: 1;" vector-effect="non-scaling-stroke"  cx="0" cy="0" r="2" />
</g>
</g>
</g>
<g transform="matrix(0 0 0 0 0 0)"  >
<path style="stroke: none; stroke-width: 1; stroke-dasharray: none; stroke-linecap: butt; stroke-dashoffset: 0; stroke-linejoin: miter; stroke-miterlimit: 4; fill: #0055ff; fill-rule: evenodd; opacity: 1;"  transform=" translate(-14.4, -13.97)" d="M 5 10.76 L 4.59 10.04 L 4.56 10 L 4.59 9.96 C 5.168581323953241 8.913481066006684 5.870229011779498 7.9399029345731185 6.68 7.06 C 8.15 5.460000000000001 10.28 3.9400000000000004 13 3.9400000000000004 C 15.73 3.9400000000000004 17.85 5.470000000000001 19.33 7.0600000000000005 C 20.13619347615351 7.940509418200669 20.834461076760125 8.914055592123347 21.41 9.960000000000004 L 21.439999999999998 10 L 21.409999999999997 10.04 C 20.831418676046756 11.086518933993316 20.129770988220496 12.060097065426884 19.319999999999997 12.940000000000001 C 17.849999999999998 14.54 15.719999999999997 16.06 12.999999999999996 16.06 C 10.269999999999996 16.06 8.149999999999997 14.53 6.669999999999996 12.939999999999998 C 6.051315855816767 12.265500159694229 5.4956648301933875 11.535789776646656 5.009999999999998 10.76 z M 22.45 9.78 L 22 10 L 22.45 10.22 L 22.439999999999998 10.24 C 22.392954331323153 10.334886175026403 22.34292949279665 10.428265873609208 22.29 10.52 C 21.673007139511178 11.638601219021622 20.924349536842485 12.679336003000529 20.060000000000002 13.620000000000001 C 18.5 15.309999999999999 16.119999999999997 17.06 13 17.06 C 9.879999999999999 17.06 7.5 15.309999999999999 5.94 13.62 C 5.003845741356495 12.600989966601354 4.203836904613402 11.464842963159484 3.559999999999998 10.239999999999997 L 3.5600000000000005 10.219999999999999 L 3.5500000000000007 10.219999999999999 L 4 10 L 3.55 9.78 L 3.5599999999999996 9.76 C 3.6072434854653888 9.66521595108548 3.6572651211961906 9.571842231054653 3.71 9.480000000000002 C 4.326911652675953 8.361347436159868 5.075575960677918 7.320603330865659 5.940000000000001 6.38 C 7.5 4.69 9.88 2.94 13 2.94 C 16.12 2.94 18.5 4.6899999999999995 20.06 6.38 C 20.996066399294815 7.399080828307938 21.796066829119496 8.535215892512742 22.439999999999994 9.759999999999994 L 22.439999999999998 9.78 L 22.45 9.78 z M 22 10 L 22.45 9.78 L 22.55 10 L 22.45 10.22 L 22 10 z M 3.55 9.78 L 4 10 L 3.55 10.22 L 3.4499999999999997 10 L 3.55 9.78 z M 10.35 10 C 10.360508013931252 9.30864756031358 10.645962295034032 8.649955031992002 11.143250339476637 8.169556015473864 C 11.640538383919242 7.689156998955725 12.30869711409037 7.426623372990055 12.999999999999998 7.44 C 13.691302885909629 7.426623372990054 14.359461616080756 7.689156998955724 14.856749660523361 8.169556015473862 C 15.354037704965966 8.649955031992 15.639491986068746 9.308647560313577 15.65 9.999999999999998 C 15.639491986068748 10.69135243968642 15.354037704965968 11.350044968007998 14.856749660523363 11.830443984526138 C 14.359461616080758 12.310843001044276 13.691302885909629 12.573376627009946 13 12.56 C 12.308697114090371 12.573376627009946 11.640538383919242 12.310843001044276 11.143250339476637 11.830443984526138 C 10.645962295034032 11.350044968008 10.360508013931252 10.69135243968642 10.35 10 z M 13 6.44 C 12.043482305279575 6.426655717132646 11.120984940821964 6.794560079983999 10.436168730129264 7.462490411508934 C 9.751352519436562 8.13042074303387 9.360535930733736 9.043447249566393 9.35 9.999999999999998 C 9.360535930733736 10.956552750433605 9.75135251943656 11.869579256966128 10.436168730129262 12.537509588491066 C 11.120984940821964 13.205439920016001 12.043482305279575 13.573344282867355 13.000000000000002 13.56 C 15 13.56 16.65 11.98 16.65 10 C 16.639464069266264 9.043447249566395 16.248647480563438 8.130420743033872 15.563831269870736 7.462490411508935 C 14.879015059178034 6.794560079983999 13.956517694720421 6.426655717132646 12.999999999999996 6.440000000000001 z M 20.85 18.44 L 21.650000000000002 17.64 L 22.35 18.35 L 21.560000000000002 19.150000000000002 C 21.36942856190286 19.344421755099322 21.36942856190286 19.65557824490068 21.560000000000002 19.85 L 22.150000000000002 20.44 C 22.35 20.64 22.650000000000002 20.64 22.85 20.44 L 24.650000000000002 18.64 L 25.35 19.35 L 23.560000000000002 21.150000000000002 C 22.974364906452088 21.73490675611503 22.025635093547915 21.73490675611503 21.44 21.150000000000002 L 20.85 20.560000000000002 C 20.265093243884973 19.974364906452088 20.265093243884973 19.025635093547915 20.85 18.44 z M 16.5 21.5 L 16.15 21.15 C 16.124408545913266 21.170960315558123 16.100960315558122 21.194408545913266 16.08 21.22 L 15.079999999999998 22.72 L 14.079999999999998 24.22 C 13.975819230357555 24.37410359668506 13.965798556845781 24.573302514576284 14.05398819853438 24.737083277712255 C 14.14217784022298 24.900864040848226 14.31399749103773 25.002148937948242 14.499999999999998 25 L 18.5 25 C 19.15532408115453 24.980109313038746 19.776608689002998 24.70358379393856 20.23 24.23 C 20.70358379393856 23.776608689002998 20.980109313038746 23.15532408115453 21 22.5 C 20.980109313038746 21.84467591884547 20.70358379393856 21.223391310997 20.23 20.77 C 19.776608689002998 20.29641620606144 19.15532408115453 20.019890686961254 18.5 20 C 17.905731750553773 20.030959560187167 17.332931795155737 20.23230742329678 16.85 20.58 C 16.60505689348203 20.743759961696757 16.374251135652916 20.92773556576344 16.16 21.130000000000003 L 16.16 21.14 L 16.15 21.14 L 16.5 21.5 z M 16.89 21.82 L 15.92 23.28 L 15.43 24 L 18.5 24 C 18.84 24 19.22 23.83 19.52 23.52 C 19.82 23.22 20 22.84 20 22.5 C 20 22.16 19.83 21.78 19.52 21.48 C 19.22 21.18 18.84 21 18.5 21 C 18.15 21 17.75 21.18 17.4 21.42 C 17.22011144420487 21.540219830702522 17.049620412667743 21.673938286810074 16.889999999999997 21.82 z" stroke-linecap="round" />
</g>
<g transform="matrix(38.57 0 0 38.57 540 540)"  >
<g style=""   >
		<g transform="matrix(1 0 0 1 -0.5 -0.5)"  >
<path style="stroke: none; stroke-width: 1; stroke-dasharray: none; stroke-linecap: butt; stroke-dashoffset: 0; stroke-linejoin: miter; stroke-miterlimit: 4; fill: #0055ff; fill-rule: evenodd; opacity: 1;" vector-effect="non-scaling-stroke"  transform=" translate(-13.5, -13.5)" d="M 5 21.5 C 5 22.32842712474619 4.32842712474619 23 3.5 23 C 2.67157287525381 23 2 22.32842712474619 2 21.5 C 2 20.67157287525381 2.67157287525381 20 3.5 20 C 4.32842712474619 20 5 20.67157287525381 5 21.5 z M 3.5 24 C 4.784382757169325 24.00129080483636 5.860776601367688 23.029128842827767 5.989855471609353 21.751248027435288 C 6.118934341851016 20.473367212042813 5.258696386312051 19.305585876323377 4.000000000000001 19.05 L 4 3 L 3 3 L 3 19.05 C 1.741303613687949 19.305585876323377 0.8810656581489829 20.473367212042813 1.0101445283906474 21.751248027435288 C 1.1392233986323117 23.029128842827767 2.215617242830674 24.00129080483636 3.5 24 z M 25 5.5 C 25 4.67157287525381 24.32842712474619 4 23.5 4 C 22.67157287525381 4 22 4.67157287525381 22 5.5 C 22 6.32842712474619 22.67157287525381 7 23.5 7 C 24.32842712474619 7 25 6.32842712474619 25 5.5 z M 23.5 3 C 24.784382757169325 2.99870919516364 25.86077660136769 3.970871157172234 25.989855471609353 5.248751972564712 C 26.11893434185102 6.526632787957189 25.258696386312053 7.694414123676625 24 7.95 L 24 24 L 23 24 L 23 7.95 C 21.741303613687947 7.694414123676625 20.88106565814898 6.5266327879571895 21.010144528390644 5.248751972564712 C 21.13922339863231 3.970871157172235 22.21561724283067 2.9987091951636415 23.5 3.000000000000001 z" stroke-linecap="round" />
</g>
		<g transform="matrix(1 0 0 1 -7.5 -6)"  >
<path style="stroke: none; stroke-width: 1; stroke-dasharray: none; stroke-linecap: butt; stroke-dashoffset: 0; stroke-linejoin: miter; stroke-miterlimit: 4; fill: #0055ff; fill-rule: evenodd; opacity: 1;" vector-effect="non-scaling-stroke"  transform=" translate(-6.5, -8)" d="M 9 7 L 4 7 L 4 9 L 9 9 L 9 7 z M 3 6 L 3 10 L 10 10 L 10 6 L 3 6 z" stroke-linecap="round" />
</g>
		<g transform="matrix(1 0 0 1 -6 -3)"  >
<path style="stroke: none; stroke-width: 1; stroke-dasharray: none; stroke-linecap: butt; stroke-dashoffset: 0; stroke-linejoin: miter; stroke-miterlimit: 4; fill: #0055ff; fill-rule: evenodd; opacity: 1;" vector-effect="non-scaling-stroke"  transform=" translate(-8, -11)" d="M 12 10 L 4 10 L 4 12 L 12 12 L 12 10 z M 3 9 L 3 13 L 13 13 L 13 9 L 3 9 z" stroke-linecap="round" />
</g>
		<g transform="matrix(1 0 0 1 -8.5 0)"  >
<path style="stroke: none; stroke-width: 1; stroke-dasharray: none; stroke-linecap: butt; stroke-dashoffset: 0; stroke-linejoin: miter; stroke-miterlimit: 4; fill: #0055ff; fill-rule: evenodd; opacity: 1;" vector-effect="non-scaling-stroke"  transform=" translate(-5.5, -14)" d="M 7 13 L 4 13 L 4 15 L 7 15 L 7 13 z M 3 12 L 3 16 L 8 16 L 8 12 L 3 12 z" stroke-linecap="round" />
</g>
</g>
</g>
</svg>