<?xml version="1.0" encoding="UTF-8" standalone="no" ?>
<!DOCTYPE svg PUBLIC "-//W3C//DTD SVG 1.1//EN" "http://www.w3.org/Graphics/SVG/1.1/DTD/svg11.dtd">
<svg xmlns="http://www.w3.org/2000/svg" xmlns:xlink="http://www.w3.org/1999/xlink" version="1.1" width="1080" height="1080" viewBox="0 0 1080 1080" xml:space="preserve">
<desc>Created with Fabric.js 5.2.4</desc>
<defs>
</defs>
<rect x="0" y="0" width="100%" height="100%" fill="transparent"></rect>
<g transform="matrix(1 0 0 1 540 540)" id="a6474d76-c44b-4cb3-bcc2-9e97042a2b6d"  >
<rect style="stroke: none; stroke-width: 1; stroke-dasharray: none; stroke-linecap: butt; stroke-dashoffset: 0; stroke-linejoin: miter; stroke-miterlimit: 4; fill: #0055ff; fill-rule: nonzero; opacity: 1; visibility: hidden;" vector-effect="non-scaling-stroke"  x="-540" y="-540" rx="0" ry="0" width="1080" height="1080" />
</g>
<g transform="matrix(1 0 0 1 540 540)" id="1fc2687a-fc2d-4a62-942d-07f30305f0f7"  >
</g>
<g transform="matrix(38.57 0 0 38.57 540 540)"  >
<g style=""   >
		<g transform="matrix(1 0 0 1 0 0.5)"  >
<path style="stroke: none; stroke-width: 1; stroke-dasharray: none; stroke-linecap: butt; stroke-dashoffset: 0; stroke-linejoin: miter; stroke-miterlimit: 4; fill: #0055ff; fill-rule: nonzero; opacity: 1;" vector-effect="non-scaling-stroke"  transform=" translate(-14, -14.5)" d="M 6 6 L 6 12.5 L 7 12.5 L 7 6 z M 7 22 L 7 19.5 L 6 19.5 L 6 22 z M 11 11 L 11 13.5 L 12 13.5 L 12 11 z M 12 24 L 12 16.5 L 11 16.5 L 11 24 z M 16 5 L 16 10.5 L 17 10.5 L 17 5 z M 17 21 L 17 18.5 L 16 18.5 L 16 21 z M 21 7 L 21 11.5 L 22 11.5 L 22 7 z M 22 19 L 22 16.5 L 21 16.5 L 21 19 z" stroke-linecap="round" />
</g>
		<g transform="matrix(1 0 0 1 -7.5 2)"  >
<path style="stroke: none; stroke-width: 1; stroke-dasharray: none; stroke-linecap: butt; stroke-dashoffset: 0; stroke-linejoin: miter; stroke-miterlimit: 4; fill: #0055ff; fill-rule: nonzero; opacity: 1;" vector-effect="non-scaling-stroke"  transform=" translate(-6.5, -16)" d="M 6 13 L 6 19 L 7 19 L 7 13 L 6 13 z M 5 12 L 8 12 L 8 20 L 5 20 L 5 12 z" stroke-linecap="round" />
</g>
		<g transform="matrix(1 0 0 1 -2.5 1)"  >
<path style="stroke: none; stroke-width: 1; stroke-dasharray: none; stroke-linecap: butt; stroke-dashoffset: 0; stroke-linejoin: miter; stroke-miterlimit: 4; fill: #0055ff; fill-rule: nonzero; opacity: 1;" vector-effect="non-scaling-stroke"  transform=" translate(-11.5, -15)" d="M 11 16 L 12 16 L 12 14 L 11 14 L 11 16 z M 10 13 L 13 13 L 13 17 L 10 17 L 10 13 z" stroke-linecap="round" />
</g>
		<g transform="matrix(1 0 0 1 2.5 0.5)"  >
<path style="stroke: none; stroke-width: 1; stroke-dasharray: none; stroke-linecap: butt; stroke-dashoffset: 0; stroke-linejoin: miter; stroke-miterlimit: 4; fill: #0055ff; fill-rule: nonzero; opacity: 1;" vector-effect="non-scaling-stroke"  transform=" translate(-16.5, -14.5)" d="M 16 18 L 17 18 L 17 11 L 16 11 L 16 18 z M 15 10 L 18 10 L 18 19 L 15 19 L 15 10 z" stroke-linecap="round" />
</g>
		<g transform="matrix(1 0 0 1 7.5 0)"  >
<path style="stroke: none; stroke-width: 1; stroke-dasharray: none; stroke-linecap: butt; stroke-dashoffset: 0; stroke-linejoin: miter; stroke-miterlimit: 4; fill: #0055ff; fill-rule: nonzero; opacity: 1;" vector-effect="non-scaling-stroke"  transform=" translate(-21.5, -14)" d="M 21 16 L 22 16 L 22 12 L 21 12 L 21 16 z M 20 11 L 23 11 L 23 17 L 20 17 L 20 11 z" stroke-linecap="round" />
</g>
</g>
</g>
</svg>