<?xml version="1.0" encoding="UTF-8" standalone="no" ?>
<!DOCTYPE svg PUBLIC "-//W3C//DTD SVG 1.1//EN" "http://www.w3.org/Graphics/SVG/1.1/DTD/svg11.dtd">
<svg xmlns="http://www.w3.org/2000/svg" xmlns:xlink="http://www.w3.org/1999/xlink" version="1.1" width="1080" height="1080" viewBox="0 0 1080 1080" xml:space="preserve">
<desc>Created with Fabric.js 5.2.4</desc>
<defs>
</defs>
<rect x="0" y="0" width="100%" height="100%" fill="transparent"></rect>
<g transform="matrix(1 0 0 1 540 540)" id="a6474d76-c44b-4cb3-bcc2-9e97042a2b6d"  >
<rect style="stroke: none; stroke-width: 1; stroke-dasharray: none; stroke-linecap: butt; stroke-dashoffset: 0; stroke-linejoin: miter; stroke-miterlimit: 4; fill: rgb(255,255,255); fill-rule: nonzero; opacity: 1; visibility: hidden;" vector-effect="non-scaling-stroke"  x="-540" y="-540" rx="0" ry="0" width="1080" height="1080" />
</g>
<g transform="matrix(1 0 0 1 540 540)" id="1fc2687a-fc2d-4a62-942d-07f30305f0f7"  >
</g>
<g transform="matrix(38.57 0 0 38.57 540 540)"  >
<g style=""   >
		<g transform="matrix(1 0 0 1 -1 0.5)" id="Line"  >
<path style="stroke: none; stroke-width: 1; stroke-dasharray: none; stroke-linecap: butt; stroke-dashoffset: 0; stroke-linejoin: miter; stroke-miterlimit: 4; fill: rgb(255,255,255); fill-rule: nonzero; opacity: 1;" vector-effect="non-scaling-stroke"  transform=" translate(-13, -14.5)" d="M 20 14 L 6 14 L 6 15 L 20 15 z" stroke-linecap="round" />
</g>
		<g transform="matrix(1 0 0 1 7.5 0.5)"  >
<path style="stroke: none; stroke-width: 1; stroke-dasharray: none; stroke-linecap: butt; stroke-dashoffset: 0; stroke-linejoin: miter; stroke-miterlimit: 4; fill: rgb(255,255,255); fill-rule: nonzero; opacity: 1;" vector-effect="non-scaling-stroke"  transform=" translate(-21.5, -14.5)" d="M 20 17 L 20 12 L 23 14.5 z" stroke-linecap="round" />
</g>
		<g transform="matrix(1 0 0 1 0.5 0.5)"  >
<path style="stroke: none; stroke-width: 1; stroke-dasharray: none; stroke-linecap: butt; stroke-dashoffset: 0; stroke-linejoin: miter; stroke-miterlimit: 4; fill: rgb(255,255,255); fill-rule: nonzero; opacity: 1;" vector-effect="non-scaling-stroke"  transform=" translate(-14.5, -14.5)" d="M 24 8.5 L 24 25 L 25 25 L 25 8.5 z M 4 4 L 4 20.5 L 5 20.5 L 5 4 z" stroke-linecap="round" />
</g>
		<g transform="matrix(1 0 0 1 0.5 0.5)"  >
<path style="stroke: none; stroke-width: 1; stroke-dasharray: none; stroke-linecap: butt; stroke-dashoffset: 0; stroke-linejoin: miter; stroke-miterlimit: 4; fill: rgb(255,255,255); fill-rule: nonzero; opacity: 1;" vector-effect="non-scaling-stroke"  transform=" translate(-14.5, -14.5)" d="M 4.5 24 C 5.328 24 6 23.328 6 22.5 C 6 21.672 5.328 21 4.5 21 C 3.6719999999999997 21 3 21.672 3 22.5 C 3 23.328 3.672 24 4.5 24 z M 4.5 25 C 3.1189999999999998 25 2 23.881 2 22.5 C 2 21.119 3.1189999999999998 20 4.5 20 C 5.881 20 7 21.119 7 22.5 C 7 23.881 5.881 25 4.5 25 z M 24.5 8 C 25.328 8 26 7.328 26 6.5 C 26 5.672 25.328 5 24.5 5 C 23.672 5 23 5.672 23 6.5 C 23 7.328 23.672 8 24.5 8 z M 24.5 9 C 23.119 9 22 7.881 22 6.5 C 22 5.119 23.119 4 24.5 4 C 25.881 4 27 5.119 27 6.5 C 27 7.881 25.881 9 24.5 9 z" stroke-linecap="round" />
</g>
</g>
</g>
</svg>