<?xml version="1.0" encoding="UTF-8" standalone="no" ?>
<!DOCTYPE svg PUBLIC "-//W3C//DTD SVG 1.1//EN" "http://www.w3.org/Graphics/SVG/1.1/DTD/svg11.dtd">
<svg xmlns="http://www.w3.org/2000/svg" xmlns:xlink="http://www.w3.org/1999/xlink" version="1.1" width="1080" height="1080" viewBox="0 0 1080 1080" xml:space="preserve">
<desc>Created with Fabric.js 5.2.4</desc>
<defs>
</defs>
<rect x="0" y="0" width="100%" height="100%" fill="transparent"></rect>
<g transform="matrix(1 0 0 1 540 540)" id="e8c8f618-96ba-4784-90d1-b20bd5ccc995"  >
<rect style="stroke: none; stroke-width: 1; stroke-dasharray: none; stroke-linecap: butt; stroke-dashoffset: 0; stroke-linejoin: miter; stroke-miterlimit: 4; fill: rgb(255,255,255); fill-rule: nonzero; opacity: 1; visibility: hidden;" vector-effect="non-scaling-stroke"  x="-540" y="-540" rx="0" ry="0" width="1080" height="1080" />
</g>
<g transform="matrix(1 0 0 1 540 540)" id="5e645da5-4b7f-4aa7-937b-67bb204a7508"  >
</g>
<g transform="matrix(38.57 0 0 38.57 540 540)"  >
<g style=""   >
		<g transform="matrix(1 0 0 1 0 -0.02)"  >
<path style="stroke: none; stroke-width: 1; stroke-dasharray: none; stroke-linecap: butt; stroke-dashoffset: 0; stroke-linejoin: miter; stroke-miterlimit: 4; fill: rgb(0,0,0); fill-rule: nonzero; opacity: 1;" vector-effect="non-scaling-stroke"  transform=" translate(-14, -13.98)" d="M 17.605 19.584 C 17.900000000000002 17.28 17.021 15.998 14.331 13.625 C 11.869 11.453 11.14 10.384 11.391 8.514 L 10.4 8.381 C 10.088000000000001 10.703 10.967 11.991 13.669 14.375 C 16.121000000000002 16.538 16.85 17.602 16.612000000000002 19.458 L 17.604000000000003 19.584999999999997 z" stroke-linecap="round" />
</g>
		<g transform="matrix(1 0 0 1 -3.09 10.48)"  >
<path style="stroke: none; stroke-width: 1; stroke-dasharray: none; stroke-linecap: butt; stroke-dashoffset: 0; stroke-linejoin: miter; stroke-miterlimit: 4; fill: rgb(0,0,0); fill-rule: nonzero; opacity: 1;" vector-effect="non-scaling-stroke"  transform=" translate(-10.91, -24.48)" d="M 6.053 24.868 C 9.825 26.511999999999997 13.36 26.511 15.765 23.619 L 14.996 22.979 C 12.951 25.436999999999998 9.863 25.438 6.452 23.951 L 6.052 24.868000000000002 z" stroke-linecap="round" />
</g>
		<g transform="matrix(1 0 0 1 3.06 -10.45)"  >
<path style="stroke: none; stroke-width: 1; stroke-dasharray: none; stroke-linecap: butt; stroke-dashoffset: 0; stroke-linejoin: miter; stroke-miterlimit: 4; fill: rgb(0,0,0); fill-rule: nonzero; opacity: 1;" vector-effect="non-scaling-stroke"  transform=" translate(-17.06, -3.55)" d="M 12.949 5.087 C 14.993 2.562 18.106 2.5469999999999997 21.551000000000002 4.051 L 21.951 3.1340000000000003 C 18.141000000000002 1.4710000000000003 14.575 1.4880000000000004 12.172 4.458 L 12.949 5.087 z" stroke-linecap="round" />
</g>
		<g transform="matrix(1 0 0 1 0 0)"  >
<path style="stroke: none; stroke-width: 1; stroke-dasharray: none; stroke-linecap: butt; stroke-dashoffset: 0; stroke-linejoin: miter; stroke-miterlimit: 4; fill: rgb(0,0,0); fill-rule: nonzero; opacity: 1;" vector-effect="non-scaling-stroke"  transform=" translate(-14, -14)" d="M 4.5 25 C 5.328 25 6 24.328 6 23.5 C 6 22.672 5.328 22 4.5 22 C 3.6719999999999997 22 3 22.672 3 23.5 C 3 24.328 3.672 25 4.5 25 z M 4.5 26 C 3.1189999999999998 26 2 24.881 2 23.5 C 2 22.119 3.1189999999999998 21 4.5 21 C 5.881 21 7 22.119 7 23.5 C 7 24.881 5.881 26 4.5 26 z M 16.5 23 C 17.328 23 18 22.328 18 21.5 C 18 20.672 17.328 20 16.5 20 C 15.672 20 15 20.672 15 21.5 C 15 22.328 15.672 23 16.5 23 z M 16.5 24 C 15.119 24 14 22.881 14 21.5 C 14 20.119 15.119 19 16.5 19 C 17.881 19 19 20.119 19 21.5 C 19 22.881 17.881 24 16.5 24 z M 11.5 8 C 12.328 8 13 7.328 13 6.5 C 13 5.672 12.328 5 11.5 5 C 10.672 5 10 5.672 10 6.5 C 10 7.328 10.672 8 11.5 8 z M 11.5 9 C 10.119 9 9 7.881 9 6.5 C 9 5.119 10.119 4 11.5 4 C 12.881 4 14 5.119 14 6.5 C 14 7.881 12.881 9 11.5 9 z M 23.5 6 C 24.328 6 25 5.328 25 4.5 C 25 3.6719999999999997 24.328 3 23.5 3 C 22.672 3 22 3.672 22 4.5 C 22 5.327999999999999 22.672 6 23.5 6 z M 23.5 7 C 22.119 7 21 5.881 21 4.5 C 21 3.1189999999999998 22.119 2 23.5 2 C 24.881 2 26 3.1189999999999998 26 4.5 C 26 5.881 24.881 7 23.5 7 z" stroke-linecap="round" />
</g>
</g>
</g>
</svg>