<?xml version="1.0" encoding="UTF-8" standalone="no" ?>
<!DOCTYPE svg PUBLIC "-//W3C//DTD SVG 1.1//EN" "http://www.w3.org/Graphics/SVG/1.1/DTD/svg11.dtd">
<svg xmlns="http://www.w3.org/2000/svg" xmlns:xlink="http://www.w3.org/1999/xlink" version="1.1" width="1080" height="1080" viewBox="0 0 1080 1080" xml:space="preserve">
<desc>Created with Fabric.js 5.2.4</desc>
<defs>
</defs>
<rect x="0" y="0" width="100%" height="100%" fill="transparent"></rect>
<g transform="matrix(1 0 0 1 540 540)" id="e8c8f618-96ba-4784-90d1-b20bd5ccc995"  >
<rect style="stroke: none; stroke-width: 1; stroke-dasharray: none; stroke-linecap: butt; stroke-dashoffset: 0; stroke-linejoin: miter; stroke-miterlimit: 4; fill: #0055ff; fill-rule: nonzero; opacity: 1; visibility: hidden;" vector-effect="non-scaling-stroke"  x="-540" y="-540" rx="0" ry="0" width="1080" height="1080" />
</g>
<g transform="matrix(1 0 0 1 540 540)" id="5e645da5-4b7f-4aa7-937b-67bb204a7508"  >
</g>
<g transform="matrix(38.57 0 0 38.57 540 540)"  >
<g style=""   >
		<g transform="matrix(1 0 0 1 0.5 0.5)"  >
<path style="stroke: none; stroke-width: 1; stroke-dasharray: none; stroke-linecap: butt; stroke-dashoffset: 0; stroke-linejoin: miter; stroke-miterlimit: 4; fill: #0055ff; fill-rule: nonzero; opacity: 1;" vector-effect="non-scaling-stroke"  transform=" translate(-14.5, -14.5)" d="M 12.435 6.136 C 8.024000000000001 6.725 4.452000000000001 9.175 3.3499999999999996 12.405999999999999 L 4.295999999999999 12.729 C 5.262999999999999 9.892999999999999 8.504999999999999 7.669999999999999 12.567 7.126999999999999 L 12.435 6.135999999999999 z M 3.347 16.584 C 4.448 19.826999999999998 8.036 22.285 12.464 22.867 L 12.594000000000001 21.876 C 8.515 21.339000000000002 5.259000000000001 19.109 4.293000000000001 16.263 L 3.346000000000001 16.584000000000003 z M 16.554 22.865 C 20.935 22.282999999999998 24.494 19.865 25.625 16.665 L 24.682 16.332 C 23.688 19.143 20.458 21.338 16.421999999999997 21.874000000000002 L 16.554 22.865000000000002 z M 25.646 12.394 C 24.539 9.169 20.971 6.726 16.568 6.1370000000000005 L 16.435000000000002 7.128 C 20.491000000000003 7.67 23.728 9.888 24.700000000000003 12.719000000000001 L 25.646000000000004 12.394000000000002 z" stroke-linecap="round" />
</g>
		<g transform="matrix(1 0 0 1 0.5 0.5)"  >
<path style="stroke: none; stroke-width: 1; stroke-dasharray: none; stroke-linecap: butt; stroke-dashoffset: 0; stroke-linejoin: miter; stroke-miterlimit: 4; fill: #0055ff; fill-rule: nonzero; opacity: 1;" vector-effect="non-scaling-stroke"  transform=" translate(-14.5, -14.5)" d="M 14.5 8 C 15.328 8 16 7.328 16 6.5 C 16 5.672 15.328 5 14.5 5 C 13.672 5 13 5.672 13 6.5 C 13 7.328 13.672 8 14.5 8 z M 14.5 9 C 13.119 9 12 7.881 12 6.5 C 12 5.119 13.119 4 14.5 4 C 15.881 4 17 5.119 17 6.5 C 17 7.881 15.881 9 14.5 9 z M 14.5 24 C 15.328 24 16 23.328 16 22.5 C 16 21.672 15.328 21 14.5 21 C 13.672 21 13 21.672 13 22.5 C 13 23.328 13.672 24 14.5 24 z M 14.5 25 C 13.119 25 12 23.881 12 22.5 C 12 21.119 13.119 20 14.5 20 C 15.881 20 17 21.119 17 22.5 C 17 23.881 15.881 25 14.5 25 z M 3.5 16 C 4.328 16 5 15.328 5 14.5 C 5 13.672 4.328 13 3.5 13 C 2.6719999999999997 13 2 13.672 2 14.5 C 2 15.328 2.672 16 3.5 16 z M 3.5 17 C 2.1189999999999998 17 1 15.881 1 14.5 C 1 13.119 2.1189999999999998 12 3.5 12 C 4.881 12 6 13.119 6 14.5 C 6 15.881 4.881 17 3.5 17 z M 25.5 16 C 26.328 16 27 15.328 27 14.5 C 27 13.672 26.328 13 25.5 13 C 24.672 13 24 13.672 24 14.5 C 24 15.328 24.672 16 25.5 16 z M 25.5 17 C 24.119 17 23 15.881 23 14.5 C 23 13.119 24.119 12 25.5 12 C 26.881 12 28 13.119 28 14.5 C 28 15.881 26.881 17 25.5 17 z" stroke-linecap="round" />
</g>
</g>
</g>
</svg>