<?xml version="1.0" encoding="UTF-8" standalone="no" ?>
<!DOCTYPE svg PUBLIC "-//W3C//DTD SVG 1.1//EN" "http://www.w3.org/Graphics/SVG/1.1/DTD/svg11.dtd">
<svg xmlns="http://www.w3.org/2000/svg" xmlns:xlink="http://www.w3.org/1999/xlink" version="1.1" width="1080" height="1080" viewBox="0 0 1080 1080" xml:space="preserve">
<desc>Created with Fabric.js 5.2.4</desc>
<defs>
</defs>
<rect x="0" y="0" width="100%" height="100%" fill="transparent"></rect>
<g transform="matrix(1 0 0 1 540 540)" id="a6474d76-c44b-4cb3-bcc2-9e97042a2b6d"  >
<rect style="stroke: none; stroke-width: 1; stroke-dasharray: none; stroke-linecap: butt; stroke-dashoffset: 0; stroke-linejoin: miter; stroke-miterlimit: 4; fill: rgb(255,255,255); fill-rule: nonzero; opacity: 1; visibility: hidden;" vector-effect="non-scaling-stroke"  x="-540" y="-540" rx="0" ry="0" width="1080" height="1080" />
</g>
<g transform="matrix(1 0 0 1 540 540)" id="1fc2687a-fc2d-4a62-942d-07f30305f0f7"  >
</g>
<g transform="matrix(NaN NaN NaN NaN 0 0)"  >
<g style=""   >
</g>
</g>
<g transform="matrix(38.57 0 0 38.57 540 540)"  >
<g style=""   >
		<g transform="matrix(1 0 0 1 0 -6)"  >
<path style="stroke: none; stroke-width: 1; stroke-dasharray: none; stroke-linecap: butt; stroke-dashoffset: 0; stroke-linejoin: miter; stroke-miterlimit: 4; fill: rgb(0,0,0); fill-rule: nonzero; opacity: 1;" vector-effect="non-scaling-stroke"  transform=" translate(-14, -8)" d="M 7.463 12.026 L 21 4.859 L 20.532 3.975 L 6.994999999999999 11.142 z" stroke-linecap="round" />
</g>
		<g transform="matrix(1 0 0 1 0 8)"  >
<path style="stroke: none; stroke-width: 1; stroke-dasharray: none; stroke-linecap: butt; stroke-dashoffset: 0; stroke-linejoin: miter; stroke-miterlimit: 4; fill: rgb(0,0,0); fill-rule: nonzero; opacity: 1;" vector-effect="non-scaling-stroke"  transform=" translate(-14, -22)" d="M 22.708 16.824 L 4.823999999999998 26.292 L 5.291999999999998 27.176000000000002 L 23.176 17.708000000000002 z" stroke-linecap="round" />
</g>
		<g transform="matrix(1 0 0 1 1.02 0.46)"  >
<path style="stroke: none; stroke-width: 1; stroke-dasharray: none; stroke-linecap: butt; stroke-dashoffset: 0; stroke-linejoin: miter; stroke-miterlimit: 4; fill: rgb(0,0,0); fill-rule: nonzero; opacity: 1;" vector-effect="non-scaling-stroke"  transform=" translate(-15.02, -14.46)" d="M 22.708 9.824 L 6.868999999999998 18.21 L 7.336999999999998 19.094 L 23.176 10.708000000000002 z" stroke-linecap="round" />
</g>
		<g transform="matrix(1 0 0 1 0 -2.5)"  >
<path style="stroke: none; stroke-width: 1; stroke-dasharray: none; stroke-linecap: butt; stroke-dashoffset: 0; stroke-linejoin: miter; stroke-miterlimit: 4; fill: rgb(0,0,0); fill-rule: nonzero; opacity: 1;" vector-effect="non-scaling-stroke"  transform=" translate(-14, -11.5)" d="M 5.5 14 C 6.328 14 7 13.328 7 12.5 C 7 11.672 6.328 11 5.5 11 C 4.672 11 4 11.672 4 12.5 C 4 13.328 4.672 14 5.5 14 z M 5.5 15 C 4.119 15 3 13.881 3 12.5 C 3 11.119 4.119 10 5.5 10 C 6.881 10 8 11.119 8 12.5 C 8 13.881 6.881 15 5.5 15 z M 5.5 21 C 6.328 21 7 20.328 7 19.5 C 7 18.672 6.328 18 5.5 18 C 4.672 18 4 18.672 4 19.5 C 4 20.328 4.672 21 5.5 21 z M 5.5 22 C 4.119 22 3 20.881 3 19.5 C 3 18.119 4.119 17 5.5 17 C 6.881 17 8 18.119 8 19.5 C 8 20.881 6.881 22 5.5 22 z M 22.5 5 C 23.328 5 24 4.328 24 3.5 C 24 2.6719999999999997 23.328 2 22.5 2 C 21.672 2 21 2.672 21 3.5 C 21 4.327999999999999 21.672 5 22.5 5 z M 22.5 6 C 21.119 6 20 4.881 20 3.5 C 20 2.1189999999999998 21.119 1 22.5 1 C 23.881 1 25 2.1189999999999998 25 3.5 C 25 4.881 23.881 6 22.5 6 z" stroke-linecap="round" />
</g>
</g>
</g>
</svg>