<?xml version="1.0" encoding="UTF-8" standalone="no" ?>
<!DOCTYPE svg PUBLIC "-//W3C//DTD SVG 1.1//EN" "http://www.w3.org/Graphics/SVG/1.1/DTD/svg11.dtd">
<svg xmlns="http://www.w3.org/2000/svg" xmlns:xlink="http://www.w3.org/1999/xlink" version="1.1" width="1080" height="1080" viewBox="0 0 1080 1080" xml:space="preserve">
<desc>Created with Fabric.js 5.2.4</desc>
<defs>
</defs>
<rect x="0" y="0" width="100%" height="100%" fill="transparent"></rect>
<g transform="matrix(1 0 0 1 540 540)" id="a6474d76-c44b-4cb3-bcc2-9e97042a2b6d"  >
<rect style="stroke: none; stroke-width: 1; stroke-dasharray: none; stroke-linecap: butt; stroke-dashoffset: 0; stroke-linejoin: miter; stroke-miterlimit: 4; fill: #0055ff; fill-rule: nonzero; opacity: 1; visibility: hidden;" vector-effect="non-scaling-stroke"  x="-540" y="-540" rx="0" ry="0" width="1080" height="1080" />
</g>
<g transform="matrix(1 0 0 1 540 540)" id="1fc2687a-fc2d-4a62-942d-07f30305f0f7"  >
</g>
<g transform="matrix(38.57 0 0 38.57 540 540)"  >
<g style=""   >
		<g transform="matrix(1 0 0 1 0 8.5)"  >
<path style="stroke: none; stroke-width: 1; stroke-dasharray: none; stroke-linecap: butt; stroke-dashoffset: 0; stroke-linejoin: miter; stroke-miterlimit: 4; fill: #0055ff; fill-rule: nonzero; opacity: 1;" vector-effect="non-scaling-stroke"  transform=" translate(-14, -22.5)" d="M 7.5 23 L 20.5 23 L 20.5 22 L 7.5 22 z" stroke-linecap="round" />
</g>
		<g transform="matrix(1 0 0 1 -0.02 -4.49)"  >
<path style="stroke: none; stroke-width: 1; stroke-dasharray: none; stroke-linecap: butt; stroke-dashoffset: 0; stroke-linejoin: miter; stroke-miterlimit: 4; fill: #0055ff; fill-rule: nonzero; opacity: 1;" vector-effect="non-scaling-stroke"  transform=" translate(-13.98, -9.51)" d="M 7.55 13.088 L 20.84 6.834 L 20.414 5.928999999999999 L 7.124000000000002 12.183 z" stroke-linecap="round" />
</g>
		<g transform="matrix(1 0 0 1 0 0)"  >
<path style="stroke: none; stroke-width: 1; stroke-dasharray: none; stroke-linecap: butt; stroke-dashoffset: 0; stroke-linejoin: miter; stroke-miterlimit: 4; fill: #0055ff; fill-rule: nonzero; opacity: 1;" vector-effect="non-scaling-stroke"  transform=" translate(-14, -14)" d="M 5.5 24 C 6.328 24 7 23.328 7 22.5 C 7 21.672 6.328 21 5.5 21 C 4.672 21 4 21.672 4 22.5 C 4 23.328 4.672 24 5.5 24 z M 5.5 25 C 4.119 25 3 23.881 3 22.5 C 3 21.119 4.119 20 5.5 20 C 6.881 20 8 21.119 8 22.5 C 8 23.881 6.881 25 5.5 25 z M 5.5 15 C 6.328 15 7 14.328 7 13.5 C 7 12.672 6.328 12 5.5 12 C 4.672 12 4 12.672 4 13.5 C 4 14.328 4.672 15 5.5 15 z M 5.5 16 C 4.119 16 3 14.881 3 13.5 C 3 12.119 4.119 11 5.5 11 C 6.881 11 8 12.119 8 13.5 C 8 14.881 6.881 16 5.5 16 z M 22.5 24 C 23.328 24 24 23.328 24 22.5 C 24 21.672 23.328 21 22.5 21 C 21.672 21 21 21.672 21 22.5 C 21 23.328 21.672 24 22.5 24 z M 22.5 25 C 21.119 25 20 23.881 20 22.5 C 20 21.119 21.119 20 22.5 20 C 23.881 20 25 21.119 25 22.5 C 25 23.881 23.881 25 22.5 25 z M 22.5 7 C 23.328 7 24 6.328 24 5.5 C 24 4.672 23.328 4 22.5 4 C 21.672 4 21 4.672 21 5.5 C 21 6.328 21.672 7 22.5 7 z M 22.5 8 C 21.119 8 20 6.881 20 5.5 C 20 4.119 21.119 3 22.5 3 C 23.881 3 25 4.119 25 5.5 C 25 6.881 23.881 8 22.5 8 z" stroke-linecap="round" />
</g>
</g>
</g>
</svg>