<svg width="33" height="32" viewBox="0 0 33 32" fill="none" xmlns="http://www.w3.org/2000/svg">
<rect width="32" height="32" fill="white"/>
<path fill-rule="evenodd" clip-rule="evenodd" d="M3.37429 25.2134V6.36628L17.9472 3.72811V27.854L3.37429 25.2134ZM26.3057 22.9528H18.6026L18.5978 16.1448L20.0154 17.1161C20.4001 17.4224 20.8893 17.3654 21.2051 17.1398L26.9018 13.0484L26.9136 22.2119C26.9112 22.8317 26.9469 22.9528 26.3057 22.9528ZM20.0772 15.7602L18.5978 14.6584V11.2247H25.2158C25.4675 11.2223 25.7121 11.2247 25.9282 11.2247C27.5191 11.2176 26.7759 11.7519 26.0516 12.279L21.255 15.7697C20.8323 16.0784 20.5236 16.1259 20.0772 15.7602ZM18.5978 9.46512H27.6497C28.6494 9.46512 28.6494 9.79994 28.6494 10.5479V19.4337C28.6494 19.4503 28.6494 19.4669 28.6494 19.4835C28.6494 19.9561 28.6494 20.1033 28.1484 20.1033C27.645 20.1033 27.645 19.9751 27.6474 19.5191C27.6474 19.4906 27.645 19.455 27.645 19.4337V10.5551H18.5978V9.46512ZM0 32H32.0404L32.0427 0L0 0.00237459V32Z" fill="#1E70B6"/>
</svg>
