<?xml version="1.0" encoding="UTF-8" standalone="no" ?>
<!DOCTYPE svg PUBLIC "-//W3C//DTD SVG 1.1//EN" "http://www.w3.org/Graphics/SVG/1.1/DTD/svg11.dtd">
<svg xmlns="http://www.w3.org/2000/svg" xmlns:xlink="http://www.w3.org/1999/xlink" version="1.1" width="1080" height="1080" viewBox="0 0 1080 1080" xml:space="preserve">
<desc>Created with Fabric.js 5.2.4</desc>
<defs>
</defs>
<rect x="0" y="0" width="100%" height="100%" fill="transparent"></rect>
<g transform="matrix(1 0 0 1 540 540)" id="9412f0e9-6590-45c7-92b6-3c568b86ec3e"  >
<rect style="stroke: none; stroke-width: 1; stroke-dasharray: none; stroke-linecap: butt; stroke-dashoffset: 0; stroke-linejoin: miter; stroke-miterlimit: 4; fill: rgb(255,255,255); fill-rule: nonzero; opacity: 1; visibility: hidden;" vector-effect="non-scaling-stroke"  x="-540" y="-540" rx="0" ry="0" width="1080" height="1080" />
</g>
<g transform="matrix(1 0 0 1 540 540)" id="77a50504-0f50-43c8-84a0-dfc11a3296c3"  >
</g>
<g transform="matrix(NaN NaN NaN NaN 0 0)"  >
<g style=""   >
</g>
</g>
<g transform="matrix(38.57 0 0 38.57 540 540)"  >
<g style=""   >
		<g transform="matrix(1 0 0 1 1.5 -1.45)"  >
<path style="stroke: none; stroke-width: 1; stroke-dasharray: none; stroke-linecap: butt; stroke-dashoffset: 0; stroke-linejoin: miter; stroke-miterlimit: 4; fill: rgb(255,255,255); fill-rule: nonzero; opacity: 1;" vector-effect="non-scaling-stroke"  transform=" translate(-15.5, -12.55)" d="M 6.995 5 C 7.003 5 7 20.5 7 20.5 L 6 20.5 L 6 5.007 C 6 4.451 6.451 4 6.995 4 L 24.005000000000003 4 C 24.554000000000002 4 25.000000000000004 4.45 25.000000000000004 5.007 L 25.000000000000004 16.993000000000002 C 25.000000000000004 17.549000000000003 24.550000000000004 18.000000000000004 23.993000000000002 18.000000000000004 L 11.000000000000002 18.000000000000004 L 7.896000000000002 21.104000000000003 L 7.189000000000002 20.397000000000002 L 10.586000000000002 17.000000000000004 L 23.993000000000002 17.000000000000004 C 23.997000000000003 17.000000000000004 24.000000000000004 5.007000000000003 24.000000000000004 5.007000000000003 C 24.000000000000004 5.0000000000000036 6.9950000000000045 5.0000000000000036 6.9950000000000045 5.0000000000000036 z" stroke-linecap="round" />
</g>
		<g transform="matrix(1 0 0 1 -7.5 8.5)"  >
<path style="stroke: none; stroke-width: 1; stroke-dasharray: none; stroke-linecap: butt; stroke-dashoffset: 0; stroke-linejoin: miter; stroke-miterlimit: 4; fill: rgb(255,255,255); fill-rule: nonzero; opacity: 1;" vector-effect="non-scaling-stroke"  transform=" translate(-6.5, -22.5)" d="M 6.5 24 C 7.328 24 8 23.328 8 22.5 C 8 21.672 7.328 21 6.5 21 C 5.672 21 5 21.672 5 22.5 C 5 23.328 5.672 24 6.5 24 z M 6.5 25 C 5.119 25 4 23.881 4 22.5 C 4 21.119 5.119 20 6.5 20 C 7.881 20 9 21.119 9 22.5 C 9 23.881 7.881 25 6.5 25 z" stroke-linecap="round" />
</g>
</g>
</g>
</svg>