<?xml version="1.0" encoding="UTF-8" standalone="no" ?>
<!DOCTYPE svg PUBLIC "-//W3C//DTD SVG 1.1//EN" "http://www.w3.org/Graphics/SVG/1.1/DTD/svg11.dtd">
<svg xmlns="http://www.w3.org/2000/svg" xmlns:xlink="http://www.w3.org/1999/xlink" version="1.1" width="1080" height="1080" viewBox="0 0 1080 1080" xml:space="preserve">
<desc>Created with Fabric.js 5.2.4</desc>
<defs>
</defs>
<rect x="0" y="0" width="100%" height="100%" fill="transparent"></rect>
<g transform="matrix(1 0 0 1 540 540)" id="9412f0e9-6590-45c7-92b6-3c568b86ec3e"  >
<rect style="stroke: none; stroke-width: 1; stroke-dasharray: none; stroke-linecap: butt; stroke-dashoffset: 0; stroke-linejoin: miter; stroke-miterlimit: 4; fill: rgb(255,255,255); fill-rule: nonzero; opacity: 1; visibility: hidden;" vector-effect="non-scaling-stroke"  x="-540" y="-540" rx="0" ry="0" width="1080" height="1080" />
</g>
<g transform="matrix(1 0 0 1 540 540)" id="77a50504-0f50-43c8-84a0-dfc11a3296c3"  >
</g>
<g transform="matrix(NaN NaN NaN NaN 0 0)"  >
<g style=""   >
</g>
</g>
<g transform="matrix(38.57 0 0 38.57 540 540)"  >
<g style=""   >
		<g transform="matrix(1 0 0 1 -0.01 -3.52)"  >
<path style="stroke: none; stroke-width: 1; stroke-dasharray: none; stroke-linecap: butt; stroke-dashoffset: 0; stroke-linejoin: miter; stroke-miterlimit: 4; fill: rgb(255,255,255); fill-rule: evenodd; opacity: 1;" vector-effect="non-scaling-stroke"  transform=" translate(-13.99, -10.48)" d="M 14.48 5.46 C 14.41777777777778 5.246666666666666 14.222222222222223 5.099999999999999 14 5.099999999999999 C 13.777777777777777 5.099999999999999 13.58222222222222 5.246666666666666 13.52 5.46 L 12.54 8.49 C 12.475280337949961 8.695868993238168 12.285781343975192 8.836985265347039 12.069999999999999 8.84 L 8.88 8.84 C 8.66478479596326 8.84 8.47371537416014 8.977715047435392 8.405658350974743 9.181886116991581 C 8.337601327789347 9.38605718654777 8.407827836770608 9.610870877577955 8.58 9.74 L 11.16 11.61 C 11.33506778794734 11.737898050024342 11.407759581173076 11.964050295615523 11.34 12.17 L 10.36 15.2 C 10.292067457001137 15.40634589530877 10.365148768625277 15.632946567199038 10.54083904474866 15.76072131347059 C 10.716529320872043 15.888496059742144 10.954623120954547 15.88820456000216 11.129999999999999 15.76 L 13.709999999999999 13.89 C 13.883582154226035 13.766410982784436 14.116417845773963 13.766410982784436 14.29 13.89 L 16.869999999999997 15.760000000000002 C 17.269999999999996 16.040000000000003 17.79 15.660000000000002 17.639999999999997 15.200000000000001 L 16.659999999999997 12.170000000000002 C 16.59224041882692 11.964050295615525 16.66493221205266 11.737898050024343 16.839999999999996 11.610000000000001 L 19.409999999999997 9.740000000000002 C 19.58217216322939 9.610870877577957 19.65239867221065 9.386057186547772 19.584341649025255 9.181886116991583 C 19.51628462583986 8.977715047435392 19.325215204036738 8.840000000000002 19.109999999999996 8.840000000000002 L 15.929999999999996 8.840000000000002 C 15.714218656024803 8.83698526534704 15.524719662050035 8.69586899323817 15.459999999999996 8.490000000000002 L 14.479999999999995 5.460000000000003 z M 14 7.24 L 13.5 8.8 C 13.300040486231296 9.420627109429208 12.722043586726253 9.84098849088742 12.07 9.84 L 10.42 9.84 L 11.75 10.8 C 12.28 11.190000000000001 12.5 11.860000000000001 12.3 12.48 L 11.790000000000001 14.05 L 13.120000000000001 13.08 C 13.6450214495261 12.699657028166422 14.354978550473902 12.699657028166422 14.88 13.08 L 16.21 14.05 L 15.71 12.48 C 15.510000000000002 11.860000000000001 15.72 11.18 16.25 10.8 L 17.58 9.84 L 15.929999999999998 9.84 C 15.281645041397287 9.836657952003085 14.708822881944963 9.417126229587298 14.509999999999998 8.8 L 14 7.24 z" stroke-linecap="round" />
</g>
		<g transform="matrix(1 0 0 1 0 0)"  >
<path style="stroke: none; stroke-width: 1; stroke-dasharray: none; stroke-linecap: butt; stroke-dashoffset: 0; stroke-linejoin: miter; stroke-miterlimit: 4; fill: rgb(255,255,255); fill-rule: evenodd; opacity: 1;" vector-effect="non-scaling-stroke"  transform=" translate(-14, -14)" d="M 15 20.95 C 20.398178683303712 20.40814764008087 24.379655156500363 15.66075576421684 23.973138114760424 10.250702070250437 C 23.566621073020485 4.840648376284033 18.920410143977577 0.7415498738715272 13.50187383446734 1.012476689347043 C 8.083337524957104 1.2834035048225587 3.869187348918155 5.82552006248916 4.004354052420457 11.249141273367444 C 4.139520755922758 16.67276248424573 8.574694790436538 20.999321834724235 13.999999999999993 21 L 14 27 L 15 27 L 15 20.95 z M 14 20 C 18.97056274847714 20 23 15.970562748477139 23 11 C 23 6.029437251522861 18.97056274847714 2 14 2 C 9.029437251522861 2 5 6.02943725152286 5 11 C 5 15.970562748477139 9.029437251522861 20 14 20 z" stroke-linecap="round" />
</g>
</g>
</g>
</svg>