<svg width="23" height="24" viewBox="0 0 23 24" fill="none" xmlns="http://www.w3.org/2000/svg">
<path d="M5.28256 21.5064C5.28943 20.7986 5.30317 20.0908 5.31005 19.3831C5.31005 19.2181 5.33066 19.2387 5.17261 19.17C4.29305 18.8196 3.47533 18.3798 2.75381 17.7614C1.99107 17.1086 1.39324 16.3389 0.953455 15.4388C0.534287 14.5729 0.300653 13.6521 0.170093 12.7039C0.121992 12.3328 0.0945053 11.9617 0.0945053 11.5907C0.0945053 11.2402 0.0395324 10.8898 0.0326608 10.5393C0.0257892 10.2919 0.0189177 10.0377 0.0257893 9.79031C0.0326609 9.28181 -0.0154404 8.77331 0.00517434 8.26481C0.0464039 7.11038 0.252552 5.98344 0.706077 4.91147C1.35201 3.38598 2.41023 2.23155 3.85327 1.4207C4.93898 0.816002 6.09341 0.431192 7.31655 0.231916C8.07243 0.108227 8.8283 0.0395116 9.59105 0.0188968C10.4981 -0.00858955 11.4052 -0.00171785 12.3191 0.0120253C13.4872 0.0257685 14.6417 0.135714 15.7755 0.410578C16.8543 0.664827 17.8713 1.07025 18.8059 1.66808C19.9397 2.3896 20.8055 3.34475 21.3896 4.56102C21.7538 5.31003 21.9737 6.10026 22.118 6.91798C22.221 7.52268 22.2623 8.12738 22.2554 8.73895C22.2485 9.38488 22.2348 10.0308 22.1936 10.6699C22.1661 11.1097 22.1661 11.5494 22.1455 11.9892C22.0699 13.2055 21.8225 14.3805 21.2865 15.48C20.6268 16.8268 19.6304 17.8438 18.3248 18.5791C17.246 19.1838 16.0916 19.5617 14.8822 19.7679C13.9339 19.9259 12.9719 20.0015 12.0099 20.0015C11.4189 20.0015 10.8279 19.9946 10.237 20.0015C9.93463 20.0015 9.63228 20.0084 9.32993 19.974C9.23373 19.9671 9.16501 19.9946 9.10317 20.0702C8.62903 20.6199 8.15489 21.1697 7.67388 21.7194C7.08292 22.3997 6.49196 23.08 5.90788 23.7534C5.84603 23.8221 5.77732 23.8908 5.70173 23.9389C5.51619 24.0626 5.32379 23.9939 5.27569 23.774C5.26194 23.7259 5.26882 23.6641 5.26882 23.616C5.26195 22.9151 5.27569 22.2073 5.28256 21.5064Z" fill="#7143B9"/>
<path d="M4.34113 6.29267C4.36174 5.45434 4.74655 4.82215 5.44058 4.36862C5.72919 4.17622 6.04528 4.02504 6.38886 3.95633C6.74618 3.88074 7.08976 3.92884 7.39211 4.1556C7.59139 4.29991 7.75631 4.47857 7.92123 4.65723C8.47095 5.26193 8.93822 5.91473 9.31616 6.64312C9.378 6.76681 9.43298 6.89737 9.47421 7.0348C9.59102 7.42648 9.50169 7.77006 9.24057 8.07241C9.14437 8.18236 9.03442 8.27856 8.91761 8.36789C8.80766 8.44348 8.69772 8.52594 8.59464 8.62214C8.35414 8.8489 8.28542 9.12377 8.36101 9.43986C8.3885 9.57042 8.4366 9.69411 8.4847 9.81093C8.76643 10.4294 9.14437 10.986 9.63225 11.467C9.92086 11.7487 10.2301 11.9961 10.5737 12.2091C10.9035 12.4153 11.2333 12.6077 11.6044 12.7382C11.948 12.8619 12.2091 12.7863 12.4359 12.4977C12.5321 12.374 12.6145 12.2435 12.7245 12.1267C12.9306 11.9068 13.1643 11.7418 13.4597 11.6731C13.7827 11.5975 14.0919 11.6525 14.3874 11.7831C14.6691 11.8999 14.9165 12.0786 15.1639 12.2503C15.6586 12.5939 16.1397 12.9581 16.6069 13.3361C16.7306 13.4391 16.8406 13.5559 16.9436 13.6865C17.1841 14.0026 17.2322 14.3531 17.1292 14.7241C17.033 15.0814 16.8543 15.3907 16.6207 15.6724C16.2152 16.1672 15.7205 16.5382 15.1089 16.7375C14.944 16.7925 14.7791 16.8268 14.6073 16.8406C14.3874 16.8612 14.1812 16.7856 13.9751 16.7238C13.7758 16.6688 13.5903 16.5726 13.4048 16.4901C12.4771 16.0778 11.5838 15.5899 10.7386 15.0265C9.46733 14.1813 8.33352 13.1918 7.34401 12.0305C6.60875 11.1646 5.96969 10.2301 5.42684 9.22684C5.07639 8.58778 4.76716 7.92811 4.50604 7.24782C4.40297 6.95234 4.34113 6.57441 4.34113 6.29267Z" fill="white"/>
<path d="M17.5759 9.08941C17.569 9.31617 17.5965 9.48109 17.5759 9.63914C17.5278 10.0308 17.1842 10.237 16.82 10.0858C16.6001 9.99646 16.5314 9.80406 16.5108 9.59104C16.4902 9.32992 16.4695 9.0688 16.4283 8.80768C16.2909 8.0037 16.071 7.22721 15.6381 6.52631C15.3151 6.00406 14.8959 5.57803 14.3737 5.24132C13.769 4.84964 13.0956 4.62287 12.3947 4.46483C12.0923 4.39611 11.7831 4.34114 11.4739 4.31365C11.3983 4.30678 11.3296 4.29304 11.2609 4.26555C11.0479 4.18996 10.9379 4.03192 10.9516 3.80515C10.9791 3.4066 11.2059 3.24856 11.5151 3.24856C12.6902 3.22794 13.7621 3.53716 14.7448 4.17622C15.322 4.55416 15.8374 5.00081 16.2634 5.54367C17.088 6.59502 17.569 7.79068 17.5759 9.08941Z" fill="white"/>
<path d="M15.7961 8.96571C15.7892 9.08253 15.8098 9.23371 15.7755 9.38488C15.7274 9.63913 15.5487 9.78343 15.2807 9.79031C14.999 9.79718 14.8203 9.67349 14.7585 9.41924C14.731 9.32304 14.731 9.21996 14.7173 9.11689C14.6692 8.65649 14.5592 8.20297 14.3805 7.77006C14.1332 7.15161 13.6865 6.73245 13.0749 6.47133C12.6489 6.29266 12.2091 6.1621 11.7556 6.09339C11.6319 6.07277 11.5151 6.04529 11.4051 5.99031C11.3502 5.96283 11.3021 5.92847 11.2677 5.88037C11.1165 5.69483 11.1234 5.49556 11.2059 5.28941C11.2746 5.10388 11.4189 5.0008 11.6182 4.98019C11.7831 4.95957 11.948 4.98706 12.1129 5.01455C12.5733 5.08326 13.02 5.20008 13.446 5.39936C13.9889 5.66048 14.4561 6.02467 14.8547 6.4782C15.1914 6.86988 15.4456 7.30279 15.6106 7.79067C15.7274 8.16861 15.7892 8.54655 15.7961 8.96571Z" fill="white"/>
<path d="M14.0851 8.83516C14.0851 8.97259 14.0851 9.11002 14.037 9.24058C13.9682 9.43986 13.8239 9.55668 13.6178 9.58416C13.4048 9.61165 13.233 9.53606 13.1162 9.3574C13.0543 9.26807 13.0268 9.17187 13.0131 9.06879C12.9856 8.897 12.965 8.71834 12.8963 8.5603C12.752 8.20984 12.4771 8.0037 12.1198 7.90749C12.0511 7.88688 11.9755 7.87314 11.9068 7.85939C11.8518 7.84565 11.7899 7.83191 11.735 7.81816C11.4807 7.74258 11.3502 7.58453 11.3502 7.36464C11.3502 7.10352 11.4945 6.8905 11.735 6.82178C11.9686 6.75307 12.2091 6.76681 12.4427 6.82865C12.9993 6.9867 13.4116 7.33715 13.7346 7.80442C13.9476 8.10677 14.0851 8.45035 14.0851 8.83516Z" fill="white"/>
</svg>
