<?xml version="1.0" encoding="UTF-8" standalone="no" ?>
<!DOCTYPE svg PUBLIC "-//W3C//DTD SVG 1.1//EN" "http://www.w3.org/Graphics/SVG/1.1/DTD/svg11.dtd">
<svg xmlns="http://www.w3.org/2000/svg" xmlns:xlink="http://www.w3.org/1999/xlink" version="1.1" width="1080" height="1080" viewBox="0 0 1080 1080" xml:space="preserve">
<desc>Created with Fabric.js 5.2.4</desc>
<defs>
</defs>
<rect x="0" y="0" width="100%" height="100%" fill="transparent"></rect>
<g transform="matrix(1 0 0 1 540 540)" id="9412f0e9-6590-45c7-92b6-3c568b86ec3e"  >
<rect style="stroke: none; stroke-width: 1; stroke-dasharray: none; stroke-linecap: butt; stroke-dashoffset: 0; stroke-linejoin: miter; stroke-miterlimit: 4; fill: #0055ff; fill-rule: nonzero; opacity: 1; visibility: hidden;" vector-effect="non-scaling-stroke"  x="-540" y="-540" rx="0" ry="0" width="1080" height="1080" />
</g>
<g transform="matrix(1 0 0 1 540 540)" id="77a50504-0f50-43c8-84a0-dfc11a3296c3"  >
</g>
<g transform="matrix(NaN NaN NaN NaN 0 0)"  >
<g style=""   >
</g>
</g>
<g transform="matrix(NaN NaN NaN NaN 0 0)"  >
<path style="stroke: none; stroke-width: 1; stroke-dasharray: none; stroke-linecap: butt; stroke-dashoffset: 0; stroke-linejoin: miter; stroke-miterlimit: 4; fill: #0055ff; fill-rule: nonzero; opacity: 1;"  transform=" translate(-14, -14)" d="M 2 9.75 C 1.17157287525381 9.75 0.5 10.42157287525381 0.5 11.25 L 0.5 16.75 C 0.5 17.57842712474619 1.17157287525381 18.25 2 18.25 L 26 18.25 C 26.82842712474619 18.25 27.5 17.57842712474619 27.5 16.75 L 27.5 11.25 C 27.5 10.42157287525381 26.82842712474619 9.75 26 9.75 z M 2 10.75 L 5 10.75 L 5 13.25 L 6 13.25 L 6 10.75 L 9.25 10.75 L 9.25 14.65 L 10.25 14.65 L 10.25 10.75 L 13.5 10.75 L 13.5 13.25 L 14.5 13.25 L 14.5 10.75 L 17.75 10.75 L 17.75 14.65 L 18.75 14.65 L 18.75 10.75 L 22 10.75 L 22 13.25 L 23 13.25 L 23 10.75 L 26 10.75 C 26.2761423749154 10.75 26.5 10.973857625084603 26.5 11.25 L 26.5 16.75 C 26.5 17.0261423749154 26.2761423749154 17.25 26 17.25 L 2 17.25 C 1.7238576250846034 17.25 1.5 17.0261423749154 1.5 16.75 L 1.5 11.25 C 1.5 10.973857625084603 1.7238576250846034 10.75 2 10.75 z" stroke-linecap="round" />
</g>
<g transform="matrix(NaN NaN NaN NaN 0 0)"  >
<path style="stroke: none; stroke-width: 1; stroke-dasharray: none; stroke-linecap: butt; stroke-dashoffset: 0; stroke-linejoin: miter; stroke-miterlimit: 4; fill: #0055ff; fill-rule: nonzero; opacity: 1;"  transform=" translate(-14, -14)" d="M 2 9.75 C 1.17157287525381 9.75 0.5 10.42157287525381 0.5 11.25 L 0.5 16.75 C 0.5 17.57842712474619 1.17157287525381 18.25 2 18.25 L 26 18.25 C 26.82842712474619 18.25 27.5 17.57842712474619 27.5 16.75 L 27.5 11.25 C 27.5 10.42157287525381 26.82842712474619 9.75 26 9.75 z M 2 10.75 L 5 10.75 L 5 13.25 L 6 13.25 L 6 10.75 L 9.25 10.75 L 9.25 14.65 L 10.25 14.65 L 10.25 10.75 L 13.5 10.75 L 13.5 13.25 L 14.5 13.25 L 14.5 10.75 L 17.75 10.75 L 17.75 14.65 L 18.75 14.65 L 18.75 10.75 L 22 10.75 L 22 13.25 L 23 13.25 L 23 10.75 L 26 10.75 C 26.2761423749154 10.75 26.5 10.973857625084603 26.5 11.25 L 26.5 16.75 C 26.5 17.0261423749154 26.2761423749154 17.25 26 17.25 L 2 17.25 C 1.7238576250846034 17.25 1.5 17.0261423749154 1.5 16.75 L 1.5 11.25 C 1.5 10.973857625084603 1.7238576250846034 10.75 2 10.75 z" stroke-linecap="round" />
</g>
<g transform="matrix(NaN NaN NaN NaN 0 0)"  >
<path style="stroke: none; stroke-width: 1; stroke-dasharray: none; stroke-linecap: butt; stroke-dashoffset: 0; stroke-linejoin: miter; stroke-miterlimit: 4; fill: #0055ff; fill-rule: nonzero; opacity: 1;"  transform=" translate(-14, -14)" d="M 2 9.75 C 1.17157287525381 9.75 0.5 10.42157287525381 0.5 11.25 L 0.5 16.75 C 0.5 17.57842712474619 1.17157287525381 18.25 2 18.25 L 26 18.25 C 26.82842712474619 18.25 27.5 17.57842712474619 27.5 16.75 L 27.5 11.25 C 27.5 10.42157287525381 26.82842712474619 9.75 26 9.75 z M 2 10.75 L 5 10.75 L 5 13.25 L 6 13.25 L 6 10.75 L 9.25 10.75 L 9.25 14.65 L 10.25 14.65 L 10.25 10.75 L 13.5 10.75 L 13.5 13.25 L 14.5 13.25 L 14.5 10.75 L 17.75 10.75 L 17.75 14.65 L 18.75 14.65 L 18.75 10.75 L 22 10.75 L 22 13.25 L 23 13.25 L 23 10.75 L 26 10.75 C 26.2761423749154 10.75 26.5 10.973857625084603 26.5 11.25 L 26.5 16.75 C 26.5 17.0261423749154 26.2761423749154 17.25 26 17.25 L 2 17.25 C 1.7238576250846034 17.25 1.5 17.0261423749154 1.5 16.75 L 1.5 11.25 C 1.5 10.973857625084603 1.7238576250846034 10.75 2 10.75 z" stroke-linecap="round" />
</g>
<g transform="matrix(NaN NaN NaN NaN 0 0)"  >
<path style="stroke: none; stroke-width: 1; stroke-dasharray: none; stroke-linecap: butt; stroke-dashoffset: 0; stroke-linejoin: miter; stroke-miterlimit: 4; fill: #0055ff; fill-rule: nonzero; opacity: 1;"  transform=" translate(-14, -14)" d="M 2 9.75 C 1.17157287525381 9.75 0.5 10.42157287525381 0.5 11.25 L 0.5 16.75 C 0.5 17.57842712474619 1.17157287525381 18.25 2 18.25 L 26 18.25 C 26.82842712474619 18.25 27.5 17.57842712474619 27.5 16.75 L 27.5 11.25 C 27.5 10.42157287525381 26.82842712474619 9.75 26 9.75 z M 2 10.75 L 5 10.75 L 5 13.25 L 6 13.25 L 6 10.75 L 9.25 10.75 L 9.25 14.65 L 10.25 14.65 L 10.25 10.75 L 13.5 10.75 L 13.5 13.25 L 14.5 13.25 L 14.5 10.75 L 17.75 10.75 L 17.75 14.65 L 18.75 14.65 L 18.75 10.75 L 22 10.75 L 22 13.25 L 23 13.25 L 23 10.75 L 26 10.75 C 26.2761423749154 10.75 26.5 10.973857625084603 26.5 11.25 L 26.5 16.75 C 26.5 17.0261423749154 26.2761423749154 17.25 26 17.25 L 2 17.25 C 1.7238576250846034 17.25 1.5 17.0261423749154 1.5 16.75 L 1.5 11.25 C 1.5 10.973857625084603 1.7238576250846034 10.75 2 10.75 z" stroke-linecap="round" />
</g>
<g transform="matrix(NaN NaN NaN NaN 0 0)"  >
<path style="stroke: none; stroke-width: 1; stroke-dasharray: none; stroke-linecap: butt; stroke-dashoffset: 0; stroke-linejoin: miter; stroke-miterlimit: 4; fill: #0055ff; fill-rule: nonzero; opacity: 1;"  transform=" translate(-14, -14)" d="M 2 9.75 C 1.17157287525381 9.75 0.5 10.42157287525381 0.5 11.25 L 0.5 16.75 C 0.5 17.57842712474619 1.17157287525381 18.25 2 18.25 L 26 18.25 C 26.82842712474619 18.25 27.5 17.57842712474619 27.5 16.75 L 27.5 11.25 C 27.5 10.42157287525381 26.82842712474619 9.75 26 9.75 z M 2 10.75 L 5 10.75 L 5 13.25 L 6 13.25 L 6 10.75 L 9.25 10.75 L 9.25 14.65 L 10.25 14.65 L 10.25 10.75 L 13.5 10.75 L 13.5 13.25 L 14.5 13.25 L 14.5 10.75 L 17.75 10.75 L 17.75 14.65 L 18.75 14.65 L 18.75 10.75 L 22 10.75 L 22 13.25 L 23 13.25 L 23 10.75 L 26 10.75 C 26.2761423749154 10.75 26.5 10.973857625084603 26.5 11.25 L 26.5 16.75 C 26.5 17.0261423749154 26.2761423749154 17.25 26 17.25 L 2 17.25 C 1.7238576250846034 17.25 1.5 17.0261423749154 1.5 16.75 L 1.5 11.25 C 1.5 10.973857625084603 1.7238576250846034 10.75 2 10.75 z" stroke-linecap="round" />
</g>
<g transform="matrix(38.57 0 0 38.57 540 540)"  >
<g style=""   >
		<g transform="matrix(1 0 0 1 6 6)"  >
<path style="stroke: none; stroke-width: 1; stroke-dasharray: none; stroke-linecap: butt; stroke-dashoffset: 0; stroke-linejoin: miter; stroke-miterlimit: 4; fill: #0055ff; fill-rule: nonzero; opacity: 1;" vector-effect="non-scaling-stroke"  transform=" translate(-20, -20)" d="M 17.646 18.354 L 21.646 22.354 L 22.354 21.646 L 18.354 17.646 z" stroke-linecap="round" />
</g>
		<g transform="matrix(1 0 0 1 -1.5 -1.5)"  >
<path style="stroke: none; stroke-width: 1; stroke-dasharray: none; stroke-linecap: butt; stroke-dashoffset: 0; stroke-linejoin: miter; stroke-miterlimit: 4; fill: #0055ff; fill-rule: nonzero; opacity: 1;" vector-effect="non-scaling-stroke"  transform=" translate(-12.5, -12.5)" d="M 12.5 21 C 7.805579626438257 21 4 17.194420373561744 4 12.5 C 4 7.805579626438256 7.805579626438257 4 12.5 4 C 17.194420373561744 4 21 7.805579626438255 21 12.499999999999998 C 21 17.19442037356174 17.194420373561748 21 12.500000000000002 21 z M 12.5 20 C 16.64213562373095 20 20 16.64213562373095 20 12.5 C 20 8.357864376269049 16.64213562373095 5 12.5 5 C 8.357864376269049 5 5 8.357864376269049 5 12.5 C 5 16.64213562373095 8.357864376269049 20 12.5 20 z" stroke-linecap="round" />
</g>
		<g transform="matrix(1 0 0 1 -1.5 -1.5)"  >
<path style="stroke: none; stroke-width: 1; stroke-dasharray: none; stroke-linecap: butt; stroke-dashoffset: 0; stroke-linejoin: miter; stroke-miterlimit: 4; fill: #0055ff; fill-rule: nonzero; opacity: 1;" vector-effect="non-scaling-stroke"  transform=" translate(-12.5, -12.5)" d="M 9 13 L 16 13 L 16 12 L 9 12 z" stroke-linecap="round" />
</g>
		<g transform="matrix(1 0 0 1 -1.5 -1.5)"  >
<path style="stroke: none; stroke-width: 1; stroke-dasharray: none; stroke-linecap: butt; stroke-dashoffset: 0; stroke-linejoin: miter; stroke-miterlimit: 4; fill: #0055ff; fill-rule: nonzero; opacity: 1;" vector-effect="non-scaling-stroke"  transform=" translate(-12.5, -12.5)" d="M 13 16 L 13 9 L 12 9 L 12 16 z" stroke-linecap="round" />
</g>
</g>
</g>
</svg>