<!-- by TradingView --><svg width="18" height="18" viewBox="0 0 18 18" xmlns="http://www.w3.org/2000/svg"><path fill="url(#alv1bsv3r)" d="M0 0h18v18H0z"/><path d="m4 11 .8 1h2.4l.8-1V7l-.8-1H4.8L4 7v4Zm1 0V7.75L6.64 11H5Zm.36-4H7v3.25L5.36 7ZM10 11l.8 1h2.4l.8-1V7l-.8-1h-2.4L10 7v4Zm1 0V7.75L12.64 11H11Zm.36-4H13v3.25L11.36 7Z" fill="#fff"/><defs><linearGradient id="alv1bsv3r" x1="3.35" y1="3.12" x2="21.9" y2="24.43" gradientUnits="userSpaceOnUse"><stop stop-color="#1A1E21"/><stop offset="1" stop-color="#06060A"/></linearGradient></defs></svg>