<!-- by TradingView --><svg width="18" height="18" viewBox="0 0 18 18" xmlns="http://www.w3.org/2000/svg"><path fill="#F0F3FA" d="M0 0h18v18H0z"/><path d="M12.96 7.77c-.04 0-.06-.01-.07-.06-.17-.99-3.07 1.5-4.68 3.64 0 .22.06.37-.2.45-.79.24-1.43.58-2.28.6-.32.01-.67.04-1.05.07-.1.01-.2 0-.3-.02-.13-.03-.2-.18-.08-.27.12-.09.3-.06.24-.27a2.88 2.88 0 0 1-.13-.7.47.47 0 0 0-.05-.2 1.88 1.88 0 0 1-.3-.83c-.02-.12-.06-.25-.06-.37a4 4 0 0 1 .4-1.83.5.5 0 0 0 .05-.27c-.18-1.46.67-2.15 1.58-3.07a2.52 2.52 0 0 1 1.35-.62c.91-.04 1.72-.02 2.44.07a8.14 8.14 0 0 1 .97.23l1.1.45.32.16c.35.22.84.43 1.03.82.16.35.3.77.26 1.15-.05.38-.15.68-.54.87Z" fill="#6B4238"/><path d="m11.63 6.46-.1-.02-.03.01-.18.24c0-.1-.02-.16.01-.26a.72.72 0 0 0 0-.53c-.03-.1-.03-.2-.07-.27a2.43 2.43 0 0 0-.17-.3v-.01h.04c.43.12.4.63.38 1 0 .07.04.11.12.14ZM7.23 7.67c0 .16.02.32.06.48a.56.56 0 0 1-.22-.21.6.6 0 0 1-.05-.22c-.03-.2-.05-.43-.02-.63l.03-.27c0-.14-.03-.37.04-.49a5.01 5.01 0 0 1 .32-.51c.04-.08.11-.13.22-.15.03 0 .06.02.05.05l-.07.21c0 .01 0 .02-.02.02-.17.06-.16.16-.24.28a.59.59 0 0 0-.14.25c-.04.4-.12.82-.04 1.2v.02l.02.01c.04.02.05 0 .06-.04Z" fill="#91645A"/><path d="M12.41 7.44c.05.06.31.63.37.68.03.03.05.04.09.03l.02.01.02.27c-.02.48-.1.96-.24 1.42-.02.04 0 .06 0 .09a.11.11 0 0 0-.1.08c-.17.42-.46.77-.85 1.03a4.31 4.31 0 0 1-1.32.6.69.69 0 0 0-.28-.01c-.3.08-.9.04-1.22-.07l-.69-.22c-.29-.14-.51-.24-.67-.29-.85-.27-1.5-.51-1.98-.72a2 2 0 0 1-1.01-.86c-.05-.12.18-.34.26-.4L5 9.04l1.32-.38a.43.43 0 0 0 .16-.08c3.27.46 3.33-1.97 5.93-1.14Z" fill="#C5B99F"/><path d="M11.32 6.69c.22-.29.98.04.98.08 0 .03.04.05.07.04l.1-.07h.04c.02.07.07.12.13.15s.02.11-.04.1c-.02-.01-.1-.11-.1-.06 0 .03-.04.16.02.16l.25-.02c.02 0 .04.03.02.05-.15.19-.08.3.08.4l.02.04v.15c.01.05.03.07.07.06l-.05.66-.02-.27c0-.03-.16-.01-.28-.18a.54.54 0 0 1-.1-.36c-.26-.14-.42-.18-.16.06a.22.22 0 0 1-.1.1c-.48.21-.87.48-1.16 1.1a.19.19 0 0 1-.08.01c-.02 0-.03 0-.03-.02a6.96 6.96 0 0 0-.06-.38c-.02-.1.01-.23-.06-.33-.01-.02-.06-.02-.08 0-.07.1-.12.2-.14.31a11.88 11.88 0 0 0-.11.6 7.2 7.2 0 0 0-.64-.01c-.15 0-.37.05-.54.06-.97-.43-1.8.69-.78 1.06.15.14.2.4.5.27s.98-.54 1.37-.53h.04c.18-.1.67.17.67.4 0 .21-.05.42-.17.61a.33.33 0 0 1-.12.13c-.18.1-.46.07-.7.05-.28-.03-.62.02-.9.02l-.16.01c-.06.02-.16.03-.29.03-.37.02-.69-.42-.95-.59a1.61 1.61 0 0 1-.17-.12c-.26-.22-.25-.27-.38-.54a.53.53 0 0 1-.03-.27c.02-.17-.32-.67-.46-.33v.04c.04.1.25.73 0 .76-.52.04-.99-.19-1.4-.44-.1-.06-.16-.11-.15-.22 0-.04.02-.07.05-.1.1-.07.26-.1.38-.14.22-.07.41.04.63-.07.07-.03.11-.08.14-.14a.68.68 0 0 0 .01-.43c.16-.12.16-.23.2-.38.04-.1.1-.1.2-.1l.37.16c.05.03.04-.09.04-.1a1.81 1.81 0 0 1-.06-.49c.03-.26.12-.5.28-.72h.04c.12.11.16.27.24.4.02.02.06.03.08 0l.02-.02c.03-.1.06-.18.06-.3.03-.5.44-.58.4-.12-.01.04-.08.06-.11.02l-.07-.08c-.09-.1-.17.25.1.29.16.02.35-.03.44-.18.1-.16-.01-.39.1-.53h.03c.16.12.26.27.3.46l.03.04c.03.04.1.05.14.03a.15.15 0 0 0 .08-.1c0-.01 0-.02-.02-.02l-.09.01-.02-.01v-.01c0-.14.02-.56.14-.65.06-.04.13-.04.22 0l.02.03c.01.12 0 .25.06.36.06.12.14.23.23.34.08.1-.02.22-.14.14l-.15-.1c-.01 0-.03 0-.03.03 0 .07.05.12.15.16.18.06.36.06.51 0a.28.28 0 0 0 .16-.13c.1-.17.05-.41 0-.59 0-.03.04-.04.06-.02.08.1.33.44.47.45.02 0 .03-.01.02-.03-.05-.24-.08-.5-.08-.74 0-.02.02-.03.03-.02.09.06.05.24.14.28h.02l.04-.07.02-.01c.01 0 .03 0 .03.02v.45l.02.03c.03.03.08.03.1-.01l.02-.06Z" fill="#CDC8AA"/><path d="m5 9.04-.2.04a.46.46 0 0 1-.06-.2c0-.22.03-.45.09-.69.02-.09.03-.3.03-.62 0-.06.04-.15.1-.27l.1-.15c.06-.1.11-.2.13-.33a.6.6 0 0 1 .05-.13c.04-.07.04-.16.11-.22.06-.05.14-.06.19-.15v-.04c0-.03.06-.08.09-.04v.02c0 .1-.01.22-.04.33-.1.43-.18.86-.24 1.3-.05.3-.16.6-.34.88-.07.11-.07.2-.01.27Z" fill="#91645A"/><path d="M12.51 7.62c0 .06-.02.1-.06.1-.03 0-.06-.01-.1-.04-.33-.23-.67-.21-1.08-.17-.05 0-.22-.06-.15-.12.22-.2.67-.17.94-.09.18.06.33.16.45.32ZM12.25 7.79c.04.04.05.1 0 .14v.03c.09.13.29.45.27.6 0 .02-.02.02-.07.01l-.07-.1h-.02c-.03.28-.04.53-.15.76l-.21.34v.02l.08.02h.03l.02.03v.03l-.01.02c-.07.04-.09.03-.17 0a2.6 2.6 0 0 1-.65-.28c-.18-.12-.19-.35-.21-.53-.03-.36.08-.67.35-.92.1-.1.23-.14.37-.13h.02v-.01a.49.49 0 0 0-.4.1.35.35 0 0 1-.2.09h-.02l-.02-.02v-.03l.01-.02a.87.87 0 0 1 1.05-.15Z" fill="#0E0E0D"/><path d="M6.88 8.1c-.1 0-.16 0-.2.1-.04.15-.04.26-.2.38a.43.43 0 0 1-.16.08c0-.04-.05-.08-.13-.1-.02-.01-.02-.02-.02-.03.04-.09.05-.17.12-.24a2 2 0 0 0 .11-.14.26.26 0 0 0 .05-.14v-.18c0-.03.05-.04.07-.02l.23.27h.02l.11.01Z" fill="#91645A"/><path d="M9.35 9.12a.9.9 0 0 1-.39.93c-.16.12-.41.13-.61.17h-.04c-.07-.05-.12-.1-.13-.17l.15-.01v-.01c-.46-.23-.57-.49-.67-.93 0-.02-.02-.02-.03 0a.53.53 0 0 0-.11.2c0 .04-.02.06-.04.07a.05.05 0 0 1-.05 0l-.02-.02v-.02c0-.28.12-.5.33-.65.2-.14.37-.29.6-.34.59-.11.96.25 1.01.78Z" fill="#0E0E0D"/><path d="M12.45 8.57c0 .26-.07.48-.18.67-.03.04-.05.03-.06 0 .1-.24.12-.49.15-.76 0-.02.01-.02.02 0l.07.1Z" fill="#DFDFDF"/><path d="M8.18 10.05a1.35 1.35 0 0 1-.66-.74.53.53 0 0 1 .11-.22h.03c.1.45.21.7.67.94v.01l-.15.01Z" fill="#F7F7F7"/><path d="M12.67 9.94c.24.26.5 1.07.58 1.36.05.2.12.38.2.56.02.07.23.26.28.1l.06-.17a.08.08 0 0 1 .08-.05c.1 0 .14.11.13.19-.06.26-.25.38-.55.34a1.74 1.74 0 0 1-.28-.08h-.02c-.06.05-.11.12-.2.13-.23.03-.62.09-.85.05l-.19-.03-.6-.19a11.4 11.4 0 0 0-.43-.24c-.05-.03-.15-.04-.15.04a.27.27 0 0 0-.12-.16.48.48 0 0 1-.18-.15c.46-.13.89-.32 1.3-.6.38-.25.67-.6.84-1.02a.11.11 0 0 1 .1-.08Z" fill="#6B4238"/><path d="m10.4 11.66.04.33c0 .07.06.1.16.08a.56.56 0 0 0-.05.26c0 .13 0 .2-.02.24-.13.34-.8.26-1.09.23a.79.79 0 0 1-.3-.1.93.93 0 0 1-.44-.6c.16-.02.23-.1.23-.23l-.03-.3c.13.04.27.06.41.06.07 0 .13 0 .2.02.2.04.4.04.61-.01.06-.02.15 0 .28.02Z" fill="#ADA68A"/><path d="M10.43 11.64c.04.05.1.1.18.15.06.03.1.08.12.16l.13.1c.02.02.01.03 0 .03h-.26c-.1 0-.16-.02-.16-.09a5.45 5.45 0 0 0-.04-.33l.03-.02Z" fill="#292717"/><path d="M11.31 12.15c0 .03-.01.05-.03.08l-.01.03c.04.58.06 1.16.06 1.74H8.09a5.1 5.1 0 0 0 0-1.12c-.02-.2-.08-.4-.14-.6-.01-.05 0-.08.03-.11v-.02h-.04c.26-.1.5-.11.76-.06.06.27.2.47.44.61.08.05.18.08.3.1.29.03.96.11 1.1-.23a.83.83 0 0 0 0-.24c0-.1.03-.19.06-.26h.25c.02 0 .03 0 .01-.01l-.13-.11c0-.04.02-.06.07-.06a11.4 11.4 0 0 1 .51.27Z" fill="#DFDFDF"/><path d="M7.94 12.14h.03c.02 0 .02.02 0 .03-.02.03-.03.06-.02.11.06.2.12.4.15.6.04.37.04.74 0 1.12H6.75c-.02 0-.02 0-.02-.02.07-.5.16-.92.38-1.32.2-.36.48-.4.82-.52ZM11.31 12.15l.6.19c.2.27.32.46.35.57.13.35.24.7.34 1.05 0 .03 0 .04-.03.04h-1.24a20.1 20.1 0 0 0-.05-1.77.16.16 0 0 0 .03-.08Z" fill="#BBB599"/><path d="M12.26 5.48c.13.14.22.24.22.4a18.72 18.72 0 0 0 .02.68c-.01.05-.04.08-.08.08a.05.05 0 0 1-.04-.01.05.05 0 0 1-.01-.04v-.38c0-.07-.04-.12-.04-.18-.02-.34-.24-.53-.5-.75v-.04h.01c.12-.04.36.16.42.24Z" fill="#91645A"/><path d="M7.79 7.6c.35-.22.79-.09 1.13.11.04.03.04.08 0 .1-.04.02-.09.03-.15.01-.27-.05-.51-.12-.8-.08-.23.04-.38.3-.45.49l-.03.03a.09.09 0 0 1-.04.02c-.04 0-.06-.02-.06-.06 0-.27.16-.47.4-.62ZM7.8 8.43c.34-.28.82-.36 1.25-.31.04 0 .08.01.1.03.04.03.01.1-.04.1a1.78 1.78 0 0 0-1.15.2c-.05.03-.1.07-.15.03l-.01-.01a.03.03 0 0 1 0-.03v-.01Z" fill="#0E0E0D"/><path d="M11.53 8.26c0 .1.06.2.12.19.07 0 .12-.1.1-.2 0-.1-.06-.2-.12-.19-.06 0-.11.1-.1.2Z" fill="#F7F7F7"/><path d="M12.15 9.03v.03l-.03.01h-.03l-.02-.02v-.03a2.81 2.81 0 0 0 .16-.84v.01a1.89 1.89 0 0 1-.08.84ZM11.5 9.38c-.07-.04-.22-.14-.23-.23a2.38 2.38 0 0 1 0-.55h.02v.01c.05.18.15.65.4.69.08 0 .16-.06.23.02.03.04.03.08 0 .12-.1.17-.3 0-.42-.06Z" fill="#525B6F"/><path d="M8.09 8.68c.08-.06.17-.07.27-.1h.01l.01.02c.02.06.01.11-.02.16l-.01.02h-.03a.42.42 0 0 1-.24-.08.02.02 0 0 1 0-.02h.01Z" fill="#F7F7F7"/><path d="M8.05 9.66a.4.4 0 0 1-.1-.15c-.08-.19-.13-.4-.13-.62l.01-.02.03-.01h.02l.02.02c.06.24.23.6.45.72.12.07.26.08.4.04.02 0 .03 0 .04.02 0 .08.04.15.1.2.02.02.02.03 0 .04-.08.06-.19.1-.3.1h-.03c-.14-.1-.31-.15-.43-.27l-.08-.07ZM9.16 9.05c.06.14.06.3.02.45 0 .02-.01.02-.02 0l-.02-.06a.05.05 0 0 0-.02-.03c-.05-.03-.06-.06-.04-.1l.06-.26c0-.02 0-.02.02 0Z" fill="#525B6F"/><path d="M8.92 9.62c0 .07.04.12.07.11.03 0 .06-.05.05-.12 0-.06-.04-.11-.07-.1-.04 0-.06.05-.05.11Z" fill="#DFDFDF"/><path d="M10.85 12.33v.01a.08.08 0 0 1-.06.03l-.06-.01a.08.08 0 0 1-.04-.06.07.07 0 0 1 .02-.06h.02l.12.09ZM8.57 12.44l.1-.01a.04.04 0 0 1 .04 0h.01v.02l.01.03v.02h-.01a.03.03 0 0 1-.03 0c-.05-.02-.09 0-.12.04l-.01.02v.02l.03.02h.02l.03-.01h.04l.18.15c.05.03.05.06.01.1-.04.04-.08.03-.11-.02a9.22 9.22 0 0 1-.14-.1h.1l.02-.02v-.03a.05.05 0 0 0-.02-.02.12.12 0 0 0-.12 0h-.03c-.06-.03-.08-.08-.07-.15a.04.04 0 0 0 0-.03.17.17 0 0 1-.04-.15c0-.02.02-.03.04-.03h.15l.02.01c0 .06-.02.1-.08.1h-.03v.04Z" fill="#292717"/><path d="m10.36 12.97.03.08c0 .01 0 .02-.02.02h-.06l-.02-.01c-.04-.13.08-.12.14-.18a.39.39 0 0 0 .07-.12h.01l.01-.01a.03.03 0 0 1 .03 0l.1.11-.01.04-.02.01h-.03l-.05-.06a.02.02 0 0 0-.03 0c-.05.05-.04.09.02.11.02.01.02.02 0 .03h-.04l-.1-.05h-.02v.03ZM10.13 13.01l.02.1v.01l-.01.01-.03.02c-.02 0-.03 0-.04-.02l-.02-.05h-.02l-.01.05-.01.02h-.02l-.26.06c-.24.04-.23-.3.09-.24.02 0 .03.01.03.02v.04l-.02.01h-.15l-.02.02-.01.01a.04.04 0 0 0 0 .04l.04.03v.01a.03.03 0 0 0 .04 0v-.01c.04-.06.08-.07.14-.03a.02.02 0 0 0 .03 0v-.01c.01-.04.03-.06.07-.07a.1.1 0 0 0 .02-.02.43.43 0 0 1 .19-.08l.03.01.05.13c.01.02 0 .03-.01.03H10.19a.02.02 0 0 1 0-.02c0-.04 0-.07-.04-.09a.02.02 0 0 0-.02 0v.02Z" fill="#525B6F"/><path d="M9.22 13.1h-.05l-.01-.01a.02.02 0 0 1-.01-.02l.06-.1.03-.02h.05v.03c-.05.02-.07.05-.06.1l-.01.02Z" fill="#292717"/></svg>