<!-- by TradingView --><svg width="18" height="18" viewBox="0 0 18 18" xmlns="http://www.w3.org/2000/svg"><path fill="#F0F3FA" d="M0 0h18v18H0z"/><path d="M4 6.26A2.26 2.26 0 0 1 6.26 4h5.48A2.26 2.26 0 0 1 14 6.26v5.48A2.26 2.26 0 0 1 11.74 14H6.26A2.26 2.26 0 0 1 4 11.74V6.26Z" fill="#003358"/><path d="M12 6.65c0-.36.22-.65.5-.65s.5.3.5.65v4.7c0 .36-.22.65-.5.65s-.5-.3-.5-.65v-4.7Z" fill="#00D0FF"/><ellipse cx="7.5" cy="11" rx=".5" ry="1" fill="#00D0FF"/><path d="M10.44 12c.42 0 .69-.42.5-.78L8.4 6.52c-.38-.7-1.44-.7-1.82 0l-2.53 4.7c-.19.36.08.78.5.78.2 0 .39-.1.49-.28l2.31-4.33c.06-.1.22-.1.28 0l2.31 4.33c.1.17.29.28.5.28Z" fill="#00D0FF"/></svg>