<!-- by TradingView --><svg width="18" height="18" viewBox="0 0 18 18" xmlns="http://www.w3.org/2000/svg"><path fill="#4C964F" d="M0 0h18v18H0z"/><path d="M4.7 8.32c.56-2.11 3.18-2.88 4.42-3 3.44 0 3.03 1.8 3.3 2.16.23.29.1 1.08 0 1.44.14.12.45.4.56.6.13.24-.55.48-.55.84 0 .29-.19.76-.28.96.28.16.91.65 1.24 1.32.41.84.28 1.08-.96 1.32-1 .2-1.8-.4-2.07-.72.1.29-.32.44-.55.48-.74 0-2.6-.05-4.14-.24-1.54-.19-1.74-1.2-1.65-1.68 0-.28.14-1.37.69-3.48Z" fill="#3A7F3D"/><path fill-rule="evenodd" d="M10.43 13.32a2.3 2.3 0 0 0 2 .64c1.24-.24 1.37-.48.96-1.32a3.48 3.48 0 0 0-1.24-1.32c.1-.2.28-.67.28-.96 0-.18.17-.33.32-.46.16-.14.3-.26.23-.38-.11-.2-.42-.48-.55-.6.09-.36.22-1.15 0-1.44a.98.98 0 0 1-.12-.34c-.14-.64-.4-1.82-3.2-1.82-1.23.12-3.85.89-4.4 3-.55 2.11-.7 3.2-.7 3.48-.08.48.12 1.49 1.66 1.68 1.55.2 3.4.24 4.14.24.2-.03.56-.16.57-.38 0-.03 0-.06-.02-.1l.07.08Zm-.63.35c.11-.02.27-.06.38-.13.05-.04.1-.08.12-.13a.18.18 0 0 0 0-.15l.1-.05c.14.16.4.38.75.54.35.16.78.26 1.26.17.31-.06.55-.12.73-.2a.72.72 0 0 0 .34-.22c.06-.08.08-.19.05-.32-.02-.14-.09-.31-.19-.52a3.43 3.43 0 0 0-1.22-1.3l-.04-.02.02-.04.17-.44c.06-.18.1-.36.1-.5 0-.1.05-.2.12-.28.06-.08.15-.15.22-.22l.2-.18c.03-.06.04-.1.02-.14a4.75 4.75 0 0 0-.54-.59l-.02-.01V8.9a4.19 4.19 0 0 0 .1-1.13.6.6 0 0 0-.09-.27.6.6 0 0 1-.09-.21l-.03-.16a1.95 1.95 0 0 0-.34-.85c-.35-.47-1.09-.92-2.8-.92-.61.06-1.57.28-2.44.74a3.62 3.62 0 0 0-1.92 2.22c-.55 2.11-.69 3.2-.69 3.47v.01c-.04.23-.01.6.21.92.22.32.64.61 1.4.7 1.54.2 3.38.24 4.12.24Z" fill="#0C0B0C"/><path d="M6.77 9.76c-.1-.29.23-.28.42-.24.83.6 3.03.6 4.13.6s1.38-.6 1.38-.84.41.12.41.36c0 .2-.36.48-.55.6a.5.5 0 0 1 0 .48c-.13.24-1.51.36-2.9.24-1.37-.12-2.75-.84-2.89-1.2Z" fill="#942A12"/><path d="m12.5 10.23.03-.03a2.45 2.45 0 0 0 .48-.42c.03-.06.05-.1.05-.14 0-.05-.02-.1-.06-.17a.7.7 0 0 0-.2-.2.13.13 0 0 0-.04-.02v.03c0 .13-.08.36-.3.55-.21.19-.57.34-1.14.34-.55 0-1.38 0-2.17-.08A7.9 7.9 0 0 1 8 9.91c-.34-.08-.63-.2-.85-.34a.62.62 0 0 0-.27 0c-.04 0-.06.02-.07.05-.01.02-.02.06 0 .13.04.07.14.18.3.3a6.07 6.07 0 0 0 2.55.87c.7.05 1.38.05 1.9 0a4.25 4.25 0 0 0 .86-.16c.05-.02.07-.04.08-.06a.47.47 0 0 0 0-.44l-.02-.03Zm-5.31-.7c.83.6 3.03.6 4.13.6s1.38-.6 1.38-.85c0-.24.41.12.41.36 0 .2-.36.48-.55.6a.5.5 0 0 1 0 .48c-.13.24-1.51.36-2.9.24-1.37-.12-2.75-.84-2.89-1.2-.1-.29.23-.28.42-.24Z" fill="#0C0B0C"/><path d="M9.67 7.84c-.69 0-2.07-.12-2.07.12-.14.72 2.07.6 2.48.6.42 0 .3-.72-.41-.72ZM11.6 7.96c.55 0 .87.16.96.24.11.07.05.27 0 .36-.13.04-.52.1-.96 0-.55-.12-.97.12-.97-.24s.28-.36.97-.36Z" fill="#F0F0F0"/><path d="M7.66 7.96c-.02.09 0 .15.04.2.04.06.1.11.2.16.18.08.45.13.74.16a10.84 10.84 0 0 0 1.44.03c.08 0 .13-.03.16-.08a.26.26 0 0 0 0-.21c-.06-.17-.24-.33-.57-.33a18.78 18.78 0 0 1-.62-.02l-.67-.01a3.7 3.7 0 0 0-.69.07c-.03.01-.03.03-.03.03Zm4.87.28c-.08-.07-.39-.23-.93-.23a10.27 10.27 0 0 0-.72.04.25.25 0 0 0-.15.09.3.3 0 0 0-.04.18c0 .08.02.12.05.13.03.02.08.03.17.03h.12c.16 0 .36-.01.58.03.4.1.77.05.91.01l.05-.15c0-.07-.01-.11-.04-.13Zm.03.32c-.13.04-.52.1-.96 0-.21-.04-.4-.04-.56-.03-.25 0-.4.01-.4-.2 0-.37.27-.37.96-.37.55 0 .87.16.96.24.11.07.05.27 0 .36ZM9.1 7.83l.58.01c.7 0 .83.72.41.72h-.16c-.65.02-2.44.05-2.32-.6 0-.18.8-.16 1.5-.13Z" fill="#0C0B0C"/><path d="M8.15 7.96c0-.1.28-.12.42-.12h.55c.41 0 .55.72-.28.72-.82 0-.69-.48-.69-.6Z" fill="#0C0B0C"/><path d="M7.74 4.24c-1.1.1-1.65 1.64-1.8 2.28.51.2 1.72.38 2.49.48.96.12 2.62-.36 3.3-.24.7.12 1.8.84 2.21.48.33-.29-.82-.65-1.51-.8V5.1c0-.6-.97-1.11-1.93-1.11-.97 0-1.38.24-2.07.24h-.69Z" fill="#CA3639"/><path fill-rule="evenodd" d="M12.43 6.43V5.11c0-.6-.97-1.11-1.93-1.11-.53 0-.89.07-1.22.14-.28.05-.54.1-.85.1h-.69c-1.1.1-1.65 1.64-1.8 2.28.51.2 1.72.38 2.49.48.5.06 1.2-.04 1.83-.13.6-.09 1.15-.17 1.48-.1.24.03.53.15.83.27.54.21 1.1.43 1.37.2.33-.29-.82-.65-1.51-.8ZM6 6.5c.25.1.65.18 1.09.26a7.32 7.32 0 0 0 3.08.08h.08c.28-.05.55-.09.8-.11.27-.03.5-.04.69 0 .18.02.38.1.59.17l.25.1.37.15c.21.07.4.13.57.15.16.01.29 0 .37-.08.04-.03.05-.06.04-.08 0-.02 0-.05-.04-.08-.07-.07-.2-.15-.36-.22a7.18 7.18 0 0 0-1.13-.35h-.04V5.1c0-.27-.22-.54-.58-.74-.35-.2-.82-.32-1.3-.32-.47 0-.81.06-1.12.12l-.08.01c-.28.06-.54.1-.86.1h-.69c-.52.05-.92.44-1.2.92-.29.45-.46.97-.53 1.3Z" fill="#0C0B0C"/><path d="M8.27 6.49a3.54 3.54 0 0 1-1.24 0l-.17-.03-.08-.02a1.04 1.04 0 0 0-.14-.02v-.04a1.09 1.09 0 0 1 .23.03l.17.03a3.49 3.49 0 0 0 1.22 0l.53-.1.15-.02c.48-.1 1-.18 1.42-.18.5 0 1.02.09 1.48.16l.45.08v.04l-.46-.07c-.46-.08-.98-.17-1.47-.17a8.36 8.36 0 0 0-1.55.21l-.54.1Zm1.88.62a.5.5 0 0 0-.09-.1l.04-.03.1.1.05.15c.07.07.15.18.17.33.03.15 0 .34-.18.54l-.04-.03c.16-.19.2-.36.17-.5a.54.54 0 0 0-.16-.3 5.84 5.84 0 0 0-2.91.24c.2-.05.45-.1.71-.13a4.94 4.94 0 0 1 2.18.16c.02 0 .03.02.04.03l.02.03h-.06l-.03-.02a5.04 5.04 0 0 0-2.85-.02c.98-.06 2.23.06 2.78.14l-.01.04c-.6-.07-2.01-.2-3-.12 0 .08.05.15.1.2.05.06.12.1.16.12l-.03.04a.58.58 0 0 1-.18-.13.37.37 0 0 1-.1-.25v-.02c.56-.29 1.21-.41 1.8-.44.55-.04 1.05.01 1.36.07a.29.29 0 0 0-.04-.1Zm.76.5c.2-.2.58-.47 1.1-.47V7.1c-.67 0-1.12.4-1.26.6l-.05.08.08-.04c.14-.06.38-.13.65-.15.27-.02.57.01.84.15l.03-.04c-.28-.15-.6-.18-.88-.16a2.3 2.3 0 0 0-.46.09c.6-.34 1.16-.27 1.4-.16l.03-.05c-.27-.11-.86-.19-1.48.18ZM9.45 8.92c.32-.02.6-.1.76-.15l.03.04c-.56.58-1.44.8-1.8.85l-.01-.05a3.25 3.25 0 0 0 1.7-.76c-.17.05-.41.1-.68.12-.32.02-.7-.01-1.03-.16l.02-.04c.33.14.69.17 1.01.15Zm1.16-.12.05-.02c.04.05.17.17.37.28.19.1.44.19.7.19.26 0 .63-.08.63-.33h.06c0 .28-.4.38-.68.38a1.7 1.7 0 0 1-1.04-.4c.04.08.11.2.2.3.12.16.28.32.44.41l-.03.04c-.17-.1-.33-.26-.46-.42a1.32 1.32 0 0 1-.24-.43Zm-3.87.55c.15-.08.33-.1.45-.1v.05a.99.99 0 0 0-.42.09c-.14.07-.24.18-.24.36h-.06c0-.2.12-.33.27-.4Zm2.97 1.17a9.83 9.83 0 0 1-2.26-.5l.02-.05c.49.18 1.32.4 2.25.5.93.1 1.96.07 2.83-.26l.02.04c-.88.34-1.92.37-2.86.27Zm1.56.8c.24-.06.55-.08.88-.03v.05c-.31-.05-.6-.03-.83.02.04.06.09.15.09.24a.2.2 0 0 1-.05.13.29.29 0 0 1-.17.09h-.14v-.05h.13c.07-.01.11-.04.14-.07a.15.15 0 0 0 .03-.1.45.45 0 0 0-.08-.23c-.17.05-.3.11-.39.18-.08.08-.11.16-.08.23.03.09.08.13.13.14.05.02.12.01.2 0a3 3 0 0 0 .24-.05.45.45 0 0 1 .24.02c.15.06.22.16.22.28 0 .11-.07.24-.21.36l-.18.14-.02.02-.14.12c-.04.04-.05.06-.04.08 0 .03.03.05.1.08a.4.4 0 0 0 .2.02l.25-.06c.19-.06.37-.14.48-.2l.03.04a1.3 1.3 0 0 0-.34.25c-.04.04-.06.08-.05.11 0 .03.03.06.11.08.24.07.45.01.57-.05a.9.9 0 0 1 .1-.07l.03.04a.54.54 0 0 1-.1.06.47.47 0 0 0-.1.1c-.02.04-.03.07-.02.1 0 .01.03.04.08.06.1.04.2.04.3 0a.66.66 0 0 0 .08-.03c.04-.04.1-.07.14-.09l.03.04a.69.69 0 0 1-.14.1l-.02.05c0 .02 0 .04.03.06.04.04.11.05.19.04.07 0 .14-.03.19-.05l.02.04a.72.72 0 0 1-.2.06c-.09 0-.18 0-.24-.06-.03-.03-.05-.06-.05-.09v-.03l-.01.01a.48.48 0 0 1-.35 0c-.06-.03-.1-.07-.1-.1-.01-.05 0-.09.02-.13l.02-.02a.83.83 0 0 1-.49 0c-.08-.02-.13-.06-.14-.11-.01-.05.02-.1.06-.15a.7.7 0 0 1 .08-.08 2.67 2.67 0 0 1-.46.13c-.09 0-.17 0-.23-.03-.07-.03-.11-.06-.13-.1 0-.05.02-.09.05-.13l.15-.13.02-.01.18-.14c.13-.12.2-.24.2-.33a.2.2 0 0 0-.03-.11c-.1.08-.33.28-.66.46.04.11.03.2-.02.25l-.04-.03c.04-.04.05-.11 0-.22-.04-.1-.12-.22-.28-.35a1.9 1.9 0 0 0-.7-.39.5.5 0 0 0-.26-.01.13.13 0 0 0-.07.05.16.16 0 0 0-.02.1c0 .14.02.24.06.31.04.08.1.12.15.16l.09.05h.02l.07.04c.06.04.12.08.16.14.09.16.13.29.15.4.02.1.01.18-.02.22l-.05-.02c.02-.03.03-.1.02-.2a1.2 1.2 0 0 0-.15-.38.32.32 0 0 0-.14-.12 1.65 1.65 0 0 0-.09-.04 1.06 1.06 0 0 1-.1-.05.45.45 0 0 1-.16-.18.72.72 0 0 1-.07-.34.2.2 0 0 1 .04-.12.19.19 0 0 1 .1-.07.56.56 0 0 1 .3.02c.22.06.5.21.71.4.15.12.24.24.28.34.33-.19.56-.39.64-.46a.4.4 0 0 0-.12-.09.39.39 0 0 0-.21-.01l-.12.02h-.03l-.09.03a.49.49 0 0 1-.23 0c-.07-.02-.13-.08-.16-.17-.04-.1 0-.2.1-.28.09-.08.24-.15.42-.2ZM11.19 8.2c0-.2.09-.24.13-.24h.28c.41 0 .41.24.41.36s-.14.24-.41.24c-.28 0-.41-.12-.41-.36Z" fill="#0C0B0C"/><path d="M9.26 8.2c0 .07-.07.12-.14.12-.08 0-.14-.05-.14-.12 0-.07.06-.12.14-.12.07 0 .14.05.14.12ZM8.7 8.05c0 .07-.05.12-.13.12s-.14-.05-.14-.12c0-.06.06-.12.14-.12.08 0 .14.06.14.12ZM8.7 8.35c0 .06-.05.12-.13.12s-.14-.06-.14-.12c0-.07.06-.12.14-.12.08 0 .14.05.14.12ZM11.89 8.25c0 .07-.06.12-.14.12-.07 0-.14-.05-.14-.12 0-.06.07-.12.14-.12.08 0 .14.06.14.12ZM11.5 8.16c0 .07-.06.12-.14.12-.08 0-.14-.05-.14-.12 0-.06.06-.12.14-.12.08 0 .14.06.14.12Z" fill="#D9D9D9"/></svg>