<!-- by TradingView --><svg width="18" height="18" viewBox="0 0 18 18" xmlns="http://www.w3.org/2000/svg"><path fill="#FFA038" d="M0 0h18v18H0z"/><path d="M15 9A6 6 0 1 1 3 9a6 6 0 0 1 12 0Z" fill="#010101"/><path d="M9.02 3.22a.73.73 0 0 0-.01.22c.08.47.1.94.14 1.41.01.06.03.14.08.23a3.24 3.24 0 0 0-.63 0c-.03-.02 0-.06.12-.1a.03.03 0 0 0 .01-.03 1.67 1.67 0 0 0-.05-.34l-.09-.5a5.88 5.88 0 0 0-.12-.56c0-.05-.03-.15-.08-.3l.63-.03Z" fill="#FFCB40"/><path d="M10 3.3c0 .18 0 .35-.02.53a22.36 22.36 0 0 0-.1 1.4 5.27 5.27 0 0 0-.65-.15.66.66 0 0 1-.08-.23c-.03-.47-.06-.94-.14-1.41v-.22c.33 0 .65.03.99.09ZM8.4 3.25a2.9 2.9 0 0 1 .13.58l.06.28c.04.2.05.33.1.5a3.2 3.2 0 0 1 .04.34.03.03 0 0 1-.01.03c-.11.04-.15.08-.12.1l-.45.07.03-.05v-.02a1.5 1.5 0 0 1-.2-.4 421.3 421.3 0 0 1-.3-.97c-.03-.09-.04-.2-.04-.33.25-.06.5-.1.75-.13Z" fill="#FFA038"/><path d="m10.57 3.44-.04.19a4.65 4.65 0 0 1-.23 1.31c0 .06-.03.14-.04.22a.3.3 0 0 0 0 .08c.02.04.01.07 0 .09l-.38-.1a.33.33 0 0 1-.02-.13l.02-.22c.02-.35.06-.7.1-1.05.02-.18.02-.35.02-.52.19.03.38.07.57.13ZM7.64 3.38c0 .13.01.24.04.33a22.81 22.81 0 0 0 .3.96c.05.15.11.29.2.41v.02l-.03.05-.59.16c0-.1-.02-.15-.03-.19a220.12 220.12 0 0 1-.73-1.37.41.41 0 0 0-.07-.07c.3-.12.6-.22.9-.3Z" fill="#FFCB40"/><path d="M11.3 3.7c.02.08 0 .18-.03.27a15.39 15.39 0 0 0-.3.86l-.09.27-.12.28c0 .03-.02.04-.04.06l-.01.02c0 .02 0 .03.02.05a7.4 7.4 0 0 1-.48-.19c.02-.01.03-.04.02-.08a.3.3 0 0 1 0-.08 14.91 14.91 0 0 1 .16-.93 4.15 4.15 0 0 1 .1-.6l.04-.2c.25.08.5.16.73.27ZM6.73 3.69c.04.02.06.04.07.06a273.14 273.14 0 0 0 .73 1.38c.01.03.03.09.03.18l-.33.13c-.04.02-.07.01-.1-.01a1.24 1.24 0 0 1-.16-.1 15.1 15.1 0 0 1-.4-.48 3.16 3.16 0 0 0-.22-.31 1.7 1.7 0 0 1-.33-.49c.22-.14.46-.26.7-.36Z" fill="#FFA038"/><path d="M11.3 3.7c.3.13.6.29.88.47-.08 0-.14.03-.18.1l-.28.48a3.4 3.4 0 0 0-.2.33l-.14.3-.01.02-.06.04c-.13.05-.26.1-.37.17-.03.02-.06.02-.09 0a.9.9 0 0 0-.12-.1.08.08 0 0 1-.02-.05v-.02a14 14 0 0 1 .17-.34l.1-.27a8.56 8.56 0 0 0 .3-.86c.03-.1.04-.19.02-.27ZM6.01 4.05a1.7 1.7 0 0 0 .22.33l.12.16.21.3.14.19.27.3a4.95 4.95 0 0 1-.32-.18 2.18 2.18 0 0 0-.45-.18l-.3-.11-.01-.02a1.63 1.63 0 0 0-.24-.32 1.22 1.22 0 0 0-.17-.1 6 6 0 0 1 .53-.37Z" fill="#FFCB40"/><path d="M12.18 4.17c.34.22.65.48.93.77a.12.12 0 0 1-.07 0l-.12.01a.31.31 0 0 0-.1.03.93.93 0 0 1-.1.04c-.03 0-.05.02-.07.03a.34.34 0 0 0-.1.04l-.21.05a.89.89 0 0 0-.18.05l-.07.02-.06.01-.2.05-.35.11-.17.06.06-.04.01-.02.15-.3c.04-.09.1-.2.19-.33.1-.15.19-.32.28-.48.04-.07.1-.1.18-.1ZM5.48 4.41l.17.11a1.63 1.63 0 0 1 .25.34l.3.11a.77.77 0 0 1-.23-.06 1.04 1.04 0 0 0-.39-.07l-.1.01a.37.37 0 0 0-.17.29l-.09.4a5.53 5.53 0 0 0-.05.94l.06.44.04.19a50.23 50.23 0 0 1-.45-.25l-.68-.31c-.12-.06-.22-.11-.3-.17a5.8 5.8 0 0 1 1.64-1.97Z" fill="#FFA038"/><path d="M5.97 4.91a2.18 2.18 0 0 1 .68.23c.15.1.26.15.32.18l.15.1c.04.03.07.04.1.02l.34-.13.6-.16.44-.07h.14c.13-.02.29-.01.49 0 .21.04.43.09.65.16l.37.09a7.4 7.4 0 0 0 .48.18.9.9 0 0 1 .12.1c.03.02.06.02.09 0a1.89 1.89 0 0 1 .54-.23 3.16 3.16 0 0 1 .68-.19.89.89 0 0 1 .18-.05 2.06 2.06 0 0 0 .3-.07.57.57 0 0 1 .09-.02l.11-.04c.04-.02.09-.01.13-.04h.02l.05-.02.07-.01a.2.2 0 0 1 .04.05l.02.02.06.06-.15.01h-.05l-.05.01c-.08.01-.2.04-.37.1a4 4 0 0 1-.57.15l-.53.16c-.08.02-.23.08-.44.18-.07.03-.13.08-.2.1a.04.04 0 0 1-.05-.01.23.23 0 0 0-.06-.08.84.84 0 0 0-.29-.16A8.76 8.76 0 0 0 9 5.18a4.08 4.08 0 0 0-1.14.17l-.49.16-.2.08a.05.05 0 0 1-.04 0 20.52 20.52 0 0 0-.69-.4 1.01 1.01 0 0 0-.19-.07A5.68 5.68 0 0 1 5.78 5 5.84 5.84 0 0 0 5.53 5a.1.1 0 0 0-.05.04c-.07.17-.12.35-.14.53a6.8 6.8 0 0 0-.04.92l.06.46a2.5 2.5 0 0 0 .08.38l-.05.13-.04.25c-.04.22-.05.43-.03.64l.03.44c0 .12.03.21.04.31a3.21 3.21 0 0 0 .38 1.08c.01.03.01.05-.02.07-.03.02-.06.02-.08 0l-.11-.18-.02-.01-.16.3a3.7 3.7 0 0 0-.37 1.01l-.08.32a38.45 38.45 0 0 1-.18.8l-.02.16a.96.96 0 0 0-.02.22l-.12-.15a5.19 5.19 0 0 1 .21-1.07l.07-.26a8.97 8.97 0 0 0 .18-.6l.1-.25.3-.57c.03-.04.03-.07.02-.12l-.05-.14-.1-.32a25.69 25.69 0 0 1-.12-.94v-.31l.01-.3.01-.12a15.4 15.4 0 0 1 .08-.49l-.03-.12a39.6 39.6 0 0 0-.04-.2l-.06-.43a5.53 5.53 0 0 1 .14-1.34 10.54 10.54 0 0 0 .1-.18.24.24 0 0 1 .13-.07h.15l.28.02Z" fill="#150F03"/><path d="M13.04 4.95a.17.17 0 0 1-.05.01h-.02c-.04.04-.09.03-.13.05a.43.43 0 0 1-.11.04.57.57 0 0 0-.09.02.34.34 0 0 1-.09.02.34.34 0 0 1 .1-.04l.06-.03a.92.92 0 0 0 .1-.04.31.31 0 0 1 .1-.03h.13Z" fill="#696868"/><path d="m13.23 5.07.17.18.03.07v.02c-.06.1-.11.19-.18.28l-.1.2-.02.03-.02.02a6.19 6.19 0 0 1-.25.52 2.86 2.86 0 0 1-.31.55l-.14.23a4.99 4.99 0 0 1-.15.22l.01.01c.06.04.11.08.15.14l.21.37.1.23.1.19c.05.1.09.2.11.3l.01.03.02.05c.03.15.05.27.04.33l-.03.25a1.22 1.22 0 0 1-.14.5l-.16.31a.63.63 0 0 1-.12.14 1.44 1.44 0 0 0 .05-.25c.02-.02.02-.06.03-.1l.04-.12.08-.41c.04-.19.04-.37 0-.54l-.08-.33a17.5 17.5 0 0 0-.26-.66c0-.03-.03-.06-.04-.1a12.65 12.65 0 0 1-.18-.3.56.56 0 0 0-.21-.24l-.16-.17c.01-.03 0-.06-.05-.08a2.95 2.95 0 0 1-.12-.08c-.22-.11-.36-.2-.57-.2a1.13 1.13 0 0 0-.4.1.37.37 0 0 0-.19.22c-.05.17-.08.3-.07.42v.38c0 .08-.01.22-.12.2-.03-.02-.06-.03-.07-.05l-.28-.52-.18-.26a.77.77 0 0 0-.22-.2.96.96 0 0 0-.29-.1 2.74 2.74 0 0 0-.77-.02.65.65 0 0 0-.13.05 2 2 0 0 0-.77.77c-.1.16-.2.31-.34.43a.52.52 0 0 1-.25.1l-.43.05a.53.53 0 0 0-.18.04.6.6 0 0 0-.23.23c-.1.18-.18.4-.22.63a.76.76 0 0 0 0 .2c0 .13.03.25.05.36l.07.2a50.66 50.66 0 0 0 .18.34l.12.15.2.2.2.16.09.1.07.07.1.1a1.11 1.11 0 0 1-.17-.08l-.12-.06a2.15 2.15 0 0 1-.43-.28h-.03c-.04.03-.03.06 0 .1l.14.12a7.33 7.33 0 0 1 .35.21l.2.11h-.29a1.41 1.41 0 0 0-.64-.11.66.66 0 0 0-.4.15c-.1.08-.17.14-.22.2a.45.45 0 0 0-.1.15 7.74 7.74 0 0 1-.24.75.92.92 0 0 0-.07.33c.01.16.04.34.09.54 0 .04.05.12.12.23a5.19 5.19 0 0 1-.5-.5v-.22l.03-.16.06-.32a38.7 38.7 0 0 0 .2-.8l.09-.31a2.25 2.25 0 0 1 .28-.7 5.21 5.21 0 0 0 .18-.3l.11.18c.02.03.05.03.08.02.03-.03.03-.05.02-.08A3.21 3.21 0 0 1 5.4 9.1l-.05-.3-.03-.45a2.65 2.65 0 0 1 .07-.89l.05-.13v-.04a2.5 2.5 0 0 1-.08-.34 73.62 73.62 0 0 1-.08-.68c.01-.29.03-.52.06-.7.02-.18.07-.36.14-.53A.1.1 0 0 1 5.53 5a5.87 5.87 0 0 1 .45.05l.27.07.2.06a3.17 3.17 0 0 1 .53.3 1.69 1.69 0 0 1 .17.11h.03l.2-.08.48-.15A4.08 4.08 0 0 1 9 5.18c.1 0 .24.03.41.06.34.07.69.17 1.06.29.12.04.21.1.3.16l.05.08a.04.04 0 0 0 .06.01c.06-.02.12-.07.19-.1.21-.1.36-.16.44-.18l.53-.16a12.17 12.17 0 0 1 .57-.16 2.11 2.11 0 0 1 .62-.11Z" fill="#EBC480"/><path d="M13.95 6.02a.44.44 0 0 0-.14.06l-.38.25a2.27 2.27 0 0 0-.56.41l-.03-.03a59.99 59.99 0 0 0 .28-.58 2.16 2.16 0 0 0 .11-.19l.02-.01a.88.88 0 0 0 .1-.17 7.68 7.68 0 0 1 .07-.19l.06-.09c.02-.02.03-.04.02-.06l.01-.01a5.43 5.43 0 0 1 .44.61Z" fill="#FFCB40"/><path d="M6.51 6.17a4.1 4.1 0 0 1-.23.47c-.03.05-.17.23-.25.24-.04 0-.07-.02-.1-.07a5.11 5.11 0 0 1-.2-1.2c0-.15.13-.14.23-.1l.29.13.13.1.22.24v.04a.56.56 0 0 1-.09.15Z" fill="#010101"/><path d="M12.23 7.03c-.06.04-.1 0-.14-.06L12 6.8a2.54 2.54 0 0 0-.3-.3c-.04-.06-.1-.1-.05-.16a2.77 2.77 0 0 1 .8-.64.77.77 0 0 1 .51-.1c.07.02.1.06.09.13a.52.52 0 0 1-.07.18l-.08.15-.08.14a9.6 9.6 0 0 0-.4.6 8.19 8.19 0 0 0-.18.22Z" fill="#150F03"/><path d="M6.3 5.83a8.86 8.86 0 0 0 .15.18v.05c-.04.06-.08.11-.1.17-.06.14-.08.2-.14.29-.02.03-.06.12-.11.17a6.42 6.42 0 0 1-.07.05v-.01a12.23 12.23 0 0 1-.18-1.1.02.02 0 0 1 .01-.02h.01c.17.04.3.11.42.22ZM12.18 6.86a3.37 3.37 0 0 1-.12-.14l-.12-.14a3.2 3.2 0 0 0-.2-.2.03.03 0 0 1 .01-.02c.08-.05.14-.12.2-.17a39 39 0 0 1 .31-.23l.22-.13c.13-.06.2-.1.24-.1h.16a.03.03 0 0 1 .02.03 4.15 4.15 0 0 1-.09.2c-.05.08-.1.2-.17.29l-.09.13-.08.12-.15.23a.8.8 0 0 1-.1.13h-.04Z" fill="#EDF0E7"/><path d="M14.35 6.81c-.16.04-.28.12-.41.19a.85.85 0 0 1-.2.08l-.15.07a6.67 6.67 0 0 1-.62.28c-.1.05-.23.1-.31.12l-.01.02-.03.08-.17-.27v-.05l.4-.62c0 .02 0 .03.02.03h.02c.16-.16.34-.3.54-.4l.38-.26a.44.44 0 0 1 .14-.06c.15.25.29.52.4.8Z" fill="#FFA038"/><path d="M3.85 6.38c.07.06.17.11.29.17a300.1 300.1 0 0 1 .91.43l.22.13.03.12v.13a15.4 15.4 0 0 0-.09.48.77.77 0 0 1-.04-.21c0-.06 0-.1-.02-.12a.26.26 0 0 0-.14-.11l-.57-.2a2.01 2.01 0 0 0-.21-.08c-.1-.02-.22-.07-.32-.11a.75.75 0 0 0-.32-.04c.08-.2.16-.4.26-.59Z" fill="#FFCB40"/><path d="M11.83 7.02c-.2-.1-.4-.09-.56.05l-.01.02-.02.02c-.1.07-.2.17-.31.3a.52.52 0 0 0-.1.18l-.06.25c0 .07.06.12.11.14.04.03.1.04.2.06h.35a.89.89 0 0 0 .33-.1.53.53 0 0 0 .1-.07c.07-.06.12-.11.14-.2.02-.08.03-.18.03-.28a.44.44 0 0 0-.04-.2c.09.06.16.14.2.24l.06.1a12.65 12.65 0 0 0 .13.2l.05.1.01.04a17.48 17.48 0 0 1 .24.62l.08.33c.04.17.04.35 0 .54a142.18 142.18 0 0 1-.12.54c-.01.03-.01.07-.03.1v.03l-.05.2a7.2 7.2 0 0 1-.64.78l-.15.12-.36.22c-.14.08-.27.13-.39.17l-.2.05c-.03.01-.04.03-.03.06l.01.02h.02c.03.02.07.02.1.01l.2-.05H11.56c.07.01.12.05.17.1a1.84 1.84 0 0 1 .3.63 2 2 0 0 0 .04.16l.04.16a9.59 9.59 0 0 1 .1.65c.02.15.04.31.03.47l-.16.1a2.46 2.46 0 0 1-.04-.13.43.43 0 0 1-.02-.13l-.01-.26-.01-.13a1.93 1.93 0 0 0-.07-.57 5.54 5.54 0 0 0-.2-.56l-.03-.06c-.03-.01-.05-.02-.07 0h-.02a.05.05 0 0 0-.01.04v.02a2.23 2.23 0 0 1 .17.5l.04.1a2.87 2.87 0 0 1 .06.54.15.15 0 0 1 0-.03 26.76 26.76 0 0 1 .03.49c0 .08.04.17.1.24a5.8 5.8 0 0 1-4.15.7c.07-.03.1-.1.08-.18a.5.5 0 0 1 0-.11v-.02a.4.4 0 0 0 .06-.41.26.26 0 0 0-.13-.15v-.01c0-.03.04-.06.04-.1a.47.47 0 0 0-.08-.37.33.33 0 0 0-.16-.12.67.67 0 0 0-.43 0h-.01v-.01A2 2 0 0 0 7.2 13c0-.1-.07-.14-.15-.19a.24.24 0 0 0-.25 0 .53.53 0 0 0-.14.1.72.72 0 0 0-.15.28.03.03 0 0 1-.03 0 3.15 3.15 0 0 1-.23-.1.22.22 0 0 0-.14-.03.03.03 0 0 0-.03.01.03.03 0 0 0 0 .03c0 .03.03.05.06.06.16.06.31.15.46.26a.1.1 0 0 0 .1.01c.03-.02.03-.04 0-.06-.07-.07-.1-.11-.09-.13.03-.12.1-.23.2-.3a.18.18 0 0 1 .1-.05c.06 0 .16.05.17.11.01.05.02.12.01.21v.02l-.1.1c-.02.02-.02.04 0 .06h.02c.02.02.05.02.07 0a.62.62 0 0 1 .1-.09.61.61 0 0 1 .4-.04c.05 0 .1.03.13.08.06.06.09.14.08.24 0 .03 0 .06-.02.07a.65.65 0 0 1-.3.18c-.03.01-.05.03-.05.07a.05.05 0 0 0 .04.04h.1l.17-.07c.06-.02.1 0 .13.05a.3.3 0 0 1 .03.25c-.02.07-.14.1-.21.12l-.17.03c-.03 0-.07.05-.03.08.03.03.1.03.14.02a132.31 132.31 0 0 1 .2 0c0 .06 0 .1-.04.15a.42.42 0 0 0-.02.04h-.02a5.76 5.76 0 0 1-2.52-1.26c-.07-.1-.12-.18-.12-.22-.05-.2-.08-.38-.09-.54 0-.1.03-.23.07-.33l.04-.14.05-.13.16-.48c.01-.05.04-.1.1-.16l.2-.19c.14-.1.28-.16.4-.16a1.41 1.41 0 0 1 .65.11l.11.01h.17a2.31 2.31 0 0 0 .7.15.05.05 0 0 0 .02-.03c0-.04 0-.06-.03-.07a3.87 3.87 0 0 0-.27-.05.88.88 0 0 1-.18-.04 1.27 1.27 0 0 1-.17-.08 1.63 1.63 0 0 0-.1-.1.53.53 0 0 1-.07-.07.52.52 0 0 0-.1-.1l-.19-.16a12.59 12.59 0 0 0-.32-.35A47.56 47.56 0 0 1 6 9.7a3.04 3.04 0 0 1-.06-.37l.01-.2c.04-.24.11-.45.22-.63a.6.6 0 0 1 .23-.23 32.77 32.77 0 0 0 .6-.1.52.52 0 0 0 .26-.1c.14-.1.24-.26.34-.42.06-.11.1-.19.14-.22a2 2 0 0 1 .63-.55.65.65 0 0 1 .13-.05 2.74 2.74 0 0 1 .77.02c.1.02.2.06.29.1.07.05.14.11.22.2l.18.26.28.52c.01.02.04.03.07.04.1.03.12-.11.12-.19V7.4c0-.11.02-.25.07-.42.04-.1.1-.18.2-.22a1.13 1.13 0 0 1 .4-.1c.2 0 .34.09.56.2l.06.04.06.04c.04.02.06.05.05.08Z" fill="#EDF0E7"/><path d="m14.35 6.81.15.41c-.25.05-.47.13-.7.24l-.28.1-.27.1-.19.07a.89.89 0 0 0-.26.12.05.05 0 0 0 0 .04v.02c.08.1.14.2.2.31.05.07.1.1.2.11.07 0 .14 0 .2-.02a23.81 23.81 0 0 0 1.3-.24l.06.5a27.13 27.13 0 0 0-1.45.09.42.42 0 0 0-.12.06h-.02c-.05 0-.08-.06-.1-.1a4.1 4.1 0 0 0-.06-.23c-.02-.07-.08-.15-.11-.21-.1-.2-.17-.36-.28-.53l.03-.08v-.02l.32-.12.2-.09a6.7 6.7 0 0 0 .57-.26 1.55 1.55 0 0 0 .2-.08c.13-.07.25-.15.4-.19Z" fill="#FFCB40"/><path d="m5.21 7.84-.02.3v.23l-.02-.14-.01-.01a15.47 15.47 0 0 1-1.82-.38c.06-.3.14-.59.25-.87.1-.01.21 0 .32.04.1.04.21.09.32.11l.21.08.57.2c.07.02.11.06.14.11.02.02.02.06.02.12 0 .07.02.14.04.21Z" fill="#FFA038"/><path d="M11.9 7.53a3.9 3.9 0 0 1-.03-.13.63.63 0 0 0-.1-.24v-.03h.02a.4.4 0 0 1 .12.4c0 .03 0 .03-.01 0ZM11.54 7.33c.05.03.1.02.13-.02.02-.03 0-.08-.06-.11-.05-.03-.1-.02-.12.01-.02.04 0 .1.05.12Z" fill="#EDF0E7"/><path d="M14.7 8.07h-.11a4.32 4.32 0 0 1-.8.17 24.17 24.17 0 0 1-.6.1.2.2 0 0 1-.18-.12 2.47 2.47 0 0 0-.22-.33.05.05 0 0 1 .01-.04l.02-.02a.88.88 0 0 1 .24-.1l.19-.07.27-.1.27-.1c.24-.1.46-.19.7-.24.1.28.17.56.21.85Z" fill="#FFA038"/><path d="M8.84 8.24h.02c.01 0 .01 0 0 0a15.5 15.5 0 0 1-.32.05.87.87 0 0 1-.63-.27c-.03-.03-.03-.06-.04-.1a.37.37 0 0 1 .01-.24c0-.02.05-.08.12-.17.04-.06.1-.1.16-.14a.34.34 0 0 1 .13-.05c.16-.04.3-.03.47 0l.2.04c.12.05.2.1.26.14.05.04.13.14.19.21.05.07.1.15.06.24 0 .02-.03.05-.06.08a.92.92 0 0 1-.57.21Z" fill="#010101"/><path d="M8.37 7.75h.07a.03.03 0 0 1 .03.02c.01.06 0 .09-.07.09a.05.05 0 0 1-.04-.03l-.02-.06-.01-.01-.04-.01a.06.06 0 0 1-.03-.03.05.05 0 0 1-.01-.03c0-.06.03-.11.07-.17h.02c.03-.02.06-.02.1 0 .01 0 .02 0 .02.02 0 .05-.02.07-.05.1a.28.28 0 0 0-.06.08.02.02 0 0 0 .02.03ZM11.03 7.78c.01.04.04.06.07.1v.02c-.02.02-.03.02-.06.02-.07-.03-.17-.06-.16-.14l.06-.2c.02-.03.03-.03.04 0l.05.2ZM9.1 7.94c.03-.07.04-.14.05-.22 0-.04-.02-.07-.01-.1a.02.02 0 0 1 .02-.02l.15.16c.04.06.07.1.04.17a.13.13 0 0 1-.06.05c-.07.04-.16.1-.25.12-.03 0-.03 0-.02-.02.03-.04.07-.09.09-.14ZM8.04 7.69c-.02.08-.01.17.01.26v.02h-.02l-.02-.01c-.05-.1-.07-.2.02-.28Z" fill="#EDF0E7"/><path d="M5.2 8.37v.25a.02.02 0 0 1-.04.02 1.45 1.45 0 0 0-.1-.04c-.1-.03-.25-.04-.32-.05a50.4 50.4 0 0 1-1.5-.07c.02-.22.06-.43.1-.64.06.02.1.04.14.04l.39.08a15.46 15.46 0 0 0 1.3.27l.02.14Z" fill="#FFCB40"/><path d="M5.32 9.39a.2.2 0 0 0-.1-.01 8.43 8.43 0 0 1-1.22.1c-.25.02-.5.04-.75.04-.04-.34-.04-.69 0-1.04a5 5 0 0 1 .78.03 50.06 50.06 0 0 0 .7.04c.08.01.23.02.33.05a1.45 1.45 0 0 1 .11.04.02.02 0 0 0 .02-.02l.01-.17a5.6 5.6 0 0 1 .03.4l.09.54ZM14.76 8.57c.02.28.02.56 0 .84a6.59 6.59 0 0 0-.6-.02 4.8 4.8 0 0 1-.62-.05c-.12-.01-.23.01-.34-.08a.02.02 0 0 0-.02 0 .5.5 0 0 0-.05.11l-.06.18a8.61 8.61 0 0 1 .06-.42v-.16a1.17 1.17 0 0 0-.03-.22v.01l-.03-.14c.02.04.05.1.1.1h.02l.12-.06.37-.04 1.08-.05Z" fill="#FFA038"/><path d="m11.24 10.5-.04.01c-.04.06-.07.1-.14.14a.62.62 0 0 1-.26.05 2.26 2.26 0 0 1-.94-.17c-.12-.04-.23-.1-.32-.17-.1-.08-.15-.18-.13-.32 0-.03.02-.04.05-.04h.03c.02 0 .04.01.03.04 0 .1.02.17.07.21a1.38 1.38 0 0 0 .6.26 4.91 4.91 0 0 0 .63.07.36.36 0 0 0 .37-.32c0-.02 0-.04-.03-.04a.72.72 0 0 1-.33-.12 5.31 5.31 0 0 1-.12-.09.6.6 0 0 1-.27-.4.74.74 0 0 1 .03-.38c.03-.1.1-.17.22-.23.17-.1.34-.15.52-.16a5.89 5.89 0 0 1 .68 0c.05.01.1.03.14.06.1.09.15.19.16.32a2.67 2.67 0 0 1-.05.37c-.05.12-.1.22-.16.3a.79.79 0 0 1-.12.12c-.13.12-.33.18-.5.2-.03 0-.05.02-.05.05l.02.15c.02.04.05.06.1.07.12.01.23 0 .33-.03l.31-.12a.3.3 0 0 0 .16-.23v-.07a.24.24 0 0 1-.02-.11.03.03 0 0 1 .03-.03c.03 0 .05 0 .06.03.04.05.07.12.06.2a.46.46 0 0 1-.12.23c-.13.13-.3.17-.49.22a.92.92 0 0 1-.31.03.23.23 0 0 1-.13-.04 2.97 2.97 0 0 0-.07-.06Z" fill="#010101"/><path d="m14.76 9.4-.05.5a3.12 3.12 0 0 1-.5-.08 16.93 16.93 0 0 1-.87-.17c-.12-.02-.22.01-.29.1l-.05.01.07-.2.06-.19a.5.5 0 0 1 .06-.1.02.02 0 0 1 .01 0c.1.08.22.06.34.07.26.04.47.05.62.05.25 0 .46 0 .6.02ZM5.32 9.39l.1.32v.09a.01.01 0 0 1-.01 0 .01.01 0 0 1-.01 0 .17.17 0 0 0-.1-.02 4.27 4.27 0 0 0-.69.1 16.18 16.18 0 0 1-.9.18l-.37.08-.1-.62a11.36 11.36 0 0 0 1.18-.07c.26-.01.53-.04.8-.07a.2.2 0 0 1 .1.01Z" fill="#FFCB40"/><path d="M8.3 9.85c0 .07.02.12.04.19 0 .03 0 .05-.04.06-.04 0-.07 0-.09-.04-.08-.14-.04-.35.02-.5a.1.1 0 0 1 .09-.06h.03c.04.01.05.03.03.06a.6.6 0 0 0-.08.29Z" fill="#150F03"/><path d="M14.7 9.9c-.04.3-.1.58-.2.86a2.48 2.48 0 0 1-.35-.14l-.24-.1a7.63 7.63 0 0 0-.51-.16 3 3 0 0 0-.24-.08l-.1-.03a.38.38 0 0 1-.2-.12h-.05l.19-.37.05-.01c.07-.09.17-.12.28-.1a16.96 16.96 0 0 0 .88.17c.16.04.33.07.5.09ZM5.15 10.54l-.01-.05a.01.01 0 0 0-.01-.01H5.1a.95.95 0 0 1-.22.17l-.26.1a4.85 4.85 0 0 0-.42.13c-.1.02-.18.06-.27.1a.83.83 0 0 1-.35.06c-.1-.29-.2-.6-.25-.9a16.15 16.15 0 0 0 .74-.15 16.18 16.18 0 0 0 .87-.17l.35-.04c.04 0 .07 0 .1.02a.01.01 0 0 0 .01 0V9.7l.06.14c.01.05.01.08-.02.12l-.3.57Z" fill="#FFA038"/><path d="m14.5 10.76-.18.5a23.5 23.5 0 0 1-.49-.23c-.1-.05-.17-.12-.26-.17a3.97 3.97 0 0 0-.63-.28c-.11-.05-.22-.1-.34-.13l-.01-.02v-.02l.22-.28h.06c.05.06.12.1.2.12a11.47 11.47 0 0 1 .33.1l.23.09a7.75 7.75 0 0 1 .87.32Z" fill="#FFCB40"/><path d="m12.6 10.4-.01.03v.02l.35.13.32.14c.07.02.17.07.3.14.1.05.18.12.27.17a21.95 21.95 0 0 0 .49.23 5.7 5.7 0 0 1-.4.76 7.55 7.55 0 0 0-.75-.53c-.11-.07-.21-.14-.31-.23l-.12-.06a9.27 9.27 0 0 0-.39-.27.1.1 0 0 1-.01-.06l-.01-.13.26-.33Z" fill="#FFA038"/><path d="M5.15 10.54a5.62 5.62 0 0 0-.2.6c-.1.03-.21.07-.3.12l-.24.1-.32.14c-.07.04-.15.07-.26.09a5.43 5.43 0 0 1-.24-.55c.13 0 .24-.02.35-.07l.27-.1a5.9 5.9 0 0 0 .68-.22.95.95 0 0 0 .23-.17.01.01 0 0 1 .01 0l.02.06Z" fill="#FFCB40"/><path d="M7.03 11c.05.04.1.06.17.09l.18.04.27.05c.03 0 .04.03.03.07 0 .01 0 .03-.02.03a14.33 14.33 0 0 1-.28-.03 2.3 2.3 0 0 1-.42-.12 1.76 1.76 0 0 0-.19-.11 7.61 7.61 0 0 0-.36-.21l-.13-.12c-.03-.04-.04-.07 0-.1a.04.04 0 0 1 .05 0 2.15 2.15 0 0 0 .53.34c.05.03.1.06.17.08Z" fill="#010101"/><path d="M12.33 10.74v.13l.02.06.05.04.34.23.12.06a3.78 3.78 0 0 0 .52.37 16.07 16.07 0 0 0 .55.4l-.3.43a46.12 46.12 0 0 0-1.47-1.22.4.4 0 0 1-.14-.16l.3-.34Z" fill="#FFCB40"/><path d="M12.02 11.08a.4.4 0 0 0 .14.16 1.62 1.62 0 0 1 .32.24l.04.04a45.8 45.8 0 0 1 1.1.94c-.1.14-.2.27-.32.4-.1.04-.16.12-.23.18a.02.02 0 0 1-.03 0c-.16-.12-.3-.28-.43-.45-.06-.09-.13-.21-.2-.37l-.02-.01v-.02c-.02 0-.04 0-.05.02a7.32 7.32 0 0 0-.36-1.07l.04-.06ZM4.95 11.14a9 9 0 0 1-.15.51c-.04.2-.08.4-.14.6l-.07.47a6.09 6.09 0 0 1-.76-1.13c.1-.02.2-.05.26-.09a6.23 6.23 0 0 1 .55-.24l.3-.12Z" fill="#FFA038"/><path d="M12.36 12.94a2.24 2.24 0 0 1 .03.48 7.95 7.95 0 0 0 0 .26l-.15.1c.01-.16-.01-.32-.02-.47a3.88 3.88 0 0 0-.2-.97 1.83 1.83 0 0 0-.29-.63.36.36 0 0 0-.17-.1H11.12c.13-.04.22-.08.29-.12a11.53 11.53 0 0 1 .48-.26l.04.07a7.25 7.25 0 0 1 .43 1.64Z" fill="#EBC480"/><path d="M13.3 12.86a5.43 5.43 0 0 1-.77.7v-.13a218.4 218.4 0 0 1-.07-.68 5.3 5.3 0 0 0-.12-.54c.01-.02.03-.03.05-.01l.03.02c.06.16.13.28.2.37a2.47 2.47 0 0 0 .44.46c.08-.07.14-.15.24-.2Z" fill="#FFCB40"/></svg>