<!-- by TradingView --><svg width="18" height="18" viewBox="0 0 18 18" xmlns="http://www.w3.org/2000/svg"><path fill="#F5900C" d="M0 0h18v18H0z"/><path d="M10.05 4.21v.26c0 .05-.01.07-.05.06h-.02c-.03-.01-.05-.03-.05-.07l-.04-.24.03-.15a.09.09 0 0 0 0-.08.08.08 0 0 0-.04-.03h-.03c-.11 0-.35.03-.45-.03a.06.06 0 0 1-.03-.03.23.23 0 0 0-.08-.11c-.08-.06-.14-.14-.2-.22-.1-.1-.1-.31 0-.41.05-.06.1-.14.17-.15h.21c.02 0 .04.01.05.03l.06.09.03.03c.13.05.09.2.24.22l.03.03a.1.1 0 0 1 .02.08.07.07 0 0 0 0 .05l.03.02h.27c.07.01.14 0 .2-.04.02 0 .02-.02.03-.03 0-.03 0-.06-.02-.1a.05.05 0 0 0-.03-.02c-.07-.01-.2-.05-.26.03v.01h-.03l-.01-.02a.28.28 0 0 1 .01-.16c.01-.02.02-.03.04-.03l.23-.01.04.01.03.05c0 .07.04.11.1.14.02 0 .03.01.03.03.04.07.02.13-.05.16-.04.03-.07.08-.1.12 0 .02-.02.03-.03.03l-.29.06s-.02 0-.03.02l-.01.03-.03.22v.05a.2.2 0 0 1 .03.1Z" fill="#181816"/><path d="M9.32 3.58c-.1-.01-.15-.1-.13-.26 0-.08.04-.14.12-.14.1 0 .24-.02.22.14l.01.04.06.02.04.01a.1.1 0 0 1 .04.04c.04.08.07.24-.05.28a.84.84 0 0 1-.2.03l-.04-.01a.15.15 0 0 1-.05-.12c0-.02 0-.03-.02-.03Z" fill="#B4E12C"/><path d="M9.34 4.28c-.25.04-.5.1-.73.21a.76.76 0 0 1-.17.05.25.25 0 0 0-.18.13.09.09 0 0 1-.04.04l-.23.08a.06.06 0 0 0-.04.02.23.23 0 0 1-.18.13c-.03.01-.04-.01-.03-.07 0-.03.02-.06.04-.1l.13-.07.02-.03a.07.07 0 0 0 0-.06.07.07 0 0 0-.01-.03.6.6 0 0 0-.11-.06.05.05 0 0 1-.03-.04c-.05-.13-.2-.14-.3-.17-.1-.02-.1-.15-.23-.1v-.03l-.03-.02h-.01c.04-.01.08-.02.12 0l.33.05c.05 0 .09.04.12.09l.03.03c.06.03.1.06.13.1.1.14.26.13.35-.01l.04-.03c.1-.02.2-.06.3-.13h.02c.03 0 .05-.03.08-.04.22-.04.43-.06.65-.05 0 0 .02 0 .02.02v.02c-.04.02-.06.04-.06.07ZM12.58 4.19a2 2 0 0 1-.46.17c-.05.01-.09.03-.1.08 0 .02 0 .04-.02.05a.07.07 0 0 1-.04.02l-.24.04-.03.01-.02.03v.08l-.03.03c0 .01-.01.02-.03.02h-.04c-.03.01-.05 0-.06-.05a.23.23 0 0 0-.02-.08.08.08 0 0 0-.04-.04l-.08-.03a.06.06 0 0 1-.03-.03.17.17 0 0 0-.13-.12 2.58 2.58 0 0 1-.38-.1 1.2 1.2 0 0 0-.22-.04 1.7 1.7 0 0 1-.23-.04c.17-.05.36-.06.55-.03l.3.05c.04.01.12.06.24.16.04.03.04.07.07.11.02.04.04.05.07.04l.02-.01.01-.03c.02-.07.06-.12.14-.12.09 0 .18-.02.25-.09.04-.04.1-.07.16-.08a.78.78 0 0 1 .4 0Z" fill="#3F2E19"/><path d="M13.7 6.48a.08.08 0 0 0-.03-.02c-.02 0-.03 0-.03.02v.1a.51.51 0 0 0-.06-.21l-.02-.02a.04.04 0 0 0-.04 0l-.02.02c-.02.09-.07.13-.14.12-.04 0-.06-.03-.07-.07l.01-.05.04-.03.06-.01a.1.1 0 0 0 .06-.04.12.12 0 0 0 .02-.07v-.45c.03-.27.02-.53.02-.8 0-.17-.04-.4-.02-.61v-.14c0-.03.01-.05.04-.06h.05c.02-.01.04 0 .04.03 0 .28.03.55 0 .82-.02.26-.02.47 0 .62.03.22.03.41.01.58 0 .06.02.15.09.27Z" fill="#6E431C"/><path d="M7.2 4.16h.02l.02.02v.03c-.03.04-.06.08-.1.1-.12.07-.14.39-.16.54l-.01.04c-.09.11-.1.26-.1.37l-.03.83c0 .01 0 .03-.02.03l-.07.01a.05.05 0 0 0-.04.03.2.2 0 0 0-.02.12c0 .02.01.04.03.04.04 0 .07 0 .1-.02.02 0 .03-.01.03-.03l.02-.1c0-.02.01-.03.03-.04h4.04a4.53 4.53 0 0 1 .55.04l.01.02.02.07.01.02h.02c.13.02.24.05.32.1 0 .07-.06.11-.16.14-.02 0-.03 0-.03.02l.01.12c0 .02.02.03.03.03.12.04.16.14.26.21.05.04.09.1.12.16 0 .01.01.02.03.02h.04c.02 0 .03 0 .03-.03 0-.06.03-.14.1-.1.02 0 .02 0 .03.02V7a.7.7 0 0 0 .04.33c.03.24.02.48-.01.73 0 .02-.02.02-.03.02H12.24l-.02.02a.05.05 0 0 0 0 .03l-.03.3c-.01.03-.03.05-.05.05-.07 0-.1.03-.1.11 0 .02 0 .04-.02.06a.07.07 0 0 1-.04.02l-.08.02-.01.01-.01.02c-.03.06-.01.08-.08.13a.64.64 0 0 0-.4-.16h-.29l.39-.01s.02 0 .02-.02c0-.11-.02-.17-.07-.18a.3.3 0 0 0 .08-.12l.02-.03c.05-.04.1-.07.13-.12.04-.06.09-.1.14-.15a.08.08 0 0 0 .04-.04c.02-.07.06-.1.12-.12a.1.1 0 0 0 .05-.04.12.12 0 0 0 .03-.06c.01-.19.01-.38-.01-.58-.02-.17-.15-.1-.18-.22a.15.15 0 0 0-.04-.07.17.17 0 0 0-.1-.05c-.02 0-.03 0-.04-.03a.28.28 0 0 0-.18-.17.7.7 0 0 1 0-.18c.01-.13-.03-.19-.15-.19H7.73l-.3.02h-.39a.25.25 0 0 0-.15 0c-.01 0-.02 0-.03.02a.38.38 0 0 0 0 .13c0 .04.03.05.09.04H7c.02 0 .03.01.03.04s-.02.06-.05.08a.13.13 0 0 1-.07.03.8.8 0 0 0-.15.02.26.26 0 0 0-.1.13l-.04.08c-.03.03-.07.03-.1.02H6.5c0 .05 0 .1-.03.12v-.08c0-.07-.02-.1-.08-.09a.3.3 0 0 0-.1.05.08.08 0 0 0-.03.03.3.3 0 0 1-.06.1c-.13.14-.07.63-.04.8.01.1.05.17.12.2l.02.03.02.04.02.1c.01.06.04.07.09.04l.01-.02a.12.12 0 0 0 .05-.1.28.28 0 0 0-.12-.23.1.1 0 0 1-.03-.03 4.71 4.71 0 0 1-.03-.63c0-.1.05-.16.16-.18 0-.02.02-.01.03 0v.55c0 .17 0 .3.04.43.02.08.07.15.14.22.04.03.09.05.14.05.07 0 .14.03.2.07.1.09.21.12.35.12h.33a.51.51 0 0 0 .24-.12l.17-.1a.7.7 0 0 0 .17-.13c.12-.04.28-.06.32-.22l.03-.12c.03-.14.02-.31.02-.45v-.03l.03-.01a.15.15 0 0 1 .1-.02s.02.01.02.03v.07l-.02.51c0 .07.02.12.06.16l.02.01h.01c.07 0 .1-.05.1-.12 0-.11.03-.22.11-.3.09-.1.09-.19.24-.17.02 0 .03.01.03.03.02.1 0 .15-.09.16l-.03.02c-.08.1-.08.25-.07.37v.02h-.02c-.13-.07-.18.08-.15.18 0 .02.02.04.04.04s.04.02.05.04c0 .03 0 .03-.02.02a.49.49 0 0 1-.12-.05.07.07 0 0 0-.06 0h-.03l-.02.04a.29.29 0 0 1-.14.15l-.02.02-.01.02a.16.16 0 0 1-.16.12H8.5l-.01.02a.24.24 0 0 1-.14.12l-.15-.02a.07.07 0 0 1-.05-.02.05.05 0 0 1 0-.07l.2-.01c.02 0 .04 0 .06-.02a.13.13 0 0 0 .04-.07.2.2 0 0 1 .12-.12c.04-.02.09-.05.1-.1l-.01-.06a.07.07 0 0 0-.05-.04c-.16-.04-.28 0-.34.13-.01.02-.02.03-.04.03a1.2 1.2 0 0 1-.21.04c-.06 0-.1.04-.11.1l-.02.03-.03.02c-.24.05-.47.07-.7.05-.06 0-.12-.05-.16-.13a.07.07 0 0 0-.04-.03c-.07-.03-.2-.04-.26-.1a1.1 1.1 0 0 1-.06-.08c-.02-.03-.06-.04-.1-.02l-.07.16c-.08-.05-.13-.03-.15.06-.03.01-.04.04-.04.07 0 .02-.01.03-.03.02l-.01-.01a.21.21 0 0 1-.01-.07c0-.03.02-.05.03-.07a.23.23 0 0 0 .05-.06c.03-.08-.06-.13-.12-.17a.07.07 0 0 1-.02-.04.44.44 0 0 0-.11-.19.09.09 0 0 1-.03-.04c-.05-.23-.05-.46-.05-.69L6 6.97c0-.02.01-.04.03-.04.06-.04.1-.09.12-.16l.04-.04.08-.04a.1.1 0 0 0 .04-.04.54.54 0 0 1 .14-.16.08.08 0 0 0 .03-.04c.04-.1 0-.3.12-.34.02 0 .04-.01.05-.03a.1.1 0 0 0 .01-.06c0-.18.03-.36.03-.55a3.76 3.76 0 0 1 .04-.48c.1-.14.14-.31.16-.49.02-.17.17-.3.32-.34Z" fill="#1D1919"/><path d="M13.48 4.36c-.02.2.02.44.02.61 0 .27.01.53-.01.8-.02.14-.02.3-.01.45 0 .02 0 .05-.02.07a.1.1 0 0 1-.06.04l-.06.01a.06.06 0 0 0-.04.03v.05c0 .04.02.07.06.07l.1.54c.03.11.04.24.04.34l-.04 1.12c0 .2-.12.18-.17.33l-.03.03-.08.05a.09.09 0 0 0-.03.04.93.93 0 0 0-.05.16c-.03.13-.13.21-.19.32a.46.46 0 0 1-.19.2 2.81 2.81 0 0 0-.67.46c-.05.05-.15.1-.29.16-.13.05-.26.13-.36.22a1.9 1.9 0 0 1-.3.32.7.7 0 0 1-.3.1c-.03-.12.01-.2.14-.25.1-.03.18-.01.22-.15l.57-1.58.01-.02h.01l.05-.03c.07-.05.05-.07.08-.13V8.7h.02l.08-.02.04-.03a.09.09 0 0 0 .02-.06c0-.08.03-.12.1-.11.02 0 .04-.02.05-.05a1.34 1.34 0 0 0 .02-.32l.01-.01.02-.01H12.33l.03-.03A12.88 12.88 0 0 0 12.38 7c0-.06-.04-.1-.08-.1-.02 0-.03 0-.04-.02a.08.08 0 0 1-.03-.04l-.04-.27-.02-.03-.02-.02a2.37 2.37 0 0 1-.22-.06c-.06-.02-.08-.05-.05-.1a.91.91 0 0 0-.33-.08h-.02l-.01-.03-.02-.07-.01-.02-.02-.01a4.53 4.53 0 0 0-.53-.04 314.4 314.4 0 0 0-4.04.01c-.02 0-.03.02-.03.04l-.02.1c0 .02 0 .03-.02.03a.22.22 0 0 1-.1.02c-.03 0-.04-.02-.04-.04 0-.05 0-.09.02-.12.01-.02.02-.03.04-.03l.07-.01.02-.03.03-.83c0-.1.01-.26.1-.37a.09.09 0 0 0 .01-.04c.02-.15.04-.47.15-.53.05-.03.08-.07.12-.11.13-.05.13.08.23.1.1.03.25.04.3.17 0 .02.01.03.03.04a.6.6 0 0 1 .1.06l.03.03a.07.07 0 0 1 0 .06l-.03.03-.13.08a3.67 3.67 0 0 0-.26-.06.16.16 0 0 1-.13-.11.07.07 0 0 0-.03-.04c-.07-.05-.13.02-.14.1-.02.1-.05.2-.1.28a.77.77 0 0 0-.09.57.3.3 0 0 1 0 .18v.04h.04l.04-.01c.08 0 .11-.05.1-.13.09-.16.16-.3.21-.47a.27.27 0 0 0 .17-.1l.04-.02c.05-.01.1-.04.14-.07.08-.01.14-.05.18-.13L8 4.8l.22-.08.05-.04c.04-.07.1-.11.18-.13a.76.76 0 0 0 .17-.05c.23-.1.48-.17.73-.21.17-.05.35-.07.55-.06l.04.24c0 .04.02.06.05.07H10c.04 0 .06-.01.06-.06v-.26a.6.6 0 0 1 .32-.02l.23.04.22.05.38.1c.06 0 .1.04.14.1l.02.04.08.03.04.04.02.08c0 .04.03.06.06.06h.04l.04-.03.01-.03.01-.08.02-.03.03-.01.24-.04.04-.02a.08.08 0 0 0 .02-.05c.01-.05.05-.07.1-.08a2 2 0 0 0 .46-.17 5.35 5.35 0 0 1 .88 0l.01.03v.14Z" fill="#fff"/><path d="M12.82 5.69c-.23-.28-.48-.5-.75-.63-.05-.03-.11-.08-.1-.15 0-.12.09-.14.16-.18a.3.3 0 0 0 .1-.08c.04-.06.1-.1.18-.1.06-.01.13-.06.17-.1.1-.1.23-.16.4-.16.08 0 .1.08.11.15.02.21.05.42.1.6a.7.7 0 0 1 0 .45l-.1.23c-.07.14-.2.06-.27-.03ZM7.78 4.78a.23.23 0 0 0-.04.09l-.01.05-.03.02c-.05.02-.1.04-.15.03-.05-.01-.1 0-.13.06-.02.05-.02.09 0 .1-.05.16-.12.31-.22.47.02-.06-.01-.08-.1-.05a.06.06 0 0 0-.02.03c-.06.08-.05.13.02.15l-.03.01h-.03c-.02 0-.02-.02-.02-.04a.3.3 0 0 0 .01-.19.77.77 0 0 1 .09-.56.74.74 0 0 0 .1-.29c0-.07.07-.14.14-.09l.03.04c.02.06.06.1.12.11l.27.06Z" fill="#F6CBCA"/><path d="M7.74 4.87c-.01.06 0 .08.03.07a.42.42 0 0 1-.15.07.06.06 0 0 0-.03.02.27.27 0 0 1-.17.1c-.02-.01-.02-.05 0-.1.02-.06.08-.07.13-.06.05.01.1-.01.15-.03.01 0 .02 0 .03-.02v-.05ZM7.23 5.28v-.07l.02-.02.01-.02.06-.02h.02l.02.01v.02l.01.02v.06l-.02.01-.07.05-.02.01h-.02l-.01-.02v-.03Z" fill="#1D1919"/><path d="M7.04 6.34c.02.1-.01.16-.1.18-.05.01-.08 0-.08-.04v-.13c0-.02.02-.03.03-.03.05 0 .1 0 .15.02Z" fill="#fff"/><path d="M11.51 6.68c-.02.03-.03.05-.02.06a1.31 1.31 0 0 0-.51-.02l-.56-.01c0-.04 0-.07.02-.09a.08.08 0 0 0 0-.07.07.07 0 0 0-.02-.02l-.03-.01c-.28-.02-.55 0-.83 0H7.72a.26.26 0 0 1-.13-.04h-.01l-.01-.04v-.06c0-.02 0-.03-.02-.03a.31.31 0 0 0-.12-.02l.3-.02h3.63c.12 0 .16.06.15.19v.18Z" fill="#58524D"/><path d="M7.43 6.33c.04 0 .08 0 .12.02.01 0 .02.01.02.03v.06l-.02.04-.03.02h-.25c-.01 0-.02 0-.03-.02-.03-.03-.03-.08 0-.14h.19Z" fill="#fff"/><path d="M7.04 6.34h.2c-.03.06-.03.1 0 .14 0 .02.02.02.03.02h.25l.03-.02a.06.06 0 0 0 .02-.04v.05h.01l.14.03H9.56c.28 0 .55-.02.83 0h.03l.02.03a.08.08 0 0 1 0 .07.2.2 0 0 0-.02.09H9.9l-1.46.01h-.5a5.1 5.1 0 0 0-.88 0l-.3-.03a.8.8 0 0 1 .14-.02c.04 0 .06-.01.08-.03a.12.12 0 0 0 .05-.08c0-.03-.01-.04-.03-.04h-.06c.08-.02.11-.08.1-.18Z" fill="#7C6445"/><path d="m13.64 6.58.01.48.02.03.03.02h.1a29.37 29.37 0 0 1-.01 1.9c0 .04-.03.06-.06.05-.02 0-.03 0-.04.02a.06.06 0 0 0-.02.03c0 .13 0 .26-.07.38a8.2 8.2 0 0 0-.12.24c-.04.09-.13.14-.18.22-.08.1-.2.13-.31.14a.05.05 0 0 0-.04.03l-.02.05a.15.15 0 0 1-.1.1l-.3.12a.32.32 0 0 1-.13.03h-.12l-.14.03-.19.01-.16-.03h-.16l-.23.03c.1-.1.23-.17.36-.22.14-.06.24-.1.3-.16l.18-.16c.13-.1.29-.2.48-.3.08-.04.14-.1.2-.2.05-.1.15-.2.18-.32a.93.93 0 0 1 .05-.16l.03-.04.08-.05.03-.03c.05-.15.17-.14.17-.33 0-.31.02-.68.04-1.12 0-.1-.01-.23-.04-.34a4.53 4.53 0 0 1-.1-.54c.07 0 .12-.03.15-.12v-.02h.05s.02 0 .02.02c.03.06.05.13.06.2Z" fill="#E6E6E6"/><path d="M11.88 6.38c-.03.04-.01.07.05.1a2.37 2.37 0 0 0 .24.07l.02.03.04.27c0 .02.01.03.03.04l.04.02c.04 0 .07.04.07.1v.32a.7.7 0 0 1-.03-.33v-.03a.05.05 0 0 0-.04-.03c-.07-.03-.1.05-.1.11 0 .02-.01.03-.03.03h-.04c-.02 0-.03 0-.03-.02a.35.35 0 0 0-.12-.16c-.1-.07-.14-.17-.26-.21a.04.04 0 0 1-.03-.03.2.2 0 0 1-.01-.12c0-.01.01-.02.03-.02.1-.03.15-.07.17-.14Z" fill="#58524D"/><path d="M13.7 6.48c.05.03.08.07.08.1a27.04 27.04 0 0 1 .05.44c0 .04 0 .07-.03.1l-.1-.01c-.01 0-.02 0-.03-.02l-.02-.03-.01-.48v-.1c0-.02.01-.03.03-.02l.04.02Z" fill="#1D1919"/><path d="M6.65 6.69c.04-.05.05-.12.02-.16-.03-.04-.1-.04-.14 0-.05.05-.06.11-.02.16.03.04.1.04.14 0Z" fill="#fff"/><path d="M11.51 6.68c.1.03.15.1.18.17 0 .02.02.03.04.03.04.01.07.02.1.05l.04.07c.03.12.16.06.18.22.02.2.02.4 0 .58 0 .02 0 .05-.02.06a.1.1 0 0 1-.05.04c-.06.01-.1.05-.12.12l-.04.04a.56.56 0 0 0-.14.15l-.13.12a.07.07 0 0 0-.02.03.3.3 0 0 1-.08.12h-.2c.08.01.16 0 .22-.05l.02-.04c-.01-.1.02-.25-.02-.35.02-.03.02-.04.01-.04a.72.72 0 0 0 .17-.2c.06-.09.18-.1.18-.24a2.01 2.01 0 0 0-.02-.25l-.02-.01c-.06 0-.09-.04-.1-.11 0-.08 0-.15-.02-.23 0-.06-.06-.1-.12-.09l-.03-.01-.02-.04-.01-.08c-.01-.01 0-.03.02-.06Z" fill="#712F8D"/><path d="m6.77 6.7.3.03-.08.11-.03.03-.08.06c-.02.08-.03.2-.02.36l.03.74c-.03-.08-.07-.13-.13-.12-.02 0-.03 0-.04-.02l-.15-.15-.02-.02c-.02-.02-.04-.05-.03-.1v-.54c-.02-.02-.03-.03-.04-.01v-.03a.15.15 0 0 0 .03-.11c0-.01 0-.02.01-.01.04 0 .08 0 .1-.02.02 0 .03-.03.05-.08.02-.05.05-.1.1-.13Z" fill="#8E44CC"/><path d="m7.94 6.72-.02.2h-.14l-.02.01v.03l.02.29.01.03.03.01c.03 0 .06-.01.07-.06.04.07.06.15.05.24l-.02.2.03.45a1.2 1.2 0 0 1-.58-.04v-.15l.01-.04.01-.02v-.06a.4.4 0 0 1 0-.12v-.38c.06 0 .1 0 .13-.03a.06.06 0 0 0 .02-.04l.04-.28a.05.05 0 0 0-.01-.04l-.02-.01h-.01l-.55-.02c-.04 0-.07.02-.1.04l.07-.06.03-.03.08-.11c.29-.03.58-.03.87-.01Z" fill="#97F860"/><path d="M8.26 6.72c.04.09.05.16.05.22-.02.14-.02.28 0 .4 0 .25-.03.49-.07.71 0 .02-.02.03-.03.03l-.1.05c-.05.01-.1 0-.16-.01a6.62 6.62 0 0 1-.01-.65c0-.1 0-.17-.05-.24l.04-.32.02-.2h.31Z" fill="#E9DD4C"/><path d="m9.91 6.71-.01.66v.09a.46.46 0 0 0 0 .2c.01.02.02.03.04.03.07 0 .1.04.1.1l.02.17c.01.1.05.14.1.14l.24-.01h.6c-.03 0-.04.02-.04.04.02.04.01.07 0 .1l-.01.06v.15l-.02.02-.01.01h-.02c-.08 0-.11 0-.11.03l-.58-.01h-.1l-.03-.04-.04-.21v-.08c0-.01 0-.03-.02-.03h-.03a.17.17 0 0 1-.09-.03.04.04 0 0 1-.02-.04v-.25c0-.08-.02-.12-.06-.13a.1.1 0 0 1-.06-.03 12.14 12.14 0 0 1-.08-.33.29.29 0 0 0-.14 0 .77.77 0 0 0-.23-.02h-.17c-.12-.03-.23.01-.33.11v-.07c0-.02-.01-.02-.03-.03-.03 0-.06 0-.1.02l-.01.01v.03c-.01.14 0 .3-.03.45l-.03.12c-.04.16-.2.18-.32.22-.09.02-.15.01-.18-.03l.1-.05a3.05 3.05 0 0 0 .1-.74l.11-.06.03-.04.02-.22c0-.06 0-.16-.02-.3h1.46Z" fill="#E69858"/><path d="M10.1 6.7c-.04 0-.05.08-.03.22l.01.37v.33l-.02.04-.02.05a5.51 5.51 0 0 1 0 .07c0-.05-.03-.08-.1-.1-.02 0-.03 0-.03-.02a.46.46 0 0 1 0-.2V7.4l-.01-.04.01-.66h.2Z" fill="#F7CF7D"/><path d="m10.1 6.7.3.01c.03.05.03.12 0 .2l-.33.01c-.02-.14-.01-.22.03-.21Z" fill="#E9DD4C"/><path d="m10.42 6.7.56.02v.19l-.01.37v.8h-.57c.03-.26.04-.52.02-.79H10.77l.01-.03V6.91h-.38c.03-.08.03-.15 0-.2h.02Z" fill="#97F860"/><path d="M11.49 6.74V8l-.02.04-.36.05a2.7 2.7 0 0 0 .01-.8v-.34l-.01-.04a.35.35 0 0 0-.14 0v-.2c.19-.02.36-.01.52.03Z" fill="#6ABEF7"/><path d="m11.5 6.82.02.04c0 .01.02.02.03.01.05 0 .11.03.12.1l.03.22c0 .07.03.1.1.11l.01.01.01.02v.23c0 .14-.1.15-.17.25a.72.72 0 0 1-.17.19l.01-1.18Z" fill="#8E44CC"/><path d="M6.48 7.04v.03c-.1.02-.16.08-.16.18a4.73 4.73 0 0 0 .03.63l.03.03c.07.05.11.12.12.22 0 .05-.01.09-.05.11l-.01.02c-.05.03-.08.02-.09-.04l-.02-.1a.1.1 0 0 0-.02-.04.09.09 0 0 0-.02-.02c-.07-.04-.1-.1-.12-.2-.03-.18-.09-.67.04-.8a.3.3 0 0 0 .06-.1c0-.02.02-.04.03-.04a.3.3 0 0 1 .1-.05c.06-.01.09.02.09.1v.07Z" fill="#EA6F45"/><path d="M13.82 6.88v.18c.01.04.03.05.06.05l.09.01.01.03A24.02 24.02 0 0 1 13.96 9l-.01.04-.04.02a.11.11 0 0 0-.07.1c0 .12-.04.21-.1.29a.41.41 0 0 0-.07.14 1.23 1.23 0 0 1-.54.64l-.19.11c-.09.06-.19.03-.28.06a.1.1 0 0 1-.09 0h-.03a2.65 2.65 0 0 0-.14.02l.12-.04c.1-.05.2-.1.3-.12a.15.15 0 0 0 .1-.1l.03-.05c0-.02.02-.03.04-.03.1-.01.23-.04.3-.14.06-.08.15-.13.19-.22l.12-.24c.06-.12.06-.25.07-.38l.02-.03.04-.02c.03 0 .05-.01.06-.05l.02-.31V7.1l.02-.1v-.13Z" fill="#181816"/><path d="m7.4 7.31-.54-.02c-.01-.16 0-.28.02-.36.04-.02.07-.04.11-.04a19.1 19.1 0 0 0 .58.03v.04l-.03.28c0 .02 0 .03-.02.04-.03.02-.07.04-.12.03Z" fill="#fff"/><path d="m7.93 6.91-.04.32c-.01.05-.04.07-.07.06l-.03-.01-.01-.03-.02-.29a.05.05 0 0 1 0-.03l.02-.01H7.93ZM10.4 6.9h.36l.01.01a.03.03 0 0 1 .02.02v.33l-.02.02-.01.01h-.68v-.37l.32-.02Z" fill="#FBFFE1"/><path d="m10.97 6.9.14.01.02.04-.01.33a.21.21 0 0 1-.15 0v-.37Z" fill="#fff"/><path d="m6.86 7.3.54.01-.01.38a.4.4 0 0 0 0 .12v.08c-.01.01-.02.03-.01.04v.15l-.13.01c-.16.02-.28 0-.36-.06l-.03-.74Z" fill="#6ABEF7"/><path d="M9.54 7.32v.34c0 .02.01.03.03.03h.08l.02.02.01.02c.03.1.05.2.04.3 0 .05.01.08.06.07h.05c.03-.02.05-.05.05-.09v-.2.25c0 .02 0 .03.02.04l.09.02c-.07 0-.1.03-.11.11 0 .03 0 .05.04.06h.01a.08.08 0 0 1-.07-.04h-.03a.47.47 0 0 1-.17.02c-.05.03-.09.03-.12 0l-.01-.01v-.03l.01-.32c0-.04-.02-.07-.06-.06-.06 0-.09.03-.1.08 0 .1-.04.31.03.39.05.06.1.11.17.16l-.11.33c-.02.05-.07.09-.08.15-.04.2-.12.39-.24.55-.08.12-.13.24-.17.37a.57.57 0 0 1-.09.18c-.12.18-.22.37-.27.58l-.08.15-.02.02c-.03.02-.04.03-.04.06a.73.73 0 0 1-.14.4.11.11 0 0 0-.02.03c-.02.1-.07.15-.15.17a.07.07 0 0 0-.04.03.08.08 0 0 0-.02.05c0 .1.02.2-.04.3-.05 0-.08 0-.1.03h-.05a3.74 3.74 0 0 0-.13 0c-.05 0-.07-.03-.07-.09.05-.78-1.03-.49-.37-1.43a.1.1 0 0 0 .04 0l.02-.02-.02-.02c.07.03.12.02.15-.04.08-.15.21-.37.4-.66.07-.13.14-.27.21-.45l.1-.15a.35.35 0 0 0 .05-.18c-.08 0-.07-.01.04-.02.05-.02.1-.05.14-.12l.01-.01h.02c.08-.01.13-.06.16-.13v-.02l.03-.02a.29.29 0 0 0 .14-.15l.02-.03.03-.02a.07.07 0 0 1 .06 0l.12.06c.02.01.03 0 .01-.02a.08.08 0 0 0-.04-.04.06.06 0 0 1-.04-.04c-.03-.1.02-.25.14-.17a.02.02 0 0 0 .02 0l.01-.01v-.02c-.01-.12-.01-.27.07-.37l.03-.02c.08-.01.11-.07.1-.16-.01-.02-.02-.03-.04-.03-.15-.02-.15.08-.24.17-.08.08-.1.19-.1.3-.01.07-.05.11-.1.12h-.04a.21.21 0 0 1-.06-.17l.02-.5c.1-.1.2-.15.33-.13.07.01.12.02.17.01.08 0 .16 0 .23.02Z" fill="#62FF74"/><path d="M10.08 7.3h.34c.02.26.01.52-.02.79l-.23.01c-.07 0-.1-.05-.1-.14a5.66 5.66 0 0 0-.01-.3l.01-.04V7.3Z" fill="#E9DD4C"/><path d="M10.97 7.28c.05.02.1.02.15 0 .04.28.04.55 0 .81h-.15v-.8Z" fill="#78D9AD"/><path d="M5.97 7.3c0 .23 0 .46.05.69 0 .02.02.03.03.04.05.05.08.12.1.2l.03.03c.06.04.15.09.12.17l-.05.06a.17.17 0 0 0-.03.07l-.01.21c-.1-.02-.19.02-.26.12-.13.18-.27.38-.42.54l-.22.21c-.22.2-.38.46-.6.67l-.15.15c-.1.1-.13.23-.18.34-.03.06-.03.13-.06.18a.08.08 0 0 1-.05.04.22.22 0 0 0-.15.14c-.02.05-.07.07-.12.07V9.3c.07.01.13-.02.17-.09l.08-.14c.06-.07.1-.14.17-.2l.4-.41a9.4 9.4 0 0 1 .77-.78c.07-.03.13-.04.18-.11l.2-.28Z" fill="#FB6538"/><path d="M9.88 7.8v.21c0 .04-.02.07-.05.08a.14.14 0 0 1-.05.01c-.05 0-.07-.02-.06-.07 0-.1 0-.2-.04-.3l-.01-.02-.02-.01h-.08c-.02 0-.03-.02-.03-.04v-.34c.05-.02.1-.02.14 0 .02 0 .02.01.03.03a12.15 12.15 0 0 0 .05.3.1.1 0 0 0 .06.03c.04 0 .06.05.06.13Z" fill="#181816"/><path d="M6.52 7.62c0 .05 0 .08.03.1l.02.02.15.15.04.02c.06 0 .1.04.13.12.08.06.2.08.36.06l.07.02.01.02V8.37a.1.1 0 0 1 0 .09v.03l.05.02a.52.52 0 0 1-.36-.12.32.32 0 0 0-.2-.07.21.21 0 0 1-.13-.05.46.46 0 0 1-.14-.22 1.3 1.3 0 0 1-.03-.43Z" fill="#575892"/><path d="M9.66 8.27c.02 0 .04 0 .05.02.02 0 .02.02.02.03v.12c0 .02 0 .02.02.03h.15v.05c0 .04 0 .08.03.11l.02.02a.06.06 0 0 0 .05 0h.03a.14.14 0 0 0 .03-.12c0-.02 0-.03.03-.03l.12-.01h1.04l.2-.01c.05 0 .07.07.07.18l-.02.02h-.39l-.78-.01a.7.7 0 0 0-.35.12h-.04c-.03-.08-.09-.13-.17-.14a.05.05 0 0 1-.03-.03.16.16 0 0 1-.02-.09c0-.01 0-.03-.02-.04-.03-.03-.07-.03-.12-.01a.87.87 0 0 1-.17-.16c-.07-.08-.04-.29-.02-.39 0-.05.03-.08.08-.08h.01c.04 0 .06.02.06.06l-.01.32v.03l.02.02c.02.02.06.02.11 0Z" fill="#181816"/><path d="M11.47 8.04c.03.1 0 .24.01.35l-.01.04a.33.33 0 0 1-.22.05l-.46.02c0-.02.03-.03.1-.02h.02l.02-.02a.06.06 0 0 0 .02-.04v-.19a.15.15 0 0 0 .01-.1c0-.02.01-.03.04-.03h.11l.36-.06Z" fill="#5E88B0"/><path d="M7.37 8.08c.2.06.39.07.58.04.06.02.11.02.15.01.04.04.1.05.19.03a.7.7 0 0 1-.17.12l-.17.11a.51.51 0 0 1-.24.12h-.33l-.04-.02c-.02 0-.02-.02-.01-.03a.1.1 0 0 0 0-.09v-.24l-.01-.02-.07-.02h.12Z" fill="#5AB745"/><path d="M8.66 8.19c0 .06.02.1.07.11.05 0 .09-.04.1-.1 0-.06-.03-.1-.08-.11-.05 0-.09.04-.1.1Z" fill="#81D94D"/><path d="M11.73 8.68c-.05-.01-.08-.04-.08-.1 0-.08.01-.16.04-.25l.02-.03.03-.02c.06-.02.1-.06.13-.13l.01-.03.03-.02c.06-.03.1-.01.13.05.03.06.03.15 0 .26-.03.13-.18.03-.2.2 0 .07-.02.1-.08.08h-.03Z" fill="#B87BF6"/><path d="M9.99 8.12h.03l.03.04-.01.08c0 .02 0 .04-.02.05-.02.02-.05.02-.09 0h-.01c-.03 0-.04-.03-.04-.06 0-.08.04-.12.11-.1Z" fill="#181816"/><path d="M9.93 8.3c.04.01.07 0 .09-.01l.02-.05.04.21c0 .02.02.03.03.03l.1.01-.12.01c-.02 0-.03.01-.03.03 0 .05 0 .08-.03.11l-.03.02a.06.06 0 0 1-.05 0l-.02-.03a.15.15 0 0 1-.02-.1V8.5l-.01-.02-.02-.01h-.03a.17.17 0 0 1-.1 0c-.01 0-.02-.01-.02-.03v-.12c0-.01 0-.02-.02-.03a.08.08 0 0 0-.05-.02c.06 0 .12 0 .17-.03l.03.01c.02.03.04.05.07.05Z" fill="#5E88B0"/><path d="M8.34 8.82a5.1 5.1 0 0 0-.35.08c-.03 0-.08 0-.16-.03a.65.65 0 0 0-.23 0c-.16 0-.36 0-.55.07-.3.1-.51-.08-.5-.37a.2.2 0 0 0-.04-.13c-.02-.03-.02-.06.01-.1.05-.03.09-.02.1 0l.07.09c.06.06.19.07.26.1.02 0 .03.01.04.03.04.08.1.12.17.13a2.29 2.29 0 0 0 .72-.07l.02-.04A.11.11 0 0 1 8 8.5c.08 0 .15-.02.22-.04.02 0 .03-.01.04-.03.06-.13.18-.17.34-.13.02 0 .03.02.04.04l.02.05c-.01.06-.06.1-.1.11a.2.2 0 0 0-.12.12c0 .03-.02.05-.04.07a.11.11 0 0 1-.07.02h-.19v.01a.05.05 0 0 0 0 .07l.05.02.15.02Z" fill="#BAB054"/><path d="M6.5 8.4c.03 0 .07.1.08.15.05.4.15.22.48.28.2.03.38.05.54.05h-.26a.1.1 0 0 0-.06.02.11.11 0 0 0-.04.04c-.12.32-.32.6-.59.82a.25.25 0 0 0-.07-.07c-.06-.04-.09-.1-.1-.16a1.15 1.15 0 0 0-.09-.23.85.85 0 0 1-.08-.22 1.42 1.42 0 0 1 0-.53c.02-.09.11-.2.2-.15Z" fill="#F7CF7D"/><path d="M9.58 8.48c.05-.02.1-.02.12.01l.02.04.01.1.04.02c.08.01.14.06.17.14h.01v.01h.02l.2-.02c.05 0 .1.03.17.03.04 0 .08 0 .13.02.06.02.12.02.19 0l-.02.06c0 .02-.02.04-.03.05-.07.07-.15.14-.17.25-.03.15-.13.26-.19.4-.06.16-.14.3-.2.47-.05.15-.13.28-.22.4-.12.15-.1.32-.16.47-.06.15-.14.3-.25.48-.08.05-.18.06-.24-.03-.1-.13-.26-.08-.37-.19-.08-.09-.21-.15-.2-.3v-.25c.06-.2.16-.4.28-.58a.57.57 0 0 0 .1-.18c.03-.13.08-.25.17-.37.1-.16.19-.35.23-.55.01-.06.06-.1.08-.15l.1-.33Z" fill="#81BBF9"/><path d="M6.3 8.55c-.03.18-.02.36.01.53.02.08.04.15.08.22s.06.15.09.23c.01.07.04.12.1.16l.07.07c.06.15.3.3.43.37.1.05.2.15.31.19l.02.02-.02.01a.1.1 0 0 1-.04 0 2.15 2.15 0 0 1-.42-.2 4.02 4.02 0 0 0-.27-.25l-.17-.22a.63.63 0 0 1-.1-.16c-.04-.1-.06-.2-.12-.29-.07-.09-.06-.27-.06-.45v-.22c0 .02 0 .05.02.07l.01.01c.02 0 .03 0 .03-.02 0-.03.01-.06.03-.07Z" fill="#AD9360"/><path d="m11.11 8.68.3.01c.13 0 .26.06.4.16l-.06.02h-.07a.23.23 0 0 0-.12-.03c-.1 0-.2.02-.28.03-.02 0-.04 0-.05-.02a.06.06 0 0 0-.04 0l-.53-.01a.37.37 0 0 1-.19 0 .51.51 0 0 0-.13-.03c-.07 0-.12-.03-.18-.03a2.02 2.02 0 0 0-.2.02h-.02.02l.02-.01a.7.7 0 0 1 .35-.12l.78.01Z" fill="#575892"/><path d="M6.2 8.78c0 .18 0 .36.07.45.06.08.08.2.12.29l.1.16.17.22c-.12.1-.22.25-.3.46 0 .01 0 .02-.02.03a.65.65 0 0 0-.21.3.52.52 0 0 0-.19.18c-.08.12-.13.26-.16.44-.13.12-.24.27-.34.45-.12.24-.24.48-.39.7l-.34.48c-.13.17-.22.35-.33.54a.34.34 0 0 1-.12.13c-.1.05-.09.23-.1.37-.1 0-.16-.08-.16-.2v-2.55c.05 0 .1-.02.12-.07a.22.22 0 0 1 .15-.14c.02 0 .04-.02.05-.04.03-.05.03-.12.06-.18.05-.11.09-.24.18-.34l.16-.15c.2-.21.37-.47.59-.67l.22-.21c.15-.16.29-.36.42-.54.07-.1.16-.14.26-.11Z" fill="#FCAA23"/><path d="M11.75 8.87v.01l-.02.02-.57 1.58c0-.04 0-.06-.03-.06a.13.13 0 0 0-.1.05s0 .02-.02.02a.3.3 0 0 1-.14.01h-.04l-.12.11a.07.07 0 0 0-.02.03.55.55 0 0 1-.12.24l-.34.31c-.02.03-.1.04-.21.06l-.22.07a.09.09 0 0 0-.04.02c-.1.1-.21.12-.34.07.1-.17.19-.33.25-.48.06-.15.04-.32.16-.47.1-.12.17-.25.22-.4l.2-.47c.06-.13.17-.25.2-.4 0-.1.1-.18.16-.25a.12.12 0 0 0 .03-.05l.02-.05h.53l.04.01c.01.02.03.02.05.02l.28-.03c.04 0 .09 0 .12.03h.07Z" fill="#C277FF"/><path d="M8.3 8.84c0 .06-.02.12-.05.18a1.3 1.3 0 0 0-.1.16c-.07.17-.14.31-.22.44l-.39.66c-.03.06-.07.07-.14.04-.12-.04-.22-.14-.32-.2-.13-.06-.36-.21-.43-.36.27-.23.47-.5.6-.82 0-.02.02-.03.03-.04a.1.1 0 0 1 .06-.02h.26a.65.65 0 0 1 .24 0c.07.02.12.02.15.02l.31-.06Z" fill="#F1FD7B"/><path d="M6.66 9.9a4 4 0 0 1 .27.24c.14.09.28.16.42.22.05 0 .1.04.14.1.04.07.02.13-.05.18a.21.21 0 0 1-.07.03c-.1.01-.14.07-.17.17v.02a.08.08 0 0 1-.06.02c-.02 0-.03 0-.04-.02-.06-.06-.1-.12-.2-.13a1.6 1.6 0 0 0-.38-.06c-.11.02-.24.02-.4.02a.65.65 0 0 1 .22-.3l.03-.03c.07-.2.17-.36.3-.46Z" fill="#E9DD4C"/><path d="M11.16 10.48c-.04.14-.13.12-.22.15-.13.04-.17.13-.13.25a.8.8 0 0 1-.09.25l-.07.1a.22.22 0 0 0-.04.23c0 .04 0 .07-.02.1V11.68l-.03.1c-.23.03-.31.35-.3.56L10.02 14h-1.6c.07-.08-.04-1.03 0-1.12.03-.06.79-.88.76-.94 0-.04 0-.07.04-.08.1-.05.14-.14.1-.26a.2.2 0 0 1 .13-.04c.1 0 .22 0 .36-.02.02 0 .04-.02.05-.03.04-.05.1-.09.16-.1a.1.1 0 0 0 .07-.1l-.01-.04-.06-.02c.12-.02.19-.03.21-.06l.34-.3a.55.55 0 0 0 .12-.25s0-.02.02-.03l.12-.1.04-.01.14-.01.03-.02a.13.13 0 0 1 .1-.05c.02 0 .02.02.02.06Z" fill="#B16EE2"/><path d="M12.14 10.45h.1v.03c-.07.06-.05.2-.04.3v.03l-.02.02-.23.02-.12.1c-.06.04-.12.03-.19.04a.09.09 0 0 0-.05.03.58.58 0 0 1-.27.17.35.35 0 0 0-.13.08c-.06.05-.12.1-.2.14-.05.04-.08.1-.13.13a.34.34 0 0 1-.12.06.35.35 0 0 0-.14.08.16.16 0 0 1-.02-.07l.01-.05a.12.12 0 0 0 .02-.1c.03.04.06.05.1.02.08-.05.13-.15.21-.18.06-.02.11-.03.16-.06l.27-.16c.1-.06.17-.17.27-.23a.32.32 0 0 0 .1-.11c.04-.07.11-.09.15-.16a.3.3 0 0 1 .08-.12.46.46 0 0 1 .19 0Z" fill="#181816"/><path d="M8.62 10.64v.26c-.02.14.12.2.2.29.1.11.26.07.36.19.06.09.16.08.24.03.13.05.24.03.34-.07a.09.09 0 0 1 .04-.02l.22-.07.06.02.01.04a.1.1 0 0 1 0 .04.1.1 0 0 1-.07.06.28.28 0 0 0-.16.1.07.07 0 0 1-.05.03l-.36.02a.2.2 0 0 0-.12.04c-.07 0-.14-.04-.19-.12a.07.07 0 0 0-.03-.03.26.26 0 0 0-.2 0 .26.26 0 0 1-.1 0c-.01 0-.02 0-.03-.02a.35.35 0 0 0-.06-.17 5.87 5.87 0 0 1-.16-.21.06.06 0 0 0-.07 0 2.8 2.8 0 0 0-.08.21c-.02.08 0 .14.04.19l.02.01H8.64l.02.01.01.03v.08c0 .02.01.04.03.05.06.03.1.08.13.17l.01.02.03.02c.11.03.23.04.35.02-.03.01-.04.04-.04.08-.14.05-.25.04-.33-.03a.67.67 0 0 0-.13-.09.26.26 0 0 0-.17 0h-.01l-.01.02c-.03.07-.01.15-.04.22l-.06.18c-.01.05-.02.1-.05.16a.6.6 0 0 0-.03.16l-.03.24c-.02.07-.03.15-.03.22a6.2 6.2 0 0 1-.05.5.27.27 0 0 0-.14.16c-.05.15-.24.14-.19.32h-.8c.24-.98.6-1.77.8-1.98H8c.05-.03.08-.08.08-.16.07-.1.05-.2.04-.31 0-.02 0-.04.02-.05a.07.07 0 0 1 .04-.03c.08-.02.13-.08.15-.17 0-.01 0-.03.02-.04a.73.73 0 0 0 .14-.39c0-.03.02-.04.04-.06l.02-.02.08-.15Z" fill="#5E88B0"/><path d="m7.2 10.86-.02.09v.01l-.02.01h-.03a.24.24 0 0 0-.1-.06.41.41 0 0 0-.13-.08 3.52 3.52 0 0 0-.73-.02.2.2 0 0 0-.15.08.63.63 0 0 0-.12.23.7.7 0 0 1-.12.19c.03-.18.08-.32.16-.44a.52.52 0 0 1 .19-.18c.14 0 .28 0 .4-.02.04 0 .17.01.38.06.08.01.13.07.19.13l.04.02c.02 0 .04 0 .05-.02Z" fill="#BAB054"/><path d="m12.2 10.78.03.03c0 .02.02.02.04.02.08 0 .12.05.12.13a.08.08 0 0 0 .02.05c.03.03.06.04.1.05.03 0 .04.02.04.05 0 .12.07.17.2.14l.01.21a.42.42 0 0 0 0 .16h-.02l-.53.02H11.88l-.01.02-.02.02v.02l.03.25c-.03 0-.05.03-.04.1 0-.06 0-.15-.05-.2-.02-.02-.05-.02-.09 0l-.02-.04c0-.12.01-.18.06-.18.1.02.14-.04.11-.15a.28.28 0 0 1 .15-.06c.02 0 .03-.01.03-.03 0-.05.03-.1.06-.13a.06.06 0 0 1 .05-.01c.07 0 .14-.02.2-.05l.03-.02a.07.07 0 0 0 0-.08.06.06 0 0 0-.03-.02l-.08-.04c-.02 0-.03-.01-.03-.03a.34.34 0 0 0-.04-.13s0-.02-.02-.02h-.22l.23-.03c.01 0 .02 0 .02-.02v-.03Z" fill="#1D1919"/><path d="M7.02 10.91c.06.03.1.07.14.12l.02.04c0 .07-.03.13-.08.18a.07.07 0 0 0-.02.03l-.04.15-.05.11c-.01.02-.02.03-.04.03-.1 0-.2.01-.29.05a.76.76 0 0 0-.2.13.7.7 0 0 1-.3.16h-.04a.07.07 0 0 1-.03-.03.41.41 0 0 0-.07-.1L6 11.74a.22.22 0 0 0-.04-.09.08.08 0 0 1-.01-.04l-.05-.5a.63.63 0 0 1 .12-.23.2.2 0 0 1 .15-.08c.31-.02.55 0 .73.02.02 0 .06.03.12.08Z" fill="#F1FD7B"/><path d="m7.83 11.07.26.75c-.05.21-.86 1.76-.83 1.98-.05.12-.1.2-.18.2H5.55c.15-.17.27-.39.38-.61.02-.07.1-.16.2-.27.31-.33.22-.83.5-1.16h.08v-.03l.02-.11c-.01-.04-.04-.06-.1-.06l-.03-.01c-.02-.01-.01-.03 0-.06l.02-.01.36-.07H7c.03-.05.04-.11.03-.18l.05-.15c0-.01 0-.03.02-.03.05-.05.08-.1.08-.18 0-.07-.1-.13-.16-.16.1.03.83-.28.81.16Z" fill="#5FDC2A"/><path d="M13.29 11.67c0-.03-.03-.04-.1-.04.05 0 .08-.03.09-.13 0-.04.02-.07.05-.07h.08l.03-.03a.69.69 0 0 0 .03-.27.1.1 0 0 0-.02-.06.08.08 0 0 0-.04-.02c-.14-.04-.3-.04-.45-.01-.04 0-.05-.02-.05-.05 0-.06.03-.11.09-.11a11.99 11.99 0 0 1 .44.02l.03.04c.01.04.04.08.08.1.03.02.05.04.05.08a4.78 4.78 0 0 1-.02.27.14.14 0 0 1-.05.04.08.08 0 0 0-.04.03.18.18 0 0 0-.03.1.05.05 0 0 1 0 .04l-.02.02h-.02c-.08 0-.12.02-.13.05Z" fill="#3F2E19"/><path d="M13.2 11.63c-.07-.02-.1.04-.1.2.02.5 0 1.03 0 1.54-.03.04-.09.04-.17.02v-.97l-.01-.74a.05.05 0 0 0-.02-.03l-.02-.01h-.02l-.1-.02v-.16c.02-.02.05-.03.08-.03h.04l.01-.03v-.02c0-.09 0-.27.07-.34.15-.03.3-.03.45 0l.04.03a.1.1 0 0 1 .02.06c0 .1 0 .18-.04.27l-.02.02-.08.01c-.03 0-.05.03-.05.07-.01.1-.04.14-.08.13Z" fill="#fff"/><path d="M9.33 11.6c.03.12 0 .21-.1.26a.82.82 0 0 1-.36-.02l-.03-.02-.01-.02c-.03-.09-.07-.14-.13-.17a.06.06 0 0 1-.03-.05v-.11H8.46l-.02-.02c-.04-.05-.06-.11-.04-.18a2.78 2.78 0 0 1 .08-.21l.03-.02h.04l.03.03.13.2c.04.04.06.09.06.16l.03.03c.04 0 .07 0 .1-.02a.26.26 0 0 1 .2.01l.03.03c.05.08.12.12.19.12Z" fill="#81BBF9"/><path d="m5.9 11.12.05.5.01.04.04.09.01.02a.4.4 0 0 1 .08.1l.03.04h.05a.7.7 0 0 0 .3-.16.63.63 0 0 1 .48-.18c.02 0 .03-.01.03-.03l.05-.1c.01.06 0 .12-.03.16l-.02.01-.36.07-.01.01c-.02.03-.03.05 0 .06l.03.01c.05 0 .08.02.09.06 0 .04-.02.07-.01.11a.07.07 0 0 1-.02.05l-.11.13a.11.11 0 0 0-.03.06c0 .03-.02.06-.03.08l-.02.04c-.05.33-.16.6-.38.83-.1.11-.17.2-.2.27-.1.22-.23.44-.37.61h-1.4c.01-.14 0-.34.1-.4.05-.02.09-.07.12-.12.11-.19.2-.37.33-.54l.34-.49c.15-.21.27-.45.4-.69.1-.18.2-.33.33-.45a.7.7 0 0 0 .12-.19Z" fill="#ECDC15"/><path d="M13.2 11.63c.06 0 .09.01.08.04v1.7l-.02.02a.21.21 0 0 1-.12.01c0-.02-.02-.03-.03-.03v-1.55c-.01-.15.02-.21.08-.2Z" fill="#1D1919"/><path d="M11.68 11.8c0 .03.01.04.02.04l-.06.3-.02.03c-.08.05-.14.1-.17.19 0 0 0 .02-.02.02l-.02.01c-.03.02-.05 0-.06-.04v-.12l-.03-.03c-.05 0-.11-.03-.12-.1a3.77 3.77 0 0 1-.02-.36c0-.05.03-.08.07-.08h.02c.04 0 .06.02.05.07a.74.74 0 0 0 .04.4l.02.02a.05.05 0 0 0 .06 0l.02-.03.04-.09a.1.1 0 0 0 0-.05c0-.03 0-.06.02-.08 0-.02.02-.03.03-.03l.13-.06Z" fill="#181816"/><path d="M10.56 11.78c.04.06.06.11.06.16-.01.15 0 .3.01.43.06.1-.01.17.08.27l.06.1.03.34c0 .09.04.13.11.14.02 0 .03.02.03.03.04.08.03.13.13.16 0 0 .02 0 .03.02l.02.03c.03.2.04.4.02.54H9.5c0-.07.01-.14.06-.17a.53.53 0 0 0 .19-.25h.23c.02 0 .04-.01.05-.03a.08.08 0 0 0 .02-.05c0-.06-.02-.1-.06-.1h-.13l.05-.4h.1c.02-.01.03-.02.03-.04a.32.32 0 0 0 .01-.13.56.56 0 0 1 .03-.36v-.01l.03-.01.07-.02c.02 0 .04-.01.05-.03a.1.1 0 0 0 .02-.06c-.01-.2.07-.53.3-.56Z" fill="#E2D3BB"/><path d="M9.18 11.94c.02.06.02.13 0 .19l-.16.26c-.11.03-.18.1-.2.24l-.02.16c0 .02-.01.03-.02.03a.06.06 0 0 0-.02.04c-.04.16-.1.32-.17.45 0 .02-.02.03-.03.03a.18.18 0 0 0-.06.08.43.43 0 0 0-.04.23.5.5 0 0 1 0 .1c-.01.09-.03.15 0 .25H7.9c-.05-.18.15-.17.2-.32a.27.27 0 0 1 .13-.16l.02-.04.03-.46c0-.07 0-.15.03-.22l.03-.24a.6.6 0 0 1 .04-.16l.04-.16.06-.18c.03-.07.01-.15.04-.22v-.02h.02c.06-.02.11-.02.17 0 .02 0 .06.04.13.1.08.06.2.07.33.02Z" fill="#81BBF9"/><path d="M10.8 12.56c0 .12-.03.11-.1-.02a5.59 5.59 0 0 1-.07-.3v-.38l.02-.01h.03c.04 0 .06.02.07.06l.05.65Z" fill="#3F2E19"/><path d="M11.88 11.95c.07.08.16.09.15.25v.18c0 .01-.01.02-.03.02h-.1a.84.84 0 0 1-.05-.24l-.02-.1c0-.08.02-.11.05-.11Z" fill="#181816"/><path d="M12.03 12.2v.1c-.02.11.08.13.15.14.01 0 .02.01.02.03v.16c0 .12-.03.18-.11.17-.04 0-.05 0-.06-.03l.01-.06c.04-.07.03-.16-.02-.25-.01-.03-.06-.05-.13-.06H12c.02 0 .03 0 .03-.02v-.18Z" fill="#3F2E19"/><path d="M12.75 12.26v.97a.5.5 0 0 1-.02.17c.01 0 .01 0 0 0l-.09.01-.38-.01c-.02 0-.03-.01-.03-.03-.03-.1-.08-.13-.16-.16l-.02-.02v-.03l-.02-.22c0-.07.02-.12.06-.14.08 0 .12-.05.11-.17l.02-.37.01-.03.03-.01c.18-.01.35 0 .5.04Z" fill="#F1FD7B"/><path d="M10.64 12.24a5.62 5.62 0 0 0 .07.3c.06.13.1.14.1.02.06.09.11.2.14.31l.03.29.01.02.01.01c.03.02.06.03.1.02.03 0 .04.01.06.03-.03.1-.02.15.02.18.09.09.09.2.1.31.02.06.05.09.1.09.15 0 .28 0 .43-.02.03 0 .05.02.05.06v.12c-.27.02-.5.02-.72-.02.02-.14.01-.3-.02-.5l-.02-.03a.07.07 0 0 0-.03-.02c-.1-.03-.09-.08-.12-.16a.05.05 0 0 0-.04-.03c-.07 0-.1-.05-.1-.14l-.04-.34c0-.03-.03-.06-.06-.1-.1-.1-.02-.18-.08-.27v-.13Z" fill="#6E431C"/><path d="M13.1 13.37c.02 0 .03.01.04.03-.02 0-.04 0-.03.02a.9.9 0 0 1-.01.13c0 .04-.05.05-.13.04a.04.04 0 0 0-.03.01v.02l-.01.02-.01.1c0 .02-.02.04-.03.04l-.09.02a.05.05 0 0 0-.03.02.22.22 0 0 0-.03.11c-.01.03-.04.04-.08.05h-.25l-.03-.17c0-.02-.01-.03-.03-.03l-.2.01c-.04 0-.07-.01-.08-.05v-.04c0-.05.03-.07.08-.08l.33-.01.05.01.02.03.01.08c.06.1.12.1.2-.01v-.09c0-.02 0-.03.02-.03h.09l.04-.01a.06.06 0 0 0 .01-.05v-.15c.1.02.15.02.19-.02Z" fill="#3F2E19"/><ellipse cx="10.23" cy="3.45" rx=".23" ry=".18" fill="#B4E12C"/></svg>