<!-- by TradingView --><svg width="18" height="18" viewBox="0 0 18 18" xmlns="http://www.w3.org/2000/svg"><path fill="#181B1E" d="M0 0h18v18H0z"/><path d="m8.25 7 1.62-3 .22.45.33-.45L15 13h-3.22c-.11.01-.37-.05-.48-.41-.1-.29-1.27-2.67-2.22-4.57a1 1 0 0 0-.42-.44.89.89 0 0 0-.67.36L6.85 9.8h1.26c1.01 0 1.89.69 1.89 1.7S9.12 13 8.1 13H3.78l2.12-3H4.73C3.77 10 3 9.47 3 8.5S3.77 7 4.73 7h3.52Zm.14 5.7c.66-.16 1.37-.48 1.37-1.2s-.7-1.25-1.37-1.41c.44.3.74.61.74 1.2s-.3 1.1-.74 1.41ZM6.16 9.8h.3l1.34-2c.1-.16.24-.27.4-.34a1 1 0 0 0-.84.4L6.16 9.8Zm8 2.96h.45l-4.23-8.29-.16.24 3.94 8.05Z" fill="#7AEEAD"/></svg>