<!-- by TradingView --><svg width="18" height="18" viewBox="0 0 18 18" xmlns="http://www.w3.org/2000/svg"><path fill="#F0F3FA" d="M0 0h18v18H0z"/><path d="M10 9.38V10H5l2.88-5 1.39 2.5H8.5l-.62-1.25-1.73 3.13H10Z" fill="#44B4AC"/><path d="M8 8.63V8h5l-2.88 5-1.54-2.5h.77l.77 1.25 1.73-3.13H8Z" fill="#44B4AC"/><path d="M4 9.3a5 5 0 1 0 10-.6 5 5 0 0 0-10 .6ZM15 9A6 6 0 1 1 3 9a6 6 0 0 1 12 0Z" fill="url(#a3d1ko00u)"/><defs><linearGradient id="a3d1ko00u" x1="11.65" y1="3.71" x2="6.35" y2="14.12" gradientUnits="userSpaceOnUse"><stop stop-color="#837DBA"/><stop offset=".5" stop-color="#0F67A3"/><stop offset="1" stop-color="#56BCAF"/></linearGradient></defs></svg>