<!-- by TradingView --><svg width="18" height="18" viewBox="0 0 18 18" xmlns="http://www.w3.org/2000/svg"><path fill="#DDAC7B" d="M0 0h18v18H0z"/><circle cx="9" cy="9" r="6" fill="#4F6D6A"/><path d="m12.4 4.06-.15 1.13c-.02.14-.05.15-.1 0a2.7 2.7 0 0 1-.15-.56c-.03-.2-.07-.34-.13-.4a.64.64 0 0 0-.4-.24c-.07 0-.1.02-.07.08l.48 1.2c.01.04-.04.07-.07.06l-.01-.02-.28-.69c-.01-.03-.02-.03-.03 0v.1c-.1-.29-.1-.5-.15-.75-.04-.19-.16-.35-.18-.57.44.17.86.4 1.25.66Z" fill="#375152"/><path d="M9.9 3.07a5.78 5.78 0 0 0-.36-.05c-.43.31-1.2.31-1.6.07l-.14.03c.03.67-.3.21-.34.08-.3.08-.59.18-.87.3l-.22.55-.25.62.2-.13a.05.05 0 0 1 .05 0 .05.05 0 0 1 .03.04v.1c0 .09 0 .17-.02.24-.02.11-.04.22-.02.35.02.13 0 .22-.04.34v.04c.05.24.04.47-.05.72.02.17 0 .34-.04.53.05.3 0 .6-.15.9v.02h.04c.9-1.12 1.17-3.76.62-.22-.03.2-.04.4-.01.59l.02.6.01.06c.05.1.08.19.1.28.17.13.32.29.44.46.15.07.25.16.31.27.06.12.09.28.08.5.02.32-.12.67-.5.62-.03 0-.04 0 0 .02.13.1.26.1.38.04a.83.83 0 0 1 .18-.08l.04-.03c.14-.14.2-.34.2-.61-.12-.34-.3-.7-.52-1.06-.19-.2-.32-.41-.37-.67a3.32 3.32 0 0 1-.08-.82c1.81 1 4.17.7 4.35.76.13.04.28.01.44-.01l.23-.03c.02 0 .03 0 .04-.02v-.02c-.12-.23-.19-.4-.2-.5-.03-.2-.08-.39-.14-.58l-.06-.33a30.14 30.14 0 0 1-.06-.35c.02-.02.03-.02.04 0 .03.09.08.2.15.31l.15.3.18.45.02.17a1 1 0 0 1 0 .5l.01.03h.03c.06 0 .13 0 .2.02a2.56 2.56 0 0 0-.07-.47 1.2 1.2 0 0 1-.05-.26l-.01-.26c-.1-.34-.22-.66-.39-.96a5.66 5.66 0 0 1-.25-.72h.04l.38.47.27.36A2.5 2.5 0 0 1 13 8.02v.3a.7.7 0 0 1-.13.44l-.02.04.18.18a.1.1 0 0 0 .04-.04c.05-.1.08-.22.09-.33l-.03-.59a4.14 4.14 0 0 0-.89-1.67c-.1-.16-.21-.3-.34-.45-.06-.07-.13-.2-.23-.4 0-.18-.05-.34-.1-.49-.04-.1-.08-.18-.1-.28-.06-.2-.09-.37-.1-.53a5.55 5.55 0 0 0-.04-.23l-.08-.23c-.04-.1-.09-.21-.1-.34a6 6 0 0 0-1.26-.33Z" fill="#11151E"/><path d="m9.78 4.28.34.34-.62-.05a.15.15 0 0 0-.15.1c-.03.09-.05.2-.05.32v.06c0 .04.02.04.04.02L9.41 5h.04c.01 0 .02 0 .02.02l.02.16a.8.8 0 0 0 .13.23.06.06 0 0 0 .05.03h.3a.17.17 0 0 0 .15-.1.48.48 0 0 1 .13-.18.03.03 0 0 1 .03 0h.01v.02c0 .23-.05.45-.13.68-.05.14-.12.25-.18.33-.07.08-.06.1.02.03a1.51 1.51 0 0 0 .26-.26.02.02 0 0 1 .02.02c0 .19.03.32-.09.49l-.18.2c-.22.21-.46.39-.72.54-.12.07-.24.1-.37.04l-.38-.16c-.2-.08-.37-.18-.51-.28a1.07 1.07 0 0 1-.4-.57V6.2l.06-.02.08.03c.04 0 .05-.01.02-.04l-.04-.03c.27-.07.47-.23.42-.54.07-.02.1-.1.12-.2a.02.02 0 0 0-.02-.02h-.02c-.02 0-.03.01-.04.03l-.02.1c-.01-.06-.04-.08-.09-.07h-.06c-.07.01-.1.04-.11.1-.01-.07 0-.1.02-.1.14 0 .2-.03.19-.12.18-.03.22-.13.1-.3-.04-.07 0-.1-.03-.17a1.56 1.56 0 0 1-.1-.36l.01-.02h.05l.01.02.13.33a.05.05 0 0 0 .03.03h.08a.05.05 0 0 1 .06 0c.06.06.1.12.09.17 0 .07.02.08.08.03l.34-.3a.16.16 0 0 0 .04-.06l.12-.32h.02l.02.02v.02l-.08.46c0 .03 0 .04.03.02.1-.1.16-.44.19-.55 0-.02.03-.03.08-.05h.37Z" fill="#C38371"/><path d="m6.4 4.69-.34.59c-.19.37-.3.64-.35.81-.06.23-.1.45-.1.66 0 .09.02.1.07.02.18-.25.34-.53.47-.84a.7.7 0 0 0 .16-.28c.06.24.05.47-.04.72l-.58.77a.1.1 0 0 0-.02.06 1.68 1.68 0 0 0 .21.7.03.03 0 0 0 .05 0l.3-1c.05.3 0 .6-.15.9v.02h.04c.47-.59.6-1.57.63-2.35 0-.14.03-.15.08-.02.13.36.3.53.24.92-.05.37-.27.86-.33 1.23-.03.2-.04.4-.01.59l-.07.03c-.15-.04-.3-.05-.46-.05-.2.05-.4.15-.57.3l-.01-.02a.27.27 0 0 0-.09-.13l-.14-.4v-.37c-.01-.06-.03-.07-.07-.03l-.35.4-.25.32-.04.06c-.09.14-.15.3-.19.48l-.02.04c.03.17.04.32.04.45 0 .1.04.2.14.29l-.2.16c-.14-.3-.19-.65-.13-1.05l.1-.33.1-.18a.17.17 0 0 0 .06-.08l.33-.42a.55.55 0 0 0 .15-.15c.02-.02.03-.03.03-.05l.2-.22c.06-.07.1-.16.11-.25.1-.53.19-.97.43-1.54l.04-.07c0-.01 0-.03.02-.05l.23-.66.2-.13a.05.05 0 0 1 .05 0 .05.05 0 0 1 .03.04v.1Z" fill="#11151E"/><path d="M10.12 4.62c.1.07.17.15.2.24a.33.33 0 0 1-.21-.11.06.06 0 0 0-.06-.02c-.04.01-.07 0-.1-.02a.06.06 0 0 0-.05-.03c-.21.04-.35-.06-.5.18a.78.78 0 0 1-.1.13c0-.12.02-.23.05-.32a.15.15 0 0 1 .15-.1l.62.05Z" fill="#A85E50"/><path d="M10.96 4.78c-.01 0-.02 0-.02.02-.08.05-.14.06-.19.05.01-.07.04-.11.1-.13.04-.02.07 0 .1.06Z" fill="#E1D4C9"/><path d="M10.68 5.8a.27.27 0 0 1 .03-.21c.22-.18.22-.53.23-.8 0-.01 0-.02.02-.01.08.14.1.28.06.41-.05.2-.16.4-.34.62Z" fill="#C38371"/><path d="M10.94 4.8c0 .26-.01.6-.23.79l.01-.54.03-.2c.05.01.11 0 .2-.05Z" fill="#984C44"/><path d="M10.12 4.96c.07.05.07.13 0 .22 0-.03-.01-.05-.02-.05h-.06l-.02.02v.09l-.11-.16h.1c.03 0 .05-.02.04-.05l-.01-.07c0-.03 0-.04.04-.03l.04.03Z" fill="#957659"/><path d="M4.55 4.98c.05.75.05 1.54 0 2.36-.01.22 0 .46.04.72v.02a.17.17 0 0 1-.06.08.73.73 0 0 0-.64-.24.21.21 0 0 0-.18.24l.1.56a.05.05 0 0 0 .05.04h.32c.03 0 .04-.01.05-.03l.19-.39-.1.33-.03.04-.05.08a.06.06 0 0 1-.05.03h-.36a.1.1 0 0 1-.09-.1c.01-.08 0-.17-.02-.27l-.04-.6c0-.02-.02-.03-.04-.03l-.52-.01.02-.08 1.04-.05c.02 0 .03-.01.03-.03a1.8 1.8 0 0 0-.23-.6.16.16 0 0 0-.13-.07l-.5-.01c.09-.23.18-.45.29-.67.24.03.4.02.48-.02.4-.2.44-.5.09-.89.1-.14.22-.28.34-.41Z" fill="#DDAC7B"/><path d="M10.72 5.05v.54a.27.27 0 0 0-.04.22l-.16 1.04a9.1 9.1 0 0 0-.21 1.55c-.06.18-.08.38-.05.58-.06.3-.03.57.09.8l-.06.06c-.12-.19-.2-.42-.22-.68l.04-.9c.02-.17.06-.53.1-1.1.05-.69.23-1.4.51-2.1Z" fill="#211F28"/><path d="M10.12 5.18c0 .1-.05.15-.13.16-.03.01-.04 0-.02-.03l.05-.07v-.09l.02-.02h.06s.02.02.02.05Z" fill="#DDAC7B"/><path d="m7.84 5.34.04.02c.03.01.03.03 0 .05l-.06.07a.04.04 0 0 0 0 .06l.04.03v.01c0 .02 0 .03-.02.03h-.03a.7.7 0 0 1-.24-.15c-.06-.1-.04-.18.08-.26.04-.03.07-.02.07.04v.12c0 .03.01.04.04.04s.06-.03.08-.06Z" fill="#C38371"/><path d="M6.06 5.28c.03.04.08.06.14.05l.06.01c.04.03.04.07 0 .12-.09.15-.12.3-.1.47-.14.3-.3.59-.48.84-.05.07-.07.07-.07-.02 0-.2.04-.43.1-.66.05-.17.16-.44.35-.81Z" fill="#D3F4F4"/><path d="M8.14 5.32c.02.09-.05.13-.2.12-.02 0-.02.03-.01.1.09.08.18.07.26-.04l.02-.09c0-.02.02-.03.04-.03h.02a.02.02 0 0 1 .02.01v.01c-.01.1-.05.18-.12.2-.26.13-.49.1-.67-.1.05 0 .07 0 .07-.04a.7.7 0 0 0 .24.15h.03c.01 0 .02-.01.02-.03l-.04-.04a.04.04 0 0 1 0-.06l.07-.07c.02-.02.02-.04-.01-.05l-.04-.02a.1.1 0 0 1 .09-.04c.02 0 .04.01.05.03l.03.04c.01.02.03.02.05.01a.2.2 0 0 0 .08-.06Z" fill="#802918"/><path d="M7.37 5.64c.08.21.21.38.38.5.02 0 .03.02.04.03.03.03.02.04-.02.04a.14.14 0 0 1-.08-.03l-.02-.02a.08.08 0 0 0-.05-.03c-.2-.03-.16-.12-.27-.23l-.02-.02a.15.15 0 0 0-.05.04v.05c.1.22.24.36.42.43.09.18.2.31.33.4.14.11.31.2.51.3l-.03.79c-.01.26-.2.4-.56.45a.3.3 0 0 0-.03-.1c-.02-.01-.03-.02-.06-.01-.04.02-.07.05-.07.1-.04.35-.14.66-.32.93-.19-.2-.32-.41-.37-.67a3.32 3.32 0 0 1-.08-.82c.01-.55.04-1.07.08-1.6.02-.29-.07-.47-.16-.7a.15.15 0 0 1-.01-.09c0-.02.02-.04.04-.05h.05c.04.04.1.06.16.07.02 0 .03.01.05.03l.14.2Z" fill="#11151E"/><path d="M7.5 5.5c.18.2.4.23.67.1.05.31-.15.47-.42.54-.17-.12-.3-.29-.38-.5l-.09-.22c-.01-.04 0-.05.04-.05l.02.01a.11.11 0 0 1 .08.06c.02.03.05.05.08.06Z" fill="#B26C5C"/><path d="M5.83 5.45c-.24.57-.33 1-.43 1.54a.55.55 0 0 1-.12.25l-.19.22a17.39 17.39 0 0 1 .03-2.03l.71.02Z" fill="#D3F4F4"/><path d="m13.8 5.4.06.08-1.4.03a.13.13 0 0 0-.12.13c-.02.3 0 .6.05.9a.54.54 0 0 1-.14-.2v-.78c0-.09.06-.14.15-.14a7.8 7.8 0 0 1 1.4-.01Z" fill="#9BB4B6"/><path d="M4.2 5.4c.36.38.33.67-.08.88-.08.04-.24.05-.48.02.16-.32.35-.62.57-.9Z" fill="#FDD08B"/><path d="M8.19 5.5c-.08.11-.17.12-.26.03 0-.05.04-.08.1-.08l.07-.01c.05 0 .08.01.09.06Z" fill="#DDAC7B"/><path d="M13.86 5.48a6 6 0 0 1 .51.85 2 2 0 0 0-.04.5v1a.09.09 0 0 1-.08.09h-1.13c-.15-.5-.4-.96-.73-1.38-.06-.3-.07-.6-.05-.9a.13.13 0 0 1 .13-.13l1.39-.03Z" fill="#D3F4F4"/><path d="M7.7 6.18c-.03 0-.05 0-.06.02v.04l.06.16a.81.81 0 0 1-.42-.43v-.05l.05-.04.02.02c.1.11.07.2.27.23a.08.08 0 0 1 .05.03l.02.02Z" fill="#984C44"/><path d="M14.37 6.33c.03.05.06.1.08.17v1.35a.14.14 0 0 1-.14.14l-1.17.03c-.03-.04-.03-.07-.02-.1h1.13a.09.09 0 0 0 .09-.09l-.01-1c-.01-.16 0-.33.04-.5Z" fill="#9BB4B6"/><path d="m6.23 6.9-.3 1a.03.03 0 0 1-.06 0 1.68 1.68 0 0 1-.2-.7c0-.02 0-.04.02-.06l.58-.77c.02.17 0 .34-.04.53Z" fill="#F8FAF3"/><path d="M12.32 6.63c.33.37.6.8.67 1.28h-.55l-.12-.41a3.82 3.82 0 0 1 0-.87Z" fill="#D3F4F4"/><path d="M10.01 6.67c.02.05.03.1.02.14a.05.05 0 0 0-.04-.02l-.04.01c-.14.13-.28.25-.43.36-.08.06-.18.16-.31.3-.2.2-.43.34-.7.43l.03-.8.38.16c.13.06.25.03.37-.04.26-.15.5-.33.72-.54Z" fill="#84352E"/><path d="M10.03 6.81a.55.55 0 0 0-.02.19L8.73 8.4a.06.06 0 0 0-.02.07c.06.21.13.38.21.5.13.2.1.23-.1.09a2.1 2.1 0 0 0-.73-.31l-.14-.4c.36-.05.55-.2.56-.46.27-.1.5-.24.7-.44.13-.13.23-.23.31-.29a6.83 6.83 0 0 0 .47-.37c.02 0 .03 0 .04.02Z" fill="#A85E50"/><path d="M10.52 6.85c-.03.3 0 .52.05.67.1.25.18.52.25.8-.04-.01-.07 0-.08.04a.35.35 0 0 1-.07.12c-.05.06-.08.03-.09-.08a4.2 4.2 0 0 0-.09-.67c-.01-.07-.02-.07-.03 0-.05.6.04 1.47.54 1.86a2.55 2.55 0 0 1 .6.68h.01l.01-.01v-.01a2.68 2.68 0 0 0-.32-.56c-.02-.03-.02-.06 0-.08l.49.26c.03.02.04.03.03.04.3.2.43.44.43.73-.1-.28-.25-.5-.44-.65l-.22-.14c-.02 0-.03 0-.03.02v.03h.01c.07.04.1.1.1.15 0 .02 0 .05.02.07l.1.23c.05.32.02.6-.1.86-.03.05-.08.1-.15.13l-.01-.02v-.02c.07-.05.1-.13.1-.22.04-.1.04-.16.01-.19a.38.38 0 0 0-.03-.15.7.7 0 0 0-.28-.5.1.1 0 0 0-.06-.02c-.18 0-.4.02-.54-.02a.77.77 0 0 1-.44-.36.18.18 0 0 0 .06-.07c.19.2.42.25.7.16a.04.04 0 0 0 .03-.06l-.01-.02c-.31-.29-.53-.64-.66-1.05l-.1-.4a9.1 9.1 0 0 1 .2-1.55Z" fill="#101923"/><path d="M10.01 7c-.09.47-.05.9.1 1.27l-.04.89c-.82.43-1.49.3-1.98-.41.32.08.57.18.74.3.2.15.22.13.1-.07-.09-.13-.16-.3-.22-.51 0-.03 0-.05.02-.07L10 7Z" fill="#B26C5C"/><path d="m3.35 6.97.5.01a.16.16 0 0 1 .13.08c.1.17.18.37.23.59 0 .02 0 .03-.03.03l-1.04.05.05-.21c.28.05.56.07.85.05.03 0 .04-.02.05-.04.02-.1.01-.2-.08-.27a.76.76 0 0 0-.7-.15l.04-.14Z" fill="#FDD08B"/><path d="M3.19 7.52c.03-.14.07-.28.12-.41a.76.76 0 0 1 .7.15c.09.07.1.16.08.27 0 .02-.02.04-.05.04-.29.02-.57 0-.85-.05Z" fill="#FEEC69"/><path d="m12.32 7.5.12.41c.06.12.25.16.57.1v.3h-.32c-.02 0-.04.01-.03.04 0 .17.07.31.22.41l-.02.04a1.54 1.54 0 0 0-.48-.33h.02a2.56 2.56 0 0 0-.07-.47 1.2 1.2 0 0 1-.05-.26l-.01-.26c.01 0 .03 0 .05.02Z" fill="#4F6D6A"/><path d="M5.4 7.93c-.19.05-.33.05-.43-.01l.35-.4c.04-.04.06-.03.06.03l.01.38Z" fill="#D3F4F4"/><path d="M14.98 8.52a.28.28 0 0 0-.12.06c-.79.08-.72.69-.95 1.22-.73-.7-.38-.52-.77-.75-.14-.38.29-.68.03-.68a6.79 6.79 0 0 1 1.59-.1.05.05 0 0 0 .01-.03l.04-.75c.08.34.14.68.17 1.03Z" fill="#7B7B6F"/><path d="m10.67 8.48.28.67c.04.09.11.2.23.33l.12.13c-.02.02-.02.05 0 .08a2.69 2.69 0 0 1 .32.57v.01a.02.02 0 0 1-.03 0 2.55 2.55 0 0 0-.59-.68c-.5-.39-.6-1.26-.54-1.86 0-.07.02-.07.03 0 .05.2.08.43.1.67 0 .1.03.14.08.08Z" fill="#2F2930"/><path d="m3.72 8.45-.14-.1a.05.05 0 0 0-.05 0 .05.05 0 0 0-.03.04l-.07.68c0 .02 0 .04-.02.05-.14.15-.25.06-.4.05v-.06c.14 0 .28-.04.41-.1.02 0 .03-.02.03-.04a2.35 2.35 0 0 1 0-.86.05.05 0 0 0-.09-.03.6.6 0 0 1-.17.08c-.03 0-.05 0-.06-.02-.04-.04-.05-.1-.04-.18l.03-.15.52.01c.02 0 .04.01.04.04l.04.6Z" fill="#BE9364"/><path d="M13 7.91v.1c-.3.06-.5.02-.56-.1h.55Z" fill="#9BB4B6"/><path d="m4.53 8.16-.11.18-.19.39a.05.05 0 0 1-.05.03h-.32a.05.05 0 0 1-.05-.04l-.1-.56a.2.2 0 0 1 .18-.24c.24-.03.45.05.64.24Z" fill="#FBDD91"/><path d="M3.09 7.96c-.01.08 0 .14.04.18.01.02.03.03.06.02a.6.6 0 0 0 .17-.08.05.05 0 0 1 .09.06c-.05.27-.05.54 0 .83 0 .02 0 .04-.03.05-.13.05-.27.08-.42.1 0-.4.02-.78.09-1.16Z" fill="#DDAC7B"/><path d="m6.2 8.17.38.76c.06.14.42.01.42.07-.11.81-2 3-2.94 1.34a.56.56 0 0 0-.15-.12c-.05-.02-.05-.05 0-.09l.54-.41.2-.16c.36-.33.69-.7.98-1.09.17-.15.37-.25.57-.3Z" fill="#FB7527"/><path d="m6.73 8.19.02.6.01.06c.05.1.08.19.1.28a.29.29 0 0 1-.11.12c0-.07-.03-.12-.07-.15a.05.05 0 0 0-.05 0 .05.05 0 0 0-.03.03.6.6 0 0 1-.13.28c.01-.18.04-.3.1-.37a.1.1 0 0 0 0-.1l-.37-.77c.16 0 .31.01.46.05.02 0 .04 0 .07-.03ZM7.95 8.34l.14.4c.5.71 1.16.85 1.98.42.02.26.1.5.22.68.12.19.26.3.44.36.14.04.36.02.54.02a.1.1 0 0 1 .06.02.7.7 0 0 1 .28.5c-.13-.16-.28-.44-.52-.43-.1 0-.67 0-.79-.16a.07.07 0 0 0-.07-.03c-.34.12-.56.3-.99.6-.28.2-.4.17-.7-.03L8 10.32c-.12-.34-.3-.7-.52-1.06.18-.27.28-.58.32-.93 0-.05.03-.08.07-.1.03-.01.04 0 .06.02a.3.3 0 0 1 .03.1Z" fill="#97351A"/><path d="m4.72 8.24.81.08c.05.04.08.09.09.13a.31.31 0 0 1-.1.09c-.25-.12-.53-.2-.84-.24l.04-.06Z" fill="#BE9364"/><path d="M4.68 8.3c.3.04.59.12.85.24l-.7.79-.3-.5a.11.11 0 0 1-.04-.05c.04-.18.1-.34.19-.48Z" fill="#ECC48E"/><path d="M12.83 9.33c.2-.4.5 1.32.56 1.4.02.03.03.03.06.03l.25-.05c.06.14.16.24.3.3-.13.3-.31.6-.54.86a1.2 1.2 0 0 0-.31.4.05.05 0 0 1-.06.03l-.02-.01-.46-.5.02-.76c0-.06-.02-.07-.06-.03l-.43.44c-.02.02-.04.02-.06 0-.02-.01-.03-.04-.01-.07.14-.27.2-.52.18-.73 0-.29-.14-.53-.43-.73l.17-.48s.01-.02.03-.02c0 0 .75.03.81-.08Z" fill="#97351A"/><path d="M13.01 8.31a.7.7 0 0 1-.13.45.49.49 0 0 1-.22-.41c0-.03 0-.04.03-.04h.32Z" fill="#8D8A7E"/><path d="M10.82 8.33c.16.07.35.13.55.2.2.06.46-.03.67-.04.02 0 .03 0 .04-.02v-.02l.09-.03v.03h.03a1.08 1.08 0 0 1 .18.02c-.25.08-.46.21-.63.4l-.57.61c-.12-.13-.2-.24-.23-.33l-.28-.67a.35.35 0 0 0 .07-.12c.01-.04.04-.05.08-.03Z" fill="#97351A"/><path d="M13.14 9.05c-.04-.03-.06-.07-.06-.1.05-.11.08-.22.09-.34v-.24a6.72 6.72 0 0 1 1.2.15.03.03 0 0 1 0 .04c-.15.16-.37.46-.62.45h-.24l-.37.04Z" fill="#8D8A7E"/><path d="m10.31 8.4.1.4-.15.18c-.03-.2-.01-.4.05-.58Z" fill="#A85E50"/><path d="M12.38 8.47c.2.09.35.2.48.33l.18.18c.33.39.69.75 1.08 1.08l.35.25c.02.02.02.03 0 .05l-.18.22-.28.43c-.15-.06-.96-.38-1.01-.51-1.13-1.07-.66-1.58-1.21-.63l-.49-.26-.12-.13c.2-.2.4-.4.57-.6.17-.2.38-.33.63-.41Z" fill="#FB7527"/><path d="M14.98 8.52c.05.58.01 1.15-.1 1.72-.08-.06-.18-.08-.3-.06a.07.07 0 0 0-.05.04.08.08 0 0 0-.01.06c.04.15.02.27-.06.36l-.17-.06.18-.22c.02-.02.02-.03 0-.05l-.35-.25c.28-.19.76-.5.71-.89a1.45 1.45 0 0 1 .01-.57l.02-.02a.27.27 0 0 1 .12-.06Z" fill="#473328"/><path d="m14.86 8.58-.02.02c-.32.06-.53.23-.63.5-.08.2-.08.54-.08.8v.01a.04.04 0 0 1-.07.01l-.15-.12c.23-.53.16-1.14.95-1.22Z" fill="#755847"/><path d="M14.84 8.6c-.04.12-.04.3 0 .57.04.39-.44.7-.72.89-.39-.33-.75-.7-1.08-1.08a.1.1 0 0 0 .04-.04c0 .04.02.08.06.11.06.03.1.04.15.02l.1-.03h.24c.02 0 .04.01.03.04 0 .08-.05.12-.16.12h-.12l-.02.01-.01.02v.04l.56.53.15.12a.04.04 0 0 0 .07-.03c0-.25 0-.58.08-.8.1-.26.31-.43.63-.49Z" fill="#5A4333"/><path d="M4.32 8.67c-.06.4-.01.75.13 1.05l-.55.41c-.04.04-.04.07.01.09l.15.12-.17.16-.37.37.13-.33a.1.1 0 0 0-.07-.13l-.43-.07a6.02 6.02 0 0 1-.09-.47l.96-.22a.05.05 0 0 1 .05.02v.01l.03.14c.01.05.04.06.08.04l.05-.03a.12.12 0 0 0 .07-.12l-.03-.88.02-.12.03-.04Z" fill="#211D1F"/><path d="M6.35 9.69c-.02.02-.02.04-.01.04l-.02.01h-.04l-.1-.11c-.02-.02-.04-.02-.06 0-.02 0-.02.03-.02.05 0 .24-.03.33-.15.54-.13.22-.2.38-.2.48-.03.34-.07.68-.13 1.02l-.4.4c-.03-.27-.12-.44-.27-.52a2699 2699 0 0 1-.57-.85.36.36 0 0 1-.06-.15l.04.02c.02.06.04.08.08.06.24-.15.4-.27.5-.34.03-.02.04-.02.04.01l.05.21c0 .05.02.05.03 0L5.3 9.5c.01-.03.02-.03.04 0l.03.04.09.27.02.02c.02 0 .03 0 .03-.03a.73.73 0 0 1 .03-.38l.17.42c.01.02.02.03.04 0 .1-.1.2-.24.3-.4.11-.2.05-.47.07-.66v-.01h.04l.01.02.16.88.02.02Z" fill="#97351A"/><path d="M10.35 9.77c-.12-.22-.15-.49-.1-.8l.16-.17a2.43 2.43 0 0 0 .67 1.07.04.04 0 0 1-.03.06c-.28.1-.51.04-.7-.16Z" fill="#802918"/><path d="M4.83 9.33c-.08.06-.13.08-.17.03-.06-.07-.05-.24-.05-.34 0-.07-.04-.14-.08-.2l.3.5Z" fill="#BE9364"/><path d="m7.3 9.6-.2.84-.12.18-.47.24c-.03.02-.04.05-.02.08l.07.07c.05.06.1.1.15.12.02 0 .02.01.02.03l-.01.02a.06.06 0 0 1-.03 0 .88.88 0 0 1-.33-.1c-.1-.04-.16-.2-.22-.3h-.02l-.01.03v.02c.09.19.09.28.25.38.03.02.02.03-.01.04-.04 0-.09-.01-.14-.05l-.11-.06a.08.08 0 0 1-.04-.05 1.63 1.63 0 0 1-.1-.76l.31-.36h.02a.05.05 0 0 1 .03 0 .02.02 0 0 1 0 .02l-.12.32a.13.13 0 0 0 0 .11l.07.11c.02.04.04.04.05 0a4.34 4.34 0 0 1 .47-1.14l-.01-.02a.02.02 0 0 0-.02 0c-.1.14-.2.22-.32.23l.31-.35a.29.29 0 0 0 .11-.12c.17.13.32.29.44.46Z" fill="#101923"/><path d="m5.95 10.33.39-.6.01-.04.09-.09c.12-.01.22-.09.31-.22a.02.02 0 0 1 .02-.01l.02.02v.01c-.2.33-.36.7-.47 1.13-.01.04-.03.04-.05 0l-.06-.11a.13.13 0 0 1-.01-.11l.12-.32a.02.02 0 0 0-.01-.02h-.04l-.32.36Z" fill="#4C413A"/><path d="M7.7 10.35a.25.25 0 0 0-.19-.2c-.02 0-.04 0-.06.02l-.35.27.2-.85c.15.07.25.16.31.27.06.12.09.28.08.5ZM6.34 9.73l-.39.6a1.63 1.63 0 0 0 .11.76c0 .02.02.04.04.05l.11.06c-.17.13-.31.3-.43.52l-.1.1.02-.07c0-.02-.01-.04-.04-.04h-.04c.06-.33.1-.67.13-1.01 0-.1.07-.26.2-.48.12-.21.15-.3.15-.54 0-.02 0-.04.02-.05.02-.02.04-.02.06 0l.1.1.04.01.02-.01Z" fill="#802918"/><path d="m11.81 10 .03.35c0 .02 0 .03-.02.02l-.03-.02-.1-.23a.18.18 0 0 1-.02-.07c0-.06-.03-.1-.1-.14v-.04c0-.02 0-.03.02-.02l.22.14Z" fill="#D05722"/><path d="M12.25 10.64c.01.21-.04.46-.18.73-.02.03-.01.06.01.07.02.02.04.02.06 0l.43-.44c.04-.04.06-.03.06.03l-.02.76a.96.96 0 0 1-.32-.26.07.07 0 0 0-.05-.03H12a.04.04 0 0 0-.04.02.04.04 0 0 0 0 .04c.05.05.06.1.05.13l-.31-.48c.1-.25.14-.54.1-.86l.02.02c.02 0 .03 0 .02-.02l-.03-.36c.2.15.34.37.44.65Z" fill="#802918"/><path d="M11.6 10.74c.03.03.04.08.04.15-.08-.02-.15-.07-.2-.17l-.06-.04a1.85 1.85 0 0 0-.11-.07h-.03l.01.04.38.43a.23.23 0 0 1-.1.22v.04h.01a.44.44 0 0 0 .16-.13l.31.48.09.25c-.1.17-.15.34-.17.52l-.58-.01.43-.52a.21.21 0 0 0-.14-.35l-.72-.07c-.02 0-.03 0-.03.03v.2c0 .03.01.05.05.05h.53v.01a.03.03 0 0 1 0 .04l-.58.7-.1-.1c.11-.37.03-.65-.25-.83a.56.56 0 0 0-.65.03c-.03.02-.05.02-.05-.02v-.03c.14-.26.38-.37.71-.33.04.01.06 0 .06-.05v-.14a.08.08 0 0 0-.07-.08c-.46-.03-.78.12-.97.47-.16.3-.2.63-.1.98.03.03.04.06.04.09a.85.85 0 0 0-.3-.02.15.15 0 0 0-.01-.05l.03-.38.08-1.04a.02.02 0 0 0 0-.02.02.02 0 0 0-.02 0c-.24-.01-.46.03-.67.11a.12.12 0 0 0-.07.12v.14c0 .04.02.06.06.04l.2-.08a.06.06 0 0 1 .06 0 .06.06 0 0 1 .02.06l-.04.4-.06.65h-.47a.05.05 0 0 0-.05.04.27.27 0 0 0-.01.17v-.23l.13-.95c0-.05-.02-.09-.07-.1l-.2-.04c-.04-.01-.07 0-.08.06l-.14.84-.3-.05c.06-.22.17-.6.05-.8-.14-.24-.6-.2-.83-.15a.12.12 0 0 0-.08.1l-.02.14c0 .04.01.05.05.03.08-.03.2-.05.36-.05.08 0 .14.04.17.11l.01.04c.03.07 0 .1-.08.1-.3-.04-.66.03-.81.32-.2.4.15.58.5.54-.64.07-1.03-.22-1.14-.86.12-.22.26-.4.43-.52.05.04.1.05.14.05.03 0 .04-.02 0-.04-.15-.1-.15-.2-.24-.38v-.04c.01-.02.02-.02.03 0 .06.1.11.25.22.3.13.06.24.1.33.1l.03-.01.01-.02c0-.02 0-.03-.02-.03a.4.4 0 0 1-.15-.12c.18-.1.32-.24.42-.4l.12-.17.35-.27a.07.07 0 0 1 .06-.01c.1.03.16.1.18.2.02.32-.12.67-.5.62-.03 0-.04 0 0 .02.13.1.26.1.38.04a.83.83 0 0 1 .18-.08l.04-.03c.14-.14.2-.34.2-.61l.55.37c.3.2.42.23.7.03.43-.3.65-.48.99-.6h.04l.03.03c.12.15.68.16.8.16.23-.01.38.27.5.43Z" fill="#FB7527"/><path d="m4.32 10.6.06.15.57.85a.71.71 0 0 1-.2.22 6 6 0 0 0-.42-.78 3.3 3.3 0 0 0-.44-.54l.17-.16.26.26Z" fill="#984C44"/><path d="M3.9 10.5c.16.17.3.35.43.54a6 6 0 0 1 .44.76l-.35.34-.35.28a6.1 6.1 0 0 1-.42-.7l.39-.3a.2.2 0 0 0 .04-.24l-.17-.31c-.06-.1-.12-.1-.19-.02a1.9 1.9 0 0 1-.33.29l-.02-.06.15-.2.37-.38Z" fill="#B26C5C"/><path d="m14.29 10.58.17.06c0 .03 0 .06.02.07-.3.37-.55.79-.75 1.26a.15.15 0 0 0 .04.17l.21.2-.02.04-.41-.35c.05-.01.02-.07-.1-.16.24-.27.42-.55.56-.86l.28-.43Z" fill="#984C44"/><path d="M11.64 10.9c.03.02.03.09-.01.18l-.38-.43a.04.04 0 0 1 0-.03c0-.02 0-.02.02-.01a1.9 1.9 0 0 1 .16.1c.06.1.13.16.21.18Z" fill="#B1431D"/><path d="M6.98 10.62c-.1.15-.24.29-.42.4a.25.25 0 0 1-.07-.08c-.02-.03-.01-.06.02-.08l.47-.24Z" fill="#97351A"/><path d="m14.48 10.71.2.22-.08.23a.66.66 0 0 0-.3.67c-.1.18-.2.35-.32.51l-.21-.2a.16.16 0 0 1-.04-.17c.2-.47.45-.89.75-1.26Z" fill="#B26C5C"/><path d="M3.65 11.72c-.1-.19-.18-.38-.26-.58.15-.1.26-.2.33-.29.07-.08.13-.07.19.02l.17.3a.2.2 0 0 1-.04.26l-.39.3Z" fill="#FBC6A3"/><path d="m10.79 12.44-.11.15c-.28-.03-.56 0-.82-.06a5.9 5.9 0 0 1-.38-.1c-.1-.34-.07-.66.09-.97.19-.35.51-.5.97-.47a.08.08 0 0 1 .07.08v.14c0 .04-.02.06-.06.05-.33-.04-.57.07-.7.33l-.01.03c0 .04.02.04.05.02.2-.14.44-.17.65-.03.28.18.36.46.25.83ZM9.23 12.08l-.03.14c0 .01-.01.02-.03.01l-.09-.03v-.02c0-.07-.02-.12-.04-.16A.04.04 0 0 0 9 12h-.03a.18.18 0 0 1-.07.04H8.9a.04.04 0 0 1-.03-.02v-.01l-.02-.2.04-.4a.06.06 0 0 0-.07-.06l-.2.08c-.05.02-.07 0-.07-.04v-.14c0-.05.02-.1.07-.12a1.48 1.48 0 0 1 .68-.1l-.07 1.05ZM7.6 12.2v.01c-.2.07-.36.17-.5.3l-.18.07c-.35.04-.7-.15-.5-.54.15-.3.5-.36.81-.32.09 0 .11-.03.08-.1l-.01-.04a.17.17 0 0 0-.17-.11.94.94 0 0 0-.36.05c-.04.02-.05 0-.05-.03l.02-.13a.12.12 0 0 1 .08-.1c.22-.06.69-.1.83.14.12.2 0 .58-.05.8ZM8.27 12.44a.87.87 0 0 0-.39.32.94.94 0 0 1 .02-.5l.14-.85c0-.05.04-.07.09-.06l.19.04c.05.01.07.05.07.1l-.12.95Z" fill="#F8FAF3"/><path d="m12.6 11.79.47.5.02.01a.05.05 0 0 0 .04 0l.02-.02c.07-.17.18-.3.3-.41.12.1.15.15.1.16l-.24.21c-.02.02-.02.04 0 .06l.34.5c-.16.18-.32.37-.5.54a.22.22 0 0 1-.02-.12l-.53-1.21h-.01l.27 1.27c-.01.11 0 .2.04.28-.36.3-.76.57-1.18.79 0-.03 0-.04-.02-.04.3-.19.5-.46.6-.8.13-.38.13-.8-.02-1.26l-.08-.16c-.04-.15-.1-.28-.19-.4.01-.03 0-.08-.04-.13v-.04a.04.04 0 0 1 .03-.02h.24a.07.07 0 0 1 .05.03c.1.11.2.2.32.26Z" fill="#101923"/><path d="M11.35 12.45c-.11.09-.21.2-.3.34h-.09a.06.06 0 0 1-.04-.05l-.03-.2.58-.7.01-.02v-.02l-.01-.01h-.53c-.04 0-.05-.02-.05-.06v-.19c0-.02 0-.03.03-.03l.72.07a.21.21 0 0 1 .14.35l-.43.52Z" fill="#F8FAF3"/><path d="M5.21 12.12c-.16-.06-.3-.16-.44-.32l-.01.02a.71.71 0 0 0 .2-.22c.14.08.23.25.25.52Z" fill="#490A0A"/><path d="M12.2 12.1c.08.85-.6 1.33-1.37 1.33-.38 0-.94-.05-1.18-.4.67.09 1.21.27 1.9-.02a5.8 5.8 0 0 0 .48-.24.16.16 0 0 0 .02-.06c.06-.25.08-.5.05-.77l-.09-.25c.09.12.15.25.19.4Z" fill="#B1431D"/><path d="m5.69 11.82-.02.02a.35.35 0 0 0-.1.15c-.15.23-.23.5-.23.8a2 2 0 0 0 .38 1.23 5.96 5.96 0 0 1-1.56-1.48c.11-.12.2-.25.26-.4l.35-.34c.13.16.28.26.44.32l.4-.4.05-.01c.03 0 .04.02.04.04l-.01.07Z" fill="#101923"/><path d="M5.78 11.72c.11.64.5.93 1.14.86l.19-.07c.12.14.27.2.47.17.02 0 .03-.01.02-.04a.86.86 0 0 1 0-.43c.01-.01 0-.01 0 0l.3.04a.94.94 0 0 0-.02.51c.14-.01.25 0 .34.02a.11.11 0 0 0-.06.04.04.04 0 0 0 0 .05h.03a7.15 7.15 0 0 1 1.35.02l.01-.03v-.01l-.18-.04-.03-.02v-.06c0-.02 0-.03.03-.03l.23-.06a.4.4 0 0 0 .25.16c.29.05.63.05.83-.2l.1-.16.11.1.03.2c0 .02.02.04.04.04h.1l.89-.03c.02 0 .04-.01.05-.04.03-.1 0-.18-.07-.25.02-.18.07-.35.17-.52.03.26.01.52-.05.77a.16.16 0 0 1-.07.1l-.43.2c-.69.3-1.23.1-1.9.01h-.07l-1.46-.04c-.12.01-.25.03-.37.06-.65.2-1.52.14-2.02-.35a.44.44 0 0 1-.13-.28c-.02-.18 0-.37.07-.57l.02-.02.09-.1Z" fill="#D05722"/><path d="m8.85 11.8.01.2a.04.04 0 0 0 .04.04h.01c.02 0 .05-.01.07-.03H9a.04.04 0 0 1 .03 0c.03.05.04.1.04.17l.01.02.1.03.02-.01.03-.14-.03.38a.77.77 0 0 1-.41.01v-.01l.06-.66Z" fill="#E1D4C9"/><path d="M5.66 11.85c-.33 1 4.67 1.23 5.84 1.15.55-.19.82-.43.8-1.01a2.8 2.8 0 0 1 0 1.52c-.48.29-.95.63-1.4 1.02-.03.03-.03.04.02.03.27-.04.53-.12.78-.25.01 0 .02.01.02.04a6 6 0 0 1-5.4.02c-.03-.35-.26-.54-.54-.86-.09-.1-.24-.34-.44-.72 0-.3.16-.71.32-.94Z" fill="#802918"/><path d="M13.13 13.22c-.05.01-.1 0-.14 0a.1.1 0 0 0-.06 0 .17.17 0 0 0-.07.06l-.27-1.27h.01l.53 1.21ZM13.55 12.03l.4.35c-.09.14-.2.28-.3.41l-.35-.49v-.06l.25-.21Z" fill="#9BB4B6"/><path d="M7.6 12.21a.86.86 0 0 0 0 .43c0 .03 0 .04-.02.04a.5.5 0 0 1-.47-.17c.13-.13.3-.23.5-.3Z" fill="#E1D4C9"/><path d="M8.27 12.44a.67.67 0 0 0-.01.23l-.04.11a.9.9 0 0 0-.34-.02.87.87 0 0 1 .39-.32Z" fill="#DDAC7B"/><path d="M8.79 12.46v.01c0 .1-.01.19-.05.29a.05.05 0 0 0 .05.06h.34a.07.07 0 0 0 .05-.03.07.07 0 0 0 .02-.05.42.42 0 0 1 .01-.23c.12-.01.22 0 .3.02l.09.11-.23.06a.04.04 0 0 0-.03.03v.06l.03.02.17.04.01.01v.03h-.02a7.15 7.15 0 0 0-1.38-.03.04.04 0 0 1 0-.04.11.11 0 0 1 .07-.04l.04-.11a.27.27 0 0 1 .01-.17.05.05 0 0 1 .05-.03l.47-.01Z" fill="#97351A"/><path d="m9.2 12.46.01.05a.42.42 0 0 0-.01.23.07.07 0 0 1-.04.07h-.39a.05.05 0 0 1-.03-.05c.04-.1.05-.2.05-.29.14.03.28.03.4 0Z" fill="#957659"/><path d="M10.68 12.6c-.2.25-.54.25-.83.2a.4.4 0 0 1-.25-.16l-.09-.11a.22.22 0 0 0-.03-.1c.13.04.26.08.38.1.26.05.54.03.82.06ZM11.35 12.45h.58c.08.08.1.17.07.26-.01.03-.03.04-.05.04l-.9.04c.09-.14.19-.25.3-.34Z" fill="#E1D4C9"/><path d="M6.33 14.37a6 6 0 0 1-.61-.35 2 2 0 0 1-.38-1.23c.2.38.35.62.44.72.28.32.5.51.55.86ZM12.3 13.5c-.1.35-.3.62-.6.81-.25.13-.51.21-.78.25-.05 0-.05 0-.02-.03.45-.4.92-.73 1.4-1.02Z" fill="#84352E"/><path d="m8.1 4.94-.22-.02c-.03 0-.04-.02-.04-.05V4.5a.03.03 0 0 1 .03-.03h.02l.02.01.01.02c.05.16.12.29.2.38.03.04.02.05-.02.05ZM7.55 5.07l-.05.04c-.02.02-.03.02-.03 0a1.29 1.29 0 0 1-.01-.42c.03-.14.07-.14.12 0 .03.07.07.15.13.23v.06a.18.18 0 0 1-.1.06.1.1 0 0 0-.06.03Z" fill="#C38371"/><path d="m7.31 5.08.07.1a.03.03 0 0 1-.01.05l-.05.02a.05.05 0 0 1-.07-.02.3.3 0 0 1 0-.2c0-.03.01-.04.03-.02l.02.05.01.02Z" fill="#B26C5C"/><path d="M9.85 5.24a.02.02 0 0 1 .02.02v.02a.1.1 0 0 1-.03.07.1.1 0 0 1-.08.03h-.03a.11.11 0 0 1-.07-.03.1.1 0 0 1-.04-.07v-.02a.02.02 0 0 1 .02-.02h.21Z" fill="#FDD08B"/><path d="M9 5.67a.05.05 0 0 1 .02.06v.02l-.04.05a.18.18 0 0 1-.04.04.12.12 0 0 1-.05.02l-.04-.01h-.02c-.03-.02-.04-.05-.05-.08 0-.04 0-.08.02-.12v-.01a.05.05 0 0 1 .07-.03l.12.06Z" fill="#F8FAF3"/><path d="m9.08 6.58-.1.05a.1.1 0 0 1-.05.01l-.24-.03-.03-.03c-.02-.03-.01-.05.03-.05a5 5 0 0 0 .33-.04c.13-.03.23.02.34-.02.1-.04.1-.02.03.05a.57.57 0 0 1-.15.09.08.08 0 0 1-.1-.02.06.06 0 0 0-.06 0Z" fill="#984C44"/><path d="M6.88 10.06c-.15.02-.29.16-.4.42 0-.39.2-.47.37-.71.1-.14.12-.12.09.04a4 4 0 0 1-.06.25Z" fill="#802918"/><path d="M6.88 10.06c-.06.16-.12.3-.18.4a.92.92 0 0 1-.19.24c-.01.02-.03.02-.04 0a.07.07 0 0 1 0-.07c.02-.07.03-.12 0-.15.12-.26.26-.4.4-.42Z" fill="#FB7527"/><path d="M8.26 11.18c.1 0 .2-.07.2-.17.01-.1-.07-.18-.18-.19-.11 0-.2.07-.2.17-.01.1.07.19.18.2Z" fill="#F8FAF3"/><path d="M9.82 12.13c-.01.2.11.37.28.38.16.01.3-.14.32-.34.01-.2-.11-.36-.27-.37-.17-.01-.31.14-.33.33ZM7.12 12.31c-.1.1-.28.1-.37-.02-.09-.12.03-.3.15-.32.1-.02.2-.03.3-.01a.04.04 0 0 1 .04.04c0 .14-.05.25-.12.31Z" fill="#FB7527"/><path d="M9.54 3.02c-.01.05 0 .1.05.13.03.03.03.06 0 .1a9.1 9.1 0 0 1-1.7.1l.06-.26a6 6 0 0 1 1.59-.07Z" fill="#755755"/><path d="M7.8 3.12c0 .15-.02.3-.07.46 0 .01-.02.02-.03.01H7.7l-.01-.02c.01-.12-.04-.18-.16-.17a.05.05 0 0 1-.05-.04.3.3 0 0 1-.01-.16l.34-.08Z" fill="#5A4333"/></svg>