<!-- by TradingView --><svg width="18" height="18" viewBox="0 0 18 18" xmlns="http://www.w3.org/2000/svg"><path fill="#F0F3FA" d="M0 0h18v18H0z"/><path fill-rule="evenodd" d="M9 13.97a4.97 4.97 0 1 0 0-9.94 4.97 4.97 0 0 0 0 9.94ZM9 14A5 5 0 1 0 9 4a5 5 0 0 0 0 10Z" fill="#F4C221"/><path d="M6.03 7.75c-1.05 0-.99-1.12-.66-2.2A4.98 4.98 0 0 0 9 14a5 5 0 0 0 1.39-9.8c-.38.7-2.52 3.55-4.36 3.55Zm3.9-.31c.11.47.32 1.56.32 2.19H8.37c.32-.42 1.07-1.44 1.57-2.2Zm-3.74 3.9c.2-.1.72-.37 1.1-.62.4.1 1.55.31 2.8.31-.62.26-2.28.69-3.9.31Z" fill="url(#ammvcrlar)"/><path d="M8.55 5.1c.35.33 0 1-.78 1.52-.79.5-1.71.66-2.07.33-.35-.32 0-1 .78-1.5.79-.51 1.71-.67 2.07-.34ZM7.44 4.31a.16.16 0 1 1-.31 0 .16.16 0 0 1 .3 0ZM10.56 4.16a.16.16 0 1 1-.31 0 .16.16 0 0 1 .31 0ZM5.56 5.56a.16.16 0 1 1-.31 0 .16.16 0 0 1 .31 0ZM6.66 7.75a.16.16 0 1 1-.32 0 .16.16 0 0 1 .32 0ZM8.84 6.34a.16.16 0 1 1-.3 0 .16.16 0 0 1 .3 0Z" fill="#F4C221"/><path d="m10.25 6.81-.31.63c.25.75.31 1.77.31 2.19H8.37a8.8 8.8 0 0 0 2.35.3 9.33 9.33 0 0 0-.47-3.12Z" fill="url(#bmmvcrlar)"/><path d="M10.88 11.03h-.79c-.93.31-2.03.47-2.65.47-.5 0-1.04-.1-1.25-.16l-1.25.47c.57.42 2 1.25 3.12 1.25 1.13 0 2.14-.41 2.5-.62l.31-1.4Z" fill="url(#cmmvcrlar)"/><defs><linearGradient id="ammvcrlar" x1="4.16" y1="8.38" x2="13.84" y2="9.94" gradientUnits="userSpaceOnUse"><stop stop-color="#D34B17"/><stop offset="1" stop-color="#FFB700"/></linearGradient><linearGradient id="bmmvcrlar" x1="10.09" y1="7.13" x2="10.09" y2="9.94" gradientUnits="userSpaceOnUse"><stop stop-color="#E46B10"/><stop offset="1" stop-color="#E79018"/></linearGradient><linearGradient id="cmmvcrlar" x1="5.41" y1="11.66" x2="10.41" y2="12.28" gradientUnits="userSpaceOnUse"><stop stop-color="#D45C10"/><stop offset="1" stop-color="#FCB201"/></linearGradient></defs></svg>