<!-- by TradingView --><svg width="18" height="18" viewBox="0 0 18 18" xmlns="http://www.w3.org/2000/svg"><path fill="#020935" d="M0 0h18v18H0z"/><path fill-rule="evenodd" d="M9.56 5.75h-.02a.35.35 0 0 1-.32-.2L5.8 6.5a.4.4 0 0 1-.02.11l2.27 1.5c.06-.07.15-.11.25-.11.15 0 .28.1.33.25l1.27-.11c.02-.2.13-.36.29-.45l-.62-1.94Zm1.35 2.18a.53.53 0 0 0-.56-.3L9.73 5.7a.37.37 0 0 0 .08-.07l3.13 1.56a.4.4 0 0 0-.01.09l-2.02.66Zm.05.32a.58.58 0 0 0 0-.14l2.02-.66c.06.1.17.17.29.17l.22 1.17a.37.37 0 0 0-.16.15l-2.37-.7Zm-.35.47a.55.55 0 0 0 .3-.3l2.38.7c0 .13.06.24.15.31l-.83 2.32a.35.35 0 0 0-.22.05l-1.3-1.36a.39.39 0 0 0 .05-.19c0-.2-.14-.36-.33-.37l-.2-1.16Zm-.7-.4a.54.54 0 0 0 .53.43l.2 1.16a.38.38 0 0 0-.21.32l-2.22.46.12-.82a.37.37 0 0 0 .31-.37.37.37 0 0 0-.26-.36v-.4a.37.37 0 0 0 .26-.3l1.27-.11ZM5.67 6.78l2.27 1.5v.03l-3.24.15a.38.38 0 0 0-.1-.16l.74-1.43a.34.34 0 0 0 .33-.09Zm-.96 1.87 3.23-.15c.04.12.14.22.26.25v.4a.37.37 0 0 0-.27.43l-1.5.71a.17.17 0 0 0-.16-.02l-1.6-1.52a.38.38 0 0 0 .04-.1Zm8.07 3.18.83-2.32h.03c.2 0 .36-.17.36-.38 0-.2-.15-.36-.34-.37l-.22-1.16c.12-.06.2-.2.2-.34 0-.2-.16-.38-.35-.38-.11 0-.21.06-.28.14L9.9 5.45a.4.4 0 0 0 0-.08c0-.2-.16-.37-.35-.37-.2 0-.36.17-.36.38l-3.44.94a.35.35 0 0 0-.31-.2c-.2 0-.36.17-.36.38 0 .1.05.2.11.27L4.44 8.2a.34.34 0 0 0-.08-.01c-.2 0-.36.17-.36.37 0 .21.16.38.36.38.07 0 .14-.03.2-.06l1.59 1.52a.2.2 0 0 0 0 .04c0 .1.07.19.17.19.05 0 .1-.03.14-.07l1.6.34.99 1.03a.39.39 0 0 0-.05.2.37.37 0 0 0 .38.37l.38 1.19a.2.2 0 0 0-.05.12c0 .1.08.19.18.19.1 0 .18-.08.18-.19a.2.2 0 0 0 0-.05l.53-.56c.06.03.12.05.19.05a.37.37 0 0 0 .35-.42l1.14-.48c.07.09.17.15.3.15.19 0 .35-.17.35-.38a.38.38 0 0 0-.15-.3Zm-2.85 1.8v.01l.55-.56a.39.39 0 0 1-.05-.2c0-.17.11-.32.27-.36v-1.9a.33.33 0 0 1-.06-.02l-1 1.31a.39.39 0 0 1-.09.54l.38 1.19Zm-.43-1.84 1-1.3a.38.38 0 0 1-.04-.07l-2.17.46.89.93a.34.34 0 0 1 .32-.02Zm1.38.73c.08.02.15.07.2.14l1.14-.48a.4.4 0 0 1 .04-.24l-1.3-1.36a.34.34 0 0 1-.08.04v1.9ZM8 9.74l-1.4.66 1.42.3.12-.85A.36.36 0 0 1 8 9.74Z" fill="#E7F2F6"/></svg>