<!-- by TradingView --><svg width="18" height="18" viewBox="0 0 18 18" xmlns="http://www.w3.org/2000/svg"><path fill="url(#argaftias)" d="M0 0h18v18H0z"/><path d="M6.68 5.4c.29-.3.88-.93.94-.95l1 .48 2.63 1.35.1 1.47v.5l.1-.08.2-.13.11.06.06.58a12.58 12.58 0 0 0-.33 1.02h-.14l-.26 1.18-.35.68v.73l.5.9.76.6c-.28-.1-.84-.31-.89-.31-.05 0-.16.29-.2.43l.46.32-.7-.21v-.6l-.27.38-.14.69v-.47l-.3-.28-.57.28.28.98-.54-.98h-.09l-.53.05-.52-.27-.3.37-.3.6c.05-.23.15-.67.14-.7 0-.02-.27-.45-.4-.65l-.2.32-.59.8.44-.98-.21-.19.21-.3.27-.84.04-.7-.26-.75-.16-1.26L6.4 7.7V6.38l.3-.98Z" fill="#141414"/><path d="M8.04 11.32c-.08-.07-.24-.2-.25-.23l.31-.07.88.05v.21h.81l-.02.15-.77.11v.3l-.83-.21h-.5l.3-.12.1-.06.89.12v-.29l-.53-.05-.39.09Z" fill="#777"/><path d="m11.44 6.71-.16-.8c-.18.1-.54.28-.58.33-.06.05-.07.69-.04.85.04.16.31.4.36.43.04.02.15.22.17.3 0 .05.11.1.16.11l.1-.48V6.7Z" fill="#383838"/><path d="M8.1 8.89 7.62 9l.27.22-.07.28.31-.18a5 5 0 0 0 .15-.27l-.18-.17Z" fill="#323031"/><path d="M6.7 8.26c0-.03-.03-.26-.06-.37h-.12l-.03.83.14.7.15 1.26.28.66.9 1.3.97.44h.42c.06-.01 1.08-.4 1.13-.43.04-.02.18-.26.24-.37l.06-.7.34-.65.1-.61.16-.68-.23.74-.1.5-.53.77-.44.23-.62.02h-.5l-.23.1v.22l.3.06c.04 0 .02.07 0 .1l.8.08-.61.3h-.26l-.47-.16-.27-.09-.34-.48-.25-.23-.19-.46.12-.69.15-.6-.4-.19h-.35L6.9 9.3l-.14-.18-.05-.26-.12-.23.12-.37Z" fill="#2D2D2D"/><path d="m10.06 9.23.09-.39.34-.03c.26 0 .77 0 .76.03-.02.03-.12.48-.17.7l-.48-.26-.22.3v.46l.06.56c-.03.12-.1.37-.12.37-.03 0-.18.1-.26.14l-.47-.14-.66.04-.12-.23.45-.4h.2l.24.16-.1-.5-.24-.21-.37.2v.37h-.3l.2-.1-.17-.08-.23.15-.2-.26.43-.28.03-1.3.2-.1 1.11.8Z" fill="#B4B4B4"/><path d="m10.57 8.72-.45.13.22.02.43.13.02.43.22-.33.22-.1.01-.3-.23-.04-.3-.05-.14.1Z" fill="#DADADA"/><path d="M7.77 5.98c.03-.04.1-.11.16-.13l2.53-.42.78.28.15.72-.15.11-.2-.37.03.37.03.7h-.18v.2h-1.1l-.9.28-1.06-.28v-.51l.31-.28-.4-.67Z" fill="#535353"/><path d="m7.26 4.84.38-.43 1.41.19.45 2.46-.63.73V5.6l-.69 1.05-.24-.74-.14-.35-.25.19-.22-.38H7l.26-.52Z" fill="#A0A0A0"/><path d="m8.06 4.77-.41-.36.5-.25L8.9 4l.76.16.75.38.53.59.21.36.08.2.03.36-.1-.03-.12.17-.13-.5-.15.5-.2-.56h-.32l.25.72-.05.19.42.34-.2.35.25.3-.12.14-.55-.1-.46-.1-.26-.4-.64-.42V4.68l-.8.6-.03-.5Z" fill="#F8F9F4"/><path d="m6.37 8.39.1.23v.32l-.06-.1V8.7l-.09-.17-.1-.13H6.1l-.03.13.09.53.14.47.07.35c0 .02.1.06.15.08l.15-.05v.15h-.2l-.17-.18-.05-.26-.15-.53-.06-.28L6 8.33l.07-.21.3.27Z" fill="#949494"/><path d="m7.53 8.54-.2-.1-.05.1.14.13h.29l.2.07-.07-.15-.3-.05Z" fill="#B3B3B3"/><path d="m8.12 7.79-.3.13.44.22.36.25.08-.17-.08-.15-.5-.28Z" fill="#A8A8A8"/><path d="M8.93 9.9V8.2h.2l.1.36.22.08.53.48.3.46-.25-.1-.5.24.12-.37h-.17l-.26.13v.3l-.29.11Z" fill="#F8F9F4"/><path d="M9.43 10.37a6.9 6.9 0 0 0-.47.29l.25.34.61.04.61-.38-.38-.09-.23-.3c.1-.03.33-.1.38-.13.04-.03-.24 0-.38.03l-.2-.1-.19.3Z" fill="#F3F3F3"/><path d="m8.05 11.27.06-.25.12.2.12-.2.15.15.12-.15c0-.03.15.12.22.2h-.32l-.47.05Z" fill="#D7D7D7"/><path d="M9.2 11.53a3.1 3.1 0 0 1-.13-.21h.57v.13l-.44.08Z" fill="#F9F9F9"/><path d="m11.42 8.47-.1-.2.32-.26.1.1-.1.1-.22.26ZM11.3 9.23l.19-.2.03.26-.18.12-.04-.18Z" fill="#F1F1F1"/><path d="m11.63 9.04.15-.28c0 .21-.1.5-.15.6-.04.13-.14.4-.14.51 0 .1-.1.03-.15-.02l-.02-.28.15.1.08-.26-.13.1c0 .01-.07 0-.1-.02v-.08l.17-.08.08-.04.06-.25Z" fill="#919191"/><path d="m10.85 12.42-.1-.59-.07.69.1.28.13.3.32.09-.38-.77Z" fill="#6B6B6B"/><path d="m6.99 12.35.09-.83.03.83-.03.52-.49.4.19-.29c.02-.03.2-.58.2-.63Z" fill="#505050"/><path d="m7.62 12.58-.49-.96.6.61.81.52.4.35v.5l-.32-.06c-.15-.06-.46-.21-.52-.25a5.58 5.58 0 0 1-.48-.71Z" fill="#5A5859"/><path d="m6.36 6.42.32-1-.23.87-.03.47h.14l-.08.21.08.41.12.53-.12.34v.66l.12.54.08.56.12.8.11.4.6.54.26.54.35.22.25-.07.3.2h.19v.46l-.28-.1-.37-.2-.44-.36-.86-.99-.23-.64a27.46 27.46 0 0 0-.28-1.76v-.4l-.12-1.17V6.42Z" fill="#A5A5A5"/><path d="m9.83 12.2-.1-.39h.2l.23-.32.12.4-.2.17-.25.14Z" fill="#6E6C6D"/><path d="m8.98 12.27-.03-.38.5-.08.16-.06.11-.1.17.16-.11.12-.13.24-.09.05-.14-.02-.44.07Z" fill="#FAFAFA"/><path d="m6.96 8 .16.34.22.05.16.06.31.04-.1-.29h.25c.03 0 .32.15.47.22l-.12-.26-.55-.35-.42-.14-.38.34Z" fill="#1C1C1C"/><path d="m7.18 8.43-.15-.32.4.03.2-.03.2.06-.33.1-.32.16Z" fill="#AFAFAF"/><path d="m9.9 8-.2.28.49-.05.39.02-.36-.2L9.9 8Z" fill="#3D3D3D"/><path d="m10.48 8.46-.47.06c.09.02.28.07.35.07.1 0 .23-.07.27-.07.03 0 .12-.04.16-.06l-.13-.09a1.5 1.5 0 0 1-.18.09Z" fill="#999"/><defs><linearGradient id="argaftias" x1="3.35" y1="3.12" x2="21.9" y2="24.43" gradientUnits="userSpaceOnUse"><stop stop-color="#1A1E21"/><stop offset="1" stop-color="#06060A"/></linearGradient></defs></svg>