<!-- by TradingView --><svg width="18" height="18" viewBox="0 0 18 18" xmlns="http://www.w3.org/2000/svg"><path fill="#F0F3FA" d="M0 0h18v18H0z"/><path d="M11 6a1 1 0 1 0 0-2 1 1 0 0 0 0 2ZM7.4 4s-2.1.64-2.1 2.95c0 0-.23 1.58 1.8 2.41l.08.03c2.11.83 2.86 1.13 2.9 2.1.04.97-.48 1.97-2.17 1.65 0 0-1.23 0-2.86-3.6 0 0-.4 2.62 1.1 4.46 0 0 .16-.5 1.04-.41.88.1 3.12.48 4.3-.17a2.91 2.91 0 0 0 1.36-1.63 3 3 0 0 0-.1-2.15s-.3-.96-2-1.63c-1.7-.66-3.04-1.24-3.04-1.24s-1.8-.82-.3-2.77Z" fill="#063552"/></svg>