<!-- by TradingView --><svg width="18" height="18" viewBox="0 0 18 18" xmlns="http://www.w3.org/2000/svg"><path fill="#F0F3FA" d="M0 0h18v18H0z"/><path d="M13.9 12h-1.55a.1.1 0 0 1-.09-.05l-3.1-5.53c-.06-.12-.26-.12-.33 0l-3.1 5.53a.1.1 0 0 1-.08.05H4.1c-.07 0-.12-.07-.09-.12l4.36-7.79c.03-.06.1-.09.17-.09h.92c.08 0 .14.04.17.09l4.36 7.79c.03.05-.02.12-.09.12Z" fill="#75FB9E"/><path d="m9.98 11.72-.94 1.25c-.02.04-.06.04-.09 0l-.93-1.25a.1.1 0 0 1-.01-.1l.93-2.57c.02-.07.1-.07.12 0l.93 2.57a.1.1 0 0 1 0 .1Z" fill="#75FB9E"/></svg>