<!-- by TradingView --><svg width="18" height="18" viewBox="0 0 18 18" xmlns="http://www.w3.org/2000/svg"><path fill="url(#a)" d="M0 0h18v18H0z"/><path d="M9.76 4.06c.11.27.16.5.16.71-.01.44.07.98.26 1.63.03.1.02.29-.04.57l-.78-.25-.26-.12c-.09-.04-.17-.1-.24-.16a20.6 20.6 0 0 0-.4-.33c-.14-.1-.26-.2-.35-.34-.11-.2-.26-.36-.43-.49-.11-.08-.31-.16-.6-.25l-.74-.26a4.97 4.97 0 0 1 3.42-.71Z" fill="#B9AEA4"/><path d="M12.44 5.37c-.14.07-.31.14-.54.2-.26.08-.5.22-.72.43a.08.08 0 0 0-.02.08l.01.04c-.1.1-.2.26-.29.48l-.11.25c-.16.3-.37.34-.63.12.06-.28.07-.47.04-.57a5.67 5.67 0 0 1-.26-1.63c0-.2-.05-.44-.16-.71 1.03.16 1.92.6 2.68 1.3Z" fill="#BFC0C6"/><path d="m6.34 4.77.75.26c.28.09.48.17.59.25.17.13.32.3.43.5a4.06 4.06 0 0 1-.37-.35c-.1-.11-.28-.2-.52-.28a6.33 6.33 0 0 0-1.12-.23l.24-.15Z" fill="#DBCDBE"/><path d="M6.1 4.93c.39.04.76.12 1.13.23.23.07.4.16.51.27.19.18.3.3.37.34.1.13.2.25.34.34l.49 1.01c0 .02.02.03.04.03s.04-.01.05-.03c.09-.18.2-.31.33-.4l.78.25c.26.22.47.18.63-.12l.11-.25c.1-.22.2-.39.3-.48.15.01.32.22.49.62.07.16.14.31.22.44.09.14.17.3.23.45-.05.02-.1 0-.14-.05a1.45 1.45 0 0 0-.17-.17c-.02-.02-.03-.02-.03.01v.32c-.09.01-.21 0-.37-.04a.1.1 0 0 1-.07-.06.1.1 0 0 1 0-.09l.2-.35c.03-.04.02-.06-.02-.07-.03 0-.06.01-.1.06-.1.17-.28.38-.53.63-.02.02-.04.02-.06 0l-.17-.09h-.04a.03.03 0 0 0-.02.03l.02.03c.13.09.26.16.4.22.03.01.06.02.09.01l.5-.06c.03 0 .05 0 .06.02.01.02.02.04 0 .06l-.08.15c-.02.03-.01.05.01.07l.13.09c.08.09.07.11-.04.08l-.52-.17h-.09a.67.67 0 0 0-.3.32c-.07-.05-.08-.11-.04-.18.07-.18.02-.31-.13-.4a.15.15 0 0 1-.07-.06 1.4 1.4 0 0 0-.27-.37c-.2-.18-.23-.16-.08.07.02.03.08.08.16.13.12.09.1.14-.04.17l-.16.02c-.03 0-.04.02-.03.05.03.05.07.08.14.1h.01v.05c0 .01 0 .02-.02.01a.91.91 0 0 1-.51-.46.09.09 0 0 1 0-.09c.05-.1.1-.17.14-.22.1-.1.07-.14-.07-.11a.82.82 0 0 1-.46-.04l-.01-.36s0-.02-.02-.03l-.02-.01c-.02 0-.03 0-.04.02l-.15.27c-.04.01-.08.06-.12.13-.02.03-.03.03-.05 0-.1-.12-.18-.27-.25-.44 0-.02-.01-.02-.03-.02-.01 0-.02 0-.02.02-.01.11.01.2.07.27.12.15.2.3.21.43.02.14-.03.23-.14.27-.03.01-.05-.02-.07-.1l.03-.05a.07.07 0 0 0 0-.07l-.8-1.72H7.9l-.05.02v.03c.11.22.2.44.24.67.03.13 0 .14-.08.04l-.48-.55c-.02-.02-.03-.01-.03.01v.63c0 .02 0 .02-.02.01a.87.87 0 0 1-.43-.4c0-.03-.03-.04-.06-.03l-.02.01c-.02.01-.03.03-.02.05.03.06.05.13.05.18 0 .06-.01.07-.04.02l-.16-.26h-.05l-.01.02.03.14c0 .04 0 .05-.04.04-.1-.03-.14-.08-.14-.15a.07.07 0 0 0-.04-.07.07.07 0 0 0-.09.01l-.25.23c-.04.03-.08.03-.12-.01-.12-.13-.24-.2-.36-.22-.03 0-.06.01-.07.04l-.04.07c-.03.04-.05.04-.07 0l-.18-.31c-.02-.04-.05-.05-.08-.03a.5.5 0 0 1-.2.05c-.04 0-.09.03-.12.08a.27.27 0 0 0-.04.16c-.17.26-.26.56-.28.88 0 .02 0 .03-.02.04-.02.03-.03.02-.04-.01l-.03-.56c.37-.71.88-1.3 1.53-1.76Z" fill="#5F4334"/><path d="M13.6 10.98c-.33-.42-.53-.69-.61-.82-.1-.16-.2-.38-.3-.66l-.07-.94-.1-.4-.4-.54c-.06-.15-.14-.3-.23-.44a3.22 3.22 0 0 1-.22-.45c-.17-.4-.34-.6-.5-.61a.1.1 0 0 1-.02-.04c0-.03 0-.06.03-.08.22-.21.46-.35.72-.43.22-.06.4-.13.54-.2A4.94 4.94 0 0 1 14 9.1a4.95 4.95 0 0 1-.4 1.87Z" fill="#E3E7E9"/><path d="M8.71 7.7c-.08.04-.15.05-.2.01a1.02 1.02 0 0 0-.68-.16c-.03 0-.03.01 0 .03l.16.14a.1.1 0 0 1 .03.06v.12a.63.63 0 0 0-.21.09.13.13 0 0 0-.05.07c-.02.05-.07.08-.15.09a.2.2 0 0 1-.1.02.76.76 0 0 0-.35.08c-.06.03-.1.02-.13-.03a.53.53 0 0 0-.19-.17c-.03-.02-.05-.01-.07.02-.02.05-.02.1.01.13.03.04.05.07.04.1-.01.02-.03.03-.06.02a.8.8 0 0 0-.04-.03c-.05-.01-.05 0-.01.05.05.05.1.09.16.1.11.15.17.33.18.52l-.07-.08c-.1 0-.11.04-.02.1.12.09.17.19.13.3a.13.13 0 0 1-.07.07h-.1c-.02-.03-.03-.06-.02-.1 0-.02 0-.04-.03-.05a.06.06 0 0 0-.06-.01.24.24 0 0 0-.13.1c-.02.02-.01.05.02.07.22.14.39.1.51-.15l.35.77c-.53.04-.96.08-1.27.12-.08.01-.19.04-.32.09a.13.13 0 0 1-.1 0l-.1-.04c-.03 0-.05 0-.05.02l-.14.35c-.01.05 0 .07.03.08h.06c0 .14-.02.3-.06.45-.04.15-.02.25.06.32.06.03.16.07.3.1.09 0 .15.02.18.03-.03.01-.03.03-.02.07a28.9 28.9 0 0 1-.82.08c-.2 0-.4-.01-.59-.06a2.73 2.73 0 0 1-.03-.06c.27-.13.44-.23.5-.28.15-.12.2-.29.15-.5a1.18 1.18 0 0 0-.25-.52c-.03-.04-.03-.05.02-.05h.05c.03 0 .05-.02.06-.06.08-.46.2-.8.38-1.02.1-.13.24-.17.43-.13l.03.03-.01.04a.4.4 0 0 0-.12.35l.01.03.03.02c.02 0 .03 0 .04-.03a.25.25 0 0 1 .07-.1c.06.03.1.1.1.2a.85.85 0 0 1-.1.13c-.11.1-.16.21-.14.31 0 .05.03.07.07.07h.23a.2.2 0 0 0 .17-.07c.04-.05.06-.11.05-.18a2.36 2.36 0 0 1 0-.7c.04-.26.06-.45.05-.56 0-.16-.05-.32-.12-.49a.2.2 0 0 1-.01-.15.2.2 0 0 1 .1-.11l.57-.27a.13.13 0 0 0 .05-.05c.15-.24.16-.41.04-.51l-.45-.37c-.07-.06-.13-.05-.2.02a.87.87 0 0 1-.82.27.12.12 0 0 1-.07-.04 1.82 1.82 0 0 0-.55-.38c0-.07-.04-.1-.12-.1 0-.05.02-.1.05-.15.03-.05.08-.08.13-.08a.5.5 0 0 0 .19-.05c.03-.02.06 0 .08.02l.17.32c.03.04.05.04.07 0l.05-.07a.06.06 0 0 1 .07-.04c.12.02.24.09.36.22.04.04.07.04.12 0l.25-.22a.07.07 0 0 1 .09 0c.03 0 .04.03.04.06 0 .07.04.12.13.15.04 0 .06 0 .05-.04l-.03-.14V6.3l.03-.02.03.01.16.26c.03.05.04.04.04-.02a.47.47 0 0 0-.05-.18c0-.02 0-.04.02-.05L7 6.29c.03-.01.05 0 .06.02.09.18.23.32.42.41.02.01.03 0 .03-.01v-.63c0-.02 0-.03.03 0l.48.54c.08.1.11.09.08-.04a2.87 2.87 0 0 0-.25-.68l.01-.02.05-.03.03.01.8 1.72c.01.02.01.05 0 .07l-.03.04Z" fill="#A46456"/><path d="M9.36 6.72c-.13.09-.24.22-.33.4-.01.02-.03.03-.05.03a.05.05 0 0 1-.04-.03l-.49-1c.14.1.28.21.4.32.08.07.17.12.25.16l.26.12Z" fill="#E3E7E9"/><path d="M11.1 7.31c-.01.03-.02.03-.04.03-.03 0-.05-.02-.07-.06-.11 0-.17.08-.16.22 0 .02-.01.03-.03.03h-.04c-.01 0-.02-.01-.02-.03 0-.18.08-.44.21-.78.07-.16.11-.28.13-.36.03-.08.1-.13.2-.13.03 0 .04.05.03.14-.03.2-.01.37.06.51.01.03 0 .05-.01.08l-.04.02a8.59 8.59 0 0 0-.24.28c0 .02 0 .04.02.05Z" fill="#B49E84"/><path d="M5.05 6.43c.06.14.2.35.45.65.1.13.1.26 0 .4a.16.16 0 0 1-.07.06.55.55 0 0 0-.18.14l-.27.15a.38.38 0 0 0-.13.07.1.1 0 0 0-.04.08c0 .04.01.06.04.09l.23.18c.02.02.03.05.03.08 0 .02-.02.05-.05.06-.12.07-.16.14-.12.21a.48.48 0 0 0-.3.19c-.02.02-.01.03.02.02l.33-.07c.05.03.1.04.17.04.03 0 .04.01.04.04v.03c0 .03-.01.04-.04.04a.84.84 0 0 0-.4.05c-.04.02-.04.04 0 .06l.1.03c.07 0 .1 0 .11.02.02.03 0 .06-.03.1-.14.1-.25.2-.32.3-.03.05-.02.06.03.04.11-.05.23-.13.35-.24.1-.1.13-.08.09.05-.04.14-.1.24-.15.32-.04.06-.15.13-.3.2-.17.06-.27.13-.3.21-.01.05-.03.05-.04 0l-.04-.22c-.1-.23-.15-.41-.14-.53.03-.42.02-.85-.02-1.27.1-.46.25-.9.47-1.32l.03.56c0 .03.02.04.04.01a.06.06 0 0 0 .02-.04c.02-.32.1-.62.28-.88.07 0 .11.02.11.1Z" fill="#EEB296"/><path d="M6.17 9.51a.4.4 0 0 0 .12-.07c.02-.02.03-.05 0-.07-.05-.08-.12-.1-.2-.05a.25.25 0 0 0-.08.1l-.04.02-.03-.02-.01-.03a.4.4 0 0 1 .12-.35.04.04 0 0 0 0-.04.04.04 0 0 0-.02-.03c-.19-.04-.33 0-.43.13-.18.22-.3.56-.38 1.03 0 .03-.03.05-.06.05H5.1c-.04 0-.05.02-.02.05.13.17.22.34.25.51.05.22 0 .39-.15.5-.06.06-.23.16-.5.3a4.94 4.94 0 0 1-.63-1.78l.2.05.04.22c.01.05.03.05.05 0 .02-.08.12-.15.29-.22.15-.06.26-.12.3-.2.06-.07.1-.17.15-.3.04-.14.01-.16-.09-.06-.12.11-.24.2-.35.24-.05.02-.06 0-.03-.03.07-.1.18-.2.32-.32.03-.03.05-.06.03-.1 0-.01-.04-.02-.1-.01.23-.05.47-.12.7-.22a.65.65 0 0 0 .29-.22.21.21 0 0 0 .09-.15.6.6 0 0 0 .03-.55.16.16 0 0 1-.02-.09c.01-.06 0-.12-.02-.17 0-.03-.03-.05-.07-.04l-.62.09c.05-.06.11-.1.18-.14a.16.16 0 0 0 .07-.05c.1-.15.1-.28 0-.4-.24-.3-.39-.52-.45-.66.21.1.4.23.55.38l.07.04c.34.05.61-.04.83-.27.06-.07.12-.08.2-.02l.44.37c.12.1.11.27-.03.51a.13.13 0 0 1-.06.06l-.57.26a.2.2 0 0 0-.1.11.2.2 0 0 0 0 .15c.09.17.13.34.13.5 0 .1 0 .29-.05.55-.03.25-.03.48 0 .7.01.07 0 .13-.05.18a.2.2 0 0 1-.17.07h-.23c-.04 0-.07-.02-.07-.07-.02-.1.03-.2.13-.31l.1-.13Z" fill="#CF8D7A"/><path d="M9.11 7.14c.1.09.18.13.24.11.17.06.33.07.46.04.14-.04.16 0 .07.11a1.3 1.3 0 0 0-.14.22.09.09 0 0 0 0 .09c.1.2.27.36.5.46l.03-.01v-.04l-.01-.02c-.07-.02-.12-.05-.14-.1-.01-.02 0-.04.02-.04l.17-.02c.15-.03.16-.08.04-.17a.61.61 0 0 1-.16-.13c-.15-.23-.12-.25.08-.07.1.08.18.2.27.37l.06.06c.16.09.2.22.14.4 0-.03-.03-.05-.07-.04l-.02.01-.05.04c-.03.02-.05.02-.06-.01a.34.34 0 0 0-.19-.2c-.03-.02-.05 0-.06.02-.1.34-.15.64-.14.9.1.07.01.12-.24.15.06-.04.06-.07-.02-.08-.06 0-.1.02-.12.08-.05.19-.16.35-.3.49-.05.04-.08.03-.1-.02l-.09-.19c-.01-.03-.04-.04-.07-.03a.19.19 0 0 1-.14 0c.05-.08.06-.15.02-.2a.08.08 0 0 0-.07-.04.3.3 0 0 1-.26-.15.2.2 0 0 0 .22-.08l.01.02c.02.02.03.02.06.01s.04-.03.02-.06-.05-.03-.08.01a.54.54 0 0 0 0-.18c0-.03-.02-.05-.06-.05-.17 0-.33-.05-.47-.13a.14.14 0 0 1-.06-.05.62.62 0 0 0-.26-.25c.12 0 .2-.01.27-.06.04-.03.04-.05-.02-.05h-.04c-.03 0-.05-.01-.05-.04v-.04l.06-.02.54.04.01-.03v-.03a.1.1 0 0 1-.06-.03h.13a6.95 6.95 0 0 1 .42.24l.02-.02c.03-.03.02-.06-.01-.09A1.45 1.45 0 0 0 8.86 8a9.08 9.08 0 0 1-.84-.1v-.1A.1.1 0 0 0 8 7.71l-.17-.14c-.02-.02-.02-.03 0-.03.24-.03.47.03.69.16.05.04.12.03.2-.02.02.09.04.12.07.11.1-.04.16-.13.14-.27a.83.83 0 0 0-.2-.43.36.36 0 0 1-.08-.27c0-.01 0-.02.02-.02s.03 0 .03.02c.06.17.15.32.25.44.02.03.03.03.05 0 .04-.07.08-.12.12-.13Z" fill="#957350"/><path d="M9.35 7.25c-.06.02-.14-.02-.24-.1l.15-.29c.01-.01.02-.02.04-.01l.02.01.02.03.01.36Z" fill="#E3E7E9"/><path d="M11 7.28c0 .04.03.06.06.06.02 0 .03 0 .04-.03h.04l.12-.16.11-.15h.05l.02.02v.02l-.39.48c-.03.04-.07.05-.1.01l-.04-.02c-.03-.02-.03-.04 0-.06.06-.06.1-.12.08-.17Z" fill="#957350"/><path d="M11.77 7.74c.07.2.32.35.74.41l.11.41c-.11.09-.31.16-.6.21-.12.03-.2.1-.23.22-.01-.12-.06-.19-.15-.2 0-.06.03-.12.07-.17l.01-.04-.03-.04h-.03l-.01.03c0 .01 0 .03-.02.04-.01.02-.03.02-.04 0a.18.18 0 0 0-.13-.04.1.1 0 0 1-.07-.04c-.07-.1-.14-.12-.24-.09a.07.07 0 0 0-.05.07c-.01.15-.06.22-.13.2-.04-.12-.1-.16-.19-.13a.67.67 0 0 1 .3-.32h.09l.52.17c.11.03.12 0 .04-.09a.83.83 0 0 0-.13-.08c-.02-.02-.03-.04-.01-.07l.08-.15a.05.05 0 0 0 0-.06.05.05 0 0 0-.06-.03l-.5.07-.1-.01a1.77 1.77 0 0 1-.4-.25v-.03h.05l.17.1c.02.01.04 0 .06-.01.25-.25.43-.47.54-.63.03-.05.06-.07.09-.06.04 0 .05.03.03.07l-.2.35a.1.1 0 0 0-.01.09.1.1 0 0 0 .07.06c.16.04.28.05.36.04Z" fill="#957350"/><path d="M9.32 7.44c0 .02-.02.04-.05.04l-.14-.05c-.03-.02-.03-.04-.01-.06l.01-.02a.04.04 0 0 1 .05-.02l.1-.01c.06-.03.08-.02.06.05l-.02.07Z" fill="#692C1D"/><path d="m12.12 7.63.4.52c-.43-.06-.68-.2-.75-.41l.01-.32c0-.03.01-.03.03-.01l.17.17c.04.05.09.07.14.05Z" fill="#B49E84"/><path d="M5.95 8.44a.42.42 0 0 0-.17.05.07.07 0 0 1-.07 0 .43.43 0 0 0-.3-.05c-.02-.08-.1-.1-.25-.08h-.02a.05.05 0 0 1-.01-.06c0-.02.02-.03.05-.03h.18c.03 0 .05-.02.06-.04a.06.06 0 0 0-.01-.07.7.7 0 0 0-.38-.2c-.07-.02-.1-.07-.05-.13l.27-.16.62-.09c.04 0 .06.01.07.05.02.05.03.11.02.17 0 .03 0 .06.02.09a.6.6 0 0 1-.03.55Z" fill="#A46456"/><path d="M4.98 7.83c-.04.07-.02.1.06.12.14.03.26.1.37.21.02.02.02.04 0 .07a.06.06 0 0 1-.05.04h-.18c-.03 0-.04.01-.05.03v.05c.01.01.02.02.03.01.14-.02.23 0 .26.08l-.48.16c-.04-.07 0-.14.12-.21a.08.08 0 0 0 .05-.06c0-.03-.01-.06-.03-.08l-.23-.18a.1.1 0 0 1-.04-.09.1.1 0 0 1 .04-.08.38.38 0 0 1 .13-.07Z" fill="#CF8D7A"/><path d="m8.02 7.9.84.09c.1 0 .29.09.55.25.03.03.04.06 0 .1a6.95 6.95 0 0 0-.43-.23h-.13L8.1 8a.53.53 0 0 0-.2 0c-.1.02-.13.09-.1.2l-.2-.05c.08 0 .13-.04.15-.1 0-.02.02-.04.05-.06a.63.63 0 0 1 .2-.1ZM9.4 7.97l-.14.06c-.03.02-.04 0-.04-.02s.02-.04.05-.06l.05-.03c.03-.01.05 0 .08.02v.03ZM9.48 7.94h.03l.33.56c.06.1.07.15.04.17-.03.02-.07-.02-.13-.12L9.42 8v-.03l.06-.03ZM9.77 8.07l.06.15c0 .04 0 .05-.05.04L9.7 8.1a.58.58 0 0 1-.06-.16c.02-.04.04-.04.06-.02l.07.14Z" fill="#692C1D"/><path d="M8.85 8.11a.1.1 0 0 0 .05.03h.01v.06l-.55-.04c-.03 0-.05 0-.05.02l-.01.04c0 .03.02.04.05.04h.04c.06 0 .06.02.02.05-.06.05-.15.07-.27.06l-.1-.07c-.1-.07-.12-.06-.06.05.12.21.29.4.51.54-.07 0-.11 0-.11.03l-.5-.54-.08-.19c-.02-.1.02-.17.12-.2h.2l.73.12Z" fill="#B49E84"/><path d="M7.51 8.17c-.26.13-.28.24-.05.32l-.6-.05a.33.33 0 0 1-.15-.1c-.04-.05-.04-.06.01-.04l.04.02c.03.01.05 0 .06-.02 0-.03 0-.06-.04-.1-.03-.03-.03-.07 0-.13 0-.03.03-.04.06-.02.09.05.15.1.19.17.03.05.07.06.13.03.1-.05.22-.08.35-.08Z" fill="#5F4334"/><path d="M10.74 8.4c-.04.07-.03.13.04.18.1-.03.15.01.2.13 0 .21.01.37.05.47.06.15.17.25.33.32h.09l.48-.23c.1-.04.19-.03.25.06v.04a5.55 5.55 0 0 1-.25.27c-.03.02-.03.05 0 .07l.09.07c.09.07.07.11-.04.12h-.26a.13.13 0 0 0-.08.03c-.06.05-.1.05-.16.03.02-.05 0-.1-.06-.15-.01-.04-.02-.06-.01-.07.03-.08 0-.1-.08-.06l-.27.12a.13.13 0 0 0-.06.05c-.06.1-.07.19-.02.25l.05.07c0 .02 0 .05-.03.08a.08.08 0 0 0-.01.07c.02.05.02.1.02.15 0 .03-.03.05-.06.05l-.12.03-.13.18c-.02.02-.04.03-.07.02a.47.47 0 0 1-.2-.15c-.06-.08-.08-.16-.04-.22a1.19 1.19 0 0 1 .4-.3c.02-.02.02-.04 0-.06a1.45 1.45 0 0 0-.07-.1.46.46 0 0 1-.13-.29c0-.1-.04-.2-.11-.28l-.23-.17a4.24 4.24 0 0 1-.1-.06c0-.26.04-.56.14-.9.01-.03.03-.04.06-.02.1.03.16.1.2.2 0 .03.02.03.05.01l.05-.04.02-.01c.04 0 .07 0 .07.04Z" fill="#CDC9BD"/><path d="M8.14 8.37c.12.07.2.15.26.25.01.02.03.04.06.05.15.08.3.13.47.13.04 0 .06.02.06.05a.54.54 0 0 1 0 .2.2.2 0 0 1-.23.08.5.5 0 0 1-.27-.24c-.22-.14-.4-.33-.51-.54-.06-.1-.04-.12.06-.05l.1.07Z" fill="#5F4334"/><path d="m8.38 8.92.11.3-.41-.14c-.05-.01-.08 0-.07.06.08.48.07.97-.03 1.47 0 .03-.02.05-.05.05-.15.03-.21 0-.19-.1.04-.02.05-.04.04-.05a1.2 1.2 0 0 1-.22-.53l-.35-.77-.15-.25a.92.92 0 0 0-.2-.52l.6.05c.18 0 .31-.04.42-.1l.5.53Z" fill="#B37764"/><path d="M8.5 8.47c-.05.06-.08.12-.06.14.02.01.07-.03.12-.09.05-.06.08-.12.07-.14-.02-.01-.08.03-.13.09ZM11.64 8.78c-.28 0-.42.11-.42.34 0 .06.02.1.06.14a.2.2 0 0 0 .14.06c.26 0 .39-.11.37-.33.03-.12.1-.19.23-.21.29-.06.49-.13.6-.22l.06.94c-.22.22-.28.46-.18.72.06.14.24.36.53.65l.14.15c.07.07.11.24.14.52-.13.22-.28.43-.45.63l-.04-.08c.04-.03.05-.06.03-.1a.68.68 0 0 1-.1-.3c.05-.04.1-.04.13-.02.08.05.15.05.2 0 .04-.03.03-.05-.02-.05h-.1c-.03 0-.05-.02-.04-.05 0-.02.01-.04.04-.06.03-.02.04-.05.02-.09l-.11-.24a.1.1 0 0 0-.07-.06c-.2-.04-.34.02-.41.2a1.2 1.2 0 0 1-.53.34l-.33.12c-.1.05-.21.1-.33.14.02.08-.03.04-.15-.12l.03-.06c.08-.16.1-.27.08-.35a.5.5 0 0 0-.23-.23c-.1-.06-.2-.1-.31-.12a4.4 4.4 0 0 1-.82-.24c-.04-.02-.05-.05-.03-.09.06-.1.1-.2.1-.29.01-.03 0-.05-.03-.07-.17-.07-.34-.1-.52-.1-.08 0-.14-.04-.17-.12l.11-.12a.08.08 0 0 1 .08-.02c.15.04.29.01.41-.07l.11-.04c.1.17.23.24.37.2.12-.02.22-.12.3-.28a.1.1 0 0 0 0-.09.38.38 0 0 0-.24-.2l-.38-.24c.25-.02.33-.07.24-.15l.1.06.23.17c.07.08.1.17.1.28.01.1.05.2.14.3l.07.1c.02.01.02.03 0 .04l-.04.03c-.18.1-.3.2-.36.28-.04.06-.02.14.05.22.05.07.12.12.19.15.02.01.05 0 .07-.02l.13-.18c.04.06.12.08.21.05.15 0 .26-.07.35-.19a.1.1 0 0 0 .02-.08.47.47 0 0 1 .07-.37c.05.03.1.02.16-.03a.13.13 0 0 1 .08-.02l.26-.01c.11 0 .13-.05.04-.12l-.1-.07c-.02-.02-.02-.04 0-.07a5.62 5.62 0 0 0 .25-.26v-.05c-.05-.09-.13-.1-.24-.06l-.48.22a.11.11 0 0 1-.1 0 .55.55 0 0 1-.32-.3c-.04-.11-.06-.27-.06-.48.07.02.12-.05.13-.2 0-.03.02-.05.05-.07.1-.03.17 0 .24.09a.1.1 0 0 0 .07.04c.05 0 .1.02.13.05.01.02.03.01.04 0 .02-.02.02-.03.02-.05l.01-.03h.03l.03.04v.04a.29.29 0 0 0-.08.16Z" fill="#B9AEA4"/><path d="M5.86 8.59a.65.65 0 0 1-.29.22c-.23.1-.47.17-.7.22a.28.28 0 0 1-.1-.03c-.05-.02-.05-.04 0-.06a.84.84 0 0 1 .4-.05c.02 0 .03-.01.03-.04v-.03c0-.03-.01-.04-.04-.04a.43.43 0 0 1-.17-.04c.03 0 .05-.03.05-.07 0-.02.02-.03.03-.03.02 0 .03 0 .03.02l.02.03c0 .02.03.04.05.04.23.05.4 0 .55-.16.01-.01.03-.02.05 0 .02.02.05.03.1.02Z" fill="#A46456"/><path d="M8.5 8.9c.06.11.15.2.26.23.07.1.15.15.26.15.03 0 .06 0 .07.04.04.05.03.12-.02.2C9.03 9.5 9 9.44 9 9.35c0-.03-.01-.03-.03-.02-.01 0-.02 0-.03.02l-.06.18v.09l.04.28c0 .07.05.1.12.13l.12.1c.03.08.09.11.17.11.18 0 .35.04.52.11.03.02.04.04.03.07 0 .1-.04.2-.1.3-.02.03 0 .06.03.08.24.1.52.18.82.24.1.02.21.06.31.12.12.07.2.15.23.23.03.08 0 .2-.08.35l-.03.06-.28-.11c-.03-.06-.1-.08-.18-.07-.03 0-.05.02-.04.05 0 .08.04.15.09.2a.1.1 0 0 0 .06.04c.09.01.16.03.21.07.03.02.04.05.03.08l-.17.53a.11.11 0 0 1-.06.06.3.3 0 0 1-.2.03.9.9 0 0 1-.34-.42c-.02-.03-.03-.03-.05 0a.1.1 0 0 0-.02.05.16.16 0 0 0-.09-.03l-.07-.02.01-.17c.04 0 .06-.01.06-.04a.68.68 0 0 0-.25-.42c.08 0 .1-.05.06-.13-.01-.03 0-.05.02-.07a.08.08 0 0 1 .06 0c.04 0 .06-.01.05-.05a.8.8 0 0 0-.37-.52l-.21-.25c-.06-.1-.12-.17-.17-.19 0-.02-.03-.06-.1-.15l-.3-.32-.31-.73-.11-.3c0-.03.04-.04.11-.02Z" fill="#DBCDBE"/><path d="M8.98 9.05v-.02c.04-.04.07-.04.1-.01.01.03 0 .05-.03.07-.02 0-.04 0-.05-.02l-.02-.02Z" fill="#B49E84"/><path d="M11.55 9.1h.07c.01 0 .02 0 .03.02 0 .02 0 .03-.02.04-.1.05-.18.05-.23.01l-.07-.07c-.04-.1 0-.12.1-.08l.04.05a.1.1 0 0 0 .08.03Z" fill="#5F4334"/><path d="m8.49 9.21.31.74a.38.38 0 0 1-.18-.06h-.05c-.02 0-.03.02-.02.04.08.1.11.28.1.52v.12c0 .18-.08.28-.25.31-.33.07-.57.15-.73.24-.41.24-.8.37-1.15.4.06-.08.18-.16.33-.26.15-.1.26-.17.31-.24.25-.29.27-.56.06-.82a.38.38 0 0 1 .24 0c.03 0 .05.03.06.06.05.16.12.26.22.3-.02.1.04.13.2.1.02 0 .04-.02.04-.05.1-.5.1-.99.03-1.47 0-.06.01-.07.07-.06l.4.13Z" fill="#A46456"/><path d="m9.9 9.27.39.23c-.26.04-.4.17-.43.38l-.1.04-.46-.07a.1.1 0 0 0-.08.02l-.19.15c-.07-.01-.11-.06-.12-.12a3.81 3.81 0 0 0-.04-.28v-.1a3.66 3.66 0 0 1 .09-.2c.02 0 .03 0 .04.03 0 .1.03.15.07.16.05.02.1.03.14.01.03 0 .06 0 .07.03l.09.19c.02.05.05.06.1.02.15-.14.25-.3.3-.5.02-.05.06-.08.12-.07.08.01.09.04.02.08Z" fill="#B37764"/><path d="M10.29 9.5c.1.04.19.11.23.21a.1.1 0 0 1 0 .09c-.07.16-.17.26-.3.29-.13.03-.25-.04-.36-.21.03-.21.17-.34.43-.38Z" fill="#140302"/><path d="M13.6 10.98c-.1.19-.19.38-.3.56-.02-.28-.06-.45-.13-.52l-.14-.15c-.3-.29-.47-.5-.53-.65-.1-.26-.04-.5.18-.72.1.28.2.5.3.66l.61.82Z" fill="#CDC9BD"/><path d="M10.38 9.71c.02.05.02.1-.01.14-.02.03-.04.03-.06 0a.86.86 0 0 1-.08-.18c0-.04 0-.05.04-.05.05.01.09.04.11.1ZM10.14 9.92a.2.2 0 0 0 .1 0c.05-.02.06 0 .02.03-.04.04-.09.05-.14.04a.12.12 0 0 1-.1-.08.26.26 0 0 1 0-.2c.02-.04.04-.04.05 0l.02.15c0 .03.02.05.05.06Z" fill="#5F4334"/><path d="m11.42 9.81-.11.27c-.01.03-.03.03-.06.02a.3.3 0 0 0-.27 0c-.05-.06-.04-.15.02-.25a.13.13 0 0 1 .06-.05l.27-.12c.09-.04.11-.02.08.06-.01.01 0 .03 0 .07Z" fill="#B49E84"/><path d="M11.42 9.81c.06.05.08.1.06.15a.47.47 0 0 0-.07.37.1.1 0 0 1-.02.08.43.43 0 0 1-.35.19l.2-.2a.1.1 0 0 0 .04-.08.1.1 0 0 0-.05-.08.48.48 0 0 0-.2-.07l-.05-.07a.3.3 0 0 1 .27 0c.03.01.05 0 .06-.02l.1-.27Z" fill="#140302"/><path d="M9.75 9.92a.48.48 0 0 1-.4.07c-.04 0-.06 0-.09.02l-.11.12-.12-.1.19-.15a.1.1 0 0 1 .08-.02l.45.06ZM8.8 9.94l.3.33c-.18.15-.29.4-.33.78 0 .03-.02.06-.05.07a.09.09 0 0 1-.1 0c-.26-.2-.53-.16-.8.1-.2.2-.37.46-.5.8 0 .02-.02.03-.05.03-.02 0-.04 0-.06-.02a1.1 1.1 0 0 0-.45-.32 3.2 3.2 0 0 0-.55-.13l-.08-.01c-.01-.04 0-.06.02-.07h.1c.08.03.17.03.27.01.35-.02.74-.15 1.15-.4.16-.08.4-.16.73-.23.17-.03.25-.13.25-.3v-.13c.01-.24-.02-.42-.1-.52 0-.02 0-.03.02-.04h.05c.05.03.11.05.18.05Z" fill="#692C1D"/><path d="M7.56 9.98c.04.2.1.37.22.53.01.01 0 .03-.04.05-.1-.03-.17-.14-.22-.3a.08.08 0 0 0-.05-.06.38.38 0 0 0-.25 0 2.1 2.1 0 0 0-.72-.02c-.22.02-.42.07-.62.16-.07.03-.13.1-.18.2a.86.86 0 0 1-.02.05c-.03.01-.05.02-.07.01-.03 0-.04-.03-.03-.08l.14-.35c0-.02.02-.03.04-.02l.12.04h.09c.13-.05.24-.08.32-.09.31-.04.74-.08 1.27-.12Z" fill="#692C1D"/><path d="M7.22 10.2c.21.26.2.53-.06.82-.05.07-.16.15-.3.24-.16.1-.28.18-.34.25a.56.56 0 0 1-.27 0l.01-.82a.1.1 0 0 1 .03-.08.6.6 0 0 1 .27-.16c.03 0 .05-.03.06-.06.01-.05 0-.11-.04-.19a.04.04 0 0 0-.04-.02H6.5c.22-.04.46-.03.72.02Z" fill="#B37764"/><path d="M11.04 10.6c-.1.03-.17 0-.21-.05l.12-.02c.03-.01.05-.03.05-.06.01-.05 0-.1-.01-.15a.08.08 0 0 1 .01-.07.12.12 0 0 0 .03-.08c.06 0 .13.03.2.07a.1.1 0 0 1 .05.08.1.1 0 0 1-.03.09l-.2.19Z" fill="#B49E84"/><path d="M6.5 10.18h.04c.02 0 .03 0 .04.02.04.08.05.14.04.2-.01.02-.03.04-.06.05a.6.6 0 0 0-.27.16.1.1 0 0 0-.03.08l-.01.82h-.1c-.03-.02-.09-.03-.17-.05a.78.78 0 0 1-.3-.1c-.09-.06-.11-.16-.07-.3.04-.16.07-.31.06-.47l.03-.04c.05-.1.11-.18.18-.2.2-.1.4-.15.62-.17Z" fill="#CF8D7A"/><path d="m9.2 10.42-.03.73-.63.03a.67.67 0 0 0-.37-.11c-.06 0-.09.02-.08.06-.06 0-.1 0-.1.02a.89.89 0 0 0-.22.2c-.1.11-.07.14.07.08l.07-.09v.1c0 .02.02.04.04.06.02.02.04.04.04.06.02.03 0 .04-.02.02a.3.3 0 0 0-.24-.05v-.02c-.02-.02-.03-.02-.04 0-.1.1-.16.22-.2.36-.01.01 0 .02.01.02h.04l.02-.02c.01-.1.06-.17.14-.23.04.05.01.13-.07.22a.2.2 0 0 0-.04.06c-.03.07-.07.09-.12.06-.03-.02-.06-.01-.08.01-.07.08-.08.14-.04.2.4.5.59 1.03.57 1.57.02.06 0 .1-.05.1a4.98 4.98 0 0 1-1.07-.37.65.65 0 0 0-.14-.42.1.1 0 0 0-.08-.04h-.03a.08.08 0 0 1-.08-.04l-.1-.16c-.14-.2-.22-.37-.24-.51 0-.03 0-.06.02-.09a.59.59 0 0 0 .13-.2c.01-.02.03-.04.06-.04.09 0 .16-.06.21-.17.02-.03.01-.05-.03-.05a.2.2 0 0 0-.1.04c-.02-.04-.05-.07-.1-.07a3.4 3.4 0 0 0-1.01.09h-.43l-.15-.24c.19.05.39.07.58.06a7.25 7.25 0 0 0 .83-.08l.07.01c.26.05.44.1.55.13.18.07.33.18.45.32l.06.03c.03 0 .04-.02.05-.04.13-.33.3-.6.5-.8.27-.26.54-.3.8-.1.03.02.06.02.1 0a.09.09 0 0 0 .05-.07c.04-.37.15-.63.32-.78.08.09.12.13.11.15Z" fill="#E3E7E9"/><path d="M9.37 10.61c-.04.1-.03.2.02.3.02.03 0 .05-.02.07a.1.1 0 0 0-.04.05c-.01.04 0 .07.04.08l.23.08.01.02v.04c0 .02 0 .03-.02.02l-.42-.12.03-.73c.05.02.11.08.17.2Z" fill="#140302"/><path d="M9.58 10.86c.06.07.08.16.05.27 0 .03 0 .06.03.08l.13.1c.03.04.04.07.03.1a.07.07 0 0 1-.07.03c-.12 0-.22.04-.27.14-.2-.11-.44-.19-.73-.22-.08-.01-.15-.07-.21-.18l.63-.03.42.13c.01 0 .02 0 .02-.03v-.04l-.01-.02-.23-.08c-.04 0-.05-.04-.04-.08a.1.1 0 0 1 .04-.05c.03-.02.04-.04.02-.07a.35.35 0 0 1-.02-.3l.21.25Z" fill="#606062"/><path d="M9.76 11.63c.03.16.1.3.2.45l-.02.18c-.02.06 0 .1.05.12.03.01.05 0 .06-.04l-.04-.06.1.03c.12.17.26.33.4.5.04.03.07.08.1.15.04.08.08.14.13.19.08.07.15.17.22.3 0 .02.01.02.02 0l.02-.02v-.01l-.32-.46c-.02-.03-.02-.05.01-.07l.05-.01c.03 0 .04-.01.03-.04-.02-.06-.05-.09-.07-.1-.03-.02-.05-.01-.06 0l-.01.03c-.02.03-.04.03-.07 0a.14.14 0 0 1-.04-.1.3.3 0 0 0 .19-.02.11.11 0 0 0 .06-.06l.17-.53c.02-.03 0-.06-.02-.08a.46.46 0 0 0-.21-.07.1.1 0 0 1-.07-.03.37.37 0 0 1-.1-.21c0-.03.02-.05.05-.06.09 0 .15.02.18.08l.37.33c.02.02.03.04.02.07l-.02.04v.05l.1.2c.11.23.17.4.17.52 0 .11.03.24.07.37 0 .02.01.02.02.01l.03-.02v-.02a2.26 2.26 0 0 0-.15-.66.66.66 0 0 1 .07-.62l.05-.01c.11-.02.24 0 .4.06.11.04.35.06.72.06.02.04.08.05.2.02l.04.08c-.42.52-.93.93-1.52 1.24 0-.1-.04-.19-.11-.24l-.06-.06-.08-.3c0-.02 0-.04.02-.06.01-.01.03-.02.05 0h.05c.03.02.05 0 .05-.03 0-.04 0-.07-.05-.09-.04-.01-.07 0-.1.03-.01.03-.04.03-.06.01l-.08-.06h-.04c-.02.01-.02.03-.01.04.1.16.14.33.1.5l.01.08.11.28c-1.05.5-2.14.62-3.27.35.05 0 .07-.04.05-.1l.04.05c.03.03.04.02.05-.02l.04-.39c0-.02 0-.04-.02-.06a7.63 7.63 0 0 1-.2-.7.09.09 0 0 0-.06-.07.32.32 0 0 1-.19-.23.13.13 0 0 0-.04-.08l-.15-.12c-.03-.03-.03-.05.01-.07.06-.02.12-.03.16-.01.03 0 .05.03.07.06.04.07.08.1.15.12a.1.1 0 0 0 .07-.02c.1-.08.23-.13.4-.14.27-.34.48-.52.64-.54a.3.3 0 0 1 .14.02c.17.07.32.07.45.02.05-.1.15-.14.28-.14.03 0 .05 0 .06-.04.02-.02 0-.05-.03-.08a20.8 20.8 0 0 0-.13-.11.07.07 0 0 1-.03-.08c.03-.1.01-.2-.05-.28.2.12.32.3.37.53 0 .04 0 .05-.05.04l-.05.01c-.03.02-.04.04-.03.07.04.08.02.12-.06.13Z" fill="#BFC0C6"/><path d="M8.53 11.19c.07.1.14.16.22.17.29.03.53.1.73.22-.13.05-.28.05-.45-.02a.3.3 0 0 0-.15-.02c-.15.02-.36.2-.63.54 0-.18.02-.33.1-.44.08-.13.12-.2.11-.24 0-.1-.1-.16-.25-.2l-.08-.04a.07.07 0 0 0-.04-.03c0-.04.02-.06.08-.06.13 0 .25.04.36.12Z" fill="#140302"/><path d="M12.75 11.68v-.3c.01-.1-.04-.13-.13-.06-.05.03-.13.03-.23 0 .07-.18.21-.24.41-.2a.1.1 0 0 1 .07.06l.11.24c.02.04.01.06-.02.09-.03.02-.04.04-.04.06 0 .03.01.05.05.05h.1c.04 0 .05.02.01.05-.05.05-.12.05-.2 0-.03-.02-.08-.02-.13.01Z" fill="#B49E84"/><path d="m8.09 11.13.04.03H8.1c-.03.02-.03.04 0 .06l.1.08h.03c.04-.02.03-.06-.02-.1.16.04.24.1.25.2 0 .03-.03.1-.11.24a.76.76 0 0 0-.1.44.73.73 0 0 0-.4.14.1.1 0 0 1-.07.02c-.07-.01-.12-.05-.15-.12a.12.12 0 0 0-.08-.07c-.04 0-.09 0-.15.02-.04.02-.04.04 0 .07l.14.12c.02.02.04.04.04.08.02.1.08.18.19.23.03.02.04.04.05.07a7.62 7.62 0 0 0 .2.7l.03.06-.04.4c0 .03-.02.04-.05 0l-.04-.04a2.4 2.4 0 0 0-.57-1.57c-.04-.06-.03-.12.04-.2.02-.02.04-.03.07-.01.06.03.1 0 .13-.06a.2.2 0 0 1 .04-.06c.08-.1.1-.17.07-.22l.03-.1a.3.3 0 0 1 .24.04c.03.02.03.01.02-.02a.14.14 0 0 0-.04-.06.12.12 0 0 1-.04-.07v-.09c.02-.06.06-.1.12-.12l.02-.03c0-.01 0-.02-.02-.03l-.05-.01c.02-.02.05-.02.1-.02Z" fill="#7B808C"/><path d="m7.98 11.15.05.01.02.03c0 .02 0 .03-.02.03a.22.22 0 0 0-.13.12l-.06.1c-.14.05-.16.02-.07-.1a.89.89 0 0 1 .21-.2Z" fill="#5F4334"/><path d="m8.13 11.16.08.03c.05.05.06.09.02.11H8.2l-.1-.08c-.03-.02-.03-.04 0-.05l.03-.01Z" fill="#BFC0C6"/><path d="M12.75 11.69c0 .09.04.19.1.3.02.04.01.08-.03.1-.12.03-.18.02-.2-.01-.09-.14-.23-.21-.42-.23l-.35.05c-.11.03-.23.04-.35.05h-.05c-.14.06-.22.05-.25-.03l.33-.13c.07-.04.18-.08.33-.13.2-.06.38-.18.53-.34.1.03.18.03.23 0 .1-.06.14-.04.14.07v.3ZM7.73 11.53l-.03.1a.37.37 0 0 0-.15.24c0 .02 0 .02-.02.02H7.5c-.02 0-.02 0-.02-.02.05-.14.11-.26.2-.37h.04l.01.03Z" fill="#606062"/><path d="M11.05 11.8c.12.16.17.2.15.12.03.08.11.1.25.04a.66.66 0 0 0-.07.62 2.27 2.27 0 0 1 .15.68l-.03.02h-.02a1.36 1.36 0 0 1-.07-.38c0-.11-.06-.28-.17-.52a7.47 7.47 0 0 1-.1-.25l.02-.04c0-.03 0-.05-.02-.07l-.37-.33.28.11Z" fill="#5F4334"/><path d="m6.41 11.81-.43.37a.1.1 0 0 1-.07.02.79.79 0 0 1-.26-.05c0-.13-.12-.24-.34-.32.34-.08.67-.11 1-.1.05.01.09.04.1.08Z" fill="#606062"/><path d="M6.8 13.49a4.91 4.91 0 0 1-1.9-1.64l.75.3c.08.03.16.05.26.05a.1.1 0 0 0 .07-.02l.43-.37a.2.2 0 0 1 .11-.04c.04 0 .05.02.03.05-.05.11-.12.17-.2.17-.04 0-.06.01-.07.04a.6.6 0 0 1-.13.2.1.1 0 0 0-.02.09c.02.14.1.31.23.5l.11.17c.02.03.04.04.07.04h.04a.1.1 0 0 1 .07.04c.1.14.16.28.15.42Z" fill="#BFC0C6"/><path d="M5.3 11.83c.23.08.34.19.35.32l-.75-.3-.02-.02h.43Z" fill="#140302"/><path d="M12.62 12.07c-.37 0-.61-.02-.72-.06a.86.86 0 0 0-.4-.06c.12 0 .24-.02.35-.05.17-.04.28-.05.35-.05.2.02.33.09.42.22Z" fill="#B49E84"/><path d="m11.34 13.41-.2.1-.1-.28a.14.14 0 0 1-.02-.08.66.66 0 0 0-.1-.5v-.04c.02-.02.03-.02.05 0l.08.06c.02.02.05.02.07 0 .02-.04.05-.05.09-.04.04.02.06.05.05.09 0 .04-.02.05-.06.04l-.04-.02-.06.01a.06.06 0 0 0-.01.07l.08.3.06.05c.07.05.1.13.1.24Z" fill="#5F4334"/><path d="M7.98 12.9c.04.04.09.06.1.05.01-.01-.02-.06-.06-.1-.05-.04-.1-.06-.1-.05-.02.01.01.06.06.1Z" fill="#7B808C"/><path d="m10.87 13 .02-.02h.04v.04c0 .03-.02.05-.04.06-.02 0-.04 0-.05-.03 0-.02 0-.04.03-.06Z" fill="#957350"/><defs><linearGradient id="a" x1="3.35" y1="3.12" x2="21.9" y2="24.43" gradientUnits="userSpaceOnUse"><stop stop-color="#1A1E21"/><stop offset="1" stop-color="#06060A"/></linearGradient></defs></svg>