<!-- by TradingView --><svg width="18" height="18" viewBox="0 0 18 18" xmlns="http://www.w3.org/2000/svg"><path fill="url(#aeqbvm4ve)" d="M0 0h18v18H0z"/><path fill-rule="evenodd" d="M9.61 3.18a1.15 1.15 0 0 0-1.22 0L4.6 5.52c-.38.23-.61.67-.61 1.14v4.68c0 .47.23.9.61 1.14l3.78 2.34c.38.24.84.24 1.22 0l3.78-2.34c.38-.23.61-.67.61-1.14V6.66c0-.47-.23-.9-.61-1.14L9.6 3.18Zm-.53.6a.22.22 0 0 0-.23 0l-4.1 2.5a.25.25 0 0 0-.11.22v5c0 .09.04.17.11.21l4.1 2.5c.07.05.16.05.23 0l4.1-2.5a.25.25 0 0 0 .12-.2V6.5a.25.25 0 0 0-.12-.21l-4.1-2.5Zm.41.49a.91.91 0 0 0-.98 0l-3.02 1.9c-.3.2-.49.44-.49.83v4.29c0 .29.1.34.29.43.06.03.13.06.2.11l3.02 1.9c.3.2.68.2.98 0l3.02-1.9c.07-.05.14-.08.2-.11.18-.1.29-.14.29-.43v-4.3c0-.38-.19-.63-.5-.82l-3-1.9Zm-.4.25a.18.18 0 0 0-.19 0L5.46 6.67c-.06.03-.1.1-.1.18v4.3c0 .08.04.15.1.18l3.44 2.15c.06.04.14.04.2 0l3.44-2.15c.06-.03.1-.1.1-.18v-4.3a.21.21 0 0 0-.1-.18L9.1 4.52Zm2.38 3.37L9.25 9.24v2.72c0 .11-.1.2-.2.2s-.16-.09-.16-.2V9.24L6.67 7.89a.22.22 0 0 1-.07-.28c.05-.1.17-.14.26-.08l2.2 1.35 2.22-1.35c.1-.06.21-.02.26.08.06.1.03.22-.07.28Z" fill="#fff"/><defs><linearGradient id="aeqbvm4ve" x1="3.35" y1="3.12" x2="21.9" y2="24.43" gradientUnits="userSpaceOnUse"><stop stop-color="#1A1E21"/><stop offset="1" stop-color="#06060A"/></linearGradient></defs></svg>