<!-- by TradingView --><svg width="18" height="18" viewBox="0 0 18 18" xmlns="http://www.w3.org/2000/svg"><path fill="url(#amtnklrlj)" d="M0 0h18v18H0z"/><path d="M10.37 13.55A4.72 4.72 0 0 1 6.4 13c-2.22-1.57-2.73-3.93-1.76-5.75.24-.44.54-.87.9-1.28.4-.45.84-.79 1.39-1.03.16-.07.32-.16.5-.21a4.6 4.6 0 0 1 1.65-.26c5.3.12 6.67 7.42 1.3 9.1Z" fill="#F1C71D"/><path d="M13.8 8c0 .1 0 .16-.02.2-.03.1-.06.1-.08 0A4.73 4.73 0 0 0 7.49 4.7c-.17.06-.33.14-.5.22-.54.23-.98.56-1.39 1.01-.36.4-.66.82-.9 1.26-.1.2-.21.53-.34 1.02 0 .02-.02.03-.04.02l-.02-.02.02-.26c.12-.53.28-1 .49-1.41a4.99 4.99 0 0 1 3.17-2.4 4.8 4.8 0 0 1 5.46 2.78c.1.22.22.58.35 1.07Z" fill="#FBA200"/><path fill-rule="evenodd" d="M9.46 5.18v.61a.03.03 0 0 1-.02.03.03.03 0 0 1-.03 0 .69.69 0 0 0-.6-.15.05.05 0 0 1-.05-.03v-.02l-.02-.41a.13.13 0 0 0-.08-.12h-.1a.12.12 0 0 0-.1.11v.63a.05.05 0 0 1-.02.03.05.05 0 0 1-.04.01c-.33-.03-.45.1-.66.33a.09.09 0 0 1-.05.03c-.24.04-.33.16-.44.31l-.1.14c-.2.25-.25.52-.06.79.07.1.19.2.3.27l.1.07c.11.08.1.21.08.34v.02l-.02.03h-.57a.94.94 0 0 0-.8.6c-.1.21-.09.48-.08.73v.17c0 .3.04.52.1.66.26.54.77.56 1.31.53a.07.07 0 0 1 .07.04v.15c0 .02.01.04.04.04h3.08c.05 0 .06-.03.06-.07V8.13l.03-.06a.13.13 0 0 1 .05-.06c.23-.13.27-.32.3-.53l.05-.17a.3.3 0 0 0-.01-.19c-.03-.07-.1-.15-.18-.23a.91.91 0 0 1-.2-.26c-.05-.15-.14-.26-.3-.3h-.01c-.1-.02-.14-.03-.2-.13-.12-.2-.29-.26-.5-.31-.03 0-.04-.02-.04-.05v-.61c0-.09-.04-.14-.13-.15h-.04a.11.11 0 0 0-.11.06.1.1 0 0 0-.01.04Zm.36 2.4c-.2 0-.3.1-.42.2a3.02 3.02 0 0 1-.1.09.08.08 0 0 0 0 .09l.08.09c.01.02.02.04.01.06l-.04.25c0 .03-.01.04-.03.06-.07.04-.2.03-.22-.06-.03-.07 0-.14.1-.22.03-.03.02-.06-.02-.08l-.1-.05a.08.08 0 0 1-.04-.06.08.08 0 0 1 .03-.07l.07-.05.02-.03v-.03l-.1-.24A.06.06 0 0 0 9 7.49a.06.06 0 0 0-.05.03c-.07.09-.15.1-.24.02a.13.13 0 0 0-.17.01l-.1.11a.05.05 0 0 1-.08 0l-.01-.02c0-.05-.03-.13-.08-.14h-.04a.04.04 0 0 0-.03.03l-.02.12-.02.03-.03.02c-.05 0-.1 0-.14-.02a.07.07 0 0 0-.06.01c-.13.08-.23.08-.35-.03l-.15-.11a.73.73 0 0 1-.2-.17c-.17-.24-.07-.43.1-.62.05-.05.08-.1.1-.15.07-.1.12-.19.37-.18.04 0 .06-.02.08-.05.1-.28.32-.37.63-.28.03 0 .04 0 .05-.02.2-.37.7-.3.83.07a.05.05 0 0 0 .06.03h.02c.27-.19.67-.05.7.3a.04.04 0 0 0 .03.03h.02c.14-.03.35 0 .4.17.01.1.05.17.08.26.03.07.07.15.09.24.02.1-.04.36-.07.5l-.01.04c0 .02-.02.04-.03.05a3.6 3.6 0 0 0-.33.25c-.07.06-.1.12-.15.2l-.06.1a.12.12 0 0 0 0 .13c.11.22-.12.28-.21.13a.05.05 0 0 1 0-.06l.06-.1a.14.14 0 0 0-.01-.16.2.2 0 0 1-.03-.22.06.06 0 0 0-.01-.06.47.47 0 0 1-.1-.36c0-.02 0-.03-.03-.03Zm-1.52.76c-.1 0-.17.07-.17.17v2.1c0 .09.07.16.16.16.1 0 .17-.07.17-.16v-2.1c0-.1-.07-.17-.16-.17Zm1.45 2.43h.03c.1 0 .15-.06.15-.15V8.9c0-.07-.04-.12-.1-.17-.06-.08-.13-.16-.06-.3.04-.06.02-.09-.05-.08-.07.01-.1.06-.1.15a45.78 45.78 0 0 0 .02 2.2.12.12 0 0 0 .06.06h.05Zm-.85-2.3.29.18a.02.02 0 0 1 0 .02l.02 1.95c0 .1-.05.16-.16.16h-.04a.14.14 0 0 1-.14-.14l.01-2.15c0-.01 0-.02.02-.01Zm-1.31 1.86c0 .02 0 .03-.02.04a.06.06 0 0 1-.04.01h-.37a.67.67 0 0 1-.44-.16.54.54 0 0 1-.2-.4V9.3c0-.08.03-.15.06-.22a.57.57 0 0 1 .14-.19c.05-.05.12-.1.2-.12a.7.7 0 0 1 .24-.04h.37l.04.01.02.04v1.55Zm1.25 1.51.02-.02h.65l.02.01.02.02.02.02v.55c0 .08.05.11.14.1h.04c.03 0 .06 0 .09-.03a.1.1 0 0 0 .03-.08v-.56l.01-.01.02-.02h.68c.04 0 .08 0 .11-.02a.14.14 0 0 0 .06-.1l.01-.1c.01-.08-.03-.13-.12-.13H7.7c-.08 0-.12.03-.11.1l.01.15c.01.08.06.1.15.1h.7l.03.03.01.02c.02 0 .02.02.02.03l.02.53c0 .03 0 .05.03.07.02.01.04.03.07.03h.04c.1 0 .16-.04.16-.13v-.55h.01Z" fill="#FEFEFC"/><path fill-rule="evenodd" d="M9 15A6 6 0 1 0 9 3a6 6 0 0 0 0 12Zm0-1.35a4.78 4.78 0 0 0 4.75-4.8c0-2.66-2.13-4.81-4.75-4.81a4.78 4.78 0 0 0-4.75 4.8c0 2.66 2.13 4.81 4.75 4.81Z" fill="#FDDB1A"/><path d="M13.47 6.74a4.96 4.96 0 0 0-2.9-2.68.21.21 0 0 1-.11-.26l.01-.05c.06-.16.16-.22.33-.17 1.62.5 2.86 1.91 3.42 3.51.06.17.01.29-.14.37l-.06.03a.2.2 0 0 1-.27-.1c-.11-.28-.2-.5-.28-.65ZM7.24 13.53c.42.17.17.68-.23.52a5.57 5.57 0 0 1-3.24-3.43c-.06-.17 0-.29.16-.35l.06-.03a.2.2 0 0 1 .28.13 5.06 5.06 0 0 0 2.97 3.16Z" fill="#FEFEFC"/><defs><linearGradient id="amtnklrlj" x1="9" y1="0" x2="9" y2="18" gradientUnits="userSpaceOnUse"><stop stop-color="#FDDB1A"/><stop offset="1" stop-color="#FBA200"/></linearGradient></defs></svg>