<!-- by TradingView --><svg width="18" height="18" viewBox="0 0 18 18" xmlns="http://www.w3.org/2000/svg"><path fill="url(#arvq0b5zc)" d="M0 0h18v18H0z"/><circle cx="9" cy="9" fill="#fff" r="5"/><path d="M6 5c-.38.29-.72.62-1 1 0 .51.35 1 .88 1h.54v1h-.54c-.65 0-1.23-.2-1.63-.58a5 5 0 1 0 2.87-3.05c.55.39.88 1.05.88 1.8V9c0 .44.46.99.97.99.65 0 1.03-.55 1.03-.97A1 1 0 0 0 8.98 8h-.45V7h.45C10.1 7 11 7.93 11 9.03A2 2 0 0 1 8.97 11 1.96 1.96 0 0 1 7 9V6.17c0-.51-.48-1.1-1-1.16Z" fill="#4250E4"/><defs><linearGradient id="arvq0b5zc" x1="3.35" y1="3.12" x2="21.9" y2="24.43" gradientUnits="userSpaceOnUse"><stop stop-color="#1A1E21"/><stop offset="1" stop-color="#06060A"/></linearGradient></defs></svg>