<!-- by TradingView --><svg width="18" height="18" viewBox="0 0 18 18" xmlns="http://www.w3.org/2000/svg"><path fill="#97552E" d="M0 0h18v18H0z"/><path d="M3.04 9.67c-.46-4.28 3.31-7.42 7.45-6.51a5.74 5.74 0 0 1 4.45 4.94c.2 1.43-.1 3.06-.91 4.28a5.69 5.69 0 0 1-4.26 2.57 5.89 5.89 0 0 1-6.73-5.28Z" fill="#A66845"/><path d="M6.8 12.45c.43-.41.82-.84 1.19-1.29.1-.13.18-.26.22-.38a.24.24 0 0 1 .24-.16c.04 0 .07.01.1.03.37.2.76.3 1.19.3.74-.02 1.54-.63 1.87-1.24.75-1.43-.24-3.3-1.89-3.35-1.79-.06-2.89 2.03-1.95 3.52a.11.11 0 0 1 .01.09.11.11 0 0 1-.05.07c-.2.11-.46.2-.66.4-.4.38-.8.8-1.2 1.23a.23.23 0 0 1-.19.13.1.1 0 0 1-.1-.04 3.32 3.32 0 0 1-.45-3.09 14.16 14.16 0 0 0 .24-.88.14.14 0 0 0-.03-.06c-.13-.17-.3-.33-.38-.55-.26-.6-.17-1.17.25-1.69.28-.33.66-.5 1.15-.51.39 0 .71.14.97.42a.34.34 0 0 0 .36.1 3.75 3.75 0 0 1 2.15-.15c.34.09.68.2.92 0 .2-.17.38-.28.56-.33l.65-.01c.18 0 .35.06.51.2.3.27.47.4.48.43.34.5.39 1.03.14 1.56-.08.17-.28.38-.37.61a.2.2 0 0 0 0 .14l.3 1.07c.41 1.78-.49 3.24-2.16 3.8a6.3 6.3 0 0 1-3.56.04c-.36-.1-.53-.24-.5-.4Z" fill="#F0F3FA"/><path d="M6.8 12.45c-.13-.35-.44-.6-.94-.78.4-.43.8-.85 1.2-1.23.2-.2.46-.29.67-.4a.12.12 0 0 0 .05-.07.11.11 0 0 0-.01-.09c-.94-1.5.16-3.58 1.95-3.52 1.65.05 2.64 1.92 1.89 3.35-.33.61-1.13 1.22-1.87 1.23-.43 0-.82-.09-1.19-.3a.24.24 0 0 0-.29.05.24.24 0 0 0-.05.1c-.04.11-.12.24-.22.37-.37.45-.76.88-1.19 1.3Z" fill="#C38D6C"/><path d="M8.22 8.52c-.06.83.53 1.56 1.32 1.62.8.06 1.5-.56 1.56-1.4a1.48 1.48 0 0 0-1.33-1.6c-.79-.07-1.49.55-1.55 1.38Z" fill="#F0F3FA"/></svg>