<!-- by TradingView --><svg width="18" height="18" viewBox="0 0 18 18" xmlns="http://www.w3.org/2000/svg"><path fill="#F0F3FA" d="M0 0h18v18H0z"/><path d="m13.05 7.08.1.61-.37-.55a7.13 7.13 0 0 0-2.32-1.93c-1.37-.7-3.05-.8-4.22.35a.06.06 0 0 0-.02.05l.01.02.02.02c.03.02.06.02.1 0 .86-.63 1.86-.8 3.01-.5.26.07.48.21.66.44.24.3.43.62.57.96a.17.17 0 0 1-.02.18.2.2 0 0 1-.08.06.2.2 0 0 1-.1.01 1.08 1.08 0 0 1-.57-.33c.14-.3-.32-.49-.55-.5-.63-.06-.84.44-.64.94a.13.13 0 0 1-.03.15.25.25 0 0 1-.13.07c-.06.01-.1 0-.14-.05-.2-.31-.47-.47-.8-.49-.24-.01-.49.13-.41.4 0 .02.02.04.04.06l.07.04a.18.18 0 0 0 .16-.03c.24-.2.46-.14.66.18.05.08.05.17-.01.25-.17.22-.26.5-.27.82v.03l-.03.01a.06.06 0 0 1-.06 0l-.58-.56a.22.22 0 0 0-.15-.05c-.05 0-.1.02-.15.05l-.03.03c-.08.08-.08.16 0 .24l.64.7.07.34-1.54-.02a4.3 4.3 0 0 1-.11-3.6V5.4a.08.08 0 0 0-.05-.04h-.04a.12.12 0 0 0-.08.05c-.37.47-.82.84-1.36 1.11.23-.68.9-1.23 1.51-1.68a4.05 4.05 0 0 1 4.62-.25c1.1.6 1.97 1.43 2.62 2.48Z" fill="#00B2FA"/><path d="m12.78 7.14.12 1.02c0 .04 0 .04-.04.01-.19-.18-.42-.31-.7-.4-.33-.1-.69-.1-1.07.05a2.66 2.66 0 0 0-2.01-.88c-.06 0-.1-.03-.11-.08A.49.49 0 0 1 9 6.43a.3.3 0 0 1 .3-.13.3.3 0 0 1 .1.04c.1.07.25.1.41.13.2.2.4.31.57.33a.2.2 0 0 0 .1 0 .2.2 0 0 0 .08-.07.18.18 0 0 0 .02-.18 4.12 4.12 0 0 0-.57-.96c-.18-.23-.4-.37-.66-.44a3.42 3.42 0 0 0-3.02.5c-.03.02-.06.02-.1 0l-.01-.02a.06.06 0 0 1 .01-.07c1.17-1.14 2.85-1.04 4.22-.35a7.13 7.13 0 0 1 2.32 1.93ZM5.94 9.08l.28.71-.23.01-.6-1.2c-.04-.08-.08-.08-.11 0a.44.44 0 0 0-.04.17c0 .07-.03.1-.1.1l-1.04.02a3.73 3.73 0 0 1 .2-2.36c.54-.27.99-.64 1.36-1.11a.12.12 0 0 1 .08-.05.1.1 0 0 1 .04 0c.02 0 .04.02.05.04v.07a4.3 4.3 0 0 0 .1 3.6Z" fill="#009CF8"/><path d="M9.82 6.47c-.16-.02-.3-.06-.4-.13a.3.3 0 0 0-.34.01.28.28 0 0 0-.07.08.49.49 0 0 0-.04.43c.01.05.05.08.1.08.82 0 1.49.3 2.02.88l.48.69c.34.86.25 1.74-.71 2.15-.2.1-.58.1-1.13.02-1.05-.36-1.6-1.18-2.32-1.91l-.65-.71c-.07-.08-.07-.16.01-.24l.03-.03c.04-.03.1-.05.15-.05.06 0 .11.02.15.05l.58.55a.06.06 0 0 0 .08 0l.01-.03c.01-.33.1-.6.27-.82a.21.21 0 0 0 0-.25c-.19-.32-.4-.38-.65-.18a.17.17 0 0 1-.16.03.17.17 0 0 1-.07-.04.16.16 0 0 1-.04-.07c-.08-.26.17-.4.42-.39.32.02.58.18.8.49.03.04.07.06.13.05.04 0 .09-.03.13-.07a.13.13 0 0 0 .03-.15c-.2-.5.01-1 .64-.95.23.02.7.2.55.51Z" fill="#fff"/><path d="m11.04 13.78.8-.63c.04-.04.03-.06-.03-.06a8.57 8.57 0 0 1-2.4-.48c-.27-.1-.57-.27-.88-.51-.29-.23-.57-.43-.86-.61-.31-.21-.7-.66-1.17-1.35.58.29 1.2.36 1.85.22.06-.01.11 0 .16.02.4.2.8.3 1.22.3.55.08.93.07 1.13-.02.96-.41 1.05-1.29.7-2.15.45.13.82.36 1.12.69l.24 1.33c-.1.84-.55 1.44-1.34 1.79-.03.01-.04.03-.04.06 0 .02.01.04.03.05l.05.01c.3-.03.56-.13.81-.3.9-.63 1.3-1.5 1.23-2.58a4.13 4.13 0 0 0-.51-1.87l-.1-.6c1.1 1.68 1.47 3.91-.14 5.48-.53.51-1.15.92-1.87 1.21Z" fill="#798AF9"/><path d="M13.15 7.7c.32.58.5 1.2.51 1.86-.07-.1-.14-.11-.2-.02-.07.1-.1.09-.13-.02a.16.16 0 0 0-.06-.08.13.13 0 0 0-.17.02.11.11 0 0 0-.03.05l-.15 1.02-.24-1.33-.51-1.42c.27.08.5.2.7.4.02.02.04.02.03-.02l-.12-1.02.37.55Z" fill="#315CF8"/><path d="m12.17 7.78.51 1.42a2.5 2.5 0 0 0-1.11-.7l-.48-.68c.38-.14.74-.16 1.08-.04ZM5.99 9.8l.06.37-.64 1.38A5.96 5.96 0 0 1 4.1 8.9l1.04-.02c.07 0 .1-.03.1-.1 0-.06.01-.12.04-.17.03-.08.07-.08.1 0l.6 1.2Z" fill="#4F9FFA"/><path d="M9.73 10.68c-.42 0-.83-.1-1.22-.3a.24.24 0 0 0-.16-.02c-.65.14-1.27.07-1.85-.22a.36.36 0 0 1-.17-.23c.53-.07 1.1-.26 1.15-.81l-.07-.33c.72.73 1.27 1.55 2.32 1.9Z" fill="#5491F5"/><path d="M7.48 9.1c-.06.55-.62.74-1.15.81a.28.28 0 0 1-.11-.12l-.28-.71 1.54.02Z" fill="#4F9FFA"/><path d="M13.66 9.56a2.74 2.74 0 0 1-1.23 2.57c-.25.18-.52.28-.8.31l-.06-.01a.07.07 0 0 1-.03-.05c0-.03.01-.05.04-.06.8-.35 1.24-.95 1.34-1.8l.15-1 .02-.06a.13.13 0 0 1 .17-.02c.04.03.06.05.07.08.02.1.06.11.13.02.06-.1.13-.09.2.02Z" fill="#0022F2"/><path d="M6.22 9.8c.03.05.07.1.1.11.03.1.1.18.18.23.47.69.86 1.14 1.17 1.35.29.18.57.38.86.6.31.25.6.42.88.52.76.27 1.56.43 2.4.48.06 0 .07.02.02.06l-.8.63-1.06.22.4-.36a.32.32 0 0 1 .13-.08c.1-.03.18-.08.22-.16.02-.04 0-.09-.07-.13-.03-.03-.25-.1-.65-.21a6.87 6.87 0 0 1-3.52-2.47l-.43-.42L6 9.8h.23Z" fill="#526DF8"/><path d="M6.48 10.59c-.17.4-.4.72-.68.92a.13.13 0 0 0-.06.13c.02.19.1.36.25.52l-.58-.6.64-1.4.43.43Z" fill="#315CF8"/><path d="M6.48 10.59A6.87 6.87 0 0 0 10 13.06c.4.11.62.18.65.2.07.05.1.1.07.14a.34.34 0 0 1-.22.16.32.32 0 0 0-.13.08l-.4.36A5.76 5.76 0 0 1 6 12.16a.88.88 0 0 1-.25-.52c-.01-.06.01-.1.06-.13.29-.2.51-.51.68-.92Z" fill="#0022F2"/><path d="M10.16 7.67c.02.21.1.36.2.45.18.13.16.2-.08.22l-.78.04a.42.42 0 0 0-.23.21c-.27.14-.56.23-.9.26a1.22 1.22 0 0 1 0-.7c.06-.21.19-.39.37-.5.18-.13.4-.19.66-.18.25 0 .5.08.76.2Z" fill="#009CF8"/><path d="M8.37 8.85c.34-.03.63-.12.9-.26-.03.4.17.64.58.73a.33.33 0 0 0 .36-.14c.28-.41-.28-.84-.71-.8l.78-.04c.24-.02.26-.09.09-.22-.12-.09-.19-.24-.21-.45.28.16.54.38.73.64.18.27.3.56.3.84a1 1 0 0 1-.2.7 1 1 0 0 1-.66.35c-.19.02-.4 0-.6-.05a2.09 2.09 0 0 1-1.07-.74 1.78 1.78 0 0 1-.29-.56Z" fill="#5491F5"/></svg>