<!-- by TradingView --><svg width="18" height="18" xmlns="http://www.w3.org/2000/svg"><path fill="url(#paint0_linear)" d="M0 0h18v18H0z"/><path d="M5.067 7.074a.3.3 0 01.19.38c-.28.84-.817 1.408-1.077 1.603a.3.3 0 11-.36-.48c.172-.13.63-.599.867-1.313a.3.3 0 01.38-.19zm3.681-2.672c-1.27.309-2.35 1.254-2.891 1.95a.3.3 0 01-.474-.369c.593-.762 1.78-1.813 3.223-2.164a3.87 3.87 0 012.337.135c.81.31 1.612.922 2.368 1.93a.3.3 0 11-.48.36c-.703-.938-1.42-1.467-2.103-1.73a3.27 3.27 0 00-1.98-.112zm4.714 2.452a.3.3 0 01.38.19c.188.567.462 2.534-1 4.948a.3.3 0 11-.514-.311c1.368-2.259 1.08-4.042.944-4.447a.3.3 0 01.19-.38zm-1.197 5.705a.3.3 0 01.083.416l-.648.972a.3.3 0 11-.499-.333l.648-.972a.3.3 0 01.416-.083z" fill="#fff"/><path d="M8.485 6.149c-.756.353-1.402 1.064-1.792 1.781a.3.3 0 11-.527-.286c.433-.799 1.164-1.617 2.065-2.039.922-.431 2.011-.439 3.079.382.7.538.927 1.492.927 2.182a.3.3 0 11-.6 0c0-.606-.207-1.332-.693-1.706-.876-.674-1.724-.659-2.459-.314zm-2.407 2.4a.3.3 0 01.134.402c-.54 1.08-1.347 1.911-1.696 2.202a.3.3 0 11-.384-.461c.299-.249 1.047-1.017 1.543-2.01a.3.3 0 01.403-.134zm5.892.398a.3.3 0 01.265.33c-.116 1.042-.783 2.937-2.501 4.92a.3.3 0 01-.454-.393c1.652-1.906 2.258-3.69 2.359-4.592a.3.3 0 01.33-.265zm-5.684 2.059a.3.3 0 01.06.42 6.282 6.282 0 01-.788.852 7.173 7.173 0 01-.373.317l-.024.018-.006.005-.002.002a.3.3 0 01-.361-.48l.005-.004.02-.014.074-.06c.065-.053.157-.13.264-.228.215-.195.483-.464.71-.768a.3.3 0 01.42-.06z" fill="#fff"/><path d="M9.314 7.306c-.518.003-1.131.431-1.298 1.098-.19.76-.642 1.577-1.012 2.14a.3.3 0 11-.501-.33c.356-.542.766-1.293.931-1.956.231-.924 1.076-1.548 1.876-1.552.414-.003.82.162 1.103.537.277.368.409.901.365 1.592a.3.3 0 11-.598-.037c.037-.605-.085-.979-.247-1.194a.738.738 0 00-.62-.298zm.914 2.458a.3.3 0 01.218.363c-.233.931-.83 2.215-2.678 3.93a.3.3 0 01-.409-.439c1.78-1.653 2.306-2.84 2.505-3.636a.3.3 0 01.364-.218z" fill="#fff"/><path d="M9.084 8.523a.3.3 0 01.23.357c-.176.823-1.054 2.844-3.173 4.698a.3.3 0 01-.395-.452c2.028-1.774 2.834-3.684 2.982-4.372a.3.3 0 01.356-.23z" fill="#fff"/><defs><linearGradient id="paint0_linear" x1="0" y1="0" x2="17.196" y2="18" gradientUnits="userSpaceOnUse"><stop stop-color="#0845FB"/><stop offset=".137" stop-color="#0756F0"/><stop offset=".756" stop-color="#75E3FE"/><stop offset="1" stop-color="#A8F5FC"/></linearGradient></defs></svg>