<!-- by TradingView --><svg width="18" height="18" viewBox="0 0 18 18" xmlns="http://www.w3.org/2000/svg"><path fill="#F0F3FA" d="M0 0h18v18H0z"/><circle cx="9" cy="9" r="5" fill="url(#awt2z44n3)"/><path d="M8.38 7.13v4.37h-.63V9.6l-.72.71-.44-.44 1.03-1.03L6.6 7.81l.44-.44.72.72v-.96c0-.53.41-.94.94-.94h1.1c.54 0 1.09.46 1.09 1.1v.77c0 .3-.08.61-.26.86.14.12.26.3.26.55v1.1c0 .52-.42.93-.94.93H9v-.63h.94a.3.3 0 0 0 .31-.3v-1.1c0-.13-.22-.16-.31-.16H9.3V8.7h.63c.24 0 .31-.46.31-.63v-.78c0-.24-.3-.47-.47-.47h-1.1a.3.3 0 0 0-.3.32Z" fill="#FEFEFF"/><path fill-rule="evenodd" d="M9 12.75a3.75 3.75 0 1 0 0-7.5 3.75 3.75 0 0 0 0 7.5Zm0 .31a4.06 4.06 0 1 0 0-8.12 4.06 4.06 0 0 0 0 8.12Z" fill="url(#bwt2z44n3)"/><defs><linearGradient id="awt2z44n3" x1="9" y1="4" x2="9" y2="14" gradientUnits="userSpaceOnUse"><stop stop-color="#00A0FF"/><stop offset="1" stop-color="#005EFF"/></linearGradient><linearGradient id="bwt2z44n3" x1="11.34" y1="5.72" x2="6.97" y2="12.59" gradientUnits="userSpaceOnUse"><stop stop-color="#0072FF"/><stop offset="1" stop-color="#00A0FF"/></linearGradient></defs></svg>