<!-- by TradingView --><svg width="18" height="18" viewBox="0 0 18 18" xmlns="http://www.w3.org/2000/svg"><path fill="#F0F3FA" d="M0 0h18v18H0z"/><path d="M11.24 5.9v.01l-.02.01.04.07a.2.2 0 0 1 .03.04l.01.04v.02c0-.01 0-.01 0 0a.25.25 0 0 0-.09-.13v-.01a.05.05 0 0 0-.04-.04h-.02c-.01.02-.02.03-.04.03h-.02c-.02-.02-.04-.01-.06.01a.16.16 0 0 1-.07.08v-.01c-.01 0 0 0 0 0l.03-.03.03-.03a.23.23 0 0 1 .04-.04.11.11 0 0 1 .06-.02c.02 0 .03-.01.01-.03h-.01l-.01-.02a10.83 10.83 0 0 0-.11-.28l-.03-.01-.02-.01-.01-.01-.03-.07v-.03l.01-.02V5.4a3.06 3.06 0 0 0-.04-.18.12.12 0 0 1-.02-.04.67.67 0 0 0-.08-.2l-.13-.17c-.07-.09-.17-.18-.29-.26A3.04 3.04 0 0 0 9 4.16a31.82 31.82 0 0 0-1.72.03 2.4 2.4 0 0 0-.37.06c-.1.03-.22.07-.34.13a.49.49 0 0 0-.08.05v.02h.01a1.43 1.43 0 0 1 .82.04l.04.04a.14.14 0 0 0 .05.05l.18.13a.9.9 0 0 0 .2.09l.26.05a2.93 2.93 0 0 0 .45-.02.54.54 0 0 0 .16-.07 33.28 33.28 0 0 0 .52-.2c.2 0 .38.02.53.07a1.18 1.18 0 0 1 .63.45l.08.1.05.12c0 .04 0 .08.02.11v.03a1.54 1.54 0 0 0-.03.18v.05a.6.6 0 0 1 .01.05 1.7 1.7 0 0 0 .06.21l.01.02.04.07a.4.4 0 0 0 .06.06c.05.05.1.07.15.07.05 0 .1.01.14.04.05.03.08.07.1.13l.1.18c.04.05.1.09.16.1l.28.03h.01V6.6a1.42 1.42 0 0 0-.1-.2.51.51 0 0 0-.05-.1 1.56 1.56 0 0 0-.07-.13v-.01l.07.1c.01.02.03.02.04 0a.4.4 0 0 1 .07-.07.1.1 0 0 1 .1-.02l-.01.01a.1.1 0 0 0-.08.03.37.37 0 0 0-.06.07l-.02.02v.03c.01.05.04.1.09.14h.01v-.01l.03-.02c.03 0 .06 0 .09.02h.02a.26.26 0 0 1 .1-.06h.03a.2.2 0 0 1 .04.02v.02a.12.12 0 0 0-.06-.02h-.02c-.05.07-.1.09-.16.06h-.05v.02l.03.06c.06.07.1.14.15.22l.02.01a1.44 1.44 0 0 0 .1 0c.03-.01.05 0 .07 0v.01s0 .01 0 0l-.16.01v.02a.3.3 0 0 0 .04.07h.13l.02-.03H12l.09.08v.01h-.02l-.06-.06h-.02l-.02.01-.02.01h-.08v.01a.3.3 0 0 0 .04.08l.02.01a.9.9 0 0 1 .25.04h.01l.08-.03v.02c-.05.03-.09.04-.13.03a.82.82 0 0 0-.2-.04v.01l.14.2.04.06c.01.03.02.03.02 0s0-.05-.03-.08l.02-.01.13.1h.01a.09.09 0 0 1 .04-.02.1.1 0 0 0 .07-.08v-.1l.01-.01h.01c.01.1-.02.17-.09.22v.02c.03.03.05.05.08.05l.05.02.04.03a.3.3 0 0 0 .06.04l.16.07c.06.02.12.07.19.13l.17.18h.02l.03-.03a.26.26 0 0 1 .05-.05.11.11 0 0 1 .08-.01v.02a.26.26 0 0 0-.14.1v.02c.04.08.1.15.17.22h.02l.02-.01c.05-.01.1-.02.16 0h.02v.01l-.16.03c-.02 0-.02 0 0 .01l.48.38a.1.1 0 0 0 .05.03l.07.06.06.05.01.01v.08c-.03.03-.06 0-.1-.06 0-.02-.02-.03-.04-.03a.26.26 0 0 1-.05-.02 1.48 1.48 0 0 1-.08-.03.3.3 0 0 1-.06-.06.83.83 0 0 0-.15-.1.85.85 0 0 1-.12-.1 4.93 4.93 0 0 1-.2-.17.65.65 0 0 1-.14-.2.62.62 0 0 0-.07-.1h-.02v-.01l-.02-.01-.16-.18-.02-.01a.15.15 0 0 1-.07-.05.47.47 0 0 0-.13-.1 54.3 54.3 0 0 0-.1-.08l-.04.03a.11.11 0 0 0-.04.02.86.86 0 0 1-.06.06.14.14 0 0 0-.03.04l-.03.06a.33.33 0 0 1-.03.09.27.27 0 0 0-.05.11 1.03 1.03 0 0 0 0 .17c0 .02 0 .06-.02.1l-.01.1-.01.07-.01.1-.03.14v.04l-.01.05-.01.06a1.81 1.81 0 0 1-.03.22 1.7 1.7 0 0 0-.03.18v.03l-.02.13-.01.06-.02.06c0 .08-.02.15-.04.2a.97.97 0 0 0-.06.15l-.03.09-.05.16c-.02.1-.05.18-.09.27l-.06.2-.07.2-.07.2c0 .02-.01.02-.02.03v.01c0 .02 0 .03-.02.05l-.02.03v.05a.4.4 0 0 1-.02.04l-.03.09a.63.63 0 0 1-.02.1.52.52 0 0 0-.04.1c-.02.17-.07.33-.13.49a.43.43 0 0 1-.09.14.48.48 0 0 0-.13.21l-.01.02h-.03a.66.66 0 0 1-.08-.04 4.85 4.85 0 0 1-.33-.35 1.06 1.06 0 0 1-.04-.19l.01.06.02.07.03.1.04.03.01.01.02.02v.01l.06.05V12l-.04-.04v-.02a.17.17 0 0 0-.03-.04 1.66 1.66 0 0 1-.07-.15l-.02-.03v-.02a.12.12 0 0 1-.02-.06l-.02-.05a1.48 1.48 0 0 1-.03-.13l-.02-.04a.23.23 0 0 1-.02-.02.2.2 0 0 0-.02-.04.18.18 0 0 1-.02-.05.8.8 0 0 0-.62-1.2.49.49 0 0 1-.08-.15.57.57 0 0 0-.08-.14 1.36 1.36 0 0 1-.2-.44l-.02-.02a.14.14 0 0 1-.04-.05.1.1 0 0 1-.02-.06.35.35 0 0 0-.04-.2.14.14 0 0 0-.06-.05.45.45 0 0 1-.14-.15.77.77 0 0 0-.15-.13.17.17 0 0 1-.04-.04l-.02-.04c0-.01 0-.01 0 0H8.8a.1.1 0 0 0-.05 0 .11.11 0 0 1-.1-.01.15.15 0 0 0-.04-.01h-.05l-.05-.01h-.11c-.02-.02-.03-.03-.05-.02-.04 0-.06 0-.07-.02.05-.02.1-.02.14.01h.01a48.96 48.96 0 0 1 .2.02.1.1 0 0 0 .04.02 1.81 1.81 0 0 1 .1 0V8.6h-.03l-.01-.01a.06.06 0 0 0-.02-.03l-.02-.02v-.13l.01-.02h.02c.02 0 .03.02.05.03.02.01.02 0 .02-.01V8.4h-.03c0-.02-.01-.02-.02-.02l-.03-.02c-.02 0-.04 0-.05-.02l-.22-.2v-.01h-.01c-.02.06 0 .1.02.14h.03a.1.1 0 0 1 .05 0l.12.09.02.03v.04c-.01.02 0 .05 0 .07l-.01.02h-.02a.65.65 0 0 0-.09-.03c-.04-.01-.07-.02-.1-.01h-.03c-.03.01-.05.03-.04.05v.02h-.06l-.04.01a.07.07 0 0 0-.03.05.38.38 0 0 1-.06.05l-.07.04a8.35 8.35 0 0 0-.27.2.67.67 0 0 0-.08.09.1.1 0 0 1-.05.04H7.7l-.03.04-.02.01-.01.01v.02l-.08.07v.02a.14.14 0 0 0-.06.04.44.44 0 0 1-.03.05 1.06 1.06 0 0 0-.12.17l-.14.15-.14.18a.93.93 0 0 0-.12.19l-.02.03-.01.01c0 .02 0 .04-.02.05a1.49 1.49 0 0 1-.19.3H6.7l-.01.03a.17.17 0 0 0-.05.09v.01l-.06.11-.01.01a.06.06 0 0 0-.02.05c0 .03-.01.06-.03.07l-.02.02-.01.02a.11.11 0 0 0-.02.1l.01.01c.06.02.12.05.17.1l.12.08.12.08a2.72 2.72 0 0 1 .34.32l.05.11a2.86 2.86 0 0 1 .12.31 7.15 7.15 0 0 0 .15.44 14.33 14.33 0 0 0 .13.54 4.2 4.2 0 0 0 .03.18 14.82 14.82 0 0 0-.02.56h-.02l-.04-.04H7.6l-.01-.04a2.06 2.06 0 0 1-.02-.38v-.07a.2.2 0 0 1 0-.06c0-.03 0-.06-.02-.09a.4.4 0 0 1-.01-.1l-.01-.09-.03-.14a3.6 3.6 0 0 0-.18-.64l-.08-.25a.68.68 0 0 0-.14-.22 1.56 1.56 0 0 0-.36-.3.54.54 0 0 1-.12-.08.24.24 0 0 0-.08-.05 1.07 1.07 0 0 1-.08-.03h-.04a1.4 1.4 0 0 0-.15.34 45.5 45.5 0 0 0-.13.27.81.81 0 0 1-.06.13l-.01.04-.02.04a.46.46 0 0 0-.02.08c0 .03-.02.04-.04.05l-.01.01a1.79 1.79 0 0 0-.08.2.67.67 0 0 0-.04.08 1.4 1.4 0 0 1-.06.12.29.29 0 0 0-.02.07.4.4 0 0 1-.02.07.8.8 0 0 0-.05.1.3.3 0 0 0-.02.08.2.2 0 0 1-.03.09v.02l-.01.02-.01.02a.1.1 0 0 1-.02.05c-.06-.03-.09-.07-.08-.11l.12-.36a5.27 5.27 0 0 0 .39-.96l.01-.1v-.07c0-.01 0-.02.02-.03l.1-.03v-.01a.5.5 0 0 1 .07-.14v-.02a.1.1 0 0 1-.06-.06 2.33 2.33 0 0 1-.05-.17v-.02h.01a6.43 6.43 0 0 0 .1.21h.02l.05-.16a10.58 10.58 0 0 1 .19-.37l-.01-.02-.15-.1v-.01h.03l.14.09h.01l.01-.01.01-.03a1.74 1.74 0 0 1 .1-.15l.1-.15c.02-.02.01-.02-.01-.02a.3.3 0 0 1-.08 0l-.01.02V10.19l-.02.02h-.01v-.11a.6.6 0 0 0 .17-.04l.01-.01c.05-.13.12-.24.2-.32a.92.92 0 0 0 .05-.07v-.02l-.08-.1v-.02a2.1 2.1 0 0 1 0-.17l.01-.03c.03-.02.03-.02.03.01a.52.52 0 0 0-.02.12c0 .05 0 .08.04.1a.2.2 0 0 1 .05.06h.01a5.28 5.28 0 0 1 .45-.56c-.02 0-.03 0-.05-.02a.16.16 0 0 0-.05 0h-.18l-.01.02v.07h-.02v-.08c0-.03 0-.04.02-.04h.3l.02.01v.01h.02l.1-.11c0-.02 0-.03.03-.03a3 3 0 0 1 .53-.4l.14-.14a.05.05 0 0 0 .01-.04l.01-.18V8.1h-.03a6 6 0 0 0-.1.22l-.04.01-.02-.02v-.04l.05-.04.02-.02a.15.15 0 0 0 .04-.08l-.01-.02a1.1 1.1 0 0 1-.24-.03.53.53 0 0 1-.2-.1h-.01l-.02.05v.02l.17.16c.01 0 .02.01.02.03v.03a.32.32 0 0 1-.07.1h-.01v-.01l.05-.1v-.02A.04.04 0 0 0 8 8.22h-.02l-.15-.16c-.05.07-.1.14-.13.21h-.02v-.01a.5.5 0 0 1 .1-.2l.01-.01v-.02l-.06-.05H7.7a.32.32 0 0 1-.08.01c-.03 0-.04.02-.03.04.02.04.04.08.08.11v.02h-.02a.26.26 0 0 1-.09-.15V8l-.14.01-.02.01c0 .05 0 .09.03.13v.03c0 .02 0 .02-.01 0a.51.51 0 0 0-.02-.04.24.24 0 0 1-.02-.05v-.06c0-.01 0-.02-.02-.02h-.1l-.01.03a.2.2 0 0 1 0 .1h-.03V8.01c-.1.01-.17.02-.24 0-.02 0-.03.02-.02.04 0 .04.02.08.05.11v.01H7a.5.5 0 0 1-.07-.1v-.05a.43.43 0 0 1-.14-.04h-.01V8l-.01.1c0 .02-.01.03-.03.03l-.02-.01c0-.04.02-.07.03-.1l-.01-.04-.07-.03a43.82 43.82 0 0 1-.1.1v-.01l.04-.1v-.02a1.15 1.15 0 0 1-.21-.14.16.16 0 0 0-.08-.03.55.55 0 0 0-.11 0c-.01 0-.02 0-.01.01 0 .06 0 .1-.03.12a.22.22 0 0 1-.1.05c-.06 0-.1.02-.15.04a.24.24 0 0 0-.06.04.36.36 0 0 1-.04.03c-.02 0-.02 0 0-.01a.28.28 0 0 1 .08-.08l.06-.02.06-.01a.26.26 0 0 1 .1-.05s.02 0 .03-.02a.07.07 0 0 0 .02-.04V7.8c0-.03 0-.04-.03-.04-.07 0-.12 0-.17-.04a.52.52 0 0 1-.12-.1.39.39 0 0 1-.07-.14c0-.03-.02-.03-.04-.01-.03.03-.05.09-.06.18 0 .03.01.06.04.1v.01H5.7a.3.3 0 0 1-.05-.17c0-.03 0-.06.02-.08a.15.15 0 0 1 .07-.06V7.4a.86.86 0 0 0-.05-.04.47.47 0 0 1-.07-.06.22.22 0 0 1-.05-.1.1.1 0 0 1 0-.06l.04-.05.01-.02.01-.02c0-.06.01-.11.03-.16v-.03h-.01a.08.08 0 0 1-.06.04H5.48c-.01.01-.02 0-.02-.01 0-.02 0-.02.02-.02h.11l.04-.05v-.04l-.05-.07h-.02c-.01.04-.04.06-.07.06l-.15-.01-.01-.02.01-.01a3.33 3.33 0 0 1 .2-.02V6.7a.2.2 0 0 1 .01-.12v-.03h-.01c-.01-.02-.02-.01-.03 0a.2.2 0 0 1-.03.04h-.03v-.03l.03-.03V6.5a.04.04 0 0 0-.03-.02l-.02.01a.25.25 0 0 1-.03.03.07.07 0 0 1-.04.02l-.1.01h-.01v-.02l.04-.02s.02 0 .02-.02l-.01-.03a.1.1 0 0 1-.03-.04V6.4a.1.1 0 0 1 .03-.03v-.02a.98.98 0 0 1-.14-.08h-.01a.25.25 0 0 0-.03.12l-.01.01h-.02c-.01-.06 0-.1.04-.14v-.02a.98.98 0 0 1-.07-.14.4.4 0 0 1-.04-.16v-.02L5 5.9 5 5.88c0-.06.02-.11.05-.15l.01-.01c.02-.01.02-.02.02-.03 0-.06.03-.12.06-.16a.55.55 0 0 1 .14-.11 2.34 2.34 0 0 1 .24-.14l-.02-.01a.55.55 0 0 1-.1-.04H5.4a.06.06 0 0 0-.04.04h-.01s-.01 0 0 0c0-.04.02-.06.05-.06h.04c.04.03.08.04.12.05h.02l.09-.04.01-.1c-.05.03-.1.02-.15-.01v-.02h.08l.06-.01c.04-.03.1-.05.15-.06.02 0 .02 0 0 0a.2.2 0 0 1-.08-.07.09.09 0 0 1 0-.1c0-.02 0-.02.01-.01v.01c0 .04 0 .07.02.1l.06.03.05.01c.01.02.04.02.09.01l.09-.02v-.03c-.01-.06-.06-.1-.14-.1h-.02v-.01l.01-.02.07.01.05.03.04.04.03.06.02.01.06-.01V4.84a.1.1 0 0 1 .03-.07.83.83 0 0 0 .04-.03c.02-.02.02-.03 0-.05l-.03-.05c-.01-.02-.03-.02-.04 0a.12.12 0 0 1-.04.03H6v-.02a.15.15 0 0 1 .1 0l.02-.01.02-.03a.04.04 0 0 1 .06 0l.06.07c0 .01.01.02.03.02l.02-.02a.87.87 0 0 1 .07-.12.13.13 0 0 0 .01-.12v-.01a.37.37 0 0 1-.1-.08v-.02h.01l.1.08h.02l.01-.04.01-.01h.05a.29.29 0 0 1 .1-.04c.06-.01.06-.03 0-.04a.8.8 0 0 0-.07-.02h-.01v-.04l.15.05h.04c.1-.04.22-.06.32-.07.02 0 .02 0 0-.02l-.05.01v-.03l.07-.01h.02c.01.02.02.02.03.02.01 0 .01 0 0 0v-.05A2.45 2.45 0 0 0 7.18 4a.9.9 0 0 1-.03.15v.02h.07l.08-.02.7-.03h.72c.14 0 .31 0 .53.02a4.67 4.67 0 0 1 .92.27l.05.04a.7.7 0 0 0 .06.02l.07.04.16.1h.01c0-.04 0-.08.02-.12v.15a.4.4 0 0 1 .1.1l.14.15c.05.06.09.14.12.25v.01c.05.03.07.06.08.1l.02.13.01.02a.1.1 0 0 0 .07-.03l.03-.02h.03l.04-.01a19.03 19.03 0 0 1 .36-.13v.01a163.16 163.16 0 0 1-.53.23c.02.03.03.07.03.1v.02H11.16c.03 0 .04.01 0 .03a.13.13 0 0 1-.06.02v.01l.02.08c0 .05.03.1.07.15l.02.02a.16.16 0 0 0 .04.02Z" fill="#020203"/><path d="M11.3 6.1a2.92 2.92 0 0 0 .13.22l.03.09.02.03a1.42 1.42 0 0 1 .1.18h-.02c-.09.01-.19 0-.28-.02a.27.27 0 0 1-.16-.1.84.84 0 0 1-.1-.18.27.27 0 0 0-.1-.13.24.24 0 0 0-.14-.04c-.05 0-.1-.02-.15-.07a.4.4 0 0 1-.1-.13v-.02a1.78 1.78 0 0 1-.07-.2.6.6 0 0 0 0-.06.6.6 0 0 1-.01-.05 1.54 1.54 0 0 1 .03-.21.58.58 0 0 1-.02-.1.29.29 0 0 0-.05-.13 1.06 1.06 0 0 0-.1-.13 1.2 1.2 0 0 0-.61-.42 1.72 1.72 0 0 0-.6-.05 33.2 33.2 0 0 1-.45.18.54.54 0 0 1-.16.07 2.92 2.92 0 0 1-.45.01c-.1 0-.18-.02-.26-.04a.9.9 0 0 1-.2-.1 3.41 3.41 0 0 1-.23-.17.07.07 0 0 0-.04-.03 1.43 1.43 0 0 0-.83-.05v-.02a.49.49 0 0 1 .08-.05 1.57 1.57 0 0 1 .48-.16 2.4 2.4 0 0 1 .34-.04l.21-.01H9a3.04 3.04 0 0 1 1.37.38c.12.08.22.17.3.26l.12.18c.04.07.07.13.08.2l.02.03.02.04a3.2 3.2 0 0 1 .02.16l-.01.02v.03l.03.07.03.02.03.01.03.05a10.28 10.28 0 0 1 .1.28.1.1 0 0 0-.07.02.23.23 0 0 0-.04.04.33.33 0 0 1-.03.03.12.12 0 0 1-.04.02v.01a.17.17 0 0 0 .08-.07c.02-.02.04-.03.06-.01h.02c.02 0 .03 0 .04-.02h.02c.02 0 .03 0 .03.03l.01.01c.04.04.07.08.09.13Z" fill="#F0F3FA"/><path d="m9.03 8.57-.05-.01-.02-.01-.03-.06v-.02l.05-.01a.18.18 0 0 0 .05-.08c0-.01 0-.01 0 0a.32.32 0 0 1-.1.07.06.06 0 0 1-.05 0 .08.08 0 0 1-.04-.05c-.02-.04-.05-.06-.1-.07H8.7V8.3l.03-.04v-.01l-.03.02c0 .01-.01.02-.03.02 0 0-.02 0-.02-.02a.6.6 0 0 0-.13-.1l-.01-.02.01-.06v-.01l-.02.01-.01.02h-.02l-.04-.04h-.02a.77.77 0 0 1-.22 0l-.01-.02.04-.16h-.01a56.74 56.74 0 0 0-.07.17.48.48 0 0 1-.24-.1v-.01a.24.24 0 0 0 .02-.1.1.1 0 0 0-.04-.08h-.04v.01c.02 0 .04.01.05.03l.01.05a.33.33 0 0 1-.01.06l-.01.01h-.02c-.05-.05-.1-.04-.16.01H7.62a.09.09 0 0 1-.06.02v-.01c0-.03 0-.06.02-.09h-.01a.11.11 0 0 0-.03.08v.02H7.33l-.01-.01v-.07l.02-.01h.03v-.01c-.05 0-.1-.01-.15-.04H7.2v.02l.08.04v.04h-.02c-.03.01-.04.03-.05.05L7.21 8a47.12 47.12 0 0 0-.38-.02.65.65 0 0 0-.14-.04c-.01 0-.02 0-.03-.02a.15.15 0 0 0-.09-.05h-.02a.69.69 0 0 0-.1-.09.08.08 0 0 1-.03-.06h-.27a.32.32 0 0 1-.26-.12.5.5 0 0 1-.06-.1.51.51 0 0 0-.07-.11.5.5 0 0 0-.05-.05.62.62 0 0 1-.04-.04.23.23 0 0 1-.04-.05c-.02-.03-.02-.06 0-.08a.09.09 0 0 1 .06-.05h.01v-.03c-.03-.02-.04-.04-.03-.07V7a.55.55 0 0 0 .02-.1c0-.05 0-.08-.03-.12a.58.58 0 0 0-.08-.1.04.04 0 0 1-.01-.04l.02-.1v-.03a.04.04 0 0 0-.03-.02l-.04-.01v-.02A.54.54 0 0 0 5.7 6a1.7 1.7 0 0 0-.01-.2l-.01-.04a.4.4 0 0 0-.04-.1 2.85 2.85 0 0 0-.12-.2.2.2 0 0 0-.07-.07v-.02l.05-.03a.3.3 0 0 1 .07-.04l.1-.03.07-.02.06-.02h-.08c-.01 0-.02 0-.02-.02 0-.04 0-.07.02-.11.01-.02.02-.03.04-.03.13-.01.26-.03.38-.06.03-.01.05 0 .06.01h.01l.01-.17c0-.02 0-.04.02-.06l.07-.05.02-.01c.01-.01.03-.03.03-.05l.01-.02a.33.33 0 0 0 .07-.13v-.01h.02c.01 0 .02 0 .03-.02a.15.15 0 0 1 .09-.04c.21-.03.43-.02.65.04.04 0 .07.02.1.05l.06.05.14.1c.14.1.3.15.48.16.17.02.3.02.4.01a.5.5 0 0 0 .24-.08 60.24 60.24 0 0 1 .49-.18 4.71 4.71 0 0 0 .38.02l.15.03c.12.03.22.08.32.14.12.07.2.15.27.24a8.35 8.35 0 0 0 .14.2l.02.07.02.07c.01.02.02.05.01.08a1.05 1.05 0 0 1-.03.16l.01.13c.01.08.05.19.11.3a.25.25 0 0 0 .2.13c.13 0 .22.05.26.16l.06.12.09.1.02.03c0 .01.01.02.02 0h.02l.02.01.07.02.25.02c.04 0 .07.02.09.05l.18.29a.9.9 0 0 0 .13.19 4.33 4.33 0 0 1 .2.28l.02.1c-.05.17-.1.29-.15.37a.6.6 0 0 1-.14.16 20.28 20.28 0 0 1-.72.37.59.59 0 0 0-.13.06c-.14.09-.3.15-.46.2l-.13.06a.54.54 0 0 1-.1.03.65.65 0 0 0-.08.02L10 8.9a1.2 1.2 0 0 1-.25.03h-.3a.37.37 0 0 1-.2-.1 1.28 1.28 0 0 0-.11-.08.27.27 0 0 1-.04-.03L9.1 8.7l-.01-.03c0-.02 0-.04-.03-.04V8.6h.02l.08-.02.01-.01s0-.01 0 0h-.14Z" fill="#F4C9B9"/><path d="M5.43 5.42c.04.01.07.03.08.05a8.53 8.53 0 0 0 .13.28l-.01.01H5.2c-.03 0-.06 0-.08-.02a.03.03 0 0 1-.02-.03.3.3 0 0 1 .16-.23.26.26 0 0 0 .06-.06h.02l.03-.01h.05Z" fill="#F4C9B9"/><path d="M5.2 5.79h.42c.02 0 .04 0 .04.03a.8.8 0 0 1-.03.43.4.4 0 0 1-.13.17h-.02a3.62 3.62 0 0 0-.25-.16.2.2 0 0 1-.08-.07.89.89 0 0 1-.09-.21v-.04l.03-.02a.18.18 0 0 0 .07-.04c.02-.01.02-.04.02-.08l.01-.01Z" fill="#F0F3FA"/><path d="M7.97 6.21h.86v-.09l-.02-.15a.45.45 0 0 0-.02-.1.7.7 0 0 1-.02-.06c.04 0 .05.01.06.04l.05.26v.1a.93.93 0 0 1 .03.22v.03c0 .06-.03.1-.08.14a4.45 4.45 0 0 0-.16.07.5.5 0 0 1-.14.04.7.7 0 0 1-.36-.07.34.34 0 0 1-.13-.1l-.01-.03a1.06 1.06 0 0 1-.08-.1.2.2 0 0 1-.04-.1 3.81 3.81 0 0 0 .02-.17c.01 0 .02 0 .02.02v.04l.02.01Z" fill="#020203"/><path d="m8.61 6.46.01-.09a.97.97 0 0 0 0-.11v-.01h.23v.22a.11.11 0 0 1-.07.1l-.08.03-.08.03a.53.53 0 0 1-.4-.03.61.61 0 0 1-.06-.03 5.02 5.02 0 0 0-.17-.2.16.16 0 0 1-.04-.13h.5v.02l.01.2.02.01h.13Z" fill="#F0F3FA"/><path d="M6.87 7.25a6.4 6.4 0 0 0-.31.04 3.57 3.57 0 0 0-.1.07.15.15 0 0 1-.07.03c-.02 0-.03 0-.04-.02a.06.06 0 0 1-.02-.04.24.24 0 0 0-.03-.1c-.01-.01-.02-.02-.04 0a.34.34 0 0 0-.08.05.06.06 0 0 1-.04.02h-.05v-.02c.07-.06.13-.1.2-.1l.04.01.02.04.03.08c0 .03.02.04.04.02a.51.51 0 0 0 .1-.08c.02-.02.04-.03.07-.03h.1a.94.94 0 0 1 .23-.02v.01l.01.08.02.01a.3.3 0 0 0 .19-.02h.04l.03.03.04.04.06.03.03.01c.03.01.03.02 0 .03-.07.01-.13-.01-.17-.08h-.02a.89.89 0 0 1-.23 0l-.02-.01-.02-.03v-.04c0-.01 0-.02-.01-.01Z" fill="#020203"/><path d="M14 8.8a5.87 5.87 0 0 1-2.32 4.26 5.1 5.1 0 0 1-1.58.78 5.6 5.6 0 0 1-2.68 0 5.05 5.05 0 0 1-1.8-.93.1.1 0 0 0 .02-.05v-.02l.01-.02.01-.02a.2.2 0 0 0 .03-.09.3.3 0 0 1 .02-.08 1 1 0 0 0 .05-.1.4.4 0 0 0 .02-.07l.02-.07.06-.12a.68.68 0 0 1 .04-.08 1.8 1.8 0 0 1 .09-.21c.02 0 .03-.02.04-.05l.02-.08.02-.04v-.04a.81.81 0 0 0 .06-.13 51.08 51.08 0 0 1 .13-.28l.09-.18a9.7 9.7 0 0 1 .07-.16h.04l.08.04.08.05.12.09c.1.05.22.15.36.3.06.05.1.12.14.2a2.44 2.44 0 0 1 .08.27l.07.22a3.6 3.6 0 0 1 .18.96 2.06 2.06 0 0 0 .03.41h.03l.01.01.04.04h.01l.03-.08V13.42a.52.52 0 0 0 0-.15 14.82 14.82 0 0 1-.01-.25 4.2 4.2 0 0 1-.05-.33v-.02a.07.07 0 0 1-.01-.05v-.02a.28.28 0 0 1-.03-.07l-.01-.01a15.29 15.29 0 0 1-.1-.36 7.15 7.15 0 0 1-.22-.58.79.79 0 0 0-.05-.1 2.7 2.7 0 0 0-.76-.6c0-.03 0-.07.02-.1l.01-.02.02-.02a.09.09 0 0 0 .03-.07c0-.02 0-.03.02-.05l.07-.12v-.01l.05-.1v-.02h.03a.64.64 0 0 0 .07-.1l.01-.03v-.01l.02-.01a1.46 1.46 0 0 0 .08-.15.09.09 0 0 0 .02-.05v-.01l.03-.03a.93.93 0 0 1 .12-.19 13.11 13.11 0 0 0 .49-.61l.07-.07.01-.02.01-.01h.02l.03-.05h.02a.1.1 0 0 0 .05-.04.67.67 0 0 1 .1-.1 8.35 8.35 0 0 1 .42-.32c0 .02.02.03.06.02l.05.01.01.01h.2l.05.02h.09a.1.1 0 0 1 .05 0l.03.01h.03c0-.01 0-.01 0 0s0 .03.02.04l.04.04a.77.77 0 0 1 .15.13c.04.07.09.11.14.15.03.01.05.03.06.05.03.07.05.13.04.2 0 .02 0 .04.02.06 0 .02.02.03.04.05l.01.02.02.06.04.1.04.1.11.18.08.14c.01.05.04.1.08.14a1.74 1.74 0 0 1 .39.72 3.7 3.7 0 0 0 .3.64 1.48 1.48 0 0 0 .06.18c0 .02 0 .04.02.06v.02s0 .02.02.03l.01.03a1.78 1.78 0 0 0 .09.18l.05.04h-.01l-.05-.04-.01-.01-.02-.02h-.01a.12.12 0 0 1-.04-.04.3.3 0 0 1-.03-.1.19.19 0 0 0-.02-.07 1.06 1.06 0 0 0 .03.13l.04.07a4.11 4.11 0 0 0 .1.1 5.17 5.17 0 0 0 .2.18l.07.04h.03l.01-.02a.48.48 0 0 1 .13-.2.43.43 0 0 0 .09-.15c.06-.16.1-.32.13-.48 0-.04.02-.08.04-.11l.02-.1.03-.09.01-.04.01-.05.03-.03a.05.05 0 0 0 0-.05l.01-.01.02-.02c.02-.08.04-.15.07-.2l.07-.21.06-.2.1-.27a1.57 1.57 0 0 1 .07-.25.98.98 0 0 1 .06-.15.55.55 0 0 0 .04-.2l.02-.06V9.3a320 320 0 0 1 .24-1.5.33.33 0 0 0 .03-.09l.03-.06a.14.14 0 0 1 .03-.04.88.88 0 0 0 .06-.06.11.11 0 0 1 .04-.02l.04-.02h.02l.03.05.05.03c.05.02.1.06.13.1l.07.04h.02l.16.19h.01l.01.02h.01l.01.01.02.02a.6.6 0 0 1 .05.07c.04.08.1.14.15.2a.2.2 0 0 1 .04.04l.01.01a4.92 4.92 0 0 0 .26.21l.15.11a.3.3 0 0 0 .06.06c.03 0 .05.02.08.03l.05.02c.02 0 .04.01.05.03.03.07.06.09.09.06Z" fill="#171834"/><path d="m7.81 7.94.04.03a.01.01 0 0 1 0 .01l-.03.05H7.8l-.05-.05v-.02l.05-.03h.01Z" fill="#F0F3FA"/><path d="m8.67 8.34-.01.02a.39.39 0 0 0-.12-.08.1.1 0 0 0-.05 0l-.03-.01c-.03-.04-.04-.08-.02-.14l.23.21Z" fill="#F4C9B9"/><path d="m11.47 8.7.13-.07a4.5 4.5 0 0 1 .23-.21l.15-.11a4 4 0 0 1-.08.57 2.59 2.59 0 0 1-.12.64.57.57 0 0 1-.04.12l-.02.02a6.13 6.13 0 0 1-.16.49v.03a.98.98 0 0 0-.06.16 2.56 2.56 0 0 1-.14.43v-.1a.9.9 0 0 0-.06-.3.28.28 0 0 0-.03-.07.8.8 0 0 0-.05-.06.6.6 0 0 1-.07-.1 1.58 1.58 0 0 1-.1-.2V9.9a7.68 7.68 0 0 0 .2-.5l.15-.32a.35.35 0 0 0 .04-.17c0-.05-.02-.1-.05-.17v-.02c.03 0 .06-.01.08-.03Z" fill="#F0F3FA"/><path d="M13.86 8.6a.1.1 0 0 1-.05-.03l.14-.02v-.01l.01-.17c0-.01 0-.02.01-.01h.01l.01.02v.2h-.01l-.12.02Z" fill="#696868"/><path d="M10.7 11.63h-.01v-.01a8.9 8.9 0 0 1-.15-.46 2.03 2.03 0 0 1-.07-.3 1.27 1.27 0 0 1 .01-.52.4.4 0 0 1 .08-.15c.07-.08.1-.17.09-.24a.55.55 0 0 0-.07-.21 2.2 2.2 0 0 0-.22-.31.8.8 0 0 1-.12-.2c-.03-.09-.03-.15.02-.18l.25-.13a.88.88 0 0 1 .22-.04c.05 0 .1-.02.15-.04a1.87 1.87 0 0 0 .21-.1l.14-.03h.02c.1.1.1.23.03.39a1.3 1.3 0 0 0-.05.12 1.52 1.52 0 0 1-.06.15 5.11 5.11 0 0 0-.2.57c-.01.03 0 .1.04.17l.1.14c.04.06.08.12.1.18.03.07.05.14.05.22l.01.29c0 .1-.01.2-.04.28l-.1.36a1.73 1.73 0 0 1-.14.34c-.02.02-.05.02-.08 0a.2.2 0 0 1-.1-.07 1 1 0 0 1-.12-.22Z" fill="#9B1002"/><path d="m10.14 9.17-.17.1a.4.4 0 0 1-.14.02h-.14a.58.58 0 0 1-.18-.06c.02 0 .02-.03.02-.06v-.01a6.66 6.66 0 0 1 .25-.04l.15-.04.08-.03.15-.05h.02v.03l-.04.14Z" fill="#171834"/><path d="M10.14 9.17c0 .1.04.19.1.25.11.13.2.28.29.43.03.07.04.13.02.19v.01a.64.64 0 0 0-.14.21 1.16 1.16 0 0 0-.06.57.78.78 0 0 0-.13-.3 2.3 2.3 0 0 1-.1-.16 1.6 1.6 0 0 0-.08-.2.87.87 0 0 0-.13-.17.47.47 0 0 1-.09-.17 1.36 1.36 0 0 0-.08-.13 7.05 7.05 0 0 1-.23-.47l.18.06h.14a.4.4 0 0 0 .14-.03l.17-.09Z" fill="#F0F3FA"/><path d="M9 12h1v.2H9V12Zm0 .4h1v.2H9v-.2Zm1 .4H9v.2h1v-.2Z" fill="url(#ajsbwfz02)"/><defs><linearGradient id="ajsbwfz02" x1="9.5" y1="12" x2="9.5" y2="13" gradientUnits="userSpaceOnUse"><stop stop-color="#30A5AC"/><stop offset="1" stop-color="#6672D7"/></linearGradient></defs></svg>