<!-- by TradingView --><svg width="18" height="18" viewBox="0 0 18 18" xmlns="http://www.w3.org/2000/svg"><path fill="#7E9386" d="M0 0h18v18H0z"/><path d="m11.9 13.58-.14-.5v-.01l-.02-.01h-.02a2.21 2.21 0 0 1-2.34.37.07.07 0 0 1 .03-.1 5.44 5.44 0 0 0 1.42.03c.78-.06.78-.77 1.07-1.3.24-.42.39-.83.46-1.23.06-.35.25-.52.38-.83a.2.2 0 0 0 .02-.12l-.18-.94c-.07-.35-.02-.55.12-.9a.12.12 0 0 0-.06-.15.13.13 0 0 0-.06-.02.31.31 0 0 0-.3.19.1.1 0 0 0 .01.12c.06.07.09.13.1.2.01.02 0 .04-.02.05l-.59.22a.15.15 0 0 1-.13-.01c-.1-.06-.16-.1-.2-.1-.22 0-.23.07-.03.19.04.02.08.08.12.17.02.04 0 .06-.03.07a.49.49 0 0 1-.34 0c-.05-.01-.08 0-.08.06-.05.44.04.8.27 1.08a.2.2 0 0 1 .05.15.2.2 0 0 1-.09.13c-.2.15-.48.38-.69.36l-.34-.05a.06.06 0 0 1-.06-.05v-.05l.01-.04-.01-.04a.1.1 0 0 0-.04-.03.13.13 0 0 0-.05-.01c-.25-.02-.4-.04-.44-.07-.28-.2.1-.54.29-.64.08-.04.09-.02.03.05l-.24.24c-.07.07-.09.13-.05.2.02.05.05.06.1.05.29-.08.6-.03.91.14.04.02.08.03.13.03a.57.57 0 0 0 .43-.23c.03-.04.03-.08-.01-.11a1.18 1.18 0 0 1-.32-.75 4.4 4.4 0 0 1 .02-1.37.11.11 0 0 0-.04-.11c-.05-.05-.04-.1.02-.16a.09.09 0 0 0 .03-.1l-.02-.05v-.03a.05.05 0 0 1 .05-.01c.03 0 .04.02.05.04a.4.4 0 0 1 0 .17.14.14 0 0 0 .05.13.14.14 0 0 0 .14.02l.87-.34h.08l.46.16c.04.02.05 0 .03-.04-.13-.23-.25-.5-.24-.77.01-.45.03-1.06-.5-1.24a21 21 0 0 0-.89-.3v-.05c.02-.04.05-.04.07-.01l.03.03c.02.02.05.02.07 0 .03-.03.04-.07.03-.11l-.02-.04h-.04l-.02-.04c0-.06.04-.1.1-.1a.4.4 0 0 0 .12.22.1.1 0 0 0 .1.03c.5-.15 1.07-.6.83-1.17-.02-.05 0-.07.06-.06.14.04.19.16.14.36v.03h.04l.1-.03a.08.08 0 0 0 .05-.07c.04-.24-.01-.4-.18-.45a4.09 4.09 0 0 0-1.05-.2l.43-.06c.15-.03.16-.07.02-.14a.88.88 0 0 0-.5-.05c-.5.06-.96.07-1.38.01-.07 0-.07-.02 0-.03.12-.02.2-.02.24-.01.24.04.26 0 .05-.12-.35-.2-.73.02-1.23.2-.25.1-.51.12-.78.08-.01 0-.02-.01-.02-.03 0-.02.01-.03.03-.03a2.2 2.2 0 0 0 .97-.26.04.04 0 0 0 0-.04l-.01-.01C8.5 2.9 8 3.25 7.3 3.58a.03.03 0 0 1-.04-.02v-.04l.04-.03c.03-.05.02-.07-.04-.07-.36.02-.67.09-.91.2-.32.13-.76.23-1.03.43-.3.22-.55.48-.75.77-.18.26-.13.69-.12.95 0 .03 0 .04.03.03l.05-.02c.02 0 .03-.02.03-.03 0-.08.04-.12.08-.12a.05.05 0 0 1 .04.02.04.04 0 0 1 0 .04c-.12.2-.25.4-.4.56-.31.39-.05.93.15 1.41.02.04.05.07.09.09.05.02.06.06.02.13-.16.27-.35.74-.18.98.03.05.06.05.07-.01.03-.18.1-.36.23-.55.04-.06.05-.06.05.02s.01.14.03.18c0 .02.02.04.04.05a.1.1 0 0 0 .06 0c.04 0 .07-.02.1-.06.05-.03.1-.02.14.03a.35.35 0 0 0-.09.26c.04.53.3 1.59.96 1.65.12 0 .2-.02.22-.08.05-.12.09-.12.12 0l.2.89c-.12.02-.2-.1-.26-.34a.05.05 0 0 0-.03-.04.06.06 0 0 0-.06.01c-.3.33-.2 1.06-.14 1.46v1.87l-.03.01H5.9c-.03 0-.04-.01-.04-.04v-1.98a.3.3 0 0 0-.05-.16.3.3 0 0 0-.13-.11.9.9 0 0 1-.42-.46c-.06-.13-.03-.3-.16-.45l-.17-.19c-.2-.33-.25-.67-.15-1a.32.32 0 0 0-.07-.32c-.32-.33-.68-.62-.5-1.13.09-.27.17-.4.08-.66l-.25-.75c-.15-.47.07-.66.3-1a.16.16 0 0 0 .02-.11c-.18-.8.04-1.1.6-1.64.2-.2.44-.36.7-.47a5.19 5.19 0 0 1 1.7-.44c.17 0 .35-.06.57-.15.57-.25 1.04-.15 1.65.03.05.02.1.02.14 0 .47-.11.66.05 1.06.2.1.04.2.05.3.03.39-.05.69-.1 1.04.1.04.02.06.05.07.1.03.1.1.15.23.14.05 0 .1 0 .13.03.23.13.33.3.3.51-.02.14.03.22.14.26.36.1.53.36.5.73-.01.06-.11.26-.3.59a.13.13 0 0 0 0 .12c.07.14.2.24.4.28a.1.1 0 0 1 .07.06.1.1 0 0 1-.01.09c-.2.32-.5.44-.9.38h-.02l-.01.04c0 .02.01.03.03.03.04 0 .07.02.09.04.03.05.02.07-.04.08l-.04.02c-.02.02-.02.04-.01.06.17.26.37.16.56.21.04.01.06.03.07.07 0 .04 0 .07-.05.1-.07.04-.1.09-.11.16 0 .05.02.06.06.04.17-.07.24-.21.2-.42-.01-.14-.1-.2-.25-.17l-.29.06c-.01 0-.03 0-.04-.02l-.03-.06c-.02-.03-.01-.05.02-.05.15 0 .27-.02.37-.06.03-.01.06 0 .11.01l.15.05a.1.1 0 0 0 .1 0 .96.96 0 0 0 .32-.34l.04.03v.04c-.1.16-.22.29-.36.39-.04.03-.06.07-.04.11.06.2-.01.37-.24.5l-.02.03-.65.93a.14.14 0 0 0-.02.1c.08.45.15.77.2.97.09.35-.28.66-.36 1.02-.1.49-.28.95-.52 1.38a.77.77 0 0 0-.08.49c.1.6.17 1.21.23 1.82 0 .02 0 .03-.03.03l-.05.01a.05.05 0 0 1-.05-.02v-.02l-.1-.88Z" fill="#2B2B2B"/><path d="m11.3 5.07.01-.7c0-.01.01-.02.03-.01l.03.01h.01c.02.13.03.3.03.53 0 .09.04.13.1.14A.09.09 0 0 0 11.6 5a.08.08 0 0 0 .01-.07.94.94 0 0 1 0-.5c.03-.1.05-.1.05.01l.02.33c.01.14.05.15.13.03a.7.7 0 0 0 0-.78v-.05h.07c.33.44.08.9-.3 1.2a.12.12 0 0 1-.09.03.1.1 0 0 1-.04-.02.1.1 0 0 1-.03-.04V5.1c0-.02 0-.04-.03-.04l-.08.01Z" fill="#3B403D"/><path d="M9.9 5.29c-.22-.07-.43-.1-.62.04-.18.11-.35.1-.56.21-.53.33-.97.7-1.3 1.11a.25.25 0 0 0-.06.11l-.12.56c0 .02 0 .03.02.03l.07.02c.03 0 .05 0 .06-.04a.5.5 0 0 0 .03-.18c0-.05.03-.07.08-.07.06 0 .12.05.18.15-.18.17-.4.33-.64.48-.23.14-.3.3-.4.52 0 .35-.11.56-.38.76a.2.2 0 0 0-.09.2c.03.19.05.4.06.62-.24.05-.47-.08-.67-.38 0-.42-.16-.81-.45-1.18.02-.06.05-.1.09-.14a.1.1 0 0 1 .12-.02c.4.2.84.26 1.2-.09a.12.12 0 0 0 .04-.1.12.12 0 0 0-.05-.09l-.08-.05-.02-.03a.06.06 0 0 1 0-.06l.03-.01c.42-.19.73-.35.74-.85 0-.05-.02-.08-.08-.08h-.34a.72.72 0 0 0-.31.12c-.42.24-.82.17-1.2-.2h-.01V6.6a.02.02 0 0 1 .02 0 .02.02 0 0 1 .01 0c.27.2.75.39 1.1.17.04-.03.04-.06-.02-.08a.49.49 0 0 0-.2 0c-.06 0-.06-.01-.02-.04l.15-.1a.12.12 0 0 1 .11 0c.42.17.8.07 1.16-.3a.11.11 0 0 0 .02-.1.1.1 0 0 0-.08-.08L7.15 6A.03.03 0 0 1 7.13 6a.03.03 0 0 1 0-.02v-.04s0-.02.02-.02h.02c.34.03.66-.03.99-.17.1-.05.27-.2.48-.44.31-.36.61-.51 1.13-.43l.11-.01c.1-.04.2-.02.27.04a.2.2 0 0 1 .06.12l.02.07c0 .08.03.08.07.01.05-.08.04-.16-.02-.23-.23-.28-.56-.38-.98-.3a3.88 3.88 0 0 0-1.04.37l-.01-.04c0-.02 0-.03.02-.04.6-.28 1.17-.6 1.8-.32.4.19.51.48.34.88-.02.04-.05.05-.09.04l-.42-.17Z" fill="#2B2B2B"/><path d="M9.9 5.29c-.1.06-.22.1-.35.13a.15.15 0 0 0-.1.06c-.24.38-.82.74-1.26.7a.1.1 0 0 0-.06.01.1.1 0 0 0-.04.05.98.98 0 0 0-.05.49c.01.04 0 .07-.04.1a.72.72 0 0 0-.32.4c-.06-.1-.12-.15-.18-.15-.05 0-.08.02-.08.07a.5.5 0 0 1-.03.18c0 .03-.03.05-.06.04l-.07-.02c-.02 0-.03 0-.02-.03l.12-.56c0-.04.02-.08.05-.11.34-.41.78-.78 1.31-1.1.2-.13.38-.1.56-.22.2-.13.4-.11.62-.04ZM5.11 8.25c.3.37.44.76.45 1.18l-.38-.6a.16.16 0 0 1-.02-.12c.04-.29.02-.35-.08-.19-.04-.05-.09-.06-.13-.03-.05-.1-.1-.19-.17-.28-.03-.04-.04-.07-.02-.1.03-.04.05-.04.07.01l.08.13c.06.08.13.08.2 0ZM6.64 8.23l.06.84c0 .05 0 .09-.02.13-.05.1-.07.2-.08.27-.02.2.14.35.02.58-.03.04-.06.05-.1.03a.55.55 0 0 1-.29-.27c0-.23-.03-.43-.06-.61a.2.2 0 0 1 .09-.21c.27-.2.38-.4.38-.76ZM6.5 11.24c.04.13.09.29.12.46.02.06.06.1.13.14l.16.09c.81.6 1.69 1.06 2.63 1.4-.04-.03-.08-.03-.13 0a.07.07 0 0 0 0 .13 2.21 2.21 0 0 0 2.33-.4h.01v.01l.14.51c-.1-.16-.23-.21-.38-.14a.13.13 0 0 0-.08.08l-.14.38c-.01.05-.05.07-.1.06-.19-.04-.3.03-.34.22-.01.03-.04.05-.08.06a.07.07 0 0 1-.06-.01l-.02-.03v-.13c0-.03-.02-.05-.06-.05l-.05.01a.07.07 0 0 0-.03.09c.06.11.08.18.08.2 0 .04-.02.05-.07 0-.05-.04-.1-.05-.13-.04-.06.02-.07.05-.02.1l.07.07c.04.04.05.08.02.13-.16.23-.54.6-.8.31a.17.17 0 0 0-.12-.05 2.16 2.16 0 0 1-.44-.16 1.16 1.16 0 0 1-.67-.66c-.1-.26-.16-.41-.2-.47a2.3 2.3 0 0 0-.54-.53 3.95 3.95 0 0 1-1.35-1.58.06.06 0 0 0-.05-.01l-.03.01a.53.53 0 0 0-.14.28c0 .04-.02.08-.05.12-.1.13-.13.3-.1.5-.07-.4-.17-1.14.13-1.47a.06.06 0 0 1 .08 0l.01.03c.05.25.14.36.27.34Z" fill="#555F58"/><path d="M12.67 5.1c.07.06.12.07.13.04a.23.23 0 0 0-.13-.04l-.15-.26a.1.1 0 0 1 0-.11c.07-.15.22-.18.43-.1.31.1.46.32.43.63-.02.16-.05.16-.1 0-.04-.1-.02-.25-.13-.36-.15-.14-.3-.18-.45-.13a.06.06 0 0 0-.03.03v.07l.05.02c.86.13-.12 1.12.73 1.44.1.04.1.1.02.15l-.15.1a.22.22 0 0 1-.27 0c-.35-.24-.31-.57-.38-1.11 0-.04-.02-.04-.05-.03a.1.1 0 0 1-.07.02c-.03 0-.07-.03-.1-.08a.05.05 0 0 1 .01-.06l.03-.01c.03 0 .04-.01.05-.03 0-.02 0-.04-.03-.04h-.4c-.09 0-.1-.02-.02-.05l.3-.17a.15.15 0 0 1 .11-.01.5.5 0 0 1 .17.09Z" fill="#7E9387"/><path d="M12.07 8.3c.07.03.07.05.02.09a.71.71 0 0 1-.5.1.06.06 0 0 1-.05-.03V8.4c.11-.13.29-.16.53-.1Z" fill="#9E9E9E"/><path d="M5.19 10.8c0-.35-.07-.59-.2-.74-.1-.1-.14-.22-.1-.35.06-.15.12-.15.17 0 .03.09.08.18.15.28.19.25.12.53-.02.8Z" fill="#555F58"/><path d="M5.19 10.8c-.27-.1-.34-.35-.2-.73.13.14.2.38.2.72Z" fill="#7E9387"/><path d="M10.56 3.92c-.03 0-.05 0-.05-.03-.01-.02 0-.03.02-.02a.9.9 0 0 1 .52.66c.1.47-.07.8-.51.96-.03.01-.04 0-.05-.02v-.04l.03-.02c.1-.08.2-.15.24-.28.11-.48-.08-.8-.58-.94-.58-.17-1.18.08-1.7.39l-.03-.03v-.02c.63-.49 1.6-.75 2.23-.15a.7.7 0 0 1 .24.5l.01.04a.05.05 0 0 0 .05.02l.03-.02.03-.03v-.02a1.6 1.6 0 0 0-.25-.6c-.16-.22-.41-.3-.7-.42-.02 0-.02-.02 0-.03l.02-.02.45.12ZM7.12 5.08a1.3 1.3 0 0 1-.43-.16c-.06-.03-.06-.05 0-.08.04-.02.1-.01.16.03.12.06.16.07.28.09a.6.6 0 0 0 .3-.03c.07-.02.13-.01.16.02.05.04.04.06-.02.08-.18.05-.33.06-.45.05ZM7.28 5.38l-.53-.19c-.03-.01-.04-.03-.03-.06v-.04a.03.03 0 0 1 .03-.02.04.04 0 0 1 .03 0c.45.22.91.26 1.4.1.02 0 .03 0 .03.03V5.26c-.25.09-.52.14-.71.29-.12.09-.31.05-.37.11a.74.74 0 0 0-.04.04c-.02.03-.05.06-.07.06-.1.03-.16 0-.2-.07a.13.13 0 0 0-.1-.07 1.44 1.44 0 0 1-.6-.24c-.01 0-.02 0-.01-.01l.01-.04c0-.02.02-.02.04-.01.37.2.75.24 1.12.1.05-.01.05-.03 0-.04ZM6 7.27c.1-.05.23-.08.41-.1.06 0 .08.02.05.07-.02.03-.07.05-.14.06a.55.55 0 0 0-.27.07.55.55 0 0 0-.22.17c-.05.05-.1.08-.13.07-.06 0-.07-.03-.03-.07.12-.13.23-.22.33-.27Z" fill="#3B403D"/><path d="m10.2 8.07-.36.4c-.04.04-.07.04-.1.02-.09-.07-.15-.1-.2-.1a4.39 4.39 0 0 1-.02-.06c.04-.22-.08-.36-.35-.42-.48-.3-.96-.29-1.44.03L7.7 7.9v-.05c.26-.15.87-.5 1.15-.38.37.17.78.31 1.23.43.06.02.11 0 .15-.03.03-.02.05-.06.05-.12 0-.05.01-.06.05-.03.05.04.08.07.08.11a.1.1 0 0 1-.04.1l-.17.13Z" fill="#2B2B2B"/><path d="M9.52 8.33c-.32-.18-.6-.19-.83-.02-.1.08-.1.12.04.13.27.02.54 0 .82-.05.04 0 .1.03.18.1.04.02.07.02.1-.01l.38-.4c.04.68-.27.93-.93.73-.05-.02-.06-.05-.03-.09.02-.03.06-.04.1-.04.14.01.15-.03.04-.13a.12.12 0 0 0-.1-.02c-.41.06-.8.02-1.16-.13a.23.23 0 0 0-.14 0l-.19.03c-.06.02-.07 0-.04-.05.07-.1.18-.17.34-.21.45-.13.8-.21 1.07-.26.27.06.39.2.35.42Z" fill="#3B403D"/><path d="m9.52 8.33.03.06c-.28.05-.55.07-.82.05-.14-.01-.15-.05-.04-.13.24-.17.51-.16.83.02Z" fill="#9E9E9E"/><path d="M11.72 10.81v-.03a.05.05 0 0 0-.05-.03h-.03c-.33.2-.67.3-1.03.3a5.1 5.1 0 0 1-2.09-.44.1.1 0 0 0-.08.15l.08.2a.05.05 0 0 1-.02.05.08.08 0 0 1-.06.02s-.02 0-.03-.02l-.4-.46a.12.12 0 0 1 .04-.2c.27-.12.54-.33.85-.13.06.03.05.06-.02.07l-.23.04c-.2.03-.2.09-.02.17.46.2 1 .35 1.61.42.66.08 1.04-.05 1.54-.37.12-.07.11-.13-.03-.16l-.07-.01c-.06-.01-.08-.05-.07-.1l.04-.18c0-.05.04-.08.1-.07.1 0 .17.06.17.18 0 .02 0 .04.02.06 0 .02.02.04.04.05.09.04.14.1.16.17.01.04 0 .07-.03.1-.16.13-.27.29-.35.47 0 .02-.02.03-.05.03l-.04-.01v-.01l.05-.26Z" fill="#2B2B2B"/><path d="m10.26 11.56-.4-.18v-.07c.02-.02.03-.03.06-.02.3.08.6.11.9.09.22-.02.36-.15.52-.3.03-.03.05-.03.05.02v.06l-.01.02-.38.33a.13.13 0 0 0-.05.11c0 .08-.02.15-.07.21a.16.16 0 0 1-.11.06c-.24.01-.46-.02-.66-.1-.05-.02-.06-.05-.04-.1.01-.04.07-.07.18-.08.07 0 .07-.02 0-.05Z" fill="#3B403D"/></svg>