<!-- by TradingView --><svg width="18" height="18" viewBox="0 0 18 18" xmlns="http://www.w3.org/2000/svg"><path fill="#181B1E" d="M0 0h18v18H0z"/><path d="m7.87 12.63-2.5-1.25V8.81a.23.23 0 0 0-.14-.2L4 8v3.94c0 .1.04.14.12.18l1.24.63v-.01L7.94 14c.03 0 .06 0 .06-.04v-1.14a.22.22 0 0 0-.13-.2ZM9 12.76V14l.94-.67a.14.14 0 0 0 .06-.12V12l-.98.72a.05.05 0 0 0-.02.04ZM5.37 6.99 4 6.5 5.44 6a.28.28 0 0 1 .18 0L7 6.48l-1.46.5a.28.28 0 0 1-.17 0ZM8.5 8v1.35l1 .65V8.74c0-.05-.02-.1-.06-.12L8.5 8ZM9.48 4.02l-1.15.6 4.35 2.24v4.95l1.2-.71a.25.25 0 0 0 .12-.21V6.38c0-.1-.05-.18-.14-.23L9.65 4.02a.18.18 0 0 0-.17 0Z" fill="#fff"/><path d="M8 5.48V6.8c0 .06.03.11.09.14l2.41 1.28c.09.05.14.13.14.21v2.77c0 .06.03.11.09.14L12 12V7.66a.24.24 0 0 0-.14-.21L8 5.48ZM7.28 7.63l-1.15.67A.24.24 0 0 0 6 8.5v2.24c0 .08.05.16.13.2l1.9 1.03a.16.16 0 0 0 .16 0l1.14-.72-2.05-1.16V7.63Z" fill="#fff"/></svg>