<!-- by TradingView --><svg width="18" height="18" viewBox="0 0 18 18" xmlns="http://www.w3.org/2000/svg"><path fill="#F0F3FA" d="M0 0h18v18H0z"/><circle cx="9" cy="9" r="6" fill="#B95000"/><path d="M8.7 3.15a5.96 5.96 0 0 1 .6 0l-.01.35a5.6 5.6 0 0 0-.58 0l-.02-.35Zm.76 0 .6.08-.06.35a5.51 5.51 0 0 0-.57-.07l.03-.35Zm-1.53.08c.2-.03.4-.06.61-.07l.03.35-.57.07-.07-.35Zm2.29.03.6.16-.12.34c-.18-.06-.37-.1-.55-.15l.07-.35Zm-3.03.16.6-.16.06.35-.55.15-.11-.34Zm3.77.05c.2.07.38.15.56.24l-.15.32a5.47 5.47 0 0 0-.53-.22l.12-.34Zm-4.48.24c.18-.1.37-.17.56-.24l.12.34c-.18.06-.36.14-.53.22l-.15-.32Zm5.18.07c.19.09.36.2.53.3l-.2.3a5.5 5.5 0 0 0-.49-.29l.16-.31Zm-5.85.3c.17-.1.34-.21.53-.3l.16.31a5.5 5.5 0 0 0-.5.3l-.2-.3Zm6.51.09c.17.11.33.24.49.37l-.23.27-.46-.35.2-.3Zm-7.13.37c.16-.13.32-.26.49-.37l.2.3c-.16.1-.31.22-.46.34l-.23-.27Zm7.73.1c.15.14.3.28.44.44l-.27.24a5.53 5.53 0 0 0-.4-.41l.23-.27Zm-8.28.44c.14-.16.28-.3.44-.44l.24.27c-.15.13-.28.26-.41.4l-.27-.23Zm8.82.11c.13.16.26.32.37.49l-.3.2c-.1-.16-.22-.31-.34-.46l.27-.23Zm-9.3.49.38-.49.27.23-.35.46-.3-.2Zm9.76.13c.1.17.21.34.3.53l-.31.16a5.48 5.48 0 0 0-.3-.5l.3-.2Zm-10.14.53c.09-.19.2-.36.3-.53l.3.2-.29.49-.31-.16Zm10.51.14c.1.18.17.37.24.56l-.34.12a5.48 5.48 0 0 0-.22-.53l.32-.15Zm-10.82.56c.07-.2.15-.38.24-.56l.32.15c-.08.17-.16.35-.22.53l-.34-.12Zm11.1.15c.07.2.12.39.17.6l-.35.06a5.44 5.44 0 0 0-.15-.55l.34-.11Zm-11.3.6c.04-.21.09-.4.15-.6l.34.1-.15.56-.35-.07Zm11.5.14c.03.2.06.4.07.61l-.35.03-.07-.57.35-.07Zm-11.61.61c.01-.2.04-.4.07-.6l.35.06a5.5 5.5 0 0 0-.07.57l-.35-.03Zm11.7.15a5.89 5.89 0 0 1 0 .62l-.36-.02a5.63 5.63 0 0 0 0-.58l.35-.02ZM3.13 9v-.3l.36.01a5.6 5.6 0 0 0 0 .58l-.35.02L3.14 9Zm11.7.46c-.01.2-.04.4-.07.6l-.35-.06.07-.57.35.03Zm-11.6.6c-.04-.2-.07-.4-.08-.6l.35-.03c.01.2.04.39.07.57l-.35.07Zm11.5.16-.16.6-.34-.12c.06-.18.1-.37.15-.55l.35.07Zm-11.32.6-.16-.6.35-.07.15.55-.34.11Zm11.1.14c-.06.2-.14.38-.23.56l-.32-.15c.08-.17.16-.35.22-.53l.34.12Zm-10.81.56a5.84 5.84 0 0 1-.24-.56l.34-.12c.06.18.14.36.22.53l-.32.15Zm.37.67a5.85 5.85 0 0 1-.3-.53l.31-.16c.09.17.19.34.3.5l-.3.2Zm10.14-.53c-.09.19-.2.36-.3.53l-.3-.2.29-.49.31.16Zm-.39.66c-.11.17-.24.33-.37.49l-.27-.23.35-.46.3.2Zm-9.29.49a5.87 5.87 0 0 1-.37-.49l.3-.2c.1.16.22.31.34.46l-.27.23Zm8.82.11-.44.44-.24-.27c.15-.13.28-.26.41-.4l.27.23Zm-8.28.44c-.16-.14-.3-.29-.44-.44l.27-.24c.13.15.26.28.4.41l-.23.27Zm7.73.1c-.16.13-.32.26-.49.37l-.2-.3c.16-.1.31-.22.46-.34l.23.27Zm-7.13.37a5.88 5.88 0 0 1-.49-.37l.23-.27.46.35-.2.3Zm6.51.09c-.17.1-.34.21-.53.3l-.16-.31c.17-.09.34-.19.5-.3l.2.3Zm-5.85.3c-.19-.09-.36-.2-.53-.3l.2-.3.49.29-.16.31Zm5.18.07c-.18.1-.37.17-.56.24l-.12-.34c.18-.06.36-.14.53-.22l.15.32Zm-4.48.24c-.2-.07-.38-.15-.56-.24l.15-.32c.17.08.35.16.53.22l-.12.34Zm3.77.05-.6.16-.06-.35.55-.15.11.34Zm-3.03.16-.6-.16.12-.34c.18.06.37.1.55.15l-.07.35Zm.76.1c-.2-.01-.4-.04-.6-.07l.06-.35.57.07-.03.35Zm1.53-.07c-.2.03-.4.06-.61.07l-.03-.35.57-.07.07.35Zm-1.07.1-.3-.02.01-.35a5.63 5.63 0 0 0 .58 0l.02.35-.31.01Z" fill="#FC3"/><circle cx="9" cy="9" r="5.33" fill="#FC3"/><path d="m13.26 10.87.09.04c.05.02.05.03 0 .03-.04 0-.07 0-.1-.02h-.05a.05.05 0 0 0-.03.03c-.08.17-.1.36-.2.52-.12.21-.35.4-.5.63-.06.1-.14.18-.22.25-.13.1-.23.23-.37.32-.17.12-.3.25-.5.32s-.37.15-.63.22c-.18.06-.4.16-.63.2-.13.02-.27.11-.41.09-.25-.04-.4-.06-.48-.04a.8.8 0 0 1-.44 0c-.2-.05-.4-.02-.58-.08-.22-.06-.4-.17-.63-.21l-.37-.1c-.22-.02-.42-.15-.6-.22-.25-.1-.42-.25-.66-.36-.22-.1-.33-.25-.5-.28a.22.22 0 0 1-.07-.02.7.7 0 0 1-.19-.16 3.17 3.17 0 0 1-.43-.68c-.05-.14-.08-.34-.14-.53-.1-.26-.08-.52-.14-.8-.07-.32.02-.59.04-.91.01-.23.14-.47.2-.63L4.83 8c.05-.2.12-.37.2-.5a2.82 2.82 0 0 1 .34-.46V7a8.56 8.56 0 0 1-.2-1.6c.5-.05 1.2.28 1.62.55.13.1.45.2.6.15a.9.9 0 0 1 .46-.05c.12.02.2.03.23.02.5-.13.99-.13 1.48-.02.17.04.3.09.5.07.22-.03.43 0 .63.1.02.02.04.02.07.02.22-.02.43.01.64.08a11.9 11.9 0 0 0 1.49-.69c.04-.02.09 0 .1.04.13.25-.02.63.12.83l.01.03v.03c-.03.06-.05.18-.07.34a1 1 0 0 1-.25.48v.06c.19.2.27.45.26.71l.01.33.02.23c0 .18.07.34.05.53 0 .1 0 .2.02.28.05.23.02.44.06.67.03.1.04.2.04.3 0 .02 0 .04.03.04a25.86 25.86 0 0 0 .47.13c.03.03.03.05-.01.04l-.46-.07a.06.06 0 0 0-.06.05l-.02.12c0 .04 0 .06.04.07Z" fill="#BB4918"/><path d="M7.38 6.27c.02.08.07.13.17.14l.06.02.2.13c.1.06.72-.34 1.1-.17.26.12.58.08.85.08a.1.1 0 0 1 .06.02c.08.05.17.06.26.02a.06.06 0 0 1 .06.02c.03.03.07.03.1 0a.05.05 0 0 0 .01-.05c-.07-.2.56.2.63.2a.1.1 0 0 1 .06 0c.15.11.25.07.2-.07-.03-.12 0-.14.09-.04l.15.16c.05.06.08.05.08-.03a.42.42 0 0 0-.09-.22c.28-.02.57-.14.87-.34.24.06.32.05.55-.27.04-.05.08-.07.12-.06.03 0 .05.03.06.08.03.24-.1.64-.16.83 0 .02 0 .03.03.03.02 0 .05-.01.07-.03.02-.01.04-.02.05-.01.03 0 .04.02.02.04a.92.92 0 0 1-.2.24c-.08.07-.07.1.03.08l.05-.02c.02 0 .04 0 .04.03 0 .09-.15.22-.22.28a.06.06 0 0 0-.02.06c.03.1.08.2.17.33a1.99 1.99 0 0 0-.6-.02v.01c.1.12.39.3.4.43 0 .03 0 .03-.03.02l-.07-.04c-.14-.07-.17-.04-.08.09l.18.22.07.3c.02.02.02.04.01.07-.04.17 0 .33.11.49.05.06-.06.3-.04.53 0 .22-.13.35-.2.56-.7-.1-1.48-.2-2.2-.15a.09.09 0 0 0-.05.03l-.04.04v.01h.01c.93.05 1.81.1 2.71.25.02 0 .04.01.04.03.01.05.01.1 0 .14-.01.03-.03.04-.05.03a14.58 14.58 0 0 0-2.57-.35c-.02.02 0 .06.03.07l2.05.27c-.2.46-.09.6-.34.9a.43.43 0 0 1-.11.18.1.1 0 0 0-.03.05c0 .04-.01.07-.03.1l-.04.04a.27.27 0 0 0-.07.07.14.14 0 0 1-.05.05c-.15.06-.12.07-.24.23a1.27 1.27 0 0 1-.37.3c-.06 0-.03-.1-.02-.12 0-.03 0-.05-.03-.05a.24.24 0 0 0-.26.1.12.12 0 0 1-.05.05 2 2 0 0 0-.47.26.04.04 0 0 1-.05-.03c0-.05 0-.09.02-.13.03-.04.02-.06-.03-.05a.41.41 0 0 0-.32.22.11.11 0 0 1-.1.06c-.08 0-.67-.02-.66 0h.02c.02.01.02.04-.01.08l-.03.01a2.67 2.67 0 0 1-1.1-.05l-.3.01-.17-.08-.1-.09c-.01-.02 0-.03.02-.04l.17.01.06.02.33.02h.02l.01-.03c0-.06-.1-.1-.14-.1l-.06-.02-.24-.13-.02-.01a.77.77 0 0 0-.18-.18.06.06 0 0 0-.06 0 .06.06 0 0 0-.03.06v.06c0 .03-.01.04-.04.03-.02 0-.04-.02-.05-.04.05 0 .08-.02.07-.05a.87.87 0 0 0-.08-.23.06.06 0 0 1 .07-.09c.04.02.08.02.12.02a.1.1 0 0 1 .07.03c.1.07.2.12.27.21.14.16.23.32.49.33.04 0 .1.04.17.12h.01c.05.03.12-.05.1-.1l-.22-.37c-.03-.04-.09-.08-.2-.1a.05.05 0 0 1-.03-.03c-.45-1.18.11-.48-.3-.43h-.03l-.02-.03-.04-.3v-.03h-.02l-.1-.03c-.04 0-.05.01-.05.04l.09.42c0 .03 0 .05-.03.06a.04.04 0 0 1-.03.01c-.02 0-.03-.01-.04-.03a.87.87 0 0 0-.15-.18.07.07 0 0 1-.03-.05c0-.05 0-.1-.02-.13a.06.06 0 0 0-.04-.03c-.05-.01-.07 0-.08.04 0 .02-.02.04-.04.05l-.05.02a.05.05 0 0 0-.03.05c0 .09 0 .15.03.23.04.08.04.13 0 .17-.04.04-.08.03-.11-.02l-.1-.18a.04.04 0 0 0-.04-.03c-.07.02-.12 0-.15-.06-.04-.08-.05-.1-.12-.14a.1.1 0 0 1-.05-.05c-.11-.23-.18.04-.25-.03a.07.07 0 0 1-.01-.03.1.1 0 0 0-.06-.07c-.03-.02-.05 0-.05.03 0 .12.03.25.1.38-.18-.04-.1-.16-.2-.24a.05.05 0 0 1-.02-.05l-.01-.04c-.01-.01-.03-.02-.06-.01l-.14.01c-.03 0-.04 0-.04-.03a.2.2 0 0 1 .04-.11l3.14-.87h.01a.02.02 0 0 0 0-.01c.01-.03-.03-.07-.06-.06a35.52 35.52 0 0 0-3.27.94c-.04.02-.04.07-.02.13.02.04.02.07 0 .1 0 .03-.02.03-.03 0-.08-.11-.33-.23-.43-.55-.01.02-.03.03-.05.02l-.06-.03c-.06-.06.01-.11.21-.15 1.21-.28 2.44-.38 3.67-.53.03 0 .03-.03.03-.05 0-.02 0-.02-.02-.02-.83.02-1.66.12-2.48.25l-.27.04-1.14.26c0-.02-.05-.01-.07-.03a.07.07 0 0 1-.03-.05c.02-.18.01-.3-.02-.37a1.27 1.27 0 0 1-.11-.83.37.37 0 0 0-.03-.22c-.05-.11 0-.22-.02-.34a1.77 1.77 0 0 1-.03-.36c.1-.26.16-.43.23-.77.03-.17.1-.32.19-.47a.1.1 0 0 0 .01-.07c-.02-.17.17-.25.28-.35a.06.06 0 0 0 .02-.06l-.11-.58a3.3 3.3 0 0 1-.11-.83.07.07 0 0 1 .07-.04c.56.06 1.2.53 1.63.88h.04v-.03l-.1-.15c-.04-.05-.02-.08.04-.08.05 0 .1.03.16.1.02.02.03.03.06.03.04 0 .07-.02.1-.04ZM9.2 8.39a.15.15 0 0 1-.07.02c-.62-.08-2.03-.22-2.39.42-.14.2-.29.53-.18.76.13.27.34.49.67.4.12-.04.2-.03.32-.03v-.03h.01c.08 0 .15 0 .22-.04.43 0 1.42.01 1.77-.23a.06.06 0 0 1 .06 0c.22.1.44.14.68.14l1.35-.02c.15 0 .3-.01.43-.06.34-.13.3-.66.17-.92-.17-.34-.47-.36-.87-.4a6.71 6.71 0 0 0-1.41.06c-.55 0-.51-.18-.76-.07Zm.81 1.46c-.12-.05-.52-.07-.6.08a.07.07 0 0 0 0 .07c.05.1.12.17.21.22a.16.16 0 0 0 .19-.02l.23-.22a.08.08 0 0 0-.03-.13Zm.39.8 1.7.3.01-.02-.01-.03a11.23 11.23 0 0 0-1.7-.3l-.02.01v.04h.02Zm-3.62.86 2.29-.7v-.01c.02-.05-.06-.07-.1-.06a14.99 14.99 0 0 0-2.2.76h.01Zm2.95-.6c.05.07.12.11.2.12.16.02.17 0 .04-.09a.86.86 0 0 1-.21-.18l-.02-.02a.08.08 0 0 0-.1.02 12.14 12.14 0 0 0-.17.24c.02.02.04.02.06 0l.13-.1h.04l.03.01Z" fill="#FFC840"/><path d="M11.37 6.48c.06.08.08.15.09.22 0 .08-.03.09-.08.03l-.15-.16c-.1-.1-.12-.08-.08.04l.04.06c.01.02 0 .04-.02.05a.27.27 0 0 1-.23-.03.1.1 0 0 0-.06-.02c-.27.02-.34-.24-.61-.25h-.02c-.02.02 0 .04 0 .06l-.01.05c-.03.03-.07.03-.1 0a.06.06 0 0 0-.06-.02.26.26 0 0 1-.26-.02.1.1 0 0 0-.06-.02c-.27 0-.6.04-.85-.08-.29-.13-1.05.25-1.08.23l-.22-.19a.15.15 0 0 0-.06-.02c-.1-.01-.15-.06-.17-.14.18-.1.37-.14.57-.1.19.04.32.01.49 0 .43-.06.86-.04 1.28.05.11.03.23.04.37.04.24 0 .46.06.69.07.2.01.45.01.6.15ZM12.83 7.75A7.7 7.7 0 0 1 13 9.7c0 .09.07.21.02.33v.04l.01.36c0 .03 0 .04-.03.03l-.43-.06c.07-.2.1-.43.08-.66a.05.05 0 0 1 .04-.05c.02-.01.04-.03.04-.05.01-.03 0-.05-.01-.07l-.08-.1c-.06-.08-.04-.11.04-.1l.09.05a.03.03 0 0 0 .02.01.03.03 0 0 0 .03-.02c.02-.04.02-.07 0-.1a.56.56 0 0 1-.12-.5c.01-.02 0-.04-.01-.06l-.14-.18a.06.06 0 0 1-.01-.05l.02-.1a.06.06 0 0 0-.01-.04l-.1-.15c-.1-.13-.07-.16.07-.09l.07.04c.03.01.04 0 .03-.02-.01-.13-.3-.31-.4-.43a.03.03 0 0 1 0-.03.04.04 0 0 1 .03-.02c.15-.02.34 0 .57.06Z" fill="#FED573"/><path d="M4.75 9.73c-.02.12.03.22.03.32 0 .13.02.25.05.34l.04.17c0 .03 0 .05.02.07l.11.25c.02.06.07.07.14.04h.04a.14.14 0 0 1-.06.05.02.02 0 0 0-.01.02.02.02 0 0 0 .02.02l.26-.03c-.2.04-.27.09-.21.15.14.09.24.22.3.4l.01.01.02.01c.01 0 .02 0 .04-.03l.01-.02a.03.03 0 0 1 .06 0c0 .1.04.19.1.25h.02a.02.02 0 0 0 .01 0h.01l.01-.03a.02.02 0 0 1 .02-.01.02.02 0 0 1 .02 0l.1.17c.01.03.02.03.03 0l.02-.1c0-.03.01-.04.04-.04 0 0 .02 0 .03.02l.03.05c.03.08.04.17.05.26 0 .03.02.04.05.04.04 0 .07 0 .1.03l.03.05c.06.17.17.3.31.42a.1.1 0 0 0 .06.01c.08 0 .14.02.2.04-.11.03-.18.03-.22 0l-.81-.5a2.84 2.84 0 0 1-.92-1.03.64.64 0 0 1-.1-.26c-.02-.18 0-.32-.04-.5a2.65 2.65 0 0 1-.02-.64Z" fill="#ED7522"/><path d="m12.51 10.78.37.08a.87.87 0 0 1-.07.24c-.05.12-.16.17-.23.28a.84.84 0 0 1-.21.26h-.05l-.02-.03c-.02-.02-.04-.02-.06 0l-.07.07a.16.16 0 0 1-.12.06c-.05 0-.08.03-.07.08a.1.1 0 0 1-.02.06l-.12.21c-.01.02-.03.02-.05.02a.17.17 0 0 0-.06-.02c-.03 0-.05.01-.06.04-.04.11-.1.25-.21.29a.1.1 0 0 0-.05.03c-.06.08-.13.09-.2.02a.05.05 0 0 0-.05-.01c-.13.04-.26.11-.4.2a.1.1 0 0 1-.12.01c-.02 0-.02-.03 0-.05l.17-.18.17-.16c.04-.03.08-.1.12-.19a.67.67 0 0 1 .14-.18.08.08 0 0 1 .06-.02c.16 0 .17-.16.33-.19.03 0 .05-.01.06-.04l.07-.15a.1.1 0 0 1 .05-.05.26.26 0 0 1 .1-.01.05.05 0 0 0 .04-.03l.02-.04a.1.1 0 0 1 .05-.04c.05-.03.09-.06.11-.12a.08.08 0 0 1 .05-.04l.03-.01.03-.02.27-.37Z" fill="#FED573"/><path d="M12.88 10.86c.04 0 .08 0 .12.02.03.02.04.04.02.06l-.08.14a.2.2 0 0 0-.02.06c-.07.35-.27.48-.49.7a.97.97 0 0 0-.25.22.06.06 0 0 1-.06.02c-.04-.01-.06 0-.07.01a.65.65 0 0 1-.14.16.09.09 0 0 1-.06.02c-.1 0-.17.14-.22.22-.07.11-.17.18-.23.3l-.36.17a.1.1 0 0 1-.06 0 .5.5 0 0 0-.32.03 1.5 1.5 0 0 1-.45.13c-.21.02-.35.05-.53.04-.02 0-.04 0-.05.02-.03.03-.07.05-.13.05-.27.03-.52.03-.74-.01-.15-.03-.33 0-.5-.09-.13-.08-.26.02-.43-.07h.37c.11.06.24.09.37.08.01 0 .02 0 .03-.02l.02-.02h.02c.12.02.25 0 .37-.03h.05a.3.3 0 0 0 .18.03l.03-.01c.03-.04.03-.07 0-.08a.02.02 0 0 1 0-.02v-.01h.01l.64.03a.11.11 0 0 0 .1-.06c.07-.13.17-.2.32-.22.05-.01.06 0 .03.05a.17.17 0 0 0-.02.13v.02a.05.05 0 0 0 .05.01h.02a2 2 0 0 1 .45-.26l.05-.05a.24.24 0 0 1 .26-.1c.02 0 .03.02.03.05l-.02.08a.03.03 0 0 0 .02.03.03.03 0 0 0 .03 0c.14-.08.26-.17.36-.29.05-.07.05-.15.11-.22.02-.02.04-.02.06 0l.07-.01a.14.14 0 0 0 .05-.05.27.27 0 0 1 .07-.07A.12.12 0 0 0 12 12a.25.25 0 0 0 .03-.09.1.1 0 0 1 .03-.05c.05-.06.09-.12.11-.18l.07-.07c.02-.02.04-.02.06 0l.02.02c.01.02.03.02.05 0a.84.84 0 0 0 .21-.25c.07-.1.18-.16.23-.28a.86.86 0 0 0 .07-.24Z" fill="#FC9D2B"/><path d="M5.77 11.46c0 .07.05.07.18 0a.2.2 0 0 0-.04.1c0 .03.01.04.04.04l.14-.01h.06c.01.02.02.03.01.05 0 .02 0 .04.03.05.1.08 0 .2.18.24 0 .04.03.08.08.13l.06.03c.05 0 .1.03.12.07l.05.04c.08.04.14.09.2.16 0 .02.02.03.05.04.02 0 .03-.01.03-.03v-.02c.01-.1.05-.1.1-.02l.06.11c.02.02.03.03.05.02.1-.05.15-.02.19.08.01.02.03.04.05.04.03 0 .04 0 .04-.03v-.06a.06.06 0 0 1 .09-.06c.07.05.13.11.18.18l.02.01.24.13.06.01c.06.01.1.04.14.1a.03.03 0 0 1-.01.04h-.02l-.33-.02-.06-.02a.32.32 0 0 0-.17 0c-.03 0-.03.01-.01.03l.09.09c-.36-.07-.61-.09-.82-.32a.44.44 0 0 0-.2-.04.1.1 0 0 1-.05-.01.87.87 0 0 1-.3-.42.15.15 0 0 0-.04-.05.12.12 0 0 0-.1-.03c-.03 0-.05-.01-.05-.04 0-.09-.02-.18-.05-.26 0-.03-.02-.04-.03-.05L6 11.74c-.03 0-.04 0-.05.03l-.01.1c0 .04-.02.04-.03.01l-.1-.16v-.01a.02.02 0 0 0-.03 0 .51.51 0 0 0-.03.04h-.02a.33.33 0 0 1-.11-.24.03.03 0 0 0-.03-.03.03.03 0 0 0-.03.02l-.01.02-.04.03H5.5v-.03a.73.73 0 0 0-.31-.39l.06.03c.02 0 .04 0 .05-.02a.12.12 0 0 1 .1-.07.07.07 0 0 1 .07.08.73.73 0 0 0 0 .25c.01.03.03.04.05.03l.03-.01v-.02l.01-.17c.01-.04.03-.05.06-.02l.05.03c.03.02.04.04.02.08a.39.39 0 0 0 .04.38c.01.02.03.02.04 0a.15.15 0 0 0 0-.1c-.03-.07-.03-.12 0-.14Z" fill="#FEB63A"/><path d="M7.36 12.54c-.04-.1-.1-.13-.2-.08-.01 0-.03 0-.04-.02l-.06-.11c-.05-.08-.09-.08-.1.02v.02c0 .02-.01.03-.03.03a.08.08 0 0 1-.06-.04.47.47 0 0 0-.19-.16.12.12 0 0 1-.05-.04.16.16 0 0 0-.12-.07.11.11 0 0 1-.06-.03c-.05-.05-.08-.09-.08-.13a.81.81 0 0 1-.1-.38c.01-.04.03-.05.06-.03a.1.1 0 0 1 .06.07l.01.03.03.02h.03v-.05h.02c.07-.04.13-.02.17.06a.1.1 0 0 0 .05.05c.07.04.08.06.12.14.03.05.08.08.15.06a.04.04 0 0 1 .04.03l.1.18c.03.05.07.06.11.02.04-.04.04-.09 0-.17-.04-.08-.03-.14-.03-.23 0-.02.01-.04.03-.05l.05-.02a.07.07 0 0 0 .04-.05c0-.04.03-.05.08-.04.02 0 .03.01.04.03.02.04.02.08.02.13a.07.07 0 0 0 .03.05c.06.05.1.11.15.18.01.02.02.03.04.03h.03a.05.05 0 0 0 .03-.07l-.09-.42c0-.03 0-.04.04-.04l.1.02a.03.03 0 0 1 .03.03l.04.3c0 .02 0 .03.02.03l.03.01c.04 0 .06-.03.06-.07A3.3 3.3 0 0 1 8 11.6a.05.05 0 0 1 .04-.01h.03a.08.08 0 0 1 .07.06v.03c-.03.2 0 .4.07.59 0 .02.02.03.04.03.1.02.16.06.19.1l.21.37c.01.03.01.05 0 .07l-.04.03a.05.05 0 0 1-.03.01.05.05 0 0 1-.03-.01c-.07-.08-.13-.12-.17-.12-.26-.01-.35-.17-.49-.33-.08-.1-.18-.14-.27-.21a.1.1 0 0 0-.07-.03c-.04 0-.08 0-.12-.02a.06.06 0 0 0-.07.02.06.06 0 0 0 0 .07l.08.23c0 .03-.02.05-.07.05Z" fill="#FED573"/><path d="M12.43 11.83c-.08.08-.15.16-.2.24-.16.21-.35.34-.5.54a.94.94 0 0 1-.33.18c.06-.12.16-.19.23-.3.05-.08.11-.21.22-.22.03 0 .04 0 .06-.02l.14-.16c.01-.02.03-.02.07-.01h.03l.03-.02c.08-.1.16-.17.25-.23Z" fill="#ED7522"/><path d="m6.5 6.37-.21-.21v-.04h.03c.27.11.48.3.63.55a.06.06 0 0 0 .06.03l.17-.02c.02 0 .03 0 .04.03.02.03.01.06-.02.08-.16.1-.3.2-.43.33-.06.06-.12.06-.18 0a.1.1 0 0 0-.15 0 .38.38 0 0 1-.18.08.04.04 0 0 1-.05-.06c.03-.05.07-.1.12-.14a.07.07 0 0 0 .02-.06c0-.05.02-.08.06-.1.04 0 .05-.02.03-.06l-.35-.43a.03.03 0 0 1 .01-.05c.03-.01.06 0 .1.01a1.28 1.28 0 0 0 .29.1.02.02 0 0 0 0-.04Z" fill="#FC9D2B"/><path d="M5.6 6.25c.26.04.47.37.6.57a.07.07 0 0 1-.06.1.15.15 0 0 0-.15.1c0 .01-.02.02-.05.01-.23-.06-.31-.21-.24-.45V6.5l-.13-.2a.04.04 0 0 1 .04-.06Z" fill="#FC9D2B"/><path d="m9.38 8.06-.01.08-1.07.02c-.01 0-.03 0-.04.02-.1.07-.2.01-.3.02-.25 0-.95.1-1.12-.11-.03-.03-.02-.05.02-.06h.11l.79-.2h.06a1.76 1.76 0 0 0 .42 0c.02-.02.03-.03.05-.03L9 7.66l.05.01.02.02.03.01c.16 0 .22.24.27.36ZM10.21 8.2a.66.66 0 0 0-.25.01.08.08 0 0 1-.06-.01c-.03-.02-.04-.05-.04-.09.25-.62.38-.02.8-.39.03-.01.05-.01.06.01a.2.2 0 0 1 .03.1.06.06 0 0 0 .05.05 1.66 1.66 0 0 0 .53 0 .8.8 0 0 0 .23.05c.19.02.36.1.5.26a.1.1 0 0 0 .07.03l.15.04c.06.03.06.05-.01.06-.2.04-.39.03-.58-.03-.07-.02-.15-.14-.25-.1-.15.05-.43.04-.5.03a2.78 2.78 0 0 0-.73-.02Z" fill="#CC601E"/><path d="M9.86 8.11c0 .04.01.07.04.09a.08.08 0 0 0 .06.01.66.66 0 0 1 .25 0 .15.15 0 0 1-.13.01.04.04 0 0 0-.06.03.11.11 0 0 1-.07.08.04.04 0 0 0-.02.02.04.04 0 0 0 0 .03c.02.03.03.05.03.08a.9.9 0 0 0-.3.13c-.01.02-.03.02-.05 0a1 1 0 0 0-.48-.18c.02 0 .05 0 .07-.02a.06.06 0 0 0 .04-.05v-.09h.07a.2.2 0 0 0 .04.03c.02.01.03 0 .04-.02.01-.05 0-.1-.02-.12l.01-.08.06.04c.04 0 .06 0 .07-.03l.05-.16c0-.02.02-.04.04-.04h.02c.02 0 .04 0 .04.03l.03.35c0 .04.02.06.06.06h.04a.05.05 0 0 0 .03-.02.05.05 0 0 0 .01-.04c0-.05 0-.1.03-.14Z" fill="#FC9D2B"/><path d="M6.74 8.83c-.08.25-.07.5.03.74.1.23.64.3 1 .32a.41.41 0 0 1-.2.04h-.01v.02l-.01.01c-.12 0-.2 0-.32.03-.33.09-.54-.13-.67-.4-.1-.23.04-.57.18-.76Z" fill="#FEB63A"/><path d="m12.1 10.96-1.7-.3h-.01v-.01l-.01-.01v-.03h.02c.11-.01.28 0 .5.04a11.22 11.22 0 0 1 1.21.28v.02h-.02Z" fill="#BB4918"/><path d="M6.9 8.87c.04-.1.1-.18.21-.22l.16-.07c.1-.04.13 0 .08.09-.23.53.32.92.81.9a.92.92 0 0 0 .72-.3.11.11 0 0 1 .06-.04c.13-.04.48-.07.36-.32-.09-.2-.36-.06-.44-.37 0-.02 0-.03.02-.03.22-.01.64.02.7.29.07.33 0 .75-.4.83-.6.12-1.29.1-1.9.04-.45-.04-.48-.43-.37-.8ZM11.67 9.65c-.47.03-.95.03-1.43-.01-.18-.02-.33-.01-.5-.08a.1.1 0 0 1-.06-.11c.05-.22.06-.43.03-.65 0-.03 0-.05.02-.07.09-.12.2-.18.36-.18a.03.03 0 0 1 .02.04c-.23.42.05.81.46.93.42.12.76.03 1.04-.28a.1.1 0 0 1 .06-.03c.12-.03.4-.05.38-.25-.02-.14-.18-.19-.3-.22a.13.13 0 0 1-.1-.07l-.01-.03c-.02-.04 0-.06.04-.06.28.03.44.16.5.42.09.44-.04.62-.5.65Z" fill="#FED573"/><path d="M11.58 9.13c.2.01.37-.05.37-.15 0-.09-.15-.17-.35-.18-.2-.02-.36.05-.37.14 0 .1.15.18.35.2ZM8.86 9.14c.2.01.36-.05.37-.14 0-.1-.15-.17-.35-.19-.2 0-.37.05-.37.14 0 .1.15.18.35.19Z" fill="#FED573"/></svg>