<!-- by TradingView --><svg xmlns="http://www.w3.org/2000/svg" width="18" height="18"><path fill="#F0F3FA" d="M0 0h18v18H0z"/><path d="M4.01 8.71c.7.76 1.96 1.38 3.72 1.83l.16.04.17.04.17.04.07.02.14.03.18.05.17.04.14.04.13.03.12.04.13.03.12.04.12.04.06.01.11.04.09.03.08.03.13.04.03.01.13.05.12.05.05.02.1.04.04.02.1.04c.5.22.85.45 1.07.7.32.34.3.72-.08 1.2a5 5 0 01-2.37.7c-.08-.2-.2-.39-.34-.6a4.9 4.9 0 00-.27-.33l-.05-.06-.07-.07-.07-.07-.07-.08a9.36 9.36 0 00-.38-.36l-.07-.07-.1-.08-.09-.08-.1-.08-.1-.09-.04-.04-.1-.08-.12-.09-.13-.1-.14-.12-.12-.08-.12-.1-.12-.08-.16-.12-.16-.11-.13-.1-.14-.1-.14-.09-.2-.14-.15-.1-.15-.1-.15-.1-.2-.12-.2-.13-.24-.15-.16-.1-.25-.16-.15-.1a4.98 4.98 0 01-.02-.82v-.09z" fill="url(#ax0bscld2)"/><path d="M4.29 10.63l.08.06.24.15.15.1.14.1.15.09.14.1.14.09.14.1.13.08.13.1.13.08.13.1.12.08.12.09.12.09.17.12.16.13.1.08.11.09.1.08.1.08.04.04.1.07.09.08.08.08.09.07.04.04.08.07.08.08.07.07.1.1.04.04.07.07a4.66 4.66 0 01.45.57 5 5 0 01-4.13-3.37z" fill="url(#bx0bscld2)"/><path d="M5.23 5.73c-.02.34.06.67.26.98.3.47.84.86 1.62 1.2l.06.03.1.04.64.24.1.03.12.04.06.02.13.03.06.02.14.04.06.02.07.01.14.04.07.02.14.03.14.04.18.04.15.04c.06 0 .1.02.16.03l.15.04.14.04.15.04.14.04.13.04c1.95.6 2.99 1.36 3.18 2.32a5 5 0 01-.89 1.27 1.5 1.5 0 00-.4-.86 3.3 3.3 0 00-.9-.67l-.06-.03-.09-.05-.15-.07-.08-.04-.1-.05-.06-.02-.05-.02-.1-.04-.06-.03-.1-.04-.5-.18-.1-.03-.12-.04-.13-.04-.14-.03-.2-.06-.14-.04-.18-.05-.19-.05-.07-.01-.15-.04-.26-.06-.15-.04-.14-.03-.13-.04-.07-.01-.13-.04-.13-.04-.13-.03-.06-.02-.13-.04-.12-.04-.12-.03-.12-.04-.11-.04-.06-.02-.11-.04-.16-.06-.1-.05a8.62 8.62 0 01-.2-.08l-.1-.04-.05-.02-.1-.05c-.9-.42-1.45-.91-1.69-1.48.2-.7.55-1.33 1.02-1.87l.02-.03z" fill="url(#cx0bscld2)"/><path d="M8.99 4h.14c-.38.5-.3 1.14.29 1.88.08.1.17.21.28.32l.05.06.07.07.1.1.05.04.08.08.08.07.28.24.07.07.1.07.1.08.1.08.1.08.11.08.11.09.17.12.12.08.18.13.13.09.06.04.13.09.06.04.14.1.13.08.14.09.14.09.15.1.15.08.15.1.15.1.16.09.16.1.16.09.16.1.17.1.09.04c-.02.3-.06.6-.13.9a5.3 5.3 0 00-2.63-1.76l-.13-.05-.52-.17-.14-.04-.14-.05-.14-.04c-.02 0-.05 0-.07-.02L9.95 8l-.07-.02-.15-.04-.23-.06-.29-.07-.14-.03-.13-.03-.13-.04-.13-.03-.06-.02-.12-.03-.06-.02-.12-.04-.06-.02-.12-.03-.05-.02-.11-.04-.06-.02-.1-.03-.05-.02-.1-.04-.06-.02-.04-.02-.1-.04-.05-.02-.09-.04a5.97 5.97 0 01-.2-.09l-.06-.03L7 7.05a2.37 2.37 0 01-.92-.75c-.28-.43-.17-.96.38-1.62A5.03 5.03 0 018.99 4z" fill="url(#dx0bscld2)"/><path d="M10.14 4.1A5.01 5.01 0 0114 8.42l-.18-.1-.22-.14-.14-.09L13.3 8l-.14-.08-.13-.1-.14-.08-.13-.08-.13-.09-.13-.08-.12-.08-.12-.09-.12-.08-.11-.08-.12-.08-.1-.08-.11-.07-.1-.08-.11-.08-.1-.07-.1-.08-.09-.07-.09-.07-.09-.08-.04-.03-.09-.07-.08-.07-.08-.07-.07-.07-.08-.07-.05-.05-.05-.05-.07-.07-.03-.03-.03-.03-.06-.06-.16-.18-.04-.04-.04-.06-.05-.06c-.32-.42-.4-.72-.3-.93a.88.88 0 01.39-.34l.04-.02z" fill="url(#ex0bscld2)"/><defs><linearGradient id="ax0bscld2" x1="4" y1="8.71" x2="4" y2="14" gradientUnits="userSpaceOnUse"><stop stop-color="#FF475A"/><stop offset="1" stop-color="#FF9A89"/></linearGradient><linearGradient id="bx0bscld2" x1="4.29" y1="10.63" x2="4.29" y2="14" gradientUnits="userSpaceOnUse"><stop stop-color="#FF9A89"/><stop offset="1" stop-color="#FF475A"/></linearGradient><linearGradient id="cx0bscld2" x1="4.19" y1="5.73" x2="4.19" y2="12.46" gradientUnits="userSpaceOnUse"><stop stop-color="#FF9A89"/><stop offset="1" stop-color="#FF475A"/></linearGradient><linearGradient id="dx0bscld2" x1="5.92" y1="4" x2="5.92" y2="10.15" gradientUnits="userSpaceOnUse"><stop stop-color="#FF475A"/><stop offset="1" stop-color="#FF9A89"/></linearGradient><linearGradient id="ex0bscld2" x1="9.67" y1="4.1" x2="9.67" y2="8.42" gradientUnits="userSpaceOnUse"><stop stop-color="#FF9A89"/><stop offset="1" stop-color="#FF475A"/></linearGradient></defs></svg>