<!-- by TradingView --><svg width="18" height="18" viewBox="0 0 18 18" xmlns="http://www.w3.org/2000/svg"><path fill="#5271FF" d="M0 0h18v18H0z"/><path d="M11.16 5.86c-.06-.18-.2-.19-.36-.22a.43.43 0 0 1-.13-.04c-.01 0-.02 0-.02-.02-.02-.06-.03-.1-.08-.15a8.98 8.98 0 0 0-.17-.14 18.05 18.05 0 0 1-.14-.13.46.46 0 0 1-.08-.07c.24-.15.48-.3.73-.41l.21-.14a.98.98 0 0 0 .3-.5.95.95 0 0 0-.01-.48l-.04-.15c-.01-.1-.04-.16-.04-.26v-.12l.01-.02c.17-.06.4.26.48.37.09.12.15.26.23.4.08.15.13.32.1.48-.04.27-.06.42-.2.6-.22.3-.45.58-.65.87a.4.4 0 0 1-.14.13ZM7.98 5.1c.06.06.08.1.07.12-.03.02-.04.01-.05 0l-.02-.01h-.04l-.02.01c-.04.04-.1.04-.14.05-.08.01-.2-.04-.27-.08a.92.92 0 0 0-.17-.07 1.24 1.24 0 0 1-.29-.11l-.02-.02c-.07-.08-.2-.18-.24-.27a.7.7 0 0 1-.03-.12c-.03-.12-.1-.23-.14-.34l-.01-.01c0-.06-.02-.11-.04-.16-.02-.07-.01-.15-.05-.22v-.03c0-.15-.02-.3-.05-.45.04-.07.15-.24.26-.29a.04.04 0 0 1 .02 0c.04.01.06.05.05.1l-.06.37c-.05.3.32.69.47.9.14.18.23.3.28.34.07.07.2.1.28.16l.2.12Z" fill="#FBE6BD"/><path d="M10.58 4.05a.55.55 0 0 0 .02-.19l-.01-.02a.74.74 0 0 0-.36-.2h-.01c-.09-.04-.16-.06-.26-.08-.1-.03-.21-.01-.32-.04a9.9 9.9 0 0 0-.3-.08l-.1-.01a13.52 13.52 0 0 1-.63-.05c-.18-.02-.36 0-.54.02l-.25.05c-.04.01-.1.04-.16.03h-.02a.19.19 0 0 1-.08.05c.1-.07.2-.12.3-.14.2-.05.4-.09.64-.12.17-.02.35.02.52.01.33 0 .6.01.91.06.24.04.44.18.63.31.13.09.1.3.02.4ZM6.47 3.39c.03.15.05.3.04.45v.03c.05.07.04.15.06.22l.04.16h.01c.04.12.11.23.14.35 0 .05.02.1.03.12.04.1.17.19.24.27l.02.02.07.03.22.08.17.07c.07.04.2.1.27.08.04-.01.1-.01.14-.05l.02-.01h.04l.02.01c0 .01.02.02.05 0l-.1.05a.16.16 0 0 0-.14.04l-.03.01h-.03l-.02.02c-.05.07-.24 0-.3-.03a.35.35 0 0 0-.13-.02.44.44 0 0 1-.12-.03.78.78 0 0 1-.4-.34c-.02-.05-.06-.1-.1-.14a.32.32 0 0 1-.05-.17l-.01-.02-.01-.02a.35.35 0 0 0-.04-.12l-.01-.02v-.07a4.4 4.4 0 0 0-.16-.54l-.04-.27.1-.16Z" fill="#DCC69B"/><path d="M7.41 4.4a.46.46 0 0 1-.15-.17c-.1-.19.02-.43.15-.57a.16.16 0 0 0 .09-.05l.02-.02a.7.7 0 0 0 .11-.04.75.75 0 0 1 .11-.05c.13-.04.28-.1.42-.1h.38c.11 0 .2.04.31.05l.29.01c.1 0 .2.03.29.04v.01c.09 0 .15.03.25.05l.13.06c.02.01.03.03.02.05l-.01.03h-.03l-.44-.04h-.02v-.01h-.01a133.52 133.52 0 0 0-.83 0 .7.7 0 0 1-.2 0l-.15.02a.34.34 0 0 0-.2.06h-.02c-.1.01-.14.08-.2.13-.03.02-.07.02-.1.05l-.02.01-.03.01a.35.35 0 0 1-.15.07L7.4 4a.23.23 0 0 0-.02.14c0 .02 0 .02-.01.01h-.01v.14l.01.03.04.07Z" fill="#CB9D6A"/><path d="m6.36 3.55.04.27.02.1a5.32 5.32 0 0 0 .14.44V4.45c.03.04.04.08.05.12v.02c.01 0 .02 0 .02.02 0 .06.02.12.06.17l.1.14c.09.16.22.27.39.34l.12.03c.07 0 .11.01.13.03.06.03.25.1.3.02l.02-.01h.03a.27.27 0 0 0 .03-.02.16.16 0 0 1 .15-.04l-.06.04c-.12.06-.34.2-.4.3a.48.48 0 0 1-.07.1l-.01.02c0 .05-.03.09-.06.12-.05.04-.06.07-.09.11a.33.33 0 0 1-.14.09.4.4 0 0 1-.17-.19 2.02 2.02 0 0 1-.15-.4.34.34 0 0 0-.07-.15 7.54 7.54 0 0 0-.13-.17.67.67 0 0 1-.14-.23 2.34 2.34 0 0 1-.1-1.36Z" fill="#D6AE79"/><path fill-rule="evenodd" d="M9.93 4.31c.22-.04.54-.1.65-.26a.55.55 0 0 0 .02-.19l-.01-.02a.74.74 0 0 0-.36-.2h-.01c-.07-.04-.13-.05-.2-.07a7.4 7.4 0 0 1-.2-.03c-.06 0-.12 0-.18-.02a9.97 9.97 0 0 0-.46-.1l-.56-.04c-.2-.02-.36 0-.54.02h-.01c-.06 0-.1.02-.16.03l-.09.02-.04.02a.26.26 0 0 1-.12.01h-.02a.19.19 0 0 1-.08.05l-.15.13a.16.16 0 0 0 .09-.05l.02-.02a.7.7 0 0 0 .11-.04 3.91 3.91 0 0 0 .2-.07c.1-.04.22-.08.33-.08h.38c.06 0 .12.01.17.03l.14.02.29.01a1.53 1.53 0 0 1 .3.04v.01a4.13 4.13 0 0 0 .24.05l.13.06c.02.01.03.03.02.05l-.01.03h-.03l-.44-.04h-.02v-.01h-.01a133.49 133.49 0 0 0-.83 0 .7.7 0 0 1-.2 0 .3.3 0 0 0-.08.01h-.07a.34.34 0 0 0-.2.07h-.02c-.08.01-.12.05-.16.09a.65.65 0 0 1-.05.04l-.03.02a.13.13 0 0 0-.05.03h-.01l-.02.01-.03.01a.35.35 0 0 1-.15.07L7.4 4a.23.23 0 0 0-.02.14c0 .02 0 .02-.01.01h-.01v.14l.01.03.04.07h.02a.2.2 0 0 1 .08.04l.04.02a2.93 2.93 0 0 0 .3.06c.1.02.3.06.39.02a1.12 1.12 0 0 0 .06-.03c.06-.06.17-.07.28-.09l.16-.02.1-.02h.06l.07-.01c.08 0 .16-.01.22-.05l.03-.01c.06 0 .15 0 .2-.05l.03-.03c.02-.03.04-.05.07-.06l.03-.01.02-.02a.25.25 0 0 0 .08-.09l.02-.01.12-.04.02-.01.02-.02.02-.01.18-.06h.04c.08.01.18.09.16.18l-.04.08c-.01.02-.02.03-.04.03h-.02l-.08.05h-.02c-.06 0-.1.01-.14.06l-.02.01-.19.01-.02.01v.01a.36.36 0 0 1 .17-.01l.1-.02Zm-.25-.34a4.35 4.35 0 0 1 .23-.09c0-.01 0-.02-.02-.02h-.13a2.99 2.99 0 0 0-.73-.08 5.08 5.08 0 0 0-.78-.02c-.18.02-.29.1-.4.2l-.08.07c-.03.02-.03.03-.03.06l.15.07.12.03h.06l.13.02h.1c.23.03.5-.03.76-.09l.24-.05c.14-.02.26-.06.38-.1Z" fill="#D6AE79"/><path d="m7.74 4.09.15.07c.06.03.12.02.18.03l.24.03c.3.03.68-.09.99-.15.23-.04.4-.12.6-.18h.04v.02l-.33.13-.03.01c-.03.04-.08.05-.12.07l-.09.06a.27.27 0 0 1-.1.03.56.56 0 0 0-.22.07h-.02c-.03 0-.05.01-.07.03l-.02.01c-.07 0-.14 0-.21.02-.09.02-.16.04-.25.04-.1 0-.16 0-.19.02a.33.33 0 0 1-.28 0h-.03c-.08 0-.16 0-.24-.03l-.01-.01c0-.01-.01-.02-.02-.01h-.02v-.01a.13.13 0 0 1-.02-.05v-.02c.06-.04.07-.09.04-.15 0-.02 0-.03.03-.03Z" fill="#DCC69B"/><path d="m9.83 4.33-.25.05a4.52 4.52 0 0 1-.54.12c-.07.01-.15 0-.23.02-.26.07-.55.12-.81.07a1.37 1.37 0 0 1-.57-.18c.05 0 .08.03.12.05a2.93 2.93 0 0 0 .3.06c.1.02.3.06.39.02a1.12 1.12 0 0 0 .06-.03c.1-.09.3-.08.44-.11l.1-.02.13-.01c.08 0 .16-.01.22-.05l.03-.01c.06 0 .15 0 .2-.05.03-.03.05-.08.1-.09l.03-.01c.03-.03.08-.06.1-.1 0-.01 0-.02.02-.02L9.79 4l.02-.01.02-.02.02-.01.18-.06h.04c.08.01.18.09.15.18 0 .03-.01.05-.03.08-.01.02-.02.03-.04.03h-.02l-.08.05h-.02c-.06 0-.1.01-.14.06l-.02.01-.19.01-.02.01v.01a.36.36 0 0 1 .17-.01Z" fill="#CB9D6A"/><path d="m10.18 5.1.08.06.08.06a18.8 18.8 0 0 0 .12.13l.1.08c.06.05.07.1.09.15 0 .01 0 .02.02.02.04.02.08.04.13.04h-.32a.14.14 0 0 0-.1-.03l-.03-.01c-.1-.06-.22-.03-.33-.04a.84.84 0 0 0-.41.06.18.18 0 0 1 .11-.06h.02l.01-.02V5.5a.37.37 0 0 0-.2-.08l-.12.03c-.1.04-.15.04-.25-.03-.04-.03-.07-.08-.13-.1l-.02-.02c-.1-.1-.21-.2-.34-.27l-.03-.01a.25.25 0 0 1-.17-.07v-.01c.04 0 .06-.02.07-.05.37-.09.76-.09 1.13.03.14.05.33.1.46.2h.03V5.1Z" fill="#D6AE79"/><path d="M8.56 4.9c-.01.02-.03.03-.06.04-.02 0-.02 0 0 .01.04.05.1.07.16.07h.03c.13.08.24.17.34.28l.02.01c.06.03.09.08.13.11.1.07.15.07.25.03l.12-.03c.06 0 .13.04.2.08v.06h-.03a.18.18 0 0 0-.11.06c-.08.02-.1.14-.08.2 0 .02 0 .03-.03.03l-.29.11-.42.1a.45.45 0 0 1-.22 0h-.03l-.09-.17c.17-.03.33-.04.49-.04.02 0 .04-.01.06-.04.02-.01.03-.04.02-.08V5.7a.38.38 0 0 0-.31-.14c-.12 0-.26 0-.38.02l-.16.04h-.1l-.01.01h-.01l-.03.01-.07.07h-.02a.1.1 0 0 0-.07.04.02.02 0 0 1-.03 0v-.01c-.01-.02-.03-.03-.05-.02h-.03l-.1-.06-.01-.02a.04.04 0 0 1 0-.05.29.29 0 0 0 .12-.12l.01-.01c.08 0 .1-.08.19-.05A.05.05 0 0 0 8 5.4l.02-.02v-.02c0-.07-.04-.09-.12-.06l.06-.04.09-.05c.01-.02-.01-.06-.07-.13.04-.04.1-.04.15-.06.13-.07.28-.11.43-.14Z" fill="#CB9D6A"/><path d="M8.13 5.63a.33.33 0 0 0-.1.05c-.08.05-.23.15-.25.25-.01.12.11.2.22.15.15-.08.3-.14.45-.19l.1.16.02.02h.22a35.16 35.16 0 0 1-.27.09c-.08.02-.16.02-.24.05l-.24.06-.2.06a.5.5 0 0 0-.13.06.8.8 0 0 0-.28.17.45.45 0 0 0-.08-.1c-.06-.04-.06-.09-.08-.16-.02-.07 0-.13 0-.2 0-.04.03-.06.06-.07l.02-.01a.13.13 0 0 0 .01-.07c0-.05-.01-.05-.04 0l-.05.01c.03-.04.04-.07.09-.1a.18.18 0 0 0 .06-.13l.01-.02a.48.48 0 0 0 .07-.1c.06-.1.28-.24.4-.3.08-.03.12 0 .12.06v.02L8 5.41a.05.05 0 0 1-.04 0c-.09-.02-.11.05-.19.06h-.01a.29.29 0 0 1-.11.13l-.01.01a.04.04 0 0 0 .01.06l.1.06h.03c.02 0 .04 0 .04.02h.01l.01.01a.02.02 0 0 0 .02 0 .1.1 0 0 1 .07-.03l.02-.01.07-.07h.03l.02-.01c.01-.02.03-.02.06 0Z" fill="#B08058"/><path d="M10.8 5.64c.16.03.3.04.36.22l-.05.2h-.02L11.01 6h.05v.01a.02.02 0 0 0 .02 0h.01a.16.16 0 0 0 .01-.18l-.02-.01-.19-.05c-.05 0-.11-.03-.17-.02a6.1 6.1 0 0 1-.53.1.4.4 0 0 0-.13.04c-.15.08-.32.03-.45.06a.64.64 0 0 0-.22.11l-.03.01-.03.02-.03.01a.2.2 0 0 0-.09.04l-.02.01h-.12a.43.43 0 0 0-.27 0l-.14.03a.7.7 0 0 1-.3.07c-.07 0-.16.05-.24.06l-.42.08a.5.5 0 0 1 .13-.06l.2-.06.24-.06c.08-.03.16-.03.24-.05l.15-.05.54-.15.3-.1.02-.04c-.01-.06 0-.18.08-.2a.84.84 0 0 1 .41-.06c.11 0 .24-.02.33.04h.03c.04 0 .07.02.1.04h.32ZM9 5.8c.01-.02.01-.04-.01-.06h-.03a.1.1 0 0 1-.04-.01.74.74 0 0 0-.33-.07 6.4 6.4 0 0 0-.56.02.33.33 0 0 1 .1-.05h.04l.16-.04c.12-.03.26-.02.38-.02s.22.04.3.14l.01.02c.01.04 0 .07-.02.08Z" fill="#827B62"/><path d="M9 5.8c-.02.04-.04.05-.06.05-.16 0-.32.01-.49.04-.15.05-.3.11-.45.19-.11.05-.23-.03-.22-.15.02-.1.17-.2.25-.25a1.18 1.18 0 0 0 .32 0l.03-.01.2-.01c.13 0 .23.02.34.07a.1.1 0 0 0 .04 0l.02.01c.03.02.03.04.02.07ZM9.53 5.71h.01a6.45 6.45 0 0 1 .58-.04l.06.01c0 .02-.02.02-.05.04l-.13.03a3.92 3.92 0 0 1-.44.07h-.01l-.02-.1Z" fill="#284952"/><path d="M11.02 6c-.07-.11-.17-.15-.3-.1v.02l.07.1a.03.03 0 0 1 0 .03l-.01.01-.02.01c-.16 0-.3-.12-.44-.1l-.66.1c-.14.02-.27.06-.39.14-.13.06-.19.16-.16.3a1.63 1.63 0 0 1 .02.52l-.01.02a.06.06 0 0 0-.03.05c-.07.1-.1.17-.24.23v.02a.46.46 0 0 0-.1.07.47.47 0 0 1-.2.11c-.1.03-.32.05-.4.03a2.42 2.42 0 0 1-.67-.29c-.06-.03-.18-.1-.24-.07a.71.71 0 0 1-.24.05.03.03 0 0 0-.02.02v.01a5.04 5.04 0 0 1 .05.8c-.06-.12-.07-.27-.07-.4l-.02-.14c0-.1-.03-.17 0-.27v-.02l-.03-.02a.72.72 0 0 0-.12-.07c-.15-.07-.04-.19.05-.25h.12L7 6.88l.04-.02c.05-.04.13-.05.17-.09l.23-.22a.8.8 0 0 1 .28-.17l.42-.08c.08 0 .17-.06.24-.06.1 0 .2-.02.3-.07.03-.01.1-.01.14-.03a.43.43 0 0 1 .27 0h.15a.2.2 0 0 1 .08-.05h.03a.05.05 0 0 1 .03-.03h.03c.09-.07.16-.1.22-.12.13-.03.3.02.45-.06a.4.4 0 0 1 .13-.04l.53-.1c.06-.01.12.02.17.02.07 0 .12.04.19.05l.02.01c.03.06.03.12 0 .18h-.02a.02.02 0 0 1-.02 0c-.01-.02-.03-.02-.05-.01Z" fill="#2A261A"/><path d="m11.02 6 .06.06c.08.12.1.31.13.45 0 .03 0 .1.02.13a.7.7 0 0 1 .03.22c0 .03.02.04.05.03.2-.04.44.12.52.28.12.23.12.55-.05.78a.7.7 0 0 1-.6.29c-.03 0-.06-.02-.1-.07l.03-.09h-.01a.07.07 0 0 0-.03.04c0 .01 0 .02-.02.02s-.03-.01-.03-.03c-.02-.11 0-.22.04-.33.05-.13-.05-.28-.16-.35h-.02l-.02-.01-.22-.15c.11-.08.2-.17.24-.3a.77.77 0 0 0-.07-.55c-.21-.27-.5-.34-.84-.21a.73.73 0 0 0-.3.22c-.03.05-.03.1-.03.16l-.03.1c-.03.08.02.18.04.27l-.03-.04v.03a3.4 3.4 0 0 1-.1-.33.79.79 0 0 0-.15-.24c.03.02.05.02.06 0v-.03l-.01-.02c-.06-.04-.08-.07-.16-.06h-.01v-.02a.1.1 0 0 1 .02-.04c.12-.08.25-.12.4-.14l.65-.1c.14-.02.28.1.44.1h.02a.04.04 0 0 0 .01-.04v-.02l-.07-.08a.02.02 0 0 1 0-.02V5.9c.13-.05.23-.01.3.1Z" fill="#CB9D6A"/><path d="m7.43 6.56-.23.22c-.04.04-.12.05-.17.09a.38.38 0 0 1-.04.02l-.03.01h-.12l-.07.01.12-.06.02-.01c.05 0 .08-.02.08-.05l.16-.7c0-.02 0-.04-.02-.04.05-.02.1-.05.14-.09.03 0 .05-.01.05-.02.03-.04.04-.04.04.01l-.01.07-.02.01c-.03.01-.06.03-.06.06 0 .08-.02.14 0 .21.02.07.02.12.08.17.03.02.05.05.08.1Z" fill="#826541"/><path d="M10.81 6.42c0 .04-.02.07-.05.07a.4.4 0 0 1-.1 0c-.07 0-.07-.04-.13-.05a.34.34 0 0 0-.36-.03.35.35 0 0 1-.16-.06.06.06 0 0 1-.02-.03.06.06 0 0 0-.03-.03h-.01v-.02c0-.02 0-.04.02-.06.34-.13.62-.06.84.21Z" fill="#FBE6BD"/><path d="M9.27 6.2a.1.1 0 0 0-.03.05.01.01 0 0 0 0 .01h.01c.08 0 .11.03.17.07l.01.02v.03c-.01.02-.03.02-.06 0a.21.21 0 0 0-.1-.03h-.02l-.01.01c-.02.03-.01.05 0 .07l.02.02.01.1c0 .05.02.1.04.14v.02l-.01.35v.01c-.06.1-.1.2-.1.31v.02l.08.1.01.01c.07.02.13.06.19.1.02.02.06.03.13.04l.02.02.09.08c.06.03.1.09.13.15l.02.02a.02.02 0 0 0 .03 0 .41.41 0 0 0-.07-.24c-.1-.15-.14-.32-.16-.5 0-.04-.02-.12-.06-.23v-.03h.01l.03.04c.09.25.28.39.57.41.15.02.29-.02.42-.1l.22.15h.04c.11.08.21.23.16.36a.65.65 0 0 0-.04.33c0 .02.01.03.03.03.01 0 .02 0 .02-.02s.01-.03.03-.05v.01l-.02.1c-.19.52-.36 1-.8 1.34-.1.07-.27.15-.3.27 0 .04-.04.12-.02.17l-.05.01h-.07c-.01 0-.02 0 0-.01v-.04h.02a.1.1 0 0 0 .05-.06v-.02l-.01-.02-.01-.02c-.09 0-.12.05-.19.08h-.02l-.03.01-.02.01-.21.02-.17.02a.6.6 0 0 1-.23-.05C9 9.87 8.98 9.85 9 9.82l.02-.01c.16 0 .22-.08.33-.17a.47.47 0 0 0 .05-.07c.02-.03.07-.05.09-.07a4.77 4.77 0 0 0 .25-.23h.03c.02.02.04.01.06 0h.04c.04 0 .09 0 .13-.03.02-.02.02-.03-.01-.03-.08 0-.17.03-.24.02l-.2-.03H8.61c-.08 0-.14-.02-.22-.04l-.01-.01c0-.02-.01-.02-.03-.02a.31.31 0 0 1-.08-.06c-.03-.02-.03-.04-.01-.06a.03.03 0 0 1 .03 0c.05.03.1.03.13.04l.06.02c.13.02.27.05.4.01.06-.01.13-.03.2-.03.06 0 .13.02.2 0a.8.8 0 0 1 .2-.03h.19a2.86 2.86 0 0 0 .38-.1l-.01-.01-.03-.01c-.3.03-.6.03-.88 0-.2-.03-.4-.03-.57-.05l-.08-.02-.01-.01V8.8l.03-.02h.26v.01c.12.02.22.05.33.05a34.83 34.83 0 0 0 .39-.02.1.1 0 0 0 .05-.05.86.86 0 0 1 .07-.18v-.02l.01-.03.02-.01.17-.02-.04.01v.01a.02.02 0 0 0 0 .02l.28.02c.06 0 .12.02.18.04.02 0 .03.01.03.02l.07.05a.02.02 0 0 0 .02 0 .02.02 0 0 0 0-.03.19.19 0 0 0-.12-.12c-.16-.05-.26-.03-.41-.03l.26-.03h.01v-.01h.01v-.02c-.04 0-.05-.02-.05-.05l-.01-.03a.3.3 0 0 0-.14-.08v.01a.01.01 0 0 1-.02 0 .64.64 0 0 0-.1-.05.03.03 0 0 1-.03-.02h-.01c-.05 0-.09 0-.13-.02a.32.32 0 0 0-.09-.02l-.1.01c-.07.02-.2 0-.38-.02C9 8.17 8.98 8.14 9 8.1L9 8.08l.06-.04.03-.02.07-.07.03-.01c.07 0 .14 0 .22-.03a.14.14 0 0 0 .05-.04l.02-.01h.02l.01.01h.06l.02-.02c-.01-.02-.02-.03-.04-.03l-.01-.01-.01-.01c-.04 0-.07-.03-.1-.04a.27.27 0 0 1-.07-.04h-.02c-.03 0-.05-.01-.07-.03l-.03-.01a.06.06 0 0 1-.04-.02l-.02-.02c-.06-.03-.04-.1-.12-.11l-.02-.02a.08.08 0 0 0-.05-.04h-.01v-.02a.15.15 0 0 1 .01-.11L9 7.31l.03-.07a.31.31 0 0 0 .06-.14c0-.03 0-.04.03-.05l.01-.02.02-.08c0-.12 0-.26-.04-.44-.03-.14.03-.24.16-.3Z" fill="#B08058"/><path d="m9.97 6.21-.03.06v.01l.02.01.03.03.02.03c.05.03.1.05.16.06a.37.37 0 0 0-.22.26c-.05.22.11.4.34.37.11 0 .2-.07.27-.16.1-.12.06-.31-.03-.44.06.01.06.05.12.06a.4.4 0 0 0 .11 0c.03-.01.05-.04.05-.08.1.17.11.35.07.54-.03.14-.13.23-.24.31a.66.66 0 0 1-.42.1c-.3-.02-.48-.16-.57-.41-.02-.1-.07-.19-.04-.27a.56.56 0 0 0 .03-.1c0-.06 0-.11.04-.16.07-.1.17-.17.3-.22Z" fill="#DCC69B"/><path d="M9.37 6.38c.08.11.14.19.15.24.02.1.05.22.1.33l.06.23c0 .18.06.35.15.5.05.08.07.14.08.23v.01H9.9a.02.02 0 0 1-.02 0h-.01l-.02-.02a.35.35 0 0 0-.13-.15.32.32 0 0 1-.09-.08l-.02-.02a.37.37 0 0 1-.13-.04.61.61 0 0 0-.19-.1h-.01l-.07-.1-.01-.03a.74.74 0 0 1 .1-.32l.01-.35V6.7a.4.4 0 0 1-.04-.14l-.01-.1-.02-.02c-.01-.02-.02-.04 0-.07l.02-.01c.03 0 .07 0 .1.03Z" fill="#D6AE79"/><path d="M10.53 6.44c.1.13.14.32.03.44-.08.09-.16.15-.27.16-.23.02-.39-.15-.34-.37.03-.12.1-.2.22-.26a.34.34 0 0 1 .36.03Z" fill="#2A261A"/><path d="M10.3 6.75c.04 0 .07-.03.07-.07a.06.06 0 0 0-.07-.06.06.06 0 0 0-.06.06c0 .04.03.07.06.07Z" fill="#DCC69B"/><path d="M6.84 6.9c-.09.07-.2.2-.05.26.05.02.09.04.12.07.01 0 .02 0 .02.02v.02c-.02.1 0 .18 0 .27 0 .05.02.1.03.14 0 .13.01.28.07.4h.01A5.05 5.05 0 0 0 7 7.24H7c.07 0 .15-.02.23-.04.06-.03.18.04.23.07.18.1.45.25.67.3.09.01.3 0 .4-.04.1-.02.16-.06.21-.1a.46.46 0 0 1 .1-.08v-.02c.14-.06.17-.13.24-.23a.31.31 0 0 1-.06.14.12.12 0 0 0-.03.07v.03a.15.15 0 0 0-.03.11l.01.02h.01l.05.04.02.02c.08.02.06.08.12.1l.02.03.04.02.03.01c.02.02.04.03.07.02l.02.01.07.04c.03.01.06.04.1.04l.01.02h.01c.02 0 .03.01.04.03 0 0 0 .02-.02.02h-.06l-.03-.01-.02.01a.14.14 0 0 1-.05.04.39.39 0 0 1-.22.03h-.03l-.07.08-.03.02-.06.04L9 8.1c-.01.04 0 .07.05.08a1.18 1.18 0 0 0 .48.01l.1.02c.03.01.07.02.12.01l.01.01.02.02a.64.64 0 0 1 .12.06l.01-.01v-.01c.05.01.1.04.14.08v.03c0 .03.02.05.05.05l.01.01v.02h-.02l-.26.03-.18.03-.02.01v.03l-.01.02a.86.86 0 0 0-.07.18.1.1 0 0 1-.05.05 34.83 34.83 0 0 1-.39.02c-.11 0-.21-.03-.32-.05h-.01a7.32 7.32 0 0 0-.28 0l-.01.02.09.03c.18.02.37.02.57.05a3.57 3.57 0 0 0 .91.01v.01l-.37.1H9.5a.8.8 0 0 0-.2.03c-.07.02-.14 0-.2 0-.07 0-.14.02-.2.03-.13.04-.27 0-.4 0l-.06-.03c-.04-.01-.08-.01-.13-.04a.03.03 0 0 0-.03 0c-.02.02-.02.04 0 .06.03.03.06.05.1.06 0 0 .02 0 .02.02h.01c.08.03.14.05.22.05H9.54c.07 0 .14.02.2.03L10 9.2c.03 0 .03 0 0 .03a.15.15 0 0 1-.12.02.04.04 0 0 0-.04 0 .07.07 0 0 1-.06.02.05.05 0 0 0-.05 0l-.23.22c-.02.02-.07.04-.09.07a.47.47 0 0 1-.05.07c-.1.1-.17.17-.33.17H9c-.02.04 0 .06.02.08a.6.6 0 0 0 .23.05l.17-.02a84.6 84.6 0 0 0 .23-.03h.05c.07-.04.1-.09.19-.09l.01.02v.02l.01.02a.1.1 0 0 1-.05.05l-.01.01v.02l-.01.02c-.01 0-.01.01 0 0l.07.01c-.35.2-.8.19-1.18.08-.17-.05-.32-.09-.47-.16a.53.53 0 0 0-.13-.03 3.87 3.87 0 0 1-.04-.17c-.02-.08-.2-.14-.25-.2l-.24-.3c-.18-.26-.4-.58-.49-.84 0-.01 0-.02-.02-.03l-.02-.01a.07.07 0 0 0-.06 0c-.19.11-.48-.08-.62-.2-.22-.22-.2-.53-.14-.8 0-.04.02-.07.04-.1l.05-.04c.1-.13.28-.2.43-.26h.07Z" fill="#98724A"/><path d="M11.6 7.56c.1-.17-.06-.26-.18-.36v-.02h.01a.03.03 0 0 1 .03 0 .91.91 0 0 1 .23.27v.01c-.04.11-.13.3-.26.33-.02 0-.03 0-.04-.02v-.02c0-.01 0-.02.02-.02.13 0 .15-.1.2-.17Z" fill="#826541"/><path d="M6.44 7.58a.32.32 0 0 0 .33.3h.01v.01c0 .01-.01.02-.03.02a.32.32 0 0 1-.24-.1l-.08-.12v-.02c-.02-.05-.05-.1-.04-.14 0-.13.2-.25.33-.3h.01v.01l.01.02-.01.01a.66.66 0 0 0-.25.2.16.16 0 0 0-.04.1ZM9.67 8.08v.01h-.02c-.02 0-.03 0-.04-.02a.1.1 0 0 1-.03-.02.08.08 0 0 1-.01-.03v-.04s0-.02.02-.03l.03-.02h.07a.02.02 0 0 1 .02 0 .01.01 0 0 1 0 .02l-.04.13Z" fill="#2A261A"/><path d="M9.24 8.62H9.02L9 8.6 9 8.59a.05.05 0 0 1 0-.04c.04-.09.33-.05.4-.03h.01a.02.02 0 0 1 0 .02.05.05 0 0 1-.03.04c-.05 0-.1.02-.14.03Z" fill="#826541"/><path d="M9.81 8.52c.16-.01.26-.03.42.02.06.02.1.06.13.12a.02.02 0 0 1 0 .02h-.02a.13.13 0 0 1-.08-.04l-.03-.02-.18-.04a9.14 9.14 0 0 0-.3-.03h.01l.01-.02.04-.01Z" fill="#CB9D6A"/><path d="M8.13 9.86c.07 0 .11.02.13.03.15.07.3.11.47.16.38.11.83.13 1.18-.08h.05c.06.02.09.03.09.05a.43.43 0 0 0 0 .33c0 .02.02.04.07.07v.07a1.78 1.78 0 0 1-.19-.19.29.29 0 0 0-.1-.08c-.3-.13-.33.34-.14.39v.01l-.02.01-.27.04c-.01 0-.02 0-.02-.02v-.03c.1-.14-.05-.24-.18-.26-.04 0-.08 0-.12.02-.12.07-.12.16-.02.29a.97.97 0 0 1-.36-.03c-.02 0-.02 0-.02-.02l.01-.04a.28.28 0 0 0-.01-.26c-.06-.07-.2-.1-.27-.04-.1.06-.12.15-.18.25a.22.22 0 0 0-.02.12v.02a5 5 0 0 0-.24.23.23.23 0 0 1-.13.06l-.01.01-.02.02c-.22.07-.4.06-.62.06h-.02a.03.03 0 0 1 0-.02v-.14l.38-.06c.26-.03.45-.16.56-.38a.16.16 0 0 0 .05-.1c.03-.08.01-.16-.06-.22h-.02a.36.36 0 0 0-.23.04c-.07.04-.08.02-.04-.04l.06-.03.01-.01v-.02l-.02-.02-.2.01h-.03c-.05.03-.1.04-.13.01l.2-.07c.11-.02.2-.08.31-.08h.02l.1-.06Z" fill="#2A261A"/><path d="M10.05 10.02a3.6 3.6 0 0 1 .48.14.05.05 0 0 1-.02.06l-.39.2-.08-.07a.43.43 0 0 1 0-.33Z" fill="#DCC69B"/><path d="M8.16 10.36c0-.04 0-.07-.04-.07-.1-.02-.2-.01-.3 0-.09.02-.17.07-.27.09 0-.03.03-.07.1-.13l-.01-.01-.13-.05a.07.07 0 0 1-.04-.02.06.06 0 0 1-.01-.03c0-.04.01-.06.04-.07.04.03.08.02.13 0l.03-.01h.22v.03h-.01a.26.26 0 0 0-.06.04c-.04.06-.03.08.04.04a.36.36 0 0 1 .23-.05l.02.01c.07.06.1.14.06.23Z" fill="#827B62"/><path d="M10.12 10.5c.04.02.04.06.02.1l-.02.01-.07.02a.03.03 0 0 0-.01.01v.02c.1.18.45.31.63.32a13.63 13.63 0 0 0 .42 0l.03-.04a.15.15 0 0 1 .09-.1c.08 0 .12 0 .12.04.02.1.04.21.04.31v.45c-.03-.1-.14-.1-.22-.1-.11 0-.2-.06-.32-.04a.4.4 0 0 1-.13 0 .74.74 0 0 1-.26-.12c-.02-.02-.02-.03-.02-.05l-.01-.02-.38-.4v-.02l-.01-.03-.02-.02-.05-.14v-.07l-.05-.02h-.21c-.19-.05-.15-.52.15-.4l.1.09.18.2Z" fill="#D6AE79"/><path d="M8.68 10.32c-.07-.01-.12 0-.16.03l-.02.01c-.05 0-.09.08-.11.11l-.02.02a.18.18 0 0 0-.14.16l.01.02a.03.03 0 0 0 .03 0 .9.9 0 0 1 .33-.03c.03 0 .06-.02.1-.06l-.02.04c0 .01 0 .02.02.02.11.03.23.04.36.03.04.02.07.07.1.12a.03.03 0 0 1-.01.03 14.55 14.55 0 0 0-.32.22c-.08.05-.14.11-.2.17l-.03.02h-.02c-.2.16-.4.3-.57.5-.02.02-.06.04-.13.05l-.02.02a.1.1 0 0 1-.04.03c-.01 0-.02 0-.03.02-.03.05-.05.1-.04.16.02.06.02.12.01.18v.02a.2.2 0 0 1 .03.07l-.02-.01h-.01a.82.82 0 0 1-.3-.26 2.4 2.4 0 0 0-.1-.13c-.08-.1-.17-.18-.2-.31a1.76 1.76 0 0 1 0-.62v.08a.03.03 0 0 0 .01.02h.02c.22 0 .4.01.62-.06l.02-.02h.01c.05-.01.1-.04.13-.07a4.95 4.95 0 0 1 .24-.25c0-.04 0-.08.02-.12.06-.1.08-.19.18-.25.08-.06.2-.03.27.04Z" fill="#826541"/><path d="M8.16 10.36c0 .04-.02.07-.05.1a3.46 3.46 0 0 0-.5-.03c-.03 0-.06-.02-.06-.05.1-.02.18-.07.27-.09.1-.01.2-.02.3 0 .03 0 .05.03.04.07ZM8.68 10.32c.04.08.05.17.01.26-.03.04-.06.06-.1.06a.9.9 0 0 0-.34.03l-.01-.01v-.01a.18.18 0 0 1 .13-.16l.02-.02c.02-.03.06-.1.1-.1l.03-.02c.04-.03.1-.04.16-.03Z" fill="#D6AE79"/><path d="M9.2 10.36a.67.67 0 0 0-.04.21c0 .03 0 .06.02.08v.03l.03.13v.01l.01.01a.03.03 0 0 0 .02 0c.1-.02.11-.14.14-.21v.03c0 .02 0 .02.02.02l.28-.04.01-.01v-.01h.02l.05.02v.01c-.01.07-.03.23.02.3l.08.07c.03.04.04.09.03.15-.01.1.07.19.16.24.04.03.04.06.02.09l-.02.01h-.07l-.1.06c-.08.04-.16.14-.14.23 0 .04.05.08.07.12.04.06.1.1.08.18a.48.48 0 0 1-.08.15c-.02.04-.03.08-.06.11v.17c0 .08.05.24.11.29l.1.04c.06.02.1.06.09.11l-.35.1a.68.68 0 0 1-.22.03.9.9 0 0 1-.42-.12 3.06 3.06 0 0 1-.13-.08c-.2-.12-.42-.22-.63-.32-.16-.07-.3-.16-.46-.24l-.08-.06h.03v.01a.2.2 0 0 0-.02-.07l-.01-.02V12c-.02-.07 0-.1.03-.16l.03-.02.04-.03.02-.02c.07-.01.1-.03.13-.06.17-.18.37-.33.57-.48l.02-.01c.01 0 .02 0 .03-.02.06-.06.12-.12.2-.17a14.55 14.55 0 0 1 .32-.22.03.03 0 0 0 0-.03.27.27 0 0 0-.1-.12c-.1-.13-.09-.22.03-.29a.16.16 0 0 1 .12-.02Z" fill="#B08058"/><path d="M9.2 10.36c.13.02.29.12.18.26-.03.07-.04.19-.14.21a.03.03 0 0 1-.03 0v-.02l-.02-.13-.01-.03a.13.13 0 0 1-.02-.08c0-.08.01-.15.04-.21Z" fill="#DCC69B"/><path d="M9.71 10.61a.9.9 0 0 1 .19 0l.04.02.01.04v.03l.05.14c0 .01 0 .02.02.02v.05l.4.4v.02c0 .02 0 .03.02.05.08.05.17.1.26.12a.4.4 0 0 0 .13 0c.12-.02.2.03.32.04.08 0 .2 0 .21.1-.06.26-.18.39-.33.57a.44.44 0 0 1-.1.1c-.18.1-.31.24-.46.37-.12.12-.28.19-.42.28 0-.05-.03-.09-.1-.1a.32.32 0 0 1-.09-.05c-.06-.05-.12-.2-.12-.29a17.89 17.89 0 0 0 .01-.17c.03-.03.04-.07.06-.11.04-.05.07-.1.08-.15.03-.08-.04-.12-.08-.18-.02-.04-.06-.08-.07-.12-.02-.09.06-.19.14-.23l.1-.05h.07l.02-.02c.02-.03.02-.06-.02-.09-.09-.05-.17-.14-.16-.24.01-.06 0-.11-.03-.15l-.08-.08c-.05-.06-.03-.22-.01-.29l-.01-.01-.05-.02Z" fill="#CB9D6A"/><path d="M6.93 10.64h-.1l-.01.02a.04.04 0 0 0 0 .04c.01.06.03.13.09.16.05.04.11.03.17-.02a.02.02 0 0 1 .03 0c.03.01.05.03.06.05v.06c-.04.24-.05.43-.01.62l-.08-.05h-.03a.3.3 0 0 1-.13-.02H6.9a.42.42 0 0 0-.12.06l-.01.02c0 .25-.01.45-.1.67-.04.08-.05.16-.07.24-.02.1-.02.18.04.25.1.1.13.22.12.34v.03c.02 0 .02.01.02.03 0 .05 0 .08-.02.13l-.01.02c-.02.13.02.26-.06.33l-.01.02c-.02.06-.07.08-.1.15l-.01-.43-.14-.99a.74.74 0 0 1 0-.23c.04-.18.04-.34.05-.52.01-.18.05-.4.05-.62.03-.12.06-.24.15-.33.06-.07.18-.05.26-.03Z" fill="#D6AE79"/><path d="M6.93 10.64h.28a.4.4 0 0 1 .19.03c.07.03.12.09.15.16l-.38.06a.15.15 0 0 0-.06-.05.02.02 0 0 0-.03 0c-.06.05-.12.06-.17.02-.06-.03-.08-.1-.1-.16a.04.04 0 0 1 0-.04.05.05 0 0 1 .04-.02h.08Z" fill="#827B62"/><path d="M12.04 11.31v.5c.02.27.02.54-.04.8v.12c0 .1-.04.19-.04.29v.47c-.02.18-.1.33-.15.51H7.04l.01-.05.03-.01c.04 0 .06 0 .1-.04a.44.44 0 0 1 .1-.08c.02 0 .02-.01.03-.02.03-.03.08-.05.11-.1.05-.08.08-.21.11-.3 0-.01 0-.02.02-.02.03-.02.04-.06.06-.08a.7.7 0 0 1 .16-.11c.07-.04.1-.08.16-.14.01 0 .02 0 .02-.02l.04-.06V12.83a7.16 7.16 0 0 1-.15-.5c.15.08.3.17.46.24.2.1.43.2.63.32l.13.08a.9.9 0 0 0 .42.12c.06 0 .13 0 .22-.03l.35-.1c.14-.1.3-.16.42-.28.15-.13.28-.26.47-.38a.44.44 0 0 0 .1-.09c.14-.18.26-.3.32-.57l.01-.45c0-.1-.02-.2-.04-.31 0-.04-.04-.05-.13-.03.05-.04.09-.06.12-.05.13.03.3.05.5.06.22 0 .2.32.22.45Z" fill="#FBE6BD"/><path d="M6.52 11c0 .21-.04.44-.05.62 0 .18 0 .34-.05.52a7.33 7.33 0 0 1-.29-.21c-.1-.08-.2-.1-.3-.14h-.01l-.01.01c-.02 0-.03 0-.03-.02H5.63c-.12.05-.19.13-.21.21a1.9 1.9 0 0 0-.02.56v.15l.01.02c.04.04.03.1.05.13.03.1 0 .2.03.3.05.2.04.38-.01.57l-.04.13V14H5.11l-.01-.03-.06-.42-.04-.7a1.71 1.71 0 0 1 .67-1.35c.18-.15.33-.25.45-.3l.4-.2Z" fill="#826541"/><path d="M12.04 11.31c.07.03.13.06.18.11.16.16.3.29.4.46l.07.23.15.7A7 7 0 0 1 13 14h-1.19c.05-.18.13-.33.16-.51v-.27c0-.03 0-.03 0 0l.05.17c0 .02.02.03.04.03l.08.02.03.02.08.05c.07.06.12.13.2.18.04.03.12.07.14.1l.01.02c.08.04.13 0 .19-.04l.02-.03.01-.04c-.03-.18.02-.42-.17-.54-.11-.08-.22-.18-.2-.32.01-.07.03-.13.07-.2l.08-.16a.37.37 0 0 0-.02-.24l-.02-.02a.03.03 0 0 1 0-.03l-.02-.03-.24-.2h-.03l-.02-.02a6.42 6.42 0 0 1-.13-.13c-.06-.05-.08-.06-.08 0v-.5Z" fill="#D6AE79"/><path d="M7.16 11.57c.03.13.12.21.2.31l.1.13c.07.1.17.2.3.26l.08.06c-.02 0-.02.02 0 .04l.01.02v.05l.14.39V12.97l-.04.06-.02.02c-.05.06-.09.1-.16.14a.7.7 0 0 0-.16.11c-.02.02-.03.06-.06.08l-.02.01c-.03.1-.06.23-.1.31-.04.05-.09.07-.12.1l-.02.02a.44.44 0 0 0-.12.08c-.03.03-.05.04-.1.04h-.02a.07.07 0 0 0 0 .06h-.47v-.21c.02-.07.07-.09.09-.15l.01-.02c.08-.07.04-.2.06-.33v-.02c.04-.05.03-.08.03-.13l-.01-.03-.01-.03a.45.45 0 0 0-.12-.34c-.06-.07-.06-.15-.04-.25.02-.08.03-.16.07-.24.09-.22.1-.42.1-.67l.01-.02a.41.41 0 0 1 .12-.06h.03a.3.3 0 0 0 .13.01h.03l.08.06Z" fill="#DCC69B"/><path d="m11.97 13.49-.01-.47c0-.1.04-.2.04-.3v-.12c.06-.25.06-.52.04-.8 0-.05.02-.04.08.01a6.18 6.18 0 0 0 .18.15l.24.2.01.03.01.03.02.02c.03.08.04.16.02.24l-.08.16a.58.58 0 0 0-.07.2c-.02.14.09.24.2.32.2.12.15.36.17.54v.04l-.03.03c-.06.03-.11.08-.19.04l-.01-.02c-.02-.03-.1-.07-.14-.1l-.2-.18-.08-.05-.03-.02-.08-.02a.05.05 0 0 1-.04-.03l-.04-.18c0-.02-.01-.02-.01 0v.28Z" fill="#CB9D6A"/><path d="M6.42 12.14a.74.74 0 0 0 0 .23c.05.31.1.63.14.99.02.14 0 .29.02.43V14H5.45v-.15l.04-.13c.05-.2.06-.38 0-.57-.02-.1.01-.2-.02-.3-.02-.03-.01-.09-.05-.13v-.02l-.01-.15a1.91 1.91 0 0 1 .02-.55c.02-.1.1-.17.2-.22h.14l.03.02h.01v-.01h.01c.12.04.21.06.31.14l.01.02.01.01.27.18Z" fill="#B08058"/></svg>