<!-- by TradingView --><svg width="18" height="18" viewBox="0 0 18 18" xmlns="http://www.w3.org/2000/svg"><path fill="url(#a0mkxkqi4)" d="M0 0h18v18H0z"/><path d="M11.66 4.75A4.74 4.74 0 0 0 9.22 4c-.95.88-.92 2.67 0 3.5a3.62 3.62 0 0 1 2.44-2.75Zm1.1.85c-1.42-.06-2.53 1.23-2.53 2.49a3.45 3.45 0 0 1 3.67-.2c-.18-1-.54-1.53-1.13-2.29ZM14 9.2c-.89-.94-2.63-.85-3.48.03 1.4.34 2.15.97 2.78 2.39.49-.8.7-1.38.7-2.42Zm-1.58 3.52c-.1-1.5-1.13-2.4-2.5-2.48.71 1.23.85 2.39.22 3.64.94-.25 1.49-.5 2.28-1.16ZM8.78 14c.92-.91.98-2.39 0-3.5a3.56 3.56 0 0 1-2.44 2.78c.85.51 1.4.63 2.44.72ZM5.3 12.4c1.48-.14 2.43-1.1 2.43-2.52-.91.72-2.46.82-3.67.28.34.98.6 1.5 1.24 2.24ZM4 8.78c.8.85 2.44.97 3.48 0a3.57 3.57 0 0 1-2.75-2.36A4.37 4.37 0 0 0 4 8.78Zm1.58-3.46c.22 1.51 1.05 2.33 2.5 2.45a3.73 3.73 0 0 1-.25-3.64c-1.04.25-1.6.6-2.25 1.2Z" fill="#F73737"/><defs><linearGradient id="a0mkxkqi4" x1="9" y1="0" x2="9" y2="18" gradientUnits="userSpaceOnUse"><stop stop-color="#221212"/><stop offset="1" stop-color="#311114"/></linearGradient></defs></svg>