<!-- by TradingView --><svg width="18" height="18" viewBox="0 0 18 18" xmlns="http://www.w3.org/2000/svg"><path fill="#F0F3FA" d="M0 0h18v18H0z"/><path d="m7.39 9.44 2.17 2.24c.26.26.26.7 0 .95L8.4 13.8a.66.66 0 0 1-.94 0L3.2 9.47a.68.68 0 0 1 0-.96L7.47 4.2a.66.66 0 0 1 .94 0l1.15 1.17c.26.26.26.69 0 .95L7.4 8.57a.6.6 0 0 0-.17.43c0 .16.05.31.17.44Zm4.52-1.72a.68.68 0 0 0 0-.95l-.44-.45a.66.66 0 0 0-.94 0l-2.15 2.2a.68.68 0 0 0 0 .96l2.15 2.19c.26.26.68.26.94 0l.44-.45a.68.68 0 0 0 0-.95l-1-.99a.41.41 0 0 1 0-.57l1-.99Zm.92.06-.88.75a.68.68 0 0 0 0 .96l.88.74c.13.13.38.2.55.2.17 0 .42-.07.55-.2l.87-.74a.68.68 0 0 0 0-.96l-.87-.75a.83.83 0 0 0-.55-.2.83.83 0 0 0-.55.2Z" fill="url(#arj5fb2y2)"/><defs><linearGradient id="arj5fb2y2" x1="3.01" y1="9" x2="14.98" y2="9" gradientUnits="userSpaceOnUse"><stop offset=".03" stop-color="#1D398C"/><stop offset=".21" stop-color="#1E3D8F"/><stop offset=".38" stop-color="#214997"/><stop offset=".55" stop-color="#255CA4"/><stop offset=".72" stop-color="#2C78B7"/><stop offset=".89" stop-color="#349BCE"/><stop offset="1" stop-color="#3BB7E1"/></linearGradient></defs></svg>