<!-- by TradingView --><svg width="18" height="18" viewBox="0 0 18 18" xmlns="http://www.w3.org/2000/svg"><path fill="url(#aqgql1tpx)" d="M0 0h18v18H0z"/><path opacity=".5" d="M12.76 15c-.45-.01-1.28-.2-1.27-.75 0-.09.02-.18.07-.29.4-.97 1.12-1.25 1.83-1.14.7.11.61-.66.4-.66-.03 0-.08 0-.14-.02a2.86 2.86 0 0 0-2.04.41c-.98.66-1.34.67-1.58-.2-.24-.87 1.1-.73 1.58-.52.48.2 1.15-1.11 1.3-1.76.03-.14.1-.34.19-.57.31-.85.8-2.17.03-2.77-.24-.15-.52-.2-.75-.23-.3-.05-.5-.08-.4-.31.2-.24.71-.75 1.26-.92.67-.22.82-.88.74-1.14-.08-.26-1.31-1.55-3.1-.99a3.4 3.4 0 0 0-1.27.65c.01.11 0 .25-.02.43-.14 1.1-.53 1.22-.9 1.28-.25.04-.4.16-.52.27l-.2.14a.7.7 0 0 1-.36.07c.36.4 1.13 1.5 1.31 2.62.24 1.47-.17 3.24-.54 4.85-.13.54-.25 1.06-.34 1.55h4.72Z" fill="url(#bqgql1tpx)"/><path opacity=".5" d="M7.02 5.26c-1.37.17-1.5-.62-1.4-1.04.16-.42 1.4-.33 1.74-.48.33-.15 1.1-.1 1.46-.18.38-.07.91-.44.77.66s-.53 1.22-.9 1.28c-.39.06-.52.31-.72.4a.7.7 0 0 1-.36.07c.36.41 1.13 1.5 1.31 2.63.32 1.96-.51 4.45-.88 6.4H4v-.6c.26-1.28 2.69-1.6 2.86-2.18.17-.59-.97-.62-2.1-1.53C4.21 10.27 4 9.3 4 8.36c0-1.08.3-2.14.75-2.3.86-.33 1.06.41 1.33.3.27-.1.28-.9.5-1 .2-.08.74 0 1.03-.05.3-.06.34.02.56-.05.23-.07.21-.2.65-.33.45-.14-.07-.55-.37-.7-.24-.14-.6.29-.74.51-.32 0-.15.52-.69.52Z" fill="url(#cqgql1tpx)"/><path d="M7.86 14.51 4 10.89v.12l3.6 3.55-.08.44h.17l.17-.49Z" fill="url(#dqgql1tpx)"/><path d="m7.52 15 .16-.47-2.74-2.59 2.27 2.62-.08.44h.39Z" fill="url(#eqgql1tpx)"/><path d="M6.88 10.66 5.05 9.18l1.52 1.59-.26 2.05.57-2.16Z" fill="url(#fqgql1tpx)"/><path d="m5.1 9.23 1.53 1.43-.23 1.4v-1.3L5.1 9.22Z" fill="url(#gqgql1tpx)"/><path d="M7.5 6.25C6.84 5.4 5.8 4.8 4.2 5.02 6.83 4.9 8.44 7.6 7.96 9.9L5.38 8.54l2.65 1.73-.64 2.89 1.26-2.9-.3-.15a4.75 4.75 0 0 0-.85-3.86Z" fill="url(#hqgql1tpx)"/><path d="M4.8 4.97c1.22.08 1.99.63 2.51 1.28 1.39 1.72.95 3.53.87 3.86l.26.16-.96 2.65-.06.17 1.23-2.82-.3-.16a4.75 4.75 0 0 0-.85-3.86 3.2 3.2 0 0 0-2.7-1.28Z" fill="url(#iqgql1tpx)"/><path d="M4 6.84c.62.03 1.06.51 1.06 1.28 0 .5-.12.93-.43 1.18.39-.24.65-.73.65-1.3 0-.8-.58-1.4-1.26-1.4H4v.24Z" fill="url(#jqgql1tpx)"/><path opacity=".7" d="M6.93 4.3c.04.07.1.25 0 .36-.12.13.2.3.2.15v-.1c0-.19 0-.43.14-.35.14.03.2.05.24.07.55.24.87-.77 1.52-.2.04.05.1.19.06.27-.2.34.13.63-.45.7a4.6 4.6 0 0 0-1.13.37c-.07.07-.17 0-.3-.07-.11-.07-.26-.16-.4-.12-.28.07-.2.46-.22.59-.03.16-.43.7-.22.94 0 .04-.04.06-.08.09-.07.03-.15.07-.1.22 0 .16.13.47.26.55.06.04.13.03.2 0 .1-.01.18-.03.22.08.07.2.1.52 0 .58-.07.05.08.18.17.24-.01-.05-.02-.17.06-.24.04-.05.07-.04.1-.04.05 0 .1 0 .19-.05.37-.21.17-.36-.08-.65-.13-.15-.21-.14-.3-.07-.18.15-.38.13-.42.07l-.06-.08c-.13-.2-.34-.48.06-.44.05.03.14.05.11-.07-.04-.15.18-.08.2 0 .01.07.11.25.18.12.09-.18-.06-.39.02-.58.06-.15.05-.16-.06-.18-.1-.03-.27-.09-.19-.22.08-.14.13-.13.1-.3-.02-.14-.05-.29 0-.32.06-.05.15-.03.32.07.12.07.2.04.26.02.27-.1.97-.46 1.2-.45h.01c.16 0 .41.02.46-.25.04-.17.06-.22.1-.27a.98.98 0 0 0 .05-.14c.06-.18.15-.77 0-.83-.15-.05-.17-.2-.44-.08-.27.13-.17.13-.47.14-.3.02-.55-.06-.82.13-.17.12-.32.13-.44.14-.12.01-.25.06-.25.2Zm.4 3.72a.16.16 0 0 0-.15-.09c-.1 0-.14-.03-.15-.12 0-.08.01-.06.12 0h.01c.07.04.1.02.13 0 .02 0 .04-.02.07 0 .06.05.03.2-.04.2Zm-.27.17c.32 0-.1 0 0 0Z" fill="url(#kqgql1tpx)"/><path d="M5.77 8.32v-.74l2 1.55-.2.18-1.8-.99Z" fill="#FDFEFC"/><path d="m12.6 12-1.9 1.4-.07-.08 1.71-1.5.34-.92.8-.6-.68.81-.2.89Z" fill="url(#lqgql1tpx)"/><path d="m10.67 13.36 1.75-1.48.33-.93.58-.46.15-.19-.8.6-.34.91-1.7 1.51.03.04Z" fill="#D2D8DE"/><path d="M13.64 13.24 12.6 15l.87-2.19.53-.21v.46l-.36.18Z" fill="url(#mqgql1tpx)"/><path d="m14 12.9-.45.19-.4 1 .49-.71.36-.18v-.3Z" fill="#514F50"/><path d="M14 7.9c-.04-.02-.08-.02-.12-.02-.5 0-.94.52-.94 1.17 0 .64.41 1.16.92 1.16h.1c-.44-.07-.71-.54-.71-1.11 0-.58.3-1 .75-1.06v-.15Z" fill="url(#nqgql1tpx)"/><path d="M10.17 6.3c0-.02-.05-.02-.08-.14 0 0-.2-.78-.18-.78l.02.01c.05.02.1.04.14.02l.07-.06c.08-.07.18-.16.25-.13.08.04.1.04.14 0 .07-.04.14 0 .2.03.07.03.12.05.16-.02.01-.03.03-.06.08-.08.1-.05.2-.13.3-.21.1-.09.21-.17.31-.21.1-.04.27-.22.31-.3.03-.05.1-.09.18-.12.07-.03.14-.06.12-.1-.02-.09-.16-.5-.45-.46l-.29.04c-.26.03-.5.07-.77.12-.1.02-.24.05-.25.17l-.04.11c-.04.1-.1.25-.05.28.12.1-.06.24-.16.32l-.03.02c-.06.05-.18-.06-.13-.22a.5.5 0 0 1 .04-.1c.03-.05.04-.07-.04-.21-.1-.2-.05-.24.13-.29l.15-.02c.08 0 .13 0 .2-.1.1-.12.29-.14.47-.16.12 0 .23-.02.32-.05.08-.04.16-.02.24 0 .08.01.15.02.23 0 .09-.02.19-.05.33.11.2.22.24.33.24.43.01.1-.03.17-.11.25-.16.15-.35.27-.54.39-.21.13-.42.26-.58.44a.36.36 0 0 1-.16.11h-.04c-.17.02-.77.08-.6.24.14.15.14.26.14.35 0 .06 0 .1.05.15.05.06.12.07.18.08.04 0 .08.01.11.04.04.03.03.08.03.13s0 .1.02.13.02.07.03.11c.02.1.05.2.17.27.1.04.14.15.17.25.03.07.05.14.1.16l.1.06a.4.4 0 0 0 .15.07c.04.02.07.02.1.02.26.05.12.17.03.25a.22.22 0 0 0-.05.06.19.19 0 0 0 0 .1c.01.04.02.08 0 .12-.04.06-.36.2-.52.27 0-.06 0-.2.04-.25.04-.06.02-.12-.08-.24l-.08-.11c-.02-.05-.03-.07-.1-.09-.07-.02-.25.12-.39.23l-.14.1c-.08.04-.15-.05-.13-.1.03-.07 0-.16-.03-.28a1.87 1.87 0 0 1-.06-.24c-.02-.18-.02-.18 0-.2.12-.08.08-.19.03-.3-.03-.06-.06-.12-.05-.18a.9.9 0 0 0 0-.03c0-.04-.02-.06-.04-.08-.02-.02-.04-.05.01-.1l.08-.09Zm.75.75c-.01-.09-.07-.24-.2-.19-.18.06-.17.1-.14.15.02.04-.02.05-.1.08l-.1.03c-.14.05-.13.3.02.33.12.03.4-.09.54-.15l-.02-.25Zm.79.13c-.07-.02-.21-.2-.28-.29-.01-.04-.03-.11.04-.04.09.1.16.13.3.08.14-.05.24-.04.35.08.12.12-.11.29-.22.28-.06 0-.09-.03-.12-.06l-.07-.05Z" fill="url(#oqgql1tpx)"/><path d="m10.61 13.4-.29.2a5.87 5.87 0 0 1 .47-6.43 4.4 4.4 0 0 1 3.2-1.8v.14a5.16 5.16 0 0 0-2.84 1.77c-1.34 1.75-1.61 3.54-.54 6.12Z" fill="url(#pqgql1tpx)"/><path d="m10.42 13.53-.1.07a5.87 5.87 0 0 1 .47-6.43 4.4 4.4 0 0 1 3.2-1.8v.03c-.67.06-2.29.36-3.45 2.24a5.83 5.83 0 0 0-.12 5.89Z" fill="url(#qqgql1tpx)"/><ellipse opacity=".8" rx=".71" ry="1.29" transform="matrix(.61788 .78627 -.73357 .67962 11.22 8.97)" fill="#4AFFFE"/><path d="m10.45 10.12.13-.97 1.61-.99.09.26-1.83 1.7Z" fill="#fff"/><defs><linearGradient id="aqgql1tpx" x1="3.35" y1="3.12" x2="21.9" y2="24.43" gradientUnits="userSpaceOnUse"><stop stop-color="#1A1E21"/><stop offset="1" stop-color="#06060A"/></linearGradient><linearGradient id="bqgql1tpx" x1="11.4" y1="3.54" x2="10.7" y2="14.98" gradientUnits="userSpaceOnUse"><stop stop-color="#11638B" stop-opacity=".2"/><stop offset=".18" stop-color="#02849D" stop-opacity=".34"/><stop offset=".39" stop-color="#176C96" stop-opacity=".56"/><stop offset=".52" stop-color="#0B9BB4"/><stop offset=".77" stop-color="#072230" stop-opacity=".65"/><stop offset="1" stop-color="#0E3650" stop-opacity=".45"/></linearGradient><linearGradient id="cqgql1tpx" x1="4.31" y1="7.16" x2="8.93" y2="10.94" gradientUnits="userSpaceOnUse"><stop stop-color="#6C0808" stop-opacity=".57"/><stop offset=".61" stop-color="#B81214"/><stop offset="1" stop-color="#9E3543" stop-opacity=".41"/></linearGradient><linearGradient id="dqgql1tpx" x1="4.01" y1="10.9" x2="7.71" y2="14.99" gradientUnits="userSpaceOnUse"><stop stop-color="#E8E2E2"/><stop offset="1" stop-color="#E3EEEA"/></linearGradient><linearGradient id="eqgql1tpx" x1="5.22" y1="12.2" x2="7.62" y2="14.8" gradientUnits="userSpaceOnUse"><stop stop-color="#686264"/><stop offset="1" stop-color="#5E5D5B"/></linearGradient><linearGradient id="fqgql1tpx" x1="5.05" y1="9.18" x2="6.54" y2="12.74" gradientUnits="userSpaceOnUse"><stop stop-color="#F6E8E5"/><stop offset=".47" stop-color="#FFFDFA"/><stop offset="1" stop-color="#E1D6D8"/></linearGradient><linearGradient id="gqgql1tpx" x1="5.3" y1="9.4" x2="6.64" y2="12.09" gradientUnits="userSpaceOnUse"><stop stop-color="#9E4849"/><stop offset=".49" stop-color="#753939"/><stop offset=".76" stop-color="#886E71"/><stop offset="1" stop-color="#5A3A3D"/></linearGradient><linearGradient id="hqgql1tpx" x1="5.05" y1="4.98" x2="8.05" y2="12.85" gradientUnits="userSpaceOnUse"><stop stop-color="#5A4F4E"/><stop offset=".41" stop-color="#B3908F"/><stop offset=".56" stop-color="#D2A3A3"/><stop offset="1" stop-color="#5C4347"/></linearGradient><linearGradient id="iqgql1tpx" x1="5.17" y1="4.76" x2="7.84" y2="12.78" gradientUnits="userSpaceOnUse"><stop stop-color="#8A7F79"/><stop offset=".35" stop-color="#F3E8E4"/><stop offset=".65" stop-color="#F4EAE9"/><stop offset="1" stop-color="#F9EDF1"/></linearGradient><linearGradient id="jqgql1tpx" x1="4.66" y1="6.55" x2="4.66" y2="9.3" gradientUnits="userSpaceOnUse"><stop stop-color="#BFB1B1"/><stop offset="1" stop-color="#EBD8D2"/></linearGradient><linearGradient id="kqgql1tpx" x1="7.8" y1="3.64" x2="7.8" y2="8.67" gradientUnits="userSpaceOnUse"><stop stop-color="#FFABB8"/><stop offset=".54" stop-color="#FF949E"/><stop offset="1" stop-color="#F8C5C4"/></linearGradient><linearGradient id="lqgql1tpx" x1="13.62" y1="10.31" x2="10.26" y2="13.32" gradientUnits="userSpaceOnUse"><stop offset=".25" stop-color="#4A6266"/><stop offset=".38" stop-color="#939D9F"/><stop offset=".51" stop-color="#324242"/><stop offset="1" stop-color="#131F1F"/></linearGradient><linearGradient id="mqgql1tpx" x1="13.98" y1="12.7" x2="12.52" y2="14.82" gradientUnits="userSpaceOnUse"><stop stop-color="#6B6F72"/><stop offset="1" stop-color="#EFEFEF"/></linearGradient><linearGradient id="nqgql1tpx" x1="13.46" y1="7.88" x2="13.46" y2="10.21" gradientUnits="userSpaceOnUse"><stop stop-color="#6C898D"/><stop offset=".54" stop-color="#D4E1E9"/><stop offset="1" stop-color="#A4B9BE"/></linearGradient><linearGradient id="oqgql1tpx" x1="11.12" y1="3.64" x2="11.12" y2="8.25" gradientUnits="userSpaceOnUse"><stop stop-color="#DFFDFF"/><stop offset=".3" stop-color="#ABFEFF"/><stop offset=".65" stop-color="#B1F7FC"/><stop offset="1" stop-color="#F7FFFD"/></linearGradient><linearGradient id="pqgql1tpx" x1="13.59" y1="5.37" x2="9.87" y2="13.13" gradientUnits="userSpaceOnUse"><stop stop-color="#A6A9A9"/><stop offset=".34" stop-color="#8BC9D3"/><stop offset=".46" stop-color="#7BE8FC"/><stop offset="1" stop-color="#000600"/></linearGradient><linearGradient id="qqgql1tpx" x1="13.59" y1="5.37" x2="9.87" y2="13.13" gradientUnits="userSpaceOnUse"><stop stop-color="#989FA0"/><stop offset=".46" stop-color="#D5FDFD"/><stop offset="1" stop-color="#D2D7DD"/></linearGradient></defs></svg>