<!-- by TradingView --><svg width="18" height="18" viewBox="0 0 18 18" xmlns="http://www.w3.org/2000/svg"><path fill="#FFC700" d="M0 0h18v18H0z"/><path fill-rule="evenodd" d="M14.54 11.3a5.94 5.94 0 0 0 0-4.6 5.94 5.94 0 0 0-3.24-3.24 5.94 5.94 0 0 0-4.6 0A5.94 5.94 0 0 0 3.46 6.7a5.94 5.94 0 0 0 0 4.6 5.94 5.94 0 0 0 3.24 3.24 5.94 5.94 0 0 0 4.6 0 5.94 5.94 0 0 0 3.24-3.24Zm-.58-.25a5.32 5.32 0 0 0-1.17-5.84 5.32 5.32 0 0 0-5.84-1.17A5.32 5.32 0 0 0 3.64 9a5.32 5.32 0 0 0 3.3 4.96 5.32 5.32 0 0 0 5.85-1.17c.5-.5.9-1.08 1.17-1.74Z"/><path d="M6.41 9.55c.01-.01 0-.03-.01-.03-.34-.13-.51-.37-.51-.72a.69.69 0 0 1 .28-.56.3.3 0 0 0 .06-.04 9.06 9.06 0 0 1-.14-.66c-.1-.46-.1-.8 0-1.03a4.43 4.43 0 0 1 2.19-2.18.44.44 0 0 1 .23-.05c.48.04.96.25 1.44.64.72.57 1.17 1.3 1.35 2.2.06.27.07.56.03.86a5.88 5.88 0 0 1 .85 1.74c.16.55.12 1.1-.12 1.65a4.3 4.3 0 0 1-1.81 2 .8.8 0 0 1-.3.07c-.18.02-.36.01-.52-.02l-.4-.05a1.6 1.6 0 0 1-.37-.1 13 13 0 0 1-1.18-.54l-.04-.09a5.84 5.84 0 0 1-1.36-1.76.52.52 0 0 1 0-.36l.33-.97Z"/><path d="M10.17 5.45a1.23 1.23 0 0 0-.1-.07 4.31 4.31 0 0 0-1.36-.9c.26.07.49.18.7.32a6.42 6.42 0 0 1 .77.64h-.01Z" fill="#fff"/><path d="m9.6 5.28-.04.12c0 .03-.03.05-.06.05-.64 0-1.22.17-1.74.5a2.8 2.8 0 0 0-.92.92l-.03.02-.13.03c.11-.4.34-.74.68-1.03.32-.27.68-.46 1.1-.57.36-.1.74-.11 1.13-.04Z" fill="#945730"/><path d="M10.36 5.66c.15.25.33.5.52.72.1.17.18.42.26.73 0 .05 0 .05-.03.02a2.16 2.16 0 0 0-.2-.2.83.83 0 0 0-.7-.21.28.28 0 0 0-.13.07c-.05.04-.07.09-.06.14.01.05.05.09.11.1l.14.04a1.03 1.03 0 0 1 .62.36c.09.11.17.15.24.11h.04l.02.03-.05.48.27.45c.06.1.17.35.31.75-.22.33-.52.57-.89.74a2.4 2.4 0 0 1-1.77.08l-.1-.03A4.2 4.2 0 0 1 6.9 8.36v-.04c0-.03 0-.05-.03-.05l-.44-.05s-.02 0-.02-.02c-.03-.06-.02-.1.03-.15l.2-.19c.04-.03.05-.07.04-.12l-.01-.02c-.01-.05-.04-.06-.08-.02l-.2.19c-.02.02-.03.02-.05-.01V7.8l.33-.32c.02-.03.03-.06.01-.1l-.01-.01c-.03-.06-.06-.06-.1-.02l-.26.25H6.3l-.02-.02v-.04l.4-.45a.04.04 0 0 0 .01-.04.27.27 0 0 1 0-.14l.13-.03c.01 0 .02 0 .03-.02.24-.39.55-.7.91-.92.53-.33 1.11-.5 1.75-.5.03 0 .06-.02.06-.05l.03-.12c.2.04.39.12.59.23.09.05.15.1.18.15Z" fill="#AC6438"/><path d="M10.36 5.66c.23.19.4.43.52.72-.19-.23-.37-.47-.52-.72Z" fill="#9D9C9D"/><path d="M8.6 7.02c-.28.08-.5.15-.65.23a.93.93 0 0 0-.47.47c0 .01 0 .02-.02.02s-.02 0-.03-.02a.54.54 0 0 1-.04-.1.26.26 0 0 1 0-.1c.03-.28.14-.5.32-.68.1-.1.22-.17.35-.19a1 1 0 0 1 .36 0c.14.04.23.1.26.2.02.04.02.07 0 .1a.12.12 0 0 1-.08.07Z"/><path d="M7.93 6.84a.5.5 0 0 1-.09 0c-.01 0-.02-.01 0-.03.04-.04.1-.06.16-.08a.96.96 0 0 1 .36-.02c.16.02.25.08.27.19 0 .02 0 .03-.02.05a.05.05 0 0 1-.05 0 1.43 1.43 0 0 0-.63-.11ZM10.55 6.9a2.67 2.67 0 0 0-.18-.1c-.01-.01-.02-.02-.01-.03l.02-.02c.34.05.58.23.73.53l.04.1c0 .16-.05.17-.14.04a1.8 1.8 0 0 0-.46-.52Z" fill="#9D9C9D"/><path d="M10.12 8.96a.05.05 0 0 0-.03-.02v-.01a.57.57 0 0 0-.6-.04 1 1 0 0 0-.24.16h-.01V8.99c.12-.09.21-.14.29-.17a.6.6 0 0 1 .3-.04.8.8 0 0 1 .57.33c.01.01.02.02.04.01.12-.03.21-.06.27-.1a.5.5 0 0 0 .25-.27c.01-.03 0-.05-.02-.06a1.7 1.7 0 0 0-.74-.19c-.01 0-.02 0-.01-.01v-.01h.01a.91.91 0 0 1 .47.04c.15.05.28.1.41.12.05.01.08 0 .1-.04 0-.02 0-.06-.03-.1a1.02 1.02 0 0 0-.6-.3 1.08 1.08 0 0 0-.55 0l-.24.07c-.03.11-.08.18-.16.22a.06.06 0 0 0-.03.03l-.01.04a.26.26 0 0 1-.06.11c-.13.12-.2.2-.23.2A1.47 1.47 0 0 1 8.01 9l-.02-.03v-.01h.02c.35.11.7.1 1.04-.03.1-.03.18-.08.25-.14.08-.07.15-.14.2-.21.02-.01.02-.03.01-.04a5.34 5.34 0 0 0-.74-.02 1.7 1.7 0 0 0-.53.16l-.01-.01v-.04c.2-.1.4-.16.6-.16h.69c.06 0 .1-.03.14-.09v-.04a.13.13 0 0 0-.1-.05 1.1 1.1 0 0 0-.6-.03 1.37 1.37 0 0 1-.23.03.89.89 0 0 0-.34.08c-.2.05-.39.14-.56.27a.05.05 0 0 1-.04 0 .05.05 0 0 1-.03-.02.79.79 0 0 1-.05-.66c.13-.36.39-.6.77-.71a.87.87 0 0 1 .45-.02c.18.04.32.11.43.2l.13.12h.03a.8.8 0 0 1 .45-.3.92.92 0 0 1 .92.3c.18.2.2.44.1.69-.02.01-.01.03 0 .04l.06.05c.12.1.18.18.2.25 0 .05-.01.09-.05.11a.32.32 0 0 1-.12.04h-.02a.04.04 0 0 0-.03.03.53.53 0 0 1-.32.35c-.12.06-.2.09-.24.09-.01 0-.02.01-.01.03.04.15.04.32 0 .5v.04c.14.08.26.08.37.02.09-.05.13-.12.14-.2 0-.06-.03-.12-.09-.18a.42.42 0 0 0-.26-.13s-.02 0-.02-.02l-.01-.02c.13 0 .24.04.32.12.07.07.1.15.1.23-.02.15-.09.24-.22.29a.4.4 0 0 1-.36-.06c-.01-.01-.03 0-.04.01v.02a.41.41 0 0 1-.13.15.8.8 0 0 1-.4.15c-.07 0-.2-.03-.36-.08a.7.7 0 0 1-.36-.28c-.02-.03-.04-.03-.07-.01a.35.35 0 0 1-.25.06.4.4 0 0 1-.3-.17c-.07-.1-.06-.2.01-.32a.32.32 0 0 1 .22-.13c.08-.02.17-.01.26.02.07.02.12.06.14.12v.02h-.02a.35.35 0 0 0-.37-.12c-.13.03-.2.1-.22.24 0 .04.01.1.05.16.03.04.07.07.13.08a.4.4 0 0 0 .45-.12c.04-.05.06-.04.05.03l-.04.06v.04c.1.15.25.25.45.29a.9.9 0 0 0 .52-.04c.08-.03.13-.08.15-.14l.07-.13a.65.65 0 0 0 .06-.2c0-.06 0-.12-.02-.2a.87.87 0 0 0-.16-.28c-.04-.05-.08-.08-.13-.08Z"/><path d="M8.34 8.2a.3.3 0 0 1 .01.08c0 .01 0 .02-.02.03a2 2 0 0 0-.5.26l-.03-.01a.81.81 0 0 1-.02-.62c.07-.2.2-.37.38-.5.15-.1.3-.15.49-.17.17-.02.32 0 .47.07.15.07.27.17.35.3.1.15.13.32.12.52 0 .02 0 .03-.02.04a.04.04 0 0 1-.04 0c-.05 0-.06-.02-.06-.06a.6.6 0 0 0-.13-.5.59.59 0 0 0-.48-.2c-.17.01-.3.08-.41.2a.56.56 0 0 0-.14.45l.03.1ZM9.56 7.59a.68.68 0 0 1 .44-.3c.3-.06.56.02.79.22.19.18.24.4.16.67l-.03.03c-.05.04-.07.03-.04-.02.04-.1.05-.21.01-.33-.06-.2-.2-.33-.4-.37-.2-.03-.36.03-.48.19a.45.45 0 0 0-.07.43l-.01.03-.25.1h-.02v-.02a.76.76 0 0 0 0-.27 2.15 2.15 0 0 0-.1-.32V7.6Z" fill="#fff"/><path d="M8.75 7.88c.06 0 .1-.05.1-.1 0-.04-.06-.07-.12-.07s-.1.05-.1.1c0 .04.06.07.12.07ZM10.29 7.84c.02-.01.04-.04.03-.06-.01-.02-.05-.03-.08-.01-.02.01-.04.04-.03.06.01.02.05.03.08.01ZM10.62 7.94a.07.07 0 1 0 0-.13.07.07 0 0 0 0 .13ZM9.17 7.99c.04 0 .08-.03.08-.07 0-.04-.04-.07-.08-.07s-.08.03-.08.07c0 .04.04.07.08.07ZM10.36 8.12c.05 0 .1-.02.1-.05 0-.04-.03-.07-.08-.08-.05 0-.1.02-.1.05 0 .04.03.07.08.08Z" fill="#fff"/><path d="M11.14 8.05a5.28 5.28 0 0 1 .65 1.14c0 .02 0 .03.02.04a15.12 15.12 0 0 1 .27.78c.06.43.01.84-.15 1.23-.1.24-.22.47-.35.67-.05.07-.05.06-.03-.01l.06-.17a4.12 4.12 0 0 0 .25-1.78 138.66 138.66 0 0 0-.1-.64v-.06c.01-.01 0-.02-.01-.02l-.02.02a4.76 4.76 0 0 0-.59-1.2Z" fill="#9D9C9D"/><path d="M8.74 8.21h-.02V8.2c0-.03 0-.06.02-.08a.11.11 0 0 1 .07-.05h.02l.08.01a.1.1 0 0 1 .05.06l-.01.02-.21.05ZM9.55 8.28l.03.03c0 .02 0 .02-.02.02a1.66 1.66 0 0 0-.48-.04l-.39.02a.64.64 0 0 0-.15.04.25.25 0 0 1-.15 0 .89.89 0 0 1 .39-.07l.17-.03c.2-.05.4-.03.6.03Z" fill="#fff"/><path d="M6.62 9.29a.1.1 0 0 1-.05.06.1.1 0 0 1-.07.01l-.06-.01a.52.52 0 0 1-.32-.26.5.5 0 0 1-.05-.4v-.03a.5.5 0 0 1 .26-.31.52.52 0 0 1 .4-.05l.06.01a.1.1 0 0 1 .06.05.1.1 0 0 1 0 .08l-.23.85Z" fill="#AC6438"/><path d="m6.51 8.61.04-.08.01-.02h.02c.01 0 .02.01.01.02l-.03.13v.05c.02.1.02.18.02.26 0 .06-.02.1-.03.11-.06.05-.07.04-.05-.02.08-.22.04-.37-.12-.47a.03.03 0 0 1-.01-.03v-.02h.01c.04 0 .07.03.1.07h.03Z"/><path d="M10.09 8.94c.01 0 .02 0 .03.02.1.09.16.17.19.25.05.14.06.3.03.48 0 .04-.02.07-.04.1a1.42 1.42 0 0 0-.06.08l-.14.05a.08.08 0 0 1-.1-.02.08.08 0 0 1-.01-.09l.1-.3a.6.6 0 0 0-.05-.5v-.05c0-.02.02-.02.05-.02Z" fill="#9D9C9D"/><path d="m9 12.03.25.19c.1.08.15.18.15.3 0 .1-.03.15-.11.19a.28.28 0 0 1-.23 0 2.16 2.16 0 0 1-1-.85 2.66 2.66 0 0 1-.31-2.15c0-.02.02-.03.03-.02a8.3 8.3 0 0 0 .99.48l.36.1.19.04.17.04.14.03.3.03h.35l.35-.05c.21-.05.42-.13.63-.26.02-.02.04-.01.05.01.16.35.2.7.1 1.08l-.13.38c-.1.3-.25.55-.46.78a.72.72 0 0 1-.49.26c-.17.01-.29-.05-.35-.18-.03-.07 0-.12.07-.16.29-.16.44-.3.45-.4v-.03h-.03c-.12.05-.26.1-.44.15-.3.09-.63.08-.98-.03-.13-.03-.14-.01-.04.07Z" fill="#AC6438"/><path d="m9.22 10.35.03.02c.01.02.03.02.05.02.04 0 .11 0 .2.04l.17.03.32.03c.25.04.51.02.8-.06.15-.04.29-.1.4-.2.02 0 .04 0 .05.02.04.04.05.1.06.15.01.53-.19.94-.6 1.21a2 2 0 0 1-2.32-.15c-.24-.19-.4-.43-.49-.73a1 1 0 0 1 .07-.8c.02-.03.04-.04.06-.02l.04.01c.07.04.12.07.17.08l.22.1c.08.04.15.07.23.08a1.8 1.8 0 0 1 .29.1l.05.04.04.01c.08 0 .13 0 .16.02Z"/><path d="M9 10.67c.04.02.1.01.14 0a.18.18 0 0 0 .1-.1l.03-.01h.02v.01a.82.82 0 0 0-.04.24c0 .04.01.07.04.1a.6.6 0 0 0 .12.1c.09.06.18.1.28.12.13.02.22 0 .28-.07a.5.5 0 0 0 .09-.2l.07-.26c0-.02.01-.03.03-.03h.03c.01 0 .02 0 .02.02a.71.71 0 0 0 .03.35c.01.05.04.1.06.13.02.02.07.04.13.04l.28-.01c.12-.04.2-.08.25-.13.03-.04.04-.09.03-.16l-.01-.09c0-.01 0-.02.02-.02l.23-.03c-.07.26-.12.4-.15.45-.14.22-.28.38-.43.46-.29.17-.6.26-.94.28-.02 0-.04-.01-.04-.03a.98.98 0 0 0-.5-.68.23.23 0 0 0-.16-.02l-.04-.01-.15-.14c-.24-.2-.5-.23-.78-.09-.02.01-.03 0-.04-.02a1.15 1.15 0 0 1-.01-.86c0-.02.02-.02.04-.02l.06.03c.02.01.02.02.02.04 0 .06 0 .12.03.2.01.06.06.1.13.13.17.08.29.08.35.01l.1-.1c.02-.02.03-.02.03.02-.03.18.05.3.24.35Z" fill="#87212D"/><path d="M8.64 10.24c.01 0 .02.01.01.02v.01a.2.2 0 0 1-.11.11.2.2 0 0 1-.16 0l-.07-.03a.21.21 0 0 1-.12-.1.2.2 0 0 1 0-.16c0-.02.01-.03.02-.02l.43.17ZM9.21 10.41c.03.01.04.03.03.05v.01a.2.2 0 0 1-.1.13.2.2 0 0 1-.17.02h-.02a.21.21 0 0 1-.13-.1.2.2 0 0 1-.02-.17v-.01c.01-.03.03-.04.06-.03l.35.1ZM11.17 10.33h.03l.03.06c.02.04.02.08.01.12a.14.14 0 0 1-.07.1l-.04.01a.14.14 0 0 1-.12 0 .17.17 0 0 1-.09-.08l-.02-.05v-.03l.27-.13ZM10.01 10.56c.04 0 .05.03.05.06l-.04.23a.24.24 0 0 1-.12.17.3.3 0 0 1-.21.05l-.12-.02a.3.3 0 0 1-.19-.11.24.24 0 0 1-.05-.2l.03-.23c0-.03.03-.05.07-.04l.58.1ZM10.77 10.5c.02 0 .04 0 .05.03l.1.28c.04.11-.02.18-.2.22a.83.83 0 0 1-.34.01.09.09 0 0 1-.08-.08l-.05-.37c0-.01 0-.02.02-.02l.5-.07Z" fill="#fff"/><path d="M9.14 11.6h.02c.01 0 .02-.01.01-.03l-.14-.36v-.03h.03c.3.1.47.32.53.62v.04a.04.04 0 0 1-.04.01 1.9 1.9 0 0 1-1.22-.5c-.11-.1-.2-.22-.27-.36 0-.02 0-.03.02-.04.12-.07.24-.1.35-.08a.7.7 0 0 1 .5.3c.07.1.13.25.19.43h.02Z" fill="#AB0045"/><path d="m8.1 12.9-.46-.26h-.02v.03l.47.26h.02v-.03Z" fill="#AC6438"/></svg>