<!-- by TradingView --><svg xmlns="http://www.w3.org/2000/svg" width="18" height="18"><path fill="#F0F3FA" d="M0 0h18v18H0z"/><path d="M6.5 7.59L4 9V6.09l2.5 1.5z" fill="#E21567"/><path d="M9.01 6.18L6.5 7.58V4.71l2.51 1.47z" fill="#EC1B2E"/><path d="M11.51 4.75L9 6.18V3.32l2.51 1.43z" fill="#E13040"/><path d="M4 6.09l2.5 1.5V4.71L4 6.1z" fill="#A3282D"/><path d="M6.5 4.72L9 6.19V3.31L6.5 4.72z" fill="#C5262C"/><path d="M11.52 7.6l-.02-2.85L14 6.2l-2.48 1.4z" fill="#F37B20"/><path d="M11.5 10.45l.02-2.84 2.49 1.44-2.51 1.4z" fill="#A5CD39"/><path d="M11.5 13.3v-2.85l2.5 1.43-2.5 1.42z" fill="#1D693D"/><path d="M14 6.2l-2.49 1.4L14 9.06V6.2z" fill="#F9A22B"/><path d="M14 9.05l-2.51 1.4L14 11.9V9.05z" fill="#3EAD49"/><path d="M9 11.9l2.49 1.4L9 14.79V11.9z" fill="#00AAE2"/><path d="M6.52 10.45L9 11.9l-2.52 1.44.04-2.88z" fill="#006291"/><path d="M4 9l2.54 1.46L4 11.9V9z" fill="#7D2A8F"/><path d="M9 14.77V11.9l-2.53 1.44L9 14.77z" fill="#0080B6"/><path d="M6.48 13.34l.05-2.88L4 11.89l2.48 1.45z" fill="#562E60"/><path d="M11.38 9.04l-3.75 2.03V7.01l3.75 2.03z" fill="#EC1E24"/></svg>