<!-- by TradingView --><svg width="18" height="18" viewBox="0 0 18 18" xmlns="http://www.w3.org/2000/svg"><path fill="url(#aga25ynyq)" d="M0 0h18v18H0z"/><path d="m12.8 6-5.78 5.75a.85.85 0 0 1-1.19 0L3.3 9.64A.95.95 0 0 1 3.97 8h1.46c.26 0 .5.1.69.27l1.22 1-.7.73-1.21-1H4.06l2.37 1.93 5.66-5.63c.19-.2.45-.3.72-.3h1.1c.97 0 1.46 1.18.76 1.86l-4.96 4.88a.9.9 0 0 1-1.27 0l-.34-.35.72-.7.26.26 4.9-4.8a.09.09 0 0 0-.06-.15H12.8Z" fill="url(#bga25ynyq)"/><defs><linearGradient id="aga25ynyq" x1="16.07" y1="4.02" x2="3.21" y2="15.59" gradientUnits="userSpaceOnUse"><stop offset=".33" stop-color="#021826"/><stop offset=".9" stop-color="#0E4460"/></linearGradient><linearGradient id="bga25ynyq" x1="14.99" y1="6.06" x2="3" y2="6.06" gradientUnits="userSpaceOnUse"><stop stop-color="#097CB8"/><stop offset="1" stop-color="#8ADECF"/></linearGradient></defs></svg>