<!-- by TradingView --><svg width="18" height="18" viewBox="0 0 18 18" xmlns="http://www.w3.org/2000/svg"><path fill="url(#a)" d="M0 0h18v18H0z"/><path d="M12.2 4.5c-.04.34-.06.66-.05.95 0 .32.03.77.06 1.35a5.6 5.6 0 0 0-.35.72 1.25 1.25 0 0 0-.25-.43.02.02 0 0 0-.01 0l-.36.36c-.43.03-.8 0-1.18-.2l.84-.84a.02.02 0 0 0 0-.03c-.36-.31-.76-.36-1.2-.14-.1-.44-.26-.8-.45-1.13l-.65-1.1c.76-.03 1.5.01 2.25.11.47.07.92.19 1.35.37Z" fill="#79A9A8"/><path d="m8.6 4 .65 1.11c.2.32.34.7.46 1.13l-.33.28a4.1 4.1 0 0 0-.07-.56.93.93 0 0 0-.24-.46c-.05-.05-.1-.05-.17 0-.05.04-.1.17-.11.24-.06.28-.1.57-.12.87a1.17 1.17 0 0 0-.58-.46c.05-.24.08-.4.07-.48a3.16 3.16 0 0 0-.6-1.6L8.6 4Z" fill="#7985AB"/><path d="M7.57 4.06c.3.47.58 1.04.6 1.6 0 .09-.03.25-.08.5a1 1 0 0 0-.86.12 3.15 3.15 0 0 0-.15-.47A.31.31 0 0 0 7 5.7a.08.08 0 0 0-.1 0 .6.6 0 0 0-.12.16c0-.16 0-.3-.02-.43 0-.07-.02-.07-.03 0a2.5 2.5 0 0 0-.05.27 2.45 2.45 0 0 1-.01-.53h-.02l-.07.42c.02-.19.03-.41.03-.68 0-.23.04-.47.14-.7l.83-.14Z" fill="#69A9E3"/><path d="M6.74 4.2c-.1.23-.15.47-.14.7 0 .27 0 .5-.03.68l-.17.36c-.01.04-.02.04-.02 0v-.1c-.01-.03-.02-.03-.03-.01a.53.53 0 0 0-.06.13c-.08.25-.12.51-.11.78l-.09.31c-.05-.03-.1 0-.15.06 0-.06-.02-.1-.03-.14a.04.04 0 0 0-.06-.03l-.01.02c-.15.17-.25.37-.32.58-.15.48-.3.96-.43 1.44-.02.09-.1.23-.25.42l.14-.84c.07-.4.21-.8.34-1.2l.1-.23.09-.23A82.35 82.35 0 0 0 6 5.25l.17-.54c.05-.15.08-.28.08-.39l.48-.13Z" fill="#7391C6"/><path d="M6.26 4.32c0 .11-.03.24-.08.4a28.7 28.7 0 0 1-.35 1.06 82.29 82.29 0 0 1-.41 1.35l-.1.23c-.13.4-.27.8-.34 1.2l-.14.84-.08.95-.05.2a.76.76 0 0 0 0-.2H4.7l-.05.14h-.01l-.01.01-.02.02-.1.43-.18.81-.04-.12a4.7 4.7 0 0 0 .11-2.27l.07-.59c.17-.37.28-.72.4-1.1.07-.04.12-.1.15-.17.1-.37.2-.65.27-.86.04-.11.1-.25.19-.4.05-.09.1-.2.15-.36l.1-.37c.1-.32.21-.63.36-.94l.08-.23.1-.03Z" fill="#6FB8C5"/><path d="m6.17 4.35-.08.23a6.1 6.1 0 0 0-.46 1.31c-.05.15-.1.27-.15.36-.09.15-.15.29-.19.4l-.27.86a.32.32 0 0 1-.16.18.4.4 0 0 0-.16.21l-.15.46-.11.29a.17.17 0 0 1-.06.07l-.02.03v.01c0 .03-.01.03-.02 0 0-.02 0-.04-.02-.05h-.03a.5.5 0 0 1 .04-.32 9.5 9.5 0 0 0 .61-1.62c.12-.27.17-.5.3-.77l.14-.34.14-.35c.14-.27.26-.56.37-.85l.28-.1Z" fill="#A8CEA7"/><path d="M5.9 4.46a8.97 8.97 0 0 1-.53 1.2L5.24 6c-.13.26-.19.5-.3.77l-.16.44-.14.45c-.1.25-.2.5-.31.73a.5.5 0 0 0-.04.32h.03c.02.01.02.03.02.05 0 .03.01.03.02 0v-.01c0-.01 0-.02.02-.03a.17.17 0 0 0 .06-.07l.1-.29-.07.42-.07.6-.15.26c-.07.1-.13.27-.2.49C4 9.59 3.98 9.04 4 8.5c.05-.22.16-.42.22-.58l.19-.4c.1-.21.2-.48.32-.72L5 6.2a10.82 10.82 0 0 1 .6-1.3c.05-.09.1-.22.15-.38l.13-.06Z" fill="#B5C37A"/><path d="M12.2 4.5c.33.15.62.35.87.61-.14 0-.27.02-.4.06-.28.06-.29.32-.25.56l.11.53c.04.17.07.4.08.7a.51.51 0 0 1-.4-.16c-.03-.58-.06-1.03-.06-1.35 0-.29.01-.6.06-.96Z" fill="#6FB8C5"/><path d="m5.76 4.52-.14.38A1501.76 1501.76 0 0 0 5 6.2l-.27.6c-.12.24-.23.5-.32.71l-.19.4c-.06.17-.17.37-.22.59 0-.54.05-1.07.15-1.59.16-.25.3-.51.42-.78 0-.03.07-.13.2-.3.16-.24.3-.48.48-.73.09-.12.15-.26.2-.42l.3-.16Z" fill="#A29066"/><path d="M5.46 4.68c-.05.16-.11.3-.2.42-.18.25-.32.49-.49.73l-.2.3a5.6 5.6 0 0 1-.41.78c.05-.31.13-.61.24-.9.2-.54.56-1.03 1.06-1.33Z" fill="#7C656B"/><path d="M6.77 5.85a.07.07 0 0 1-.07.02l-.03-.18.05-.27c0-.07.02-.07.03 0 .02.12.03.27.02.43Z" fill="#6FB8C5"/><path d="m13.07 5.11.27.37c-.09.14-.15.28-.2.43a.1.1 0 0 0 .04.1l.29.22c.12.06.14.11.06.15-.12.1-.16.23-.13.37l.02.04c.02.1.24.1.32.11l-.11.11c-.1.1-.17.18-.2.3a.05.05 0 0 0 .03.05c.18.08.32.06.44-.06l.02.16c-.15.14-.33.18-.56.24-.14.06-.25.12-.34.19-.22.17-.32.43-.39.7l-.2-.19.18-1.45c-.01-.3-.04-.52-.08-.69l-.1-.53c-.05-.24-.04-.5.24-.56.12-.04.26-.05.4-.06Z" fill="#84D0D8"/><path d="m9.38 6.52-.68.68a.14.14 0 0 0-.09-.04.53.53 0 0 0 .06-.55c.02-.3.06-.6.12-.87.01-.07.06-.2.1-.24.08-.05.13-.05.18 0 .12.12.2.28.24.46.03.18.06.37.07.56Z" fill="#7C7CC4"/><path d="m6.67 5.7.03.17.04 1.56-.34-.34a.02.02 0 0 0-.02 0l-.13.17a1.67 1.67 0 0 1-.02-.53c0-.04 0-.04-.03-.01l-.02.02c0-.27.03-.53.1-.78l.07-.13c.01-.02.02-.02.02 0v.1c0 .05.02.05.03.01l.17-.36.07-.42h.02c-.02.18-.01.36.01.53Z" fill="#87B6A8"/><path d="m7.23 6.28-.13.09a.03.03 0 0 0-.01.02.02.02 0 0 0 0 .02l.73.72c.09.08.16.14.21.16.2.09.44.03.58-.13.04 0 .07.01.1.04l-.28.28c-.12.13-.16.29-.12.47 0 .24-.03.45-.06.62a.82.82 0 0 1-.1.27L6.73 7.43 6.7 5.87c.03 0 .05 0 .07-.02a.6.6 0 0 1 .12-.16.08.08 0 0 1 .1 0c.04.03.07.07.1.12.05.15.1.3.14.47Z" fill="#76C1E6"/><path d="M13.67 6.21a.48.48 0 0 1-.2.02l-.3-.22a.1.1 0 0 1-.03-.1c.05-.15.11-.3.2-.43.14.23.25.48.33.73Z" fill="#A8CEA7"/><path d="m13.67 6.21.1.42-.24-.25c.08-.04.06-.09-.06-.15.06 0 .13 0 .2-.02Z" fill="#8F91CF"/><path d="m13.53 6.38.25.25.04.17-.42-.05c-.03-.14.01-.27.13-.37Z" fill="#76C1E6"/><path d="M6.25 7.26c-.15.25-.18.52-.1.82-.08.3-.14.59-.19.89-.03.18-.08.34-.16.5h-.03v-.04l.1-.63c0-.07-.01-.08-.06-.02-.02.04-.04.08-.08.12-.06.05-.1.1-.13.16a5.68 5.68 0 0 0-.64 2.03 7.8 7.8 0 0 1-.16.61l-.18.75-.16-.32c.07-.12.11-.25.14-.38.08-.38.13-.55.16-.84a35.34 35.34 0 0 1 .02-.4h-.01l-.01-.16.08-.95c.15-.2.23-.33.25-.42l.43-1.44a1.78 1.78 0 0 1 .33-.6.04.04 0 0 1 .04 0l.02.03c.01.03.03.08.03.14l-.04.3a.02.02 0 0 0 .02 0c.1-.1.15-.22.17-.36l.09-.3c0-.02.01-.03.02-.03.02-.03.04-.03.03.01-.02.18-.01.35.02.53Z" fill="#BD8AC1"/><path d="m13.82 6.8.08.5c-.12.12-.26.14-.44.06a.05.05 0 0 1-.02-.05c.02-.12.08-.2.19-.3l.11-.1a.87.87 0 0 0-.32-.12l-.02-.04.42.05Z" fill="#8BDFD2"/><path d="M12.22 6.8c.11.11.24.16.4.15l-.18 1.45c-.05.24-.1.52-.18.84-.08.32-.2.6-.37.86a1.05 1.05 0 0 0-.3-.6l-.99-.99a.87.87 0 0 0-.2-.16c-.23-.12-.5-.03-.64.19l-.04-.32-.03-.6.37-.37c.38.2.76.23 1.19.2l-.4.39a.75.75 0 0 0-.15.2c-.12.31.1.64.4.68.15.02.3-.03.43-.15.31-.29.42-.64.33-1.05.1-.24.22-.48.36-.72Z" fill="#87B6A8"/><path d="m13.92 7.46.02.12c-.2.13-.42.25-.66.37a.61.61 0 0 0-.16.12c-.04.04-.03.04.01.03h.03c-.06.1-.08.18-.07.24.03.17.14.3.31.36h-.14c-.03.1-.12.24-.24.2-.13-.02-.2-.2-.2-.3-.05-.41.23-.69.54-.9.23-.06.4-.1.56-.24Z" fill="#76C1E6"/><path d="M13.96 7.73a.44.44 0 0 1-.18.12c-.22.07-.4.1-.52.25-.13.14-.13.38.07.47l.27.08a23.77 23.77 0 0 0 .38.06c0 .02 0 .03-.02.02a2.92 2.92 0 0 0-.24-.02c-.03 0-.03 0 0 .01l.04.02-.36-.04c-.17-.07-.28-.19-.3-.36-.02-.06 0-.15.06-.24 0 0 0-.01 0 0h-.03c-.04.01-.05 0-.01-.03.05-.05.1-.1.16-.12.24-.12.46-.24.66-.37l.02.15ZM9.69 7.62l.03.6c-.13.5-.18 1.03-.25 1.54-.23-.12-.43-.09-.61.09l-.34.33.03-.54.02-.54c.02-.27.03-.55.02-.83.21.08.4.05.54-.09l.56-.56Z" fill="#8F91CF"/><path d="M4.86 7.69c-.11.37-.21.72-.4 1.09l.09-.42.15-.46a.4.4 0 0 1 .16-.21Z" fill="#87B6A8"/><path d="M13.36 7.7c-.31.21-.59.49-.54.9 0 .1.07.28.2.3.12.04.2-.1.24-.2l.6.1c.08.02.08.04 0 .04-.17.02-.37.07-.58.15a.67.67 0 0 0-.2.1.04.04 0 0 0-.01.04c.02.3.15.53.4.68.16.09.33.13.5.13-.02.34-.06.68-.1 1.01a4.22 4.22 0 0 1-.57 1.64 2.3 2.3 0 0 1-.55.59c.07-.3.11-.57.14-.79a4.1 4.1 0 0 0-.05-1.32 220 220 0 0 0-.13-.65 4.67 4.67 0 0 1-.08-.8V8.6c.07-.27.17-.53.4-.7.08-.07.2-.13.33-.19Z" fill="#7FD5E7"/><path d="M13.96 7.87c-.1.06-.22.1-.33.15a.78.78 0 0 0-.25.12.5.5 0 0 0-.14.25v.04c.02.05.08.1.18.11a18.24 18.24 0 0 0 .43.1c0 .02.02.02.03.03l.11.04.01.07-.24-.04-.04-.02a2.93 2.93 0 0 1 .24 0c.02.02.02.01.02 0V8.7c-.06-.02-.19-.03-.38-.06l-.27-.08c-.2-.1-.2-.33-.07-.47.13-.15.3-.18.52-.25.05-.01.1-.05.18-.12v.14Z" fill="#7391C6"/><path d="m13.96 7.87.04.84-.12-.04a.06.06 0 0 1-.03-.02 18.24 18.24 0 0 1-.44-.1c-.09-.03-.15-.07-.16-.12v-.04a.5.5 0 0 1 .13-.25.78.78 0 0 1 .25-.12l.33-.15Z" fill="#7985AB"/><path d="M8.6 8.27a11.15 11.15 0 0 1-.05 1.37l-.03.54-1.2 1.2-.21-1.18a.94.94 0 0 0 .15-.16.5.5 0 0 0-.23-.72.47.47 0 0 0-.3-.03.58.58 0 0 0-.25.14c-.15.12-.26.28-.33.46l.03-1.42.03-.22c.06.1.11.17.16.22l1 1a1 1 0 0 0 .26.2c.21.1.46 0 .6-.18a.5.5 0 0 0-.09-.65c.06-.1.1-.19.11-.27.03-.18.05-.38.06-.62.05.15.15.26.28.32Z" fill="#84D0D8"/><path d="m6.14 8.08.07.17-.03.22a8.6 8.6 0 0 0-.27 1.64l-.15 2.46-.23.8a2.47 2.47 0 0 1-.91-.92l.18-.75a7.8 7.8 0 0 0 .29-1.24c.1-.47.27-.94.51-1.4a.62.62 0 0 1 .13-.16c.04-.04.06-.08.08-.12.05-.06.06-.05.05.02a47.9 47.9 0 0 1-.09.66c.01.02.02.02.03 0 .08-.15.13-.31.16-.49.05-.3.1-.6.18-.9Z" fill="#DDABBB"/><path d="m9.72 8.22.04.32c-.1.18-.1.35 0 .52l.18.2c-.07.46-.1.94-.12 1.41a.48.48 0 0 0-.4.16c-.18.2-.2.4-.05.63l-.28 1.51c-.05.33-.08.67-.09 1.03l-.84-.02.08-.48.23-1.87 1.08-1.09c.24-.23.19-.6-.09-.78.08-.51.13-1.03.26-1.54Z" fill="#BD8AC1"/><path d="m12.43 8.4.2.19v1.03c.01.27.03.55.08.8l.13.65c.09.45.1.9.05 1.32-.03.22-.07.48-.14.79l-.3.2-.12-1.41a6.2 6.2 0 0 0-.1-.86 1.46 1.46 0 0 0-.36-.66l.02-.35c.17-.26.3-.54.37-.86l.17-.84Z" fill="#8BDFD2"/><path d="m6.18 8.47-.03 1.42c-.1.35-.04.67.17.95-.01.41-.05.81-.13 1.2a2.1 2.1 0 0 0-.43.53l.15-2.46c.04-.56.13-1.1.27-1.64Z" fill="#A8CEA7"/><path d="m13.4 8.7.36.04.24.04-.03 1.16a.97.97 0 0 1-.5-.13.8.8 0 0 1-.4-.68l.01-.04a.67.67 0 0 1 .2-.1c.21-.08.41-.13.59-.15.07 0 .07-.02 0-.03a10.2 10.2 0 0 0-.6-.11h.13Z" fill="#A5E0BB"/><path d="M11.4 10.7c-.24.23-.44.49-.61.78l-.54-.54c-.13-.14-.25-.25-.43-.27.01-.47.05-.95.12-1.42l1.46 1.46Z" fill="#A8CEA7"/><path d="M4.4 9.37a4.7 4.7 0 0 1-.12 2.27c-.13-.5-.2-1-.24-1.51.08-.22.14-.38.2-.49.07-.09.12-.18.16-.27Z" fill="#79A9A8"/><path d="m7.1 10.2.22 1.17-.22.22v.04a1 1 0 0 0 .77.26c-.12.43-.18.87-.26 1.31-.05.25-.12.48-.2.72l-.54-.08-.05-.79-.04-1.27c0-.3-.05-.66-.14-1.11l.47-.47Z" fill="#8BDFD2"/><path d="M4.7 10.54c-.02.1-.04.19-.08.28l-.07.27a68.52 68.52 0 0 1-.17.85l-.05-.18a128.4 128.4 0 0 0 .3-1.26h.02l.05-.14c0-.02.01-.02.01 0v.18Z" fill="#79A9A8"/><path d="M4.76 10.35v.16h.03a.01.01 0 0 1 0 .02l-.03.38c-.03.29-.08.46-.16.84a1.5 1.5 0 0 1-.14.38l-.08-.2.04-.23a68.52 68.52 0 0 0 .2-.88l.09-.28.05-.2Z" fill="#87B6A8"/><path d="M12.45 13.39c-.31.16-.64.29-1 .37l-.82-1.95.27-.18.01-.02a.03.03 0 0 0 0-.02l-.12-.11c.17-.3.37-.55.6-.77l.2.2h.03c.12-.14.2-.29.25-.46.18.19.3.41.35.66.05.22.1.59.11.86l.12 1.42Z" fill="#A5E0BB"/><path d="M6.64 10.67c.09.45.14.82.14 1.1a61.52 61.52 0 0 0 .1 2.07l-.34-.08c.02-.54.02-1.08-.03-1.63l-.11-1.21.24-.25Z" fill="#7EE7B0"/><path d="m6.4 10.92.11 1.21c.05.55.05 1.09.03 1.63l-.3-.09c.01-.54 0-1.08-.05-1.63.08-.39.12-.79.13-1.2.02.04.05.07.07.08Z" fill="#8FE794"/><path d="M9.37 11.46c.33.4.76.54 1.26.35l.83 1.95a6.7 6.7 0 0 1-.8.15c-.55.06-1.1.1-1.66.09 0-.36.04-.7.09-1.03.07-.45.17-.95.28-1.5Z" fill="#CCCBB4"/><path d="M8.47 11.63a1195.64 1195.64 0 0 0-.31 2.35l-.32-.02c.05-.36.07-.71.09-1.07 0-.07.02-.18.06-.32.08-.26.12-.5.17-.74l.06-.03c-.03.16-.05.31-.05.46 0 .04 0 .04.01 0 .06-.15.1-.31.1-.5l.19-.13Z" fill="#DDABBB"/><path d="M8.16 11.83c-.05.24-.1.48-.17.74-.04.14-.06.25-.06.32-.02.36-.04.71-.09 1.07l-.42-.04c.07-.24.14-.47.19-.72.08-.44.14-.88.26-1.3l.3-.07Z" fill="#A8CEA7"/><path d="M6.2 12.04c.04.55.05 1.09.03 1.63a3.22 3.22 0 0 1-.7-.3l.23-.8c.12-.2.26-.38.43-.53Z" fill="#B6DD79"/><defs><linearGradient id="a" x1="3.35" y1="3.12" x2="21.9" y2="24.43" gradientUnits="userSpaceOnUse"><stop stop-color="#1A1E21"/><stop offset="1" stop-color="#06060A"/></linearGradient></defs></svg>