<!-- by TradingView --><svg width="18" height="18" viewBox="0 0 18 18" xmlns="http://www.w3.org/2000/svg"><path fill="url(#ajlu5pazg)" d="M0 0h18v18H0z"/><path d="M9 4a7.83 7.83 0 0 1 4.32 1.39c.35.2.68.5.68.92v5.1c0 .68-.33 1.34-.96 1.78-.5.35-1.2.8-1.9 1.15-.7.35-1.48.66-2.14.66-.66 0-1.44-.3-2.13-.66-.71-.36-1.4-.8-1.9-1.15A2.16 2.16 0 0 1 4 11.4V6.3c0-.42.33-.72.68-.92A8.04 8.04 0 0 1 9 4ZM5.28 6.22C5 6.38 5 6.49 5 6.55v4.62c.13.48.2.93.61 1.22.5.34 1.02.76 1.68 1.1.67.34 1.29.56 1.71.56.42 0 1.04-.22 1.71-.56.66-.34 1.19-.76 1.68-1.1.41-.29.61-.74.61-1.22V6.55c0-.06 0-.17-.28-.33C11.74 5.64 10.85 4.94 9 5c-1.85.06-2.74.64-3.72 1.22Z" fill="#fff"/><path d="M5.74 8.47 4.25 9.98l.35 2.77.84-.29c1.22-.28 1.94-.65 2.15-.92.3.24.88.17 1.13.11h.84c.38 0 .3.45.16.64-.12.16-.34.4-.46.53h-.33c-.03 0-.06.01-.08.03-.24.21-.34.5-.37.7-.01.05.04.1.11.1h.42l.59-.42c.1.07.16.08.23.08.26 0 .27-.42.35-.63.15-.41.32-.64.32-1 0-.45-.4-.6-.62-.6-.31-.03-.32-.2-.15-.35.16-.14.44-.35.58-.29.21.1.4.4.48.59.07.15.16.17.2.17v.1c-.12.02-.3.26-.27.42.1.37.3.6.43.6.1 0 .23-.25.28-.37.07-.19.17-.68.12-1-.02-.14-.5-.48-.68-.67l-.2-.23c-.14-.27-.35-.33-.45-.33-.27 0-.42.26-.67.26-.56 0-.53-.79-.52-.9 0-.12-.01-.19-.22-.37-.21-.19-.22-.72.09-.72.25 0 .33.35.34.53.02.27 0 .96.54.96.45 0 .57-1.07.61-1.4.05-.32.2-.8.42-.8.18 0 .22.29.22.43.5-.74-.4-1.15-.53-1.25-.1-.07-.13-.17-.13-.2V6c-.1.07-.32.06-.42.04-.37-.58-1.25-.33-1.8-.26-.23-.3-.43-.2-.5-.13l-.37.5a.31.31 0 0 1-.25.11H6.4c.36.1.56.45.2.59-.3.1-.57-.11-.66-.23-.03.22.07.38.2.55.21.27.13.37.05.38-.5-.04-.85.42-.9.43.55-.09.59.32.44.48Z" fill="#fff"/><defs><linearGradient id="ajlu5pazg" x1="3.35" y1="3.12" x2="21.9" y2="24.43" gradientUnits="userSpaceOnUse"><stop stop-color="#1A1E21"/><stop offset="1" stop-color="#06060A"/></linearGradient></defs></svg>