<!-- by TradingView --><svg width="18" height="18" viewBox="0 0 18 18" xmlns="http://www.w3.org/2000/svg"><path fill="#F0F3FA" d="M0 0h18v18H0z"/><circle cx="9" cy="9" r="6" fill="url(#a)"/><circle cx="9" cy="9" r="5.65" fill="url(#b)"/><path fill-rule="evenodd" d="M9 14A5 5 0 1 0 9 4a5 5 0 0 0 0 10Zm0-.36a4.64 4.64 0 1 0 0-9.28 4.64 4.64 0 0 0 0 9.28Z" fill="url(#c)"/><path d="M9 6a3.1 3.1 0 0 1 3 2.77H6c.04-.27.1-.53.2-.77h4.63A2.14 2.14 0 0 0 9 6.92c-.57 0-1.09.24-1.47.62H6.42A3 3 0 0 1 9 6Zm0 6a3.1 3.1 0 0 1-3-2.77h6c-.04.27-.1.53-.2.77H7.17A2.14 2.14 0 0 0 9 11.08c.57 0 1.09-.24 1.47-.62h1.11A3 3 0 0 1 9 12Z" fill="url(#d)"/><defs><linearGradient id="a" x1="3.39" y1="7.31" x2="15" y2="9.48" gradientUnits="userSpaceOnUse"><stop stop-color="#09361C"/><stop offset="1" stop-color="#81BC9D"/></linearGradient><linearGradient id="b" x1="13.67" y1="5.72" x2="4.15" y2="11.9" gradientUnits="userSpaceOnUse"><stop offset=".09" stop-color="#6DAD87"/><stop offset=".25" stop-color="#B8F3D0"/><stop offset=".48" stop-color="#9AD6B4"/><stop offset=".7" stop-color="#559572"/></linearGradient><linearGradient id="c" x1="9.86" y1="4" x2="9" y2="14" gradientUnits="userSpaceOnUse"><stop stop-color="#4E9871"/><stop offset=".49" stop-color="#468566"/><stop offset="1" stop-color="#145034"/></linearGradient><linearGradient id="d" x1="11.21" y1="7.31" x2="6.36" y2="10.6" gradientUnits="userSpaceOnUse"><stop stop-color="#51B582"/><stop offset="1" stop-color="#166B41"/></linearGradient></defs></svg>