<!-- by TradingView --><svg width="18" height="18" viewBox="0 0 18 18" xmlns="http://www.w3.org/2000/svg"><path fill="#F0F3FA" d="M0 0h18v18H0z"/><path d="M15 9A6 6 0 1 1 3 9a6 6 0 0 1 12 0Z" fill="#000001"/><path d="M11.27 3.8a.4.4 0 0 1-.3.19c-.04 0-.05.02-.01.05.08.07.14.16.18.27.02.03.02.06 0 .09 0 .05-.02.05-.04 0-.02-.08-.06-.13-.12-.15a.54.54 0 0 0-.08-.13.28.28 0 0 0-.36.17c-.14.39-.33.76-.57 1.11-.02.03-.02.07 0 .14l-.53.08c-.3.03-.6-.05-.92-.03h-.15a.12.12 0 0 1-.12-.07 14.32 14.32 0 0 0-.75-1.33.16.16 0 0 0-.15 0 .16.16 0 0 0-.06.06l-.16.3c-.19.4-.31.75-.37 1.06-.05.31-.14.61-.17.88a36.91 36.91 0 0 0-.2 4.28c.01.12.06.17.15.22-.02.02-.04.04-.04.06-.02 0-.04 0-.06.02-.17-.12-.33-.15-.48-.1-.12.06-.22.05-.29-.02h-.03l-.03.04c-.01.02 0 .03.01.04.07.03.08.11.04.25-.03.01-.05.03-.06.06-.01.03 0 .05.04.05s.08-.01.1-.03c.2.04.3.08.3.14l-1.1 1.28a.1.1 0 0 1-.17 0c-.3-.37-.6-.7-.79-1.13A5.74 5.74 0 0 1 5.31 4.7l.14-.16a.26.26 0 0 1 .09-.08l.7-.4a5.63 5.63 0 0 1 5.03-.26Z" fill="#021443"/><path d="M11.27 3.8a5.66 5.66 0 0 1 1.25 9.63c-.03.02-.06.02-.08-.02l-.25-.48-.5-.7c-.07-.1-.13-.1-.16.05v.14c.03-.27-.02-.43-.16-.46a1.03 1.03 0 0 1-.16-.37l-.02-.07a.42.42 0 0 1 0-.2c.01-.02.03-.03.05-.02a.1.1 0 0 0 .04 0 142.56 142.56 0 0 1 2.15-2.05c.03-.02.03-.05 0-.09l-.02-.04c-.03-.03-.06-.03-.09 0l-2.14 2.12.06-.59c.08-.1.1-.21.08-.35l.02-.05c.02-.05 0-.08-.05-.08-.07-.01-.14 0-.21.02-.1-.01-.14-.04-.1-.07.28-.06.5-.17.67-.33-.03 0-.02-.05.02-.13.15.02.26-.02.27-.19a.54.54 0 0 0-.11-.38l.08-.25c.05-.12.04-.21-.01-.27.05-.3.01-.55-.12-.77a1.97 1.97 0 0 0-.56-1.27v-.01a.04.04 0 0 1 0-.03l.04-.02c.05-.01.08-.04.07-.1a7.08 7.08 0 0 0-.32-1.85c.03-.1.02-.2-.03-.27.06.02.1.07.12.15.02.05.03.05.05 0v-.1a.63.63 0 0 0-.2-.26c-.03-.03-.02-.05.02-.05a.4.4 0 0 0 .3-.19Z" fill="#05205A"/><path d="M10.98 4.25c.05.08.06.17.03.27a.2.2 0 0 1-.08-.1.25.25 0 0 0-.06-.1.14.14 0 0 0-.09-.02c-.04 0-.07.03-.08.07-.1.48-.07.97.08 1.47a4.72 4.72 0 0 0-.7-.33c-.04-.01-.06 0-.07.04h-.05V5.4c.25-.35.44-.72.58-1.1a.28.28 0 0 1 .36-.18l.08.13Z" fill="#CA7B1C"/><path d="M8.37 5.6c-.02.1-.05.15-.12.17-.23 0-.35-.1-.33-.28a.2.2 0 0 0-.03-.1l-.4-.79a.09.09 0 0 0-.17 0c-.14.33-.14.65-.2 1-.04.18-.14.33-.15.54 0 .22 0 .5.02.83l-.27-.29a.1.1 0 0 1-.03-.1c.08-.3.06-.58.15-.86.12-.38.22-.77.29-1.18l.16-.29a.16.16 0 0 1 .21-.06 14.32 14.32 0 0 1 .75 1.33c.03.04.06.07.12.07ZM11.01 4.52c.19.6.3 1.22.32 1.86 0 .05-.02.08-.07.1a.09.09 0 0 0-.03.01.04.04 0 0 0-.02.03.04.04 0 0 0 .01.03c.34.36.53.78.56 1.25l.01.56c0 .12-.04.15-.14.08l-1.15-.79c.13.15.28.28.46.38.2.11.19.17-.06.15-.2 0-.34.18-.5.28-.27.2-.65.2-.96.13-.42-.07-.8-.46-1.24-.64-.24-.3-.56-.46-.94-.5a.08.08 0 0 1-.05-.13c.1-.11.16-.24.2-.39a.18.18 0 0 1 .09-.12.15.15 0 0 0 .1-.13c0-.05.01-.09.04-.13.22-.26.48-.47.78-.64.12-.07.15-.18.1-.32.32-.02.62.06.92.03a27.4 27.4 0 0 0 .57-.07c.41.17.77.42 1.08.75h.04v-.04l-.35-.42c-.15-.5-.18-1-.08-1.47.01-.04.04-.07.08-.07.03 0 .06 0 .1.02l.05.1a.2.2 0 0 0 .08.1Z" fill="#F49F1F"/><path d="M4.27 8.3c-.18-.23-.25-.4-.16-.68.1-.36.14-.75.37-1.07a.26.26 0 0 0 .04-.11c.09-.54.39-.73.9-.57a.05.05 0 0 0 .06-.07l-.29-.53a.15.15 0 0 1 .12-.21l.26-.02c.07 0 .07-.03.02-.07a.31.31 0 0 1-.12-.23.25.25 0 0 1 .4-.22l.58.45a.16.16 0 0 1 .05.17 7.07 7.07 0 0 0-.59.87c-.03.06-.1.1-.2.1-.05.01-.08.04-.09.08-.01.09 0 .16.05.22.03.03.03.07 0 .1l-.18.3c-.12.24-.1.5-.25.76a.17.17 0 0 0-.03.11c.05.3-.07.52-.35.65-.05.03-.05.05 0 .07.23.09.29.25.19.48a.24.24 0 0 0-.02.1c.02.35.05.8-.13 1.1-.02.04-.01.08.02.1.22.23.26.48.1.76V11l.01.05c.15.16.25.36.3.58.02.08-.01.13-.09.16-.18.07-.32.01-.4-.17-.01-.01-.02-.02-.04-.01a6.47 6.47 0 0 1-.04.02c.04.11.03.21-.06.3a.25.25 0 0 1-.41-.06.88.88 0 0 1-.03-.64.1.1 0 0 0-.03-.1c-.27-.26-.31-.55-.13-.88.02-.04.02-.08-.01-.12a.71.71 0 0 1-.2-.54c.02-.23.03-.38.02-.46-.01-.2 0-.38.04-.57.03-.1.06-.15.11-.18s.11-.04.18-.02c.07.02.08 0 .03-.06Z" fill="#000001"/><path d="M7.13 4.54c-.07.41-.17.8-.3 1.18-.08.28-.06.57-.14.86 0 .04 0 .07.03.1l.27.29c.28-.22.55-.5.79-.83.1-.14.27-.27.47-.37.07-.02.1-.08.12-.18h.15c.05.14.02.25-.1.32-.3.17-.56.38-.78.64a.22.22 0 0 0-.05.13c0 .06-.03.1-.1.13a.18.18 0 0 0-.09.12.95.95 0 0 1-.19.4.08.08 0 0 0 .05.12c.38.04.7.2.94.5-.59-.16-.76.03-1.08.48-.28.38-.07.99-.04 1.38.04.66.1 1.1.4 1.62.09.16.05.2-.11.12a3.68 3.68 0 0 1-.83-.56c-.1-.05-.14-.1-.14-.22a36.9 36.9 0 0 1 .2-4.28c.02-.27.1-.57.16-.88.06-.3.18-.66.37-1.07Z" fill="#CA7B1C"/><path d="M8.25 5.77c-.2.1-.36.23-.47.37-.24.33-.5.6-.8.83v-.83c0-.21.1-.36.14-.54.05-.35.06-.67.2-1a.09.09 0 0 1 .17 0l.4.78a.2.2 0 0 1 .03.11c-.02.18.1.27.33.28Z" fill="#47200C"/><path d="m6.32 5.04-.54-.39a.08.08 0 0 0-.1.02l-.04.04a.08.08 0 0 0 .02.1l.55.4c.03.02.08 0 .1-.03l.03-.03a.08.08 0 0 0-.02-.1ZM5.66 5.47l.05.1c.02.05.05.05.09.02a.19.19 0 0 1 .14-.05.05.05 0 0 1 .05.08l-.17.28a.07.07 0 0 1-.06.03.06.06 0 0 1-.05-.03l-.35-.61c-.03-.06-.01-.1.06-.1l.7.05a.06.06 0 0 1 .05.02.06.06 0 0 1 0 .05l-.01.05a.1.1 0 0 1-.12.06.87.87 0 0 0-.35-.02c-.04 0-.05.03-.03.07Z" fill="#EEEEEF"/><path d="m10.1 6.56-.36-.55c-.07-.1-.05-.12.04-.04.16.12.3.32.41.6v.13c-.03.05-.05.05-.07 0a.18.18 0 0 1-.01-.08.1.1 0 0 0-.02-.06Z" fill="#CA7B1C"/><path d="M4.9 6.79a.4.4 0 0 1-.2-.25.47.47 0 0 1 .15-.47l.14-.1a.4.4 0 0 1 .16-.02.38.38 0 0 1 .35.3.47.47 0 0 1-.14.46.45.45 0 0 1-.15.1.4.4 0 0 1-.16.02.38.38 0 0 1-.15-.04Z" fill="#EEEEEF"/><path d="M5.11 6.62a.23.23 0 1 0 0-.46.23.23 0 0 0 0 .46Z" fill="#000001"/><path d="M12.12 6.15c.04 0 .06.03.06.07 0 .05-.02.07-.07.07a.06.06 0 0 1-.04-.01.05.05 0 0 1-.02-.05c0-.06.03-.08.07-.08Z" fill="#581A77"/><path d="M9.37 6.58c.01.02 0 .05-.03.1-.27 0-.43.08-.5.21a.45.45 0 0 1-.16.06.73.73 0 0 1 .69-.37Z" fill="#5A4226"/><path d="M9.37 6.58c.4-.03.63.38.32.66a.1.1 0 0 0-.03.1c.01.06.05.13.1.2a.16.16 0 0 1-.03.01c-.03.01-.04 0-.06-.02a.54.54 0 0 0-.4-.25c-.04 0-.08 0-.1.03-.1.08-.2.1-.32.09-.05-.01-.08 0-.12.02l-.15.12c-.15-.2-.12-.4.1-.59.06 0 .11-.03.16-.06.29-.05.56.02.8.22.05.04.08.03.07-.04l-.03-.27a.1.1 0 0 0-.08-.09.84.84 0 0 0-.26-.04c.04-.04.05-.07.03-.1Z" fill="#CA7B1C"/><path d="M4.67 6.72 4.6 6.7a.06.06 0 0 0-.07.03l-.18.5c0 .03 0 .06.04.07l.06.02c.03.02.06 0 .07-.03l.18-.5a.06.06 0 0 0-.03-.07Z" fill="#EEEEEF"/><path d="M9.34 6.67c.08 0 .17.01.26.04a.1.1 0 0 1 .08.09l.03.27c0 .07-.02.08-.07.04a.94.94 0 0 0-.8-.22c.07-.13.24-.2.5-.22ZM10.95 6.69l.05.01c.06.02.06.03 0 .06-.13.05-.2.13-.23.23-.01.03-.03.05-.06.06a.05.05 0 0 1-.05-.01.05.05 0 0 1-.02-.04c0-.09.03-.18.07-.26a.26.26 0 0 1 .24-.05Z" fill="#FBF4AC"/><path d="M10.95 6.69c.03 0 .07 0 .11-.03.06.18-.04.29-.3.33.03-.1.12-.18.25-.23.05-.03.05-.04 0-.06l-.06-.01Z" fill="#CA7B1C"/><path d="m4.9 6.89-.04-.01a.08.08 0 0 0-.1.05l-.12.37c-.01.05.01.1.06.11h.03c.04.02.09 0 .1-.04l.12-.38a.08.08 0 0 0-.06-.1ZM5.3 7.02a.95.95 0 0 0-.1.35.13.13 0 0 1-.1.1l-.04.01H5c-.05-.01-.07-.04-.06-.1l.11-.34a.13.13 0 0 1 .12-.1l.05-.01c.09-.02.1.01.07.09Z" fill="#C9CACC"/><path d="m9.77 7.54.07.11c.01.02 0 .04-.02.05l-.42.16c-.28.1-.43-.08-.68-.15-.22-.05-.27-.11-.14-.17l.15-.12a.14.14 0 0 1 .12-.02c.12.02.22-.01.31-.1a.14.14 0 0 1 .11-.02c.17.02.3.1.4.25.01.02.03.03.06.02l.04-.01Z" fill="#021443"/><path d="m11.39 7.44-.41.2a.08.08 0 0 1-.09-.02l-.1-.08a.08.08 0 0 1 0-.13l.18-.14a.08.08 0 0 1 .06-.02l.33.04a.08.08 0 0 1 .03.15Z" fill="#17181A"/><path d="M4.58 7.5c-.2.16-.22.33-.08.5a.2.2 0 0 0 .32 0 .2.2 0 0 0 .04-.11.62.62 0 0 0-.05-.24V7.6l.03-.04.04-.02a.05.05 0 0 1 .07.02c.46.75-1.01 1.02-.67 0a.12.12 0 0 1 .08-.08l.18-.06a.05.05 0 0 1 .04.08Z" fill="#EEEEEF"/><path d="M9.3 7.75c.1-.02.17-.1.16-.17-.01-.08-.1-.13-.2-.11-.1.01-.17.09-.16.16.02.08.1.13.2.12Z" fill="#3AA1D7"/><path d="M11.78 7.8c.13.22.17.47.12.77-.3.15-.54.12-.71-.09.02-.06.07-.06.13-.02.04.02.08.03.12.02.04 0 .05-.02.02-.05-.4-.58-1 .23-1.41.3-.3.05-.6 0-.91-.12a1.4 1.4 0 0 1-.37-.25c-.1-.1-.38-.21-.82-.32-.28-.06-.5.06-.65.34-.1.15-.13.37-.13.65 0 .51-.03 1.06.11 1.55l.17.58c.05.16.18.28.22.46.01.04.03.06.06.08.43.2.88.35 1.37.42l1 .16-.02.07a8.69 8.69 0 0 1-2.53-.56 1.22 1.22 0 0 1-.61-.3l-.44-.44c0-.02.02-.04.04-.06.28.24.56.43.83.56.16.08.2.04.1-.12a3.4 3.4 0 0 1-.4-1.62c-.02-.39-.23-1 .05-1.38.32-.45.49-.64 1.08-.48.44.18.82.57 1.24.64.31.06.69.06.96-.13.16-.1.3-.29.5-.28.24.02.26-.04.06-.15a1.73 1.73 0 0 1-.46-.38l1.15.79c.1.07.15.04.14-.08l-.01-.56ZM6.8 7.8l.01-.07c0-.01 0-.02.02-.02l.02-.01c.07 0 .11.04.12.1 0 .03 0 .07-.04.1a.18.18 0 0 1-.15.05c-.04-.01-.06-.03-.05-.08 0 0 .01-.02.03-.02a.08.08 0 0 0 .04-.06Z" fill="#5A4226"/><path d="M13.54 8.63h-.5a.12.12 0 0 1-.11-.2l.27-.42a.12.12 0 0 1 .21 0l.24.44a.12.12 0 0 1-.1.18Z" fill="#581A77"/><path d="M7.95 8.04c-.72.24-.62.72-.69 1.34a.09.09 0 0 0 .05.1l.16.03c-.01.03 0 .06.04.09l.07.07c.02.06-.01.14-.1.25-.04-.01-.05.04 0 .14.14.37.3.73.48 1.09.22.42.5.6.92.73.14.04.17.12.22.24a4.55 4.55 0 0 1-1.37-.42.1.1 0 0 1-.06-.08c-.04-.18-.17-.3-.22-.46l-.17-.58c-.14-.49-.1-1.04-.11-1.55 0-.28.04-.5.13-.65.15-.28.37-.4.65-.34Z" fill="#BDA475"/><path d="M7.95 8.04c.44.1.71.21.82.32.14.12.26.2.37.25-.1.12-.14.31-.14.58 0 .25.13.4.37.44.03 0 .05.02.06.05l.01.03c0 .04.03.05.06.06l.62.02c-.33.04-.76-.06-1.04.07a.22.22 0 0 1-.12.03l-.71-.06a.24.24 0 0 1-.12-.05.59.59 0 0 0-.3-.11.03.03 0 0 0-.04.02v.02h.02c.33.16.65.15 1 .22 0 .18.02.35.03.53.05.73.6 1.21 1.3 1.3.31.02.55.05.67-.26a11.44 11.44 0 0 0 .31-1.05.1.1 0 0 0-.11-.07c-.08.02-.15 0-.19-.05.04-.06.13-.1.26-.14a.45.45 0 0 1 .2-.02c.06 0 .08.03.06.08l-.02.05c-.07.1-.1.21-.08.35l-.06.59.01.28.02.07c0 .2-.1.36-.26.5-.22.16-.5.22-.85.19l-1-.16c-.05-.12-.08-.2-.22-.24-.43-.13-.7-.31-.92-.73-.18-.36-.34-.72-.49-1.1-.04-.1-.03-.14.02-.13.2 0 .29-.13.23-.36-.02-.07-.05-.1-.09-.11-.05-.01-.1 0-.16.06a.42.42 0 0 1-.16-.04.1.1 0 0 1-.05-.1c.07-.6-.03-1.1.7-1.33Z" fill="#D6C389"/><path d="M11.19 8.48c-.15.02-.23.1-.26.23-.04.1-.04.19.01.26.03.03.03.06 0 .1-.03.05-.02.1.02.13a.07.07 0 0 1 .03.05.06.06 0 0 1-.02.05l-.03.03c-.04.04-.04.07 0 .1.08.06.13.12.14.18-.3.16-.61.22-.96.18l-.62-.02c-.03 0-.05-.02-.06-.06v-.03a.07.07 0 0 0-.07-.05c-.24-.04-.36-.19-.37-.44 0-.27.04-.46.14-.58.32.13.62.17.9.12.41-.07 1.02-.88 1.42-.3.03.03.02.05-.02.05s-.08 0-.12-.02c-.06-.04-.11-.04-.13.02Z" fill="#FBF4AC"/><path d="M11.19 8.48c.17.21.4.24.7.1.06.05.07.14.02.26l-.08.25c-.39.47-.78-.03-.9-.38.03-.13.12-.2.26-.23Z" fill="#000001"/><path d="M4.19 8.53h-.01c-.05 0-.1.03-.1.08l-.04.47c0 .05.04.1.09.1.06 0 .1-.03.1-.08l.04-.48c0-.05-.03-.09-.08-.1Z" fill="#EEEEEF"/><path d="M4.84 8.6h-.07a.07.07 0 0 0-.08.07l-.03.43c0 .04.03.08.07.08h.07c.04 0 .07-.02.08-.06l.03-.44a.07.07 0 0 0-.07-.08ZM4.5 8.65h-.04c-.05-.01-.1.03-.1.07l-.02.36c0 .04.03.09.08.1h.04c.05 0 .1-.04.1-.09l.02-.35c0-.05-.03-.1-.08-.1Z" fill="#C9CACC"/><path d="M10.93 8.7c.12.36.51.86.9.4.08.1.12.22.11.37 0 .17-.12.21-.27.2l-.12-.13c-.02-.03-.05-.04-.09-.02a.93.93 0 0 1-.38.1.33.33 0 0 0-.14-.18c-.04-.04-.04-.07 0-.11l.03-.03.01-.02v-.03a.07.07 0 0 0-.02-.05c-.04-.04-.05-.08-.01-.13.02-.04.02-.07 0-.1-.06-.07-.06-.16-.02-.26Z" fill="#D6C389"/><path d="m11.2 11.52-.02-.28 2.14-2.12c.03-.03.06-.03.09 0l.03.04c.02.04.02.07-.01.1a142.56 142.56 0 0 0-2.15 2.04.1.1 0 0 1-.04 0c-.02 0-.04 0-.04.03a.42.42 0 0 0 0 .19Z" fill="#3AA1D7"/><path d="M4.5 9.27a.07.07 0 0 1 .12.04l-.02.3a.07.07 0 0 1-.14.02.35.35 0 0 1 .04-.36Z" fill="#C9CACC"/><path d="M4.85 9.35c.18.85-.76 1-.8.3-.02-.15.04-.26.18-.31.06-.03.09 0 .08.06a.63.63 0 0 1-.07.2.21.21 0 0 0 .23.31c.27-.05.23-.31.2-.51-.02-.06 0-.09.06-.1h.04a.07.07 0 0 1 .08.05Z" fill="#EEEEEF"/><path d="M7.49 9.92c.08-.1.1-.2.09-.25 0-.02-.03-.04-.07-.07-.04-.03-.05-.06-.04-.1.06-.04.11-.06.16-.05.04 0 .07.04.09.1.06.24-.02.36-.23.37Z" fill="#5A4226"/><path d="M11.65 9.8c-.17.15-.39.26-.67.32l-.91.14c-.02 0-.03.01-.03.03 0 .01 0 .02.03.02l.75.02c.05.05.1.07.19.05a.1.1 0 0 1 .11.12c-.1.36-.2.7-.31 1-.12.31-.36.28-.66.25-.72-.08-1.26-.56-1.3-1.3l-.05-.52c.7.09 1.25.09 1.66 0 .5-.11.9-.16 1.19-.14Z" fill="#FBF4AC"/><path d="M10.98 10.12c-.04.03 0 .06.1.07-.13.04-.22.08-.26.14l-.76-.02c-.01 0-.02 0-.02-.02s.01-.03.03-.03l.91-.14Z" fill="#5A4226"/><path d="M4.63 11.05h-.16a.4.4 0 0 1-.15-.07.45.45 0 0 1-.17-.29.46.46 0 0 1 .06-.33.38.38 0 0 1 .42-.17c.06.01.1.04.15.07.05.04.08.08.11.13a.47.47 0 0 1 0 .49.4.4 0 0 1-.26.17Z" fill="#EEEEEF"/><path d="M11.32 10.3c.02.14 0 .25-.08.35a.45.45 0 0 1 .08-.35Z" fill="#696868"/><path d="M4.55 10.86a.24.24 0 1 0 0-.48.24.24 0 0 0 0 .48Z" fill="#000001"/><path d="M6.44 11.07c.05.18.22.32.5.42.17.16.37.26.61.3l1.4 1.05.63.35c.04.03.07.02.1-.01.1-.1.15-.2.18-.33a.82.82 0 0 0 .22-.5l.02-.07c.34.03.63-.03.85-.19.05-.05.07-.03.07.05l-.06.1c0 .06.01.14.05.24.03.62.2 1.2.53 1.72l-1.05.38.05-1.2a.12.12 0 0 0-.04-.09l-.4-.38a.08.08 0 0 0-.11.02l-.23.38a.08.08 0 0 0 0 .1c.3.36.5.75.6 1.18-.35.14-.72.2-1.12.17-.59-.03-1.05.03-1.69-.18a.08.08 0 0 1-.06-.07l-.04-.25-.01-.03H7.4a.04.04 0 0 0-.04.02.23.23 0 0 0 0 .16c.03.1 0 .14-.12.1a5.65 5.65 0 0 1-2.32-1.39.13.13 0 0 1 0-.17L6 11.65c.04-.05.08-.05.12 0l1.23 1.5c.03.04.06.06.1.06l.58.07a.05.05 0 0 1 .05.05.05.05 0 0 1-.03.05l-.29.12a.08.08 0 0 0-.02.13l.98.9h.07c.04-.02.05-.04.02-.08l-.85-.81a.05.05 0 0 1-.01-.04.05.05 0 0 1 .02-.03l.37-.27c.15-.1.13-.15-.05-.15a2.5 2.5 0 0 1-.76-.1.16.16 0 0 1-.08-.04l-1.3-1.5a.06.06 0 0 0-.06-.02h-.05c0-.05-.1-.1-.3-.13a.37.37 0 0 0 .17-.1c.04-.04.02-.06-.06-.05a.59.59 0 0 0-.18.07c.03-.14.02-.22-.05-.25-.02 0-.02-.02 0-.04l.03-.04h.02c.07.07.17.08.3.03.14-.06.3-.03.47.09Z" fill="#17181A"/><path d="M6.44 11.07a.17.17 0 0 1 .06-.02l.44.44c-.28-.1-.45-.24-.5-.42Z" fill="#9C9DA1"/><path d="M4.58 11.64c.03.03.04.06.04.08-.06.18-.13.19-.22.01-.27-.55.6-.93.8-.18.02.04 0 .06-.03.07l-.09.02c-.04.01-.06 0-.06-.04-.02-.21-.13-.3-.33-.28a.19.19 0 0 0-.11.32Z" fill="#EEEEEF"/><path d="M5.74 11.36a.18.18 0 0 1-.1.03c-.04 0-.05-.02-.04-.05 0-.03.03-.05.06-.06a.59.59 0 0 1 .2-.07c.07-.01.09 0 .05.06a.36.36 0 0 1-.17.09Z" fill="#5A4226"/><path d="M11.21 11.59c.03.13.08.25.17.37l-.36.18c0-.08-.02-.1-.07-.05.17-.14.25-.3.26-.5Z" fill="#9C9DA1"/><path d="M7.55 11.79c.82.32 1.67.5 2.53.56 0 .17-.08.33-.22.5l-.32.09a.22.22 0 0 1-.12 0c-.16-.03-.3-.18-.47-.1l-1.4-1.05ZM11.37 11.96c.14.03.19.19.15.46.04.09.02.16-.05.22-.09-.16-.26-.3-.5-.4l.05-.1.35-.18Z" fill="#C9CACC"/><path d="M12.2 12.93c-.12.06-.1.18.02.37.05.06.05.17.02.33 0 .02 0 .02.02.02h.03a.01.01 0 0 0 .01 0v-.02c0-.06.02-.1.08-.11a.05.05 0 0 1 .05.02l.01.03v.02c-.2.24-.43.42-.72.53.02-.57-.1-1.02-.37-1.38l.12-.1c.07-.06.09-.13.05-.22v-.14c.04-.15.1-.16.18-.04l.5.7Z" fill="#17181A"/><path d="M10.96 12.23c.25.11.42.25.51.41l-.12.1-.28-.28a.04.04 0 0 0-.05 0c-.01 0-.02.01-.01.02a.65.65 0 0 1-.05-.25Z" fill="#696868"/><path d="M11.35 12.74c.27.36.4.81.37 1.38l-.18.08a3.63 3.63 0 0 1-.52-1.75l.05.01.28.28ZM8.95 12.84c.17-.08.31.06.47.1h.12l.32-.09a.67.67 0 0 1-.17.33c-.04.03-.07.04-.11.01l-.63-.35ZM10.5 14.58l-.14.01c-.1-.43-.3-.82-.6-1.18a.08.08 0 0 1 0-.1l.23-.38a.08.08 0 0 1 .08-.03l.03.01.4.38a.12.12 0 0 1 .04.1l-.05 1.19Z" fill="#9C9DA1"/></svg>