<!-- by TradingView --><svg width="18" height="18" viewBox="0 0 18 18" xmlns="http://www.w3.org/2000/svg"><path fill="#F0F3FA" d="M0 0h18v18H0z"/><path d="M5.8 6.28c1.47-.67 3.88-1.54 5.94-1.2 1.67.27 2.74 1.5 2.05 3.02-.28.59-.79 1.1-1.4 1.51-.9.6-2.39 1.15-3.65 1.17-.38 0-.85-.06-1.24-.22-.93-.4-.8-1.42 0-1.89.78-.45 2-.49 2.52.02a3.2 3.2 0 0 0-1.6 0c-.75.2-1.02.63-.92.99.12.42.53.58 1.01.6a4.7 4.7 0 0 0 2.1-.41 2.9 2.9 0 0 0 1.52-1.38c.24-.6.17-1.1-.1-1.52-.68-1.02-2.1-1.19-3.3-1.13-1 .04-2.08.23-2.94.44Zm6.4 5.44c-1.47.67-3.88 1.54-5.94 1.2-1.67-.27-2.74-1.5-2.05-3.02.28-.59.79-1.1 1.4-1.51.9-.6 2.39-1.15 3.65-1.17.38 0 .85.06 1.24.22.93.4.8 1.42 0 1.89-.78.45-2 .49-2.52-.02a3.2 3.2 0 0 0 1.6 0c.75-.2 1.02-.63.92-.99-.12-.42-.53-.58-1.01-.6a4.7 4.7 0 0 0-2.1.41 2.9 2.9 0 0 0-1.52 1.38c-.24.6-.17 1.1.1 1.52.68 1.02 2.1 1.19 3.3 1.13 1-.04 2.08-.23 2.94-.44Z" fill="#4B59F2"/></svg>