<!-- by TradingView --><svg width="18" height="18" viewBox="0 0 18 18" xmlns="http://www.w3.org/2000/svg"><path fill="url(#agm2zue21)" d="M0 0h18v18H0z"/><path fill-rule="evenodd" d="M5.06 4.06v4.37h2.37V6.57h1.74c1.3 0 2.36 1.1 2.36 2.47a2.42 2.42 0 0 1-2.36 2.47h-.29v2.42h.34c2.6 0 4.72-2.2 4.72-4.93a4.83 4.83 0 0 0-4.72-4.94H5.06Zm2.21.3H5.4l.8 1.16h.7v.1l1.08-.43-.7-.84ZM5.31 7.71V4.65l.68.98v.82l-.68 1.27Zm.08.42h1.79V6.5l-.3-.16v.1h-.64l-.85 1.7Zm3.7-1.87H7.32l-.44-.22v-.16l1.08-.43.11.12h.42l.58.69Zm.8-1.92H7.6l.48.57h.55v.14l1.6-.6-.34-.1Zm-1.26.97 1.79-.68.08.15h.2l.25 2.1c-.22-.22-.84-.68-1.5-.62l-.82-.95Zm2.6 1.77-.28-2.39c.51.2.93.5 1.08.62l.06 1.18-.86.59ZM6.55 9.06H5.42v1.2h1l.47.47v1.14l-.4.43H5.05v1.63H6.6V12.6l.5-.54h1.23v-1.51H7.08L6.55 10v-.95Z" fill="#fff"/><path fill-rule="evenodd" d="M5 4h4.22A4.9 4.9 0 0 1 14 9c0 2.76-2.14 5-4.78 5h-.4v-2.56h.35c1.27 0 2.3-1.07 2.3-2.4 0-1.33-1.03-2.4-2.3-2.4H7.5v1.85H5V4Zm.12.12v4.25h2.25V6.5h1.8a2.48 2.48 0 0 1 2.42 2.53c0 1.4-1.08 2.53-2.42 2.53h-.23v2.3h.28A4.77 4.77 0 0 0 13.88 9c0-2.7-2.09-4.88-4.66-4.88h-4.1Zm.15.17H7.3l.77.93-1.24.5v-.14h-.67l-.89-1.29Zm1.68 1.24.92-.36-.63-.75H5.51l.71 1.03h.73v.08Zm.52-1.24H9.9l.52.16-1.85.7V5h-.52l-.58-.7Zm.27.13.37.44h.58v.11l1.34-.51-.14-.04H7.74Zm-2.5.04.81 1.15v.85l-.8 1.5v-3.5Zm5.2.1.1.17h.22l.27 2.34-.12-.13a2.3 2.3 0 0 0-.57-.4 1.65 1.65 0 0 0-.88-.21h-.03l-.9-1.04 1.91-.72Zm-1.7.78.74.86c.33-.02.65.08.91.22.2.1.36.22.48.32l-.22-1.88h-.18l-.08-.14-1.65.62Zm2.14-.73.1.03c.51.2.94.5 1.09.63l.02.01.06 1.25-.97.67-.3-2.6Zm-5.51.23.56.8v.8l-.56 1.04V4.84Zm5.65-.04.26 2.18.75-.51-.06-1.12c-.15-.12-.5-.36-.95-.55Zm-3.04.58.13.13h.42l.69.82h-1.9l-.5-.24v-.25l1.16-.46Zm-1.03.55v.08l.4.2h1.6l-.48-.57h-.41l-.1-.11-1.01.4Zm-.12.3.4.23V8.2H5.3L6.2 6.4h.63v-.16Zm.12.21v.07h-.67l-.79 1.55h1.62V6.54l-.16-.1ZM5.37 9h1.25v1l.5.48H8.4v1.63H7.13l-.46.5V14H5v-1.76h1.49l.36-.4v-1.08l-.45-.44H5.37V9Zm.12.13v1.06h.95l.53.52v1.19l-.43.46H5.1v1.51h1.44v-1.3l.53-.58h1.2V10.6H7.06l-.56-.55v-.92h-1Z" fill="#A21012"/><defs><linearGradient id="agm2zue21" x1="3.35" y1="3.12" x2="21.9" y2="24.43" gradientUnits="userSpaceOnUse"><stop stop-color="#1A1E21"/><stop offset="1" stop-color="#06060A"/></linearGradient></defs></svg>