<!-- by TradingView --><svg width="18" height="18" viewBox="0 0 18 18" xmlns="http://www.w3.org/2000/svg"><path fill="#F0F3FA" d="M0 0h18v18H0z"/><path d="M14.78 7.39c.22.8.28 1.63.16 2.47a.47.47 0 0 0-.18-.12l-.15.02.02-.05-.03-.02a2.38 2.38 0 0 1-.49-.13.3.3 0 0 0-.17 0l-.1-.01c-.19-.1-.37-.04-.56-.12-.38-.15-.72.05-1.11.05a.15.15 0 0 0-.1.04l-.04.04c-.05.04-.07.03-.06-.03.03-.6.01-1.1-.05-1.5-.2-1.26-.9-3.27-2.35-3.64-.3-.08-.64-.05-1.02.06-.12.08-.24.14-.36.18a.2.2 0 0 0-.07.04l-.2.17a.1.1 0 0 1-.07.02.16.16 0 0 0-.11.05 6.06 6.06 0 0 0-1.55 2.36c-.15.26-.24.54-.29.84l-.13 1.41c-.13-.07-.23-.07-.33 0-.3-.08-.6-.1-.9-.05a2.04 2.04 0 0 0-.74-.02h-.1c-.23-.12-.46-.16-.69-.13A6.01 6.01 0 0 1 14.78 7.4Z" fill="#BFBB9E"/><path d="m14.61 9.76-.76-.08a.07.07 0 0 1-.06-.05c-.01-.03-.04-.05-.07-.05-.17-.02-.32-.01-.5-.08-.34-.13-.7.03-1.05.08-.17.03-.24.16-.2.4-.07.15-.1.3-.1.44 0 .04-.01.07-.03.1a.51.51 0 0 0-.07.19.67.67 0 0 1-.06.22 22.61 22.61 0 0 0-.37.76.07.07 0 0 0 .03.05h.04c.28-.03.55 0 .8.12.09.03.11.1.1.18-.02.05 0 .08.06.07.1-.02.15.02.17.11.03.1.04.2.04.33.02.03 0 .06-.05.08-.05-.05-.05-.13-.02-.24a.14.14 0 0 0-.14-.17c-.11 0-.23 0-.35-.02a.2.2 0 0 0-.21.27c0 .02.02.04.06.08.02.02.05.03.08.02l.3-.1c.04-.02.07 0 .08.03l.13.23-.3.06c-.06.01-.07.04 0 .07l.06.06c.06.07.16.07.25.07.05 0 .06.01.01.03l-.28.13a.19.19 0 0 1-.1.01c-.3-.05-.49.09-.77.12l-.53.07c0-.49-.17-.76-.53-.8-.23-.03-.36.12-.51.25a.05.05 0 0 0-.02.05.05.05 0 0 0 .03.03l.27.08a.12.12 0 0 1 .08.11c0 .15-.01.29-.06.42-.03.08-.08.12-.17.1a2.04 2.04 0 0 0-.76.02h-.09a.23.23 0 0 1-.1-.08c-.02-.02-.04-.03-.07 0-.05.03-.1.02-.12-.04-.05-.08-.14-.14-.22-.2-.15-.11-.48-.12-.67-.15-.11-.01-.2.06-.27.15-.02.02-.02.04 0 .05.2.18.42.2.65.06h.05l.01.03v.02a.66.66 0 0 1-.48.13c-.15-.02-.16 0-.03.08.16.09.35.01.53.04.17.03.3.12.47.1l.23-.03.1-.03a.16.16 0 0 1 .17-.02c.06.1.18.18.34.26.07.04.12.1.15.21 0 .05-.01.07-.05.07l-.73.1a.94.94 0 0 1-.48-.03 8.9 8.9 0 0 0-.67-.2c-.24-.06-.5-.01-.57-.33 0-.03-.03-.04-.06-.03l-.3.15c-.13.08-.12.11.03.1h.08a.13.13 0 0 1 .07.07c.03.05.06.08.1.1.03.02.06.02.08.02.08-.02.15 0 .22.02.04.03.04.04-.01.04-.15.02-.3 0-.44-.04-.13-.04-.27-.02-.4-.01a.1.1 0 0 1-.1-.07c-.06-.11-.16-.16-.31-.14a.15.15 0 0 1-.12-.04c-.03-.02-.04-.05-.02-.08.02-.05 0-.07-.05-.07l-.6.02a5.6 5.6 0 0 1-1.32-1.32c.44-.17.86-.34 1.31-.42.3-.06.61-.17.9-.17a.7.7 0 0 0 .22-.04c.06 0 .1.02.14.1.01.02.02.02.03 0 0-.01.01-.02.03 0l.05.02c.05.08.12.14.2.2.84.59 1.76.77 2.74.56a.52.52 0 0 1 .44-.3.88.88 0 0 0 .34-.09c.13-.08.26-.2.38-.34a4 4 0 0 0 .96-2.88c0-.05-.01-.05-.05-.02a.92.92 0 0 1-.74.21l.02-.05c.08-.02.17-.04.27-.04.3-.01.5-.17.53-.48.02-.34 0-.66-.07-.98-.27-1.23-.9-2.98-2.26-3.35a2.16 2.16 0 0 0-1.02 0c.38-.11.72-.14 1.02-.06 1.44.37 2.16 2.38 2.35 3.65.07.39.08.88.05 1.49 0 .06.02.07.06.03l.04-.04a.15.15 0 0 1 .1-.04c.39 0 .73-.2 1.1-.05.2.08.38.02.58.12h.09a.3.3 0 0 1 .17.01c.16.06.33.1.5.13l.02.02c0 .01 0 .03-.02.05Z" fill="#8B7952"/><path d="M9.57 4.45c-.83.26-1.44.9-1.77 1.7-.1.26-.29.67-.56 1.24-.19.4-.25.86-.18 1.4a.97.97 0 0 1-.26-.4c-.08-.46-.3-.6-.69-.38l-.05.01c-.04.02-.06 0-.05-.04l.18-.71c.32-.9.83-1.68 1.55-2.36a.16.16 0 0 1 .1-.05.1.1 0 0 0 .07-.02l.2-.17a.2.2 0 0 1 .08-.04c.12-.04.24-.1.36-.18.36-.08.7-.08 1.02 0Z" fill="#E9D491"/><path d="M9.57 4.45c1.36.37 2 2.12 2.26 3.35.06.32.09.64.07.98-.02.31-.24.47-.54.48-.1 0-.18.02-.26.04a.26.26 0 0 0-.1.1c-.35.67-.89.84-1.61.51-.06-.03-.14-.13-.25-.31-.14-.11-.34-.17-.6-.17l-.4-.23a1.77 1.77 0 0 0-.44-.17 3.02 3.02 0 0 1-.64-.24c-.07-.54 0-1 .18-1.4.27-.57.46-.98.56-1.24.33-.8.94-1.44 1.77-1.7Z" fill="#F4E7B4"/><path d="m6.19 7.27-.18.7c-.01.05 0 .07.05.05l.05-.01c-.01.05-.05.07-.1.05-.03 0-.05 0-.07.02l-.03.03c.04-.3.13-.58.28-.84Z" fill="#8B7952"/><path d="M6.8 8.4c.04 1.6.41 3.44 2.17 4.03.33.11.59.23.78.34-.98.21-1.9.03-2.74-.56a.94.94 0 0 1-.2-.2.12.12 0 0 0-.05-.03h-.03c-.01.03-.02.03-.03.01-.04-.08-.08-.1-.14-.1a3.75 3.75 0 0 1-.8-2.37l.15-1.4.03-.04A.07.07 0 0 1 6 8.06c.05.02.09 0 .1-.05.38-.21.61-.08.69.38Z" fill="#8B8B8B"/><path d="M6.8 8.4c.05.14.14.27.26.39.2.1.41.18.64.24.17.04.32.1.43.17l.42.23.6.17c.1.18.18.28.24.31.72.33 1.26.16 1.62-.5a.26.26 0 0 1 .09-.11l-.02.05c.29.04.54-.03.74-.21.04-.03.05-.03.05.02a4 4 0 0 1-.96 2.88c-.12.14-.25.26-.38.34a.88.88 0 0 1-.34.08.52.52 0 0 0-.44.3 4.3 4.3 0 0 0-.78-.33C7.21 11.83 6.84 10 6.79 8.4Z" fill="#A9B6A8"/><path d="M4.54 9.47c.34.15.59.25.9.05.1-.07.2-.07.33 0v.16c-.08-.1-.16-.12-.24-.08-.21.1-.4.16-.57.32a.12.12 0 0 1-.08.03h-.62c-.01 0-.02.01-.02.03v.05l.02.02a14.23 14.23 0 0 1 1.46.07v.03a258.35 258.35 0 0 1-1.98.04c-.14 0-.24-.04-.28-.14A.08.08 0 0 0 3.4 10l-.31-.01L3 9.32c.23-.03.46.01.7.12.02.02.06.02.1.01.24-.04.5-.03.73.02Z" fill="#C6AF77"/><path d="M5.44 9.52c-.31.2-.56.1-.9-.05.3-.05.6-.03.9.05Z" fill="#E9D491"/><path d="m14.61 9.76.15-.02c0 .16-.09.24-.25.24h-2.54c-.04-.24.03-.37.2-.4.34-.05.71-.21 1.06-.08.17.07.32.06.49.08.03 0 .06.02.07.05 0 .03.03.05.06.05l.76.08Z" fill="#C6AF77"/><path d="M5.77 9.68c.04.81.28 1.57.8 2.21a.7.7 0 0 1-.23.04c-.29 0-.61.11-.9.17-.45.08-.87.25-1.3.42-.55-.76-.9-1.6-1.06-2.53h.31c.04.01.06.03.08.06.04.1.13.15.27.14h.16l1.79-.02c.02 0 .02 0 .03-.02v-.03H5.7a14.23 14.23 0 0 0-1.47-.1v-.04c0-.02 0-.02.02-.02l.62-.01c.03 0 .06-.01.08-.03.18-.16.36-.21.58-.32.07-.04.15-.02.23.08ZM14.94 9.86a6.02 6.02 0 0 1-9.49 3.98l.6-.02c.05 0 .07.02.05.07-.02.03-.01.06.02.08a.16.16 0 0 0 .12.04c.15-.02.25.03.3.14a.1.1 0 0 0 .1.07c.14-.01.28-.03.4.01.15.05.3.06.45.04.05 0 .05-.01 0-.04a.33.33 0 0 0-.2-.02l-.08-.01a.24.24 0 0 1-.11-.1.13.13 0 0 0-.07-.07.18.18 0 0 0-.08 0c-.15 0-.16-.03-.03-.11l.3-.15c.03-.01.05 0 .06.03.07.32.33.27.57.33.23.06.46.12.67.2.16.05.32.06.48.03l.73-.1c.04 0 .06-.02.05-.07-.03-.1-.08-.17-.15-.21a.9.9 0 0 1-.34-.26c.07-.05.15-.03.24.06a.19.19 0 0 0 .21.03l.67-.32a.1.1 0 0 1 .12.04c.05.07.11.1.2.08.06-.02.06-.04 0-.07a1.75 1.75 0 0 1-.18-.1c-.01 0-.02-.01-.02-.03v-.03a.04.04 0 0 1 .05-.02h.22c.19-.04.37-.06.53-.08.28-.03.46-.17.76-.12l.11-.01.28-.13c.05-.02.04-.03 0-.03-.1 0-.2 0-.26-.07a.34.34 0 0 0-.07-.06c-.06-.03-.05-.06.02-.07l.29-.06c.06.12.17.15.32.1v-.03l-.26-.05c-.04-.01-.05-.04-.03-.08l.04-.04c.06-.02.07-.05.05-.08 0-.13-.01-.24-.04-.33-.02-.1-.08-.13-.17-.11-.06 0-.08-.02-.07-.07.02-.09 0-.15-.08-.18a1.47 1.47 0 0 0-.81-.11h-.04a.06.06 0 0 1-.03-.1c.11-.23.23-.47.37-.72a.67.67 0 0 0 .06-.22c.01-.07.03-.13.07-.19a.21.21 0 0 0 .03-.1c0-.15.03-.3.1-.44h2.54c.16 0 .25-.08.25-.24.07.03.13.07.18.12Z" fill="#E9D491"/><path d="m11.3 11.77.52.3a.1.1 0 0 1 .04.13.1.1 0 0 1-.04.04l-.06.04c-.03.02-.06.02-.08 0a1.37 1.37 0 0 0-.54-.24c-.06 0-.07-.04-.05-.1a.56.56 0 0 1 .13-.16.07.07 0 0 1 .09 0ZM12.2 12.06l-.03.03a.14.14 0 0 1-.16.02 1.85 1.85 0 0 1-.23-.14c-.18-.13-.16-.18.06-.15.11.02.23.06.35.13l.03.02a.07.07 0 0 1 0 .06c0 .01 0 .02-.02.03Z" fill="#C6AF77"/><path d="M11.03 12.13c.47 0 .71.22.74.65 0 .08-.02.09-.08.03a1.4 1.4 0 0 0-.44-.3.18.18 0 0 1-.09-.07l-.15-.28c-.02-.02 0-.03.02-.03ZM12.53 12.63a.08.08 0 0 0-.04.04c-.02.04-.01.07.03.08a2.93 2.93 0 0 0 .27.06v.02h-.01c-.15.05-.26.02-.33-.1l-.12-.23c-.01-.04-.04-.05-.08-.04l-.3.1a.07.07 0 0 1-.08 0 .33.33 0 0 1-.06-.09.2.2 0 0 1 .1-.25.2.2 0 0 1 .1-.02c.13.02.25.02.36.02a.13.13 0 0 1 .11.05.14.14 0 0 1 .03.12c-.03.11-.03.2.02.24ZM10.8 13.35a.57.57 0 0 1-.22.01c-.02 0-.04 0-.05.02v.03c0 .02 0 .02.02.03l.18.1c.06.03.06.05 0 .07-.09.01-.15-.01-.2-.08a.1.1 0 0 0-.12-.03l-.67.31a.19.19 0 0 1-.2-.03c-.1-.1-.18-.11-.25-.06a.16.16 0 0 0-.18.02.18.18 0 0 1-.1.03l-.22.03c-.17.02-.3-.07-.47-.1-.18-.03-.37.05-.53-.04-.13-.08-.12-.1.03-.08.15.02.31-.02.48-.13v-.02l-.01-.02c-.02-.02-.03-.02-.05-.01-.23.14-.44.12-.65-.06-.02-.01-.02-.03 0-.05.06-.09.16-.16.27-.15.19.03.52.04.67.15.08.06.17.12.22.2.03.06.07.07.12.03.03-.02.05-.01.07.01.03.03.06.06.1.07.03.01.06.02.09 0 .24-.04.5-.05.76 0 .08 0 .14-.03.17-.11.05-.13.07-.27.06-.42a.12.12 0 0 0-.08-.1l-.27-.09a.05.05 0 0 1-.03-.03.05.05 0 0 1 .02-.05c.15-.13.28-.28.5-.25.37.04.55.31.54.8ZM11.18 13c-.17 0-.3-.1-.39-.27-.02-.04 0-.07.03-.09.27-.13.6.11.82.3.03.02.05.05.04.08-.04.23-.3.19-.4.04a.12.12 0 0 0-.1-.05Z" fill="#C6AF77"/><path d="M12.06 12.95h.13c.06.01.06.04.01.07-.08.07-.2.08-.35.04a.06.06 0 0 1-.05-.08l.03-.07.02-.03.05-.01a.1.1 0 0 1 .07.04c.03.03.05.04.09.04Z" fill="#E9D491"/><path d="M6.66 13.8c.15.05.28.04.3-.02.02-.05-.08-.14-.22-.19-.15-.05-.28-.04-.3.02-.02.06.08.14.22.2ZM9.16 13.82a.08.08 0 0 1 .05-.03c.03 0 .06 0 .08.03.1.1.2.19.32.26.1.07.1.11-.03.12-.18.02-.35.05-.51.09-.12.02-.2-.02-.23-.13a.79.79 0 0 0-.08-.18c-.05-.08-.03-.12.07-.12h.25a.1.1 0 0 0 .08-.04Z" fill="#C6AF77"/><path d="M10.4 6.68a.25.25 0 0 0-.08.02l-.04-.08a.34.34 0 0 1 .12-.03c.05 0 .1 0 .16.03l-.05.08a.16.16 0 0 0-.1-.02Zm-.63.1-.67.15-.02-.08.67-.16.02.08Zm1.43.1-.38-.1.02-.1.38.12-.02.08Zm-.8-.06a.14.14 0 0 0-.07.05l-.07-.06a.23.23 0 0 1 .13-.08l.1.01.08.07-.07.06a.12.12 0 0 0-.05-.05h-.04Zm.27.01h-.05v-.09h.05v.09Zm-.53.06h-.04v-.1h.04v.1Z" fill="#8B7952"/></svg>