<!-- by TradingView --><svg width="18" height="18" viewBox="0 0 18 18" xmlns="http://www.w3.org/2000/svg"><path fill="url(#a)" d="M0 0h18v18H0z"/><path d="M9.17 4v.06l-.17.1c-.03.01-.05 0-.06-.02l-.03-.05H8.9l-.01.01v.04c0 .03-.02.05-.05.05l-.44.02c-.03 0-.05 0-.07-.03-.03-.03-.04-.08-.04-.13.3-.04.6-.06.89-.05Z" fill="#696868"/><path d="M9.4 4.02c.08.24.2.45.33.65.1.15.27.34.5.59.12.14.18.3.2.48 0 .12-.02.3-.08.54-.01.06 0 .07.03.02l.09-.14c.01-.02.03-.03.06-.02h.02c.02.02.03.03.02.05a9.76 9.76 0 0 0-.34 2.84l.04.02h.03a4 4 0 0 1 .14-.64c.02-.07.03-.06.03 0v.62c0 .05.02.22.09.52.05.22.1.38.18.49.11.16.25.3.4.43.1.08.17.16.23.23a191.52 191.52 0 0 0 .2.25h.03c.02 0 .03-.02.02-.04-.07-.11-.1-.19-.12-.23a.59.59 0 0 0-.14-.21 2.63 2.63 0 0 1-.72-1.38 7.15 7.15 0 0 1-.1-.63 4.2 4.2 0 0 1 0-.85c.03-.19.07-.5.15-.93l.03-.18c.02-.02.03-.02.03-.01.14-.22.22-.38.26-.5a.83.83 0 0 0 0-.5c-.02-.05-.06-.08-.1-.08-.04 0-.08.03-.13.11 0 .18-.01.36-.07.53V4.57c0-.02.02-.03.04-.03.03 0 .05.01.06.04a164.22 164.22 0 0 0 .72 1.81l.03-.02a.05.05 0 0 0 0-.06 5.1 5.1 0 0 1-.11-.38c-.02-.07-.02-.12-.01-.15s.02-.03.04 0l.52.92c.03.05.05.05.06 0 0-.02.03-.02.07-.02l.02.03v.08c0 .02-.01.02-.02 0h-.02c-.02 0-.03 0-.02.02.05.09.12.16.2.21l.08.13a4.51 4.51 0 0 1 .83 1.6l.05.4c.01.19-.02.36-.09.53a.08.08 0 0 0 0 .06c.03.06.08.11.17.14l.08.12.37.4a.4.4 0 0 1-.2-.13c-.07-.1-.26-.3-.55-.63-.24-.26-.48-.4-.74-.4-.07.04-.1.03-.1-.03a.14.14 0 0 0 .04-.1c0-.01 0-.03-.02-.04h-.02c-.02-.02-.02-.03 0-.05.08-.15.09-.31.01-.5l-.34-.8-.22-.46-.47-1.19h-.02v.01c.03.3.05.52.04.68 0 .29.01.5.04.64a3.8 3.8 0 0 0 .6 1.32h.03c.01 0 .02 0 .01-.02l-.02-.06c0-.03 0-.04.03-.05h.04l.22.6-.03.04c-.13.01-.25.03-.36.06a.65.65 0 0 1-.27 0 2.44 2.44 0 0 0-.12-.03.95.95 0 0 1-.24-.06 3.15 3.15 0 0 0-.23-.1.12.12 0 0 0-.13.03.12.12 0 0 0-.04.13c.1.36.27.7.5 1l.66.42c.18.13.32.3.4.52.02.04.02.1.01.18v.08c0 .02-.01.02-.03.02h-.02l-.01-.03v-.04c0-.08 0-.14-.02-.17-.11-.28-.3-.5-.58-.62h-.02l-.01.03v.02c.06.04.1.08.12.13l.05.15c.07.15.1.33.09.56v.14c0 .05-.02.11-.05.18a.96.96 0 0 0-.07.18c-.06.08-.1.13-.15.13-.03 0-.03 0-.01-.03.06-.06.1-.13.12-.2.02-.08.03-.13.01-.15a.88.88 0 0 0-.11-.36.59.59 0 0 0-.14-.28.34.34 0 0 0-.27-.12h-.38a.53.53 0 0 1-.3-.14 1.3 1.3 0 0 1-.4-.96l.01-.16v-.08l.03-.58-.01-.06c-.1-.18-.15-.43-.16-.75 0-.25.03-.5.09-.76 0-.05 0-.06-.05-.03l-.72.58-.25.05a.1.1 0 0 1-.08-.01l-.4-.24c-.03-.01-.05 0-.05.03v.71l-.08.28c0 .03-.02.05-.04.06l-.46.16a.13.13 0 0 1-.04-.07c0-.03-.02-.04-.04-.04-.03 0-.04.02-.05.05l-.1.37a2 2 0 0 1-.22.58.13.13 0 0 0 0 .14c.21.3.36.62.46.94.05.33-.04.58-.28.73a.14.14 0 0 1-.07.02l-.08.03c-.1.03-.21.03-.33-.02-.03-.01-.03-.02 0-.02.23-.02.38-.13.45-.3a1 1 0 0 0 .04-.36v-.08c-.01-.28-.07-.46-.17-.53a.9.9 0 0 1-.18-.17c-.01-.02-.02-.01-.03.01l-.2.82-.23.28-.4.19c-.02.01-.02.03-.02.05.01.04.04.07.08.1.04.05.1.09.16.11v.01l.02.03-.01.03h-.03l-.46-.13h-.03v.06c.05.04.1.07.16.08.05.01.05.02 0 .04-.05.01-.1 0-.17-.05-.05.01-.07 0-.08-.03a.04.04 0 0 0-.03-.04.07.07 0 0 1-.04-.04 2.17 2.17 0 0 1-.14-.62c0-.11.04-.21.15-.3a.8.8 0 0 0 .14-.17l.14-.17a.12.12 0 0 0 .03-.06l.03-.18.37-.4a.22.22 0 0 0 .08-.1c.01-.02 0-.04 0-.07a.95.95 0 0 1-.12-.34c0 .03.03.06.05.1.17.32.32.53.44.62a13.39 13.39 0 0 1 .45.34v-.01l-.45-.86c-.2-.4-.26-.97-.18-1.7.04-.45.07-.78.07-.99 0-.07.02-.12.07-.16.03 0 .03-.02.02-.05a2.48 2.48 0 0 1-.32-1.18l.01-.01h.02l.1.48c.02.07.03.07.05 0 .07-.24.1-.47.09-.72a5.1 5.1 0 0 1 .05-.9c-.01-.01-.02-.02-.03-.01l-.2.1c-.26.14-.43.26-.52.35a.09.09 0 0 0-.03.06l-.02.44L6 6a3.3 3.3 0 0 0-.45 1.45c0 .1.02.1.08.03.18-.24.34-.5.45-.8.15-.2.23-.4.23-.61a.3.3 0 0 1 .07-.01c.02.02.03.05.02.1l-.13.87a.24.24 0 0 0-.1.1l-.47.65a.41.41 0 0 0-.06.4l.13.37c.05.14.1.14.15 0 .16-.4.27-.85.32-1.32.06.17.03.47-.1.9 0 .06-.02.1-.03.13 0 .03 0 .05.02.07h.03c.02.01.04 0 .05-.02a4.72 4.72 0 0 0 .5-2.7h.02c0 .09.04.23.08.43.08.36.12.63.1.81-.06 1.2-.32 1.89-.77 2.07-.2.05-.39.15-.54.29l-.03-.03-.1-.14-.13-.42-.02-.38c0-.02-.01-.03-.03 0l-.36.4-.24.3c-.15.18-.24.39-.26.63.02.15.03.3.02.45 0 .05 0 .1.03.17l.03.08c0 .04.02.04.04.02l.12-.13.43-.42.03.02-.87.82a5.11 5.11 0 0 1-.11-.38c.03-.1.04-.22.02-.34V9.8a.45.45 0 0 0 0-.2l.04-.17c.12-.01.18-.08.16-.21 0-.02 0-.05.02-.06.07-.08.1-.17.1-.28l.05-.1a.14.14 0 0 0 .04-.08c.1-.07.16-.14.19-.21l.2-.22c.1-.1.18-.19.26-.3a.8.8 0 0 0 .13-.33c.1-.55.25-1.09.48-1.61l.45-1.17c0-.02 0-.03-.02-.03h-.04c.34-.22.7-.4 1.08-.54-.13.41-.15.83-.05 1.24a.1.1 0 0 1-.01.07c-.02.02-.02.05-.01.07-.06.16-.05.26.02.3-.01.04 0 .09.01.14.03.16.1.3.18.44a3.43 3.43 0 0 0 .3.37.98.98 0 0 1-.41-.26c-.06-.05-.07-.05-.05.03.04.12.13.24.27.37l.06.02c.04 0 .06 0 .07.04.06.15.15.27.28.37a3.05 3.05 0 0 0 .52.31c.24.13.42.21.53.23.09.02.16 0 .24-.04.3-.18.58-.4.84-.65.19-.19.26-.4.2-.66 0-.03-.01-.03-.03 0-.07.11-.17.21-.28.3h-.02l-.01-.02v-.01l.15-.22c.15-.27.22-.56.21-.87 0-.03 0-.04-.03-.02a.27.27 0 0 0-.1.13l-.03-.06c0-.05.02-.1.05-.15.02-.02.02-.04 0-.05l-.1-.08c-.03-.02-.05-.02-.05.01s0 .06.03.08c.01.03 0 .04-.01.06-.03.01-.07.02-.12 0a.07.07 0 0 0-.06-.02.05.05 0 0 0-.05.04c-.01.04-.03.06-.07.05-.02 0-.04-.01-.05-.04a.09.09 0 0 0-.02-.04c-.02-.02-.03-.02-.05 0a.21.21 0 0 1-.07.05c0 .08 0 .14-.02.19a.39.39 0 0 1-.08-.3c.01-.07 0-.08-.06-.03l-.1.1c-.02.02-.03.02-.03-.01 0-.05.01-.1.04-.13.01-.01.02-.03.01-.05l-.01-.02v-.05a.66.66 0 0 1 .55-.14c.15.03.29.08.41.16.02.01.03 0 .04-.01l.01-.02v-.02l-.5-.5-.13-.15a1.46 1.46 0 0 1-.28-.45c-.02-.05-.03-.05-.03 0l-.03.44a.12.12 0 0 0-.03.06c0 .02 0 .04.03.04.05 0 .08.02.07.05L9.38 5a.07.07 0 0 0-.05.05l-.17.57-.02.01-.03-.01c-.01 0-.02-.01-.01-.02L9.2 5l-.04-.95V4h.06v.05c0 .02.01.03.03.02.02 0 .04-.02.05-.06h.08Z" fill="#0C121D"/><path d="M9.31 4c-.01.05-.03.07-.05.07-.02 0-.03 0-.03-.02V4h.08Z" fill="#696868"/><path d="M11.45 4.64a.36.36 0 0 0-.02.23c.01.02.01.05 0 .07-.02.08 0 .16.04.24.06.3.16.58.29.84l.2.45H12a6.28 6.28 0 0 1 .04-.1c0 .08.01.13.07.17.02.01.03.03.03.06v.08l-.08.01c0 .06-.03.06-.06 0l-.52-.91c-.02-.03-.03-.03-.04 0v.15l.13.38-.01.06-.03.02h-.02l-.7-1.81c0-.03-.03-.04-.06-.04-.02 0-.03.01-.03.03V6.5a104.38 104.38 0 0 1-.17 1.1c-.03.3-.03.59 0 .86l.09.63c.11.55.35 1.01.72 1.38.06.06.1.13.14.21.01.04.05.12.12.23 0 .02 0 .03-.02.04h-.04l-.19-.25a1.52 1.52 0 0 0-.23-.23 2.19 2.19 0 0 1-.4-.43 1.39 1.39 0 0 1-.18-.49c-.07-.3-.1-.47-.1-.52.01-.32.02-.52.01-.61 0-.07 0-.08-.03 0a4 4 0 0 0-.14.62c0 .02-.01.02-.03.01l-.04-.02v-.02c-.03-.96.09-1.9.34-2.82.01-.02 0-.04-.02-.04l-.02-.01c-.03 0-.05 0-.06.02l-.09.14c-.03.04-.04.04-.03-.02.06-.24.08-.42.07-.54a.75.75 0 0 0-.2-.48 6.42 6.42 0 0 1-.49-.6c-.13-.19-.25-.4-.34-.65.73.06 1.42.27 2.06.63ZM9.17 4.06l.05.95-.31.62c-.03.04-.04.04-.03-.01v-.04l-.01-.02h-.02c-.01 0-.02 0-.03.02a.7.7 0 0 1-.28.22l-.02-.01v-.03a.38.38 0 0 0 .05-.05.05.05 0 0 0 0-.07l-.15-.17c-.04-.05-.06-.05-.04.01v.03l-.01.02h-.03a.76.76 0 0 1-.15-.35h-.04c-.02.14 0 .26.06.38-.03.02-.08.02-.13-.01-.1-.13-.16-.26-.2-.37v-.01h-.03c-.02 0-.03 0-.03.04l.01.25c0 .06 0 .12.04.18a.23.23 0 0 0-.16.01l-.14-.25c-.07-.18-.12-.17-.13.02v.36l-.13.03a.4.4 0 0 0-.07-.14c-.01-.02 0-.05 0-.07a.1.1 0 0 0 .02-.07c-.1-.41-.08-.83.05-1.24a5 5 0 0 1 .77-.2c0 .04.02.07.04.08.03.03.06.03.07 0 .02-.02.02-.06 0-.1l.1-.02c-.01.05 0 .1.03.13.02.02.04.04.07.03l.44-.02c.03 0 .04-.02.04-.05V4.1l.02-.02.02.01.03.05c.01.03.03.03.06.02l.17-.1Z" fill="#242430"/><path d="M8.2 4.06v.1c-.02.04-.05.04-.08.01a.18.18 0 0 1-.04-.08l.11-.03Z" fill="#B57764"/><path d="m9.72 4.84-.3.06c-.02 0-.04 0-.04-.03v-.03l.03-.45c0-.05.01-.05.03 0 .05.14.14.29.28.45Z" fill="#EEE5D3"/><path d="m6.7 9.48-.07-.45a.06.06 0 0 0-.04-.05.72.72 0 0 0-.41-.04.1.1 0 0 0-.04-.01c.45-.18.7-.87.78-2.07.01-.18-.03-.45-.1-.81a4.81 4.81 0 0 1-.1-.43H6.7l-.01.01a4.72 4.72 0 0 1-.48 2.7l-.05.02-.03-.01c-.02-.02-.02-.04-.02-.07l.04-.12c.12-.44.15-.74.1-.9l-.06-.11c.06-.03.08-.06.08-.1l.13-.88c0-.04 0-.07-.02-.1l-.07.02c-.04-.18-.02-.41.06-.7l.02-.44c0-.03 0-.05.03-.06.09-.1.26-.2.52-.34a14.85 14.85 0 0 0 .23-.11v.02a5.1 5.1 0 0 0-.05.9c0 .24-.02.47-.09.7-.02.08-.03.07-.05 0l-.1-.46c0-.01 0-.02-.02-.01h-.01l-.01.02c.01.42.12.81.33 1.17.01.02 0 .04-.02.05-.05.04-.08.09-.07.16 0 .21-.03.54-.07.99-.08.73-.02 1.3.18 1.7a22.25 22.25 0 0 0 .45.87h-.02l-.43-.34a2.03 2.03 0 0 1-.5-.72Z" fill="#242430"/><path d="M11.45 4.64c.34.2.65.42.94.68a3.7 3.7 0 0 0-.02.56c0 .06-.02.13-.07.2l-.02.03c-.02.02-.03.02-.05 0l-.14-.28a2 2 0 0 1-.1-.33c-.03-.17-.07-.29-.12-.36a.61.61 0 0 0-.33-.26c-.03 0-.03 0-.03.02l.44 1.11c0 .05 0 .1.04.18.01.03.01.06 0 .07-.02.02-.03.02-.04 0l-.12-.28-.3-.81c0-.03-.02-.04-.05-.02v.03a.31.31 0 0 1-.05-.24c.01-.02.01-.05 0-.07a.36.36 0 0 1 .02-.23Z" fill="#4C6868"/><path d="M5.83 6.03h-.72l-.12-.01a4.97 4.97 0 0 1 1.28-1.2c.02.01.03.02.02.04l-.46 1.17Z" fill="#708277"/><path d="m9.86 5-.41-.02c0-.03-.01-.05-.07-.05-.02 0-.04-.02-.03-.04 0-.02.01-.03.03-.05v.03c0 .03.02.04.05.03l.3-.06.13.15Z" fill="#696868"/><path d="M12.39 5.32c.25.23.47.48.66.75l-.55.04c-.14.01-.2.08-.2.22v.7a.66.66 0 0 1-.2-.22c-.02-.01-.01-.02 0-.02h.03c0 .02.02.02.02 0v-.08c.03.02.04.02.04 0 .02-.32-.07-.56-.25-.7l-.43-1.1c0-.03 0-.04.03-.03.15.06.26.14.33.26.05.07.09.2.12.36a2 2 0 0 0 .24.6c.02.03.03.03.05 0l.02-.02a.33.33 0 0 0 .07-.2c0-.18 0-.37.02-.56Z" fill="#5D7979"/><path d="m9.45 4.98.4.01.5.5v.02l-.01.02c-.01.02-.02.02-.04 0a1.04 1.04 0 0 0-.4-.15.66.66 0 0 0-.55.14c-.02.02-.02.03-.01.05l.01.02v.05a.19.19 0 0 0-.05.13c0 .03 0 .03.03.01l.1-.1c.06-.05.07-.04.06.03-.02.1.01.2.08.3l.05.11c-.06.35.1.56.5.61l-.16.22v.01l.01.01H10c.11-.08.2-.18.28-.3.02-.02.03-.02.04.01a.68.68 0 0 1-.21.66c-.26.25-.54.47-.85.65a.33.33 0 0 1-.23.04 2.11 2.11 0 0 1-.62-.28c-.21-.1-.36-.2-.43-.26a.91.91 0 0 1-.28-.37c0-.03-.03-.05-.07-.04-.02 0-.04 0-.06-.02a.87.87 0 0 1-.27-.37c-.02-.08 0-.08.05-.03.1.12.25.2.42.26.18-.04.32-.1.4-.2.1-.11.12-.26.05-.43.04-.05.06-.1.08-.17V6.1l-.03-.01a.05.05 0 0 1-.04-.04c0-.03 0-.05.03-.06.07-.07.05-.18-.04-.31.02-.04.02-.08 0-.12a.57.57 0 0 1-.06-.37c0-.01 0-.02.02-.02h.02v.01c.02.12.07.24.15.35h.03v-.05c0-.06 0-.06.05-.01l.14.17c.02.02.02.04 0 .07 0 0-.01.03-.04.05v.03l.01.01h.01a.7.7 0 0 0 .28-.22l.03-.02h.02l.01.02v.04c0 .05 0 .05.03 0l.3-.61-.11.58v.02l.04.01.02-.01.17-.57.05-.05c.02 0 .04-.01.07 0Z" fill="#C7927C"/><path d="M11.83 5.98c-.03-.01-.06 0-.07.04a3.06 3.06 0 0 1-.28-.87c.03-.02.05-.01.06.02l.29.8Z" fill="#708277"/><path d="M8.08 5.55c-.1.02-.19 0-.25-.1v-.24c0-.03 0-.05.02-.04h.04c.03.12.1.25.2.38ZM7.7 5.65c-.03.06-.08.1-.15.1a.07.07 0 0 0-.06.03l-.02.04c-.02.03-.03.03-.03 0V5.41c.01-.19.06-.2.13-.02l.14.25Z" fill="#C7927C"/><path d="M6.37 5.38c-.08.29-.1.52-.06.7 0 .21-.08.42-.23.61 0-.1.03-.2.07-.34.04-.1.06-.2.06-.26 0-.02 0-.03-.03-.04A.37.37 0 0 1 6 6.01l.37-.63Z" fill="#989788"/><path d="m11.01 5.49-.03.02-.2.02c.04-.09.09-.13.13-.12.04 0 .08.03.1.08Z" fill="#EEE5D3"/><path d="M8.08 5.55c.05.03.1.03.13 0 .02.05.02.1 0 .13a.58.58 0 0 0-.34-.04.35.35 0 0 1-.04-.18c.06.08.15.11.25.09Z" fill="#4F444E"/><path d="M10.75 6.49c-.03-.03-.04-.06-.03-.1a.7.7 0 0 1 .1-.17.57.57 0 0 0 .1-.16c.05-.18.07-.36.06-.55l.03-.02c.05.17.05.34 0 .5-.04.12-.12.29-.26.5Z" fill="#C7927C"/><path d="m10.78 5.52.2-.02c.01.2-.01.38-.06.56a.58.58 0 0 1-.1.16.7.7 0 0 0-.1.17c-.01.04 0 .07.03.1h-.03v-.44c.05-.17.07-.35.06-.53Z" fill="#983B10"/><path d="M10.16 5.9c-.03.1-.07.15-.15.15-.03 0-.04-.02-.03-.05 0-.02.02-.03.04-.04.02-.02.03-.04 0-.06 0-.02-.02-.03-.05-.03a.07.07 0 0 1-.03-.02v-.03l.02-.04c.05.02.09.01.12 0 .02-.02.02-.03 0-.06a.1.1 0 0 1-.02-.07c0-.04.02-.04.05-.02l.1.08c.02.01.02.03 0 .05a.4.4 0 0 0-.05.15Z" fill="#C7927C"/><path d="m7.31 5.8.03.1c0 .03 0 .04-.03.05l-.05.01c-.07-.03-.08-.13-.02-.3a.4.4 0 0 1 .07.15Z" fill="#B57764"/><path d="M9.96 5.78a.09.09 0 0 0-.02.04v.03l.03.02c-.02 0-.03.03-.03.1 0 .02 0 .03-.02.02H9.9c0-.05-.05-.07-.12-.07-.1 0-.14.03-.15.07l-.04-.17a.22.22 0 0 0 .07-.05c.02-.02.03-.02.05 0l.02.04c.01.03.03.04.05.04.04 0 .06-.01.07-.05 0-.02.02-.04.05-.04.03 0 .04 0 .06.02Z" fill="#983B10"/><path d="M8 5.8h.04l.02.04c0 .02 0 .04-.03.04h-.1c-.02 0-.02-.02-.01-.05.01-.02.04-.03.09-.04Z" fill="#696868"/><path d="m9.59 5.82.04.17c.09.12.18.12.27 0h.02c.02 0 .03 0 .02-.02 0-.07 0-.1.03-.1s.05.01.06.03c.02.02.01.04-.01.06a.08.08 0 0 0-.04.04c0 .03 0 .05.03.05.08 0 .12-.05.15-.14l.02.06c-.02.08-.06.12-.12.14-.07.01-.22.02-.44.01l-.05-.11c.02-.05.02-.11.02-.19Z" fill="#1F0305"/><path d="M10.11 6.73c-.4-.05-.55-.26-.49-.6.22 0 .36 0 .44-.02.06-.02.1-.06.12-.14.03-.06.07-.1.1-.13.03-.02.04 0 .04.02 0 .31-.06.6-.2.87Z" fill="#B57764"/><path d="M7.85 6.05c.05.03.03.07-.05.12-.02.01-.03.03-.02.06l.05.03c.02 0 .03.02.02.04l-.02.02h-.02a.6.6 0 0 1-.29-.2c-.03-.06-.02-.12.05-.17a.62.62 0 0 1 .1-.07c.02-.01.03 0 .03.02v.13c0 .03.01.05.04.06.03.01.07 0 .11-.04Z" fill="#C7927C"/><path d="M8.25 6c-.02 0-.03.02-.03.05.01.02.02.03.05.04l.01.01v.02a.42.42 0 0 1-.07.17c-.17.07-.3.1-.38.1-.11 0-.24-.08-.39-.22.05 0 .08-.02.08-.06.08.1.18.17.3.22l.01-.01.02-.02c0-.02 0-.03-.02-.04a.09.09 0 0 1-.05-.04c0-.02 0-.04.02-.05.08-.05.1-.09.05-.12L7.9 6c.02-.03.03-.03.06-.02a.1.1 0 0 1 .04.06c0 .02.02.03.03.03l.04-.01c.07-.08.13-.1.2-.07Z" fill="#983B10"/><path d="m11.83 5.98.12.28c0 .02.02.02.04 0 .01-.02.01-.04 0-.07a.38.38 0 0 1-.05-.18c.18.14.27.38.25.7 0 .02-.01.02-.04 0a.1.1 0 0 0-.02-.03V6.6c0-.03 0-.05-.02-.06-.06-.04-.08-.1-.07-.17a7.68 7.68 0 0 0-.06.1h-.02l-.2-.45c.02-.04.04-.05.07-.04ZM5.83 6.03a7.28 7.28 0 0 0-.47 1.6.8.8 0 0 1-.13.35c-.08.1-.16.2-.26.29a16.5 16.5 0 0 1-.02-1.45c0-.27.05-.54.16-.79h.72ZM6.08 6.69c-.11.3-.26.56-.45.8-.06.08-.09.07-.08-.03.03-.5.18-.98.45-1.45.04.03.1.04.18.04.02 0 .03.02.03.04 0 .07-.02.15-.06.26-.04.14-.06.25-.07.34Z" fill="#DBF5F6"/><path d="m4.99 6.02.12.01c-.1.25-.16.52-.16.8v.3c0 .5 0 .88.02 1.14l-.2.22-.03-2.1.25-.37Z" fill="#9BB5B9"/><path d="m11.64 7.26.1.55c.03.16.07.32.13.47.01.02.03.02.06.01-.02.04-.02.1.02.16a.23.23 0 0 0-.03.14.05.05 0 0 0-.04 0c-.03 0-.04.02-.03.05l.02.06c0 .02 0 .03-.01.02h-.05a3.8 3.8 0 0 1-.58-1.32 2.95 2.95 0 0 1-.04-.64 4.88 4.88 0 0 0-.04-.69h.02l.47 1.19Z" fill="#242430"/><path d="M7.44 6.17c.15.14.28.21.4.22.08 0 .2-.02.37-.1.07.17.06.32-.05.43a.72.72 0 0 1-.4.2 3.43 3.43 0 0 1-.3-.37 1.22 1.22 0 0 1-.19-.44c.03-.05.09-.03.17.06Z" fill="#B57764"/><path d="m13.05 6.07.04.05-.62.04c-.04 0-.06.02-.06.06l-.04.93-.08-.13v-.69c0-.14.08-.21.21-.22l.55-.04Z" fill="#9BB5B9"/><path d="M8.18 6.1c.01 0 .02 0 .02.02 0 .04 0 .07-.02.1a.14.14 0 0 1-.1.06h-.02c-.04.01-.07 0-.1-.02a.12.12 0 0 1-.06-.08v-.02l.28-.05Z" fill="#D1AC81"/><path d="M13.1 6.12a5.03 5.03 0 0 1 .89 2.54l-.02.04a1.52 1.52 0 0 1-.02-.01c-.25-.04-.5-.05-.76-.02a4.51 4.51 0 0 0-.82-1.52l.04-.93c0-.04.02-.06.06-.06l.62-.04Z" fill="#DBF5F6"/><path d="M8.77 6.39c-.01-.03 0-.05.03-.05h.03a.2.2 0 0 1 .12 0c.04.01.06.03.07.06v.02c0 .03 0 .06-.03.09a.22.22 0 0 1-.1.06h-.04c-.03.01-.04 0-.05-.03l-.03-.15Z" fill="#EEE5D3"/><path d="M4.77 8.49a.56.56 0 0 1-.19.21l-.07-1.59a.85.85 0 0 0 .04-.4l.19-.32.03 2.1Z" fill="#696868"/><path d="M12.16 7.1v.23c0 .03-.01.03-.03.02l-.05-.03v-.01c-.02-.15-.06-.3-.13-.44h-.03v.03c.08.16.1.3.08.43a2.93 2.93 0 0 1-.3-.81c-.02-.04 0-.04.02-.02.08.1.15.2.2.33 0 .02.01.02.01 0l.01-.02c0-.02.02-.02.03 0l.2.28Z" fill="#DBF5F6"/><path d="M4.51 7.11c-.03.36-.04.71-.04 1.07 0 .2.02.4.07.6l-.06.1-.03.02-.44-.17c.04-.7.22-1.38.54-2.01.02.12.01.25-.04.4Z" fill="#D1AC81"/><path d="M12.16 7.1c.08.04.12.08.11.11l.04.16a2.4 2.4 0 0 1 .02.76l-.33-.8a.72.72 0 0 0-.08-.43v-.03h.03c.07.14.11.29.13.44v.01l.05.03c.02.01.03 0 .03-.02V7.1Z" fill="#708277"/><path d="m4.51 7.11.08 1.6-.05.07c-.05-.2-.08-.4-.08-.6 0-.36.02-.71.05-1.07Z" fill="#9F8877"/><path d="M6.17 7.13h.02l.05.11c-.05.47-.16.91-.32 1.33-.05.13-.1.13-.15 0l-.13-.39a.41.41 0 0 1 .06-.4l.47-.65Z" fill="#DBF5F6"/><path d="m8.96 7.5-.28-.2c-.03-.01-.02-.03.01-.03l.1-.02c.19-.05.34-.07.44-.06.06.01.12 0 .18-.01l.02.01.01.02c0 .02 0 .03-.02.04l-.1.03a.09.09 0 0 0-.05.05c-.06.12-.13.19-.21.2-.04.01-.07 0-.1-.02Z" fill="#B57764"/><path d="M12.27 7.21c.24.27.42.5.53.7.16.26.25.52.28.79h-.56l-.16-.43c0-.03 0-.08-.03-.14v-.1a2.4 2.4 0 0 0-.06-.82Z" fill="#DBF5F6"/><path d="m7.53 8.9.08-.18h.05l.02.01a1.12 1.12 0 0 1-.29.66l-.1.14c-.05.08-.08.07-.08-.02l.04-2.24c0-.03.01-.04.04-.04l.02.01.02.03c.09.46.15 1 .17 1.62 0 .06.01.06.03.01Z" fill="#242430"/><path d="m11.64 7.26.22.45.07.58c-.03.01-.05 0-.05-.01-.07-.15-.11-.3-.14-.47l-.1-.55Z" fill="#9BB5B9"/><path d="M6.16 7.3a.02.02 0 1 0-.03-.01l-.4 1a.02.02 0 0 0 .03 0l.4-.99Z" fill="#242430"/><path d="M10.12 9.66a1.4 1.4 0 0 0-.53.07.34.34 0 0 0-.14.11v.04h.03l.06-.03a.62.62 0 0 1 .3-.12h.28v.17a.97.97 0 0 0-.22.13.77.77 0 0 1-.4.13c-.77.07-1.29-.25-1.55-.96a.2.2 0 0 1 0-.1l.44-.16c.03-.01.04-.03.05-.05l.07-.29c.35-.02.61-.2.79-.53l.72-.59c.04-.03.06-.02.04.03a3.5 3.5 0 0 0-.08.76c0 .32.06.57.16.75l.01.06-.03.58Z" fill="#B57764"/><path d="m11.86 7.71.35.82-.02.11c0 .03-.01.04-.04.05-.05 0-.1-.02-.12-.08l-.08-.16c-.03-.07-.04-.12-.02-.16l-.07-.58Z" fill="#DBF5F6"/><path d="M9.3 8.06a.92.92 0 0 1-.79.54l.01-.71c0-.03.02-.04.05-.03l.4.24a.1.1 0 0 0 .07.01l.26-.05Z" fill="#983B10"/><path d="M5.34 8.63a.47.47 0 0 1-.4.01l.35-.4c.02-.02.03-.01.03.01l.02.38Z" fill="#DBF5F6"/><path d="m12.52 8.7.18.4c.06.23.01.19-.14-.14-.02-.03-.02-.02-.03 0l-.05.22a2 2 0 0 1-.12-.91l.16.43Z" fill="#4C6868"/><path d="M12.2 8.53c.07.18.07.34-.02.5l.01.03.02.01c.02.01.02.03.02.04 0 .04-.02.07-.05.1l-.05-.02-.2-.6c-.01-.05 0-.1.02-.14l.08.16c.03.06.07.09.12.08.02 0 .04-.02.04-.05l.01-.11Z" fill="#5D7979"/><path d="M4.93 8.64c.13.06.27.06.41-.01l.12.42-.77-.1.24-.3Z" fill="#708277"/><path d="M13.99 8.66v.46l-.74.04-.05-.4a2.92 2.92 0 0 0 .75-.04l.02-.02.02-.04ZM13.08 8.7l.01.42-.4-.02-.17-.4h.56Z" fill="#5D7979"/><path d="M4.45 8.9c-.13.15-.2.33-.24.54l-.04.15c-.03.02-.06.03-.09.02l-.05-.05a5 5 0 0 1-.02-.82l.44.16Z" fill="#FCEB98"/><path d="M12.08 8.86c.01-.03.03-.04.05-.01.03.03.03.06.03.08-.01.03-.03.04-.05.02-.04-.02-.05-.05-.03-.1Z" fill="#242430"/><path d="M4.48 8.88c.01.1-.02.2-.1.28a.07.07 0 0 0-.01.06c.02.13-.04.2-.16.21.03-.2.11-.38.24-.53l.03-.02Z" fill="#696868"/><path d="m12.7 9.1.4.02c-.02.12-.05.25-.1.37-.01.02-.03.03-.05.02a.33.33 0 0 1-.18-.17.08.08 0 0 0-.06-.05.4.4 0 0 1-.23-.1l.05-.23c0-.02.02-.03.03 0 .15.33.2.37.14.14Z" fill="#989788"/><path d="M6.14 8.93a.1.1 0 0 1 .04.01l.36.76c.01.02.02.04 0 .06l-.1.4.01.02h.03l.1-.29c.01-.06.04-.07.08-.01l.08.1-.37.4a.22.22 0 0 1-.08.07c-.03.02-.04 0-.03-.03v-.03l.02-.05-.03-.65c0-.03-.01-.04-.03-.05a.1.1 0 0 1-.04-.01.06.06 0 0 1-.03-.06l.02-.26h-.01l-.02-.01-.02.01a1.5 1.5 0 0 0-.08.45v.16l-.06.16c-.04.1-.03.22.02.34.02.04 0 .06-.04.06-.12 0-.17.07-.15.22 0 .02-.01.04-.04.03-.04 0-.07-.02-.08-.05a3.23 3.23 0 0 0-.04-.1c-.07-.14-.1-.25-.12-.33a4.47 4.47 0 0 1-.06-.6h-.01c-.04.34-.03.67.04 1 0 .02 0 .03-.03.04 0 0-.02 0-.02-.02-.09-.19-.14-.35-.14-.47-.01-.12-.03-.13-.07-.01a8.43 8.43 0 0 1-.11.28c-.12.23-.24.48-.35.75 0 .02-.02.03-.04.03s-.04 0-.05-.02c-.02-.02-.03-.02-.05 0-.02.02-.05.03-.1.04-.1-.22-.2-.44-.28-.67l.87-.83.47-.55c.15-.14.34-.24.54-.3Z" fill="#F38411"/><path d="M6.7 9.48c.01.12.05.24.12.34v.07a.22.22 0 0 1-.08.1l-.08-.11c-.04-.06-.07-.05-.09.01l-.08.28-.02.01h-.02c-.02 0-.02-.01-.02-.03l.12-.39V9.7l-.37-.76c.15-.03.29-.01.41.04.03 0 .04.03.04.05l.06.45Z" fill="#983B10"/><path d="m5.47 9.05.1.14-.47.56-.43.42a.72.72 0 0 1-.08-.4c0-.06 0-.1-.02-.13-.03-.04-.08-.06-.14-.06.02-.24.1-.45.26-.62l.78.09Z" fill="#EBCA95"/><path d="m7.94 9.1.01.1c.26.71.78 1.03 1.55.96.18-.02.31-.06.4-.13a.97.97 0 0 1 .22-.13c0 .39.14.7.4.96.07.07.17.12.29.14h.38c.1 0 .2.04.27.12.07.07.11.17.14.28a1.26 1.26 0 0 1-.11-.1c-.12-.12-.21-.19-.3-.2a7.94 7.94 0 0 1-.73-.07.1.1 0 0 1-.06-.04.2.2 0 0 0-.08-.07c-.04-.01-.08 0-.13.02-.26.12-.6.33-1 .63a.48.48 0 0 1-.27.1c-.1 0-.23-.07-.41-.2l-.04-.02-.19-.16c-.1-.1-.2-.17-.33-.22a3.6 3.6 0 0 0-.45-.94.13.13 0 0 1 0-.14 2 2 0 0 0 .22-.58c.04-.2.07-.33.09-.36 0-.03.02-.05.05-.05.02 0 .03 0 .04.03 0 .03.02.06.04.07ZM12.13 9.19l.05.02c0 .06.04.07.11.03l-.17.14-.27.22c-.2.2-.42.43-.63.67-.23-.31-.4-.65-.5-1-.01-.06 0-.1.04-.14a.12.12 0 0 1 .13-.03l.23.1.24.06.12.02c.12.03.21.03.27.01.11-.03.23-.05.36-.06l.02-.04Z" fill="#983B10"/><path d="M14 9.12c-.01.45-.08.9-.21 1.33-.02-.04-.02-.06 0-.05l-.38-.4.24-.04c.2-.06.2-.12 0-.16-.08-.02-.19 0-.32.08-.09-.03-.14-.08-.17-.14v-.07c.08-.16.1-.33.09-.51l.75-.04Z" fill="#989788"/><path d="m10.43 9.56-.16.2c0-.21 0-.4.05-.55.01-.08.03-.08.05 0l.06.35Z" fill="#B57764"/><path d="m5.57 9.19.03.03-.47.55-.03-.02.47-.56Z" fill="#983B10"/><path d="M13.78 10.4v.05c-.08.3-.2.58-.34.85-.04.02-.06.02-.08 0-.01-.02-.02-.04-.01-.07v-.1c-.07-.09-.11-.08-.13.03l-.03.27c-.02.1-.04.1-.06 0a2.55 2.55 0 0 1-.02-.67c0-.02 0-.03-.02-.04h-.02c-.02 0-.03 0-.04.02l-.13.33c-.03.1-.05.09-.05-.01a3.57 3.57 0 0 1 .12-.94l-.04-.02c-.02-.01-.03-.01-.03.01a1.1 1.1 0 0 1-.34.64h-.04v-.02l.21-.38v-.05h-.05a.06.06 0 0 0-.05.02l-.22.38c-.02.04-.03.04-.03 0 0-.09.02-.17.05-.24a.16.16 0 0 0 .02-.07 1.75 1.75 0 0 1 .18-.78h-.02c-.12.2-.22.43-.3.67 0 .02-.02.04-.04.05-.06.05-.07.11-.03.18l-.01.04c-.01 0-.03 0-.03-.02a.3.3 0 0 1-.07-.24.6.6 0 0 0-.02-.24c-.05-.22-.09-.21-.1 0a12.76 12.76 0 0 1-.03.46h-.02l-.05-.15c-.01-.04-.02-.04-.02 0-.01.1-.02.2-.01.32l-.66-.41a14.76 14.76 0 0 1 .9-.9l.17-.13c.26 0 .5.14.74.4l.56.62a.4.4 0 0 0 .2.14Z" fill="#F38411"/><path d="m6.37 10.39-.03.18-.03.06-.14.17a.79.79 0 0 1-.14.16c-.1.1-.16.2-.15.31.01.2.06.4.14.62 0 .02.02.04.04.04.02.01.03.02.03.04 0 .03.03.04.08.03l-.5.65-.01.04v.02l-.04-.03a5.68 5.68 0 0 1-.18-.17.77.77 0 0 0-.25-.27c-.25-.3-.47-.63-.65-.98.05 0 .08 0 .1-.03.02-.02.03-.02.05 0l.05.02c.02 0 .03-.01.04-.03.11-.27.23-.52.35-.75a1.46 1.46 0 0 0 .1-.28c.05-.12.07-.12.08 0 0 .13.05.29.14.48l.02.02c.02 0 .03-.02.03-.04a3.14 3.14 0 0 1-.04-1l.01-.01.02.01c0 .2.02.4.04.6.01.08.05.2.12.33l.04.1c.01.03.04.05.08.05.03 0 .04 0 .04-.03-.02-.15.03-.22.15-.22.04 0 .06-.02.04-.06a.49.49 0 0 1-.02-.34c.04-.1.05-.16.05-.17l.01-.15c.01-.18.03-.33.08-.45 0-.01.01-.02.02-.01h.02v.01l-.01.26c0 .03 0 .05.03.06l.04.01c.02 0 .03.02.03.05l.03.65-.01.05-.01.03c-.01.04 0 .05.03.03a.22.22 0 0 0 .08-.06Z" fill="#983B10"/><path d="M4.17 9.59v.28c.02.12.01.24-.02.34-.06-.22-.1-.43-.12-.65l.05.05c.03.01.05 0 .09-.02Z" fill="#4F444E"/><path d="m10.27 9.76.16-.2c.14.42.36.78.64 1.1.03.02.03.04-.02.06-.34.08-.58 0-.72-.24a.72.72 0 0 1-.07-.36v-.36Z" fill="#983B10"/><path d="m4.67 10.17-.12.13c-.02.02-.04.02-.04-.02a.69.69 0 0 0-.03-.08.44.44 0 0 1-.03-.16c0-.16 0-.31-.02-.46.06 0 .1.02.14.06l.02.13c0 .15.02.29.08.4Z" fill="#9F8877"/><path d="M13.44 11.3a4.9 4.9 0 0 1-.9 1.22 1.73 1.73 0 0 1-.07-.07.72.72 0 0 0-.16-.11.28.28 0 0 0-.2-.01c-.03 0-.04.02-.03.05l.09.3-.43-.67a.95.95 0 0 1 .07-.18.48.48 0 0 0 .04-.18v-.14c.02-.23-.01-.41-.08-.56l-.05-.15a.26.26 0 0 0-.11-.13l-.01-.02v-.02c.01-.02.02-.02.03-.01.28.13.47.33.58.62.02.03.02.09.02.17v.04l.01.02h.04l.01-.1a.37.37 0 0 0 0-.17c-.1-.21-.23-.39-.41-.52v-.32c0-.04.02-.04.03 0l.05.14h.03l.02-.44c.01-.22.05-.23.1-.01.02.1.03.17.02.24a.3.3 0 0 0 .06.24c.01.02.02.02.03.02.02-.01.03-.02.02-.04-.04-.07-.03-.13.03-.18a.11.11 0 0 0 .04-.05 3.27 3.27 0 0 1 .3-.68l.02.01v.01c-.12.24-.18.5-.18.77 0 .02 0 .05-.02.07a.58.58 0 0 0-.05.24c0 .04 0 .04.03 0l.22-.38a.06.06 0 0 1 .05-.03l.05.01v.05l-.21.38v.02h.04c.18-.17.3-.38.34-.64 0-.02.01-.03.03-.02l.03.03c-.08.33-.12.64-.11.94 0 .1.02.1.05 0l.13-.32c0-.02.02-.03.04-.03l.02.01.02.04c-.02.28-.01.5.02.67.02.1.04.1.05 0l.04-.27c.01-.1.05-.12.12-.03v.1c0 .03 0 .05.02.07.02.02.04.02.08 0Z" fill="#983B10"/><path d="M6.16 11.35a.66.66 0 0 1 .03-.4 2.05 2.05 0 0 1 .25-.41.18.18 0 0 0 .03-.12c0-.03 0-.05.02-.06l.24-.24h.03v.06c-.3.5-.45.93-.43 1.3 0 .1-.02.1-.1.03a.37.37 0 0 1-.07-.16Z" fill="#4F444E"/><path d="M7.68 11.07a.56.56 0 0 1-.14-.15.06.06 0 0 0-.05-.03c-.03 0-.04 0-.06.02-.08.1-.2.2-.34.3l.2-.83c.01-.02.03-.03.04 0l.17.16c.11.07.17.25.18.53ZM6.84 10.84c-.16.05-.28.16-.35.35v.03h.03c.01-.02.03-.02.05-.01.03 0 .03.01.02.03l-.16.16c-.06-.23.08-.53.43-.89.02-.02.03-.01.03.01.02.13 0 .24-.05.32Z" fill="#983B10"/><path d="M6.52 11.48a.4.4 0 0 1 .16-.21c.13-.12.22-.26.29-.43l.04-.01h.03v.02l-.04.23c0 .02-.02.03-.04.05a1.8 1.8 0 0 1-.32.33l-.11.02h-.01Z" fill="#4F444E"/><path d="m6.84 10.84-.16.43a.4.4 0 0 0-.16.21l-.03.02c-.02.01-.04 0-.05-.02a.21.21 0 0 1-.01-.08l.16-.16c.01-.02 0-.03-.02-.03H6.5c-.01 0-.02 0-.01-.02.07-.19.18-.3.35-.35ZM7.68 11.07v.08a1 1 0 0 1-.04.35c-.07.18-.22.29-.44.3-.04.01-.04.02 0 .03.1.05.21.05.32.02a.35.35 0 0 1 .08-.03c.03 0 .05 0 .07-.02.24-.15.33-.4.29-.73.12.05.23.12.32.22l.19.16.04.03c.18.12.32.18.4.18.11 0 .2-.03.28-.1.4-.3.74-.5 1-.62.05-.03.1-.03.13-.02a.2.2 0 0 1 .08.07.1.1 0 0 0 .06.04c.18.03.43.05.74.08.08 0 .17.07.29.19l.1.1c.07.1.1.23.12.36a2.18 2.18 0 0 0-.35-.32c-.08-.06-.1-.04-.03.04l.37.43a.42.42 0 0 1-.12.2c-.02.03-.02.04.01.03.04 0 .1-.04.15-.13l.43.68.05.14c-.22.18-.45.34-.7.49-.08-.01-.12-.03-.1-.06l.45-.56a.06.06 0 0 0 .02-.07l-.07-.19a.06.06 0 0 0-.05-.04l-.78-.08c-.04 0-.06.01-.06.05v.15c0 .04.02.07.06.07l.33.02a.75.75 0 0 1-.3.49c-.05.04-.07.02-.06-.04l.01-.15c0-.02 0-.03-.03-.03h-.03l-.01.04-.02.08a.55.55 0 0 0-.06-.3c-.11-.26-.32-.38-.62-.36-.1 0-.19.04-.24.08-.08.07-.1.06-.07-.04.1-.23.33-.34.72-.33.03 0 .04 0 .04-.03v-.16c0-.04-.01-.06-.05-.07a.93.93 0 0 0-.75.18.98.98 0 0 0-.38.67c-.06.24-.04.48.06.72l-.27-.02a.04.04 0 0 1-.04-.03v-.02a.3.3 0 0 0-.02-.13c.07-.45.1-.9.1-1.37.02-.07.09-.15.2-.24v-.03H9.5l-.43.27-.46.15a.06.06 0 0 0-.05.06l-.02.22c0 .03.01.04.05.03l.25-.09c.04 0 .06 0 .05.04l-.04.4-.05.68h-.53v.02l.13-1c0-.05-.01-.07-.05-.09l-.23-.06c-.04-.02-.07 0-.07.04l-.16.9a.6.6 0 0 1-.3.05v-.05l.11-.49c.06-.3-.04-.48-.31-.57-.1-.03-.27-.03-.53 0-.1.01-.14.06-.15.15l-.01.1c0 .06.02.07.07.05.1-.05.23-.07.37-.05.07.01.12.05.15.12v.04c.03.07 0 .1-.07.1a.96.96 0 0 0-.7.15.44.44 0 0 0-.15.18.92.92 0 0 0-.04.2l-.02.14a4.98 4.98 0 0 1-.64-.52v-.04l.51-.65c.06.05.12.06.18.05.04-.02.04-.03 0-.04a.37.37 0 0 1-.16-.08.04.04 0 0 1 0-.05c0-.01.01-.02.02-.01l.46.14.03-.01v-.06h-.01a.34.34 0 0 1-.16-.13.8.8 0 0 0 .34-.33l.22-.28c.15-.09.26-.18.34-.29a.06.06 0 0 1 .06-.02c.02 0 .04 0 .05.03.03.05.08.1.14.15Z" fill="#F38411"/><path d="M11.71 11.76c.02.02.01.07-.01.15l-.37-.43c-.06-.08-.05-.1.03-.04.1.08.22.18.35.32ZM6.87 11.48a.8.8 0 0 1-.34.33.15.15 0 0 1-.08-.08c0-.03 0-.05.03-.06l.39-.19Z" fill="#983B10"/><path d="M9.3 11.78a.38.38 0 0 1-.24 0l.43-.27h.01v.04c-.11.09-.18.16-.2.23Z" fill="#DC6905"/><path d="M8.29 11.98c.1-.01.18-.1.17-.2 0-.1-.1-.17-.21-.16-.1.02-.19.1-.18.2.01.1.1.17.22.16ZM10.82 12.7c-.02.24-.13.4-.32.46-.03 0-.04 0-.04-.02l-.02-.18c0-.1-.02-.17-.08-.24a.28.28 0 0 0-.17-.1.26.26 0 0 0-.2.04.34.34 0 0 0-.13.2.56.56 0 0 0-.02.22c0 .02-.01.04-.03.05h-.05a.9.9 0 0 1-.3-.5.98.98 0 0 1 .4-.67.93.93 0 0 1 .74-.17c.04.01.05.03.05.07v.16c0 .02-.01.04-.04.03-.39-.01-.63.1-.72.33-.03.1-.01.11.07.04a.42.42 0 0 1 .24-.08c.3-.02.5.1.62.36ZM9.3 11.79c0 .46-.03.92-.1 1.37a1.37 1.37 0 0 1-.13-.6c0-.02-.01-.03-.03-.03h-.02c-.03 0-.05 0-.06.02-.08.14-.12.15-.12.05l.04-.4c0-.04 0-.05-.05-.04l-.25.09c-.04.01-.05 0-.05-.04l.02-.21c0-.03.02-.05.04-.06l.47-.15c.08.03.17.02.24 0ZM7.58 13.09l-.43-.03.07-.23c0-.03 0-.05-.03-.05-.2-.05-.36 0-.47.12-.12.02-.2-.05-.22-.21.21-.15.45-.2.7-.16.09.01.11-.02.09-.09l-.02-.04a.17.17 0 0 0-.14-.12.66.66 0 0 0-.37.05c-.05.02-.08 0-.07-.05v-.1c.02-.09.07-.14.16-.15.26-.03.44-.03.53 0 .27.09.37.28.3.57-.02.16-.06.32-.1.49ZM8.27 13.3l-.3-.04c-.02 0-.03.01-.04.04v.04c0 .02 0 .03.02.03h.15c.02 0 .03.02.03.03v.03c0 .02 0 .03-.02.03l-.32.08.08-.46.17-.89c0-.04.03-.06.07-.04l.23.06c.04.01.05.04.05.08l-.12 1Z" fill="#F9FAF0"/><path d="M5.44 12.51a5.18 5.18 0 0 1-.25-.27c.12.08.2.17.25.27Z" fill="#0C121D"/><path d="M11.52 13.32c-.19.11-.39.2-.6.3.06-.37.25-.68.57-.94.06-.04.05-.07-.02-.07h-.15l-.33-.02c-.04 0-.06-.03-.06-.07v-.15c0-.04.02-.05.06-.05l.78.08c.02 0 .04.01.05.04l.06.2c.01.02 0 .04-.01.06-.12.13-.27.31-.45.56-.02.03.02.05.1.06Z" fill="#F9FAF0"/><path d="M12.55 12.52c-.1.11-.22.21-.34.31l-.04-.14-.1-.31c0-.03.01-.04.03-.05a.28.28 0 0 1 .21 0c.04.02.1.06.16.12.03.04.06.06.08.07Z" fill="#0C121D"/><path d="M9.2 13.16a.3.3 0 0 1 .01.13l-.01.05h-.38c-.06-.04-.07-.05-.03-.06l.05-.68c0 .1.04.09.12-.05a.06.06 0 0 1 .06-.03h.02c.02.01.03.02.03.05 0 .21.04.41.13.6Z" fill="#EEE5D3"/><path d="M10.44 12.96a.4.4 0 0 1-.08.25.3.3 0 0 1-.18.11.26.26 0 0 1-.2-.03.32.32 0 0 1-.13-.2.68.68 0 0 1 0-.22.34.34 0 0 1 .14-.2.26.26 0 0 1 .2-.05c.07.01.13.05.17.1.05.07.08.15.08.24Z" fill="#F38411"/><path d="M11.32 12.61h.15c.07 0 .08.02.02.07-.32.26-.5.57-.56.93a5 5 0 0 1-1.1.32.93.93 0 0 0-.32-.1c-.52-.03-1.08-.02-1.67.03-.4-.09-.77-.23-1.13-.41l.34-.08.06.01c.12.12.28.17.48.13.02 0 .03-.01.01-.03a.4.4 0 0 1-.02-.34c.1 0 .2-.01.3-.06l-.08.46.4.08c.03.09.13.12.3.1.14-.02.24-.03.3-.02.1.02.21.03.32.02.07 0 .2 0 .36.02a4.22 4.22 0 0 0 .19 0v-.02l-.32-.1a.05.05 0 0 1-.04-.04c0-.03 0-.04.02-.06.08-.04.18-.04.3 0 .24.16.51.2.8.1.29-.09.44-.3.45-.62a4.02 4.02 0 0 1 .04-.12h.02c.02 0 .03 0 .03.03l-.01.15c-.01.06.01.08.06.04a.75.75 0 0 0 .3-.49Z" fill="#DC6905"/><path d="M9.47 12.64c.05.2.14.36.28.48.02.02.04.02.06 0a.05.05 0 0 0 .03-.04c0-.1 0-.18.02-.21a.68.68 0 0 0 0 .22c.02.09.06.15.13.2.06.03.12.04.2.03a.3.3 0 0 0 .17-.11.4.4 0 0 0 .08-.25l.02.18c0 .02.01.03.04.02.2-.06.3-.22.32-.46.05.1.07.2.06.3-.01.32-.16.53-.45.62a.87.87 0 0 1-.8-.1.5.5 0 0 0-.1-.16c-.1-.24-.12-.48-.06-.72ZM6.5 12.69c.02.16.1.23.22.21-.05.15 0 .24.12.28.06.01.11 0 .17-.01.06-.02.1-.06.14-.11l.43.03v.05a.4.4 0 0 0 .02.34c.01.02 0 .03-.02.03a.52.52 0 0 1-.47-.13.06.06 0 0 0-.06-.01l-.34.08a4.95 4.95 0 0 1-.41-.24l.02-.14c.01-.1.02-.16.04-.2a.44.44 0 0 1 .14-.18Z" fill="#EEE5D3"/><path d="M7.15 13.06a.29.29 0 0 1-.14.1.27.27 0 0 1-.17.02c-.13-.04-.17-.13-.12-.28.11-.13.27-.17.47-.12.03 0 .04.02.03.04l-.07.24Z" fill="#F38411"/><path d="m8.27 13.3-.01-.02c.01.14 0 .25-.06.34l-.4-.08.3-.08c.03 0 .04-.01.03-.03v-.03c0-.01-.01-.02-.03-.02l-.15-.01c-.02 0-.02-.01-.02-.03v-.04c0-.03.02-.04.05-.04l.29.04Z" fill="#D1AC81"/><path d="M8.79 13.28c-.04 0-.03.02.03.05-.05.06-.07.15-.06.27.1.04.24.05.38.03.02 0 .04-.01.04-.04a.2.2 0 0 0 0-.08c.03-.05.03-.11.02-.17l.01-.05.01.02c0 .02.02.03.04.03l.27.02a.5.5 0 0 1 .1.15c-.12-.03-.22-.03-.3.01a.05.05 0 0 0-.02.06c0 .02.01.03.03.04l.33.1v.03h-.01l-.18-.01a2.17 2.17 0 0 0-.36-.02c-.11 0-.22 0-.32-.02-.06 0-.16 0-.3.02-.17.02-.27-.01-.3-.1.05-.09.07-.2.06-.34h.53Z" fill="#983B10"/><path d="M9.2 13.34c.02.06.01.12-.02.17a3.92 3.92 0 0 1-.32.02c-.06 0-.09.02-.1.07 0-.12.01-.21.06-.27h.38Z" fill="#9F8877"/><path d="M9.18 13.5a.2.2 0 0 1 0 .1c0 .02-.01.03-.04.03a.97.97 0 0 1-.38-.03c.01-.05.04-.07.1-.07a1.14 1.14 0 0 0 .32-.02Z" fill="#EEE5D3"/><path d="M9.82 13.93a5.03 5.03 0 0 1-1.98-.07c.59-.05 1.15-.06 1.67-.02.09 0 .2.03.31.1Z" fill="#983B10"/><defs><linearGradient id="a" x1="3.35" y1="3.12" x2="21.9" y2="24.43" gradientUnits="userSpaceOnUse"><stop stop-color="#1A1E21"/><stop offset="1" stop-color="#06060A"/></linearGradient></defs></svg>