<!-- by TradingView --><svg width="18" height="18" xmlns="http://www.w3.org/2000/svg"><path fill="url(#paint0_linear)" d="M0 0h18v18H0z"/><path d="M8.988 4.257L6.667 7.254 5.57 11.917l3.425 2.022 3.426-2.018-1.205-4.668-2.229-2.996zm-.468-1.03a.6.6 0 01.956.01l2.59 3.482c.046.063.08.133.1.208l1.3 5.036a.6.6 0 01-.277.666L9.3 14.92a.6.6 0 01-.61 0L4.81 12.628a.6.6 0 01-.279-.654L5.713 6.94a.6.6 0 01.11-.23L8.52 3.228z" fill="url(#paint1_linear)"/><path d="M8.5 7.847a.6.6 0 011 0l1.812 2.718a.6.6 0 01-.499.933H7.187a.6.6 0 01-.5-.933l1.814-2.718zM9 8.901l-1.065 1.597h2.13L9 8.9z" fill="url(#paint2_linear)"/><path d="M8.994 3.678l-2.65 3.421-1.173 4.988 3.825 2.258 3.83-2.257L11.54 7.1 8.994 3.678zm-.197-.236a.25.25 0 01.398.004l2.59 3.482a.25.25 0 01.042.087l1.3 5.035a.25.25 0 01-.116.278l-3.888 2.29a.25.25 0 01-.254 0l-3.882-2.291a.25.25 0 01-.116-.272L6.054 7.02a.25.25 0 01.046-.096l2.697-3.482z" fill="#fff"/><path d="M8.997 8.27L7.28 10.848h3.44L8.996 8.27zm-.208-.228a.25.25 0 01.415 0l1.817 2.717a.25.25 0 01-.208.389H7.187a.25.25 0 01-.208-.389l1.81-2.717z" fill="#fff"/><defs><linearGradient id="paint0_linear" x1="3.349" y1="3.122" x2="21.904" y2="24.434" gradientUnits="userSpaceOnUse"><stop stop-color="#1A1E21"/><stop offset="1" stop-color="#06060A"/></linearGradient><linearGradient id="paint1_linear" x1="5" y1="8.793" x2="13" y2="8.793" gradientUnits="userSpaceOnUse"><stop offset=".396" stop-color="#0734D5"/><stop offset=".6" stop-color="#EC031E"/></linearGradient><linearGradient id="paint2_linear" x1="8.41" y1="9.499" x2="9.651" y2="9.499" gradientUnits="userSpaceOnUse"><stop stop-color="#0734D5"/><stop offset="1" stop-color="#EC031E"/></linearGradient></defs></svg>