<!-- by TradingView --><svg width="18" height="18" viewBox="0 0 18 18" xmlns="http://www.w3.org/2000/svg"><path fill="url(#apdpfle2m)" d="M0 0h18v18H0z"/><path d="m12.89 3.49.07.3.04.4c0 .18-.03.35-.07.53l-.1.3c-.07.18-.16.35-.27.5l-.2.2-.21.18h-.01V5.9l.01-.02c.05-.02.06-.05.05-.09a3.63 3.63 0 0 0-.16-.4l.02-.02.08-.07c.24-.2.4-.46.5-.75a2.54 2.54 0 0 0 .03-1.35c-.01 0-.02.01-.01.02 0 .04 0 .08-.02.12l-.02-.3c0-.04 0-.04.03 0 .1.13.17.29.24.46ZM5.36 3.39v-.03c0-.01-.01-.02-.03-.01-.02 0-.03.02-.03.03-.14.65.03 1.43.52 1.88l.25.2.03.04a.1.1 0 0 1 0 .05l-.03.2a1 1 0 0 1-.03.13.3.3 0 0 0 0 .15l-.08-.06-.3-.22-.24-.26-.18-.3-.16-.43A2.22 2.22 0 0 1 5 4.1l.06-.42c.05-.23.15-.44.28-.64h.01a.01.01 0 0 1 .02 0l.01.02-.02.34Z" fill="#DED7B1"/><path d="M12.14 5.3c-.02-.11-.04-.22-.04-.32 0-.05-.04-.12-.1-.2l.1-.09.2-.23c.1-.17.19-.33.23-.5l.05-.16.02-.08.04-.4a.18.18 0 0 0 .01-.11l.01-.01h.01c.11.46.1.9-.04 1.34-.09.3-.25.55-.5.75ZM5.36 3.39l.02.2.03.19c.05.22.13.43.26.63l.2.25.07.08c.02.03.02.05.01.05v.05a.16.16 0 0 0-.02.05c-.01.05-.04.22-.09.27a.04.04 0 0 0-.01.03l-.01.07a2.06 2.06 0 0 1-.52-1.88c0-.01.01-.03.03-.03h.02l.01.04Z" fill="#FEFEEC"/><path d="M9.32 4c.02 0 .04.01.04.03l.13.26c.11.17.36.28.53.35l.05.04c.04.06.1.1.17.1.09.02.15.1.24.12.18.06.35.14.51.25l.02.03v.03a2.45 2.45 0 0 1-.18.66l.01.03a2.34 2.34 0 0 0 .4.5v.05h-.15a3.88 3.88 0 0 0-1.48.27.23.23 0 0 1-.12 0l-.02-.03h-.03a.91.91 0 0 0-.43.41h-.02a.81.81 0 0 0-.48-.42.22.22 0 0 1-.12.03 3.6 3.6 0 0 0-1.54-.26.3.3 0 0 1-.1-.01c0-.03.02-.06.04-.09.15-.13.27-.28.38-.47v-.03c-.09-.19-.15-.4-.19-.64.04-.07.13-.13.25-.18l.22-.12.22-.1c.06-.02.11 0 .17-.04a4.6 4.6 0 0 1 .2-.15l.02-.02a5.83 5.83 0 0 0 .3-.15.32.32 0 0 1 .1-.04l.02-.03.16-.35.02-.01h.03s0 .01 0 0A1.47 1.47 0 0 1 9.14 4h.04c.05 0 .15.02.17.07 0 .01.01.01 0 0 0-.03-.03-.05-.06-.05V4h.03Zm-.95 2.22a.83.83 0 0 1-.33-.4V5.8h-.01a.61.61 0 0 1-.28.3v.02c.11-.05.2-.13.26-.23a.02.02 0 0 1 .03 0h.01c.07.17.17.3.33.37h.03a.2.2 0 0 0 .08-.08l.01-.01c.08-.06.13-.12.13-.22 0-.32 0-.64.03-.96l-.01-.09a1.74 1.74 0 0 0 0-.36h-.01l-.04.65c0 .27-.02.54-.04.82 0 .07-.1.15-.16.2h-.03Zm1.58-.3v-.01H10c.06.1.14.16.24.2a.86.86 0 0 1-.26-.28c0-.02-.01-.02-.02 0a.95.95 0 0 1-.3.38.05.05 0 0 1-.07 0l-.13-.15-.02-.03-.04-.82c0-.18-.03-.37-.03-.56-.02.14-.02.27-.02.39a17.14 17.14 0 0 1 .04 1.03l.2.2.02.01h.03c.12-.08.26-.2.32-.36Z" fill="#1079C1"/><path d="M8.04 5.82c.07.15.18.32.33.4h.03c.06-.05.16-.13.16-.2.02-.28.04-.55.04-.82 0-.21.03-.43.04-.65.02.1.02.22.01.36V5c-.02.32-.03.64-.02.96 0 .1-.05.16-.13.22l-.01.01a.2.2 0 0 1-.08.08h-.03a.68.68 0 0 1-.33-.37.02.02 0 0 0-.03 0H8a.57.57 0 0 1-.25.23l-.01-.01V6.1a.61.61 0 0 0 .28-.3h.01ZM9.95 5.92a.78.78 0 0 1-.32.36.03.03 0 0 1-.05 0l-.2-.21a.03.03 0 0 1 0-.03c0-.3-.02-.64-.04-1a2.04 2.04 0 0 1 .02-.4v.01c0 .19.03.38.03.56a12.94 12.94 0 0 0 .06.85l.13.14.03.02.04-.01c.13-.1.23-.23.3-.38 0-.02.02-.02.02 0 .07.1.15.2.26.27v.01a.51.51 0 0 1-.23-.2h-.01a.03.03 0 0 0-.03 0l-.01.01Z" fill="#1B93E2"/><path d="m5.94 4.74.09.07c.12.1.27.17.44.24l.51.16c.04.24.1.45.19.64v.03c-.1.19-.23.34-.38.47a1.91 1.91 0 0 1-.75-.32.3.3 0 0 1 0-.15l.03-.13.03-.2a.1.1 0 0 0 0-.05.09.09 0 0 0-.03-.04l-.25-.2a.16.16 0 0 0 0-.07.04.04 0 0 1 .02-.03c.05-.05.08-.22.09-.27 0-.01 0-.03.02-.05V4.8l-.01-.05ZM12 4.79c.06.07.1.14.1.19 0 .1.02.2.04.31l-.09.07-.01.02v.03c.06.12.11.24.15.37.02.04 0 .07-.04.09l-.01.02v.01c-.22.16-.47.3-.75.41-.1.04-.17.04-.24 0a2.35 2.35 0 0 1-.32-.44v-.03c.09-.19.15-.4.18-.63.26-.06.52-.15.76-.28l.13-.08.1-.06Z" fill="#EAE4C6"/><path d="M6.85 6.45a3.6 3.6 0 0 1 1.54.26c.22.1.39.24.51.44.04.05.03.07-.03.04a3.09 3.09 0 0 0-1.14-.3 3.2 3.2 0 0 0-.45 0 1.57 1.57 0 0 0-.46.03H6.8a.03.03 0 0 0 0 .03c0 .02 0 .03-.02.03l-.01-.02h-.02c-.05 0-.08-.02-.1-.08l.74-.05.05-.01.04-.03a.1.1 0 0 0 .02-.04l.01-.04v-.06a.16.16 0 0 1-.03-.07v-.01l.23.02c.07 0 .07-.01.01-.03a.38.38 0 0 0-.12 0l-.03-.01-.05-.02c-.26-.03-.5-.05-.7-.05.02-.01.03-.02.02-.03Zm1.2.26a.05.05 0 0 0-.03-.03h-.04l-.02.02a.06.06 0 0 0-.02.03v.03l.02.02c0 .02.01.03.03.03h.04l.02-.01a.06.06 0 0 0 .02-.04v-.02l-.02-.03ZM11.09 6.45h-.03c-.03.01-.03.02 0 .03l.08.01c-.17 0-.39.02-.65.04-.06 0-.12.02-.17.03a1.49 1.49 0 0 0-.43.08.3.3 0 0 0-.1.02.27.27 0 0 0-.08.08h.01c.01 0 .01 0 0 0a1.9 1.9 0 0 1-.07.16h-.02v.01a4.8 4.8 0 0 1 1.68-.04h.02l.01-.02v-.1c0 .07.02.13-.03.18l-.09-.01a4.32 4.32 0 0 0-2.14.25c.1-.2.33-.37.53-.45a3.88 3.88 0 0 1 1.48-.27Z" fill="#F7C572"/><path d="M6.83 6.48a4.81 4.81 0 0 1 .9.11c-.08 0-.16 0-.23-.02-.01 0-.02 0-.01.01 0 .03.02.05.03.07v.1a.1.1 0 0 1-.03.04.13.13 0 0 1-.04.03.15.15 0 0 1-.05 0l-.74.06c-.01-.1 0-.22.02-.34 0-.02.01-.03.02-.03l.03-.02h.1Zm.08.19v-.03c0-.02-.01-.02-.02-.02l-.03.01c-.01.05 0 .09.03.12h.06V6.7l-.02-.01c-.02 0-.02-.02-.02-.03Z" fill="#E59F5B"/><path d="M11.14 6.5h.15l.02.01v.02c.03.07.04.15.04.23l-.01.09v.01H11.16a4.8 4.8 0 0 0-1.54.05 1.43 1.43 0 0 1 .03-.03l.07-.13c0-.02 0-.02-.01-.01h-.01a.27.27 0 0 1 .08-.08.3.3 0 0 1 .1-.02l.15-.04c.04-.02.13-.03.28-.04.05 0 .1-.03.17-.03.26-.02.48-.04.65-.04Zm-1.03.22-.03-.01-.04.01a.08.08 0 0 0-.03.03v.04l.03.01h.04a.08.08 0 0 0 .03-.04v-.04Z" fill="#E6913E"/><path d="M8.51 6.68c0 .03 0 .05.04.07a.94.94 0 0 1 .44.43h.02c.11-.21.27-.36.48-.45l.12-.01c-.2.08-.43.24-.53.45-.01.04 0 .04.03.03a4.32 4.32 0 0 1 2.2-.27.17.17 0 0 1-.1.03v.02c.14.24.25.49.3.76-.04 0-.1 0-.15-.02a.05.05 0 0 1-.03-.02.1.1 0 0 0-.1-.05.04.04 0 0 1-.04-.01.14.14 0 0 1-.04-.06h.03v-.02l.01-.01a1.72 1.72 0 0 0-.16-.48c-.06-.1-.29-.12-.4-.12-.45 0-.95.05-1.37.25-.07.03-.14.1-.23.15a.07.07 0 0 1-.06 0c-.1-.06-.17-.13-.3-.18a4 4 0 0 0-1-.22 5.71 5.71 0 0 1-.4-.06h.46c.4.04.79.12 1.14.3.06.03.07.01.03-.04-.12-.2-.3-.34-.5-.44.03 0 .07 0 .11-.03Z" fill="#CD8039"/><path d="M8.51 6.68A.81.81 0 0 1 9 7.1a.02.02 0 0 0 .02 0c.1-.2.24-.3.43-.4h.03l.02.03a.97.97 0 0 0-.48.45.02.02 0 0 1-.02 0h-.01a.94.94 0 0 0-.43-.43c-.03-.02-.05-.04-.04-.07Z" fill="#569091"/><path d="M7.28 6.9a5.7 5.7 0 0 0 .8.1c.19.04.4.1.6.17.12.05.19.12.29.18a.07.07 0 0 0 .06 0c.09-.04.16-.12.24-.15.41-.2.91-.26 1.36-.25.11 0 .34.02.4.12a1.72 1.72 0 0 1 .16.5h-.03a.43.43 0 0 0-.32-.15 2.84 2.84 0 0 0-.91.04c-.22.05-.38.1-.47.16a.96.96 0 0 1-.9.02 2.41 2.41 0 0 0-1.45-.22.39.39 0 0 0-.3.2l-.02.02c-.07.02-.09 0-.13.06l-.03.02a.34.34 0 0 1-.16.02 12 12 0 0 0 .1-.22l.06-.17c.02-.09.07-.2.16-.37.01 0 .02-.01.02-.03a.03.03 0 0 1 0-.02v-.01h.02c.16-.04.3-.04.45-.03Zm.13.43c.3.01.67.05.94.18.03.02.04.01.02-.02-.22-.37-.63-.35-.96-.18-.03.01-.03.02 0 .02Zm2.2.19c.31-.12.63-.18.96-.18.05 0 .05-.01 0-.03-.34-.18-.74-.2-.96.2v.01Z" fill="#E6913E"/><path d="m11.15 7.58.04.06a.04.04 0 0 0 .03 0 .1.1 0 0 1 .1.06l.04.02c.05.02.1.02.15.02.09.02.1.08.06.17l-.2-.02c-.02 0-.03 0-.03.02 0 .03-.02.06-.05.08a3.98 3.98 0 0 1-.02.8c-.04.2-.15.3-.34.3-.23 0-.55-.02-.95-.08-.25-.03-.43-.04-.57-.23l-.19-.7a.06.06 0 0 0-.02-.05c-.1-.05-.4-.1-.44.06-.05.23-.1.46-.18.69-.07.1-.15.15-.23.17-.32.08-.7.12-1.12.14-.27 0-.47-.02-.5-.33a4.42 4.42 0 0 1-.02-.77.15.15 0 0 1-.06-.08c0-.02-.01-.02-.02-.02l-.2.03c-.06-.09-.05-.14.04-.18.05 0 .1 0 .16-.02.01 0 .02 0 .03-.02.04-.06.06-.04.12-.06.01 0 .02 0 .03-.02a.39.39 0 0 1 .3-.2c.49-.07 1.01-.01 1.45.22a.96.96 0 0 0 .9-.02c.1-.06.25-.11.47-.16.28-.06.58-.08.91-.04.14.01.24.06.31.16Zm-4.33.72c0 .17 0 .34.03.51.04.14.19.17.3.15l.4-.02c.03 0 .03 0 0-.02a3.48 3.48 0 0 0-.09-.04c-.2-.08-.29-.24-.3-.49.02-.35.23-.78.6-.85.03 0 .03 0 0-.01-.17-.01-.76-.05-.84.14-.06.16-.1.37-.1.63Zm3.19-.73c-.23.04-.45.13-.67.26a.07.07 0 0 0-.02.04v.04l.1.43.06.27c.04.14.08.18.2.22.13.03.23.05.3.05.28.1.62-.05.65-.39l.01-.08a.01.01 0 0 1 .03 0l.04.08c0 .02.02.02.03.02h.02c.02 0 .02 0 .03.02l.01.04c-.06.24-.2.29-.4.37l.45.02c.07.01.27-.02.27-.12l.01-.02a2.52 2.52 0 0 0-.04-1.07c-.03-.12-.1-.19-.22-.2-.2-.03-.42-.04-.63-.02l-.23.04Zm-1.7.83c-.03.17-.08.27-.17.32a.76.76 0 0 0-.05-.82c-.17-.24-.46-.15-.6.06a.77.77 0 0 0-.13.56c.03.28.33.43.57.38.14-.01.27-.04.4-.08.16-.05.19-.22.21-.36.05-.17.1-.34.13-.51.01-.06 0-.1-.06-.14a2.15 2.15 0 0 0-.62-.24v.01c.29.14.38.52.32.82Z" fill="#020101"/><path d="M7.17 8.4h-.03l-.02-.01c-.09-.01-.25 0-.3-.1 0-.25.04-.46.1-.62.08-.2.67-.15.83-.14.04 0 .04 0 0 .01-.36.07-.57.5-.58.85Z" fill="#E59F5B"/><path d="M10.24 7.53c.39.11.6.53.59.94l-.03.1a.1.1 0 0 0-.01-.04.03.03 0 0 0-.03-.02h-.02c-.01 0-.02 0-.03-.02a.28.28 0 0 0-.04-.09.01.01 0 0 0-.02 0v.01l-.02.08c.01-.3-.07-.59-.35-.72-.15-.07-.3.02-.4.15-.16.24-.17.5-.03.8-.06-.02-.1-.08-.13-.16a1.44 1.44 0 0 1-.05-.22c-.03-.3.07-.62.34-.77l.23-.04Z" fill="#2F2A22"/><path d="M10.24 7.53c.22-.02.43-.01.63.02.12.01.2.08.23.2.06.25.08.5.06.76h-.2a.5.5 0 0 1-.13-.04c0-.41-.2-.83-.6-.94ZM8.54 8.46c-.01.04-.04.04-.07.03h-.03c-.07.01-.11-.02-.13-.09.06-.3-.03-.68-.32-.82v-.01c.21.04.42.12.62.24.05.03.07.08.06.14l-.13.51ZM10.01 7.57c-.27.15-.37.47-.34.77a.1.1 0 0 1-.08 0l-.03.01-.03.01-.12-.02-.1-.43v-.04l.04-.04c.2-.13.43-.22.66-.26Z" fill="#E59F5B"/><path d="M8.14 8.72a.39.39 0 0 1-.2.18c-.24.05-.55-.1-.58-.38a.77.77 0 0 1 .12-.56c.16-.21.44-.3.61-.06.18.25.2.53.05.82Zm-.3.14c.08 0 .17-.04.24-.13a.5.5 0 0 0 .1-.3.5.5 0 0 0-.1-.32.31.31 0 0 0-.25-.13c-.1 0-.18.05-.25.13a.5.5 0 0 0-.1.31c0 .12.04.23.1.31.07.09.16.13.25.13ZM10.63 8.5c-.03.33-.37.48-.65.38l-.13-.16c-.14-.3-.13-.56.04-.8.09-.13.24-.22.39-.15.28.13.37.41.35.72Zm-.47.36c.1 0 .18-.05.25-.13a.54.54 0 0 0 .08-.48.46.46 0 0 0-.08-.14.35.35 0 0 0-.11-.1.29.29 0 0 0-.13-.03c-.1 0-.19.05-.25.13a.54.54 0 0 0-.08.48l.08.14.11.1c.04.02.09.03.13.03Z" fill="#FEFEEC"/><path d="M6.72 8.76a.69.69 0 0 0-.37-.04l-.01.01-.01.02v.03a.2.2 0 0 0 .06.04l.02.02a.02.02 0 0 1 0 .01v.01H6.4a.47.47 0 0 0-.32.24.05.05 0 0 0 0 .03v.02h.02l.1.1a.02.02 0 0 1 0 .04h-.01a.45.45 0 0 0-.25.16l-.01-.01a.47.47 0 0 1 .22-.17l.01-.01v-.01l-.1-.1-.02-.02v-.02c.07-.12.16-.2.28-.25l.02-.03c0-.01 0-.02-.02-.03l-.05-.01-.01-.02a.03.03 0 0 1 0-.03l.01-.01.13-.05.02-.02c0-.19-.02-.37 0-.55l.02-.2.19-.02s.02 0 .02.02c.01.03.03.06.06.08l.01.03c-.02.24-.02.49 0 .74ZM11.57 7.9c.01.21.02.42.01.63 0 .05-.04.15.05.17l-.14.01-.16.03c-.02 0-.03.01-.03.03l-.03.01a3.98 3.98 0 0 0 .02-.8.12.12 0 0 0 .05-.07c0-.02.01-.02.02-.02l.2.02ZM9.41 8.78c-.23-.1-.37-.23-.63-.1l-.2.1c.07-.23.13-.46.18-.7.04-.15.35-.1.44-.05a.06.06 0 0 1 .03.04l.18.71Z" fill="#CD8039"/><path d="M7.83 8.86a.31.31 0 0 1-.25-.13.5.5 0 0 1-.1-.3.5.5 0 0 1 .1-.32.31.31 0 0 1 .25-.13c.09 0 .18.05.24.13.07.08.1.2.1.31a.5.5 0 0 1-.1.31.31.31 0 0 1-.24.13Zm-.02-.14c.03 0 .06 0 .09-.02a.23.23 0 0 0 .07-.06.3.3 0 0 0 .06-.09.36.36 0 0 0-.03-.32.24.24 0 0 0-.07-.07.18.18 0 0 0-.17-.01.23.23 0 0 0-.08.06.3.3 0 0 0-.05.09.36.36 0 0 0 .02.32l.07.07.09.03ZM10.16 8.86a.29.29 0 0 1-.13-.04.35.35 0 0 1-.11-.1.46.46 0 0 1-.08-.13.54.54 0 0 1 .08-.48.31.31 0 0 1 .24-.13c.05 0 .1.01.14.04.04.02.08.05.1.1.04.03.07.08.08.13a.54.54 0 0 1-.07.48.31.31 0 0 1-.25.13Zm.22-.52a.22.22 0 0 0-.08-.15.2.2 0 0 0-.14-.04h-.04a.2.2 0 0 0-.14.08.23.23 0 0 0-.04.16l.01.13c0 .05.03.1.08.14.04.04.1.06.15.05h.03a.2.2 0 0 0 .14-.08c.03-.05.05-.1.04-.16l-.01-.13Z" fill="#603C28"/><path d="M7.8 8.72a.19.19 0 0 1-.08-.03.24.24 0 0 1-.07-.07.31.31 0 0 1-.04-.1.37.37 0 0 1 .02-.22.3.3 0 0 1 .05-.1.23.23 0 0 1 .08-.05.18.18 0 0 1 .17.01l.07.07.05.1a.37.37 0 0 1-.02.22.3.3 0 0 1-.06.1.23.23 0 0 1-.07.05.18.18 0 0 1-.1.02Zm.2-.4c0-.02-.01-.03-.02-.03 0-.01 0-.02-.02-.02l-.03-.02a.14.14 0 0 0-.07 0l-.04.02-.02.02v.05l.02.02.04.01a.14.14 0 0 0 .1-.01l.02-.02L8 8.3Zm-.06.25h-.23v.03l.03.01.03.02h.05l.1-.01.03-.04-.01-.01Z" fill="#020101"/><path d="M10.4 8.47c0 .05-.02.11-.05.16a.2.2 0 0 1-.14.08h-.03a.2.2 0 0 1-.15-.05.22.22 0 0 1-.08-.14v-.13c-.02-.06 0-.12.03-.16a.2.2 0 0 1 .14-.08h.04c.05-.01.1 0 .15.04.04.04.06.1.07.15l.01.13Zm-.2-.16c0-.02-.02-.03-.04-.05a.13.13 0 0 0-.07-.01c-.02 0-.05 0-.06.02L10 8.3c0 .02 0 .04.03.05l.07.02.06-.02c.02-.02.03-.03.03-.05Zm.04.29a.33.33 0 0 0-.18-.02c-.02 0-.02 0 0 .01a.2.2 0 0 0 .18.03c.02 0 .02-.02 0-.02Z" fill="#151515"/><path d="M7.9 8.38c.05 0 .1-.03.1-.07 0-.03-.05-.06-.1-.06-.06 0-.1.03-.1.06 0 .04.04.07.1.07ZM10.1 8.38c.05 0 .1-.04.1-.07-.01-.04-.05-.06-.1-.06-.06 0-.1.03-.1.06 0 .04.04.07.1.07Z" fill="#fff"/><path d="M6.82 8.3c.05.1.21.08.3.09h.01l.01.02h.01l.02-.02c0 .25.1.41.3.5l.09.03c.03.02.02.02 0 .02l-.4.02-.3-.15a2.44 2.44 0 0 1-.04-.51ZM9.41 8.34l.12.02h.03c.01-.02.02-.02.03-.01a.1.1 0 0 0 .08 0l.05.21c.03.08.07.14.13.16l.13.16a1.2 1.2 0 0 1-.3-.05c-.12-.04-.16-.08-.2-.22l-.07-.27ZM8.31 8.4c.02.07.06.1.13.09h.03c.03.01.06 0 .08-.03-.03.14-.06.31-.22.36-.13.04-.26.07-.4.08a.39.39 0 0 0 .21-.18c.09-.05.14-.15.17-.32ZM10.83 8.47c.05.02.1.04.14.04h.2l-.03.31-.02.02h-.03l-.24.12-.45-.02c.2-.08.34-.13.4-.37l.03-.1Z" fill="#AC6737"/><path d="M9.41 8.78c.14.19.32.2.57.23.4.06.72.09.95.08.2 0 .3-.1.34-.3l.03-.02h.08c.02 0 .03 0 .03.02v.03l-.07.08a.03.03 0 0 0 0 .05h.01c.1 0 .35.03.39.15a.03.03 0 0 1 0 .03.3.3 0 0 0-.1.19l.01.03.21.07.03.01a.07.07 0 0 1 .01.06l-.01.03a54.95 54.95 0 0 1-.3.52l-.01.02v.01a.1.1 0 0 0 .11-.05l.03-.02h.02v.04c-.11.17-.2.25-.33.37-.28.22-.6.38-.92.49l-.6.17a.45.45 0 0 0-.15.07c-.16.12-.3.2-.54.25a1.14 1.14 0 0 1-.84-.18.54.54 0 0 0-.24-.13l-.63-.18c-.27-.1-.53-.23-.78-.4l-.1-.07-.03-.03c-.13-.1-.25-.23-.35-.38V10c0-.02.01-.02.02-.01l.02.01c.05.02.05.01.03-.03l-.07-.07c-.08-.12-.17-.3-.28-.39-.02 0-.02-.02-.02-.03v-.03a.45.45 0 0 1 .26-.16l.01-.01a.02.02 0 0 0 0-.02.27.27 0 0 0-.1-.1l-.02-.01a.04.04 0 0 1 0-.04V9.1a.47.47 0 0 1 .32-.24.02.02 0 0 0 0-.02l-.01-.02a.2.2 0 0 1-.05-.04l-.01-.02a.03.03 0 0 1 0-.03h.02a.69.69 0 0 1 .37.03c.04.31.24.34.5.33.43-.02.8-.06 1.13-.14.08-.02.16-.07.23-.17l.2-.1c.26-.13.4 0 .63.1Zm-.82.42.14.24c.1.15.2.24.36.17a.28.28 0 0 0 .12-.12l.17-.29.2-.1h.02v-.02c-.03-.28-.82-.2-.98-.18-.1.02-.22.06-.25.18l.01.02.2.1Zm-.67.74c.06.17.15.32.27.46.01.04.04.07.07.1.01.07.03.1.08.13.06.05.08.11.14.15.3.23.74.23 1.03 0 .09-.06.17-.16.25-.24.05-.05.1-.13.11-.26l.17-.31.2-.27c.03-.02.05-.03.08-.01a.1.1 0 0 0 .09 0v-.02a.61.61 0 0 1-.27-.14h-.03v.03l.08.08v.03a.81.81 0 0 1-.14.18.21.21 0 0 1-.06.04c-.06.03-.1.05-.16.06l-.15.02a.67.67 0 0 1-.34-.02c-.07-.03-.15-.04-.21-.09-.05-.03-.13-.11-.2-.06a.7.7 0 0 1-.39.16l-.3-.02a.9.9 0 0 1-.34-.1c-.04-.01-.08-.07-.14-.18v-.03l.08-.04v-.05a.01.01 0 0 0-.01 0 .46.46 0 0 1-.27.12.02.02 0 0 0 0 .02v.01c.04 0 .08 0 .12-.02h.02v.01c.07.1.14.19.22.26Z" fill="#FEFEEC"/><path d="M11.63 8.7c.04 0 .07.02.1.05h.01v.02l-.01.01-.04.01c-.07.02-.07.05 0 .07.08.03.27.17.26.3a.03.03 0 0 1-.02.02.23.23 0 0 0-.1.06l.01.03c.1.03.18.1.25.18a.04.04 0 0 1 0 .06.5.5 0 0 0-.13.13 9.6 9.6 0 0 1-.24.36l-.03.02h-.01v-.03c.1-.12.19-.24.27-.38a.52.52 0 0 1 .11-.12v-.02a.46.46 0 0 0-.25-.18h-.01a.03.03 0 0 1 0-.03.3.3 0 0 1 .1-.1l.01-.01a.05.05 0 0 0 .01-.04v-.02a.5.5 0 0 0-.3-.22c-.05-.02-.05-.04 0-.06l.04-.04h.01v-.04a.33.33 0 0 0-.18-.02l.14-.01Z" fill="#524E4D"/><path d="M11.5 8.71c.06 0 .11 0 .16.02l.01.01a.02.02 0 0 1 0 .02v.01l-.06.04c-.04.02-.04.05.01.06.13.03.22.1.3.22a.05.05 0 0 1 0 .04v.02l-.02.01a.3.3 0 0 0-.1.1.03.03 0 0 0 0 .03h.01c.1.03.19.09.26.18v.02a.52.52 0 0 0-.12.12 3.02 3.02 0 0 1-.27.4h.01a.1.1 0 0 1-.1.06h-.01v-.01l.01-.02a54.54 54.54 0 0 0 .3-.58v-.03l-.03-.01-.2-.07c-.02 0-.02-.02-.02-.03a.3.3 0 0 1 .1-.19.03.03 0 0 0 0-.03c-.04-.12-.3-.15-.38-.15h-.02v-.02a.03.03 0 0 1 0-.03l.07-.08v-.03c0-.02 0-.03-.03-.03l-.08.01a13.2 13.2 0 0 1 .2-.06Z" fill="#EAE4C6"/><path d="m6.86 8.82.3.14c-.12.02-.27-.01-.3-.14ZM11.12 8.84c0 .1-.2.13-.27.12l.24-.12h.03Z" fill="#FEFEEC"/><path d="M9.38 9.2c-.2.14-.33.6-.6.21a.9.9 0 0 0-.2-.2l-.2-.1-.01-.03c.03-.12.15-.16.25-.18.16-.02.95-.1.98.18v.01l-.02.01-.2.1Zm-.67-.22h.14A2.16 2.16 0 0 1 9.4 9v-.02a1.68 1.68 0 0 0-.7-.02c-.04 0-.04.01 0 .02Zm.54.12-.02-.03a.22.22 0 0 0-.06-.02.64.64 0 0 0-.17-.01l-.18.01c-.05.01-.07.03-.07.04 0 .01 0 .02.02.03l.05.01a.64.64 0 0 0 .18.02l.17-.01.08-.04Z" fill="#020101"/><path d="M8.7 8.96a1.68 1.68 0 0 1 .7.03V9h-.01c-.2-.03-.38-.04-.54-.02H8.7c-.05 0-.05-.02 0-.02ZM9 9.15c.14 0 .25-.02.25-.05 0-.04-.11-.06-.25-.06s-.25.02-.25.05c0 .04.11.06.25.06Z" fill="#524E4D"/><path d="M8.59 9.2a.9.9 0 0 1 .2.21c.26.4.4-.07.59-.2l-.17.28a.28.28 0 0 1-.12.12c-.16.07-.27-.02-.36-.17l-.14-.24Z" fill="#EAE4C6"/><path d="M5.93 9.44v.04l.01.03c.12.09.21.27.3.4l.06.06c.02.04.02.05-.03.03L6.25 10h-.02v.03c.1.15.22.27.35.38a.17.17 0 0 1-.03.06v-.03l-.01-.03c-.11-.1-.22-.2-.32-.34-.03-.05-.03-.09-.02-.12V9.9c-.08-.13-.16-.3-.28-.39-.04-.02-.03-.05.01-.08Z" fill="#4B7F83"/><path d="M10.04 9.97v-.03c0-.03-.02-.04-.04-.02-.2.12-.42.16-.65.14-.12 0-.33-.06-.35-.2v-.01h-.03c-.02.09-.09.15-.18.17-.3.08-.57.05-.83-.1h-.02c-.03 0-.03 0-.02.02a1.02 1.02 0 0 1-.21-.26l-.01-.01h-.02a.34.34 0 0 1-.12.03v-.02a.02.02 0 0 1 0-.01.02.02 0 0 1 .01-.01.46.46 0 0 0 .26-.13h.01v.06l-.08.04v.03c.06.1.1.17.14.18.14.07.25.1.34.1l.3.02a.7.7 0 0 0 .4-.16c.06-.05.14.03.19.06.06.05.14.06.21.09.1.04.24.05.34.02l.15-.02c.06 0 .1-.03.16-.06a.21.21 0 0 0 .06-.04c.06-.05.1-.11.15-.18v-.03a.32.32 0 0 1-.08-.08v-.02c0-.02 0-.02.02-.01.08.07.17.11.26.13l.01.01v.02a.1.1 0 0 1-.1 0c-.02-.02-.04-.01-.06.01l-.21.27Z" fill="#EAE4C6"/><path d="m10.04 9.97-.17.3-.19.24v-.04a.26.26 0 0 0-.18-.04c-.18.01-.42.06-.6.03-.2-.04-.41-.18-.68-.09l-.02.03h-.02c-.11-.14-.2-.29-.27-.46 0-.01 0-.02.03-.03h.02c.26.16.54.2.83.11.1-.02.15-.08.18-.17a.02.02 0 0 1 .02 0c.03.15.24.2.36.21.23.02.44-.02.65-.14.02-.02.04-.01.05.02l-.01.03Z" fill="#4C060B"/><path d="M11.44 10.46c0 .03 0 .07.02.1l.04.3c0 .81-.29 1.66-.73 2.3l-.32.4-.02.02a4.14 4.14 0 0 1-.43.35c-.08.05-.16.11-.25.15-.2.09-.35.16-.6.17.26-.11.5-.19.74-.36.06-.04.12-.12.2-.16l.02-.01.02-.03a3.9 3.9 0 0 0 1.2-3.17l.02-.02h.02l.04.01c.02.03.03.02.03 0 0-.05 0-.08-.03-.1.13-.12.22-.2.33-.37.02 0 .03-.03.03-.07a.01.01 0 0 1 .01-.01h.02v.01c-.04.16-.22.32-.35.45-.02 0-.02.02 0 .04Z" fill="#333738"/><path d="M9.87 10.28c-.02.13-.06.21-.1.26-.1.08-.17.18-.26.24a.88.88 0 0 1-1.03 0c-.06-.04-.08-.1-.14-.15-.05-.03-.07-.06-.08-.13.3.3.68.45 1.08.28a1.28 1.28 0 0 0 .33-.26l.01-.01.2-.23Z" fill="#EAE4C6"/><path d="M9.67 10.47c0 .03 0 .05-.02.06-.12.08-.26.18-.4.22-.09.03-.16.07-.26.07a.94.94 0 0 1-.61-.26l-.18-.16.02-.03c.27-.09.48.05.69.09.17.03.4-.02.59-.03.06 0 .12 0 .17.04Z" fill="#EAAEAE"/><path d="M8.19 10.4a16.56 16.56 0 0 0 .37.3c.14.07.28.1.43.12.1 0 .17-.04.27-.07.13-.04.27-.14.39-.22l.02-.06.01.04v.01l-.02.02c-.13.13-.24.2-.32.24-.4.17-.78.03-1.08-.28a.27.27 0 0 1-.07-.1Z" fill="#AC6737"/><path d="m6.58 10.4.03.03a.62.62 0 0 0-.06.23l-.02.1c-.03.54.1 1.08.3 1.56.03.08.08.23.14.35a6.76 6.76 0 0 0 .6.86c.1.1.23.2.35.3a2.1 2.1 0 0 0 .69.36v-.01h.01v-.02a2.04 2.04 0 0 1-.8-.5c-.24-.21-.43-.48-.59-.75a3.77 3.77 0 0 1-.56-2.4l.02-.01h.02c.24.17.5.3.78.4l.04.08c0 .05.02.1.06.15A6.3 6.3 0 0 0 9 13.83a.05.05 0 0 0 .04-.02l.02-.02a7.86 7.86 0 0 0 1.35-2.7l.02-.04a.3.3 0 0 0 .05-.15c.33-.1.63-.27.92-.49.02.02.03.05.03.1 0 .02-.02.03-.03 0l-.04-.01h-.02l-.02.02a.06.06 0 0 0-.01.04 3.9 3.9 0 0 1-1.23 3.17c-.08.04-.14.12-.2.16-.25.17-.48.25-.74.36-.14.04-.27 0-.38 0-.1-.01-.2-.04-.3-.08a3.4 3.4 0 0 1-.52-.26l-.38-.33a.1.1 0 0 1-.02-.02 5.9 5.9 0 0 1-.5-.67 4.64 4.64 0 0 1-.57-1.94 1.85 1.85 0 0 1 .1-.55Zm2.04 3.2c-.5-.35-.94-.79-1.33-1.26a.8.8 0 0 1-.15-.25c-.04-.11.02-.15.08-.21a5.68 5.68 0 0 1 .14-.2l-.38-.22a.06.06 0 0 1-.03-.04v-.04a1.36 1.36 0 0 1 .3-.48v-.02l-.01-.02-.01-.01a.01.01 0 0 0-.01 0 1.9 1.9 0 0 0-.35.54.1.1 0 0 0 0 .07c0 .02.02.04.04.05l.33.18.01.01a.03.03 0 0 1 0 .03l-.17.2c-.1.1-.01.22.05.32a5.43 5.43 0 0 0 1.47 1.38h.01v-.02c.01 0 .01 0 0 0Zm.65.1h.01c.6-.38 1.1-.81 1.55-1.4.08-.11.2-.26.1-.37a3.65 3.65 0 0 1-.18-.22v-.01l.33-.18a.1.1 0 0 0 .05-.06.1.1 0 0 0-.01-.08 1.7 1.7 0 0 0-.22-.37 2.18 2.18 0 0 1-.12-.14l-.03-.01a.01.01 0 0 0-.01 0 .01.01 0 0 0 0 .02c.13.15.22.31.3.5 0 .03 0 .06-.03.08l-.37.22a.02.02 0 0 0-.01.02v.01l.18.2c.1.12.01.27-.06.37a6.65 6.65 0 0 1-1.48 1.42Z" fill="#151515"/><path d="m6.62 10.43.1.07H6.7c-.02 0-.02 0-.03.02-.1.88.13 1.65.56 2.4a3.05 3.05 0 0 0 .68.82c.18.19.47.33.7.42l.01.01v.01H8.6a2.1 2.1 0 0 1-.68-.35l-.36-.3a6.76 6.76 0 0 1-.59-.86c-.06-.12-.1-.27-.14-.35a3.58 3.58 0 0 1-.3-1.55l.02-.11c.01-.08.03-.16.07-.23Z" fill="#524E4D"/><path d="M6.55 10.46v.03c-.04.15-.06.3-.07.46l-.01.17c-.05.16-.02.38.03.54.03.14.05.28.1.41l.03.12c.06.23.17.43.24.62.05.12.12.2.15.34l.04.28.03.12a.01.01 0 0 1 0 .01.01.01 0 0 1-.01 0 3.49 3.49 0 0 1-.3-.28c-.03-.04-.06-.05-.1-.02l-.03.07-.02.11h-.02c-.01 0-.02 0-.02-.02 0-.03-.02-.05-.05-.05h-.02l-.02-.02a2.18 2.18 0 0 1-.21-.56c0-.04-.02-.06-.06-.05h-.01a.01.01 0 0 1 0-.01v-.02H6.2v-.01h-.02a.12.12 0 0 0-.04.1c0 .02 0 .02-.02.01a.3.3 0 0 1-.08-.09c-.03-.05 0-.11-.05-.17v-.13a2.15 2.15 0 0 1 0-.63l.05-.27.15-.47c.05-.15.23-.54.35-.6Z" fill="#1B93E2"/><path d="M11.44 10.46c.02 0 .04.02.06.04.1.16.2.32.26.48l.17.49.08.5v.02l-.03.59-.05.2v.02l-.01.01a.15.15 0 0 0-.05.03h-.02l-.01-.01a.06.06 0 0 1-.02-.04c0-.02-.02-.03-.05-.02-.01 0-.02 0-.02.02l-.01.03a.1.1 0 0 1-.02.03.2.2 0 0 0-.04.07l.02-.26v-.04a.06.06 0 0 0-.04-.03.26.26 0 0 1-.1-.07.02.02 0 0 1 0-.03c.08-.02.16 0 .23.03a.06.06 0 0 0 .06 0l.02-.02v-.03c0-.24.03-.4 0-.7a4.25 4.25 0 0 0-.24-.94c-.03-.08-.08-.15-.13-.23v-.06h-.03l-.01.03a.23.23 0 0 1-.02-.11Z" fill="#1079C1"/><path d="m11.68 12.92-.08.22c-.03.09-.06.14-.09.17-.05.04-.07.02-.06-.04a.68.68 0 0 0-.1-.47c-.08-.11-.1-.1-.08.03l.03.28-.01.04a.54.54 0 0 1-.13.15l-.01.03c-.02.08-.08.09-.11.16l-.11.1c-.05-.02-.05-.07-.03-.13.07-.14.05-.28.12-.43a6.02 6.02 0 0 0 .46-1.2c.04-.07.02-.13.03-.19.04-.21.08-.55 0-.77l-.05-.3v-.03h.03v.02l.01.04c.05.08.1.15.13.23.1.3.2.63.24.95.03.28 0 .45 0 .69v.03l-.02.02a.06.06 0 0 1-.06 0 .34.34 0 0 0-.23-.03l-.01.01v.01c.03.04.07.07.11.08l.03.03.01.04-.02.26Z" fill="#1B93E2"/><path d="M7.29 12.34a7.22 7.22 0 0 0 1.33 1.27v.01h-.03a5.04 5.04 0 0 1-1.46-1.37c-.06-.1-.14-.23-.05-.32a5.21 5.21 0 0 0 .17-.23l-.34-.19a.1.1 0 0 1-.04-.05.1.1 0 0 1 0-.07 1.9 1.9 0 0 1 .36-.54l.02.03a.03.03 0 0 1-.01.03c-.13.14-.22.3-.29.47v.04c0 .02.02.03.03.04l.38.23a.02.02 0 0 1 0 .02l-.14.17c-.05.06-.12.1-.08.2a.8.8 0 0 0 .15.26ZM9.28 13.7c.05-.06.11-.1.17-.15.49-.34.93-.8 1.3-1.27.08-.1.17-.25.06-.36a6.91 6.91 0 0 1-.18-.23l.38-.23c.03-.02.04-.05.03-.08a1.68 1.68 0 0 0-.3-.5v-.01l.01-.01h.03l.02.02.1.13c.1.12.16.24.22.37a.1.1 0 0 1 0 .08.1.1 0 0 1-.04.06l-.33.18a.02.02 0 0 0 0 .01v.01l.18.21c.1.11-.02.26-.1.37a5.62 5.62 0 0 1-1.55 1.4Z" fill="#333738"/><path d="M11.5 10.87c.1.22.05.56.01.77 0 .06 0 .12-.03.18v.03l-.01.03-.01.02-.17.54-.27.6c-.07.14-.05.28-.12.42-.02.06-.02.1.03.13-.11.12-.17.1-.17-.07v-.11c0-.06 0-.12.02-.18v-.04l-.01-.03c.44-.64.72-1.49.73-2.3ZM6.48 10.95a4.25 4.25 0 0 0 .9 2.42c.05.08.1.13.17.19a.15.15 0 0 0-.03.1c-.04.01-.06.04-.06.07 0 .06-.02.1-.04.14v.01h-.03c-.02 0-.04 0-.05-.03a.06.06 0 0 0-.03-.02l-.09-.05v-.02c-.01-.03-.03-.05-.06-.06a.04.04 0 0 1-.02-.02c-.04-.07-.1-.08-.12-.16a.2.2 0 0 0 .06.04h.01v-.01c0-.05-.02-.08-.03-.12 0-.1-.02-.2-.04-.28-.03-.13-.1-.22-.15-.34-.07-.19-.18-.39-.24-.62l-.03-.12c-.05-.13-.07-.27-.1-.41a1.13 1.13 0 0 1-.04-.54.57.57 0 0 0 .02-.17Z" fill="#1079C1"/><path d="m10.44 11.04-.02.04-.2.45a3.17 3.17 0 0 1-.44.65h-.02c-.06-.18-.15-.33-.24-.5-.04-.08-.1-.13-.16-.2l-.07-.08c.17-.04.33-.12.47-.23a.3.3 0 0 1 .12-.06 4.08 4.08 0 0 0 .56-.16c.01 0 .02.01.01.02a.1.1 0 0 1 0 .04l-.01.03ZM8.7 11.41l-.15.16a3.32 3.32 0 0 0-.33.62H8.2a3.65 3.65 0 0 1-.64-1.14l-.03-.07.02-.01h.02l.54.14c.04.01.09.04.13.07a1.25 1.25 0 0 0 .45.22v.01Z" fill="#FEFEEC"/><path d="M7.57 11.05s.02.01.02.03a3.65 3.65 0 0 0 .64 1.1c.1-.23.2-.43.32-.6.02.02.03.05.03.08h-.03v.02a3.12 3.12 0 0 0-.32.6.02.02 0 0 1-.02 0l-.24-.3a1.66 1.66 0 0 1-.14-.26c-.04-.09-.1-.18-.15-.26a1.1 1.1 0 0 1-.1-.33.15.15 0 0 1 0-.08ZM10.42 11.08c-.03.16-.07.3-.13.44 0-.01 0-.02-.02 0l-.01.01c-.09.2-.19.38-.3.54l-.2.23c0 .02-.01.02-.01 0v-.02a4.47 4.47 0 0 0-.3-.62l-.03.01v.02-.1l-.01-.03a.25.25 0 0 1-.05-.07c.06.06.12.11.16.2.09.16.18.3.24.48l.01.01a.02.02 0 0 0 .03 0c.16-.2.3-.41.41-.65l.21-.45Z" fill="#A8A17F"/><path d="M8.72 11.37c.16.04.32.05.48.02l.09.01.07.09.05.07v.13c-.04.14-.11.38-.22.48v.03c.14.29.25.59.34.9a3.67 3.67 0 0 1-.52.72l-.02-.01a10.09 10.09 0 0 1-.53-.68l.33-.92v-.03c-.1-.16-.17-.34-.22-.52 0-.03 0-.06-.02-.09l.16-.16.01-.04Z" fill="#0A4F70"/><path d="M8.57 11.66c.05.18.12.36.22.52v.03l-.33.92a6.3 6.3 0 0 1-.78-1.67c.06.08.1.17.15.26.05.1.1.2.14.25a5.23 5.23 0 0 0 .27.3 3.12 3.12 0 0 1 .3-.6c.01-.02.02-.02.03-.01ZM10.3 11.52c-.2.55-.45 1.08-.77 1.59a5.5 5.5 0 0 0-.34-.94c.1-.1.18-.34.22-.48l.01-.02h.04a4.46 4.46 0 0 1 .29.61v.02c0 .02 0 .02.01 0l.2-.23a3.02 3.02 0 0 0 .31-.56l.03.01Z" fill="#FEFEEC"/><path d="M11.6 13.14c0 .07-.03.13-.06.19-.02.04-.07.06-.1.11l-.03.02c-.07 0-.06-.12-.1-.16a.07.07 0 0 0-.02-.03.06.06 0 0 0-.07.02l-.02.03a.28.28 0 0 1-.16.17c.03-.07.09-.08.1-.16l.02-.03c.05-.04.1-.1.13-.15v-.04c0-.1 0-.18-.02-.28-.02-.13 0-.14.08-.03.08.12.11.27.1.47-.01.06.01.08.06.04.03-.03.06-.08.09-.17Z" fill="#1079C1"/><path d="M7.56 13.59a.16.16 0 0 1 .01 0l.38.32a1.3 1.3 0 0 1-.1.36l-.03.02-.06-.09h-.03l-.06.09h-.01a.02.02 0 0 1-.03 0v-.01l-.05-.12a.1.1 0 0 0 0-.04h-.02a.6.6 0 0 0-.03.04l-.02.01-.02-.02c-.01-.19.01-.38.07-.56ZM10.43 13.58c.06.2.08.37.07.54 0 .06-.01.06-.04.01a.05.05 0 0 0-.03-.02h-.01l-.04.17h-.01a.03.03 0 0 1-.04 0l-.05-.07-.02-.01a.03.03 0 0 0-.03 0l-.01.02-.04.09-.03-.03a1.16 1.16 0 0 1-.1-.35v-.03l.01-.01.37-.31Z" fill="#FEFEEC"/><path d="M6.84 14.73c.1-.08.23-.1.34-.13.12-.03.26.04.3-.12l.07-.29.07.12v.01l.02.01h.02l.05-.06.03-.01h.03l.02.03v.03c-.06.17-.18.4 0 .52.05.03.08.06.1.1a.04.04 0 0 1 0 .05h-.03c-.08 0-.2.03-.26-.05l-.03-.01c-.06 0-.1 0-.18-.02l-.13.02a.77.77 0 0 0-.13.02.05.05 0 0 0-.03.02l-.02.02c-.02 0-.02 0-.03-.02 0-.03-.03-.04-.06-.02a2.33 2.33 0 0 1-.12.03L6.8 15h-.04l-.01-.01v-.02a.3.3 0 0 1 .08-.23Zm.26.02c.02 0 .03-.02.05-.03.01-.02.01-.02-.01-.02h-.08c-.03 0-.03.01 0 .02l.02.04h.02Zm-.2.08a.16.16 0 0 1 .1-.1h-.08l-.01.01c0 .05-.02.1-.05.15v.03h.02a.09.09 0 0 0 .01-.05l.01-.04ZM11.15 14.72l.08.09v.03l.02.12v.01l-.01.02h-.03l-.16-.02-.03-.01a.09.09 0 0 0-.04-.02l-.02.02-.02.02h-.02a.51.51 0 0 0-.2-.04l-.03-.01c-.03-.04-.07-.04-.1-.01h-.03c-.05 0-.1 0-.14.03a.48.48 0 0 1-.3.04l-.01-.02c-.02-.16.3-.12.16-.44l-.06-.16a.13.13 0 0 1 .02-.1l.01-.01h.03l.05.05a.03.03 0 0 0 .04.01.15.15 0 0 0 .07-.08c0-.02.01-.02.02 0 .02.05.01.1.02.15a.4.4 0 0 0 .06.18.1.1 0 0 0 .05.03.1.1 0 0 0 .05.01.3.3 0 0 1 .2.03h.03c.1 0 .2.03.3.08Z" fill="#AC6737"/><defs><linearGradient id="apdpfle2m" x1="3.35" y1="3.12" x2="21.9" y2="24.43" gradientUnits="userSpaceOnUse"><stop stop-color="#1A1E21"/><stop offset="1" stop-color="#06060A"/></linearGradient></defs></svg>