<!-- by TradingView --><svg width="18" height="18" viewBox="0 0 18 18" xmlns="http://www.w3.org/2000/svg"><path fill="#0E326E" d="M0 0h18v18H0z"/><path d="M9.9 4.25c-3.42 0-4.3 3.6-4.35 5.48C5.43 10.84 6.4 14 8.67 14c2.9 0 4.33-3.68 4.33-5.48 0-3.43-2.07-4.27-3.1-4.27Z" fill="url(#ag1kek3ks)"/><path d="M9.46 4c-3.5 0-4.4 3.6-4.45 5.48-.12 1.11.88 4.27 3.2 4.27 2.96 0 4.42-3.68 4.42-5.48C12.63 4.84 10.52 4 9.46 4Z" fill="url(#bg1kek3ks)"/><path opacity=".5" d="M7.14 6.58a4.7 4.7 0 0 0-.9 1.94l-.98-.2a5.7 5.7 0 0 1 1.1-2.37 3.77 3.77 0 0 1 3-1.48c.7 0 1.26.19 1.72.52.45.33.76.77.96 1.23.41.92.47 1.98.4 2.69l-1-.1c.06-.6 0-1.47-.3-2.18a2.04 2.04 0 0 0-.65-.83c-.27-.2-.63-.33-1.12-.33-1 0-1.71.47-2.23 1.1Z" fill="#6D6D70"/><defs><linearGradient id="ag1kek3ks" x1="11.62" y1="4.15" x2="8.55" y2="13.77" gradientUnits="userSpaceOnUse"><stop stop-color="#1B1C21"/><stop offset=".45" stop-color="#88888A"/><stop offset="1" stop-color="#131217"/></linearGradient><linearGradient id="bg1kek3ks" x1="5.57" y1="7.67" x2="12.17" y2="8.75" gradientUnits="userSpaceOnUse"><stop stop-color="#A9A8AD"/><stop offset=".44" stop-color="#FBFBFB"/><stop offset=".76" stop-color="#A7A7A9"/><stop offset="1" stop-color="#959595"/></linearGradient></defs></svg>