<!-- by TradingView --><svg width="18" height="18" viewBox="0 0 18 18" xmlns="http://www.w3.org/2000/svg"><path fill="url(#ankag0bl0)" d="M0 0h18v18H0z"/><path d="M10.67 5.22 9 4 7.33 5.22v3.66l.9.7.45-.4L8 8.63V5.47l1-.73 1 .73v3.17l-3.33 2.6V8.18l-.31.25A1 1 0 0 0 6 9.2v3.34l4.67-3.65V5.22Zm.97 3.2a1 1 0 0 1 .36.77v3.33l-2.63-2.01.46-.4 1.5 1.15v-3.1l.31.26ZM9 10.78l-.33.26v2.7L9 14l.33-.26v-2.7L9 10.78Zm-1.67 1.33.67-.5v1.73l-.53-.4a.31.31 0 0 1-.14-.25v-.58Zm3.34-.02-.67-.54v1.83l.54-.41a.32.32 0 0 0 .13-.25v-.63Z" fill="url(#bnkag0bl0)"/><defs><linearGradient id="ankag0bl0" x1="3.35" y1="3.12" x2="21.9" y2="24.43" gradientUnits="userSpaceOnUse"><stop stop-color="#1A1E21"/><stop offset="1" stop-color="#06060A"/></linearGradient><linearGradient id="bnkag0bl0" x1="8.36" y1="4" x2="8.4" y2="13.84" gradientUnits="userSpaceOnUse"><stop stop-color="#6167FB"/><stop offset=".54" stop-color="#26BAF8"/><stop offset=".8" stop-color="#46F7B0"/></linearGradient></defs></svg>