<!-- by TradingView --><svg xmlns="http://www.w3.org/2000/svg" width="18" height="18"><path fill="url(#axj5yv4bq)" d="M0 0h18v18H0z"/><path fill-rule="evenodd" d="M5.3 6c-.33.12-.47.54-.56.79l-.02.07h-.45c-.12.22-.48.56-.71.78l-.12.11c-.16.15-.35.57-.43.76 0 .68-.02 2.07 0 2.15 0 .09.22.26.32.34a5.53 5.53 0 00-.08-.34c-.02-.07-.04-2.01.08-2.32.09-.25.73-.82 1.04-1.07h.19c-.09.6-.27 1.82-.26 1.86 0 .04.22.34.32.5-.23.52-.29 1.23-.29 1.52.23.6 1.18 1.15 1.63 1.35.09-.02.23-.09.07-.15a5.05 5.05 0 01-1.41-1.2c-.04-.2.1-1.03.2-1.3l.6.46-.5-.6v-.18c.14-.62.72-1.27.98-1.51.25-.04.77-.12.94-.12.2.01.57.44.57.48 0 .03-.17.19-.25.27.23-.11.74-.26.96-.31l-.1-.16a4.7 4.7 0 00-.22-1.22c.28.18.4.42.42.52v.86h.5a2.18 2.18 0 00-.42-1.38c.02-.08.06-.27.1-.37.03-.13-.15-.31-.18-.28l-.28.28A34.31 34.31 0 006.7 5.52c-.07-.04-.28-.02-.38 0-.15.1-.67.33-1.03.47zm.08.32c-.11.04-.35.39-.46.56h.3c.2-.2.6-.6.7-.62.07-.03.3.07.49.16l.2.08c.13.04.49.02.65 0-.24-.22-.74-.66-.79-.67-.04-.01-.36.14-.64.28-.2.1-.39.2-.45.21zm.47.3c-.02.03-.23.19-.33.26.13.07.72.17 1.1.15.3-.01.29-.1.25-.15l-.68-.07c-.05 0-.13-.06-.2-.12-.06-.05-.12-.1-.14-.07zm1.25.35c.18.06.55.35.6.98-.17-.2-.53-.6-.6-.64-.06-.04-.02-.24 0-.34zm-1.58.5c-.32-.46-.65-.09-.77.15-.06.42-.2 1.26-.2 1.33-.02.07.13.23.2.31 0-.1.18-.4.27-.55v-.43c.34-.2 1.06-.62 1.25-.66.19-.04.45.05.56.1a3.56 3.56 0 00-.12-.25c-.06-.1-.82-.05-1.2 0zm7.19-1.48c.32.13.46.55.55.8l.02.07h.45c.12.22.48.56.71.78l.12.11c.16.15.35.57.43.76 0 .68.02 2.07 0 2.15 0 .09-.22.26-.32.34l.08-.34c.02-.07.04-2.01-.08-2.32-.09-.25-.73-.82-1.04-1.07h-.19c.09.6.27 1.82.26 1.86 0 .04-.22.34-.32.5.23.52.29 1.23.29 1.52-.23.6-1.18 1.15-1.63 1.35-.09-.02-.23-.09-.07-.15.2-.07 1.41-1 1.47-1.25.04-.2-.15-.98-.26-1.25l-.6.46.5-.6v-.18a3.68 3.68 0 00-.98-1.51 7.89 7.89 0 00-.94-.12c-.2.01-.57.44-.57.48 0 .03.17.19.25.27a6.78 6.78 0 00-.96-.31l.1-.16c.02-.54.15-1.04.22-1.22-.28.18-.4.42-.42.52v.86h-.5c-.07-.56.25-1.16.42-1.38a7.83 7.83 0 00-.1-.37c-.03-.13.15-.31.18-.28l.28.28c.39-.34 1.17-1.03 1.24-1.07.07-.04.28-.02.38 0 .15.1.67.33 1.03.47zm-.1.33c.12.04.36.39.47.56h-.3c-.2-.2-.6-.6-.7-.62-.07-.03-.3.07-.49.16l-.2.08c-.13.04-.49.02-.65 0 .24-.22.74-.66.79-.67.04-.01.36.14.64.28m.45.21c-.06-.01-.25-.1-.45-.2l.45.2zm-.47.3c.02.03.23.19.33.26-.13.07-.72.17-1.1.15-.3-.01-.29-.1-.25-.15l.68-.07c.05 0 .13-.06.2-.12.06-.05.12-.1.14-.07zm-1.25.35c-.18.06-.55.35-.6.98.17-.2.53-.6.6-.64.06-.04.02-.24 0-.34zm1.58.5c.32-.46.65-.09.77.15.06.42.2 1.26.2 1.33.02.07-.13.23-.2.31 0-.1-.18-.4-.27-.55v-.43a9.04 9.04 0 00-1.25-.66c-.19-.04-.45.05-.56.1l.12-.25c.06-.1.82-.05 1.2 0z" fill="#fff"/><path fill="#E9E9E9" d="M7 9h4v2H7z"/><defs><linearGradient id="axj5yv4bq" x1="3.35" y1="3.12" x2="21.9" y2="24.43" gradientUnits="userSpaceOnUse"><stop stop-color="#1A1E21"/><stop offset="1" stop-color="#06060A"/></linearGradient></defs></svg>