<!-- by TradingView --><svg width="18" height="18" viewBox="0 0 18 18" xmlns="http://www.w3.org/2000/svg"><path fill="#181B1E" d="M0 0h18v18H0z"/><path d="M6.43 4A2.46 2.46 0 0 0 4 6.5v4.17h1.33V6.24c0-.5.4-.9.89-.9h6.75L12.17 4H6.42Z" fill="#4BA5F2"/><path d="M11.57 14A2.47 2.47 0 0 0 14 11.5V7.33h-1.33v4.43c0 .5-.4.9-.89.9H5L5.81 14h5.76Z" fill="#E7692C"/><path d="M6.49 5.67a.83.83 0 0 0-.82.84v4.16H7V7h7l-.82-1.33h-6.7Z" fill="#EFBC41"/><path d="M11.51 12.33c.46 0 .82-.38.82-.84V7.33H11V11H4l.82 1.33h6.7Z" fill="#EB88EF"/></svg>