<!-- by TradingView --><svg width="18" height="18" viewBox="0 0 18 18" xmlns="http://www.w3.org/2000/svg"><path fill="#F0F3FA" d="M0 0h18v18H0z"/><path d="m6.19 6.05.26.52a8.22 8.22 0 0 1 .63 5.02 5.36 5.36 0 0 1-2.6-2.83A6.37 6.37 0 0 1 4.46 4C6 4.3 7.27 5.32 8 6.77c.8 1.59.88 3.47.24 5.13a5.28 5.28 0 0 1-3.02 3.08 5.75 5.75 0 0 0 2.42-4.13 6.16 6.16 0 0 0-1.46-4.8Z" fill="#ACCE22"/><path d="M8.72 6.26c-.01 0-.02.03-.01.04l.7 1.6c.18.41.49.6.87.77.1.04.22.05.34.05h1.85c.42 0 .74.38.97.75.58.92.29 2.82-1 2.82H9.59c.14-.37.4-.85.69-1.1.17-.16.3-.19.55-.19h1.6v-1h-1.75c-.8 0-1.27 1.06-1.54 1.73l-.43 1.07c-.12.28-.27.55-.44.8-.31.45-.82.6-1.32.53l-.01-.01v-.01a6.38 6.38 0 0 0 .31-9.08C7.23 5 7.24 5 7.26 5h5.26c.25 0 .42.01.52.03 1.3.32 1.27 2.9-.02 3.2-.07.02-.21.03-.4.04H10.9c-.26 0-.53-.26-.67-.46-.19-.26-.34-.45-.46-.75L9.78 7h2.84v-.74h-3.9Z" fill="#00A2EA"/></svg>