<!-- by TradingView --><svg width="18" height="18" xmlns="http://www.w3.org/2000/svg"><path fill="#21A79B" d="M0 0h18v18H0z"/><path d="M4.092 10c.52 2.115 2.086 3.207 2.804 3.46A6.34 6.34 0 015.1 9c0-3.029 2.611-3.824 4.028-3.824 1.479-.075 3.868 1.278 3.771 3.824-.102 2.716-2.139 3.775-3.899 3.775V11h2v-1H9V9h2V8H8v5.996c5.054.144 5.928-3.61 5.978-3.796.04-.148.298-.172.421-.2V8c-.26-.042-.389-.16-.42-.237C12.904 4.617 10.36 4 9.127 4c-3.34 0-4.853 2.734-5.07 4H3.6v2h.492zM3 8.118h.3v1.765H3zM14.7 8.118h.3v1.765h-.3z" fill="#fff"/></svg>