<!-- by TradingView --><svg width="18" height="18" viewBox="0 0 18 18" xmlns="http://www.w3.org/2000/svg"><path fill="#F0F3FA" d="M0 0h18v18H0z"/><circle cx="9" cy="9" r="5" fill="#A6D8D3"/><path d="M11.65 4.78c-.5.21-1 .23-1.52.07a6.45 6.45 0 0 1-1.44-.64.3.3 0 0 0-.16-.06c-.12 0-.15.07-.09.2a.52.52 0 0 1-.22-.26 3.4 3.4 0 0 1 1.18-.07c.83.1 1.58.35 2.25.76Z" fill="#E0F0E5"/><path d="M8.22 4.09c.05.12.12.2.22.26.23.27.24.5.03.7-.18.17-.43.22-.77.16-.42-.1-.77-.27-.86-.7.43-.21.9-.35 1.38-.42Z" fill="#fff"/><path d="M6.84 4.51c.09.43.44.6.86.7a1.3 1.3 0 0 1-.51.16.14.14 0 0 0-.1.05c-.14.17-.28.27-.4.29-.3.05-.58 0-.85-.12-.04-.02-.05-.04-.03-.08.1-.2.14-.34.12-.44l.9-.56Z" fill="#E0F0E5"/><path d="M7.66 6.61c.8.5 1.62.49 2.46-.04a.38.38 0 0 0 .19-.13c.3-.1.63-.17.96-.17.2 0 .36.04.5.14.1.09.22.16.34.23.15.08.28.27.4.57l.06.26.09.47c-.03.17-.01.28.05.32-.04.03-.05.07-.05.1l.12 1.42.02.6.04.45.46.71c-.02.02-.03.03 0 .03-.07 0-.1-.03-.12-.05l-.3-.47a.66.66 0 0 1-.12-.38 125.6 125.6 0 0 1-.2-2.59 2.66 2.66 0 0 0-.15-.96 1.47 1.47 0 0 0-1.64-.72 1 1 0 0 0-.31.12c-.21.13-.49.3-.74.4a2.44 2.44 0 0 1-2.2-.3c-.4-.24-.8-.31-1.2-.23-.7.15-1.1.6-1.16 1.35-.09 1.13-.16 2.08-.2 2.88 0 .27-.13.52-.36.74-.02-.06-.03-.08-.05-.06.18-.2.28-.34.3-.44.04-.17.06-.52.08-1.06l.13-1.72.13-.92c0-.04-.01-.07-.06-.07-.05 0-.1.02-.15.06-.02.03-.06.03-.09.01a.23.23 0 0 1-.09-.09c.13.02.26.02.4 0 .03 0 .06-.03.08-.05.43-.63 1.03-.85 1.8-.67.13.03.32.11.58.26ZM13.1 6.25a.5.5 0 0 1 .2.21c-.2-.08-.5-.07-.91.03a.56.56 0 0 1-.51-.11l.36.05c.11.01.23 0 .35-.04l.5-.14Z"/><path d="M9.23 6.34c-.01 0-.02 0-.03.02v.04c.02.02.04.04.06.04v.1a.15.15 0 0 0-.03.04c-.02.03 0 .05.04.05.02 0 .03-.01.05-.03.05-.02.08-.02.1 0a.84.84 0 0 1 .35-.02c.03 0 .07 0 .1-.02.1-.04.19-.03.25.01-.83.53-1.65.54-2.46.04l.02-.05a.4.4 0 0 1 .2.04.1.1 0 0 0 .1-.01c.03-.02.06-.02.1 0l.04.03.05-.02.15-.15c.03-.03.06-.03.1 0 .05.08.12.08.21 0 .03-.02.07-.03.11-.01l.12.04h.1l.2-.13.07-.01Z" fill="#9DE14E"/><path d="m13.29 11.57-.66.86-.64-.57c-.12-.1-.14-.09-.06.05l.41.81a4.81 4.81 0 0 1-2.77 1.25 4.92 4.92 0 0 1-4.17-1.5c.16-.18.3-.35.4-.52.09-.15.05-.19-.1-.1-.18.1-.33.25-.46.46l-.65-.95c.24-.22.36-.47.37-.74.04-.8.11-1.75.2-2.88.07-.75.45-1.2 1.16-1.35.4-.08.8 0 1.2.23l.28.17c.63.3 1.27.35 1.92.12.25-.08.53-.26.74-.39a1 1 0 0 1 .3-.12c.71-.14 1.26.1 1.65.72.07.12.13.44.16.96.04.66.1 1.52.19 2.6 0 .14.02.26.11.37.1.12.2.28.31.47.01.02.05.04.11.05Z" fill="#3C9649"/><path d="m9.16 6.35-.2.12a.11.11 0 0 1-.1.01l-.12-.04c-.04-.02-.08-.01-.1.01-.1.08-.17.08-.23 0-.03-.03-.06-.03-.09 0l-.15.15a.06.06 0 0 1-.05.02l-.04-.02c-.04-.03-.07-.03-.1-.01a.1.1 0 0 1-.1 0 .4.4 0 0 0-.2-.03c.05-.09.11-.11.17-.06a.27.27 0 0 0 .4-.06c.03-.05.1-.05.2 0a.1.1 0 0 0 .11 0c.1-.05.19-.05.27-.02.04.02.07.02.1 0a.55.55 0 0 1 .23-.07ZM9.23 6.34a.1.1 0 0 1 .03.1.08.08 0 0 1-.06-.04v-.04l.03-.02Z"/><path d="M11.88 6.38c.15.12.32.15.5.1.41-.1.71-.1.92-.02l.28.58c-.32-.02-.68.04-1.07.17-.12-.3-.25-.5-.4-.57a1.64 1.64 0 0 1-.33-.23c.04 0 .07-.02.1-.03Z" fill="#9DE14E"/><path d="M10.3 6.44a.38.38 0 0 1-.18.13c-.07-.04-.15-.05-.25 0a.18.18 0 0 1-.1 0 .84.84 0 0 0-.35.02c.1-.1.2-.14.31-.1h.1l.48-.05Z" fill="#3C9649"/><path d="M13.58 7.04c.06.1.09.17.1.21-.16.01-.27.07-.34.17a.22.22 0 0 0 .17.34l.33.02c.04.09.05.18.04.28-.2-.06-.29-.04-.28.05-.08.06-.14.04-.2-.06a.66.66 0 0 0-.4.12l-.1-.01c-.07-.1-.12-.06-.14.08l-.05.02c-.06-.04-.08-.15-.05-.32.1.02.2.01.34-.04s.2-.15.2-.28c-.02-.12-.09-.2-.22-.21a.61.61 0 0 0-.4.06l-.07-.26c.4-.13.75-.19 1.07-.17Z" fill="#41C270"/><path d="M4.47 7.02c.03.08.14.1.31.04-.07.04-.14.08-.21.1-.09.05-.14.03-.17-.05 0-.05.03-.08.07-.1Z" fill="#3C9649"/><path d="M4.8 7.07c.03.05.06.08.09.1.03.01.07 0 .1-.02.04-.04.09-.06.14-.06.05 0 .06.03.06.07l-.13.92a1.56 1.56 0 0 0-.91-.26l.2-.67c0-.01 0-.02.02-.03h.03c.03.07.08.09.17.05l.21-.11.02.01ZM13.67 7.25l.17.53-.33-.02a.22.22 0 0 1-.17-.34c.07-.1.18-.16.33-.17ZM12.65 7.94l-.08-.47a.61.61 0 0 1 .4-.06c.14.01.21.09.22.21.02.13-.05.23-.2.28a.58.58 0 0 1-.34.04Z" fill="#9DE14E"/><path d="M5.06 8.08 4.93 9.8h-.05c-.02-.02-.04-.03-.06-.02a49.83 49.83 0 0 1-.67.3l-.01-.05a4.65 4.65 0 0 1 .01-2.22c.4.02.7.1.91.27Z" fill="#41C270"/><path d="m13.88 8.06-.02.04h-.26c0-.08.08-.1.28-.04ZM13.4 8.05a.61.61 0 0 1-.4.12.66.66 0 0 1 .4-.12Z" fill="#3C9649"/><path d="M13.4 8.05c.05.1.12.12.2.06h.26c.02 0 .04.01.05.03a5 5 0 0 1-.41 3.04c-.11-.04-.18-.1-.22-.2a.15.15 0 0 1 0-.1c.07-.18.17-.33.3-.46.03-.03.03-.06 0-.08-.23-.24-.29-.5-.17-.77.03-.1 0-.12-.08-.07l-.55.28-.12-1.42c0-.03.01-.07.05-.1l.05-.02.14-.08.1.01c.14.01.27-.03.4-.12Z" fill="#9DE14E"/><path d="m13.5 11.18-.2.36-.46-.7c.25-.04.37-.13.35-.29-.03-.2-.22-.24-.39-.18l-.02-.59.55-.28c.09-.05.11-.02.08.07-.12.27-.06.53.18.77.02.02.02.05 0 .08-.14.13-.24.28-.3.45a.15.15 0 0 0 0 .11c.03.1.1.16.2.2Z" fill="#41C270"/><path d="M4.88 9.8c-.22.15-.46.24-.72.28l.66-.3c.02-.01.04 0 .06.02Z"/><path d="M4.88 9.8h.05c-.02.54-.05.9-.08 1.06-.02.1-.12.25-.3.44a5.53 5.53 0 0 1-.43-1.2l.03-.03v.01c.27-.04.5-.13.73-.28ZM12.84 10.83l-.04-.46c.17-.06.36-.03.39.18.02.16-.1.25-.35.28Z" fill="#9DE14E"/><path d="m5.4 12.48-.16-.17c.13-.21.28-.37.46-.46.15-.09.19-.05.1.1-.1.17-.24.34-.4.53ZM12.63 12.43l-.29.3-.41-.82c-.08-.14-.05-.16.06-.05l.64.57ZM7.22 6.98a.9.9 0 0 1 .31.64.97.97 0 0 1-.23.7c-.17.19-.4.3-.65.33a.91.91 0 0 1-.9-.49.92.92 0 0 1-.05-.72 1 1 0 0 1 .84-.67c.25-.03.5.05.68.2ZM11.86 8.33a.9.9 0 0 1-.63.32 1 1 0 0 1-1.04-1.23.87.87 0 0 1 .8-.64A1 1 0 0 1 12.03 8a.87.87 0 0 1-.17.32ZM8.85 8.83c.32 0 .77.03 1.37.1.1.02.2.05.26.09a.24.24 0 0 1 .08.32.24.24 0 0 1-.08.09c-.2.12-.4.19-.63.21-.45.05-.78.07-1 .07a11 11 0 0 1-1-.07c-.23-.02-.44-.1-.63-.21a.24.24 0 0 1 0-.41.65.65 0 0 1 .26-.08c.6-.07 1.05-.11 1.37-.11Z"/><path d="M6.07 7.74a.01.01 0 0 1-.02 0 .12.12 0 0 1-.04-.07v-.1a.4.4 0 0 1 .03-.1.53.53 0 0 1 .07-.1l.07-.09a.47.47 0 0 1 .19-.14c.06-.02.12-.02.16.01a.01.01 0 0 1 0 .02l-.46.57Z" fill="#fff"/><path d="M6.98 8.07c-.06.07-.1.14-.07.16.02.01.08-.04.14-.11.05-.07.08-.15.06-.16-.02-.02-.08.03-.13.1Z" fill="#A6D8D3"/><path d="M11.17 7.17a.01.01 0 0 1 0-.01c.04-.04.1-.04.17-.02.07.03.14.09.2.16l.04.05a.6.6 0 0 1 .08.12c.02.04.03.07.03.11v.1c0 .02-.02.05-.04.06a.01.01 0 0 1-.02 0l-.46-.57Z" fill="#fff"/><path d="M10.62 8.1c-.09-.13-.07-.16.06-.08.02.01.04.06.08.15.02.04 0 .05-.03.03a.3.3 0 0 1-.11-.1Z" fill="#E0F0E5"/><path d="M10.52 9.23c0 .07-.18.15-.49.2a7.15 7.15 0 0 1-2.36 0c-.31-.05-.49-.13-.49-.2 0-.08.18-.16.5-.21a7.15 7.15 0 0 1 2.35 0c.31.05.5.13.5.2Z" fill="#C84E6E"/><path d="M10.15 9.14H7.54a.04.04 0 0 0-.04.04v.01c0 .02.02.04.04.04h2.6c.03 0 .04-.02.04-.04v-.01a.04.04 0 0 0-.03-.04Z"/></svg>