<!-- by TradingView --><svg width="18" height="18" viewBox="0 0 18 18" xmlns="http://www.w3.org/2000/svg"><path fill="#F0F3FA" d="M0 0h18v18H0z"/><circle cx="9" cy="9" r="6" fill="url(#asabmfnw3)"/><circle cx="9" cy="9" r="5.65" fill="url(#bsabmfnw3)"/><path fill-rule="evenodd" d="M9 14.65a5.65 5.65 0 1 0 0-11.3 5.65 5.65 0 0 0 0 11.3Zm0-.1A5.51 5.51 0 0 0 9 3.5a5.51 5.51 0 0 0-5.5 5.53A5.51 5.51 0 0 0 9 14.55Z" fill="url(#csabmfnw3)"/><circle cx="9" cy="9" r="4.63" fill="url(#dsabmfnw3)"/><path d="M11.01 9.23v2.19c-.2.22-.46.38-.8.5-.32.12-.68.17-1.08.17a2.43 2.43 0 0 1-2.45-1.94h-.3V9.8h.26V9.6h-.25v-.38h.3c.07-.44.29-.83.62-1.17.2-.18.4-.33.62-.43-.05-.1-.1-.2-.13-.32l-.04-.18v-.14c0-.05 0-.09.02-.13 0-.02.02-.05.05-.06.02-.01.05 0 .06.01l.12.12c.02 0 .04.02.05.03.03.02.07.02.08 0l.01-.05v-.13l.01-.18a1.9 1.9 0 0 1 .27-.84c.06-.08.13-.21.23-.28a1 1 0 0 1 .38-.2c.01 0 .04 0 .05.02l.01.03-.02.1c-.02.04-.02.1-.03.13l-.01.15v.12c0 .08.01.18.05.26.01.06.05.11.07.16.04.04.07.03.12.06.03.03.08.04.13.03.05 0 .1.02.13 0a.25.25 0 0 0 .11-.11l.04-.05.01-.02c.01-.02.06-.02.08 0 0 .03.03.07.05.1.03.07.07.15.08.24l.02.1v.09c0 .1-.02.2-.05.29 0 0-.02.02 0 .05 0 .03.04.03.1.02l.02-.01a.38.38 0 0 0 .08-.06l.03-.02.02.03v.27l-.12.27c.37.12.67.33.93.62l-.73.71c-.3-.32-.68-.55-1.15-.55-.4 0-.73.14-1 .4-.15.15-.25.37-.3.54h.38v.37h-.46v.22h.46v.34h-.4c.06.2.17.4.32.56.27.26.62.38 1.05.38.4 0 .7-.07.9-.22v-.69h-.9v-.96h1.9Z" fill="url(#esabmfnw3)"/><path d="M9.13 12.18c-.73 0-1.34-.24-1.82-.7a2.55 2.55 0 0 1-.68-1.3h-.3V9.7h.26v-.1h-.25v-.5h.3c.09-.44.31-.8.64-1.14.17-.18.36-.33.57-.44a1.54 1.54 0 0 1-.14-.63c0-.05 0-.08.02-.13 0-.05.03-.1.08-.1.05-.02.1 0 .14.03l.15.15v-.33c.01-.17.04-.33.09-.47.04-.13.1-.27.17-.4.08-.1.15-.2.25-.27.1-.08.4-.3.52-.18.02.03.03.07.02.1a.83.83 0 0 0-.05.32v.11c0 .09.01.17.04.25.03.12.12.26.26.26a.2.2 0 0 0 .11-.04c.07-.04.11-.11.17-.17.03-.04.12-.04.15.01l.05.1c.06.12.1.24.1.38.02.13 0 .26-.05.38v.02h.02c.05-.01.1-.07.15-.07.05 0 .08.04.08.08 0 .17-.04.32-.1.49.35.12.68.36.93.65l-.8.78-.05-.03a1.45 1.45 0 0 0-1.1-.53c-.4 0-.7.13-.96.4-.11.1-.2.29-.26.43h.36v.49h-.47v.1h.46v.47H7.8c.07.15.17.33.3.45.24.25.6.38 1 .38.38 0 .67-.07.84-.2v-.62H9V9.13h2.06v2.35c-.22.22-.5.4-.82.5a3.2 3.2 0 0 1-1.11.2Zm-2.68-2.12h.28v.04c.08.46.3.95.66 1.29a2.4 2.4 0 0 0 1.74.67c.38 0 .75-.06 1.07-.17.31-.1.56-.26.75-.48V9.24H9.11v.84h.95v.79l-.02.01c-.2.16-.51.24-.93.24-.45 0-.8-.14-1.08-.41a1.29 1.29 0 0 1-.34-.58l-.03-.07h.43v-.24h-.46l-.02-.05V9.5h.47v-.27h-.4l.02-.08c.06-.17.18-.4.31-.54.28-.28.63-.42 1.04-.42.46 0 .85.2 1.16.51l.65-.62A2.23 2.23 0 0 0 10 7.5l-.06-.02.02-.05c.07-.13.1-.28.1-.43-.05.03-.1.07-.17.04-.07-.04-.09-.1-.06-.16a.78.78 0 0 0 .04-.36c0-.12-.04-.21-.1-.32l-.03-.07c0 .03-.1.11-.12.13a.32.32 0 0 1-.2.1c-.3 0-.43-.37-.43-.62 0-.13 0-.26.04-.39v-.07s-.25.11-.35.2a1 1 0 0 0-.22.24c-.07.11-.12.23-.16.37a1.5 1.5 0 0 0-.09.44v.3c0 .1-.05.14-.1.13-.1 0-.2-.18-.27-.17-.03 0-.03.1-.03.11 0 .11.02.2.04.32.04.1.08.23.13.3l.03.06-.06.02a2.2 2.2 0 0 0-1.21 1.58l-.01.04h-.28v.28h.25l-.01.06v.18l.01.07h-.25v.25Z" fill="url(#fsabmfnw3)"/><defs><linearGradient id="asabmfnw3" x1="5.27" y1="4.28" x2="12.78" y2="13.52" gradientUnits="userSpaceOnUse"><stop stop-color="#622162"/><stop offset=".16" stop-color="#D3CED5"/><stop offset=".3" stop-color="#C65374"/><stop offset=".45" stop-color="#631D63"/><stop offset=".6" stop-color="#9E368B"/><stop offset=".75" stop-color="#C05277"/><stop offset=".91" stop-color="#90357B"/><stop offset="1" stop-color="#5F1B5E"/></linearGradient><linearGradient id="bsabmfnw3" x1="5.84" y1="5.14" x2="12.16" y2="13.03" gradientUnits="userSpaceOnUse"><stop stop-color="#5F1E60"/><stop offset=".25" stop-color="#C45273"/><stop offset=".43" stop-color="#641F65"/><stop offset=".68" stop-color="#BE4F7A"/><stop offset=".79" stop-color="#9C3E71"/><stop offset="1" stop-color="#5F1E60"/></linearGradient><linearGradient id="csabmfnw3" x1="6.83" y1="3.86" x2="11.62" y2="13.79" gradientUnits="userSpaceOnUse"><stop stop-color="#F4F6E9"/><stop offset=".18" stop-color="#CC9E05"/><stop offset=".46" stop-color="#E8B615"/><stop offset="1" stop-color="#DDB146"/></linearGradient><linearGradient id="dsabmfnw3" x1="6.22" y1="5.23" x2="11.88" y2="12.76" gradientUnits="userSpaceOnUse"><stop stop-color="#C65A74"/><stop offset=".71" stop-color="#642164"/><stop offset="1" stop-color="#6D2765"/></linearGradient><linearGradient id="esabmfnw3" x1="6.39" y1="8.63" x2="11.01" y2="8.63" gradientUnits="userSpaceOnUse"><stop stop-color="#C99004"/><stop offset="1" stop-color="#F5CE11"/></linearGradient><linearGradient id="fsabmfnw3" x1="10.62" y1="11.74" x2="6.98" y2="6.53" gradientUnits="userSpaceOnUse"><stop stop-color="#F5CD16"/><stop offset=".03" stop-color="#E9BC10"/><stop offset=".14" stop-color="#D39C05"/><stop offset=".19" stop-color="#D09804"/><stop offset=".22" stop-color="#DAAE39"/><stop offset=".3" stop-color="#F2E3BC"/><stop offset=".34" stop-color="#fff"/><stop offset=".35" stop-color="#FDF6D5"/><stop offset=".39" stop-color="#F8E176"/><stop offset=".41" stop-color="#F6D952"/><stop offset=".44" stop-color="#F5D336"/><stop offset=".46" stop-color="#F4CE22"/><stop offset=".48" stop-color="#F3CC16"/><stop offset=".55" stop-color="#EFC611"/><stop offset=".61" stop-color="#E5B70C"/><stop offset=".68" stop-color="#D19904"/><stop offset=".73" stop-color="#D6A007"/><stop offset=".8" stop-color="#E5B30F"/><stop offset=".87" stop-color="#FACD1B"/><stop offset="1" stop-color="#D09A0F"/></linearGradient></defs></svg>