<!-- by TradingView --><svg width="18" height="18" viewBox="0 0 18 18" xmlns="http://www.w3.org/2000/svg"><path fill="#F0F3FA" d="M0 0h18v18H0z"/><path d="M8.95 14C7.98 14 4 9.09 4 8.37c0-.71.8-2.51 1.57-3 .76-.5 5.7-.5 6.88 0 1.19.49 1.57 2.29 1.55 3C13.97 9.1 9.9 14 8.95 14Z" fill="url(#ablrucrok)"/><path d="M7.33 9.22 9 6.12l1.67 3.1c-.84.28-2.64.28-3.34 0Z" fill="url(#bblrucrok)"/><path d="M7.06 9.36A8.94 8.94 0 0 1 4 8.38c.28 1.4 3.91 5.07 4.3 5.34.42.28.56.28.7.28L7.06 9.36Z" fill="url(#cblrucrok)"/><path d="M5.4 5.5c.06-.06.12-.1.17-.13.76-.5 5.7-.5 6.88 0l.16.07c-.06.38-1.65.68-3.61.68-1.87 0-3.41-.27-3.6-.63Z" fill="url(#dblrucrok)"/><path fill-rule="evenodd" d="M8.84 13.98a.4.4 0 0 0 .1.02c.07 0 .15-.02.24-.06l1.9-4.5c1.1-.22 2.23-.64 2.88-.92.03-.06.04-.11.04-.15V8.2c-.57.25-1.7.7-2.8.92l1.52-3.6a1.67 1.67 0 0 0-.3-.16c-.54.23-1.8.62-3.42.62a9.09 9.09 0 0 1-3.43-.61c-.09.05-.18.13-.26.22l1.48 3.53a14.5 14.5 0 0 1-2.78-.92L4 8.37l.03.14c.65.28 1.78.7 2.9.92l1.91 4.55Zm.16-.34L7.25 9.5a10.85 10.85 0 0 0 3.5 0L9 13.64Zm0-4.28c.64 0 1.28-.07 1.88-.18l1.47-3.49c-.65.25-1.86.58-3.35.58s-2.7-.33-3.35-.58l1.47 3.5c.6.1 1.24.17 1.88.17Z" fill="url(#eblrucrok)"/><defs><linearGradient id="ablrucrok" x1="5.25" y1="5.98" x2="11.85" y2="11.53" gradientUnits="userSpaceOnUse"><stop stop-color="#5DBCFB"/><stop offset="1" stop-color="#0230AB"/></linearGradient><linearGradient id="bblrucrok" x1="9.14" y1="6.13" x2="9.14" y2="9.62" gradientUnits="userSpaceOnUse"><stop stop-color="#59A1F8"/><stop offset="1" stop-color="#7EB2F9"/></linearGradient><linearGradient id="cblrucrok" x1="5.39" y1="8.94" x2="8.5" y2="13.26" gradientUnits="userSpaceOnUse"><stop stop-color="#AAD4FB"/><stop offset="1" stop-color="#3373F5"/></linearGradient><linearGradient id="dblrucrok" x1="5.39" y1="5.28" x2="12.61" y2="5.28" gradientUnits="userSpaceOnUse"><stop stop-color="#72BFF9"/><stop offset="1" stop-color="#5A9FF7"/></linearGradient><linearGradient id="eblrucrok" x1="9" y1="5.05" x2="9" y2="14.28" gradientUnits="userSpaceOnUse"><stop stop-color="#92C8F9"/><stop offset="1" stop-color="#4E88F5"/></linearGradient></defs></svg>