<!-- by TradingView --><svg width="18" height="18" fill="none" xmlns="http://www.w3.org/2000/svg"><path fill="url(#paint0_linear_1530)" d="M0 0h18v18H0z"/><path fill-rule="evenodd" clip-rule="evenodd" d="M7.989 3.537a.472.472 0 01.406-.532.476.476 0 01.54.4l.077.543h.11c.97 0 1.876.265 2.649.726.423.253.505.809.246 1.229l-.057.094-.005-.004-.69 1.108.002.001-.185.296a.573.573 0 00-.045.05c-.236.289-.483.239-.625.148a1.928 1.928 0 00-1.29-.49c-1.06 0-1.92.848-1.92 1.894 0 1.046.86 1.895 1.92 1.895.86 0 1.587-.557 1.832-1.325a.578.578 0 00.037-.054c.183-.3.417-.303.571-.242l.093.049.014.01V9.33l.286.15 1.294.674c.433.226.65.738.422 1.17a5.108 5.108 0 01-2.002 2.06l.084.59a.473.473 0 01-.405.534.475.475 0 01-.54-.4l-.045-.32a5.156 5.156 0 01-1.09.236l.091.402a.472.472 0 01-.362.563.476.476 0 01-.57-.357l-.134-.596C6.068 13.823 4 11.65 4 9c0-1.748.9-3.288 2.267-4.196a.47.47 0 01-.01-.035l-.152-.677a.472.472 0 01.363-.562.476.476 0 01.569.356l.102.454c.295-.122.604-.218.924-.285l-.074-.518zm3.181 1.889l-.653 1.087a2.899 2.899 0 00-1.395-.355C7.53 6.158 6.24 7.43 6.24 9s1.29 2.842 2.881 2.842c1.06 0 1.985-.564 2.486-1.405l1.115.622a4.17 4.17 0 01-3.601 2.046C6.824 13.105 4.96 11.267 4.96 9c0-2.267 1.864-4.105 4.162-4.105.745 0 1.444.193 2.048.53z" fill="#E83C41"/><defs><linearGradient id="paint0_linear_1530" x1="3.349" y1="3.122" x2="21.904" y2="24.434" gradientUnits="userSpaceOnUse"><stop stop-color="#1A1E21"/><stop offset="1" stop-color="#06060A"/></linearGradient></defs></svg>