<!-- by TradingView --><svg width="18" height="18" viewBox="0 0 18 18" xmlns="http://www.w3.org/2000/svg"><path fill="url(#a)" d="M0 0h18v18H0z"/><path d="m6.47 3.5.15.08.28.18c.22.17.41.36.58.57l.3.3h.03l.8-.12a7.04 7.04 0 0 1 1.62.1 3.59 3.59 0 0 1 .89.3.05.05 0 0 0 .04-.02v-.02c.14-.5.35-.95.64-1.37a.77.77 0 0 1 .2-.2.5.5 0 0 1 .4-.07c.21.06.38.19.52.36.28.38.48.81.58 1.3.03.13.06.38.1.74l-.08.7c-.05.23-.14.43-.26.59-.05.03-.07.09-.04.15.14.35.23.7.33 1.07l.12.4c.07.26.18.5.32.74a.3.3 0 0 1 0 .17.17.17 0 0 1-.13.06h-.02v.02c-.02.2-.05.4-.1.6-.05.26-.15.48-.28.66-.1.14-.2.28-.32.41-.33.42-.64.6-1.23 1-.11.09-.29.17-.52.26l-.48.15-.47.1v.01a.01.01 0 0 0 0 .01 4.08 4.08 0 0 1 .36 1.5v.42c0 .13-.03.34-.18.35a7.29 7.29 0 0 1-2.52-1.02 5.9 5.9 0 0 1-1.37-1.11c-.04-.07-.05-.13-.02-.17a1 1 0 0 0 .08-.14c.02-.06.04-.11.07-.15A.56.56 0 0 1 7 12.3v-.02c-.2-.1-.35-.19-.52-.25-.3-.12-.56-.2-.8-.4a.42.42 0 0 1-.12-.13.14.14 0 0 0-.07-.06 1.84 1.84 0 0 1-.9-.7.6.6 0 0 1-.13-.42v-.04a2.9 2.9 0 0 1-.38-.82A1.86 1.86 0 0 1 4 8.97c0-.2 0-.37.02-.5l.13-.68.13-.36a3.87 3.87 0 0 1 .5-.94 8.77 8.77 0 0 1-.12-2.83c.03-.16.07-.32.14-.47A.29.29 0 0 1 5.06 3a3.83 3.83 0 0 1 1.42.5Z" fill="#040201"/><path d="M7.4 4.74a2.45 2.45 0 0 0-.27-.28c-.24-.19-.5-.37-.82-.55A.76.76 0 0 0 6 3.8a5.62 5.62 0 0 0-.7-.57c0-.02 0-.03.02-.02a5.08 5.08 0 0 1 1.79 1l.22.25c.06.07.13.14.21.2v.03a.45.45 0 0 1-.15.05Z" fill="#FCDDB3"/><path d="M5.46 3.55c-.02.02-.06.02-.11-.01a1.36 1.36 0 0 0-.38-.05l-.03.01-.01.02c-.04.1-.07.12-.1.06l.12-.35.01-.01h.02a.03.03 0 0 1 .02 0l.46.33ZM12.63 3.55h-.05v.04c.04.02.07.04.08.08-.03-.02-.06-.03-.09-.02-.01 0-.02.01-.01.03l.02.1-.01.02-.25-.06-.1-.31a.03.03 0 0 1 .01-.03l.01-.01h.02c.13.02.26.07.37.16Z" fill="#E7A896"/><path d="M5.35 3.54 5 3.52l-.04.01a.07.07 0 0 0-.03.05c-.02.1 0 .16.04.32l.03.2c.08.56.2 1.12.36 1.68l-.44.53a.01.01 0 0 1-.02 0 10.1 10.1 0 0 1-.2-.99 4.17 4.17 0 0 1 0-.8c.01-.24.06-.55.13-.94.03.06.06.03.1-.06l.01-.02h.03c.13-.01.26 0 .38.04Z" fill="#BF9784"/><path d="M5.35 3.54c.05.03.1.03.11.01l.27.24a8.99 8.99 0 0 1 1.03 1.14l-.57.24c-.24.1-.52.3-.83.61a12.59 12.59 0 0 1-.4-1.88c-.03-.16-.05-.21-.03-.32 0-.02.01-.04.03-.05A.07.07 0 0 1 5 3.52l.35.02Z" fill="#A16852"/><path d="M12.1 3.55a8.72 8.72 0 0 1 .25 2.07 4.9 4.9 0 0 0-1.06-.65v-.02c.18-.52.59-1.37.82-1.4Z" fill="#DBB16C"/><path d="M13.37 5.3c.02.19.02.44 0 .76a1.5 1.5 0 0 1-.24.74.02.02 0 0 1-.02 0v-.01a3.4 3.4 0 0 0-.55-.94.12.12 0 0 1-.03-.07 10.9 10.9 0 0 0-.22-2.03l.28-.23c.42.23.71 1.1.78 1.78Z" fill="#A16852"/><path d="m7.4 4.74-.43.12a.03.03 0 0 1-.03-.01c-.29-.37-.6-.72-.93-1.05.1 0 .2.04.3.1.31.2.58.37.82.56.06.04.15.14.27.28Z" fill="#DBB16C"/><path d="M9.33 4.66c.05.1.05.22.02.35h-.42l-.48.04-.18-.32c.35-.06.7-.08 1.06-.07Z" fill="#FCDDB3"/><path d="m10.06 4.74.07.36v.03c-.02-.02-.05-.04-.1-.04A13.02 13.02 0 0 0 9.36 5a.56.56 0 0 0-.02-.35l.73.08ZM8.27 4.73l.18.32v.02a.15.15 0 0 0-.08-.01 2.93 2.93 0 0 0-.48.07l-.12.02a.14.14 0 0 0-.05-.08.38.38 0 0 0-.13-.2l.68-.14Z" fill="#BF9784"/><path d="m11 5.04-.14.22c-.02.03-.04.03-.07.02a5.85 5.85 0 0 0-.66-.18l-.07-.36c.32.06.63.16.93.3Z" fill="#FCDDB3"/><path d="M7.61 4.87c.05.06.14.2.16.28.12.3.22.6.3.9.03.12.06.2.1.25.12.15.33.2.4-.03l.03-.15a3.17 3.17 0 0 0-.15-1.07 13.76 13.76 0 0 1 .9-.04l.02.02-.05 1.13c0 .16.05.28.16.36.28.22.47-.07.52-.33.04-.2.08-.42.1-.62l.03-.44V5.1l.66.18c.02.01.05 0 .07-.02l-.01.05-.02.02-.03.03c-.17.3-.27.63-.28.97 0 .13.03.22.1.28.15.1.31-.05.38-.18l.6-1.09a4.37 4.37 0 0 1 .85.6c.19.2.29.42.43.72.2.43.38.92.51 1.47.07.25.17.55.3.9-.01.07 0 .14.04.22l.01.03c0 .05 0 .08.02.09a2.76 2.76 0 0 0-.05.18l-.06.44c-.06.28-.17.53-.35.76a2.2 2.2 0 0 0-.23-.96l-.1-.25c.03-.01.04-.03.03-.05 0-.01 0-.02-.02-.02l-.04.01c-.13-.22-.28-.4-.46-.56.06-.5-.08-.9-.42-1.22a.9.9 0 0 0-.66-.26c-.23 0-.44.08-.62.21-.3.22-.5.48-.55.87a.8.8 0 0 0 .05.44l.13.23-.24-.07c-.1-.07-.21-.12-.34-.16a1.2 1.2 0 0 0-1.15.25 1.46 1.46 0 0 0-.1-.37c-.08-.16-.2-.3-.35-.43.08-.51-.07-.94-.44-1.27-.48-.44-1.12-.24-1.52.2-.21.23-.31.52-.3.85a6.37 6.37 0 0 0-.82.46c-.17.13-.37.3-.6.51a.94.94 0 0 0-.28.44 1.84 1.84 0 0 1-.13-.69c0-.35.06-.71.16-1.07 0 .04.01.06.02.07a.01.01 0 0 0 .02 0 1.4 1.4 0 0 1 .1-.34l.27-.5a.32.32 0 0 0 .04-.12v-.13c.18-.28.39-.55.62-.8.4-.44.9-.75 1.46-.93.3-.1.63-.18.78-.22Z" fill="#DBB16C"/><path d="M10.12 5.13c.01.15 0 .3-.02.44-.02.2-.06.41-.1.62-.05.26-.24.55-.52.33a.41.41 0 0 1-.16-.36l.05-1.13.04-.01.63.06c.04.01.07.03.08.05Z" fill="#92634C"/><path d="M11.2 5.13c0 .1-.01.19-.06.27 0 0 0 .02-.02.02h-.02l-.25-.11v-.05l.14-.22.2.1Z" fill="#BF9784"/><path d="M8.45 5.07c.11.36.16.7.15 1.05 0 .04 0 .09-.03.15-.07.22-.28.18-.4.03a.68.68 0 0 1-.1-.25c-.08-.3-.18-.6-.3-.9a4.15 4.15 0 0 1 .24-.03l.36-.06.08.01ZM11.6 5.34l-.6 1.1c-.07.12-.23.28-.37.17-.08-.06-.12-.15-.11-.28a2.13 2.13 0 0 1 .3-1l.03-.02.25.1h.04a.42.42 0 0 0 .05-.28l.4.21Z" fill="#92634C"/><path d="M7.72 5.98c.1.1.18.2.22.3.12.33-.23.43-.44.3-.16-.1-.3-.25-.32-.45-.02-.2.12-.23.27-.25.09-.02.18.01.27.1ZM11.52 6.73c.2-.14.31-.35.24-.48-.08-.13-.31-.13-.52.01-.21.14-.32.35-.24.48.07.13.3.13.52 0Z" fill="#FFFFFE"/><path d="M4.76 6.82v.13l-.05.13a9.26 9.26 0 0 0-.39.68c.1-.32.25-.64.44-.94Z" fill="#FBE8DA"/><path d="M8.16 7.48c.1.24.27.4.37.34.1-.04.1-.27-.01-.51-.1-.24-.27-.4-.37-.34-.1.04-.1.27.01.51Z" fill="#FEDC87"/><path d="M6.89 7.47c.1-.05.16-.16.13-.25-.04-.1-.16-.12-.27-.08-.1.05-.16.17-.12.26.03.09.15.12.26.07Z" fill="#FFFFFE"/><path d="M10.49 7.69a.7.7 0 0 1-.14.1.1.1 0 0 1-.08 0 .11.11 0 0 1-.06-.04l-.01-.06v-.07c.07-.17.17-.3.3-.42a.18.18 0 0 1 .27.04c.08.16-.2.37-.28.45Z" fill="#FEDC87"/><path d="M12.1 7.46c.13.02.24-.02.25-.1.02-.06-.08-.14-.21-.17-.13-.02-.25.02-.26.1-.01.07.09.15.22.17Z" fill="#E6E2DB"/><path d="m7.78 7.49-.01-.11c0-.02 0-.02.01 0 .22.25.31.55.29.9a.54.54 0 0 1-.26.4.97.97 0 0 1-.6.18c-.25-.01-.46-.07-.63-.17-.2-.12-.32-.21-.37-.26-.05-.05-.08-.15-.08-.27-.01-.11 0-.22.04-.33.01-.04.02-.04.02 0 .02.44.38.78.8.72a.88.88 0 0 0 .76-.66.98.98 0 0 0 .03-.4Z" fill="#9DED9E"/><path d="M10.93 7.8c.06-.06.11-.1.17-.12.13-.05.22.03.2.17a.28.28 0 0 1-.15.22.2.2 0 0 1-.3-.11c-.02-.09.03-.11.08-.16Z" fill="#FFFFFE"/><path d="M4.32 7.76h.05a.36.36 0 0 0-.03.14.01.01 0 0 1-.02.01c-.01 0-.02-.03-.02-.07l.02-.08Z" fill="#E7A896"/><path d="M10.4 8.61c.03.09.06.15.11.21.27.32.65.43 1.02.25.15-.08.28-.2.38-.36.12-.2.17-.44.14-.7-.01-.05 0-.06.04-.01.12.15.19.33.22.54.02.2.01.41-.11.56a.83.83 0 0 1-.52.29 1.34 1.34 0 0 1-1.04-.28l-.11-.08a.22.22 0 0 1-.1-.1.72.72 0 0 1-.06-.31c0-.06 0-.06.03-.01Z" fill="#9DED9E"/><path d="M5.97 8.2c.06.32.23.54.5.67a.98.98 0 0 1-.25.28c-.31-.21-.64-.4-1-.55.24-.15.5-.29.75-.4Z" fill="#9B7259"/><path d="M8.68 9.21a.8.8 0 0 0-.27.5 1 1 0 0 0 .26.85 2.36 2.36 0 0 0 .22.2h.01c.02 0 .02-.01.02-.02a.73.73 0 0 0 .93.18.98.98 0 0 0 .56-.3.89.89 0 0 0 .22-.83.99.99 0 0 0-.17-.38 1.39 1.39 0 0 0-.3-.29l.25.07c.22.2.47.33.76.39.23.05.47.04.7-.04.1.08.17.2.23.34l-.32.2-.01.01v.03l.36-.18.15.43-.25.07h-.01a.02.02 0 0 0 0 .04l.01.01h.01l.27-.04.14.37-.38.04h-.01l-.01.01v.02a.03.03 0 0 0 0 .02l.01.01h.02l.4-.01c.04.12.1.22.2.3.03.02.1.04.2.05-.14.13-.27.24-.4.33a34.85 34.85 0 0 1-.82.55 4.44 4.44 0 0 1-1.44.42c-.03.03-.06.05-.08.05l-.8.02a5.82 5.82 0 0 1-2.32-.54c-.33-.16-.63-.29-.9-.38l-.35-.2c-.05-.03-.07-.07-.06-.12a.05.05 0 0 0-.01-.04.05.05 0 0 0-.03-.02l-.12-.01c-.3-.12-.56-.3-.77-.53a.84.84 0 0 1-.2-.3l-.01-.2c.17 0 .33-.03.46-.1h1.15l.02-.01v-.02l.01-.01a.02.02 0 0 0 0-.02.02.02 0 0 0-.02 0c-.35-.02-.7-.01-1.04 0a.76.76 0 0 1 .14-.14l.12-.11.34-.32.52.24a.01.01 0 0 0 .01 0l.01-.01a.02.02 0 0 0 .01-.03l-.01-.01-.49-.25.33-.3.38.29h.04l.01-.02a.03.03 0 0 0 .01-.02.03.03 0 0 0 0-.02l-.35-.28c.1-.08.2-.17.26-.28.28.15.58.21.9.18.2-.02.38-.09.54-.2a.81.81 0 0 0 .31-.44c.16.13.27.27.35.43.04.1.07.22.1.37Z" fill="#E1BD78"/><path d="M5.22 8.6c.36.15.69.34 1 .55l.34.28a.03.03 0 0 1 .01.02.03.03 0 0 1 0 .02l-.02.01-.02.01h-.02l-.38-.28-.98-.56c0-.03.02-.05.07-.05Z" fill="#FFFFFE"/><path d="m6.13 9.2-.33.3-.6-.24a.01.01 0 0 0-.02 0v.01a.03.03 0 0 0-.02.03l.01.01h.01l.57.25a16.63 16.63 0 0 1-.72.64c-.13.06-.29.08-.46.08l-.3-.68c.05-.17.14-.31.27-.44l.61-.51.98.56ZM12.48 8.92c.18.15.33.34.46.56-.3.11-.57.24-.84.4a.97.97 0 0 0-.22-.34c.21-.07.39-.2.52-.4a.71.71 0 0 0 .08-.22Z" fill="#9B7259"/><path d="M10.17 9.12c.1.08.2.18.29.3.08.1.14.23.17.37.07.3 0 .58-.22.82a.98.98 0 0 1-.56.31l.1-.1v-.03c-.01-.02-.03-.03-.05-.03l-.03.01c-.27.26-.71.1-.92-.15-.07-.08-.1-.07-.1.03l.07.09s0 .02-.02.02a.03.03 0 0 1-.03 0 2.36 2.36 0 0 1-.2-.2 1 1 0 0 1-.26-.86.8.8 0 0 1 .27-.49 1.2 1.2 0 0 1 1.15-.25c.13.04.24.09.34.16Z" fill="#E6E2DB"/><path d="m9.96 9.58-.26.12h-.04a.45.45 0 0 1-.32-.29V9.4a.03.03 0 0 0-.05 0v.02c-.06-.12-.05-.2.02-.25.03-.02.1-.04.19-.04.15 0 .7 0 .57.31l-.04.09c-.02.05-.05.07-.07.05Z" fill="#E7A896"/><path d="m5.8 9.5.49.25a.02.02 0 0 1 .01.03l-.02.02h-.01l-.52-.24-.57-.24h-.01V9.3a.03.03 0 0 1 0-.03h.02l.61.23Z" fill="#FFFFFE"/><path d="M9.28 9.42v-.01l.02-.01a.03.03 0 0 1 .03 0l.01.01c.06.16.17.25.32.3h.03l.27-.13c-.06.13-.15.2-.28.2l-.01.01v.01l-.03.12c0 .02 0 .03.02.04.1.1.22.15.38.15.1 0 .18-.02.23-.1.02-.01.04-.01.06.01l.01.02a.06.06 0 0 1-.01.05.31.31 0 0 1-.19.1.6.6 0 0 1-.5-.14H9.6c-.06.06-.16.09-.3.07-.27-.03-.65-.26-.67-.58a.02.02 0 0 0 0-.01.02.02 0 0 0-.02 0h-.06a.03.03 0 0 1-.03 0v-.05c.06-.05.11-.11.16-.18h.03c.04 0 .05.02.04.05l-.06.1v.04c.04.22.18.34.35.44.11.07.35.14.48.07l.02-.03.03-.16c0-.02 0-.03-.02-.03-.15-.07-.24-.18-.27-.36Z" fill="#040201"/><path d="M12.97 9.54c-.28.12-.56.25-.84.4l-.35.19h-.01v-.04l.01-.02.32-.19a5.44 5.44 0 0 1 .88-.4l.02.01c0 .02 0 .04-.03.05Z" fill="#FBE8DA"/><path d="m12.97 9.54.1.25a2.18 2.18 0 0 1 .23.96l-.43.5c-.1 0-.16-.02-.19-.04a.65.65 0 0 1-.2-.3h.51v-.05l-.02-.02-.52-.02-.15-.37.77-.11a.02.02 0 0 0 .01-.01v-.05h-.02a4.4 4.4 0 0 0-.78.1l-.15-.44c.28-.15.56-.28.84-.4Z" fill="#9B7259"/><path d="M5.03 10.2c.04-.04.08-.06.12-.06a10.34 10.34 0 0 1 1.06 0v.02l-.01.02h-.02l-1.15.02Z" fill="#FBE8DA"/><path d="M9.85 10.92a.72.72 0 0 1-.93-.18l-.06-.09c0-.1.02-.11.09-.03.21.24.65.41.92.15l.03-.01c.02 0 .04 0 .05.03a.03.03 0 0 1-.01.03l-.1.1ZM8.31 12.08c.69.43 1.6.45 2.24-.1a.28.28 0 0 1 .12-.07h.02l.01.02v.03a.34.34 0 0 1-.1.15c-.38.31-.81.45-1.3.42a2.17 2.17 0 0 1-1.57-.78.99.99 0 0 1-.15-.29v-.01l.02-.02h.01c.02 0 .04.01.06.04.2.26.38.46.64.61Z" fill="#040201"/><path d="M8.48 12.79a.44.44 0 0 0 0 .22v.02c-.1.05-.25.14-.19.28.06.12.17.12.29.13h.01a.02.02 0 0 1 0 .02c-.01.16.04.27.16.32a.2.2 0 0 0 .25-.06 10.12 10.12 0 0 0 .08-.07c.15.01.23-.05.25-.2.01-.05-.03-.14-.05-.18 0-.03 0-.04.02-.05.07-.05.1-.11.1-.2a.33.33 0 0 0-.04-.1c-.02-.04-.02-.07-.01-.1.2-.02.48-.02.8-.02.08 0 .14.03.17.09.06.13.12.26.16.39l-.2.01h-.04a.05.05 0 0 1-.02-.04c-.03-.1-.1-.23-.22-.23-.09 0-.15.05-.2.14-.02.05-.02.12.01.2v.02a.37.37 0 0 1-.13.07c-.12.05-.2.22-.08.32a.3.3 0 0 0 .2.08c.03 0 .04.02.04.04a.6.6 0 0 1 0 .08c-.02.07 0 .13.04.17l.1.06c.05.02.08.02.1 0a28.65 28.65 0 0 1 .18-.1l.12-.01c.02 0 .06-.02.11-.07l.02-.03v-.23c0-.06.02-.09.07-.09a5.15 5.15 0 0 1 .04 1.16h-.04l-1.02-.4c.08-.07.1-.19.04-.35a.26.26 0 0 0-.1-.14c-.05-.03-.1-.04-.14.02-.1.14-.05.28.04.41-.27-.1-.54-.2-.8-.32a5.26 5.26 0 0 1-1.77-1.24c-.03-.03-.03-.05 0-.08l.07-.08c.02-.02.04-.02.07 0 .28.2.56.34.89.43.05.02.1.03.14.02.03 0 .03-.02 0-.04L8 13.04l-.51-.2a2.99 2.99 0 0 1-.48-.29v-.03c.06-.1.2-.09.3-.05.39.16.78.26 1.18.32Z" fill="#91D1C9"/><path d="M8.65 12.81c-.09.04-.1.1-.02.2l.1.07-.04.13a.24.24 0 0 0-.26-.03.07.07 0 0 0-.04.03v.05c0 .02.02.04.04.05a.4.4 0 0 1 .03 0c.06.03.1.02.16-.02a.9.9 0 0 1 .07-.05l.06.1c-.05.1-.06.2-.02.28.01.04.03.05.05.06h.08c.07 0 .1-.1.06-.16a1.07 1.07 0 0 1-.1-.14l.18-.06.05.14c0 .02.02.04.04.05h.07l.02-.01a.07.07 0 0 0 .02-.05v-.03c-.04-.13-.1-.17-.18-.13l-.02-.2c.07.04.14.05.2.04.05-.02.08-.05.07-.1a.15.15 0 0 0-.14-.13c-.08 0-.15.04-.2.12a.3.3 0 0 1-.14.02c.02-.1-.03-.17-.14-.23.12 0 .24 0 .35.02h.35c-.02.02-.01.05.01.1l.04.1c0 .08-.03.14-.1.19-.02 0-.03.02-.02.05.02.04.06.13.05.19-.02.14-.1.2-.25.19a.04.04 0 0 0-.03 0l-.05.07a.2.2 0 0 1-.25.06c-.12-.05-.17-.16-.16-.32a.02.02 0 0 0 0-.02h-.01c-.12 0-.23 0-.29-.13-.06-.14.09-.23.18-.28.01 0 .02-.01.01-.02a.44.44 0 0 1 0-.22l.17.02Z" fill="#77ACA0"/><path d="M8.65 12.81c.11.06.16.13.14.23a.1.1 0 0 1-.05.04.57.57 0 0 1-.1-.08c-.08-.09-.08-.15 0-.19ZM9 13.1a.18.18 0 0 0-.07-.08c.05-.08.12-.12.2-.12.07 0 .13.06.14.13.01.05-.02.08-.08.1-.05.01-.12 0-.19-.04Z" fill="#E6E2DB"/><path d="m8.93 13.02.07.07.03.2-.03.03-.18.06c-.05-.02-.07-.03-.07-.05l-.06-.1v-.02l.05-.13c.02 0 .04-.02.05-.04.06 0 .1 0 .14-.02Z" fill="#FCDDB3"/><path d="m10.48 13.28.1.39c-.05 0-.08.03-.07.1v.22s0 .02-.02.03c-.05.05-.09.07-.11.07a4.36 4.36 0 0 0-.16.01l-.13.1c-.03.02-.06.02-.11 0a.26.26 0 0 1-.1-.06c-.04-.04-.06-.1-.05-.17a.6.6 0 0 0 0-.08c0-.02 0-.04-.03-.04a.3.3 0 0 1-.2-.08c-.11-.1-.04-.27.08-.32a.37.37 0 0 0 .12-.07c.01 0 .02-.01.01-.02-.03-.08-.03-.15 0-.2.04-.1.1-.14.2-.14.11 0 .18.13.21.23 0 .02.01.03.02.03l.03.01.21-.01Z" fill="#D498B0"/><path d="M8.7 13.2v.04a.89.89 0 0 0-.08.05c-.05.04-.1.05-.16.03l-.03-.02c-.02 0-.04-.02-.04-.04v-.05l.04-.03c.09-.05.18-.04.26.03ZM9 13.32l.03-.03c.08-.04.13 0 .17.13a.07.07 0 0 1 0 .06l-.02.02-.02.01h-.07a.08.08 0 0 1-.04-.05L9 13.32ZM8.82 13.38l.1.14c.04.05.01.17-.06.16h-.08c-.02 0-.04-.02-.05-.06-.04-.09-.03-.18.02-.29 0 .02.02.03.07.05Z" fill="#E6E2DB"/><path d="M10.3 13.44a.14.14 0 0 1 .17.01l.02.04v.04c-.03.07-.07.1-.13.07-.05-.02-.07-.07-.1-.12l.01-.03.02-.01h.01Z" fill="#FDD9E5"/><path d="M9.99 13.66v-.16l.06-.04h.02c.05-.03.1-.03.14 0 .04.03.06.12.07.17v.04l-.08.07c-.01.01-.02.02-.03.01a.33.33 0 0 1-.18-.1Z" fill="#9B7259"/><path d="M9.99 13.66c-.07.08-.15.1-.26.07a.12.12 0 0 1-.07-.07.06.06 0 0 1 .01-.07.24.24 0 0 1 .14-.07c.12-.02.13.06.18.14ZM10.24 13.88c.03.07.08.1.12.1.04-.03.05-.1.02-.16-.03-.07-.08-.1-.12-.09-.04.02-.05.09-.02.15ZM9.97 14.08a.04.04 0 0 1-.02-.02.04.04 0 0 1-.01-.03V14a.5.5 0 0 1 .05-.16c.02-.04.04-.06.06-.05.03 0 .05.03.06.07v.2l-.02.02-.03.01-.09-.01Z" fill="#FDD9E5"/><path d="m9.56 14.44-.16-.06c-.1-.14-.14-.28-.04-.42.04-.06.09-.05.14-.02.05.04.08.08.1.14.06.16.04.28-.04.36Z" fill="#9DED9E"/><defs><linearGradient id="a" x1="9" y1="0" x2="9" y2="18" gradientUnits="userSpaceOnUse"><stop stop-color="#FBB180"/><stop offset="1" stop-color="#FCE5BB"/></linearGradient></defs></svg>