<!-- by TradingView --><svg xmlns="http://www.w3.org/2000/svg" width="18" height="18"><path fill="url(#aoke0mxuv)" d="M0 0h18v18H0z"/><path d="M7.06 4c-.48 0-.91.24-1.16.65l-2.21 3.7c-.25.4-.25.9 0 1.32l2.21 3.65c.24.42.7.68 1.19.68h4.37c.51 0 .98-.26 1.2-.68l1.58-2.63c.16-.27.19-.57.13-.84a1.04 1.04 0 00-.54-.68l-3.64-2a.3.3 0 00-.13-.03.3.3 0 00-.13.03l-.03.01-.01.02a.25.25 0 00-.07.1.34.34 0 00-.01.1v1.43c0 .39.2.76.55.94l1.37.77-.78 1.28H9.24V6.18h1.7l.84 1.36c.37.62 1.2.82 1.83.47l.56-.3.02-.01a.5.5 0 00.05-.06.23.23 0 00.04-.06.23.23 0 00-.02-.26l-1.58-2.64A1.44 1.44 0 0011.46 4h-4.4zm-.66.93a.74.74 0 01.66-.37h4.4c.3 0 .6.15.79.4l1.44 2.4-.3.16c-.4.2-.89.06-1.09-.3l-.91-1.5-.02-.02a.27.27 0 00-.2-.08H8.94a.32.32 0 00-.19.06.25.25 0 00-.1.2v6.24c0 .18.16.28.3.28h2.2c.03 0 .17 0 .24-.13l1.02-1.7c.04-.13.01-.3-.12-.37l-1.61-.9a.56.56 0 01-.3-.47v-.94l2.48 1.38.74.4c.12.06.21.17.26.33.04.14.02.28-.06.4l-1.6 2.64a.9.9 0 01-.75.4H7.1a.78.78 0 01-.7-.4L4.19 9.39a.73.73 0 010-.74l2.21-3.7v-.01zm1.18.7a.3.3 0 00-.2 0 .26.26 0 00-.13.13l-1.98 3.1a.3.3 0 000 .3l2 3.13v.01c.03.03.15.14.24.15l.1-.04a.45.45 0 00.11-.09c.03-.03.08-.1.08-.18V5.91a.26.26 0 00-.08-.18.45.45 0 00-.12-.08l-.02-.01zm-.35 5.5L5.84 8.99l1.39-2.12v4.26z" fill="#fff"/><defs><linearGradient id="aoke0mxuv" x1="9" y1="0" x2="9" y2="18" gradientUnits="userSpaceOnUse"><stop stop-color="#9922E6"/><stop offset="1" stop-color="#5719EC"/></linearGradient></defs></svg>