<!-- by TradingView --><svg xmlns="http://www.w3.org/2000/svg" width="18" height="18"><path fill="url(#a5pyplcqf)" d="M0 0h18v18H0z"/><path d="M8 3h2v1.07c2.1.31 3.06 1.66 3.37 3.43H11.3C11 6.6 10.3 6 9 6 7.36 6 6.5 7.3 6.5 9s.91 2.92 2.5 3c1.33.06 2-.56 2.3-1.5H10V9h3.5v.07c0 2.52-.79 4.6-3.5 4.9V15H8v-1.13c-2.24-.5-3.5-2.34-3.5-4.8S5.7 4.55 8 4.1V3z" fill="#fff"/><defs><linearGradient id="a5pyplcqf" x1="0" y1="15.03" x2="16.57" y2="6.46" gradientUnits="userSpaceOnUse"><stop stop-color="#5945FC"/><stop offset="1" stop-color="#3D9EEF"/></linearGradient></defs></svg>