<!-- by TradingView --><svg width="18" height="18" viewBox="0 0 18 18" xmlns="http://www.w3.org/2000/svg"><path fill="#F0F3FA" d="M0 0h18v18H0z"/><path d="M11.98 3.8a4.4 4.4 0 0 1-6.18.12 5.97 5.97 0 0 1 6.18-.13ZM12.57 4.18a4.4 4.4 0 0 0 2.33 5.9 6.05 6.05 0 0 0-2.33-5.9ZM14.45 11.53a4.44 4.44 0 0 0-5 3.47 6 6 0 0 0 5-3.47ZM8.26 14.97a4.41 4.41 0 0 0-4.87-3.81 6 6 0 0 0 4.87 3.81ZM3.13 10.26a4.42 4.42 0 0 0 1.92-5.78 6 6 0 0 0-1.92 5.78Z" fill="#00D4A3"/><path d="M11.29 9H8.52c0 .85.7 1 1.04 1h1.73V9Z" fill="url(#a4cz3zhwb)"/><path d="M11.62 9h-1.04c.14 0 .06.3 0 .53l-.51 1.76h1.2c.18-.47.56-1.51.7-1.94.13-.42-.18-.35-.35-.35Z" fill="url(#b4cz3zhwb)"/><path d="M10.93 11H7.48v1h2.93c.7 0 1.1-1.12 1.21-1.65-.14.42-.52.65-.69.65Z" fill="url(#c4cz3zhwb)"/><path d="M8.17 11.3 7.13 8.11l-1.03.7.86 2.65c.14.42.4.53.52.53h1.2c-.27 0-.46-.47-.51-.7Z" fill="url(#d4cz3zhwb)"/><path d="M6.96 9c-.55.42-.58.77-.52.88l-.35-.7c-.27-.7.12-1.24.35-1.41l1.88-1.48c.22-.17.52-.2.76-.05l.81.47L6.96 9Z" fill="url(#e4cz3zhwb)"/><path d="M8.51 7.06c-.41-.28-1.1-.06-1.2 0a15 15 0 0 1 1.2-.92c.42-.28.87-.08 1.04.04L12 8h-1.59c-.27 0-.69-.12-.86-.23l-1.04-.7Z" fill="url(#f4cz3zhwb)"/><defs><linearGradient id="a4cz3zhwb" x1="8.51" y1="9.18" x2="11.1" y2="9.18" gradientUnits="userSpaceOnUse"><stop stop-color="#520AC5"/><stop offset="1" stop-color="#1E0779"/></linearGradient><linearGradient id="b4cz3zhwb" x1="10.93" y1="8.82" x2="10.57" y2="11.29" gradientUnits="userSpaceOnUse"><stop stop-color="#03C096"/><stop offset=".57" stop-color="#00EBB3"/><stop offset="1" stop-color="#08B790"/></linearGradient><linearGradient id="c4cz3zhwb" x1="11.1" y1="11.65" x2="8.01" y2="12.93" gradientUnits="userSpaceOnUse"><stop stop-color="#2E0681"/><stop offset=".42" stop-color="#510AC8"/><stop offset="1" stop-color="#30007C"/></linearGradient><linearGradient id="d4cz3zhwb" x1="6.79" y1="8.3" x2="8.6" y2="11.77" gradientUnits="userSpaceOnUse"><stop stop-color="#01B588"/><stop offset=".55" stop-color="#00E2AD"/><stop offset="1" stop-color="#00B68E"/></linearGradient><linearGradient id="e4cz3zhwb" x1="6.1" y1="9.18" x2="9.81" y2="7.16" gradientUnits="userSpaceOnUse"><stop stop-color="#3A059B"/><stop offset=".55" stop-color="#4E0AC3"/><stop offset="1" stop-color="#2E0679"/></linearGradient><linearGradient id="f4cz3zhwb" x1="7.99" y1="6.53" x2="11.12" y2="6.28" gradientUnits="userSpaceOnUse"><stop stop-color="#05CF9F"/><stop offset=".16" stop-color="#00DCA7"/><stop offset="1" stop-color="#01EAB5"/></linearGradient></defs></svg>