<!-- by TradingView --><svg width="18" height="18" viewBox="0 0 18 18" xmlns="http://www.w3.org/2000/svg"><path fill="#181B1E" d="M0 0h18v18H0z"/><path d="M7.6 6.27a5.7 5.7 0 0 1 1.08-.64V4c-.66 0-1.55.57-1.9.86L3.5 7.32c-.32.23-.5.6-.5 1V9c.17-.56.83-.93 1.22-1.07a.84.84 0 0 1 .29-.04h.94c.57-.42 1.78-1.33 2.14-1.62ZM10.4 6.27a5.7 5.7 0 0 0-1.08-.64V4c.66 0 1.55.57 1.9.86l3.29 2.46c.3.23.49.6.49 1V9c-.17-.56-.83-.93-1.22-1.07a.84.84 0 0 0-.29-.04h-.94c-.57-.42-1.78-1.33-2.14-1.62ZM7.6 11.73c.36.29.87.54 1.08.64V14c-.66 0-1.55-.57-1.9-.86L3.5 10.68c-.32-.23-.5-.6-.5-1V9c.17.56.83.93 1.22 1.07.1.03.19.04.29.04h.94c.57.42 1.78 1.33 2.14 1.62ZM10.4 11.73a5.7 5.7 0 0 1-1.08.64V14c.66 0 1.55-.57 1.9-.86l3.29-2.46c.3-.23.49-.6.49-1V9c-.17.56-.83.93-1.22 1.07a.84.84 0 0 1-.29.04h-.94c-.57.42-1.78 1.33-2.14 1.62Z" fill="#4EC15F"/></svg>