<!-- by TradingView --><svg width="18" height="18" viewBox="0 0 18 18" xmlns="http://www.w3.org/2000/svg"><path fill="#FFF1C9" d="M0 0h18v18H0z"/><path d="M4.63 6.58H4v4.84h.63v.97h.93v.96h.94V14h5v-.65h.94v-.96h.94v-1.3H14V6.6h-.63V5.6h-.93v-.96h-.94V4h-5v.65h-.94v.96h-.93v.97Z" fill="url(#aklbax2ze)"/><path d="M6.5 6.26v-.97h5v.97h.94v.32h.94v4.84h-.94v.32h-.94v1.61h-5v-1.6h-.94v-.33h-.93V6.58h.93v-.32h.94Z" fill="url(#bklbax2ze)"/><path d="M6.5 7.23h-.94v3.54h.94v.65h.63v.97h3.75v-.97h.62v-.65h.94V7.23h-.94v-.65h-.63v-.97H7.45v.97H6.5v.65Z" fill="url(#cklbax2ze)"/><path d="M6.19 10.45v-2.9h.62V6.9h.94v-.96h2.5v.96h.94v.65h.78v2.9h-1.1v.65h-.93v.8H7.75v-.8h-.94v-.65H6.2Z" fill="url(#dklbax2ze)"/><path fill="#000021" d="M7.75 7.55h.63v.97h-.63zM9.63 7.55h.63v.97h-.63zM8.06 9.16h-.62v.65c.2.21.81.64 1.56.64s1.35-.43 1.56-.64v-.65h-.62c-.1.22-.44.65-.94.65-.5 0-.83-.43-.94-.65Z"/><defs><linearGradient id="aklbax2ze" x1="4.31" y1="9" x2="14" y2="9" gradientUnits="userSpaceOnUse"><stop stop-color="#D6A201"/><stop offset="1" stop-color="#FADE1B"/></linearGradient><linearGradient id="bklbax2ze" x1="4.9" y1="9.32" x2="13.38" y2="9.32" gradientUnits="userSpaceOnUse"><stop stop-color="#DFB902"/><stop offset="1" stop-color="#F8DE19"/></linearGradient><linearGradient id="cklbax2ze" x1="5.78" y1="9" x2="12.44" y2="9" gradientUnits="userSpaceOnUse"><stop stop-color="#DFB902"/><stop offset=".05" stop-color="#D99802"/><stop offset=".32" stop-color="#E1BA03"/><stop offset=".72" stop-color="#E2BC02"/><stop offset="1" stop-color="#BE5E00"/></linearGradient><linearGradient id="dklbax2ze" x1="6.37" y1="8.92" x2="11.97" y2="8.92" gradientUnits="userSpaceOnUse"><stop stop-color="#DFB902"/><stop offset=".14" stop-color="#D99802"/><stop offset=".32" stop-color="#E1BA03"/><stop offset=".72" stop-color="#E2BC02"/><stop offset="1" stop-color="#BE5E00"/></linearGradient></defs></svg>