<!-- by TradingView --><svg width="18" height="18" viewBox="0 0 18 18" xmlns="http://www.w3.org/2000/svg"><path fill="#181B1E" d="M0 0h18v18H0z"/><path fill-rule="evenodd" d="M9 14A5 5 0 1 0 9 4a5 5 0 0 0 0 10Zm-.01-.31a4.7 4.7 0 1 0 0-9.39 4.7 4.7 0 0 0 0 9.39Z" fill="#F8F6F8"/><path d="m9 6.96 2.04 3.56H6.96L9 6.96Z" fill="#A609C9"/><path d="m9.04 7.57 1.57 2.95H7.47l1.57-2.95Z"/><path d="M13.67 12H4.33l4.52-8 1 1.54-.38.42-.4-.42-2.74 5.27h5.47l-.53-.88h1.12L13.67 12Z" fill="#A609C9"/><path d="M12.32 10.06 13.37 12H4.75l4.31-7.98.81 1.5-.46.72-.35-.7-2.8 5.57h5.6l-.5-1.05h.96Z"/><ellipse cx="9" cy="7.28" rx="7" ry=".78" fill="#B911EB"/><ellipse cx="9" cy="7.28" rx="7" ry=".16" fill="#D9D9D9"/><path d="M13.7 6.81h.26v.94h-.27v-.4h-.92v.4h-.27v-.94h.27v.34h.92v-.34ZM10.76 7.75a1.5 1.5 0 0 1-.35-.04.75.75 0 0 1-.24-.1l.01-.21c.07.05.14.1.24.12.09.03.21.05.36.05.2 0 .29-.04.29-.12 0-.02-.02-.04-.05-.05a4.7 4.7 0 0 0-.5-.03.93.93 0 0 1-.17-.04.27.27 0 0 1-.12-.08.23.23 0 0 1-.05-.15c0-.2.17-.29.52-.29a2.35 2.35 0 0 1 .58.08v.23h-.07a.42.42 0 0 0-.21-.1 1.35 1.35 0 0 0-.51 0c-.04.01-.06.04-.06.07 0 .03.01.05.05.06l.13.02a4.75 4.75 0 0 0 .37.01c.06 0 .12.02.17.04.06.01.1.04.13.08.04.04.05.1.05.15 0 .08-.02.13-.07.18a.4.4 0 0 1-.19.1l-.3.02ZM8.09 7.75l-.11-.2H7.4l-.11.2h-.33l.57-.94h.31l.58.94h-.33Zm-.58-.42h.36l-.17-.31h-.03l-.16.31ZM5.52 6.81h.27v.94h-.27v-.4H4.6v.4h-.27v-.94h.27v.34h.92v-.34Z"/></svg>