<!-- by TradingView --><svg width="18" height="18" viewBox="0 0 18 18" xmlns="http://www.w3.org/2000/svg"><path fill="#F0F3FA" d="M0 0h18v18H0z"/><path d="M11.1 7.84c.02.03.01.05-.03.06h-.02l-.02-.02-.13-.26a.3.3 0 0 1 0 .11.6.6 0 0 1-.08-.23.07.07 0 0 0-.03-.05 10.52 10.52 0 0 1-.57-1.22 1.3 1.3 0 0 0-.25-.33 1.28 1.28 0 0 0-.33-.25c-.12-.04-.21-.12-.32-.15a3.35 3.35 0 0 0-.17-.07l-.01-.01a.04.04 0 0 0-.03-.03c-.13-.04-.24-.1-.38-.1l-.36-.01c-.07 0-.1.04-.11.11 0 .03-.02.06-.06.1-.09.1-.16.2-.28.25-.31.12-.56.08-.74-.25a.13.13 0 0 1-.01-.06.27.27 0 0 0-.05-.18.05.05 0 0 0-.06-.02 3.5 3.5 0 0 0-.74.23.56.56 0 0 1-.16.05.59.59 0 0 0-.15.04c-.11.05-.22.11-.33.19a.21.21 0 0 1-.1.02.1.1 0 0 0-.05.03l-.23.22a.83.83 0 0 1 .16-.23c.04-.04.04-.08-.01-.09.49-.25 1-.45 1.53-.6a3.97 3.97 0 0 1 2.3.22c.62.31 1 .64 1.31 1.3.1.2.26.6.51 1.23Z" fill="#F56269"/><path d="m10.9 7.73.26.59h.02v-.03a9.43 9.43 0 0 0-.23-.53c-.01-.03-.03-.03-.04-.03a.3.3 0 0 0 0-.11h-.01l.13.26.02.02h.02c.04 0 .05-.03.03-.06l.42.98c-.04.04-.08.04-.12.01-.13-.1-.24-.14-.34-.11-.2-.07-.37-.1-.52-.08l-.81-.02c-.09 0-.17-.04-.26-.06a.1.1 0 0 0-.06 0c-.03.02-.06.01-.1-.01a.09.09 0 0 0-.05-.02l-.64.05H8.6v.02l.03.02c.04.02.04.02 0 .02-.1 0-.18.02-.25.1a.05.05 0 0 1-.04.02c-.06 0-.12 0-.17.02-.05.02-.08.02-.1-.02l-.04-.02h-.03a.78.78 0 0 1-.27.02l-.02.01-.01.02h-.23c-.02 0-.03 0-.03-.03 0-.05-.01-.08-.04-.1-.1-.1-.17-.16-.19-.31a3.01 3.01 0 0 1 0-.42c0-.02 0-.04-.02-.06-.01-.01-.02-.03-.01-.05v-.06a.26.26 0 0 1-.03-.18.1.1 0 0 0 0-.07l-.02-.03a.07.07 0 0 1 0-.07.18.18 0 0 0 .01-.18.18.18 0 0 1-.01-.07v-.1A.07.07 0 0 0 7.12 7a.19.19 0 0 0-.18-.05s-.02 0-.02-.02v-.03c0-.05-.02-.08-.06-.08h-.35c-.02 0-.03-.01-.04-.04-.01-.04-.03-.04-.06-.02l-.01.01h-.04v-.02a.08.08 0 0 0-.04-.05l-.05-.03c-.11 0-.22 0-.33-.03a.2.2 0 0 0-.07 0l-.24.03c-.02 0-.03-.01-.02-.04 0-.02 0-.03-.02-.05-.06-.04-.1-.05-.14-.01 0 0-.01.02-.03.02H5.4c-.01 0-.02 0-.03-.02l-.02-.03a.12.12 0 0 0-.09-.09h-.02l-.02.03c-.01.04-.04.07-.07.08l.16-.56.23-.22a.1.1 0 0 1 .05-.03c.05 0 .08 0 .1-.02.1-.08.22-.14.33-.2a.59.59 0 0 1 .15-.03c.05 0 .1-.02.16-.05.2-.1.46-.17.74-.23.02 0 .04 0 .06.02.03.05.05.1.05.18l.01.06c.18.33.43.37.74.25.12-.04.19-.16.28-.25.04-.04.06-.07.06-.1 0-.07.04-.11.11-.11h.36c.14.01.25.07.38.11.02 0 .03.01.03.03v.01l.02.02.16.05c.1.03.2.11.32.15.06.02.17.1.33.25.09.08.17.2.24.33a10.44 10.44 0 0 0 .32.56 19.25 19.25 0 0 1 .26.66l.03.05a.6.6 0 0 0 .09.23Z" fill="#E0393C"/><path d="M5.44 5.7c.06 0 .06.04.02.08a.83.83 0 0 0-.16.23l-.16.56c-.1.74-.11 1.49-.06 2.25l.1 1.2c-.67.27-1.3.61-1.88 1.02-.1.07-.17.2-.3.22-.01-.73.02-1.45.1-2.17.06-.44.15-.92.3-1.31.32-.77.85-1.23 1.47-1.73.21-.16.4-.28.57-.36Z" fill="#D4928A"/><path d="M10.54 8.64c-.39 0-.75.05-1.14.1-.22.01-.44.08-.65.11a1.2 1.2 0 0 0-.19.05 2.7 2.7 0 0 1-.4.12c-.02 0-.03 0-.03.02l-.03.02c-.16.03-.3.07-.45.12l-.45.12c-.2.04-.4.11-.57.2-.07.04-.14.06-.2.08-.14.04-.25.12-.36.1L6 9.7c-.13.05-.27.08-.4.08-.03 0-.05 0-.06-.02a.35.35 0 0 0-.1-.06.06.06 0 0 1-.05-.05.56.56 0 0 0-.07-.17.12.12 0 0 1-.02-.06l-.02-.46c0-.02 0-.03-.02-.04a5.1 5.1 0 0 1-.05-.64l-.02-.04.01-.06a13.09 13.09 0 0 1-.04-.82h-.03c-.02 0-.02 0-.02.02l-.03 1.44c-.05-.76-.03-1.5.06-2.25.03 0 .06-.04.07-.08 0-.01 0-.02.02-.02h.02c.05 0 .08.04.09.08l.02.03.03.02h.03l.03-.02c.04-.04.08-.03.14.01.01.02.02.03.01.05 0 .03 0 .04.03.04l.24-.03a.2.2 0 0 1 .07 0c.1.03.22.04.33.03 0 0 .03 0 .05.03.02 0 .03.02.04.05v.01l.02.01h.03c.03-.03.05-.03.06.01 0 .03.02.04.04.04h.35c.04 0 .06.03.05.08l.01.03.02.02c.07-.02.13 0 .18.05l.01.03V7.16l.02.07c.03.06.03.12 0 .18a.07.07 0 0 0-.01.07l.01.03a.1.1 0 0 1 .01.07c-.01.06 0 .12.02.18.01.02.02.04 0 .06 0 .02 0 .04.02.05l.02.06v.42c.01.15.09.22.19.3.03.03.04.06.04.11 0 .02 0 .03.03.03a35.66 35.66 0 0 0 .24-.02c0-.01.01-.02.02-.01.1 0 .18 0 .27-.02h.03c.01 0 .02 0 .03.02.03.04.06.04.11.02s.1-.03.17-.02c.01 0 .03 0 .04-.02.07-.08.15-.1.24-.1.05 0 .05 0 0-.02l-.02-.01a.02.02 0 0 1 0-.03l.65-.05c.02 0 .04 0 .06.02.03.02.06.03.1.01a.1.1 0 0 1 .05 0c.08.02.17.06.26.06l.8.02Z" fill="#D03032"/><path d="M10.54 8.64c.15-.01.33.01.52.08a.3.3 0 0 1-.22.03 2.82 2.82 0 0 0-1.11.02c-.37.09-.76.08-1.1.26l-.02.02a.06.06 0 0 0 0 .06l.02.02c.15.07.31.13.48.15.1.01.2.04.28.07l.29.08.83.25.7.19c.32.1.6.13.91.18.25.03.6.1.9.12.36.02.76.06 1.15.02h.03l.01.01h.05c.1-.05.21-.08.33-.08l.05-.02c.12-.1.26-.12.37-.19a24.5 24.5 0 0 1 .25-.12c.19.02.28-.02.3-.13l.08.04c.03.05.03.08 0 .1h-.12a.1.1 0 0 0-.06 0c-.24.07-.46.18-.68.33-.1.07-.26.12-.39.2l-.27.16-.27.15c-.52.35-1.07.65-1.64.89-.1.04-.21.06-.32.11l-.23.1c-.11.03-.23.09-.33.1a3.5 3.5 0 0 1-.96.05l-.02-.02a6.93 6.93 0 0 1-.9-.22.12.12 0 0 0-.12-.04s-.02 0-.03-.02v-.03l-.02-.01c-.04.01-.08 0-.1-.01a7.41 7.41 0 0 1-1.23-.42.7.7 0 0 0-.43-.13l-.05-.09a.07.07 0 0 0-.05-.03 3.7 3.7 0 0 1-.61-.17l-.83-.3c-.15-.04-.4-.17-.63-.2a.1.1 0 0 1-.04-.03.13.13 0 0 1-.05-.1c0-.03 0-.05-.03-.05h-.05l-.1-1.2.03-1.44c0-.01 0-.02.02-.02h.02l.02.01v.01l.01.02a13.08 13.08 0 0 0 .1 1.56l.02.46.02.06c.03.05.06.1.07.17 0 .02.02.04.04.05.04.01.08.03.1.06l.06.02c.14 0 .28-.03.42-.08l.06-.01c.1 0 .22-.07.36-.1l.2-.09c.18-.09.37-.16.57-.2l.45-.12a4.15 4.15 0 0 1 .48-.14c0-.02.01-.02.02-.02.14-.03.28-.07.41-.12l.2-.05c.2-.03.42-.1.64-.12.4-.04.76-.1 1.14-.09Z" fill="#E42021"/><path d="M11.06 8.72c.1-.03.2.01.34.11.04.03.08.03.12-.01 0 .02.03.04.08.05l3.95.8c0 .1-.1.14-.29.12a26.56 26.56 0 0 0-.25.12c-.1.07-.25.1-.37.19a.08.08 0 0 1-.05.02.66.66 0 0 0-.33.08H14.17c-.39.03-.8-.01-1.15-.03-.3-.02-.65-.09-.9-.12a6.2 6.2 0 0 1-.92-.18c-.23-.07-.47-.12-.7-.2a13.19 13.19 0 0 0-1.1-.32 1.36 1.36 0 0 0-.3-.07 1.48 1.48 0 0 1-.47-.15l-.02-.02a.06.06 0 0 1 0-.06l.02-.02c.34-.18.73-.17 1.1-.26.29-.07.74-.1 1.11-.02a.3.3 0 0 0 .22-.03Z" fill="#F7282B"/><path d="M15.64 9.7c.22.03.34.14.36.34.05.57-.58.78-.97.74-.2-.02-.46-.06-.79-.14-.18-.04-.29.04-.43.13-.9.56-1.73.95-2.52 1.17-.23.07-.66.08-.96.02-.91-.19-1.8-.55-2.68-.88-.08-.03-.12-.06-.13-.1.16 0 .3.05.43.14l.06.02.06.01a7.41 7.41 0 0 0 1.23.42v.02l.03.02c.05-.01.09 0 .12.04a6.93 6.93 0 0 0 .92.24l.02.02c.32.02.63 0 .94-.06.1-.02.22-.08.33-.12l.23-.09c.1-.05.23-.07.32-.11a9.33 9.33 0 0 0 1.64-.9c.07-.04.16-.1.27-.14l.27-.15c.13-.09.28-.14.4-.21.2-.15.43-.26.67-.33a.1.1 0 0 1 .06 0h.12c.03-.02.03-.05 0-.1Z" fill="#8D5A36"/><path d="M5.18 10.01h.05c.02.01.03.03.03.05 0 .04.01.08.05.1a.1.1 0 0 0 .04.03c.23.04.48.17.63.22l.83.3c.2.07.4.12.6.16.03 0 .05.01.06.03l.05.09c0 .03.05.06.13.1-.14-.05-.26-.09-.4-.06-1.02.17-2.04.3-3.06.43a5.2 5.2 0 0 1-.95.03c-.14-.01-.22-.09-.24-.23.13-.02.21-.15.3-.22.58-.4 1.2-.75 1.88-1.03Z" fill="#8C100F"/></svg>