<!-- by TradingView --><svg width="18" height="18" viewBox="0 0 18 18" xmlns="http://www.w3.org/2000/svg"><path fill="#151829" d="M0 0h18v18H0z"/><path d="M8.72 14.92a.53.53 0 0 0 .56 0l4.44-2.7a.57.57 0 0 0 .2-.22.6.6 0 0 0 .08-.3V6.3a.6.6 0 0 0-.07-.3.57.57 0 0 0-.2-.21L9.27 3.08a.53.53 0 0 0-.56 0l-4.44 2.7a.57.57 0 0 0-.2.22.6.6 0 0 0-.08.3v5.4c0 .11.03.21.07.3.05.09.12.16.2.21l4.45 2.71Zm.03-10.58a.5.5 0 0 1 .51 0l3.5 2.09c.07.05.14.11.18.2.05.08.06.17.06.27v4.2c0 .09-.02.18-.07.26a.53.53 0 0 1-.18.2l-3.5 2.1a.5.5 0 0 1-.51 0l-3.48-2.08A.57.57 0 0 1 5 11.1V6.9c0-.1.04-.19.08-.27a.53.53 0 0 1 .19-.2l3.48-2.1Zm-.04 8.08c.08.05.18.08.27.08.1 0 .2-.03.28-.08l2.47-1.47a.58.58 0 0 0 .27-.49V7.54a.57.57 0 0 0-.27-.49L11 6.51v3.68l-1.41.8V9.34l-1.22.32v2.56l.34.2Zm-2.47-1.46.76.5V7.68l1.37-.77v1.44l1.22-.3V5.78l-.33-.2a.53.53 0 0 0-.55 0L6.24 7.06a.55.55 0 0 0-.2.2.48.48 0 0 0-.04.25V10.5c0 .09 0 .17.04.25.05.09.12.16.2.2Z" fill="url(#ayrrioacx)"/><defs><linearGradient id="ayrrioacx" x1="8.99" y1="3.06" x2="8.99" y2="14.93" gradientUnits="userSpaceOnUse"><stop stop-color="#F7F5F6"/><stop offset=".88" stop-color="#A69696"/></linearGradient></defs></svg>