<!-- by TradingView --><svg width="18" height="18" viewBox="0 0 18 18" xmlns="http://www.w3.org/2000/svg"><path fill="#191434" d="M0 0h18v18H0z"/><path fill-rule="evenodd" d="M3.05 13.06c-.09.17-.04.26 0 .28l.46-.06.3-.05c2.53-.44 4.25-.56 4.8-.56l.78.56c.05.03.26 0 .32-.1s-.01-.23-.06-.26c-.04-.02-.19-.2-.26-.29.57-.02 1.96-.05 3-.04a4.9 4.9 0 0 0 1.75-.22c.46.48 1.44 1.49 1.66 1.61.22.13.21.05.19 0a93.38 93.38 0 0 0-3.28-5.27c-1.1-1.53-3-3.95-3.27-4.26-.23-.27-.82-.86-1.04-1.07a18.2 18.2 0 0 1-.07-.08l-.05-.05c-.06-.07-.15-.18-.22-.2-.1-.02-.14.1-.11.19.02.07.14.19.2.24-.5.77-1.62 2.53-2.08 3.45l-.24.47a116.68 116.68 0 0 0-2.74 5.63l-.04.08Zm4.29-7.23-.72 1.61a22.2 22.2 0 0 1 3.96-.15l-2.3-3.56c-.11.23-.55 1.2-.94 2.1ZM4.66 11.4c.2-.35.9-1.69 1.23-2.3.11.28 1.22 2.01 1.76 2.85a8.53 8.53 0 0 0-2.82.62c-.7.32-1.36.48-1.34.36 0-.05.19-.27.4-.53.29-.34.63-.75.77-1ZM6.3 8.48l.22-.59c.4.02 1.37.06 1.95.05h.01l-.08.33c-.04.17-.43.65-.7.98l-.25.32c-.03.08.05.16.09.2l.01.01c.1.03.2-.02.24-.05l.3-.42.37.52c-.44.04-.81.14-.96.2a7.7 7.7 0 0 0-1.2-1.55Zm2.55 1.34c.45 0 .92.05 1.12.08l.36-.8c.17-.41.56-.95.74-1.17l-.16-.17-2 .14.24.45.14.27c0 .02.37.54.55.8.05.1.1.31-.09.32-.18.01-.35-.3-.42-.46l-.48.54Zm-.06 1.99c-.35-.37-.88-1.18-1.1-1.53a8.56 8.56 0 0 1 2.1-.05l-.9 1.58h-.1Zm1-.05c.44-.69 1.37-2.33 1.54-3.4l2.6 3.63c-.58-.16-2.23-.42-4.14-.23Zm-1.41-3 .32-.43.38.5-.7-.07Zm.12.4.15.42.31-.44-.46.03Z" fill="#3D39AD"/><path d="M5.02 12.03c-.09.56.11.88.23.97.22 0 .4-.49.6-1.23.16-.58.38-1.54.82-1.71.03.98-.24 2.94.48 2.94.37 0 .51-.51.65-.97.14-.46.32-1.17.1-1.17s-.13.09-.48.97c-.28.7-.26.3-.22 0v-1.24c0-.55-.06-1.3-.42-1.3-.28 0-.58.3-.7.46.1-.27.28-1.1.28-2.23.01-1.43-.35-1.53-.51-1.52-.16.01-.2.25-.14.58.06.33 0 .83-.06 1.67-.07.85-.51 3.08-.63 3.78ZM11.85 10.3c.17.18 0 .4 0 .4-.69 1.14-1.91 1.36-2.8 1.52-.6.1-1.05.18-1.05.52 0 .81 5-.41 5-1.63v-.82c0-.81-.62-.97-3.08-1.63 0-.95.23-2.85 1.16-2.85.13 0 .38.09.38.41 0 .4.39 0 .39-.4 0-.41 0-.82-1.16-.82-1.1 0-1.92 1.8-1.92 2.85 0 1.53.69 1.64 1.5 1.77.52.08 1.1.17 1.58.67Z" fill="#D6EFD3"/></svg>