<!-- by TradingView --><svg width="18" height="18" viewBox="0 0 18 18" xmlns="http://www.w3.org/2000/svg"><path fill="url(#aokoyesmg)" d="M0 0h18v18H0z"/><path fill-rule="evenodd" d="M3.05 13.06c-.09.17-.04.26 0 .28l.46-.06.3-.05c2.53-.44 4.25-.56 4.8-.56l.78.56c.05.03.26 0 .32-.1s-.01-.23-.06-.26c-.04-.02-.19-.2-.26-.29.57-.02 1.96-.05 3-.04a4.9 4.9 0 0 0 1.75-.22c.46.48 1.44 1.49 1.66 1.61.22.13.21.05.19 0a93.38 93.38 0 0 0-3.28-5.27c-1.1-1.53-3-3.95-3.27-4.26-.23-.27-.82-.86-1.04-1.07a18.2 18.2 0 0 1-.07-.08l-.05-.05c-.06-.07-.15-.18-.22-.2-.1-.02-.14.1-.11.19.02.07.14.19.2.24-.5.77-1.62 2.53-2.08 3.45l-.24.47a116.68 116.68 0 0 0-2.74 5.63l-.04.08Zm4.29-7.23-.72 1.61a22.2 22.2 0 0 1 3.96-.15l-2.3-3.56c-.11.23-.55 1.2-.94 2.1ZM4.66 11.4c.2-.35.9-1.69 1.23-2.3.11.28 1.22 2.01 1.76 2.85a8.53 8.53 0 0 0-2.82.62c-.7.32-1.36.48-1.34.36 0-.05.19-.27.4-.53.29-.34.63-.75.77-1ZM6.3 8.48l.22-.59c.4.02 1.37.06 1.95.05h.01l-.08.33c-.04.17-.43.65-.7.98l-.25.32c-.03.08.05.16.09.2l.01.01c.1.03.2-.02.24-.05l.3-.42.37.52c-.44.04-.81.14-.96.2a7.7 7.7 0 0 0-1.2-1.55Zm2.55 1.34c.45 0 .92.05 1.12.08l.36-.8c.17-.41.56-.95.74-1.17l-.16-.17-2 .14.24.45.14.27c0 .02.37.54.55.8.05.1.1.31-.09.32-.18.01-.35-.3-.42-.46l-.48.54Zm-.06 1.99c-.35-.37-.88-1.18-1.1-1.53a8.56 8.56 0 0 1 2.1-.05l-.9 1.58h-.1Zm1-.05c.44-.69 1.37-2.33 1.54-3.4l2.6 3.63c-.58-.16-2.23-.42-4.14-.23Zm-1.41-3 .32-.43.38.5-.7-.07Zm.12.4.15.42.31-.44-.46.03Z" fill="#7F3C65"/><path d="M10.35 5.89h2.33c-.2.4-.63 1.22-.7 1.32-.08.12-.1.39.12.41.22.02.91-.7 1.13-1.02l.02-.04c.22-.32.6-.87-.09-1.27-.71-.42-3.49-.35-3.87 0 0 .24.23.6 1.06.6Zm-1.5.08v4.15c-.04.83.09 2.52.87 2.67.94.17.64-2.24.56-2.84l.64.01c.75 0 1.88-.41 2.5-.63l.33-.12c.4-.13.24-.49.07-.65-.17-.17-.79-.23-1.16-.1-.25.09-1.53.4-2.45.63l-.01-.25c-.05-.75-.1-1.64-.17-1.94-.11-.49-.53-1.23-1.19-.93Zm-4.53 6.95c-.15.14-.41.2-.29-.75.06-.47.27-1.45.49-2.49.32-1.55.68-3.24.61-3.54-.04-.24-.16-.38-.24-.48-.1-.1-.14-.17.02-.24.3-.15 1.19.17 1.05 1.17-.12.81-.38 2.41-.5 3.1.32-.3 1.02-.9 1.36-.87.43.03.58.46.52 1.26l-.07.6c-.1.7-.19 1.42.17 1.45.32.02.64-.67.85-1.12.1-.21.17-.37.2-.39.1-.03.04.23 0 .47l-.05.28c-.02.2-.19 1.63-1.06 1.56-.87-.06-.8-.95-.75-1.61 0-.12.02-.26.04-.4.07-.62.15-1.33-.25-1.15-.48.21-1.27 1.61-1.4 2.04-.14.42-.53 1.03-.7 1.11Z" fill="#fff"/><defs><linearGradient id="aokoyesmg" x1="0" y1="9" x2="18" y2="9" gradientUnits="userSpaceOnUse"><stop stop-color="#425856"/><stop offset="1" stop-color="#483140"/></linearGradient></defs></svg>