<!-- by TradingView --><svg width="18" height="18" viewBox="0 0 18 18" xmlns="http://www.w3.org/2000/svg"><path fill="#34874F" d="M0 0h18v18H0z"/><path d="M13 11.19h.2V14H13v-2.81ZM13.4 6.81h.2v4.69h-.2V6.81ZM13.8 4h.2v3.13h-.2V4Z" fill="#7BD16E"/><path d="M4.94 13.06c0-.4.14-1.3.21-1.7 1.1.03 3.55.11 4.58.11-.3.46-.69.82-.84.94.15.21.45.69.45.84 0 .15-.08.46-.12.6-.23.04-.82.12-1.29.12-.58 0-1.47-.12-2.05-.12-.59 0-.94-.3-.94-.8Z" fill="#1D60AF"/><path d="M5.12 11.32h.03c1.1.04 3.55.12 4.58.12h.06l-.03.05c-.3.44-.66.79-.83.92a6.68 6.68 0 0 1 .4.66.5.5 0 0 1 .04.18 5.25 5.25 0 0 1-.12.62v.01h-.02a9.75 9.75 0 0 1-2.33.06c-.37-.02-.73-.05-1.02-.05-.3 0-.55-.08-.71-.23a.77.77 0 0 1-.27-.6c0-.4.15-1.3.22-1.71v-.03Zm.06.07c-.07.42-.2 1.29-.2 1.67 0 .23.08.42.23.55a1 1 0 0 0 .67.21c.3 0 .66.03 1.03.06.36.02.73.05 1.02.05.45 0 1.02-.07 1.27-.1a5.24 5.24 0 0 0 .1-.58.45.45 0 0 0-.04-.15 6.63 6.63 0 0 0-.4-.67l-.02-.03.02-.02c.15-.11.5-.44.8-.87-1.05 0-3.39-.08-4.48-.12Z"/><path d="M5.15 11.05v.27c.23.13 1.07.4 2.6.4 1.92 0 2-.4 2.14-.47.36-.06 1.12-.5 1.45-.72.22-.25.74-.89 1-1.38 0-.55-.5-1.01-.76-1.17.38-.15 1.15-.64 1.15-1.42 0-.97-1.09-1.18-1.24-1.25-.1-.8-.8-1.18-1.32-1.18-.42 0-1.08.31-1.35.47-.15-.19-.67-.57-1.54-.57-1.19 0-2.02 1.3-2.29 1.96-.32.47-.95 1.7-.95 2.83 0 1.13.74 1.96 1.11 2.23Z" fill="#3AAA5E"/><path d="M5.82 4.79c-.39.4-.66.89-.8 1.21-.16.24-.4.66-.6 1.17-.2.5-.35 1.09-.35 1.65 0 1.11.74 1.93 1.1 2.2l.02.02v.26c.12.06.37.16.78.24.43.08 1.02.15 1.78.15.96 0 1.45-.1 1.72-.21a.94.94 0 0 0 .34-.22.28.28 0 0 1 .06-.04h.01c.18-.03.45-.15.73-.3.27-.14.54-.3.7-.42.23-.25.73-.87 1-1.36 0-.26-.13-.5-.28-.7a2 2 0 0 0-.47-.44l-.06-.03.07-.03c.18-.07.47-.23.7-.46.24-.23.42-.54.42-.92 0-.47-.26-.75-.54-.93a2.17 2.17 0 0 0-.42-.2l-.15-.05a1.1 1.1 0 0 1-.1-.04h-.02v-.02a1.32 1.32 0 0 0-1.29-1.16c-.2 0-.46.08-.72.18-.25.1-.48.21-.62.29l-.02.01-.02-.02a2.06 2.06 0 0 0-2.97.17Zm-.06-.05c.4-.4.91-.74 1.52-.74.85 0 1.37.35 1.54.56.15-.08.37-.2.6-.29.26-.1.53-.18.75-.18.53 0 1.23.4 1.35 1.2l.08.02.16.06c.12.04.28.1.43.2.3.19.57.5.57 1 0 .4-.2.72-.44.96-.22.22-.48.37-.67.45.13.1.3.24.43.42.16.2.3.47.3.75v.02c-.27.5-.79 1.13-1.01 1.38h-.01c-.17.12-.44.28-.72.43a2.9 2.9 0 0 1-.74.3.25.25 0 0 0-.05.04l-.06.06c-.06.05-.15.1-.29.16a5 5 0 0 1-1.75.21 9.5 9.5 0 0 1-1.8-.15c-.42-.08-.7-.18-.82-.25l-.01-.01v-.27A3 3 0 0 1 4 8.82c0-.58.16-1.17.36-1.68.2-.5.44-.93.6-1.17.14-.33.41-.82.8-1.23Z"/><path d="M9.83 13.63H9.3a1.47 1.47 0 0 0-.42-1.2l.85-.96c.08-.14.29-.43.42-.43.17 0 .18 0 .22.04 0-.11.17-.2.25-.24.1-.07.28-.2.31-.2.05 0 .17.04.17.17 0 .26-.22.47-.25.53.17 0 .26.14.28.2a.57.57 0 0 1 .24-.06c.11 0 .3.03.3.16 0 .14-.06.17-.06.23.07 0 .35 0 .35.2a.3.3 0 0 1-.14.26c.09.02.26.09.26.23s-.2.28-.29.33c.04-.02.1 0 .1.14 0 .15-.13.25-.2.28l-.02.32a.37.37 0 0 1-.2.06.52.52 0 0 1-.27-.11.4.4 0 0 1-.25.09.3.3 0 0 1-.22-.09c-.02.03-.1.09-.24.09-.14 0-.21-.06-.23-.09-.01.03-.06.09-.17.09-.1 0-.21-.03-.26-.04Z" fill="#3AAA5E"/><path d="M10.9 10.6h.03c.03 0 .08.01.12.04a.2.2 0 0 1 .09.17c0 .14-.06.26-.12.36a1.7 1.7 0 0 1-.09.11l-.02.03a.3.3 0 0 1 .16.08l.08.11a.57.57 0 0 1 .22-.05.6.6 0 0 1 .2.03c.07.03.13.08.13.16a.4.4 0 0 1-.03.16v.02l-.01.02c.04 0 .1 0 .16.03.05 0 .09.03.12.06s.05.08.05.13c0 .12-.05.2-.1.25.04.02.08.03.11.06.06.04.12.1.12.19s-.06.16-.12.22a.81.81 0 0 1-.12.1c.03.02.05.08.05.15 0 .08-.04.15-.08.2a.5.5 0 0 1-.12.1l-.03.32h-.01a.4.4 0 0 1-.23.08.4.4 0 0 1-.16-.05.72.72 0 0 1-.1-.06.45.45 0 0 1-.25.08.36.36 0 0 1-.22-.07.38.38 0 0 1-.24.07.36.36 0 0 1-.23-.07.23.23 0 0 1-.17.07c-.1 0-.21-.02-.26-.03h-.57v-.04a1.43 1.43 0 0 0-.4-1.18l-.03-.02.87-.98a2.02 2.02 0 0 1 .32-.4.23.23 0 0 1 .13-.05.82.82 0 0 1 .2.02.31.31 0 0 1 .09-.12.73.73 0 0 1 .16-.1 4.32 4.32 0 0 1 .3-.2Zm-.08.14c-.06.04-.13.1-.18.12v.01a.66.66 0 0 0-.16.09c-.05.04-.08.08-.08.12v.08l-.06-.06-.02-.01-.02-.01-.15-.01c-.02 0-.05.01-.09.04a1.95 1.95 0 0 0-.3.38l-.83.93c.18.19.48.64.41 1.18h.5c.04 0 .15.03.25.03s.13-.05.14-.06l.02-.07.04.06c.01.02.07.07.2.07s.2-.05.21-.07l.03-.04.03.04c.01.02.08.07.19.07s.2-.05.22-.08l.03-.02.02.02.1.07c.05.02.1.04.14.04.08 0 .14-.03.17-.05l.03-.32h.02a.42.42 0 0 0 .11-.1c.04-.04.07-.1.07-.16 0-.07-.01-.1-.03-.1a.03.03 0 0 0-.03-.01l-.03-.06a.78.78 0 0 0 .18-.13c.06-.05.1-.11.1-.17 0-.06-.04-.1-.09-.13a.44.44 0 0 0-.15-.07l-.1-.02.09-.04c.04-.02.12-.1.12-.24a.11.11 0 0 0-.03-.08.21.21 0 0 0-.09-.05.67.67 0 0 0-.19-.02h-.03v-.04l.02-.08v-.01a.33.33 0 0 0 .03-.14c0-.05-.03-.08-.08-.1a.53.53 0 0 0-.18-.02.54.54 0 0 0-.23.06l-.03.02-.02-.04a.3.3 0 0 0-.07-.12.23.23 0 0 0-.17-.07h-.05l.02-.05.02-.03.03-.04.09-.12a.6.6 0 0 0 .1-.32c0-.05-.02-.09-.05-.11a.15.15 0 0 0-.08-.03l-.03.01-.08.06Z"/><path d="M7.95 13.55c.03 0 .07-.1.09-.14.05.14-.07.28-.14.28-.06 0-.16-.05-.16-.23s.15-.4.21-.4.12.04.1.08c-.17.27-.13.4-.1.4Z" fill="#FCFFFF"/><path fill-rule="evenodd" d="M8.8 13.4c-.02.05-.07.15-.1.15s-.07-.14.12-.41c.02-.04-.05-.08-.11-.08-.05 0-.14.1-.2.22h-.1c-.1 0-.23.13-.23.24 0 .12.06.15.14.15.05 0 .12-.06.17-.1.03.09.1.12.17.12s.2-.14.14-.28Zm-.32 0v-.04c-.05.02-.13.08-.13.13 0 .06.03.06.06.05.02 0 .05-.03.06-.07a.44.44 0 0 1 0-.07Z" fill="#FCFFFF"/><path d="M9.79 6.85c-.94 0-2.37-.07-2.89-.1.23-.23.97-.68 1.56-.68.59 0 1.35.3 1.66.46.28-.14.94-.42 1.37-.42.54 0 .89.24 1.16.37.22.1.29.25.3.31-.67.02-2.22.06-3.16.06Z" fill="#fff"/><path d="M7.52 6.28c.3-.14.64-.26.94-.26.3 0 .65.08.95.18.3.09.55.2.7.27.15-.07.38-.17.62-.25.25-.1.53-.16.76-.16.46 0 .78.17 1.03.3l.15.07c.24.11.32.28.32.36l.01.05h-.06A51.39 51.39 0 0 1 6.9 6.8h-.11l.08-.08c.11-.12.36-.3.65-.43Zm-.49.42a51.3 51.3 0 0 0 5.84.04.48.48 0 0 0-.24-.22l-.16-.08c-.25-.13-.55-.28-.98-.28-.2 0-.47.07-.73.15-.25.09-.48.2-.62.26l-.02.02-.03-.02a5.31 5.31 0 0 0-.71-.28c-.3-.1-.63-.16-.92-.16-.28 0-.6.1-.9.24-.21.1-.4.23-.53.33ZM11.33 13.19c-.02.14-.02.3 0 .41v.05l-.16-.04v-.03a1.46 1.46 0 0 0-.09-.32.49.49 0 0 0-.08-.14c-.02-.03-.05-.05-.08-.05-.02 0-.04.02-.07.05a.4.4 0 0 0-.05.13c-.03.11-.04.24-.04.33h-.07c0-.08-.01-.2-.05-.3a.35.35 0 0 0-.06-.12.12.12 0 0 0-.1-.04.11.11 0 0 0-.08.04.34.34 0 0 0-.06.12 1 1 0 0 0-.05.3h-.07v-.04c0-.07 0-.16-.03-.24a.3.3 0 0 0-.05-.12.1.1 0 0 0-.08-.04c-.03 0-.06.02-.08.05a.37.37 0 0 0-.06.12c-.03.1-.04.24-.04.32H9.8c0-.09 0-.22.04-.33a.44.44 0 0 1 .07-.16.17.17 0 0 1 .14-.07c.05 0 .1.03.13.07a.37.37 0 0 1 .07.15l.01-.03c.02-.05.04-.1.08-.14a.19.19 0 0 1 .14-.07c.06 0 .1.03.14.06.04.04.06.1.08.15v.02l.02-.05a.47.47 0 0 1 .06-.15c.03-.04.08-.07.13-.07.06 0 .1.03.14.07l.09.15c.04.1.07.23.08.32h.02l.01-.37a.58.58 0 0 1 .06-.2c.03-.05.08-.09.14-.09.07 0 .11.05.14.1.04.05.06.12.07.2.03.15.04.32.03.44h-.07c0-.12 0-.29-.03-.43a.57.57 0 0 0-.06-.18c-.02-.04-.05-.06-.08-.06-.02 0-.05.02-.07.06a.52.52 0 0 0-.06.17ZM11.6 12.6c-.02.03-.05.05-.1.05-.09 0-.13-.06-.14-.1l.07-.01s.02.05.08.05l.05-.03a.76.76 0 0 0 .07-.1l.02-.01.06-.08a.24.24 0 0 1 .09-.07l.02.06a.18.18 0 0 0-.05.05l-.06.07-.02.03a.82.82 0 0 1-.08.1ZM10.63 11.38c.1-.07.17-.1.23-.09l-.01.07c-.03 0-.1.01-.18.07-.06.04-.12.1-.19.18a2.75 2.75 0 0 0 .25.43l.05.04h.03c.02 0 .05 0 .08-.04a.7.7 0 0 0 .08-.15c.06-.12.1-.26.11-.33l.07.01c-.02.08-.06.22-.11.34a.76.76 0 0 1-.1.17c-.03.04-.08.08-.13.08a.13.13 0 0 1-.07-.02.32.32 0 0 1-.06-.06l-.11-.15-.14-.26-.08.11-.06-.04.11-.14-.01-.04.06-.02c.06-.07.12-.12.18-.16ZM11.63 11.9c-.15.07-.2.18-.21.21l-.07-.01c.01-.06.08-.18.25-.26l.03.06Z"/><path d="M10.05 6.53v.04l-.04.13a.48.48 0 0 1-.08.13l-.02.06v.1l.02.07a5.9 5.9 0 0 1 .01.14c0 .05-.02.09-.05.12a.94.94 0 0 1-.27.2.12.12 0 0 1-.04 0c-.04 0-.15.01-.25.05-.05.02-.14.03-.23.04l-.24.02v-.07a3.97 3.97 0 0 0 .44-.05.82.82 0 0 1 .28-.06h.01l.04-.02a.87.87 0 0 0 .2-.15c.03-.03.04-.06.04-.08a.8.8 0 0 0-.01-.13L9.85 7v-.1c0-.04 0-.08.03-.1a.41.41 0 0 0 .07-.12l.04-.12-.01-.03a1.73 1.73 0 0 0-.16-.22l.05-.04a1.8 1.8 0 0 1 .17.23l.01.04ZM9 4.97a1.61 1.61 0 0 0-.2-.36l.05-.04c.07.09.15.23.21.38.05.13.08.28.06.4a5.6 5.6 0 0 1 2.41-.03l-.01.07a5.53 5.53 0 0 0-2.37.03c.18.12.36.27.52.43l-.06.05a3.46 3.46 0 0 0-.57-.47c-.46-.3-.96-.48-1.35-.48-.22 0-.47.07-.7.15-.21.08-.4.18-.52.24l-.04-.06c.12-.07.32-.16.54-.25.23-.08.49-.15.72-.15.4 0 .9.17 1.35.47.03-.11 0-.25-.05-.38ZM9.24 7.77l-1.2.5L8 8.21l1.2-.5.03.06Zm.85.15.03-.06.3.14c.2.03.72.05 1.16-.06l.02.07c-.35.08-.74.09-1 .07l.13.06-.03.06-.6-.28ZM7.36 11.39a15.7 15.7 0 0 1-2.2-.31V11c.5.1 1.32.25 2.2.31.89.06 1.83.05 2.55-.16l.02.07c-.73.2-1.69.22-2.57.16ZM8.71 12.2l.22.18-.05.05-.19-.16c-.2.05-.6.17-.85.29-.13.06-.36.1-.58.13a6.47 6.47 0 0 1-.58.05l-.19.38c-.09.22-.17.49-.17.74h-.07c0-.26.09-.54.18-.76a3.82 3.82 0 0 1 .2-.42.21.21 0 0 0 .03-.12.06.06 0 0 0-.03-.04c-.01-.01-.04-.02-.09-.02a.35.35 0 0 0-.15.05l-.2.14a4.4 4.4 0 0 0-.38.33l-.05-.05a4.46 4.46 0 0 1 .6-.48.4.4 0 0 1 .18-.06c.06 0 .1.01.14.03.03.03.05.06.05.09l-.01.11c.14 0 .34-.01.53-.04.22-.02.44-.07.56-.12.26-.13.7-.25.88-.3h.02Z"/><path d="M10.54 9.67c.73 0 1.57-.28 1.9-.42.07 0 .2.04.2.21 0 .24-.34.4-.5.44.04.03.13.13.13.26 0 .37-.72.37-1.37.37-4.53-.06-4.61-1.18-4.61-1.32 0-.13.1-.49.48-.49.37 0 .64.35.96.5.33.14 1.91.45 2.81.45Z" fill="#FC3B3D"/><path d="M6.36 8.9a.48.48 0 0 1 .4-.21c.2 0 .37.09.53.2l.13.09.1.07c.08.05.15.1.23.13.08.04.23.09.44.14a12.47 12.47 0 0 0 2.35.32c.72 0 1.56-.28 1.89-.42h.01c.04 0 .1.01.15.05.05.03.09.1.09.2 0 .12-.1.23-.2.3-.1.07-.2.12-.28.15.05.05.1.13.1.24 0 .1-.05.18-.14.24-.08.06-.2.1-.33.12-.26.04-.6.04-.93.04-2.27-.03-3.43-.32-4.02-.63-.3-.16-.46-.32-.54-.45a.5.5 0 0 1-.09-.27c0-.07.03-.2.1-.31Zm.06.04c-.07.1-.1.21-.1.27 0 .03 0 .12.08.24.07.12.22.27.51.42.58.3 1.73.6 3.99.63.32 0 .66 0 .92-.05a.81.81 0 0 0 .3-.1c.07-.05.11-.11.11-.2a.3.3 0 0 0-.12-.22l-.05-.04.06-.02c.09-.02.2-.07.31-.14.1-.08.18-.17.18-.27 0-.08-.03-.12-.06-.14a.17.17 0 0 0-.1-.03c-.34.14-1.18.42-1.9.42a10.38 10.38 0 0 1-2.83-.47 1.6 1.6 0 0 1-.35-.21l-.12-.1a.86.86 0 0 0-.48-.18.4.4 0 0 0-.35.19Z"/><path d="M8.4 9.87c-.88-.16-1.4-.4-1.61-.6l.05-.04c.2.17.7.42 1.57.58.87.16 2.1.23 3.76.06l.01.07c-1.66.17-2.9.1-3.79-.07ZM6.85 6.04h2.62v.17H6.85v-.17ZM6.76 6.83h2.62V7H6.76v-.17ZM6.85 7.12h2.36v.17H6.85v-.17ZM7.08 7.41h1.8v.17h-1.8v-.17ZM12.64 6.04h-2.62v.17h2.62v-.17ZM12.73 6.83h-2.62V7h2.62v-.17ZM12.64 7.12H10.3v.17h2.35v-.17ZM12.41 7.41h-1.84v.17h1.84v-.17Z"/><path d="M6.75 6.02c-.17-.05-1.23-.07-1.74-.08l-.13.22h.8c.43 0 .74.07.83.12.02.13.06.18.1.2.01.03.03.04.03.07v.02c.02.23.11 1.27 1.3 1.27 1.22 0 1.44-.82 1.5-1.05.07-.23.18-.34.3-.34.13 0 .26.06.29.2.08.4.3 1.19 1.44 1.19 1.16 0 1.4-.85 1.37-1.28.03-.03.1-.13.1-.25s-.1-.16-.18-.2l-.07-.04c-.06-.18-.37-.4-.94-.4-.3 0-.73.02-1.14.05-.37.03-.72.05-.95.05-.2 0-.42-.02-.65-.04-.32-.03-.7-.07-1.18-.07-.77 0-.93.19-1.04.32l-.04.04Zm1.37-.1c.96 0 1.22.21 1.24.33.03.77-.48 1.48-1.34 1.48-.86 0-1.16-.63-1.16-1.12 0-.48.05-.7 1.26-.7Zm2 .33c.02-.12.28-.34 1.25-.34 1.2 0 1.26.22 1.26.7 0 .5-.3 1.12-1.16 1.12-.86 0-1.38-.71-1.34-1.48Z"/><path d="M8.31 6.14c-.46 0-.63.44-.65.65l1.26.03c0-.23-.15-.68-.6-.68ZM11.35 6.14c-.46 0-.63.44-.66.65l1.27.03c-.01-.23-.15-.68-.61-.68Z"/><path d="M11.67 6.57c0 .08-.07.14-.14.14a.14.14 0 0 1-.15-.14c0-.08.07-.14.15-.14.07 0 .14.06.14.14Z" fill="#fff"/><path d="M6.7 6.59h2.63v.17H6.71v-.17ZM12.78 6.59h-2.62v.17h2.62v-.17Z"/><path d="M7.02 13.3a.53.53 0 0 0 .04-.24c.05.02.15.08.15.18 0 .06-.02.1-.05.13a.24.24 0 0 0-.06.14c0 .14-.04.18-.1.18-.07 0-.08-.08-.08-.18v-.01H6.8c0 .08 0 .19-.1.19-.11 0-.11-.17-.07-.21.03-.02.01-.03-.01-.04-.02-.01-.05-.03-.05-.06s.03-.08.12-.1c.09 0 .1-.1.1-.17l.01-.04c.02 0 .11.05.11.13 0 .05-.02.1-.05.14l-.02.04h.13l.01-.02.04-.06ZM7.5 13.62a.16.16 0 0 1-.13.07.16.16 0 0 1-.16-.16c0-.08.08-.15.16-.15a.16.16 0 0 1 .16.16c.03 0 .06-.02.07-.06 0 .04 0 .13-.1.14Zm-.08-.09c0 .03-.02.04-.05.04a.04.04 0 0 1-.04-.04c0-.02.02-.04.04-.04.03 0 .05.02.05.04Z" fill="#FCFFFF"/></svg>