<!-- by TradingView --><svg width="18" height="18" viewBox="0 0 18 18" xmlns="http://www.w3.org/2000/svg"><path fill="#4D75E4" d="M0 0h18v18H0z"/><path d="M10.76 5.16a.01.01 0 0 0 .01 0v-.01l-.68-1.13V4L10.1 4a1 1 0 0 1 .64.25c.07.07.18.21.3.43a100.72 100.72 0 0 0 .31.48h.56c.26 0 .45.01.55.04a1 1 0 0 1 .54.4l-.03.02a178.6 178.6 0 0 1-1.35.02l.61 1a.03.03 0 0 1 0 .04l-.43.7v.05a4.21 4.21 0 0 1-.06 5.56h-.03l-1.3-2.18a67.8 67.8 0 0 1-1.85-1.1l.01.01c-.6-.36-1.2-.72-1.81-1.05A5268.34 5268.34 0 0 0 4 8.63c.76-2.03 2.86-3.07 5.05-2.75h.03l.02-.02.41-.68a.04.04 0 0 1 .04-.02h1.21Zm.25 3.41L8.36 7.11l-.03.01-.58.96v.03l2.66 1.47.03-.01.58-.96v-.04Zm-3.63 3.27h2.4v-.01a.01.01 0 0 0 0-.01L6.18 9.8h-.01v.01l1.2 2.01Z" fill="#fff"/></svg>