<!-- by TradingView --><svg xmlns="http://www.w3.org/2000/svg" width="18" height="18"><path fill="url(#a2g4bgzab)" d="M0 0h18v18H0z"/><path d="M7.08 4.54A4.63 4.63 0 019.15 4c-1.84 1.03.33 2.61 1.9 3.77h.02c.67.5 1.86 1.23 1.93 3.1.07 1.89-1.63 2.87-2.5 3.13 3.82-2.21-.7-5.06-2.45-6.22-1.55-1.05-1.68-2.76-.97-3.24z" fill="#fff"/><path d="M6.27 7.5c-.94-1.25-.15-2.44.36-2.87C3.6 6.5 5.55 9.36 6.46 9.9c.9.54 2.35 1.6 2.61 2.5.21.74-.35 1.29-.66 1.47l1.04.13c1.07-.4 1.45-1.23 1.5-1.6.51-1.84-3.52-3.34-4.68-4.9z" fill="#fff"/><defs><linearGradient id="a2g4bgzab" x1="9" y1="0" x2="9" y2="18" gradientUnits="userSpaceOnUse"><stop stop-color="#20817F"/><stop offset="1" stop-color="#05AC98"/></linearGradient></defs></svg>