<!-- by TradingView --><svg width="18" height="18" viewBox="0 0 18 18" xmlns="http://www.w3.org/2000/svg"><path fill="#181B1E" d="M0 0h18v18H0z"/><path d="m4 4 3 .62v8.76L4 14V4Z" fill="#fff"/><path d="m4.38 4.33 2.25.5V9H4.38V4.33Z" fill="url(#a)"/><path d="m4.38 13.67 2.25-.5V9H4.38v4.67Z" fill="url(#b)"/><path d="m14 4-3 .62v8.76l3 .62V4Z" fill="#fff"/><path d="m13.63 4.33-2.26.5V9h2.26V4.33Z" fill="url(#c)"/><path d="m13.63 13.67-2.26-.5V9h2.26v4.67Z" fill="url(#d)"/><path d="M10 8H8v2h2V8Z" fill="#fff"/><path fill="url(#e)" d="M8.25 8.25h1.5V9h-1.5z"/><path fill="url(#f)" d="M8.25 9h1.5v.75h-1.5z"/><defs><linearGradient id="a" x1="5.5" y1="4.33" x2="5.5" y2="9" gradientUnits="userSpaceOnUse"><stop stop-color="#C4C4C4"/><stop offset="1" stop-color="#FAFAFA"/></linearGradient><linearGradient id="b" x1="5.5" y1="9" x2="5.5" y2="13.67" gradientUnits="userSpaceOnUse"><stop stop-color="#918F90"/><stop offset="1" stop-color="#fff"/></linearGradient><linearGradient id="c" x1="12.5" y1="4.33" x2="12.5" y2="9" gradientUnits="userSpaceOnUse"><stop stop-color="#C4C4C4"/><stop offset="1" stop-color="#FAFAFA"/></linearGradient><linearGradient id="d" x1="12.5" y1="9" x2="12.5" y2="13.67" gradientUnits="userSpaceOnUse"><stop stop-color="#918F90"/><stop offset="1" stop-color="#fff"/></linearGradient><linearGradient id="e" x1="9" y1="8.25" x2="9" y2="9" gradientUnits="userSpaceOnUse"><stop stop-color="#C4C4C4"/><stop offset="1" stop-color="#FAFAFA"/></linearGradient><linearGradient id="f" x1="9" y1="9.75" x2="9" y2="9" gradientUnits="userSpaceOnUse"><stop stop-color="#fff"/><stop offset="1" stop-color="#918F90"/></linearGradient></defs></svg>