<!-- by TradingView --><svg xmlns="http://www.w3.org/2000/svg" width="18" height="18"><path fill="#FF8532" d="M0 0h18v18H0z"/><path d="M9.3 3c.44 0 .82.27 1 .67H8.31c.19-.4.56-.67 1-.67zm.01 12c-.43 0-.8-.27-1-.67h2c-.2.4-.57.67-1 .67zm1.33-6a1.33 1.33 0 11-2.66 0 1.33 1.33 0 012.66 0zm-2.99 1.33h-2a.67.67 0 000 1.34h4.31a.33.33 0 110 .66h-3.3a.67.67 0 000 1.34h5.3a.67.67 0 000-1.34h-.25a.33.33 0 010-.66h1.25a.67.67 0 000-1.34h-2c-.32.46-1.06.75-1.68.75-.62 0-1.3-.3-1.63-.75zm-.38-.66h-2.6a.67.67 0 010-1.34h2.6a1.69 1.69 0 000 1.34zm4.03 0a1.69 1.69 0 000-1.34h2.66a.67.67 0 010 1.34h-2.67zM6.99 4.33c-.37 0-.67.3-.67.67 0 .37.24.67.6.67H7c.09 0 .33 0 .33.33 0 .34-.21.34-.32.33H5.66a.67.67 0 000 1.34h1.99c.33-.5 1.02-.83 1.66-.83.64 0 1.33.33 1.66.83h1.99a.67.67 0 000-1.34H8.63c-.1 0-.32 0-.32-.33s.24-.33.34-.33h2.98a.67.67 0 000-1.34H7z" fill="#fff"/></svg>