<!-- by TradingView --><svg xmlns="http://www.w3.org/2000/svg" width="18" height="18"><path fill="url(#af14ngohg)" d="M0 0h18v18H0z"/><path d="M5.14 7.87l.36 2.47 2.73.19L9.88 7.4l-.72-2.53-1.13-1.34h-.3l-.6.5-.61 2.1-1.38 1.74z" fill="#66E2FF"/><path d="M12.42 13.42l-.88.57-2.1-6.39-.1-2.04L8.01 3.5l2.12 1.6.61 1.17 1.22.48 1.54 3.55-1.08 3.12z" fill="#21B3D3"/><path d="M7.28 10.26l-1.88-.13-.4 1.2L6.16 14h5.38l.77-3.53L10.66 8 9.4 7.55v.26l-2.13 2.45z" fill="#3FDCFF"/><defs><linearGradient id="af14ngohg" x1="3.35" y1="3.12" x2="21.9" y2="24.43" gradientUnits="userSpaceOnUse"><stop stop-color="#1A1E21"/><stop offset="1" stop-color="#06060A"/></linearGradient></defs></svg>