<!-- by TradingView --><svg xmlns="http://www.w3.org/2000/svg" width="18" height="18"><path fill="url(#a3ifnevzp)" d="M0 0h18v18H0z"/><path d="M4 6h1v6H4V6zm5 0c-.28 0-.5.24-.5.53v2.44c0 .3.22.53.5.53s.5-.24.5-.53V6.53c0-.3-.22-.53-.5-.53zM6 9a3 3 0 012-2.83v1.1a2 2 0 102 0v-1.1A3 3 0 116 9zm8-3h-1v6h1V6z" fill="#1FFDFC"/><defs><linearGradient id="a3ifnevzp" x1="3.35" y1="3.12" x2="21.9" y2="24.43" gradientUnits="userSpaceOnUse"><stop stop-color="#1A1E21"/><stop offset="1" stop-color="#06060A"/></linearGradient></defs></svg>