<!-- by TradingView --><svg width="18" height="18" viewBox="0 0 18 18" xmlns="http://www.w3.org/2000/svg"><path fill="#F0F3FA" d="M0 0h18v18H0z"/><path d="M7.98 4c.08.12.1.27.09.42.1.04.21.1.3.18.31.2.52.48.64.85-.03.41-.1.82-.24 1.22l.32.39c.1.1.13.1.11-.05-.03-.24-.03-.5 0-.78.03-.22.1-.32.26-.43.39-.26.72-.47 1-.61l.39-.15c.03-.02.03 0 .01.02L9.8 6.46c.14.09.28.1.4.02.3-.15.57-.33.83-.55l1.11-1.03c.12-.07.2-.17.25-.3-.3-.34-.67-.53-1.1-.57l-.8-.03H8Z" fill="url(#a)"/><path d="M13 6.83v-.89c0-.53-.26-.97-.61-1.34a.53.53 0 0 1-.25.3l-1.11 1.03c-.26.22-.53.4-.82.55-.13.07-.27.07-.41-.01l-.18.8c-.03.11 0 .14.1.07A14.49 14.49 0 0 1 11.4 6.3a.1.1 0 0 1 .07.03l.5.55.22.36c.2-.23.15-.05.42-.17.25-.1.35-.54.39-.25Z" fill="url(#b)"/><path d="M13 7.43v1.23l-1.48.61a.06.06 0 0 0-.04.05l-.02.22c0-.18-.02-.3-.04-.35a2 2 0 0 0-.41-.54c.79-.25 1.22-.62 1.87-1.12a.1.1 0 0 0 .04-.07c.02-.11 0 0 .08-.03Z" fill="#CB9AF1"/><path d="m11 8.65-.89-.73c.44-.29.94-.47 1.5-.54l.66.17c.08.02.1 0 .06-.08l-.14-.22c.24-.29.49-.5.81-.65v.87c-.08.52-1.58 1.05-2 1.18Z" fill="#CD62F3"/><path d="M11.6 7.38c-.55.07-1.05.25-1.49.54l-.32-.18-.01-.02a.05.05 0 0 1 0-.05l.03-.02.73-.17c.34-.1.7-.14 1.06-.1Z" fill="#E396D8"/><path d="m13 8.66-1.48.61a.06.06 0 0 0-.04.05l-.02.22-.06 1.27c0 .03.01.05.04.06.06.04.13.07.2.09.2.07 1.36.73 1.36.7v-3Z" fill="url(#c)"/><path d="m11.01 14.2.24.8c.8-.6 1.55-1.26 2.23-2.02a4.32 4.32 0 0 0 .52-.73v-.02a.04.04 0 0 0-.05-.02l-.68.11-.43.08c-.15.03-.3.03-.44 0l-.34-.06c-.3-.06-.6-.12-.9-.12-.23 0-.45 0-.67.02.03.27.1.53.21.78l.29.27c.12.13.1.23.07.4l-.05.52Z" fill="url(#d)"/><path d="M7.98 4c.08.12.1.27.09.42.1.04.21.1.3.18-.13.4-.3.77-.5 1.14l-.34-.31c-.1-.1-.23-.1-.38-.05-.48.18-.93.43-1.34.75l-.12.1c-.06.06-.05.09.03.1.3 0 .62.03.96.07.2.03.44.1.71.23a122.01 122.01 0 0 1 1.37.68v.03c-.01.02-.02.03-.04.02a5.56 5.56 0 0 0-2.05-.24c-.14.01-.2.07-.25.2-.06.17-.13.32-.2.48-.15.42-.25.84-.32 1.26-.02.13.01.14.09.04.05-.06.12-.14.22-.23.3-.37.53-.61.67-.72.09-.07.26-.13.53-.19l.17-.04c.3-.06.6-.13.9-.14.04 0 .05.01.01.03l-.47.24c-.07.03-.14.08-.21.13l-.15.1c-.07.04-.1.13-.1.28a3 3 0 0 0 .12.9l.14.44c.06.22.12.13.2-.3v-.05c.1-.35.2-.72.43-.99.32-.35.63-.6.95-.77.05-.02.12-.01.2.04.18.11.34.24.5.4.38.33.72.97.54 1.5a5.28 5.28 0 0 1-.34 1.23 38.6 38.6 0 0 1-3.32 1.2l.01.05c-.05.05-.04.1.04.17.49.44.84.4 1.06.57l.62.45.95.6c-1.46.02-2.55.02-2.93 0-.56-.02-1.01-.36-1.36-.86-.28-.37-.37-.57-.37-.96V5.51c.22-.76.68-1.23 1.35-1.42.36-.1.82-.09 1.27-.09h.36Z" fill="url(#e)"/><path d="M10.5 12.24c.02.27.1.53.2.78l.29.27c.12.13.1.23.07.4l-.05.52.23.79a4 4 0 0 1-.95-.32l-.8-.4-.78-.53-.62-.45c-.22-.17-.57-.48-1.06-.92-.08-.06-.1-.12-.04-.17l2.18-.22c.23-.02.44-.01.63.03.23.06.46.13.7.22Z" fill="url(#f)"/><path d="M10.52 8.78c.11.22.18.46.17.7-1.6.2-3.38.7-4.08.94-.5.04-1.2 0 0-.53.32-.14.69-.27 1.08-.4l.13.4c.06.23.12.14.2-.28v-.06l.05-.18c.93-.27 1.9-.48 2.45-.59Z" fill="url(#g)"/><path d="M8.33 4.42c.52.21.56.66.68 1.03-.03.41-.1.82-.24 1.22L7.1 4.94c.21-.37.71-.8 1.24-.52Z" fill="#EFB39A"/><defs><linearGradient id="a" x1="8.07" y1="4.07" x2="12.66" y2="5.13" gradientUnits="userSpaceOnUse"><stop stop-color="#EBBE55"/><stop offset="1" stop-color="#D17ADE"/></linearGradient><linearGradient id="b" x1="9.81" y1="6.53" x2="13.29" y2="6.59" gradientUnits="userSpaceOnUse"><stop stop-color="#E39FCE"/><stop offset="1" stop-color="#D6A8F1"/></linearGradient><linearGradient id="c" x1="11.82" y1="9.06" x2="13.18" y2="11.68" gradientUnits="userSpaceOnUse"><stop stop-color="#B786EF"/><stop offset="1" stop-color="#87BDD9"/></linearGradient><linearGradient id="d" x1="11.06" y1="12.21" x2="11.78" y2="14.59" gradientUnits="userSpaceOnUse"><stop stop-color="#8FB6D9"/><stop offset="1" stop-color="#62E9C5"/></linearGradient><linearGradient id="e" x1="5.82" y1="4.25" x2="7.97" y2="14.26" gradientUnits="userSpaceOnUse"><stop stop-color="#EEC646"/><stop offset=".35" stop-color="#D87ECF"/><stop offset=".63" stop-color="#BF7BF4"/><stop offset="1" stop-color="#84C3D5"/></linearGradient><linearGradient id="f" x1="9.1" y1="11.98" x2="10.54" y2="14.97" gradientUnits="userSpaceOnUse"><stop stop-color="#736EA0"/><stop offset="1" stop-color="#4C9F8B"/></linearGradient><linearGradient id="g" x1="10.57" y1="9.01" x2="5.93" y2="10.25" gradientUnits="userSpaceOnUse"><stop stop-color="#D984FB"/><stop offset=".78" stop-color="#C67CE9"/></linearGradient></defs></svg>