<!-- by TradingView --><svg width="18" height="18" viewBox="0 0 18 18" xmlns="http://www.w3.org/2000/svg"><path fill="#EB2324" d="M0 0h18v18H0z"/><path d="M9.07 4C11.66 4 14 6.4 14 8.96c0 3.87-2.47 5.04-3.12 5.04-.86 0-.88-1.07-.88-1.51 0-.45.16-2.13 1.31-2.13.5 0 .52.17.71.3.21-.28.3-.66.31-1.2.03-1.9-1.5-2.9-3.27-2.96h-.12c-1.71 0-3.3 1.15-3.27 2.95 0 .66.16 1.13.31 1.22.18-.13.2-.3.7-.3 1.16 0 1.32 1.68 1.32 2.12 0 .44-.02 1.51-.88 1.51C6.47 14 4 12.83 4 8.96A5.16 5.16 0 0 1 8.92 4h.15Z" fill="#F0F3FA"/></svg>