<!-- by TradingView --><svg width="18" height="18" viewBox="0 0 18 18" xmlns="http://www.w3.org/2000/svg"><path fill="url(#azie432kk)" d="M0 0h18v18H0z"/><path d="M5.56 5h2.97L8 8h.89l2.94-3H15l-3.46 4.08L14 13c-1.75 0-4.36-1.94-4.81-3.6-.22.05-.73.17-1.07.28-.17.06-.33.16-.48.25-.2.13-.38.24-.5.16-.18-.1-.27-.4-.29-.54.19.09.58.24.64.13.07-.13-.07-.68-.64-.68-.57 0-.85.89-.85 1.64 0 .75.57.95.85.95h.05c.4 0 1.82-.02 2.29.89l-.15-.06c-.36-.14-.9-.36-1.7-.42-.73-.05-1.2-.2-1.34-.27.12.18.45.54.85.54.5 0 1.49.07 1.84.55.06.08.25.14.53.18H4l1.56-8Z" fill="#F0F3FA"/><defs><linearGradient id="azie432kk" x1="9" y1="0" x2="9" y2="18" gradientUnits="userSpaceOnUse"><stop stop-color="#FF5959"/><stop offset="1" stop-color="#E72324"/></linearGradient></defs></svg>