<!-- by TradingView --><svg width="18" height="18" viewBox="0 0 18 18" xmlns="http://www.w3.org/2000/svg"><path fill="url(#a)" d="M0 0h18v18H0z"/><path d="M8.04 10.27c-.01 0-.04.01-.04.04v2.5c0 .1-.05.19-.17.19H6.26c-.17 0-.26-.1-.26-.25V4.37c0-.15-.03-.37.18-.37h1.6c.27 0 .22.13.22.33v4.3c0 .08.05.1.12.03.25-.23.7-.36 1.1-.36.6 0 .99-.26 1.15-.76.05-.15.06-.34.07-.48.06-.72.81-1.2 1.56-1.05a1.17 1.17 0 0 1 .17 2.27c-.22.08-.45.08-.67.11-.73.12-1.2.77-.95 1.44.16.46.56.72 1.08.78.38.04.6.05.9.3.52.4.63 1.07.24 1.58-.29.38-.83.59-1.31.48-.7-.14-.97-.61-1.03-1.23a1.15 1.15 0 0 0-.79-1c-.21-.07-.53-.05-.75-.1a1.77 1.77 0 0 1-.83-.37h-.02Z" fill="#fff"/><defs><linearGradient id="a" x1="3.35" y1="3.12" x2="21.9" y2="24.43" gradientUnits="userSpaceOnUse"><stop stop-color="#1A1E21"/><stop offset="1" stop-color="#06060A"/></linearGradient></defs></svg>