<!-- by TradingView --><svg width="18" height="18" viewBox="0 0 18 18" xmlns="http://www.w3.org/2000/svg"><path fill="#663AE3" d="M0 0h18v18H0z"/><path d="M5 11.55c0 .2.05.27.15.43l.01.02c-.01-1.02 2.55-1.3 3.84-1.32 1.3.01 3.85.3 3.84 1.32l.01-.02c.1-.16.15-.23.15-.43C13 10.1 9.9 10 9 10c-.9 0-4 .11-4 1.55ZM9 14c-1.11.01-3.37-.1-4-1.11.04-.35.35-.79.98-.89l.16.04A9.9 9.9 0 0 0 9 12.5a9.9 9.9 0 0 0 2.86-.45l.16-.04c.63.1.94.54.98.89-.63 1.01-2.89 1.12-4 1.1Z" fill="#FBFFF3"/><path d="M4.41 11c.43-.42 1.91-1.33 4.59-1.33 2.66 0 4.17.91 4.59 1.33.15-.53.47-1.67.47-1.8l-.04-.6.43-1.3.55-1.63c-.77 1.37-1.1 1.42-1.24 1.43l-.03.01-.04.01c.1.41-.04.84-.1.88-1.25 0-1.41-2.18-1.41-2.67-.42 1.34-.75 1.34-.93 1.34h-.03C10.56 6.67 9.46 4.2 9 3c-.46 1.21-1.52 3.67-2.2 3.67h-.02c-.2 0-.54 0-.96-1.34 0 .5-.15 2.67-1.4 2.67-.07-.04-.2-.47-.1-.88l-.04-.01h-.03C4.1 7.08 3.77 7.03 3 5.66l.55 1.64L4 8.59c-.02.15-.04.48-.04.61s.31 1.27.46 1.8Zm5.3-4.33c0 .36-.32.66-.71.66-.39 0-.7-.3-.7-.66 0-.37.3-.66.69-.67A1 1 0 1 0 9 6c.39 0 .7.3.7.67ZM9 6C10.1 6 11 6.67 11 7.5S10.1 9 9 9s-2-.67-2-1.5S7.9 6 9 6Z" fill="#FBFFF3"/></svg>