<!-- by TradingView --><svg xmlns="http://www.w3.org/2000/svg" width="18" height="18"><path fill="#1F304C" d="M0 0h18v18H0z"/><path d="M7.97 5.33c-.8 1.57-1.9 3.7-4.36 1.38a.37.37 0 00-.45-.05c-.15.1-.2.3-.12.45l2.74 5.7c.05.12.17.19.3.19H8.5a.5.5 0 00.5-.5V5.52c0-.08.07-.1.1-.02.44 1.57 2.14 3.88 4.5 2.83l-2.18 4.13c-.13.25.05.54.32.54.13 0 .26-.08.32-.2l2.9-5.69a.35.35 0 00-.12-.45.36.36 0 00-.45.04c-2.47 2.33-3.56.2-4.36-1.37C9.67 4.61 9.36 4 9 4c-.35 0-.66.6-1.03 1.33z" fill="#D2A952"/></svg>