<!-- by TradingView --><svg width="18" height="18" fill="none" xmlns="http://www.w3.org/2000/svg"><path fill="#F0F3FA" d="M0 0h18v18H0z"/><path fill-rule="evenodd" clip-rule="evenodd" d="M5 4.606L9 3.5l4 1.19v8.392L8.98 14.5 5 13.082V4.606zm.333.414l3.648-1.002 3.686 1.08v7.604L8.98 13.987l-3.648-1.285V5.02z" fill="#4776E7"/><path fill-rule="evenodd" clip-rule="evenodd" d="M9 3.506L8.98 3.5 5 4.606v8.476L8.98 14.5l.02-.007v-.503l-.01.003-3.657-1.286V5.021l3.658-1.003.009.003v-.515z" fill="#1E4799"/><path fill-rule="evenodd" clip-rule="evenodd" d="M9 13.667v-9.3l1.5.446v8.316l-1.49.542-.01-.004zm1.833-.659V4.912l1.5.447v7.104l-1.5.545z" fill="#1E47A1"/><path fill-rule="evenodd" clip-rule="evenodd" d="M8.677 13.52h-.099l-.911-.32V4.754l1.01-.323v9.088zm-2.01-8.446v7.774l-.334-.116v-.028h-.079l-.587-.206V5.394l1-.32z" fill="#B0C5FE"/></svg>