<!-- by TradingView --><svg width="18" height="18" viewBox="0 0 18 18" xmlns="http://www.w3.org/2000/svg"><path fill="#F0F3FA" d="M0 0h18v18H0z"/><path d="M14 9A5 5 0 1 1 4 9a5 5 0 0 1 10 0Z" fill="#345D9C"/><path d="M8.6 10.84a.04.04 0 0 0 0 .05h.02l.02.02h2.7l.05.04c.02.02.02.06 0 .12-.07.27-.14.57-.22.82a.16.16 0 0 1-.07.08.18.18 0 0 1-.1.03H6.92l-.01-.01a.03.03 0 0 1 0-.03l.65-2.12a.04.04 0 0 0-.01-.04l-.02-.01H7.5l-.62.16c-.05.01-.07 0-.05-.05l.1-.33a.2.2 0 0 1 .05-.08.2.2 0 0 1 .09-.05l.61-.16a.1.1 0 0 0 .05-.02.1.1 0 0 0 .03-.05l.96-3.1c.02-.08.07-.11.14-.11h1.1c.1.02.12.07.1.17a277.28 277.28 0 0 1-.79 2.6.04.04 0 0 0 .04.02l.6-.16c.07-.02.1 0 .08.06l-.1.33c-.02.03-.03.06-.06.08a.2.2 0 0 1-.08.05l-.62.16a.1.1 0 0 0-.08.07l-.47 1.46Z" fill="#F0F3FA"/><path d="M5.8 7.49a.08.08 0 0 1-.03-.08c.07-.38.3-.64.68-.8.2-.07.39.02.55.13.28.2.36.51.2.8-.19.31-.46.42-.81.34-.25-.06-.4-.22-.6-.39ZM10.65 7.5c-.09-.13-.11-.21-.04-.35.15-.28.38-.47.7-.56.25-.07.62.22.72.47.06.15-.01.47-.12.58-.29.32-.75.38-1.09.07-.03-.03-.1-.1-.17-.2Z" fill="#DBC2B7"/><path d="M7.05 6.99c-.15.42-.37.58-.67.48-.02 0-.03 0-.02.03.01.09 0 .14-.04.13a.55.55 0 0 1-.22-.42c0-.11.02-.23.08-.32.07-.1.16-.16.26-.2a.48.48 0 0 1 .34.03c.12.05.21.15.27.27ZM11.79 7.42c-.04.01-.08 0-.12-.07-.02-.02-.03-.02-.05 0-.13.15-.27.2-.43.12-.12-.04-.14-.02-.07.09.01.01 0 .04-.07.09-.28-.4-.23-.7.13-.94.37-.23.8.37.6.7Z" fill="#5C412E"/><path d="M6.47 7.1c.09-.04.13-.12.1-.19-.02-.07-.1-.1-.2-.06-.07.03-.12.1-.1.18.03.06.12.1.2.06ZM11.27 7.07c.06-.05.09-.13.05-.2-.05-.05-.13-.05-.2 0-.07.04-.1.13-.05.19.04.05.13.06.2.01Z" fill="#F0F3FA"/><path d="M7.05 6.99c.04.08.06.18.05.27 0 .1-.03.18-.08.26a.49.49 0 0 1-.33.21.48.48 0 0 1-.2 0 .51.51 0 0 1-.17-.1c.04 0 .05-.04.04-.13 0-.03 0-.04.03-.03.29.1.5-.06.66-.48ZM11.79 7.42c.02.03.02.06-.01.09-.18.23-.42.27-.73.14.06-.05.08-.08.07-.1-.07-.1-.05-.12.07-.08.16.07.3.03.43-.12.02-.02.03-.02.05 0 .04.06.08.08.12.07Z" fill="#A98A46"/></svg>