<!-- by TradingView --><svg width="18" height="18" viewBox="0 0 18 18" xmlns="http://www.w3.org/2000/svg"><path fill="url(#a)" d="M0 0h18v18H0z"/><path d="M4.4 5a.4.4 0 0 0-.4.4v7.2c0 .22.18.4.4.4h3.2c.23 0 .4-.18.4-.4V8.16l2.4 2.74c.07.07.16.1.25.11.18 0 .35-.12.35-.32V5.62h2.38v6.76H10V13h3.6a.4.4 0 0 0 .4-.4V5.4a.4.4 0 0 0-.4-.4h-2.82a.4.4 0 0 0-.4.4v4.45L7.95 7.1A.33.33 0 0 0 7.71 7c-.17 0-.33.13-.33.32v5.06H4.63V5.62H8V5H4.4Z" fill="#FDFFFF"/><defs><linearGradient id="a" x1="18" y1="9" x2="0" y2="9" gradientUnits="userSpaceOnUse"><stop stop-color="#4F1489"/><stop offset="1" stop-color="#150625"/></linearGradient></defs></svg>