<!-- by TradingView --><svg width="18" height="18" viewBox="0 0 18 18" xmlns="http://www.w3.org/2000/svg"><path fill="#1B4251" d="M0 0h18v18H0z"/><path d="M9 6a1 1 0 1 0 0-2 1 1 0 0 0 0 2Zm4 0a1 1 0 1 1-2 0 1 1 0 0 1 2 0Zm0 3.49a1 1 0 1 0 0-2 1 1 0 0 0 0 2Zm.4 1.98a1 1 0 1 1-2 0 1 1 0 0 1 2 0ZM7 14a1 1 0 1 0 0-2 1 1 0 0 0 0 2Zm3 0a1 1 0 1 0 0-2 1 1 0 0 0 0 2ZM8 6a1 1 0 1 1-2 0 1 1 0 0 1 2 0ZM5 9a1 1 0 1 0 0-2 1 1 0 0 0 0 2Zm1.4 1.7a1 1 0 1 1-2 0 1 1 0 0 1 2 0Z" fill="url(#aw525s1oq)"/><defs><linearGradient id="aw525s1oq" x1="9" y1="4.29" x2="9" y2="14" gradientUnits="userSpaceOnUse"><stop stop-color="#0D5C68"/><stop offset="1" stop-color="#11DDEB"/></linearGradient></defs></svg>