<!-- by TradingView --><svg width="18" height="18" viewBox="0 0 18 18" xmlns="http://www.w3.org/2000/svg"><path fill="#07F2C7" d="M0 0h18v18H0z"/><path fill-rule="evenodd" d="M9 15A6 6 0 1 0 9 3a6 6 0 0 0 0 12Zm0-1A5 5 0 1 0 9 4a5 5 0 0 0 0 10Z" fill="url(#a)"/><path d="M7.77 6H6l1.77 2.94h2.25L12 6H9.88L8.77 7.8l-1-1.8Zm2.15 2.67h-.67l-.36-.65 1.14-1.77h1.5l-1.6 2.42ZM7.97 12H6l1.77-2.94h2.25L12 12H9.88L8.8 10.27 7.97 12Zm1.95-2.67h-.65l-.34.7 1.1 1.72h1.5l-1.6-2.42Z"/><defs><linearGradient id="a" x1="14.83" y1="8.8" x2="3.36" y2="9.14" gradientUnits="userSpaceOnUse"><stop stop-color="#34C0A6"/><stop offset="1" stop-color="#76FFE6"/></linearGradient></defs></svg>