<!-- by TradingView --><svg xmlns="http://www.w3.org/2000/svg" width="18" height="18"><path fill="url(#avylzqwtz)" d="M0 0h18v18H0z"/><path d="M11.35 12.47L5.97 6.6l.55-1.08 5.26 5.77-.43 1.2z" fill="url(#bvylzqwtz)"/><path d="M6.28 5.5l.25.01-.43 1.17a2.3 2.3 0 102.39 3 3.74 3.74 0 01.48-2.62L9 7.01v.02a3.23 3.23 0 012.72-1.53C13.53 5.5 15 7.07 15 9s-1.47 3.5-3.29 3.5c-.12 0-.25 0-.37-.02l.44-1.2A2.26 2.26 0 0014 9c0-1.26-1-2.28-2.23-2.28-1.13 0-2.07.87-2.21 1.99V9c0 1.93-1.46 3.5-3.28 3.5C4.47 12.5 3 10.93 3 9s1.47-3.5 3.28-3.5z" fill="url(#cvylzqwtz)"/><defs><linearGradient id="avylzqwtz" x1="3.35" y1="3.12" x2="21.9" y2="24.43" gradientUnits="userSpaceOnUse"><stop stop-color="#1A1E21"/><stop offset="1" stop-color="#06060A"/></linearGradient><linearGradient id="bvylzqwtz" x1="6.81" y1="6.65" x2="11.9" y2="11.41" gradientUnits="userSpaceOnUse"><stop offset=".18" stop-color="#FFC114"/><stop offset=".49" stop-color="#312D2E"/><stop offset=".89" stop-color="#F15933"/></linearGradient><linearGradient id="cvylzqwtz" x1="4.85" y1="8.41" x2="14.51" y2="7.83" gradientUnits="userSpaceOnUse"><stop offset=".12" stop-color="#F9C213"/><stop offset=".59" stop-color="#FF443B"/></linearGradient></defs></svg>