<!-- by TradingView --><svg width="18" height="18" viewBox="0 0 18 18" xmlns="http://www.w3.org/2000/svg"><path fill="#181B1E" d="M0 0h18v18H0z"/><path fill-rule="evenodd" d="M6.5 5a1.5 1.5 0 1 0 0 3H8V6.5C8 5.67 7.33 5 6.5 5Zm0 .6a.9.9 0 1 0 0 1.8h.9v-.9c0-.5-.4-.9-.9-.9ZM6.5 13a1.5 1.5 0 0 1 0-3H8v1.5c0 .83-.67 1.5-1.5 1.5Zm0-.6a.9.9 0 1 1 0-1.8h.9v.9c0 .5-.4.9-.9.9ZM11.5 5a1.5 1.5 0 0 1 0 3H10V6.5c0-.83.67-1.5 1.5-1.5Zm0 .6a.9.9 0 1 1 0 1.8h-.9v-.9c0-.5.4-.9.9-.9ZM11.5 13a1.5 1.5 0 0 0 0-3H10v1.5c0 .83.67 1.5 1.5 1.5Zm0-.6a.9.9 0 1 0 0-1.8h-.9v.9c0 .5.4.9.9.9Z" fill="#F0F3FA"/><path fill-rule="evenodd" d="M7.96 4.43c.57-.57 1.5-.57 2.08 0 .57.57.57 1.5 0 2.07L9 7.53 7.96 6.5a1.46 1.46 0 0 1 0-2.07ZM9 4.59c.5 0 .88.42.88.93 0 .6-.48.93-.88 1.32-.4-.4-.88-.72-.88-1.32 0-.51.37-.93.88-.93ZM7.96 13.57c.57.57 1.5.57 2.08 0 .57-.57.57-1.5 0-2.07L9 10.47 7.96 11.5c-.57.58-.57 1.5 0 2.07ZM9 13.41c.5 0 .88-.42.88-.93 0-.6-.48-.93-.88-1.32-.4.4-.88.72-.88 1.32 0 .51.37.93.88.93ZM4.43 10.04a1.48 1.48 0 0 1 0-2.08c.57-.57 1.5-.57 2.07 0L7.53 9 6.5 10.04c-.58.57-1.5.57-2.07 0ZM4.59 9c0-.5.42-.88.93-.88.6 0 .93.48 1.32.88-.4.4-.72.88-1.32.88-.51 0-.93-.37-.93-.88ZM13.57 10.04c.57-.57.57-1.5 0-2.08a1.46 1.46 0 0 0-2.07 0L10.47 9l1.03 1.04c.58.57 1.5.57 2.07 0ZM13.41 9c0-.5-.42-.88-.93-.88-.6 0-.93.48-1.32.88.4.4.72.88 1.32.88.51 0 .93-.37.93-.88Z" fill="#F0F3FA"/></svg>