<!-- by TradingView --><svg width="18" height="18" viewBox="0 0 18 18" xmlns="http://www.w3.org/2000/svg"><path fill="#515268" d="M0 0h18v18H0z"/><path d="M8.88 3.27c-.34.1-.56.17-.68.22-.75.37-1.3.94-1.65 1.72-.15.35-.25.72-.3 1.13-.07 1.03.28 1.8 1.06 2.31.14.11.27.19.4.24.03 0 .04.03.04.06a.3.3 0 0 1-.06.1l-.22.27-.88 1.37.01.1-.12.5c-.06.39.12.61.54.68.03 0 .06 0 .07-.03l.11-.17h.04v.03a1.9 1.9 0 0 0-.1.4l-.44-.31c-.14-.1-.22-.2-.25-.3-.06-.25-.05-.5.04-.77.05-.17.16-.4.34-.7.01-.03 0-.04-.03-.05-.25 0-.48.03-.7.11a.13.13 0 0 0-.08.13v.8c0 .05-.02.1-.06.13a.19.19 0 0 1-.14.06h-.25a.08.08 0 0 1-.08-.04 2.22 2.22 0 0 1-.25-1.05c0-.05-.03-.08-.08-.09-.3-.06-.6-.06-.94-.02-.2.03-.55.11-1.03.24l-.08-.46c.01-.55.23-.87.67-.98a7.58 7.58 0 0 0 1.15-.4c0-.02 0-.04-.02-.05-.16-.12-.37-.2-.62-.22a4.87 4.87 0 0 1-1.15-.27l.04-.27c.01-.14.07-.34.17-.61l.04-.1c.05-.12.12-.26.22-.43.1-.19.2-.38.27-.57.3.02.5-.04.65-.2l.61-.64a.3.3 0 0 1 .2-.1.3.3 0 0 1 .22.07l.16.13c.13.1.22.18.28.21.1.06.2.09.3.09.03 0 .05-.02.06-.04.13-.45.37-.87.72-1.27a2.47 2.47 0 0 1 1.8-.96Z" fill="#3B445E"/><path d="m8.88 3.27.5.06c.18.02.35.06.49.11.55.23 1.01.58 1.38 1.06.37.46.6 1 .7 1.6a20 20 0 0 1-.73-1.03 1.44 1.44 0 0 0-.25-.25l-.4-.37c-.24-.17-.5-.3-.79-.37-.32-.1-.6-.1-.87-.05l-.26.04a1.8 1.8 0 0 0-.79.3c-.24.15-.45.34-.65.56-.2.14-.42.24-.66.28.35-.78.9-1.35 1.65-1.72.12-.05.34-.13.68-.22Z" fill="#F4DD89"/><path d="M10.97 4.82c.34.39.55.76.64 1.14.08.3.04.62-.1.97a2.75 2.75 0 0 0-.38-1.68 2.07 2.07 0 0 0-1.96-1.09H9A2.3 2.3 0 0 0 7.1 5.3c-.19.35-.32.78-.39 1.3-.03-.37.01-.69.12-.96.07-.18.2-.42.38-.71.2-.22.41-.4.65-.56.28-.17.54-.27.79-.3.1 0 .2-.02.26-.04.26-.06.55-.05.87.04a2.46 2.46 0 0 1 1.2.75Z" fill="#A48C21"/><path d="M11.5 6.93c-.06.26-.15.5-.28.7-.07-.02-.11-.05-.12-.08.3-.4.4-.87.26-1.4a3.1 3.1 0 0 0-.51-1.12 2.13 2.13 0 0 0-1.84-.73c-.39.02-.7.1-.91.23-.27.12-.49.29-.66.51-.32.4-.52.87-.59 1.41-.07.5.05.92.35 1.27.08.09.11.07.1-.05a.89.89 0 0 0-.09-.23l.06-.04.06.13c.06.13.13.25.23.34.17.2.47.37.9.47.03 0 .05.02.07.05l.15.2-.17-.02-.02.01-.01.02.01.03a.5.5 0 0 1 .25.14c.07.06.13.04.18-.08l.14.1c.02.06.02.1-.03.1a.22.22 0 0 0-.19-.02.1.1 0 0 1-.08-.01c-.16-.1-.45-.24-.87-.45a2.1 2.1 0 0 1-1.15-1.54l-.03-.28c.07-.5.2-.94.4-1.3a2.3 2.3 0 0 1 1.9-1.13h.16a2.07 2.07 0 0 1 1.96 1.1c.3.52.43 1.08.37 1.67Z" fill="#070B0F"/><path d="M10.85 5.03a1 1 0 0 0-.08.33c0 .02-.01.04-.04.05a.06.06 0 0 1-.06 0l-.61-.35c-.03-.02-.04 0-.05.02-.02.14.01.24.1.31-.08.02-.07.08.04.18.01.05.03.1.06.14l-.01.09a.2.2 0 0 1-.08-.07l-1.05-.58-.03.01-.01.05-.02-.1c0-.03.01-.04.04-.04.34.04.65-.02.94-.18.03-.01.05-.02.08-.01l.12.02c.21.03.24-.02.07-.17-.2-.17-.47-.27-.82-.3-.3-.04-.6-.02-.92.05a.24.24 0 0 0-.18.18.1.1 0 0 0 0 .08c.22.4.53.72.92.93.1.1.17.2.2.32h-.12l-.9-.52-.32-.43a.1.1 0 0 1-.02-.05l-.02-.13c-.01-.03-.03-.04-.06-.03H8c-.02-.01-.04 0-.05.05-.01.03 0 .08.03.14v.08a.83.83 0 0 1-.15.27l-.6.58a.73.73 0 0 0-.24.62c.02.27.1.56.22.87.05.1.08.18.08.23.02.12 0 .14-.09.05-.3-.35-.42-.77-.35-1.27a2.8 2.8 0 0 1 .59-1.4c.3-.12.52-.29.66-.52.22-.14.52-.21.91-.23.78-.04 1.39.2 1.84.73Z" fill="#69BDE9"/><path d="M9.03 5.21c0 .05.02.08.05.11.02.11.06.18.1.19 0 .05.03.1.09.16-.4-.21-.7-.52-.92-.93a.1.1 0 0 1-.01-.08c.03-.1.09-.16.18-.18.32-.07.62-.09.92-.06.35.04.63.14.82.31.17.15.15.2-.07.17l-.12-.02-.08.01c-.29.16-.6.22-.94.18-.03 0-.04.01-.04.04l.02.1Z" fill="#95D2F0"/><path d="M8.1 4.53c-.14.23-.36.4-.66.51.17-.22.4-.39.66-.5Z" fill="#0672A5"/><path d="M8.44 5.47c.2.32.5.49.9.51h.13c.04.05.04.09 0 .1a.53.53 0 0 1-.12.04c-.36-.06-.66-.2-.9-.44l-.37-.5c-.02-.03-.04-.03-.06 0-.06.13-.13.24-.21.32a9 9 0 0 0-.63.68c-.1.25-.12.49-.07.7.04.17.1.35.16.52l-.06.04c-.12-.32-.2-.6-.22-.87a.73.73 0 0 1 .23-.62l.61-.58c.05-.04.1-.13.15-.27a.09.09 0 0 0 0-.08c-.03-.06-.04-.11-.03-.14 0-.05.03-.06.05-.05h.03c.02-.01.04 0 .05.03l.02.13.02.04.32.44Z" fill="#2C4068"/><path d="M11.95 6.1c.07.3.07.6 0 .89a2.3 2.3 0 0 0-.37.53l-.2.33c-.07.1-.13.22-.18.34l.02-.56c.13-.2.22-.44.28-.7.15-.35.19-.68.11-.97a2.8 2.8 0 0 0-.64-1.14c.13.11.22.2.25.25.23.35.48.7.73 1.03ZM7.21 4.93c-.18.3-.31.53-.38.7-.11.28-.15.6-.12.96l.03.28h-.1c-.02.02-.03.05-.02.08a2.04 2.04 0 0 0 .62 1.12l.36.35c-.77-.4-1.22-1.09-1.35-2.08.05-.41.15-.78.3-1.13.24-.04.46-.14.66-.28Z" fill="#DBBA4B"/><path d="M11.1 7.55H11l-.03-.03a.2.2 0 0 0 .07-.09c.18-.5.19-1.02 0-1.53a2.44 2.44 0 0 0-.2-.34c-.02-.02-.04-.03-.07-.01a.13.13 0 0 0-.04.06c-.02.04-.04.05-.07.04l-.56-.26c-.07-.07-.1-.17-.09-.3 0-.04.02-.05.05-.03l.6.35c.03.01.05.01.07 0a.06.06 0 0 0 .04-.05 1 1 0 0 1 .08-.33c.24.33.41.7.51 1.11.14.54.05 1-.26 1.4Z" fill="#0672A5"/><path d="M8.45 5.68c-.02.19.06.32.21.39a1 1 0 0 0 .69.05c.06 0 .1-.02.13-.03.03-.02.03-.06-.01-.1a.83.83 0 0 0-.2-.32c-.06-.05-.08-.11-.08-.16l.53.3c.05.06.1.1.17.1.04 0 .06.01.07.03.01.02.02.04.01.07l-.02.04c-.1.05-.16.13-.18.25a.9.9 0 0 0-.04.41c0 .14.02.29.06.45.03.09.08.17.15.24.07.07.15.11.24.13.2.05.34-.06.4-.31.07-.25.07-.54 0-.86.15.11.23.25.25.42h.05a.76.76 0 0 0-.1-.49c-.04-.14-.23-.27-.56-.38l-.03-.01a.2.2 0 0 0 0-.1l.02-.1c.07.06.13.09.17.09.11-.01.13-.05.04-.12a.46.46 0 0 0-.27-.1c-.1-.1-.12-.16-.05-.18l.55.26c.04.01.06 0 .08-.04a.13.13 0 0 1 .04-.06c.03-.02.05-.01.07.01.12.19.2.3.2.34.19.51.18 1.02 0 1.53a.2.2 0 0 1-.07.09c-.05 0-.1.02-.15.07-.2.02-.4.06-.59.12-.23.06-.48.03-.73-.09a.95.95 0 0 0-.64 0c-.18.03-.38.04-.6.03-.33 0-.57-.12-.73-.35-.1-.14-.18-.4-.26-.76a6.47 6.47 0 0 0-.1-.36 9 9 0 0 1 .64-.68c.08-.08.15-.19.21-.32.02-.03.04-.03.06 0l.37.5Z" fill="#DAD4D7"/><path d="M10.12 5.73a.2.2 0 0 1-.16.02c-.42-.12-.67-.27-.76-.45-.02-.03-.04-.04-.07-.03-.02 0-.03.02-.05.05a.16.16 0 0 1-.05-.1l.01-.06c0-.01.02-.02.03-.01l1.05.58Z" fill="#0672A5"/><path d="M10.12 5.73a.2.2 0 0 0 .08.07.2.2 0 0 1 0 .1l-.48-.09-.53-.3c-.05-.01-.09-.07-.1-.19 0-.03.02-.04.04-.05.03 0 .05 0 .07.03.09.18.34.33.77.45.05.02.1.01.15-.02Z" fill="#2C4068"/><path d="M9.35 5.98c-.4-.02-.7-.19-.91-.51l.9.51Z" fill="#0672A5"/><path d="M10.2 5.7a.4.4 0 0 1-.05-.13c.12.01.2.04.27.1.09.07.07.11-.04.12-.04 0-.1-.03-.17-.08ZM7.9 5.78h-.02v-.01c0-.04.01-.08.04-.11a.23.23 0 0 1 .13-.07h.09c.05-.02.1-.01.14.01.04.02.06.06.07.1v.01l-.46.07Z" fill="#060B1B"/><path d="M9.35 6.12a1 1 0 0 1-.69-.05c-.15-.07-.22-.2-.2-.4.23.25.53.4.89.45Z" fill="#B4A9A7"/><path d="M10.2 5.9h.02c.33.12.52.25.56.4a.73.73 0 0 0-.49-.16c-.14 0-.31.06-.52.16.02-.12.08-.2.18-.25.05.06.1.08.14.06.08-.02.09-.05.01-.1h-.13l-.01-.07c-.01-.02-.03-.02-.07-.03a.23.23 0 0 1-.17-.1l.47.09Z" fill="#595B70"/><path d="M8.49 6.14H8a.6.6 0 0 0-.21.04l-.22.05c.08-.1.19-.19.34-.24.23-.09.42-.04.58.15Z" fill="#3B445E"/><path d="M9.95 6.05 9.97 6h.13c.08.05.07.08 0 .1-.05.02-.1 0-.15-.06Z" fill="#0C1330"/><path d="m13.18 8.42-.28-.2c.04 0 .06-.01.06-.03a.2.2 0 0 0-.03-.09.38.38 0 0 0-.1-.32.94.94 0 0 0-.44-.3c-.24-.06-.41 0-.54.18-.02.03-.02.07 0 .1-.04.03-.04.08-.02.14a.35.35 0 0 0-.12 0l.26-.87c.08-.3.11-.6.1-.91 0-.01 0-.02.02-.03h.03c.35.2.6.5.77.87l.05.12c.1.23.18.4.25.5.11.15.26.27.44.35.03.01.04.03.04.06v.36c0 .03-.01.04-.04.04-.15-.02-.3-.01-.45.03Z" fill="#595B70"/><path d="M8.5 6.14c.13.16.16.35.1.58-.15-.45-.44-.58-.86-.38a.58.58 0 0 0-.25.48c0 .03-.01.03-.03 0-.05-.05-.06-.15-.02-.29.03-.1.07-.2.13-.3.08-.02.15-.03.22-.06A.6.6 0 0 1 8 6.15l.5-.01ZM10.77 6.3c.1.14.13.3.11.47 0 .01 0 .02-.02.02h-.02v-.01a.65.65 0 0 0-.25-.42c-.18-.11-.35-.13-.52-.06-.15.06-.23.14-.24.23-.01.1-.05.17-.1.18a.9.9 0 0 1 .04-.4c.2-.1.38-.16.52-.17.17-.01.33.04.48.15Z" fill="#060B1B"/><path d="M8.86 7.62c.22.15.43.15.64 0 .25.12.5.15.74.08.19-.05.39-.09.59-.12-.23.13-.45.2-.67.2-.58 0-1.15 0-1.72.02a2.1 2.1 0 0 1-1.1-.27l-.07-.13a4.19 4.19 0 0 1-.16-.52c-.05-.21-.03-.45.06-.7l.1.36c.08.37.17.62.26.76.16.23.4.34.73.35.22 0 .42 0 .6-.03Z" fill="#B4A9A7"/><path d="M8.6 6.73c.05.42-.09.69-.43.8-.13.05-.23 0-.32-.12a.99.99 0 0 1-.14-.7l.03-.37c.42-.2.7-.07.87.39ZM10.59 6.36c.06.32.06.6 0 .86-.07.25-.2.36-.41.31a.49.49 0 0 1-.24-.13.54.54 0 0 1-.15-.24c-.04-.16-.06-.3-.06-.45.05-.01.09-.07.1-.18.01-.1.1-.17.24-.23.17-.07.34-.05.52.06Z" fill="#2837BD"/><path d="M6.25 6.34c.13 1 .58 1.69 1.35 2.08.26.1.51.2.74.31.24.12.46.27.64.47.01.02.03.02.05.01l.04.03c-.03.04-.07.05-.12.03l-.42-.13-.21-.07c.04 0 .07-.01.08-.03.02-.02.02-.04-.02-.05L7.3 8.65c-.77-.51-1.12-1.28-1.05-2.31Z" fill="#936A06"/><path d="M10.27 6.55c.1 0 .17-.06.17-.12s-.08-.1-.17-.1c-.1 0-.17.05-.17.11s.08.11.17.1ZM8.1 6.56c.1-.02.17-.08.16-.13 0-.06-.1-.1-.2-.08-.09.02-.16.08-.15.14 0 .06.1.09.2.07Z" fill="#EBE9DC"/><path d="M6.74 6.88A2.1 2.1 0 0 0 7.9 8.4c.42.2.71.36.87.45a.1.1 0 0 0 .08 0c.07-.01.14 0 .2.04.01.05.04.08.08.07-.01.03 0 .06 0 .07.01.02.03.03.05.02.04 0 .07-.04.09-.08l.06-.1c.26-.03.5-.13.72-.3.33-.12.61-.3.83-.5.04.03.05.1.01.2-.34.2-.7.39-1.08.54-.08.03-.21.16-.42.38-.02.02-.04.02-.06 0l-.02-.05c0-.01-.02-.02-.03-.01l-.02.02c-.02 0-.02.02-.01.03a.2.2 0 0 0 .13.1l.11-.05c.19-.1.37-.09.55.02l-.1.04c-.03.02-.03.04 0 .06l.09.04c.03 0 .05-.01.07-.04l.07-.1c.13.09.14.19.05.3-.05-.07-.11-.07-.18 0-.02.03-.1.08-.24.15h-.04v-.04c-.02-.05-.03-.05-.06-.01l-.09.16c-.02.03 0 .05.02.05l.55.01c.19.41.24.83.17 1.25a3.9 3.9 0 0 1-.44-.18c-.06-.03-.1-.1-.12-.18h-.02l.01.21a5.07 5.07 0 0 0 .15.94c.06.13.22.18.5.15.01.04.04.07.09.08.01 0 .02.01 0 .02v.03h-.02a1.1 1.1 0 0 0-.4 0 4.5 4.5 0 0 0-.38-.01 1.5 1.5 0 0 1-.3-.05.89.89 0 0 0-.31-.01c-.37.05-.75.08-1.13.08-.07 0-.14 0-.2.03a.2.2 0 0 1-.08.02h-.38l-.01-.02v-.04c.25 0 .5-.03.73-.09l.25-.03c.23-.04.35-.3.33-.77 0-.25-.03-.25-.07 0l-.05.38c0 .03-.02.05-.05.06a.08.08 0 0 1-.07 0 1.3 1.3 0 0 1-.54-.51l.79-.23.01-.02v-.04c0-.02 0-.03-.03-.02-.2.1-.4.16-.56.2-.26.04-.44 0-.53-.1-.07-.1-.05-.21.06-.35.16 0 .28-.04.36-.14.33-.38.44-.83.33-1.35l.27-.05c.11.02.25.07.42.13.05.02.09 0 .12-.03a.21.21 0 0 0 .08-.06.06.06 0 0 0 0-.06c0-.03-.02-.03-.05-.02a.17.17 0 0 0-.07.12c-.02 0-.04 0-.05-.02-.18-.2-.4-.35-.64-.47-.23-.1-.47-.21-.74-.31l-.36-.35a2.04 2.04 0 0 1-.33-.37 2.4 2.4 0 0 1-.3-.75c0-.03.01-.06.04-.07.02-.02.06-.02.1 0Z" fill="#F4DD89"/><path d="M14.6 6.92a5.94 5.94 0 0 1 .33 2.57l-.94-.61a.47.47 0 0 1-.22-.39c0-.21 0-.42.02-.64.01-.2.1-.37.23-.5.1-.1.29-.25.57-.43Z" fill="#070B0F"/><path d="m10.44 7.1-.1-.1a.15.15 0 0 0-.22 0l-.1.1a.15.15 0 0 0 0 .21l.1.1c.06.06.16.06.21 0l.1-.1a.15.15 0 0 0 0-.21ZM8.08 7.02c0-.02.01-.03.04-.04h.05c.12.06.2.14.24.24.02.04 0 .06-.02.08l-.25.14a.07.07 0 0 1-.06 0 .45.45 0 0 1-.2-.18.13.13 0 0 1 0-.14.13.13 0 0 1 .12-.07h.05c.02 0 .03 0 .03-.03Z" fill="#C4CEE6"/><path d="m11.96 6.99.01.04-.26.86a.51.51 0 0 0-.09.3v-.1c0-.04-.03-.05-.06-.03-.03.03-.06.07-.08.14l-.25.19-.03-.2c.05-.12.1-.23.18-.34l.2-.33c.1-.2.23-.38.38-.53Z" fill="#A48C21"/><path d="M12.93 8.1c-.07-.05-.12-.1-.13-.16a.12.12 0 0 0-.09-.1.13.13 0 0 0-.14.02c-.03.03-.04.07-.04.1s.02.05.05.05c.12 0 .2.05.25.14a.7.7 0 0 0-.33.02c-.03.01-.04 0-.05-.02l-.05-.25a.08.08 0 0 0-.04-.06.78.78 0 0 0-.51-.07c-.02-.04-.02-.08 0-.1.13-.2.3-.25.54-.18.17.05.33.15.45.3.08.08.1.19.1.31Z" fill="#111E3B"/><path d="M10.83 7.58c.05-.04.1-.06.14-.06l.04.03c-.1.01-.14.07-.14.18-.17.18-.35.32-.55.4l-.55.1c-.24.06-.42.09-.55.09-.59 0-1.14-.15-1.66-.45-.1-.1-.17-.2-.23-.34.34.19.71.28 1.11.27l1.72-.02c.22 0 .44-.07.67-.2Z" fill="#A18975"/><path d="M11.1 7.55c0 .03.05.06.12.08l-.02.56.03.2v.51l.03.14c0 .03.02.06.06.07a.1.1 0 0 0 .1-.02c.1-.08.16-.22.19-.4a2.66 2.66 0 0 0 .01-.5.5.5 0 0 1 .09-.3h.12c.12.04.17.1.17.2l-.04.68-.14.17-.24.26a.7.7 0 0 1-.32.15.08.08 0 0 0-.07.06c-.01.03 0 .06.02.09l.1.04c.14.08.24.18.28.3l-.46.15c-.1.03-.2.04-.3.03-.03 0-.04-.02-.04-.05a.2.2 0 0 1 0-.03c.01-.03 0-.04-.03-.04h-.05c-.03 0-.04-.02-.03-.05.03-.14.1-.28.2-.41V8.27c.04-.1.03-.16-.01-.2v-.34c0-.11.05-.17.13-.18h.1Z" fill="#EBE9DC"/><path d="M9.5 7.63c-.21.14-.42.14-.64 0a.95.95 0 0 1 .64 0ZM12.84 8.15l.06.07.28.2 1.72 1.1a.2.2 0 0 1 .03.03l.01.06a5.77 5.77 0 0 1-1.33 3.2c0-.1.03-.2.09-.31l.13-.3c.02-.13.06-.25.12-.36.08-.18.1-.45.03-.82l.02-.1c.06-.36.06-.57 0-.64a1 1 0 0 1-.24-.8c.04-.27.03-.45-.02-.54-.26-.18-.5-.34-.75-.47a1.1 1.1 0 0 0-.42-.1h-.13c-.14-.02-.28-.11-.44-.28 0-.1-.05-.16-.17-.2-.02-.05-.02-.1.02-.12a.78.78 0 0 1 .51.07c.03.01.04.03.05.06l.04.25c0 .02.02.03.05.02a.7.7 0 0 1 .34-.02ZM10.87 7.73v.34c-.22.22-.5.39-.83.51 0-.04 0-.08-.02-.1 0-.02-.04-.03-.08-.02l-.17.06c-.07-.02-.09-.06-.07-.11a.09.09 0 0 1 .07-.07c.2-.03.38-.1.55-.2.2-.09.38-.23.55-.41Z" fill="#070B0F"/><path d="M12.93 8.1a.2.2 0 0 1 .03.1l-.06.02a.23.23 0 0 0-.07-.07.28.28 0 0 0-.25-.14c-.03 0-.04-.02-.05-.05 0-.03.01-.07.05-.1a.13.13 0 0 1 .13-.03c.05.02.08.05.1.1 0 .06.05.12.12.17Z" fill="#797A99"/><path d="M10.32 8.14c-.17.1-.35.17-.55.2a.09.09 0 0 0-.07.07c-.02.05 0 .09.06.11l-.13.12c-.25-.05-.5-.05-.75-.01l-.2-.04-.15-.2a.12.12 0 0 0-.07-.05c-.43-.1-.73-.26-.9-.47.52.3 1.07.45 1.66.45.13 0 .31-.03.55-.09l.55-.1Z" fill="#5C3A0D"/><path d="M13.62 8.3c0 .01-.01.02-.02.01h-.02c-.17-.04-.3-.08-.42-.13-.11-.05-.16-.1-.16-.12v-.02c.01-.03.08-.04.2-.04.12 0 .27.03.43.07h.02c.02 0 .02.01.02.02l-.05.2Z" fill="#797A99"/><path d="M11.62 8.2v.04l-.01.46c-.03.17-.1.3-.2.4a.1.1 0 0 1-.09.01.1.1 0 0 1-.06-.07l-.03-.14c.06.05.1.03.1-.07 0-.22.05-.43.15-.63.02-.07.05-.11.08-.14.04-.02.05 0 .05.03l.01.1Z" fill="#0C1330"/><path d="M13.74 8.94c-.2 0-.44-.07-.72-.22a2.67 2.67 0 0 0-.38-.18c-.03-.01-.04 0-.05.02a12.5 12.5 0 0 0-.78 2.8c-.04.12-.05.11-.06 0l-.03-2.02c.13-.15.2-.34.24-.57L12 8.1c.16.16.3.25.44.27l.13.01c.2.02.33.05.42.1.24.13.5.29.75.47Z" fill="#2C4068"/><path d="M11.48 8.2c-.1.2-.15.41-.15.63 0 .1-.04.12-.1.07V8.4l.25-.2Z" fill="#3B445E"/><path d="M10.88 8.27v.48c-.15.03-.28.08-.4.15-.02.02-.02.04 0 .06l.2.25a.44.44 0 0 0-.2 0c-.03 0-.04.02-.04.04v.29c0 .03-.01.04-.04.02a.17.17 0 0 1-.06-.07c-.01-.03-.02-.03-.03 0l-.06.17-.02.01h-.02v-.1c.1-.12.08-.22-.05-.3.03-.03 0-.04-.13-.01a.54.54 0 0 0-.55-.02l-.12.04a.2.2 0 0 1-.12-.1v-.02l.03-.02h.03l.02.05c.02.03.04.03.06 0 .2-.21.34-.34.41-.37.38-.15.75-.34 1.09-.55ZM10.03 8.58c-.21.17-.45.27-.7.3-.08-.06-.03-.13.13-.2.03 0 .04 0 .04.04v.03c0 .03.01.04.04.03l.15-.1c.03-.01.03-.03 0-.04a.1.1 0 0 0-.06 0l.13-.12.18-.06c.04 0 .07 0 .08.02l.01.1Z" fill="#936A06"/><path d="M13.74 8.94c.05.1.06.27.02.53a1 1 0 0 0 .24.8c.06.08.06.3 0 .64l-.02.11c-.23.17-.44.3-.61.36-.22.08-.45.11-.69.1-.03-.01-.04-.03-.05-.06-.01-.4 0-.98.04-1.72l.03-.73c0-.04-.01-.05-.04-.05h-.03c-.03.01-.05.03-.05.06-.04.2-.1.52-.16.93-.12.7-.22 1.23-.3 1.58-.01.03 0 .04.02.04l.77.1c-.32-.03-.56-.01-.74.03a.73.73 0 0 0-.5.43v.04h.05a.26.26 0 0 1 .18-.08c.03 0 .04-.02.02-.04a.08.08 0 0 0-.03-.03c-.04-.02-.03-.04.02-.06l.49-.17c.06-.03.1 0 .12.06l.07.2c.02.04.04.06.08.08.04.01.07 0 .1-.01l.33-.19c.03-.02.04-.04.02-.07a.68.68 0 0 0-.2-.19c.2.05.32.18.35.38 0 .03 0 .05-.04.05-.06 0-.14.02-.25.05-.19.03-.32.05-.41.04l-.44-.03c-.08 0-.09.03-.03.08l.1.09c.05.04.1.05.16.05l.36-.04c-.38.16-.75.18-1.11.07-.04-.01-.06 0-.05.03l.02.73c0 .1.02.11.06 0l.1-.27c0-.03.02-.05.06-.04l.4.06-.34.5c-.02.03-.01.04.02.05l.55.13c.07-.03.12-.04.15 0 .02.01.03.04.03.07-.01.08.01.11.06.1l-.39.29h-.96l.37-.04c.01 0 .02 0 .03-.02v-.02c0-.03 0-.04-.02-.05l-.3-.05c.08-.2.12-.4.13-.6 0-.13 0-.32-.03-.57-.01-.14 0-.34.04-.6l.04-.33.04-1.34c.04-.2.04-.39-.02-.57a.68.68 0 0 0-.29-.3l.4-.19.05 2.02c0 .12.01.12.05 0 .04-.14.1-.37.15-.7l.09-.46c.14-.54.31-1.09.54-1.64 0-.02.03-.03.05-.02.1.03.22.09.38.18.28.15.52.23.72.22Z" fill="#1E3156"/><path d="m8.68 8.59.2.04c0 .03.02.05.04.06-.05.12-.1.15-.18.08a.5.5 0 0 0-.25-.14l-.01-.02v-.03c.01-.01.02-.02.03-.01l.17.02Z" fill="#01802D"/><path d="M9.63 8.64a.1.1 0 0 1 .06 0c.03.01.03.03 0 .05l-.15.09c-.03.01-.04 0-.04-.03v-.03c0-.04-.01-.05-.04-.03-.16.06-.2.13-.14.2l-.07.09a.1.1 0 0 0-.09-.05c-.02 0-.04.02-.05.04-.03 0-.06-.02-.08-.07.05-.02.05-.05.03-.1a.43.43 0 0 0-.14-.1.1.1 0 0 1-.04-.07c.25-.04.5-.04.75 0Z" fill="#A18975"/><path d="m8.32 9.07-.63-.01a.3.3 0 0 0 .06-.11c0-.03 0-.05-.04-.06a1.43 1.43 0 0 1-.4-.24l1.07.34c.04 0 .04.03.02.05-.01.02-.04.03-.08.03Z" fill="#5C3A0D"/><path d="m10.87 8.74.02.7-.21-.23-.2-.25c-.02-.02-.02-.04 0-.06.12-.07.25-.12.4-.16Z" fill="#595B70"/><path d="M11.96 8.77c-.03.23-.11.42-.24.57l-.4.2a.17.17 0 0 1-.1-.04.08.08 0 0 1-.03-.1.08.08 0 0 1 .07-.05.7.7 0 0 0 .32-.15c.06-.05.14-.14.24-.26l.14-.17Z" fill="#B4A9A7"/><path d="M9.25 8.98c-.02.04-.04.07-.08.08-.02 0-.04 0-.05-.02 0-.01-.01-.04 0-.07 0-.02.02-.04.04-.04a.1.1 0 0 1 .1.05Z" fill="#060B1B"/><path d="M13.98 11.02c.06.37.05.64-.03.82-.06.11-.1.23-.12.36 0 .04-.05.14-.13.3a.72.72 0 0 0-.1.32c-.25.33-.57.64-.93.92-.05 0-.07-.03-.06-.11 0-.03-.01-.06-.03-.08-.04-.03-.09-.02-.15.01a.8.8 0 0 0-.13-.7l.56.03c.03 0 .06 0 .08-.04l.02-.03c0-.02 0-.03-.02-.04l-.2-.04c-.08-.02-.2-.02-.38 0h-.23c-.06 0-.07-.02-.05-.07l.03-.04a.13.13 0 0 1 .1-.06c.2-.03.42-.01.64.04.04 0 .07.02.09.05.03.04.06.07.1.09.02.01.05.01.07 0l.25-.15a.06.06 0 0 0 .03-.05v-.03c-.02-.03-.04-.04-.07-.03-.22.06-.42 0-.6-.2l-.36.05a.2.2 0 0 1-.16-.05l-.1-.09c-.06-.05-.05-.08.02-.08l.44.03c.1 0 .23 0 .41-.04l.26-.05c.03 0 .04-.02.04-.04a.42.42 0 0 0-.34-.39h-.02l-.77-.1c-.03 0-.04-.01-.03-.04.09-.35.2-.87.3-1.58l.17-.93c0-.03.02-.05.05-.05h.03c.03-.01.04 0 .04.04l-.03.73c-.04.74-.05 1.32-.04 1.72 0 .03.02.05.05.05.24.02.47 0 .69-.09.17-.07.38-.19.61-.36Z" fill="#111E3B"/><path d="m8.32 9.07.21.07-.27.05c-.1 0-.2.04-.27.12-.02.02-.02.04 0 .06l.02.09c0 .03-.02.05-.06.04h-.04a.06.06 0 0 0-.05.06c-.05.29-.09.46-.13.51a.86.86 0 0 0-.16.61c-.11.14-.13.25-.06.34.1.12.27.15.52.1.18-.03.37-.1.57-.19.02 0 .03 0 .03.02v.04l-.01.01-.79.24a.67.67 0 0 1-.38-.17c-.02-.01-.04-.01-.05.01l.01.04c-.08-.06-.1-.06-.1 0a1.44 1.44 0 0 0-.7-.32l-.02-.11.62.24c.04.01.07 0 .08-.04a.5.5 0 0 1 .1-.19c.04-.04.06-.1.08-.18a6.55 6.55 0 0 1 .38-1.18l-.02-.05c-.02-.03-.05-.03-.07-.01-.1.06-.2.08-.3.04l.23-.26.63.01Z" fill="#A48C21"/><path d="m9.07 9.24-.04-.03c.01-.04.04-.08.07-.1.03-.03.04-.02.06 0v.04l-.01.03a.21.21 0 0 1-.08.06Z" fill="#2C4068"/><path d="M8.26 9.18c.1.53 0 .98-.33 1.36-.08.1-.2.14-.36.14a.86.86 0 0 1 .16-.6c.04-.06.08-.23.13-.52 0-.03.02-.05.05-.05h.04c.04 0 .06-.02.06-.05 0-.04-.01-.07-.03-.1-.01-.01 0-.03.01-.05a.43.43 0 0 1 .27-.13Z" fill="#DBBA4B"/><path d="M6.22 9.62c0 .04-.02.07-.06.08-.4.09-.82.1-1.28.03-.03 0-.05-.02-.05-.05v-.13c0-.03.03-.06.09-.08.42-.22.83-.23 1.23-.02.03.02.05.07.07.17Z" fill="#515268"/><path d="m10.68 9.21.2.23a.97.97 0 0 0-.2.41c-.01.03 0 .05.03.05h.05c.03 0 .04.01.04.04v.03c0 .03 0 .04.03.05.1 0 .2 0 .3-.03.22.04.18.06-.12.07-.06 0-.1.02-.13.04-.1.06-.11.13-.03.2l.03.1c-.01.07 0 .12.03.15-.02.02-.03.05-.03.08a.27.27 0 0 0-.01.17.7.7 0 0 0-.23-.46c-.05-.05-.06-.04-.05.02.03.14.07.26.14.36.07.1.09.2.06.33 0 .03-.02.05-.05.06-.15.08-.28.08-.4.01.07-.41.02-.83-.17-1.24l.04-.22.02.01.02-.01.06-.17c0-.03.02-.03.03 0l.06.07c.03.02.04 0 .04-.02v-.29c0-.02.01-.04.04-.04a.44.44 0 0 1 .2 0Z" fill="#DBBA4B"/><path d="m10.16 9.27-.07.1a.07.07 0 0 1-.07.02.17.17 0 0 1-.09-.03c-.03-.02-.03-.04 0-.06l.1-.05c.12-.02.16-.01.13.02Z" fill="#019746"/><path d="m6.6 10.69.87-1.37c.1.04.2.02.29-.04.02-.02.05-.02.07 0l.02.05-.01.06c-.16.38-.28.75-.37 1.13a.44.44 0 0 1-.08.18.5.5 0 0 0-.1.19c0 .04-.04.05-.08.04l-.62-.24Z" fill="#F4DD89"/><path d="M9.27 9.5c-.04-.04-.1-.06-.19-.05v-.07c0-.03 0-.05.03-.06a.2.2 0 0 1 .12 0c.03.01.05.03.06.06.02.04 0 .08-.02.13Z" fill="#A08D6A"/><path d="M9.28 9.5c0 .05-.02.08-.05.1-.03-.02-.07-.01-.1 0a.3.3 0 0 1-.04-.15c.08 0 .15.01.19.06Z" fill="#5C3A0D"/><path d="M10.2 9.57v.1l-.03.2h-.55c-.03 0-.04-.02-.02-.05l.1-.16c.02-.04.03-.04.04 0v.04c.01.02.02.02.05 0 .13-.06.21-.1.24-.14.07-.07.13-.07.18 0ZM9.23 9.6c.06.02.08.04.07.08-.04.05-.09.07-.15.06l-.06-.08a.18.18 0 0 1 .04-.06.15.15 0 0 1 .1 0Z" fill="#04C07D"/><path d="M9.58 10.37c-.02-.05-.1-.06-.2-.03-.05.01-.07.04-.06.1 0 .02.02.04.05.05.08.01.16 0 .22-.06-.02.08-.08.12-.18.13-.03 0-.04.02-.04.04l-.05.44v-.06c0-.03-.02-.05-.05-.05l-.1-.02-.03-.01a.06.06 0 0 1-.02-.07.8.8 0 0 0-.02-.37c.01-.1 0-.14-.07-.13a.9.9 0 0 1-.2 0c-.08-.11-.07-.18 0-.2a.97.97 0 0 0 .23-.07c.01.01.02.02.04.01.03-.01.04-.04.04-.07a.11.11 0 0 0-.06-.08v-.07c.16 0 .24-.02.25-.07l.02.3c0 .02.01.04.04.05l.2.06c.02.01.04.03.04.06a.2.2 0 0 1-.05.12Z" fill="#FDBF95"/><path d="M5.79 11.13h-.26c-.03 0-.05-.02-.06-.05l-.21-1.11c0-.05 0-.07.06-.07h.55c.03 0 .04.01.04.04-.06.3-.07.67-.04 1.1 0 .05-.02.09-.08.09Z" fill="#1E3156"/><path d="M11.62 10.4a.48.48 0 0 1-.3.24 1.3 1.3 0 0 0-.41-.09c-.03-.03-.04-.08-.03-.15.17.03.33.02.49-.03.03 0 .04-.03.04-.06v-.03c0-.02 0-.03-.02-.03l-.54.06c-.08-.08-.07-.15.02-.21a.26.26 0 0 1 .14-.04c.3 0 .34-.03.12-.07l.46-.16c.06.18.07.37.03.57Z" fill="#DAD4D7"/><path d="M10.2 10.07c-.06 0-.1-.01-.12-.03-.03-.02-.02-.04.01-.05a.1.1 0 0 1 .12.02c.01.02.02.03.01.04 0 .01 0 .02-.02.02Z" fill="#696868"/><path d="M7.14 12.2c.08.1.28.14.6.1l.06.02c.03.02.04.04.04.06-.01.06 0 .13.04.2v.02c.03.04.02.09 0 .13-.15.03-.21.08-.2.14l-.01.7-.01.36-1.15.09-.78-.02a5.79 5.79 0 0 1-2.54-3.66c.48-.13.82-.2 1.03-.24.33-.04.64-.04.94.02.05.01.07.04.08.1.02.45.1.8.25 1.04.02.03.04.04.07.04h.26c.06 0 .1-.02.14-.06a.19.19 0 0 0 .06-.14v-.79c0-.06.03-.1.09-.13.2-.08.44-.12.7-.1.02 0 .03 0 .01.03-.17.3-.28.54-.33.71-.09.27-.1.52-.04.77.03.1.11.2.24.3l.45.3Z" fill="#595B70"/><path d="m10.88 10.4-.03-.1.53-.05c.02 0 .03 0 .03.03v.03c0 .04-.01.05-.04.06-.16.05-.32.06-.5.03Z" fill="#B4A9A7"/><path d="M10.87 10.8v.42c-.01.03-.03.04-.05.02l-.03-.03c-.02-.02-.04-.02-.06 0a.28.28 0 0 1-.15.06c-.16-.05-.4-.13-.7-.25-.04-.02-.06 0-.07.03l-.04-.07-.01-.2v-.02l.02.01c.01.09.06.15.12.18.14.06.28.12.44.17.12.07.25.07.4 0a.09.09 0 0 0 .05-.07.4.4 0 0 0-.06-.33.92.92 0 0 1-.14-.36c-.01-.06 0-.07.05-.02.14.14.22.29.23.46Z" fill="#936A06"/><path d="M9.1 10.46h-.03a.9.9 0 0 0-.14 0c-.05 0-.08 0-.1-.02-.02-.02-.02-.06 0-.11a.9.9 0 0 0 .2 0c.06-.01.08.03.07.13ZM9.58 10.37l.01.06a.25.25 0 0 1-.22.06.06.06 0 0 1-.05-.06c-.01-.05 0-.08.06-.09.1-.03.18-.02.2.03Z" fill="#5C3A0D"/><path d="M11.4 13.84c-.11.01-.18 0-.2-.03l.05-3.05c-.01-.04.02-.08.08-.12a.48.48 0 0 0 .29-.24l-.04 1.34-.04.33c-.04.26-.05.47-.04.6.03.25.04.44.03.57 0 .2-.05.4-.12.6Z" fill="#0C1330"/><path d="M9.1 10.46a.8.8 0 0 1 .02.37c-.01.03 0 .05.02.07l.02.01a.18.18 0 0 0-.07.03c-.03-.15-.04-.3-.02-.48h.03Z" fill="#DBBA4B"/><path d="m11.25 10.76-.04 3.05c-.03.09-.13.13-.3.1-.05 0-.08-.04-.08-.1l.03-1.49V10.8a.27.27 0 0 1 .02-.17l.37.13Z" fill="#DAD4D7"/><path d="m7.32 11.12-.1.43a.22.22 0 0 0-.12 0c-.03 0-.03.02-.02.04l.03.02c.07.1.03.17-.13.2a.1.1 0 0 1-.08-.01l-.01-.01a.8.8 0 0 1-.26-.28l-.15-.22.12-.5c.26.04.5.15.72.33Z" fill="#EBE9DC"/><path d="m9.16 10.91.11.02c.03 0 .05.02.05.05v.06c-.11.02-.19-.01-.23-.1a.18.18 0 0 1 .07-.03Z" fill="#5C3A0D"/><path d="M9.81 11.05c.09.18.12.38.12.6 0 .11.05.17.16.17h.45c.06 0 .09-.03.1-.08a.83.83 0 0 0-.06-.47c.05 0 .1-.03.15-.07h.06l.03.04c.02.02.03.01.04-.02v-.04 1.14l-.33-.03a.68.68 0 0 0-.44-.09c.13-.02.27-.02.4 0h.01l.02-.03-.01-.02c-.05-.01-.08-.04-.1-.08l.05-.01c.07-.02.07-.04 0-.06l-.2-.02a.53.53 0 0 1-.29-.09h-.04v.03a5.07 5.07 0 0 1-.15-.94l.03.07Z" fill="#DBBA4B"/><path d="M10.58 11.27c.06.13.08.3.05.47 0 .05-.03.08-.09.08h-.45c-.1 0-.16-.06-.16-.17 0-.22-.03-.42-.12-.6.01-.04.03-.05.07-.03.3.12.54.2.7.25Z" fill="#F4DD89"/><path d="M7.83 11.24c.12.22.3.39.54.51.02.02.05.02.07 0a.08.08 0 0 0 .04-.06l.06-.39c.04-.24.06-.23.07 0 .02.49-.1.74-.34.78l-.24.03a2.95 2.95 0 0 1-.73.1v.03l.01.02h.38a.2.2 0 0 0 .08-.02.44.44 0 0 1 .2-.03l-.22.09c-.33.04-.53 0-.61-.1.02-.15.05-.28.1-.4v-.03H7.2c.05-.13.02-.18-.09-.15a.06.06 0 0 1-.03-.02c-.01-.03 0-.04.02-.05a.22.22 0 0 1 .12 0l.02.07c0 .02.01.02.03.02l.02-.01.02-.03.1-.48v-.03c0-.03.02-.03.04-.02.1.1.23.15.38.17Z" fill="#DBBA4B"/><path d="M6.48 11.29c.06.06.1.14.15.22a.8.8 0 0 0 .27.29.1.1 0 0 0 .08.02c.16-.04.2-.1.13-.2.11-.04.14.02.09.15l-.1.17a.07.07 0 0 1-.08.03c-.42-.07-.6-.3-.54-.68Z" fill="#B4A9A7"/><path d="M6.88 11.6c.03.04.07.05.1.03.02-.01.01-.06-.02-.1-.03-.04-.07-.05-.1-.04-.02.02-.01.07.02.1Z" fill="#5C3A0D"/><path d="m12.91 11.62.02.01c.08.06.14.12.19.19.02.03.01.05-.02.07l-.32.19a.12.12 0 0 1-.1 0 .12.12 0 0 1-.09-.07l-.07-.2c-.02-.07-.06-.09-.12-.06l-.5.17c-.04.02-.05.04 0 .06l.02.03c.02.02.01.03-.02.04a.26.26 0 0 0-.18.08h-.05a.03.03 0 0 1 0-.04c.09-.22.26-.36.5-.43.18-.04.42-.06.74-.04Z" fill="#3B445E"/><path d="M10.41 12.07c-.27.03-.44-.02-.49-.15l.01-.02c.01-.02.02-.02.04-.01.06.05.16.08.3.08l.19.03c.07.02.07.04 0 .06l-.05.01Z" fill="#A48C21"/><path d="M10.1 12.2c.18-.01.32.02.43.1-.06 0-.09.03-.09.07 0 .1-.01.2-.04.29l-.9.04a.72.72 0 0 1 0-.33c0-.03 0-.04-.04-.04h-.6l-.06-.03-.02-.02c-.04-.02-.05-.01-.05.03.02.13.02.26 0 .39l-.86.03c.03-.04.04-.09.02-.13l-.01-.03a.32.32 0 0 1-.04-.19c0-.02 0-.04-.04-.06l-.05-.02.22-.09c.38 0 .75-.03 1.13-.08.1-.01.2-.01.3.01.14.03.24.04.3.04l.4.02Z" fill="#A08D6A"/><path d="M9.5 12.7c-.07.05-.1.1-.1.13 0 .32-.02.64-.07.95.02.16 0 .23-.05.22l-.2.02-.06-.08c0-.08-.03-.17-.1-.26a.32.32 0 0 0 0-.19 1.59 1.59 0 0 1-.03-.53l.01-.12c0-.05-.05-.1-.17-.14.02-.13.03-.26 0-.39 0-.04.01-.05.05-.03l.02.02.06.03h.6c.04 0 .05.01.04.04a.72.72 0 0 0 0 .32Z" fill="#595B70"/><path d="m10.53 12.3.33.02-.03 1.5c0 .05.03.08.09.1.16.02.26-.02.29-.11.01.03.08.04.2.03l.28.05c.03 0 .04.02.03.05v.02l-.03.02-.37.04-.57-.04c.02-.1-.02-.2-.1-.3l-.05-.7c.05-.15 0-.24-.14-.25l-.06-.07c.03-.1.04-.2.04-.3 0-.03.03-.05.1-.07Z" fill="#515268"/><path d="m12.3 12.86-.1.02-.4-.06c-.04 0-.06 0-.07.04l-.1.28c-.03.1-.05.1-.05-.01l-.03-.73c0-.03.02-.04.06-.03.36.11.73.09 1.1-.07.2.19.4.25.61.19.03-.01.05 0 .07.03v.03c0 .02 0 .04-.03.05l-.25.15a.06.06 0 0 1-.07 0 .39.39 0 0 1-.1-.09.16.16 0 0 0-.09-.05 1.9 1.9 0 0 0-.64-.04.13.13 0 0 0-.1.06l-.03.04c-.02.05-.01.08.05.08l.23-.01a1.45 1.45 0 0 1 .58.04c.02 0 .03.02.02.04l-.02.03a.08.08 0 0 1-.08.04l-.56-.03Z" fill="#3B445E"/><path d="m10.4 12.66.06.07c-.1.02-.22.04-.4.05-.22.02-.4.05-.52.1-.03.01-.04.03-.04.07l.05.63-.18.23-.04-.03c.05-.31.08-.63.07-.95 0-.03.03-.08.1-.14l.9-.03Z" fill="#070B0F"/><path d="M8.73 12.7c.12.04.17.1.17.14v.12c-.03.25-.02.42.01.53.03.08.03.14.01.2l-.15-.15.02-.59a.11.11 0 0 0-.04-.09.12.12 0 0 0-.1-.03l-.97.04c-.01-.06.05-.1.2-.14l.85-.03ZM10.46 12.73c.14.01.19.1.15.26-.22-.08-.25.1-.1.5 0 .04 0 .06-.02.06l-.04-.01c-.04-.08-.12-.13-.24-.17a.65.65 0 0 1-.18-.07.06.06 0 0 0-.08 0l-.4.28-.05-.63c0-.04.01-.06.04-.07.12-.05.3-.08.53-.1.17 0 .3-.03.39-.05Z" fill="#01802D"/><path d="M8.77 13.54a1.44 1.44 0 0 0-.42-.15.37.37 0 0 1-.21-.14.07.07 0 0 0-.07-.03.07.07 0 0 0-.07.04.44.44 0 0 1-.19.2.14.14 0 0 0-.05.05.63.63 0 0 0-.07.24l-.02.01-.01-.01v-.19l.02-.7.98-.03.09.03c.02.03.03.06.03.1l-.01.58Z" fill="#019746"/><path d="M12.3 12.86c.15.2.2.43.13.7l-.55-.13c-.03 0-.04-.02-.02-.05l.35-.5.1-.02Z" fill="#060B1B"/><path d="m10.6 13 .05.69c.02.06.02.1.02.15 0 .03-.02.05-.06.04l-.62-.01.4-.01c.03 0 .05-.02.04-.05l-.01-.05c-.01-.03-.04-.04-.08-.04a1 1 0 0 0-.47.05c-.03 0-.05.03-.04.06 0 .02.01.03.03.05l-.42.02c-.03 0-.04-.01-.05-.04l-.02-.04.18-.24.4-.28a.06.06 0 0 1 .08 0c.04.03.1.05.18.07.12.04.2.1.24.17.01.01.02.02.04.01.02 0 .03-.02.02-.06-.15-.4-.12-.58.1-.5ZM8.77 13.54l.15.14c.07.1.1.18.1.26-.47.06-.92.06-1.36-.01v-.37.19l.01.01h.02c0-.1.03-.18.07-.25a.14.14 0 0 1 .05-.06c.1-.05.16-.12.2-.19a.08.08 0 0 1 .06-.04c.03 0 .05 0 .07.03.07.08.14.13.2.14.16.03.3.08.43.15Z" fill="#04C07D"/><path d="M8 13.78c.05-.04.06-.08.03-.12-.02-.02-.05-.03-.08-.02.24-.02.47 0 .7.07a.1.1 0 0 1 .08.1c0 .04-.03.07-.1.08-.25.01-.46-.02-.64-.1Z" fill="#65E4B6"/><path d="M7.95 13.64c.03 0 .06 0 .08.02.03.04.02.08-.04.13-.06.02-.1.02-.14.01-.03 0-.04-.03-.02-.05a.43.43 0 0 1 .12-.11Z" fill="#696868"/><path d="M10.75 13.98 9.28 14c.05.01.07-.06.05-.22l.04.03.02.05c0 .02.02.04.05.04l.42-.03c.05.02.1.02.13 0l.62.01c.03 0 .05-.01.06-.04 0-.04 0-.1-.02-.15.08.1.12.2.1.3Z" fill="#0672A5"/><path d="M9.99 13.87a.2.2 0 0 1-.13 0 .08.08 0 0 1-.03-.04c0-.03 0-.05.04-.06a1 1 0 0 1 .47-.05c.04 0 .07.01.08.04l.01.05c0 .03 0 .04-.04.05l-.4.01Z" fill="#65E4B6"/><path d="m10.75 13.98.57.04h.96a6.03 6.03 0 0 1-6.08.3c-.2-.1-.35-.2-.47-.32l.78.02c.45.06.89.07 1.33.03.21-.02.42-.03.62-.02l.62-.01.2-.02 1.47-.02Z" fill="#0C1330"/><path fill-rule="evenodd" d="M9 14.82A5.82 5.82 0 1 0 9 3.18a5.82 5.82 0 0 0 0 11.64ZM9 15A6 6 0 1 0 9 3a6 6 0 0 0 0 12Z" fill="#070B0F"/></svg>