<!-- by TradingView --><svg width="18" height="18" viewBox="0 0 18 18" xmlns="http://www.w3.org/2000/svg"><path fill="url(#a)" d="M0 0h18v18H0z"/><path d="M13.7 7.3a.93.93 0 0 0-.18.06.11.11 0 0 0-.05.05 4.66 4.66 0 0 1-.54 1.6c.07.14.12.3.15.46a2.39 2.39 0 0 1 0 .65l-.11.4a1.6 1.6 0 0 0-.06.4 2.94 2.94 0 0 1-.13.77l-.02.33v.42c0 .18-.04.35-.11.53-.09.2-.2.4-.34.59l-.02.02a.96.96 0 0 1-.15.13.63.63 0 0 1-.18.09.93.93 0 0 1-.28.03h-.01l-.17.17c-.09.09-.16.2-.22.3l-.07.14c-.02.03-.04.04-.07.04-.02 0-.04-.03-.04-.06l-.04-.33h-.01a.77.77 0 0 1-.16.16.95.95 0 0 1-.78.18 2.3 2.3 0 0 1-.18-.04l-.08.08c-.11.11-.2.2-.29.25l-.19.15c-.03.02-.05.03-.08.02-.03 0-.04-.02-.04-.06a2.24 2.24 0 0 0 .04-.36.68.68 0 0 0-.24.27l-.11.23c0 .02-.03.03-.05.03-.02 0-.04-.01-.07-.04a2.49 2.49 0 0 1-.3-.4c0-.02-.01-.02-.02-.02a.94.94 0 0 1-.57 0 24.23 24.23 0 0 0-.28-.13 1.32 1.32 0 0 1-.15-.1l-.02-.02h-.02l-.24.14a5 5 0 0 1-.26.15H6.9a.04.04 0 0 1-.01-.05c0-.01 0-.03.02-.04.04-.04.07-.1.08-.16 0-.01 0-.02-.02-.03a.82.82 0 0 1-.36-.25l-.15-.2a1.15 1.15 0 0 1-.1-.21 16.2 16.2 0 0 0-.32.35.17.17 0 0 1-.06.04c-.03.01-.05 0-.07-.03a4.2 4.2 0 0 1-.2-.95 11.5 11.5 0 0 1-.16.24c-.03.04-.05.07-.08.07-.02 0-.05-.01-.08-.05a2.81 2.81 0 0 0-.18-.29l-.18-.28a1.07 1.07 0 0 1-.1-.26 1.7 1.7 0 0 1-.03-.3 22.98 22.98 0 0 1 0-.5l.03-.2c-.1 0-.19-.02-.28-.03a.43.43 0 0 1-.1-.04c-.04-.01-.05-.04-.06-.08a4.58 4.58 0 0 1 .28-.3 3.63 3.63 0 0 0 .09-.13.57.57 0 0 1-.07-.18 2.18 2.18 0 0 1-.02-.46 2.83 2.83 0 0 1 .1-.7c-.1.03-.2.03-.31.02-.04 0-.07-.01-.1-.03-.01-.03-.01-.06.01-.1l.13-.19a2.08 2.08 0 0 0 .24-.52 6.58 6.58 0 0 1-.05-.14 1.55 1.55 0 0 1-.14-.57 3.7 3.7 0 0 1 .19-1.27l-.1-.07a1.6 1.6 0 0 1-.29.65.43.43 0 0 1-.23.17c-.06.01-.12 0-.16-.04A.2.2 0 0 1 4 7.35v-.17a4 4 0 0 0 .04-.4 4.75 4.75 0 0 1 .12-.6.4.4 0 0 1 .12-.17.33.33 0 0 1 .2-.08c.1 0 .2.03.28.08a7.51 7.51 0 0 1 .21.12l.05-.07c.09-.13.2-.22.34-.29v-.01a.62.62 0 0 1 0-.43.83.83 0 0 1 .6-.53h.01v-.01a2.24 2.24 0 0 1-.34-.21c-.04-.03-.05-.06-.04-.1a.1.1 0 0 1 .06-.04 1.6 1.6 0 0 1 .22-.03l.16-.02a4.08 4.08 0 0 0 .39-.14.8.8 0 0 0 .13-.11 22.27 22.27 0 0 0 .38-.44.87.87 0 0 1 .68-.3h.06a.9.9 0 0 1 .37.12h.01l-.14-.26a.19.19 0 0 1-.02-.09c0-.03.02-.05.06-.05l.06.03a4.07 4.07 0 0 1 .27.17c.13.08.27.14.42.17a.35.35 0 0 0 .3-.06.8.8 0 0 1 .14-.07l.1-.03c.14-.04.28-.06.43-.05.08 0 .15.01.22.03h.01a.4.4 0 0 0 0-.23c0-.04 0-.06.03-.08.02 0 .06 0 .1.04a5.78 5.78 0 0 1 .32.3c.17.02.33.05.5.1l.4.15a2.72 2.72 0 0 1 .85.54 2.45 2.45 0 0 1 .3.38l.05-.1.04-.04c.01-.02.03-.03.05-.02.02 0 .03.02.04.04l.05.15.1.43c.03.15.07.29.13.42a172.49 172.49 0 0 0 .2.52 1 1 0 0 1 .03.37.65.65 0 0 1-.14.36v.01a82.23 82.23 0 0 0 .65.02l.15.01c.06 0 .1.02.14.04.05.02.08.05.1.1v.15a.69.69 0 0 1-.04.19.17.17 0 0 1-.11.1c-.05 0-.1.02-.15.04Z"/><path d="M12.37 5.2c.03 0 .04-.02.04-.04-.02-.23.02-.45.1-.66h.02l.03.11.1.47c.02.1.05.2.1.32a34.23 34.23 0 0 0 .2.52c.03.1.05.21.04.33 0 .13-.05.25-.14.35l-.05.03a4.58 4.58 0 0 0-2.39.2.84.84 0 0 0-.3.2.66.66 0 0 0-.18.3h-.02l-.15.01c-.03 0-.04-.01-.05-.04l-.07-.23a.41.41 0 0 0-.27-.23 2.14 2.14 0 0 0-.54-.08l-.48-.02a102.45 102.45 0 0 0-2.55 0 7.16 7.16 0 0 0-.75-.56.66.66 0 0 1 .38-.33l.07-.03a.38.38 0 0 1 .15-.02c.02 0 .04-.01.05-.04 0-.04-.02-.05-.05-.06-.07 0-.13 0-.19.03l-.02-.01a.51.51 0 0 1 .05-.48.7.7 0 0 1 .38-.31.88.88 0 0 1 .36-.05h.1c.02 0 .04-.01.05-.04 0-.04-.02-.06-.05-.06H6.2a.29.29 0 0 1-.1-.03 2.4 2.4 0 0 1-.37-.23 2 2 0 0 0 .55-.11 3.69 3.69 0 0 0 .47-.2 6.37 6.37 0 0 1 .38-.19c.03-.02.03-.05 0-.08h-.04a40.14 40.14 0 0 1-.38.16c.06-.05.1-.11.15-.18l.16-.19a.7.7 0 0 1 .3-.19.86.86 0 0 1 .37-.04c.15.02.29.08.43.2l.25.19c.02.02.05.02.07 0 .02-.03.02-.05 0-.07a2.25 2.25 0 0 1-.4-.54l.3.19c.13.06.26.1.4.12.07 0 .14 0 .2-.03a1.54 1.54 0 0 0 .16-.08 1.3 1.3 0 0 1 .73-.09l.01.01c.02.04.05.05.09.04a.38.38 0 0 0 .09-.27c0-.01 0-.01 0 0l.28.27H10.41a2.41 2.41 0 0 1 .61.17l.18.06a2.17 2.17 0 0 1 1.16.97v.01c-.05.17-.06.34-.04.5 0 .04.02.06.05.06Z" fill="#B47E58"/><path d="M10.94 4.55a.23.23 0 0 1-.04-.04.04.04 0 0 1 0-.05l.04-.03c.01 0 .03 0 .04.02.09.08.16.17.22.26.1.17.18.33.2.46.02.13.02.28 0 .45-.01.02-.03.04-.06.05-.04-.01-.05-.03-.05-.06.03-.16.03-.3 0-.44a.7.7 0 0 0-.03-.14 2.1 2.1 0 0 0-.07-.14 1.28 1.28 0 0 0-.25-.34ZM9.13 5.44l.09.17c.01.03.01.05-.01.07-.03.02-.05.01-.07-.01a4.37 4.37 0 0 1-.3-.86c-.01-.03 0-.05.03-.05.04-.01.05 0 .06.03.04.18.1.4.2.65ZM7.78 5.26a1.7 1.7 0 0 0-.39-.07 3.85 3.85 0 0 0-.86.04c-.03 0-.05 0-.06-.04 0-.03.01-.05.04-.05.26-.05.52-.07.8-.06.2.01.36.04.48.08.03.01.05.03.04.06 0 .02-.01.03-.02.03h-.03ZM10.22 5.72c-.03-.01-.06 0-.07.03l-.13.43c0 .03 0 .06.03.07.03 0 .05-.01.06-.04l.14-.43c0-.03 0-.06-.03-.06Z"/><path d="M4.58 6.42a.07.07 0 0 0-.05-.02l-.04.02a.06.06 0 0 0-.01.04c0 .02 0 .04.02.05a.5.5 0 0 0 .1.08c.02.01.03.03.02.05-.04.23-.12.43-.24.6a.37.37 0 0 1-.19.14h-.03c-.02 0-.03-.02-.03-.05v-.07a9.27 9.27 0 0 1 .06-.72c.02-.14.05-.25.08-.32.05-.12.13-.17.25-.16.06 0 .13.03.2.07a43.99 43.99 0 0 1 .77.52 3.83 3.83 0 0 0 .2.18c.01.11 0 .22-.01.33l-.02.02h-.02a.4.4 0 0 1-.08-.05 2.6 2.6 0 0 1-.37-.26 27.8 27.8 0 0 1-.6-.45ZM10.03 7.42l.02-.02v-.03a.54.54 0 0 1 .04-.1c.05-.09.11-.17.2-.23.1-.06.24-.12.41-.15.2-.05.4-.07.6-.09a12 12 0 0 1 1.11-.03 165.09 165.09 0 0 0 1.37.04c.05.01.08.02.08.05l.02.03c0 .08-.01.15-.04.21 0 .02-.02.03-.05.03l-.3.1a.28.28 0 0 0-.14.14A151.76 151.76 0 0 0 13 8.5a4.4 4.4 0 0 1-.36.7 1.1 1.1 0 0 1-.64.43c-.13.03-.26.05-.4.04a2.31 2.31 0 0 1-.75-.18 1.05 1.05 0 0 1-.33-.21 2.92 2.92 0 0 1-.36-.43.77.77 0 0 1-.14-.4.2.2 0 0 0-.02-.08.1.1 0 0 0-.07-.04c-.03 0-.06 0-.1.02-.05.04-.1.1-.12.15l-.07.21a4.16 4.16 0 0 1-.19.5c-.05.08-.11.15-.18.2a.64.64 0 0 1-.23.15 5.56 5.56 0 0 1-.88.08 3.74 3.74 0 0 1-1.19-.25 1.64 1.64 0 0 1-.37-.24.72.72 0 0 1-.15-.16c-.06-.1-.1-.19-.13-.28a4.27 4.27 0 0 1-.14-.74l-.09-.44a.42.42 0 0 0-.1-.2.53.53 0 0 0-.19-.13V7.2c.02-.1.02-.21.02-.32l.01-.01a140.42 140.42 0 0 1 3.2.03 1.85 1.85 0 0 1 .35.07c.08.04.14.1.17.2l.05.17c.02.06.05.1.1.11l.13.02a.34.34 0 0 0 .2-.05Z" fill="#FF0001"/><path d="M6.3 9.03a.87.87 0 0 1-.16-.27 5.89 5.89 0 0 1-.3-1.18l-.05-.06a1.93 1.93 0 0 1-.2-.1 9.47 9.47 0 0 1-.6-.42 4.2 4.2 0 0 0-.23.55 2.83 2.83 0 0 1 .16-.72 74.56 74.56 0 0 1 .62.44l.07.04.07.01h.06c.04.02.08.04.12.08l.09.1.04.16a14.97 14.97 0 0 0 .32 1.37Z" fill="#93674E"/><path d="m6.3 9.03.15.18a1.78 1.78 0 0 0 .92.46 4.38 4.38 0 0 0 1.66.04c.1-.03.2-.08.28-.15a1.27 1.27 0 0 0 .32-.43 2.89 2.89 0 0 0 .16-.47c.03-.1.06-.15.1-.18v.01c0 .09.03.17.06.25a1.66 1.66 0 0 0 .26.4l.14.16c.1.1.2.2.32.26a2.59 2.59 0 0 0 .73.23c.16.02.32.03.47.01a1.28 1.28 0 0 0 .99-.69c.07.12.1.24.12.36.04.29.03.54-.03.74l-.07.27c-.04.14-.06.27-.07.37l-.01.28c0 .08-.03.19-.06.3a3.28 3.28 0 0 0-.07.46V12.22a3.5 3.5 0 0 1-.05.51c-.04.16-.1.31-.19.47l-.15.24c-.1.14-.21.23-.35.26l-.14.03v-.01c.13-.16.25-.32.33-.5l.1-.18c.02-.03.01-.05-.01-.07-.04-.02-.06-.01-.07.02l-.19.34c-.1.18-.24.33-.38.46a2.25 2.25 0 0 0-.4.5 3.8 3.8 0 0 1 0-.78c0-.03 0-.05-.04-.06-.03 0-.05.02-.05.05l-.03.4a1.4 1.4 0 0 0-.1.1.7.7 0 0 1-.3.2c-.14.04-.26.08-.36.09l-.21.03-.06-.01v-.01c.15-.16.28-.33.38-.52.02-.03.01-.05-.02-.07h-.03a.05.05 0 0 0-.03.01l-.03.05a2.89 2.89 0 0 1-.65.77 3.93 3.93 0 0 1-.28.2c.02-.11.03-.23.03-.34 0-.04 0-.06-.03-.07h-.04l-.04.02a.83.83 0 0 0-.32.36 4.44 4.44 0 0 0-.1.16 2.19 2.19 0 0 1-.4-.65 2.68 2.68 0 0 0-.06-.11c0-.03-.03-.04-.06-.03-.03.02-.03.04-.02.07a2.87 2.87 0 0 0 .14.3.76.76 0 0 1-.33.03l-.5-.3.17-.11c.03-.02.03-.04.02-.07-.01-.03-.04-.04-.08-.01l-.13.09a6.24 6.24 0 0 1-.54.32.4.4 0 0 0 .01-.12 1.27 1.27 0 0 0-.1-.43c-.01-.03-.03-.04-.06-.03-.03.01-.04.03-.03.06a.8.8 0 0 1 .07.19c-.02 0-.03 0-.05-.02a6.73 6.73 0 0 0-.23-.27 5.7 5.7 0 0 1-.2-.3c.03-.06.07-.1.12-.13.02-.01.03-.03.02-.06-.02-.03-.04-.04-.07-.02a.4.4 0 0 0-.13.12l-.36.45-.25-.8a4.61 4.61 0 0 1 0-.57c0-.03-.02-.05-.05-.05-.03 0-.05.02-.05.05l-.01.4v.03a2.73 2.73 0 0 0-.24.34l-.2-.31a1.2 1.2 0 0 1-.21-.4l.02-.13c0-.18.02-.36.06-.56l.09-.36c.14 0 .28-.03.4-.08l.02-.02a.05.05 0 0 0 0-.05.07.07 0 0 0-.03-.04h-.04v.01a.16.16 0 0 1-.06.03 1.3 1.3 0 0 1-.26.05 2.48 2.48 0 0 1-.63-.04v-.02l.18-.18a15.88 15.88 0 0 0 .42-.55c.02-.03.01-.05-.01-.07-.03-.01-.05 0-.07.02l-.2.28h-.02a.67.67 0 0 1-.05-.19l.02-.06.11-.53c.04-.16.1-.35.19-.56.06-.02.1-.06.15-.12a.05.05 0 0 0 0-.06c0-.02-.02-.02-.04-.02l-.04.03a.27.27 0 0 1-.12.09l-.3.07c-.1.02-.19.02-.27.02v-.01A3.51 3.51 0 0 0 4.83 9a14.03 14.03 0 0 0 .31-.96c0-.03 0-.05-.03-.06-.04 0-.06 0-.06.04a4.17 4.17 0 0 1-.18.56l-.05-.11a1.42 1.42 0 0 1-.08-.4v-.52l.04-.07A4.2 4.2 0 0 1 5 7c.19.15.38.28.58.42l.21.1c.02 0 .03.03.04.06l.06.22a14.1 14.1 0 0 0 .18.75l.07.21c.04.1.1.2.17.27Z" fill="#B47E58"/><path d="M12.53 9.04a1 1 0 0 1-.3.23c-.1.06-.22.1-.34.13a1.6 1.6 0 0 1-.68.02.93.93 0 0 1-.43-.18.82.82 0 0 1-.25-.32 1.5 1.5 0 0 1-.1-.34 4.98 4.98 0 0 1-.07-.88c0-.1.03-.2.07-.29.05-.11.14-.2.26-.25l.2-.05.2-.04.2-.02a12 12 0 0 1 1.57-.02l.09.03c.07.04.11.1.14.19.03.07.04.15.03.24a4.94 4.94 0 0 1-.35 1.15c-.07.15-.15.28-.24.4Z"/><path d="M12.78 8.42a2.5 2.5 0 0 1-.23.45l-.17.2a.83.83 0 0 1-.2.14c-.1.04-.18.08-.26.1-.11.03-.21.04-.3.05-.15.02-.3 0-.46-.03a.9.9 0 0 1-.25-.1.76.76 0 0 1-.32-.39 4.02 4.02 0 0 1-.16-1.08c0-.11.03-.22.08-.33a.36.36 0 0 1 .16-.16l.16-.07a2.51 2.51 0 0 1 .35-.06 9.37 9.37 0 0 1 1.71-.02c.04.03.08.06.1.1.05.07.06.17.04.3a6.28 6.28 0 0 1-.26.9ZM9.4 7.66c.03.1.04.21.02.35a3.22 3.22 0 0 1-.27.95.85.85 0 0 1-.1.15.46.46 0 0 1-.24.14c-.21.06-.44.08-.69.07a5.22 5.22 0 0 1-.6-.06 1.59 1.59 0 0 1-.32-.1 1.16 1.16 0 0 1-.35-.22.88.88 0 0 1-.21-.36 2.87 2.87 0 0 1-.16-1 .45.45 0 0 1 .08-.2c.04-.06.1-.1.16-.13a11.54 11.54 0 0 1 2-.01c.14 0 .26.03.37.07.07.02.11.04.14.07.05.03.08.07.1.12l.07.16Z" fill="#120F68"/><path d="m12.6 7.54-.26.28h-1.36l-.03-.01v-.03l.28-.28h1.36l.03.01-.01.03ZM8.77 7.6l-.27.27H7.13l-.02-.01v-.03l.27-.28h1.37l.02.01v.03ZM12.34 8l.27.28v.03c0 .01 0 .02-.02.02h-1.34l-.02-.01-.27-.28c-.01 0-.02-.02-.01-.03 0-.01.01-.02.03-.02h1.34l.02.01ZM8.5 8.05l.27.27v.04l-.03.01H7.38l-.27-.28v-.03c0-.02.01-.02.02-.02H8.5Z" fill="#9796BF"/><path d="m5.52 8.31.03-.12c0-.03.02-.04.05-.04.03 0 .05.03.05.06a.5.5 0 0 1-.03.13 1.67 1.67 0 0 1-.21.38l-.04.02h-.03v-.01c-.03-.02-.03-.04-.01-.07l.05-.08c.02-.02.07-.11.14-.27Z"/><path d="m10.96 8.78.27-.28h1.36l.02.01v.04l-.27.27-.02.01h-1.34c-.02 0-.03 0-.03-.02v-.03ZM7.11 8.83l.27-.28h1.37l.02.01v.03l-.27.28H7.1v-.04Z" fill="#9796BF"/><path d="M10.22 9.96c.03.05.06.09.09.11l.03.04c0 .02 0 .03-.02.04-.02.02-.03.02-.05.01a.39.39 0 0 1-.13-.15 2.36 2.36 0 0 1-.22-.49c-.01-.03 0-.05.03-.06h.01c.02 0 .04 0 .04.03l.06.16c.03.08.08.18.16.3Z"/><path d="M5.19 9.48a4.02 4.02 0 0 0-.3 1.1c0 .01 0 .03-.02.05A2.47 2.47 0 0 1 5 9.55l.02-.01.18-.06Z" fill="#93674E"/><path d="M6.03 9.9a.96.96 0 0 0-.25.44c0 .02-.02.03-.05.04-.03-.02-.05-.04-.04-.07.05-.2.15-.37.3-.5a.3.3 0 0 1 .1-.05c.02-.02.04 0 .06.02v.01l-.01.05a.32.32 0 0 1-.06.03.2.2 0 0 0-.05.04ZM6.44 11.55a1.13 1.13 0 0 1-.18-.17.71.71 0 0 1-.17-.42c0-.07 0-.12.02-.16l.05-.1.04-.13c.1-.17.24-.26.43-.28.11 0 .24 0 .37.02l.39.1a17.48 17.48 0 0 0 .75.2 6.76 6.76 0 0 0 2.47-.02l.1-.01c.17-.04.41-.1.7-.19l.41-.1c.12-.03.25-.05.37-.05.1 0 .17.02.24.06.07.04.12.1.15.18.06.16.07.31.03.46a.85.85 0 0 1-.16.3c-.08.1-.17.18-.27.24l-.26.15-.46.18a8.1 8.1 0 0 1-1.62.34 7.2 7.2 0 0 1-2.6-.23c-.2-.06-.37-.13-.52-.2-.1-.05-.19-.1-.28-.17Z"/><path d="M6.24 10.76v-.04c.07-.19.19-.3.37-.33h.19c.13 0 .27.03.45.08l.58.17a7.56 7.56 0 0 0 3.11-.02 15.56 15.56 0 0 0 .99-.25c.13-.03.25-.03.38-.02l.05.03c.07.03.12.1.15.19.04.13.04.26 0 .38-.05.11-.12.21-.2.3-.1.1-.22.18-.37.25-.18.1-.35.16-.51.21a9.53 9.53 0 0 1-1.03.27 7.44 7.44 0 0 1-3.5-.3 1.87 1.87 0 0 1-.54-.34.61.61 0 0 1-.17-.46c0-.01 0-.04.03-.08l.02-.04Z" fill="#FE9AFD"/><path d="M6.67 10.75c.12.1.26.19.43.26.38.16.77.24 1.14.26.2.01.39.02.58.01a44.4 44.4 0 0 0 1.73-.08c.38-.04.73-.1 1.05-.18.13-.04.25-.08.35-.14l.2-.1c.03-.02.06-.01.07.02.01.03 0 .05-.02.06a7.72 7.72 0 0 0-.28.15 7.15 7.15 0 0 1-1.96.33 57.6 57.6 0 0 1-1.67.04 3.56 3.56 0 0 1-1.4-.36 1.3 1.3 0 0 1-.28-.2c-.02-.01-.02-.03 0-.06l.02-.02.04.01Z"/><path d="m5.22 11.48-.09.37c-.04.19-.06.37-.06.55 0 .04 0 .08-.02.13a1.2 1.2 0 0 1-.05-.25 3.06 3.06 0 0 1 .04-.8h.18ZM6.06 13.84l-.08.08a2.96 2.96 0 0 1-.17-.87l.25.8ZM6.47 13.48a5.71 5.71 0 0 0 .43.56l.01.01c.02.02.03.02.05.02l.02.12h-.01a.72.72 0 0 1-.27-.18 2.03 2.03 0 0 1-.1-.13 1.08 1.08 0 0 1-.17-.34.2.2 0 0 1 .04-.06Z" fill="#93674E"/><path d="M9.4 13.78a1.96 1.96 0 0 0-.3.41.05.05 0 0 1-.05.02h-.02c-.02-.02-.03-.04-.02-.07.1-.17.21-.31.33-.44.06-.06.12-.1.16-.11l.05.01v.05l-.03.03a.43.43 0 0 0-.11.1Z"/><path d="M11.05 13.9a.75.75 0 0 1-.31.34.86.86 0 0 1-.66.08l.2-.03c.1-.01.23-.05.37-.1a.7.7 0 0 0 .3-.2 1.32 1.32 0 0 1 .1-.1ZM7.62 14.19l.51.3a5.3 5.3 0 0 1-.26-.07c-.1-.05-.2-.1-.3-.17-.02-.01-.02-.02 0-.03l.05-.03Z" fill="#93674E"/><defs><linearGradient id="a" x1="16.56" y1="4.74" x2="2.74" y2="18" gradientUnits="userSpaceOnUse"><stop stop-color="#01EAA9"/><stop offset="1" stop-color="#C039FC"/></linearGradient></defs></svg>