<!-- by TradingView --><svg width="18" height="18" viewBox="0 0 18 18" xmlns="http://www.w3.org/2000/svg"><path fill="#F0F3FA" d="M0 0h18v18H0z"/><circle cx="9" cy="9" r="6" fill="#0A286E"/><path d="m4.31 10.72.1.33h.36l-.29.2.11.34-.28-.21-.28.2.1-.33-.28-.2h.35l.11-.33ZM3.83 8.83l.1.34h.36l-.28.2.1.33-.28-.2-.28.2.1-.33-.27-.2h.34l.11-.34ZM13.97 6.95l-.11.33h-.35l.28.2-.1.34.28-.2.28.2-.11-.33.28-.2h-.35l-.1-.34ZM13.69 10.72l-.1.33h-.36l.29.2-.11.34.28-.21.28.2-.1-.33.28-.2h-.35l-.11-.33ZM14.17 8.83l-.1.34h-.36l.28.2-.1.33.28-.2.28.2-.1-.33.27-.2h-.34l-.11-.34ZM4.03 6.95l.11.33h.35l-.28.2.1.34-.28-.2-.28.2.11-.33-.28-.2h.35l.1-.34Z" fill="#FFCC53"/><circle cx="9" cy="9" r="4.59" fill="#F03337"/><circle cx="9" cy="9" r="4.2" fill="url(#akm00uffy)"/><path d="M13.2 9.05a4.2 4.2 0 0 1-6.57 3.42c.42-.6 1.46-1.7 2.5-1.7h.18c1.28 0 2.6.01 3.88-1.72h.01Z" fill="url(#bkm00uffy)"/><path d="M13.15 8.32c-.23.17-.66.54-1.34 1.18-1.01.96-2.16.93-2.7.91h-.15c-.42 0-1.85 0-2.85 1.65a4.23 4.23 0 0 1-.5-.58 3.48 3.48 0 0 1 2.75-1.43c1.92 0 2.77-.65 3.25-1.34.33-.46.96-.87 1.36-1.09.08.23.14.46.18.7Z" fill="url(#ckm00uffy)"/><path d="M12.45 6.6c.11.16.2.32.3.49-.31.1-.99.45-1.64 1.16-.87.93-1.57 1.46-3.06 1.46-1.42 0-2.15.32-2.82 1.14-.11-.22-.2-.45-.27-.7.32-.33 1.03-.8 2.13-.8 1.64 0 2.34-.33 3.15-1.2.74-.8 1.5-1.37 2.21-1.55Z" fill="url(#dkm00uffy)"/><path d="M11.69 5.77c.16.13.31.28.45.44-.76.06-1.76.79-2.48 1.55a3.95 3.95 0 0 1-3.06 1.2c-.93 0-1.52.3-1.78.52a4.25 4.25 0 0 1-.01-.79c1.74-.73 5.04-2.14 5.4-2.36a7.13 7.13 0 0 1 1.48-.56Z" fill="url(#ekm00uffy)"/><path d="M10.4 5.03c.25.1.5.2.72.34-.43.12-1.15.37-1.52.66-.53-.07-.64-.27-.63-.36.28-.17.9-.52 1.42-.64ZM9.42 4.82c-.3.1-.75.28-1.1.56a.92.92 0 0 1-.55-.4 4.2 4.2 0 0 1 1.65-.16Z" fill="#FBFEFF"/><path d="M4.8 8.72a4.2 4.2 0 0 1 2.97-3.74L10.2 6.3c-.28.24-.9.77-1.17 1.04l-.15.16a2.87 2.87 0 0 1-2.15 1.07 7.64 7.64 0 0 0-1.92.15Z" fill="url(#fkm00uffy)"/><path d="m7.85 6.36-.06.19.25.1-.29.02-.06.19-.12-.18-.28.02.21-.13-.11-.18.25.1.21-.13ZM6.73 6.36l-.06.19.25.1-.29.02-.06.19-.12-.18-.28.02.21-.13-.11-.18.25.1.21-.13ZM9.2 6.36l-.06.19.25.1-.3.02-.05.19-.12-.18-.29.02.22-.13-.11-.18.25.1.21-.13ZM8.24 7.28l-.07.2.25.1-.29.01-.06.2-.11-.18-.29.01.22-.13-.12-.18.25.1.22-.13ZM6.81 7.2l-.06.2.25.1-.3.02-.05.19-.12-.18-.29.02.22-.13-.11-.18.25.1.21-.13ZM7.04 8.06l-.06.1.25.06-.3.01-.05.11-.12-.1-.29.01.22-.07-.11-.1.25.05.21-.07ZM5.64 7.7l-.07.12.25.06h-.29L5.47 8l-.11-.1h-.3l.23-.07-.12-.1.25.05.22-.07ZM5.83 8.21l-.07.11.25.06h-.29l-.06.12-.11-.1h-.29l.22-.07-.12-.1.25.05.22-.07ZM7.26 5.45l.15.09.22-.14-.13.2.15.08-.23.03-.12.2-.02-.18-.23.03.22-.14-.01-.17Z" fill="#D9D9D9"/><path d="M4.65 6.6a4.96 4.96 0 0 1 8.63-.13l.3-.3a5.39 5.39 0 0 0-9.24.12l.31.3ZM12.14 12.91a4.79 4.79 0 0 1-6.33-.04l-.43.4a5.37 5.37 0 0 0 7.2.04l-.44-.4Z" fill="#FFF9FF" fill-opacity=".5"/><defs><linearGradient id="akm00uffy" x1="12.3" y1="6.53" x2="5.57" y2="11.18" gradientUnits="userSpaceOnUse"><stop offset=".15" stop-color="#E60000"/><stop offset=".54" stop-color="#660200"/><stop offset=".8" stop-color="#FB0208"/></linearGradient><linearGradient id="bkm00uffy" x1="8.29" y1="10.99" x2="9.75" y2="13.42" gradientUnits="userSpaceOnUse"><stop offset=".27" stop-color="#788289"/><stop offset=".76" stop-color="#fff"/></linearGradient><linearGradient id="ckm00uffy" x1="13.87" y1="7.34" x2="5.84" y2="11.24" gradientUnits="userSpaceOnUse"><stop stop-color="#FFEAFB"/><stop offset=".27" stop-color="#C4C2C5"/><stop offset=".45" stop-color="#fff"/><stop offset=".61" stop-color="#797A7C"/><stop offset=".81" stop-color="#FCFFFF"/></linearGradient><linearGradient id="dkm00uffy" x1="13.11" y1="6.21" x2="5.1" y2="10.79" gradientUnits="userSpaceOnUse"><stop stop-color="#FFEAFB"/><stop offset=".27" stop-color="#C4C2C5"/><stop offset=".45" stop-color="#fff"/><stop offset=".61" stop-color="#797A7C"/><stop offset=".81" stop-color="#FCFFFF"/></linearGradient><linearGradient id="ekm00uffy" x1="11.98" y1="5.97" x2="4.8" y2="9.48" gradientUnits="userSpaceOnUse"><stop stop-color="#FFEAFB"/><stop offset=".27" stop-color="#C4C2C5"/><stop offset=".45" stop-color="#fff"/><stop offset=".61" stop-color="#797A7C"/><stop offset=".81" stop-color="#FCFFFF"/></linearGradient><linearGradient id="fkm00uffy" x1="8.78" y1="5.45" x2="4.8" y2="8.85" gradientUnits="userSpaceOnUse"><stop stop-color="#082A6B"/><stop offset=".26" stop-color="#011D44"/><stop offset=".46" stop-color="#01245B"/><stop offset=".74" stop-color="#00112F"/><stop offset="1" stop-color="#00205A"/></linearGradient></defs></svg>