<!-- by TradingView --><svg width="18" height="18" viewBox="0 0 18 18" xmlns="http://www.w3.org/2000/svg"><path fill="#181B1E" d="M0 0h18v18H0z"/><path d="M6.83 4c.33 0 .67.09.97.26l3.43 2.13-.36.7-3.46-2.18c-.19-.1-.38-.16-.58-.15-.6 0-1.07.52-1.07 1.12v3.08H5V5.88c0-1 .79-1.87 1.83-1.88Zm5.46 3 .36.24.17.11c.25.16.52.33.73.54.27.27.45.62.45 1.11 0 .67-.34 1.27-.93 1.61-1.6 1-3.34 2.01-4.96 2.97h-.02c-.31.19-.7.42-1.2.42a1.9 1.9 0 0 1-.94-.25A2.07 2.07 0 0 1 5 11.99V10.4h.76v1.58c0 .43.22.9.56 1.1.19.1.38.15.56.15.29 0 .52-.13.87-.33l4.94-2.95c.35-.2.55-.55.55-.96 0-.31-.08-.47-.2-.6a1.6 1.6 0 0 0-.27-.2l-.18-.12-.2-.13-.1-.07V7Z" fill="#EE7E07"/><path d="M8 7c.34 0 .72.2.72.55v2.78H9V8.11c0-.32.13-.44.45-.44.3 0 .65.07.66.37v.14a.76.76 0 0 1 .5-.18c.27 0 .59.26.66.52a.77.77 0 0 1 1.02 0V7.31l.71.36v1.8c-.03.33-.3.53-.62.53a.74.74 0 0 1-.5-.19v.13c-.1.29-.37.4-.7.4-.4 0-.66-.17-.66-.52a.74.74 0 0 1-.49.18.74.74 0 0 1-.51-.17v.61c0 .37-.45.56-.75.56-.34 0-.77-.18-.77-.56V9.8c-.2.22-.62.33-.92.33-.47 0-1.04-.28-1.08-.74V9H5v-.67h1.34c.25 0 .53.16.53.42v.6c.01.06.05.1.2.1.14 0 .2-.05.21-.08v-1.8c0-.37.36-.57.72-.57Z" fill="#EE7E07"/><path d="M10.78 6a.78.78 0 1 0 0 1.55.78.78 0 0 0 0-1.55Zm.05.78c0 .02-.02.05-.05.05a.05.05 0 0 1-.06-.05c0-.03.02-.05.06-.05.03 0 .05.02.05.05ZM5.42 10.21a.74.74 0 0 0-.75.73c0 .4.34.74.75.74.42 0 .75-.33.75-.74 0-.4-.33-.73-.75-.73Z" fill="#EE7E07"/></svg>