<!-- by TradingView --><svg width="18" height="18" viewBox="0 0 18 18" xmlns="http://www.w3.org/2000/svg"><path fill="#951DE5" d="M0 0h18v18H0z"/><path d="M8.94 11.25c1.36 0 2.46-1 2.46-2.25 0-1.24-1.1-2.25-2.46-2.25-1.36 0-2.46 1-2.46 2.25 0 1.24 1.1 2.25 2.46 2.25Zm0 .75c1.81 0 3.28-1.34 3.28-3s-1.47-3-3.28-3C7.13 6 5.66 7.34 5.66 9s1.47 3 3.28 3Z" fill="url(#a)"/><path fill-rule="evenodd" d="M8.94 11.93c1.77 0 3.2-1.31 3.2-2.93s-1.43-2.92-3.2-2.92c-1.77 0-3.2 1.3-3.2 2.92 0 1.62 1.43 2.93 3.2 2.93Zm0 .07c1.81 0 3.28-1.34 3.28-3s-1.47-3-3.28-3C7.13 6 5.66 7.34 5.66 9s1.47 3 3.28 3Z" fill="#25140C"/><ellipse cx="8.94" cy="9" rx="2.46" ry="2.25" fill="#211114"/><ellipse cx="8.94" cy="9" rx="2.05" ry="1.88" fill="#1372F6"/><path d="M8.51 7.18c-.27.05-.52.15-.74.3.16.1.36.23.55.4.2.18.34.15.46.13.15-.03.25-.05.36.25.21.57.62.38.62.2 0-.2-.2-.57-.62-.76a2.2 2.2 0 0 1-.63-.52ZM8.7 10.88c-.27-.03-.53-.11-.76-.23l-.06-.08c-.05-.08-.1-.16-.17-.24a6.1 6.1 0 0 0-.62-.75c-.33-.38.41-.57.62-.38l.51.56c.2.24.41.47.51.57.15.13.09.36-.03.55ZM10.3 10.41c-.14.12-.31.23-.5.3-.35-.38-.7-.84-.45-.95.3-.13.72.33.96.65Z" fill="#80BEFA"/><path fill-rule="evenodd" d="M8.94 11.55c1.54 0 2.79-1.14 2.79-2.55 0-1.4-1.25-2.55-2.79-2.55S6.15 7.59 6.15 9c0 1.4 1.25 2.55 2.79 2.55Zm0 .07c1.59 0 2.87-1.17 2.87-2.62 0-1.45-1.28-2.63-2.87-2.63S6.07 7.55 6.07 9s1.28 2.63 2.87 2.63Z" fill="#25140C"/><path d="m8.8 10.69-.4-.56 1.16-.76.48.57v.94l-1.23-.2ZM10.55 7.6c.02.02.02.05 0 .07a.06.06 0 0 1-.08 0l-.2-.2a.05.05 0 0 1 0-.07.06.06 0 0 1 .07 0l.21.2Zm-.27.16c.04.04.04.1 0 .14a.11.11 0 0 1-.15 0L10 7.75a.09.09 0 0 1 .01-.13c.04-.04.1-.04.15 0l.13.13Zm-.3.27c.04.03.03.1 0 .13a.11.11 0 0 1-.16 0l-.13-.14a.09.09 0 0 1 0-.13c.04-.04.11-.04.15 0l.14.14Zm-.31.26c.04.04.04.1 0 .13a.11.11 0 0 1-.15 0l-.14-.13a.09.09 0 0 1 0-.14c.05-.04.11-.03.15 0l.14.14Zm-.3.26c.03.04.03.1-.01.14a.11.11 0 0 1-.15 0l-.14-.14a.09.09 0 0 1 0-.14c.05-.03.12-.03.16 0l.13.14Zm-.32.26c.04.04.04.1 0 .14a.11.11 0 0 1-.15 0l-.14-.14a.09.09 0 0 1 0-.13c.05-.04.12-.04.16 0l.13.13Zm-.3.27c.04.03.03.1 0 .13a.11.11 0 0 1-.16 0l-.13-.14a.09.09 0 0 1 0-.13c.04-.04.11-.04.15 0l.14.14Zm-.31.26c.04.04.04.1 0 .13a.11.11 0 0 1-.16 0l-.13-.13a.09.09 0 0 1 0-.14c.05-.04.11-.03.15 0l.14.14Zm-.3.26c.03.04.03.1-.01.14a.11.11 0 0 1-.15 0l-.14-.14a.09.09 0 0 1 0-.14c.05-.03.11-.03.15 0l.14.14Zm-.32.26c.04.04.04.1 0 .14a.11.11 0 0 1-.15 0l-.14-.14a.09.09 0 0 1 0-.13c.05-.04.12-.04.16 0l.13.13Zm-.27.3c.02.02.02.05 0 .07a.06.06 0 0 1-.08 0l-.2-.2a.05.05 0 0 1 0-.07.06.06 0 0 1 .07 0l.21.2Z" fill="#F7C407"/><path d="m7.58 8.63-.62-.38C6.63 7.5 7.51 7.19 8 7.12l.61.38c-.14 0-.4.04-.4.19s.13.31.2.37l-.82.56Z" fill="#F7EF0E"/><path d="m9.56 9.75-.96.56.2.19 1.03-.56-.27-.19Z" fill="#E3860C"/><path d="m3.08 10.42-.07-1.5c0-.12-.07-.68.25-.83.32-.16.62.1.76.24 0-.13.18-.48.5-.48.4 0 .54.14.73.26.16.1.4.15.53.22.13-.12.13-.12.5-.24.2-.06.64.02.64.02 0-.15.13-.2.2-.2.33 0 .4.27.4.4 0-.31.28-.4.41-.4.2 0 .3.04.4.2 0-.04.2-.2.61-.2.4 0 .54.4.6.59.07-.2.25-.58.41-.58.16 0 .2.13.2.2 0-.2.76-.13 1.01 0 .38-.13 1.01 0 1.21.18.2-.19.61 0 .81 0 .2 0 .4-.38.6-.38.21 0 1.22.38 1.22.58 0 .19-.2.57-.2.77 0 .15-.2.57-.3.57.25.17.1.27.1.58 0 .31-.27.39-.4.39-.28 0-.77-.05-1.1-.2-.32-.16-.31-.42-.25-.48-.2.19-1.38-.29-1.51-.36-.32.07-1.01 0-1.19-.12-.16 0-.2-.25-.2-.38 0 .3-.27.38-.4.38h-.4c-.17 0-.21-.25-.21-.38 0 .3-.13.38-.2.38h-.6c-.33 0-.41-.25-.41-.38h-.2c.06.06.16.23 0 .38-.17.16-.34.07-.4 0-.08.07-.25.2-.41.2-.2 0-.6-.2-.6 0 0 .19-.41.19-.61.38-.17.15-.48.06-.61 0a.6.6 0 0 1-.2.39c-.16.15-.47-.07-.6-.2 0 .31-.14.39-.21.39-.32.15-.67-.2-.8-.39Z"/><path d="M4.65 7.98c.1.14.16.28.2.44.01.1.04.18.07.25.03.08.06.17.07.26.04.2.12.41.2.61.03.1-.01.15-.12.17a.1.1 0 0 0-.05.02c-.06.06-.06.12 0 .19l.02.01a.06.06 0 0 0 .07-.03c.02-.04.07-.08.15-.14-.01.19-.1.3-.28.31l-.2-.05-.26-.98c.04 0 .06-.03.04-.1-.01-.02-.03-.03-.05-.02a.1.1 0 0 0-.05.07c-.03.18-.06.36-.06.53a2.14 2.14 0 0 1-.04.61c0 .02.02.02.03.02h.04l-.21.18-.1-.04c-.19-.28-.34-.61-.45-1a.2.2 0 0 0-.07-.1c-.02-.01-.03 0-.04.02-.03.22 0 .44.07.65.16.32.1.56-.17.73-.16-.04-.25-.12-.26-.25-.03-.58-.12-1.2-.1-1.82.02-.19.08-.35.3-.37-.02.05-.01.08.03.1l.06.04c.04.02.09.03.13.02.02 0 .04 0 .05.03.13.28.25.57.36.86v.04c0 .04 0 .04.03.02a.1.1 0 0 0 .03-.06.1.1 0 0 0-.01-.07.24.24 0 0 1-.04-.12h.02c.02 0 .03-.02.03-.04l.02-.41c.03-.18.05-.4.17-.53.1-.1.23-.13.37-.05Z" fill="#FCB618"/><path d="m4.87 8.12.4 1.64c-.1.06-.14.1-.16.14l-.02.03a.06.06 0 0 1-.07-.01c-.06-.07-.06-.13 0-.19a.1.1 0 0 1 .05-.02c.1-.02.15-.08.11-.17-.07-.2-.15-.4-.19-.61a1.17 1.17 0 0 0-.07-.26 1.3 1.3 0 0 1-.07-.25c-.03-.16-.1-.3-.2-.44l.22.14Z" fill="#F8F5A1"/><path d="M8.83 9.14c-.28.05-.37.12-.27.2l-.14.09-.04-1.15c0-.12.05-.2.16-.25a.12.12 0 0 1 .08 0c.1.03.15.07.16.13.04.34.06.67.05.98Z" fill="#F9CA0C"/><path d="M8.23 8.2a1.8 1.8 0 0 0-.03.83l-.01.09a.13.13 0 0 1-.06.06l-.08.03c-.03.02-.04.04-.04.07 0 .05.03.1.07.14a.33.33 0 0 1-.1.09.61.61 0 0 1-.17-.42c0-.05-.03-.1-.06-.14l.01-.01-.01-.03a.48.48 0 0 0-.35.02c.02.08.04.13.07.12l-.02.27v.11c0 .03-.02.05-.05.04a.14.14 0 0 0-.14.03.17.17 0 0 1-.22 0A.15.15 0 0 1 7 9.43a.39.39 0 0 1 0-.2c.02-.2-.02-.36-.09-.5l.02-.41c.02-.13.08-.2.18-.23.24-.05.33.3.36.45 0 .03.03.04.06.04l.19-.03c.04-.01.06-.04.06-.08v-.22c0-.06.03-.1.07-.15.04-.03.09-.06.14-.06.12 0 .2.04.24.15ZM14.38 8.91h.04l.02-.01a.04.04 0 0 0 0-.04l-.02-.02a.67.67 0 0 0-.38-.06c-.02.05-.03.1-.02.12 0 .04.04.06.08.07.21.03.55.16.53.42 0 .22-.12.35-.33.4-.02.01-.05.01-.07 0a.6.6 0 0 0-.3-.15c-.04 0-.05 0-.06.04v.02c0 .03.02.06.06.07.28.08.65.17.6.53-.01.17-.11.27-.3.28l-.71-.27c-.14-.05-.2-.14-.19-.26.04.06.09.1.14.13.05.02.09.01.1-.04a.1.1 0 0 0 .01-.06.14.14 0 0 0-.07-.1l-.1-.05a.07.07 0 0 1-.02-.03 5.48 5.48 0 0 1 .17-1.29.34.34 0 0 1 .06-.3.12.12 0 0 1 .06-.04c.05-.01.1-.05.13-.1v-.04l-.06-.02.06-.02c.25.05.6.1.85.2.13.05.19.15.18.3-.02.15-.2.45-.4.4-.05 0-.07-.03-.06-.08Z" fill="#FCB618"/><path d="m5.2 8.54.17 1.19.02.05.05.04a.14.14 0 0 0 .12 0l.04-.01a.21.21 0 0 0-.03.12c-.01.08 0 .14-.04.2-.14.2-.32.17-.55-.06.18-.02.27-.12.28-.31l-.39-1.64c.22.06.33.2.33.42Z" fill="#E58124"/><path d="m13.76 8.1.04.03c.01.01.02.03 0 .04a.22.22 0 0 1-.12.1.12.12 0 0 0-.06.04.34.34 0 0 0-.06.3v.09a5.48 5.48 0 0 0-.17 1.2l.02.03.1.05c.04.02.07.06.08.1a.1.1 0 0 1-.01.06c-.02.05-.06.06-.1.04a.37.37 0 0 1-.15-.13v-.38l.2-1.43a.64.64 0 0 1 .23-.13ZM3.78 8.3l.26.71c0 .04.01.08.04.12a.1.1 0 0 1 .01.07.1.1 0 0 1-.03.06c-.03.02-.04.02-.03-.02V9.2c-.1-.29-.22-.58-.36-.86 0-.03-.03-.03-.05-.03-.04.01-.09 0-.12-.02a1.24 1.24 0 0 0-.07-.04c-.04-.02-.05-.05-.04-.1.16-.01.29.04.4.16Z" fill="#F8F5A1"/><path d="M6.89 8.32v.05l-.03-.02c-.02 0-.03 0-.03.02-.01.05-.05.08-.1.1l-.4.1a.24.24 0 0 0-.1.1.4.4 0 0 0-.04.3c.02.1.07.16.15.15.07.12.28.02.38-.02a.1.1 0 0 1 .07 0c.08.02.13.07.18.13l-.02.08c-.12-.1-.2-.1-.27.05 0 .02 0 .05.02.06.02.03.06.05.1.06-.1.1-.25.16-.47.16-.1-.02-.21-.07-.34-.15a.78.78 0 0 1-.22-.43l-.02-.02-.04.02a3.59 3.59 0 0 0-.1-.55c.02.2.04.4.04.6 0 .04 0 .09.02.14.02.03.03.03.04 0v-.07c.05.2.11.4-.01.54l.02-.08c.02-.03 0-.05-.03-.06l-.09.01a.06.06 0 0 0-.04.06c0 .05.01.1.04.16l-.04.02a.14.14 0 0 1-.17-.05.12.12 0 0 1-.02-.05l-.17-1.2a.34.34 0 0 0 .07-.19l.4.07.13.09c.03.01.05.01.07-.01.2-.28.48-.42.84-.32.04.01.1.06.18.15Z" fill="#FCB618"/><path d="M8.22 8.2c.1.4.12.83.08 1.27-.04-.01-.05-.04-.04-.1 0-.02 0-.03-.03-.05h-.02c-.02 0-.04 0-.05.02a.26.26 0 0 1-.08.08.25.25 0 0 1-.07-.14c0-.03.01-.05.04-.07l.08-.03a.13.13 0 0 0 .06-.06.13.13 0 0 0 .01-.09 1.8 1.8 0 0 1 .02-.84Z" fill="#F8F5A1"/><path d="m13.53 8.24-.2 1.43v.38c-.02.12.05.21.19.26l.72.27a.25.25 0 0 1-.27.1 4.38 4.38 0 0 1-.88-.25c-.06-.03-.09-.09-.1-.18l.01-.34c.22-.1.3-.38.29-.58 0-.11-.06-.2-.15-.28a1.92 1.92 0 0 0-.42-.26v-.02c0-.03.02-.03.04-.02.15.06.3.14.42.24.02.02.03.01.04-.02.02-.1.09-.15.1-.26.02-.1.01-.2-.02-.25 0-.1.08-.18.23-.22Z" fill="#C16214"/><path d="M4.1 8.56v.4c0 .03-.02.04-.04.05h-.02l-.26-.7c.12.04.23.13.33.25Z" fill="#E58124"/><path d="m6.93 8.32-.02.4c-.15.02-.36-.02-.48.07-.1 0-.17-.04-.2-.11a.24.24 0 0 1 .09-.1h.41c.1-.03.16-.1.15-.21v-.05h.05Z" fill="#C16214"/><path d="M5.71 9.06v.18c-.01.04-.02.04-.04 0a.42.42 0 0 1-.02-.14 4.41 4.41 0 0 0-.03-.6c.05.19.08.37.1.56Z" fill="#F8F5A1"/><path d="M6.22 8.68c.04.06.1.1.21.1l-.1.34c-.07 0-.12-.04-.14-.15a.4.4 0 0 1 .03-.3Z" fill="#E58124"/><path d="M14.38 8.91a.78.78 0 0 1-.34-.13c.12-.02.25 0 .38.06l.02.02a.04.04 0 0 1 0 .04l-.02.01h-.04Z" fill="#F8F5A1"/><path d="m4.52 9.04-.1 1.1h-.06v-.03c.04-.2.06-.4.04-.59 0-.17.03-.36.06-.53a.1.1 0 0 1 .05-.07c.02-.01.04 0 .05.02.02.07 0 .1-.04.1Z" fill="#FDF119"/><path d="M7.75 8.95c.03.04.05.09.06.14a.76.76 0 0 1-.34-.04c-.03 0-.05-.04-.07-.12.12.04.23.05.35.02ZM5.99 9.49c.09.21.04.37-.14.47-.06.04-.12.03-.17-.03l-.05-.03c-.02 0-.04 0-.06.03 0-.04 0-.08.03-.12l.1-.09c.12-.14.06-.33.02-.54a.21.21 0 0 1 0-.12.1.1 0 0 1 .03-.02l.02.02c.03.17.1.31.22.43ZM4.52 9.04l.26.98c.04.1.02.21-.07.36-.12.2-.37.08-.5-.05l.22-.19.09-1.1Z" fill="#C16214"/><path d="M8.83 9.14v.14c-.1.1-.19.12-.27.07-.1-.1 0-.16.27-.21Z" fill="#F8F5A1"/><path fill-rule="evenodd" d="M13.32 8.71c.02-.11.01-.2-.02-.25-.43-.2-.76-.16-1 .13h-.01a.03.03 0 0 1-.03 0l-.01-.01a.5.5 0 0 0-.38-.37l-.04-.01c-.22-.05-.47-.1-.64.03a.08.08 0 0 0-.02.04l-.02.02c-.03.02-.04.02-.05-.02v-.06a.07.07 0 0 0-.06-.06c-.24-.08-.66-.16-.84.06-.03.04-.05.03-.07-.01a.18.18 0 0 0-.06-.1c-.33-.25-.48.38-.52.55-.02.1-.05.1-.08 0l-.17-.5c-.09-.25-.43-.14-.43.09 0 .11 0 .23.04.34l.3.74c.05-.04.1-.04.14 0l.02-.06a.05.05 0 0 1 .03-.04.06.06 0 0 1 .04 0 .1.1 0 0 1 .06.04c.01.03 0 .05-.02.07l-.05.05c.05.03.1.05.17.05.06-.04.1-.1.14-.17a9.01 9.01 0 0 1 .34-.65l.02.63c0 .13.04.18.12.15 0-.27.07-.25.24.08l.42.06c.03 0 .05 0 .07-.02.06-.05.11-.07.16-.07v-.06c.01-.02.03-.03.05-.02.12.04.2.11.24.21l.04-.01c.07-.1.1-.22.1-.34 0-.02.02-.03.03-.03h.03l.01.01c.02.23.11.55.4.53.04 0 .06-.01.09-.04.04-.05.08-.1.1-.17.02-.02.03-.02.06-.01.01-.05.03-.07.06-.07h.03l.02.03c.02.06 0 .12-.04.16h-.02a.03.03 0 0 1-.02 0h-.01l-.03-.05c0 .11.07.2.19.25.1.04.22.07.37.1l.2-.02c.2-.1.28-.38.28-.58 0-.11-.06-.2-.15-.28a1.92 1.92 0 0 0-.42-.26v-.02c0-.03.02-.03.04-.02.15.06.3.14.42.24.02.02.03.01.04-.02 0-.04.03-.08.05-.12.02-.04.04-.08.05-.14Zm-1.26.4a.05.05 0 0 0-.03.06l.12.2c.01.03.04.04.06.02a.05.05 0 0 0 .03-.06l-.12-.2a.05.05 0 0 0-.06-.02Zm.45.08c.07.08.15.13.26.17.04.02.06.05.08.07 0 .03 0 .05-.04.04a1.12 1.12 0 0 1-.4-.22.06.06 0 0 1-.03-.05l.01-.02c.02-.02.03-.02.05 0a.1.1 0 0 0 .07.01Z" fill="#FCB618"/><path d="m3.67 9.29-.04.57c-.08-.21-.1-.43-.07-.65 0-.03.02-.03.04-.02a.2.2 0 0 1 .07.1Z" fill="#F8F5A1"/><path d="M12.26 9.5v.08c0 .11.06.2.18.25.1.04.22.07.37.1l.02.05V10a.04.04 0 0 1-.03.01l-.23.02A.66.66 0 0 1 12 9.8a.04.04 0 0 0-.05-.01h-.01a.3.3 0 0 1-.13.1c-.02.01-.04 0-.07 0a.37.37 0 0 1-.2-.27c-.02-.05-.05-.07-.1-.06.07-.1.1-.22.1-.34 0-.02.01-.03.03-.03h.02l.02.01c.02.23.1.55.4.53.04 0 .06-.01.08-.04.05-.05.1-.1.12-.17 0-.02.02-.02.05-.01ZM7 9.24a.39.39 0 0 0 0 .2c0 .02.02.04.04.06l.07.04a.17.17 0 0 0 .15-.04.14.14 0 0 1 .14-.03c.03 0 .05 0 .05-.04v-.11l.03.19c0 .04 0 .09-.05.12a.2.2 0 0 1-.18.04c-.01 0-.02 0-.03-.02-.05-.08-.11-.1-.19-.04-.23.17-.47.18-.7.03.21 0 .37-.05.46-.16l.16-.17.01-.08h.05Z" fill="#C16214"/><path d="M10.46 9.47a.64.64 0 0 1-.24-.08c0-.27.07-.25.24.08ZM6.95 9.31l-.16.17a.35.35 0 0 1-.1-.06c-.01-.02-.02-.04 0-.06.05-.14.14-.16.26-.05Z" fill="#F8F5A1"/><path d="M10.22 9.4c.06.03.14.05.24.07l.42.06c.03 0 .05 0 .07-.02.06-.05.11-.07.16-.07l.2.19c-.14.16-.27.16-.38 0-.03-.03-.05-.03-.08 0l-.05.04a.1.1 0 0 1-.1.02c-.15-.06-.3-.08-.45-.07a.16.16 0 0 1-.11-.05.15.15 0 0 1-.05-.1l.01-.23c0 .13.04.18.12.15ZM9.35 9.33c-.01.01 0 .03.01.04.02.02.04.02.07 0 .05.04.1.06.17.06v.03c.02.02.01.04 0 .05-.08.15-.24.12-.32 0a.48.48 0 0 1-.07-.19c.05-.04.1-.04.14 0ZM8.83 9.28c.06.31-.32.47-.4.15l.13-.08c.08.05.17.03.27-.07ZM4.12 10.3a.12.12 0 0 0-.05-.06c-.03-.01-.05 0-.04.03a.48.48 0 0 1-.12.4.09.09 0 0 1-.05.03.46.46 0 0 1-.4-.11c.27-.17.33-.41.17-.73l.04-.57c.1.39.26.72.45 1Z" fill="#C16214"/><path d="M11.4 9.57a.26.26 0 0 1-.08.06l-.21-.2v-.05c.01-.02.03-.03.05-.02.12.04.2.11.24.21ZM5.7 9.72l-.1.09a.3.3 0 0 1-.04-.16c0-.03.02-.05.04-.06a.13.13 0 0 1 .09 0c.03 0 .04.02.03.05l-.03.08Z" fill="#F8F5A1"/><path d="m11.04 8.67-.07-.13a.26.26 0 0 0 .14-.16c0-.02.02-.02.04 0l.01.04c.01.18-.02.36-.08.55l-.02.03-.03.02a.12.12 0 0 0-.09.07c0 .03-.03.05-.07.04l-.22-.05h-.02a.04.04 0 0 1-.01-.03v-.01l.01-.03c.01-.02.03-.03.05-.02.17.08.35.04.38-.15.02-.08.01-.14-.02-.17Z" fill="#E58124"/><path d="M12.77 9.36a.56.56 0 0 1-.26-.17c-.17-.11-.24-.25-.19-.4.04-.1.06-.1.05.01 0 .11.01.2.1.28a4.02 4.02 0 0 0 .33.25l-.03.03Z" fill="#F8F5A1"/><defs><linearGradient id="a" x1="7.09" y1="6.75" x2="9.97" y2="11.86" gradientUnits="userSpaceOnUse"><stop stop-color="#EFD649"/><stop offset=".4" stop-color="#E630B5"/><stop offset=".85" stop-color="#8521C9"/><stop offset="1" stop-color="#8417D4"/></linearGradient></defs></svg>