<!-- by TradingView --><svg width="18" height="18" viewBox="0 0 18 18" xmlns="http://www.w3.org/2000/svg"><path fill="#09F" d="M0 0h18v18H0z"/><path d="M5.23 5.77c.04.2.06.35.05.45-.03.34 0 .67.07.98.02.04.04.06.09.05l.04-.02c.04-.01.06-.04.06-.09l-.04-.56.1.17a6.08 6.08 0 0 1 .01.7c0 .02-.02.02-.02 0a.06.06 0 0 0-.02-.02v-.09c-.01-.02-.02-.03-.04-.02-.3.01-.58.13-.82.34-.23.2-.4.45-.5.76l-.1.28c-.02.06 0 .07.04.02.1-.09.22-.17.36-.23.07-.03.16-.09.26-.18l.1-.09h.02l.01.03c-.33.33-.54.72-.62 1.18a.8.8 0 0 0-.06.3c0 .03 0 .03.02.01.12-.13.24-.25.38-.36a.88.88 0 0 0 .12-.15c.04-.06.07-.1.1-.12v.05c-.1.17-.18.37-.25.59l-.1.23v.03h.03a.34.34 0 0 1 .24-.07c.01 0 .02 0 .03-.02.03-.08.06-.12.1-.15-.09.28-.25.54-.47.78l-.17.14c-.03.02-.03.04.01.04.2.02.41 0 .61-.06l.05.01v.05c-.1.33-.1.64.05.94.03.06.04.06.06 0 .03-.26.11-.5.23-.72v-.05l-.02-.13v-.01h.04l.05.16c.06.16.1.27.15.34.17.3.37.61.6.9.02.03.03.03.02 0a2.2 2.2 0 0 1 .01-.48.1.1 0 0 0 0-.06c-.03-.05-.04-.09-.03-.12 0-.03.02-.03.03 0 .1.22.2.41.33.56.33.42.73.73 1.2.95.03.01.04 0 .02-.03-.1-.17-.17-.36-.2-.57 0-.03 0-.04.03-.02.32.18.6.43.82.75.01.02.02.01.03 0 .08-.21.11-.43.08-.67 0-.03 0-.06.03-.1.01-.01.02-.01.03.01l.04.11a1.5 1.5 0 0 0 0 .44l.05.37a3.75 3.75 0 0 1-.03.58h.03c.14-.12.27-.24.39-.37l.47-.56c.12-.15.21-.34.29-.58l.01-.01h.03c-.03.14-.06.25-.1.33a.65.65 0 0 0-.05.23c0 .12-.04.24-.1.36-.02.04-.01.04.02.03l.1-.04c.19-.09.33-.16.4-.22a4.03 4.03 0 0 0 .67-.56v.04l-.13.16a.07.07 0 0 0-.02.06c0 .11 0 .23-.02.36 0 .02 0 .03.02.02.51-.34.9-.76 1.18-1.27l.24-.42-.08.28v.05a1.27 1.27 0 0 1 .13.54 3.63 3.63 0 0 0 .36-.82c.04-.15.07-.37.1-.64.01-.17.04-.24.07-.22.02.21 0 .43-.03.66a.1.1 0 0 0 0 .05c.06.13.09.28.09.42 0 .12.01.12.04 0 .07-.23.13-.48.17-.75.03-.15.04-.32.04-.53a24.71 24.71 0 0 1 .01-.56h.03l.01.02.04.35.01.02c.15.18.25.36.3.56.02.05.03.05.05 0 .1-.45.12-.92.02-1.4l-.02-.14c0-.02 0-.03.02-.02l.04.03.01.01.06.34.03.04a.8.8 0 0 1 .12.2c.01.02.02.02.02-.01 0-.25-.03-.5-.1-.75a.43.43 0 0 0-.06-.13.35.35 0 0 1-.07-.15c.2.15.36.32.47.51.06.1.07.1.05-.02a3.32 3.32 0 0 0-.68-1.53 1.1 1.1 0 0 0-.17-.18l-.2-.16c.1.02.18 0 .24-.03h.1c.15.02.15 0 .02-.07l-.67-.32a.27.27 0 0 0-.12-.01c-.01 0-.02 0-.02-.02v-.02c0-.02.02-.03.03-.03.04 0 .08-.02.11-.03.03-.01.03-.03 0-.04a1.07 1.07 0 0 0-.51-.08v-.03l.03-.06c.21-.13.42-.22.61-.28.07-.02.07-.04 0-.07-.37-.15-.74-.2-1.08-.14l.35-.34c.03-.02.02-.03-.01-.03l-.3.03a.4.4 0 0 0-.11.02.37.37 0 0 1-.07.02h-.02v-.03l.5-.31.13-.08c.03-.02.02-.02 0-.03a2.06 2.06 0 0 0-.74.04c-.2.03-.36.06-.48.11h-.03v-.02l.01-.03c.13-.1.24-.22.33-.37 0 .07-.02.15-.06.22 0 .02 0 .03.02.03.14-.01.25-.05.31-.12a3.76 3.76 0 0 1 .78-.4c.11-.03.27-.13.5-.27h.02v.04c0 .02 0 .03-.02.04l-.12.08a.04.04 0 0 0-.02.04l.06.6c.02.16 0 .29-.02.4l-.07.27c0 .01 0 .02.02.03l.31.2c.03 0 .04.03.03.05 0 .03-.01.05-.04.06-.14.04-.28.12-.42.22-.02.01-.01.03 0 .04l.15.06c.07.02.12.08.15.17 0 .02.01.03.03.05.07.05.15.1.21.11.02 0 .03 0 .03-.02l.04-.34c0-.11.05-.35.13-.72.05-.22.07-.4.07-.53-.01-.18-.04-.36-.1-.54a5.1 5.1 0 0 0-.38-.86.33.33 0 0 0-.24.08c-.22.1-.45.21-.68.3-.12.05-.26.14-.41.28v.04l.07.09c-.07.07-.13.09-.18.06-.16.03-.32.08-.47.15a.64.64 0 0 0-.2.14 1.3 1.3 0 0 1-.23.18c-.05-.09-.05-.17-.01-.25.02-.06.01-.07-.04-.04-.15.1-.3.22-.42.38l-.03.02c-.04 0-.06-.01-.04-.05a8.05 8.05 0 0 0 .1-.26.98.98 0 0 0-.52.36.04.04 0 0 1-.04.01c-.01 0-.03 0-.03-.02l-.17-.3H9.2c-.01 0-.02 0-.02.02-.02.1-.07.2-.15.3a.05.05 0 0 1-.05 0 .05.05 0 0 1-.04-.03l-.06-.21c-.02-.06-.04-.06-.06 0-.03.1-.1.16-.24.18-.04 0-.05 0-.05-.04l.02-.09c0-.02-.01-.03-.03-.02a.64.64 0 0 0-.14.09c-.04.02-.06.01-.06-.04s.01-.1.04-.16c.04-.08.03-.1-.04-.05-.1.06-.19.14-.27.23a.06.06 0 0 1-.05.02c-.04 0-.09 0-.14-.03a1.33 1.33 0 0 0-.65-.33.3.3 0 0 1 .27 0c.08.03.09.02.03-.04-.1-.13-.24-.23-.41-.32a27.9 27.9 0 0 0-1.62-.76c0 .44-.04.86-.11 1.25 0 .02-.02.03-.04.04-.01 0-.03 0-.05-.03.06-.34.09-.75.1-1.2 0-.07.02-.11.07-.12A23.56 23.56 0 0 1 7 4.66c.28.14.52.34.7.6.03.05.12.12.26.2.02.02.03.01.04 0 .12-.12.25-.2.4-.25h.04v.04l-.04.11c-.02.08 0 .1.07.06a.25.25 0 0 1 .1-.04s.02 0 .02.03v.06c.02.06.04.07.09.03a.7.7 0 0 0 .14-.22l.03-.02c.02 0 .03.01.03.02l.08.22c.03.08.06.08.1 0a.96.96 0 0 0 .07-.24c0-.02.01-.03.03-.01.1.08.19.17.25.28.02.03.04.03.06.01a.97.97 0 0 1 .56-.3h.03v.04l-.05.1v.02h.04c.1-.11.22-.2.38-.27h.03l.02.03v.1c-.05.12-.03.13.06.04.12-.13.27-.23.45-.28.11-.04.19-.07.24-.11l.2-.19c.12-.11.26-.2.44-.28a115.5 115.5 0 0 1 .92-.35c.05 0 .08.02.1.06.12.25.23.5.32.8.09.27.13.55.12.83 0 .12-.04.33-.1.62l-.08.32c-.02.17-.04.34-.04.5 0 .03.01.05.03.06.12.06.22.14.3.25.03.02.02.03-.01.03-.1-.01-.22 0-.36.02v.02c.13.1.25.23.34.36a3.19 3.19 0 0 1 .59 1.7c0 .14-.01.15-.07.03a2.61 2.61 0 0 0-.29-.46c-.04-.06-.06-.05-.04.02.06.3.08.59.07.86 0 .02 0 .03-.02.04l-.02.01h-.03l-.01-.02a.44.44 0 0 0-.12-.26c-.01-.02-.02-.02-.02 0 .02.42-.02.83-.14 1.25-.02.07-.04.07-.06 0-.08-.3-.17-.54-.28-.7-.02-.03-.03-.03-.03 0a3.5 3.5 0 0 1-.32 1.53c-.03.06-.06.05-.06-.01l-.06-.46c0-.03-.01-.04-.02 0-.1.36-.27.7-.48 1.03-.05.07-.07.06-.06-.02 0-.22-.02-.43-.07-.64-.01-.03-.02-.03-.04 0-.3.59-.75 1.05-1.35 1.4h-.04a.04.04 0 0 1-.01-.05l.06-.32c.02-.1 0-.11-.08-.04-.16.17-.36.3-.6.4l-.37.16c-.06.02-.07 0-.05-.05l.12-.3c.04-.12.03-.13-.05-.03l-.45.52a2.1 2.1 0 0 1-.54.45h-.03a6.42 6.42 0 0 0 .02-.97c0-.02 0-.02-.01 0l-.08.22-.04.02c-.01 0-.02 0-.03-.02a2.49 2.49 0 0 0-.7-.71c-.05-.03-.06-.02-.04.03.04.15.12.33.24.52.04.06.02.08-.04.05-.32-.12-.6-.29-.86-.5a3.47 3.47 0 0 1-.71-.83c-.02-.03-.03-.02-.03.01l.03.38c0 .04.03.1.08.2l.04.07v.03h-.04a4.18 4.18 0 0 1-.97-1.45l-.01.01a6.08 6.08 0 0 0-.28.8L5 11.85c-.2-.33-.26-.68-.16-1.06 0-.02 0-.02-.02-.02-.22.05-.44.05-.66 0l-.02-.01v-.03c.06-.08.12-.14.17-.18.17-.15.3-.32.4-.5.03-.05.02-.06-.02-.05l-.26.14c-.07.04-.1.02-.06-.06a7.43 7.43 0 0 0 .2-.55c-.16.12-.28.24-.36.36-.05.07-.07.06-.07-.02.03-.48.17-.9.4-1.28.03-.04.02-.05-.02-.03-.16.09-.3.2-.45.33-.01.02-.03.02-.04.02-.02 0-.02 0-.02-.03.03-.04.05-.12.08-.23.05-.24.15-.47.3-.71.22-.32.5-.55.87-.67.02 0 .02-.02.02-.04a1.82 1.82 0 0 1-.07-.32 5.3 5.3 0 0 1 .03-1.14Z" fill="#060504"/><path d="m5.47 4.06.01.12.03.04a8 8 0 0 0 .8.37c.17.07.28.12.33.17.09.07.17.17.26.28.1.11.15.28.17.49l.01.02.22.11s.01 0 0 0a1.2 1.2 0 0 0-.17-.42v-.03h.02l.1.11c.08.17.14.3.17.42.03.09 0 .1-.06.05a1.2 1.2 0 0 0-.22-.13c-.1-.04-.1-.03-.05.05.08.09.09.18.04.28-.03-.1-.07-.16-.12-.19-.16-.1-.33-.18-.5-.25-.04-.02-.05 0-.03.03l.1.17.14.43c-.11-.15-.22-.26-.34-.33-.02 0-.02 0-.02.02l.02.13.04.24c0 .02 0 .03-.03.03-.01 0-.04-.01-.07-.04l-.23-.38c-.03-.05-.05-.04-.07.01l-.01.04a3.9 3.9 0 0 0 0 1.32c0 .02 0 .04-.02.04l-.02-.02-.03-.11a.79.79 0 0 0-.08-.24 1.7 1.7 0 0 0-.33-.36h-.02l-.01.02v.03l.04.56c0 .05-.02.08-.06.1h-.04c-.05.02-.07 0-.09-.04-.08-.31-.1-.64-.07-.98.01-.1 0-.25-.05-.45l.04-.45.05.03.04-.04c.06-.4.1-.8.11-1.25Z" fill="#30190F"/><path d="M7.2 5.18c-.04 0-.05 0-.05.02h-.02v.04c.08.12.14.26.18.41l-.01.01-.22-.1a.03.03 0 0 1-.01-.03.92.92 0 0 0-.17-.5 2.1 2.1 0 0 0-.26-.27c-.05-.05-.16-.1-.32-.17a8 8 0 0 1-.84-.41v-.12c.55.24 1.09.5 1.6.76.18.09.32.2.42.32.06.06.05.07-.03.04a.3.3 0 0 0-.27 0Z" fill="#362722"/><path d="m11.16 5.26.06-.11a.42.42 0 0 0 .1-.13c.05.03.11 0 .18-.06.28-.22.58-.42.9-.58.05-.02.09-.07.12-.13a.33.33 0 0 1 .25-.08 5.1 5.1 0 0 1 .38.86c.05.18.08.36.09.54 0 .13-.02.3-.07.53A6.08 6.08 0 0 0 13 7.16c0 .02-.01.03-.03.02a.69.69 0 0 1-.21-.11.08.08 0 0 1-.03-.05c-.03-.09-.08-.15-.15-.17l-.15-.06c-.01-.01-.02-.03 0-.04.14-.1.28-.18.42-.22.03-.01.04-.03.04-.06 0-.02 0-.04-.03-.06l-.31-.19c-.02 0-.02-.02-.02-.03l.07-.28c.03-.1.04-.23.02-.4l-.06-.59c0-.02 0-.03.02-.04l.12-.08c.02 0 .03-.02.03-.04v-.02l-.01-.02h-.03c-.22.14-.38.24-.48.27a3.76 3.76 0 0 0-.79.4c-.06.07-.17.11-.31.12-.02 0-.03 0-.02-.03a.46.46 0 0 0 .07-.22Z" fill="#30190F"/><path d="m6.4 5.48-.02.01v.03l.16.3c.03.06.02.08-.03.04a.57.57 0 0 0-.17-.08H6.3a.05.05 0 0 0-.02.05l.02.15c0 .1-.02.11-.06.02a.75.75 0 0 0-.16-.23c-.03-.03-.06-.03-.08 0a.22.22 0 0 0-.05.09c-.05.2-.07.42-.06.64 0 .02-.01.03-.03.02l-.02-.01-.01-.02-.1-.66a1.57 1.57 0 0 1 0-.47l.1-.6c0-.03 0-.03.02-.02a1.69 1.69 0 0 0 .45.38c.17.08.29.15.35.2.11.08.2.18.25.3.02.03.01.04-.03.02a1.29 1.29 0 0 0-.47-.16ZM12.15 5.83c.03-.03.02-.04-.01-.03l-.3.03c-.03 0-.03 0-.01-.02.14-.12.29-.2.44-.27a.14.14 0 0 0 .06-.04v-.03a.03.03 0 0 0-.02-.02c-.27-.04-.51-.05-.74-.03-.07.01-.08 0 0-.04a6.97 6.97 0 0 1 .79-.38.69.69 0 0 1 .08-.05c.01 0 .02 0 .03.02v.1a.63.63 0 0 0 0 .13c.05.24.07.42.07.53a.9.9 0 0 1-.12.45c-.02.03-.04.05-.08.04a2.05 2.05 0 0 0-.48-.05c-.06 0-.07-.02-.02-.06l.12-.09a.07.07 0 0 0 .03-.04.16.16 0 0 1 .09-.1.3.3 0 0 0 .07-.05Z" fill="#82503A"/><path d="M11.32 5.02a.42.42 0 0 1-.1.13.93.93 0 0 0-.23.07 3.57 3.57 0 0 0-.61.4.35.35 0 0 1-.08.06c-.02.02-.03.01-.02-.01a.28.28 0 0 1 .14-.18c.08-.05.16-.1.23-.18a.64.64 0 0 1 .2-.14c.15-.07.3-.12.47-.15Z" fill="#F9F4E4"/><path d="m11.22 5.15-.06.1c-.1.16-.21.29-.34.38l-.01.03v.01h-.02a.15.15 0 0 0-.06.05.68.68 0 0 1-.1.11c-.07.06-.06.07.02.05l.04-.02a.19.19 0 0 1 .07-.03l.34-.1a7.41 7.41 0 0 0 .6-.12c.06-.01.14 0 .23.03l-.5.31v.03h.02l.07-.02a.4.4 0 0 1 .12-.03c.1 0 .2 0 .29-.02.03 0 .04 0 .01.03l-.35.34-.15.13c-.07.07-.06.09.03.06.32-.1.61-.1.9-.04.1.03.1.05 0 .06-.14.03-.24.12-.3.28a.15.15 0 0 0-.05.06v.03h.05l-.15.17c-.02.02-.02.03 0 .03.06 0 .1-.02.15-.06a.05.05 0 0 1 .04 0h.22v.04l-.04.02-.01.02.01.02.04.02.08.03c.09.01.17.04.23.08a5.54 5.54 0 0 0 .45.25c-.06.04-.13.05-.24.03a.3.3 0 0 0-.16-.07c-.04 0-.04 0-.02.03.24.24.46.51.67.83.15.21.25.41.32.6.05.14.03.16-.08.05a6.96 6.96 0 0 0-.34-.32h-.02v.03l.16.23c0 .04.03.1.07.15l.07.13c.06.25.09.5.09.75 0 .03 0 .03-.02 0a.8.8 0 0 0-.12-.19.1.1 0 0 1-.03-.04l-.06-.34v-.01l-.05-.03c-.01 0-.02 0-.02.02l.02.14-.13.7c-.02.11-.05.12-.08 0a3.93 3.93 0 0 0-.24-.7c-.03-.05-.04-.05-.05.01-.02.4-.12.78-.28 1.15-.03-.02-.06.05-.07.22a.8.8 0 0 1-.05-.43l-.02-.02c-.01 0-.02 0-.02.02-.03.17-.07.35-.13.54l-.04.02c-.04 0-.06.04-.07.12a.71.71 0 0 1-.18.34l-.24.42.06-.7-.01-.03h-.03a.14.14 0 0 0-.04.07 2.9 2.9 0 0 1-.3.56c-.19.18-.36.37-.5.55-.1.11-.11.1-.06-.03.04-.1.08-.25.12-.43.02-.11 0-.12-.05-.02l-.01.02c-.08.14-.16.25-.22.31-.11.12-.23.22-.35.32-.07.06-.08.05-.04-.03.07-.12.13-.26.18-.4.05-.16.03-.16-.05-.02a1.4 1.4 0 0 1-.34.35c-.02.02-.03.01-.03-.02a4.19 4.19 0 0 1 .15-.84c-.02-.08-.04-.08-.08-.02a4.76 4.76 0 0 1-1.32 1.74c-.01.02-.03.01-.04 0a.84.84 0 0 1-.13-.35 37.05 37.05 0 0 1-.15-1.15c0-.03 0-.03-.02 0-.09.3-.15.56-.17.8 0 .06-.03.07-.06.02a.86.86 0 0 1-.1-.27v-.02H8.1c-.01 0-.02 0-.02.02v.3c0 .02 0 .03-.02.03h-.02c-.17-.18-.3-.38-.42-.58-.06-.1-.11-.22-.15-.33a4.33 4.33 0 0 0-.12-.35c-.02-.05-.04-.05-.04.01-.05.39-.04.78.04 1.19 0 .06 0 .07-.04.01l-.42-.74a2.24 2.24 0 0 0-.3-.44c-.04-.05-.05-.04-.04.02a2.74 2.74 0 0 0 .2.82l-.01.01h-.03a3.66 3.66 0 0 1-.36-.73.83.83 0 0 0-.24-.27.06.06 0 0 0-.04-.02h-.03c-.02 0-.03 0-.04-.02l-.12-.4c0-.02-.02-.02-.03-.01h-.01v.04l.04.57a1.65 1.65 0 0 0 .06.25v.02h-.03c-.22-.3-.39-.62-.5-.96 0-.02-.02-.03-.04-.02-.04 0-.08-.02-.1-.07a.24.24 0 0 1 0-.13.97.97 0 0 0 .03-.15c0-.02 0-.03-.02-.01l-.18.24h-.05l-.01-.01c.1-.15.16-.3.2-.46.01-.05 0-.06-.04-.02-.2.22-.47.38-.8.47.23-.24.4-.5.49-.78a.8.8 0 0 1 .2-.31.52.52 0 0 0 .07-.08c.04-.1.02-.11-.06-.05l-.52.41c.07-.21.15-.4.25-.58v-.05c-.03-.03-.04-.05-.03-.07.07-.2.15-.39.24-.57.04-.08.03-.09-.04-.04a1.72 1.72 0 0 0-.54.7c-.06.1-.12.2-.2.3a2.11 2.11 0 0 1 .63-1.18v-.02h-.02c-.03.01-.06.04-.1.08-.1.09-.2.15-.27.18a1.3 1.3 0 0 0-.36.23c-.05.05-.06.04-.04-.02l.1-.28c.01.07.04.06.08-.03.15-.3.36-.54.63-.74.02-.02.03-.01.03.01 0 .03-.01.06-.04.09a.04.04 0 0 0-.01.05v.02h.01c.12-.1.25-.19.4-.26a.51.51 0 0 1 .18-.05c.03 0 .04 0 .06-.02a.09.09 0 0 0 .02-.06l.02.02c0 .02.01.02.02 0l.01-.03c0-.2 0-.43-.03-.67.19.25.29.54.3.85l.02.01.02-.02v-.02a.54.54 0 0 1 .04-.33c0 .02.01.02.02.02.02 0 .03-.02.02-.04a3.9 3.9 0 0 1 0-1.32c0 .05.02.09.04.13a3.73 3.73 0 0 1 .1.22c.06.2.12.33.18.4.05.08.06.07.03-.01a6.15 6.15 0 0 0-.1-.37c0-.02.01-.02.03-.02.02 0 .03 0 .03-.02.03.03.06.04.07.04.02 0 .03-.01.03-.03L6.38 6c.1.04.18.11.23.21 0 .02.02.03.03.03l.15.03c.02 0 .02 0 .02-.03-.02-.09-.05-.11-.1-.06l-.13-.43.05-.02V5.7c0-.02 0-.03.02-.02.22.08.37.24.45.48 0 .01.02.02.03.01l.01-.01v-.17c.04-.1.03-.2-.05-.28-.06-.08-.04-.1.05-.05l.22.13c.07.06.1.04.06-.05a3.4 3.4 0 0 0-.16-.42c.22.06.4.18.56.35.03.04.04.03.04-.02v-.14c.04.02.09.03.13.03.02 0 .04 0 .05-.02.08-.09.17-.17.27-.23.07-.04.08-.03.04.05a.31.31 0 0 0-.04.16c0 .05.02.06.06.04a.64.64 0 0 1 .14-.09c.02 0 .03 0 .03.02l-.02.09c0 .03.01.05.05.04.13-.02.21-.09.24-.18.02-.06.04-.06.06 0l.06.21.04.04c.02 0 .04 0 .05-.02a.52.52 0 0 0 .15-.3l.02-.02c.02 0 .03 0 .03.02l.17.29c0 .02.02.02.03.02.02 0 .03 0 .04-.02.12-.16.3-.28.52-.35.01 0 .02 0 .01.02l-.11.24c-.02.04 0 .05.04.05.01 0 .02 0 .03-.02.13-.16.27-.28.42-.38.05-.03.06-.02.04.04-.04.08-.04.16.01.25a.27.27 0 0 0-.14.18c0 .02 0 .03.02.01a.35.35 0 0 0 .08-.07 3.57 3.57 0 0 1 .61-.39.93.93 0 0 1 .23-.07Z" fill="#D8C7A9"/><path d="M11.93 5.64a.52.52 0 0 0-.24-.03 7.41 7.41 0 0 1-.6.12c-.13.05-.25.08-.33.1a.18.18 0 0 0-.07.03.18.18 0 0 1-.04.02c-.08.02-.1 0-.03-.05a.68.68 0 0 0 .1-.11.15.15 0 0 1 .07-.04h.05c.12-.05.28-.08.48-.11l.19-.03c.15-.03.34-.03.54 0 .03 0 .04 0 .01.02l-.13.08ZM7.13 5.99l.01.17-.01.01-.03-.01a.74.74 0 0 0-.45-.48l-.02.01v.04l-.05.02-.1-.17c-.02-.04 0-.05.03-.03.17.07.34.15.5.25.05.03.1.1.12.19ZM6.32 6.23c0 .02 0 .03-.03.02-.02 0-.03 0-.04.02v.07l.11.3c.03.08.02.09-.03.02a1.7 1.7 0 0 1-.19-.41 10.24 10.24 0 0 0-.13-.35l.01-.04c.02-.05.04-.06.07 0l.23.37ZM6.72 6.18c.04-.05.07-.03.09.06 0 .02 0 .03-.02.03l-.15-.03a.05.05 0 0 1-.03-.02.37.37 0 0 0-.23-.22l-.02-.13c0-.02 0-.02.02-.01.12.06.23.17.34.32Z" fill="#F9F4E4"/><path d="M11.7 7.96a.85.85 0 0 0-.34-.25 8.6 8.6 0 0 1-.44-.16l.27-.1c.02 0 .02-.01 0-.02a2.1 2.1 0 0 0-.63-.01l.2-.2c.03 0 .02-.01 0-.01-.3.05-.6.18-.88.4a.04.04 0 0 0-.02.04c0 .02.01.03.03.02h.03l-.04.18c0 .02-.01.02-.03 0a.19.19 0 0 1-.04-.1c0-.02-.01-.03-.03-.04-.01 0-.02 0-.03.02v.03c-.02.03-.03.03-.03 0l-.04-.17-.02-.15c-.01-.04-.02-.04-.04 0-.07.1-.1.21-.11.35l-.02.02h-.01l-.01-.03a1.42 1.42 0 0 1-.04-.48c0-.02 0-.03-.02-.02-.04.02-.06.03-.06.05-.02.08-.03.07-.04 0l-.08-.77c0-.02 0-.02-.02 0a.53.53 0 0 0-.06.16 10.12 10.12 0 0 1-.16.76.11.11 0 0 1-.05.02.04.04 0 0 0-.03.03.66.66 0 0 1-.06.12c-.06.1-.08.08-.07-.03v-.15c0-.07-.02-.08-.05 0a.72.72 0 0 1-.25.4c-.05.04-.1.04-.15-.02l-.1-.11c0-.05.03-.06.06-.05h.05v-.03a.81.81 0 0 0-.23-.2 1.95 1.95 0 0 0-.67-.25c-.08-.01-.08 0-.01.04l.18.13c.04.04.04.05-.02.04-.19-.03-.39-.03-.6 0-.02.01-.02.02 0 .03a.8.8 0 0 0 .28.09l-.5.19c-.01-.02 0-.05.04-.09.02-.01.02-.02 0-.03a.08.08 0 0 0-.09-.01c-.02 0-.03 0-.02-.03a.62.62 0 0 1 .32-.4l.14-.1c.02-.01.01-.02-.01-.02-.06 0-.1 0-.12.02-.12.04-.12.03-.02-.05.06-.05.16-.1.27-.14.02-.01.03 0 .03.02l.02.04c.01.02.03.02.04.02.21-.03.44 0 .68.08.03 0 .05.03.07.06 0 .02.01.02.02.03l.39.16c.03.01.05 0 .06-.03l.1-.25c0-.02.02-.02.03 0v.1h.01l.02.01h.01l.11-.24c.01-.02.03-.02.05-.02l.02.01c.02.01.03 0 .04-.01.1-.28.2-.59.27-.91.03-.14.05-.14.05 0A17.76 17.76 0 0 0 9.4 7c.02.04.03.04.05 0l.04-.1c0-.02.01-.02.02-.02h.01v.02c0 .08.01.14.03.18l.1.27c0 .03.01.03.03.02l.02-.01c.01-.02.03-.02.04 0l.1.13c.01.02.02.02.04 0 .07-.13.16-.23.25-.32a2.48 2.48 0 0 1 .4-.27l.01.03-.01.04-.08.08c-.04.03-.04.05.02.04a1.76 1.76 0 0 1 .57-.02v.02l-.02.01a.2.2 0 0 0-.08.04c-.03.01-.02.02 0 .03.16.04.33.1.5.2.03 0 .03.01 0 .02-.03.02-.05.03-.06.02-.07 0-.08.01-.02.06.14.1.25.24.34.4.02.03.02.07 0 .1Z" fill="#AD9C7E"/><path d="M12.06 6.77c.07-.16.17-.25.3-.28.1-.01.1-.03 0-.06a1.73 1.73 0 0 0-.89.04c-.09.03-.1 0-.03-.06l.15-.13c.34-.06.7-.01 1.08.14.07.03.07.05 0 .07-.2.06-.4.15-.6.28ZM5.97 7.24a.54.54 0 0 0-.04.33v.02l-.02.02H5.9c-.02-.33-.12-.6-.3-.86l-.1-.17v-.04l.01-.02h.02c.13.1.24.23.33.36.03.05.06.13.08.24l.03.12Z" fill="#F9F4E4"/><path d="M9.68 7.58c-.08.08-.12.14-.12.2-.03.24-.08.25-.15.01a4.26 4.26 0 0 1-.05-.2.26.26 0 0 1-.1-.18 2.25 2.25 0 0 0-.05-.34c0-.05-.03-.05-.05 0-.03.09-.07.21-.1.37-.01.1-.07.19-.16.25a.12.12 0 0 0-.04.04.34.34 0 0 1-.08.09l-.06.02c-.03 0-.03-.02-.02-.04v-.03c.01-.03 0-.03-.02 0l-.14.14c-.05.04-.13.06-.23.04l-.02.01V8c.07.13.12.27.17.43v.05l-.17.19c-.01.01 0 .02.01.02h.18c.02 0 .03-.01.04-.03.03-.11.12-.18.24-.2.14-.03.27-.03.4-.01.16.03.25.1.27.21 0 .02.01.03.03.04l.12.04c.15.04.26.09.33.13.23.12.44.27.64.45l.1.14c.02.01.03.03.03.05l.07.08c.02 0 .03.02.03.04.03.04.05.06.07.06a2.06 2.06 0 0 1 .34.75h-.02a1.23 1.23 0 0 1-.07-.16 6.18 6.18 0 0 0-.47-.74 2.56 2.56 0 0 0-.85-.63l-.29-.11-.04.01a.4.4 0 0 0-.07.14L9.36 9a.89.89 0 0 0-.16.18.32.32 0 0 1-.1.08l-.03.02a.05.05 0 0 0-.02.04c-.01.18 0 .33.06.47a2.34 2.34 0 0 0 .74.86c.17.16.38.29.61.4.16.06.26.11.31.14a2.65 2.65 0 0 0 .34.19h-.01a.56.56 0 0 1-.21-.06l-.53-.25c-.3-.14-.62-.38-.95-.72L9.12 10c-.09-.16-.14-.32-.17-.49 0-.06-.02-.06-.04 0-.03.1-.08.2-.16.29a.77.77 0 0 0-.1.17l-.6.52a5.76 5.76 0 0 1-1.17.64v-.04a6.6 6.6 0 0 0 1.57-1.05c.06-.06.12-.15.18-.26.07-.04.12-.1.15-.19l.1-.22c.01-.04 0-.06-.03-.08l-.12-.06a.24.24 0 0 1-.1-.09c-.07-.09-.1-.2-.14-.33 0-.04-.03-.05-.06-.04l-.4.1-.4.22a.42.42 0 0 0-.16.1l-.2.17a.09.09 0 0 1-.05.01l-.11.01-.07-.04a.24.24 0 0 1-.09-.04l.17-.18a.08.08 0 0 1 .05-.02c.02 0 .04-.02.04-.04v-.03h-.1c-.02 0-.03-.01-.04-.03a.38.38 0 0 0-.14-.14l-.15-.14h.32c.02 0 .03 0 0-.02a.53.53 0 0 1-.23-.29 1.08 1.08 0 0 1-.03-.55c0-.02 0-.02-.02-.01l-.38.23c.09-.16.2-.27.34-.34l.5-.2c.12.04.25.05.38.06.12 0 .21.02.29.05l.27.1.11.11c.05.05.1.06.15.02.12-.08.2-.22.25-.4.03-.08.04-.08.06 0a.5.5 0 0 1 0 .15c-.02.1 0 .12.06.03a.66.66 0 0 0 .06-.12l.03-.03c.02 0 .04 0 .05-.02a10.11 10.11 0 0 0 .16-.76.53.53 0 0 1 .06-.16c.01-.02.02-.02.02 0l.08.77c0 .07.02.07.04 0 0-.02.02-.03.06-.05.02-.01.03 0 .02.02a1.42 1.42 0 0 0 .05.5h.01c.01 0 .02 0 .02-.02 0-.13.04-.25.1-.35.03-.03.04-.03.05 0l.02.15Z" fill="#060504"/><path d="M13.09 7.48a5.5 5.5 0 0 1-.45-.25.6.6 0 0 0-.23-.08.29.29 0 0 1-.08-.03.5.5 0 0 0-.04-.02l-.01-.02v-.02l.04-.02.01-.02v-.01h-.02c-.06 0-.12 0-.2-.02l-.04.01a.23.23 0 0 1-.14.06c-.03 0-.03-.01-.01-.03l.15-.16c.15-.01.3.01.47.07.03.01.03.03 0 .04a.43.43 0 0 1-.1.03c-.02 0-.03.01-.04.03v.02c0 .01 0 .02.02.02l.12.01.67.33c.13.06.13.08-.01.06h-.11Z" fill="#F9F4E4"/><path d="m9.68 7.59.04.17c0 .03.01.03.02 0l.01-.03.03-.02c.02 0 .03.02.03.03 0 .05.02.09.04.11.02.02.03.02.03 0l.04-.19a.8.8 0 0 1 .34-.23l.22-.08c.04 0 .04 0 .02.03a.26.26 0 0 1-.08.05c-.03.01-.03.02 0 .04l.08.04.03-.03c0-.04.01-.06.03-.06.22-.03.43-.03.63.01.02 0 .02.01 0 .02l-.27.1c-.3.02-.55.05-.76.1a.39.39 0 0 0-.16.11.07.07 0 0 0-.02.05.2.2 0 0 1-.03.08 15.72 15.72 0 0 1-.18.44c-.04.09-.03.16.02.22.15.17.35.3.6.41 0 0 0 .02.03.05v.02h-.09v.06l.21.13c.01 0 .02.01.02.03l.01.05-.02.01c-.2-.18-.41-.33-.64-.45a1.9 1.9 0 0 0-.45-.17.04.04 0 0 1-.03-.04c-.02-.11-.11-.18-.28-.2a1.13 1.13 0 0 0-.39 0c-.12.02-.2.1-.24.2 0 .02-.02.03-.04.03H8.3c-.02 0-.02 0 0-.02l.15-.19a.05.05 0 0 0 .01-.05 2.3 2.3 0 0 0-.17-.43v-.03h.02c.1 0 .18 0 .23-.05l.14-.14c.03-.03.03-.03.03 0l-.01.03c-.01.02 0 .03.02.04.01 0 .04 0 .06-.02a.34.34 0 0 0 .08-.1.12.12 0 0 1 .04-.03c.1-.06.15-.14.17-.25.02-.16.06-.28.1-.37.01-.05.03-.05.04 0 .03.1.04.21.06.35 0 .07.03.13.09.17l.02.05.03.15c.07.24.12.23.15-.01 0-.06.04-.12.12-.2Z" fill="#362722"/><path d="M8.22 7.74a3.19 3.19 0 0 0-.27-.1 1.22 1.22 0 0 0-.29-.05A2.51 2.51 0 0 1 7 7.45c-.02-.01-.02-.02 0-.02.21-.04.41-.04.6 0 .06 0 .06-.01.02-.05a1.3 1.3 0 0 0-.18-.13c-.07-.04-.07-.05.01-.04.23.04.46.13.67.25.1.07.18.13.23.2v.03h-.05c-.03-.01-.06 0-.07.05Z" fill="#30190F"/><path d="M10.56 7.42c-.02 0-.03.02-.03.06 0 .02-.02.03-.03.03a.18.18 0 0 1-.09-.04c-.02-.02-.02-.03 0-.04a.26.26 0 0 0 .09-.05c.02-.03.02-.04-.02-.03l-.22.08a.8.8 0 0 0-.34.23l-.03.01c-.02 0-.03 0-.03-.02 0-.01 0-.03.02-.04.28-.22.57-.35.88-.4.02 0 .03 0 0 .02l-.2.19Z" fill="#060504"/><path d="M5.57 7.43c0 .03 0 .05-.02.06l-.06.02c-.06 0-.11.02-.17.05a1.66 1.66 0 0 0-.41.26L4.9 7.8v-.05c.04-.03.05-.06.05-.09 0-.02-.01-.03-.03-.01-.27.2-.48.45-.63.74-.04.09-.07.1-.09.03.11-.31.28-.57.51-.76.24-.21.51-.33.82-.34.02 0 .03 0 .04.02v.09ZM12.85 7.5l.2.17a3.32 3.32 0 0 1 .85 1.71c.02.11 0 .12-.05.02a1.7 1.7 0 0 0-.47-.51l-.16-.23v-.02l.02-.01c.11.1.23.2.34.32.1.1.13.1.08-.05a2.86 2.86 0 0 0-.32-.6 5.79 5.79 0 0 0-.67-.83c-.02-.03-.02-.04.02-.03a.3.3 0 0 1 .16.07Z" fill="#F9F4E4"/><path d="m10.92 7.55.44.16c.1.04.22.13.33.25l.07.07v.02c0 .02 0 .02-.02.01l-.38-.23h-.01v.02c.05.13.05.3-.03.54-.04.1-.1.2-.17.26a.98.98 0 0 1-.7.22c-.06 0-.07.01 0 .04.15.09.3.14.43.16.07 0 .07.02 0 .03a.7.7 0 0 1-.22.02c-.16-.02-.17 0 0 .06a8 8 0 0 0 .26.09v.01l-.03.02h-.32v-.05c0-.02-.02-.03-.03-.03l-.2-.13-.02-.02.01-.04h.09V9a1.79 1.79 0 0 1-.04-.05c-.24-.1-.44-.24-.59-.41-.05-.06-.06-.13-.02-.22a15.74 15.74 0 0 0 .23-.57c.06-.05.12-.09.16-.1.21-.05.47-.1.76-.11Z" fill="#060504"/><path d="M8.34 8.49a.67.67 0 0 1-.38.26l-.31.02a.95.95 0 0 1-.48-.1c-.17-.1-.27-.23-.28-.4V7.98a.34.34 0 0 1 .1-.21c.04-.04.05-.03.04.02a.88.88 0 0 0-.03.38.5.5 0 0 0 .17.32c.1.09.21.14.32.15.14.02.28 0 .4-.05.14-.06.23-.15.26-.28.02-.1.03-.21 0-.31 0-.06 0-.07.04-.02.08.14.15.28.2.42.02.03.01.05-.01.06a.12.12 0 0 0-.04.03ZM10.01 7.98c.01-.02.02-.02.02 0v.1c0 .12 0 .2.02.26.02.08.08.15.16.2a.7.7 0 0 0 .4.1c.16 0 .29-.04.4-.13.09-.08.15-.19.17-.33a.74.74 0 0 0-.03-.4c-.01-.03 0-.04.03-.02.04.02.07.06.1.12.05.15.05.3 0 .48-.02.11-.1.2-.2.27a.92.92 0 0 1-.44.14c-.18.01-.32 0-.43-.03a.8.8 0 0 1-.36-.23c-.04-.04-.05-.09-.04-.13.04-.13.1-.26.2-.4Z" fill="#24AACC"/><path d="m11.76 8.03.07.15.02.05c.07.05.11.1.13.12.06.1.13.17.19.2l.03.04v.02l.04.07c.08.1.15.19.2.29.03.05.02.09-.02.1-.02 0-.03.02-.02.04l.06.2c.01.03 0 .04-.02.05a.82.82 0 0 0-.22.06c-.05.02-.05.03 0 .05l.05.01c.02.01.02.02 0 .03-.08.06-.15.1-.22.13l-.09.02c-.04.01-.06.04-.06.1l-.03.02a1.55 1.55 0 0 1-.44.04v.01c.02.02.04.02.07.03.02 0 .02 0 .02.02v.02h-.01c-.22-.02-.44-.1-.67-.22l-.06-.06a.08.08 0 0 0-.03-.04.15.15 0 0 1-.07-.08.16.16 0 0 0-.02-.05l-.11-.14h.02l.32-.01.03-.02v-.01c0-.01 0-.02-.02-.02a7.94 7.94 0 0 1-.25-.07c-.16-.07-.15-.08.01-.06a.7.7 0 0 0 .22-.02c.07 0 .07-.02 0-.03a1.31 1.31 0 0 1-.44-.16c-.06-.03-.05-.04.01-.04.28.01.5-.06.7-.22a.58.58 0 0 0 .17-.26c.08-.23.08-.41.03-.54v-.02h.01l.38.23h.02v-.03ZM6.78 8.7c.06.13.12.2.18.23.02.01.03 0 .02-.02a.2.2 0 0 0-.05-.06c.06.03.1.08.14.14.01.02.02.02.04.02h.08c.01 0 .02 0 .02.02v.02a.07.07 0 0 1-.04.04.08.08 0 0 0-.05.02l-.17.18c-.1 0-.17 0-.2-.03l-.22-.14c-.07-.04-.07-.03-.02.02.12.13.28.2.47.22.03 0 .05 0 .06-.03l.07.04-.02.04a.1.1 0 0 0-.03-.01c-.02 0-.03 0-.03.02a.25.25 0 0 1-.07.16c-.15.06-.28.07-.38.01a.09.09 0 0 0-.05 0h-.35c-.03 0-.04-.02 0-.03l.02-.02c.07-.03.06-.05 0-.07a.79.79 0 0 1-.25-.1.05.05 0 0 1-.02-.03c0-.05 0-.09.03-.12V9.2c-.04-.02-.05-.06-.02-.12L6 8.9c0-.01 0-.03-.02-.03l-.02-.01c-.02 0-.02-.02 0-.04.2-.24.37-.49.49-.75l.38-.23.02.01c-.04.2-.03.37.03.55.04.12.12.22.23.29.03.01.02.02 0 .02h-.32Z" fill="#6E5448"/><path d="M10.86 7.92c-.02.06 0 .11.04.13.05.02.1 0 .12-.05.02-.05 0-.11-.04-.13-.04-.02-.1 0-.12.05ZM7.9 8.1c.04 0 .07-.04.07-.09a.08.08 0 0 0-.08-.08.08.08 0 0 0-.08.08c0 .05.04.09.08.09Z" fill="#F9F4E4"/><path d="M4.83 9.11a1.5 1.5 0 0 0-.09.12.88.88 0 0 1-.12.15 4.88 4.88 0 0 0-.4.35.8.8 0 0 1 .06-.3l.2-.3a1.72 1.72 0 0 1 .54-.7c.06-.05.07-.04.03.04-.09.18-.17.37-.24.57 0 .02 0 .04.02.07Z" fill="#AD9C7E"/><path d="m8.87 9.17-.14-.07a.23.23 0 0 1-.12-.16l-.03-.13a.24.24 0 0 1 .04-.2c.05-.07.11-.1.18-.1h.33c.1 0 .17.05.2.14.05.1.04.18-.02.26l-.16.2a.22.22 0 0 1-.28.06Z" fill="#362722"/><path d="m8.63 9.77.04-.14V9.6l-.01-.02c-.01-.02-.02-.02-.04 0a.25.25 0 0 1-.04.06c-.06.03-.07.01-.03-.05.04-.07.04-.12 0-.15a.04.04 0 0 1-.02-.04v-.05c0-.02 0-.03-.02-.02l-.2.1c-.05.02-.06.01-.04-.03l.1-.2c.03-.07.02-.09-.05-.07a.39.39 0 0 1-.12.02l-.02-.02v-.03l.07-.07C8.3 9 8.3 8.97 8.22 9l-.24.03c-.03 0-.03 0 0-.03l.11-.1c.02-.01.01-.02 0-.03a.1.1 0 0 0-.06 0l.4-.1c.03-.01.05 0 .06.04.03.13.07.24.13.33.02.04.06.07.1.09l.13.06c.03.02.04.04.03.08l-.1.22a.42.42 0 0 1-.15.19ZM9.77 8.9c-.05 0-.08.02-.07.06 0 .03.02.06.04.1v.04c-.03.07-.02.16.03.26 0 .02.02.04.05.07.05.05.05.09 0 .1a.28.28 0 0 0-.09-.08.24.24 0 0 0-.13-.17.09.09 0 0 1-.04-.03l-.02-.05c-.02-.02-.03-.02-.03 0-.02.15 0 .28.06.4v.01l-.02.01h-.02c-.03-.1-.09-.13-.18-.12l-.06-.18h-.02c.05.3.15.55.3.79a3.6 3.6 0 0 1 .28.53c-.09-.06-.2-.14-.31-.26a1.77 1.77 0 0 1-.43-.6 1.01 1.01 0 0 1-.06-.47c0-.02 0-.03.02-.04l.04-.02a.32.32 0 0 0 .1-.08c.04-.07.09-.13.15-.18a.09.09 0 0 0 .02-.05.4.4 0 0 1 .07-.14c0-.01.02-.02.04-.01l.28.1Z" fill="#362722"/><path d="M8.63 9.77c-.06.11-.12.2-.18.26-.13.12-.3.27-.53.43L8 10.3c0-.02 0-.02-.01-.01l-.22.1a.86.86 0 0 1 .15-.22.33.33 0 0 0 .05-.08l.04-.09c.01-.02 0-.03-.02-.02a.24.24 0 0 0-.06.1.3.3 0 0 1-.05.08c-.04.04-.07.05-.08.02a.9.9 0 0 0 .14-.24c.01-.02 0-.03-.02-.02l-.58.36c-.02.01-.03 0-.02-.01a11.93 11.93 0 0 1 .34-.5.2.2 0 0 1 .09-.04c.1-.02.18-.08.25-.16v-.02h-.02a.67.67 0 0 1-.24.15c-.02.01-.03 0-.03-.02v-.03a.86.86 0 0 0 .1-.08v-.03h-.02c-.02-.01-.04 0-.06.02h-.01c-.01 0-.02 0-.01-.02v-.01l.06-.07v-.03h-.03l-.36.3c-.03.04-.03.03-.02 0 .07-.13.14-.24.23-.35l.39-.12v-.03h-.02l-.31.1c0-.05.04-.1.09-.15v-.03l-.11-.07.4-.22a.1.1 0 0 1 .05 0c.02.01.02.02.01.03l-.12.1c-.02.02-.02.03.01.03l.24-.03c.07-.02.08 0 .03.05l-.06.07v.03l.01.02c.06 0 .1 0 .12-.02.07-.02.08 0 .05.07l-.1.2c-.02.04 0 .05.03.03l.2-.1c.03-.01.04 0 .03.02v.05l.01.04c.05.03.05.08 0 .15-.03.06-.02.08.04.05l.04-.06c.02-.02.03-.02.04 0l.01.02v.02l-.04.14ZM9.77 8.9c.23.1.44.23.64.4-.04.04-.02.1.05.17 0 .05-.03.07-.08.05a8.16 8.16 0 0 1-.38-.17.33.33 0 0 0-.1-.07c-.02 0-.03 0-.01.03.04.05.1.1.19.14.1.06.18.09.24.09h.05a.2.2 0 0 0 .13.03l.09.2c0 .03 0 .03-.02.02a.18.18 0 0 1-.08-.1l-.01-.01h-.03c-.01 0-.02 0-.01.02.04.11.09.21.14.3.07.09.06.1-.03.04a.44.44 0 0 0-.12-.05 1.47 1.47 0 0 1-.6-.45c.04-.02.04-.06 0-.11a.3.3 0 0 1-.06-.07c-.05-.1-.06-.19-.03-.26v-.05a.22.22 0 0 1-.04-.09c0-.04.02-.06.07-.07Z" fill="#6E5448"/><path d="M7.62 9.15c.02.02.01.04-.02.06-.09.07-.14.1-.14.08-.01 0 .02-.06.1-.14.02-.02.04-.02.06 0ZM9.73 9.45c.05.1.1.18.17.23.14.13.31.25.51.34a.1.1 0 0 1 .04.04l.25.38c0 .01 0 .02-.02.01-.3-.1-.56-.26-.78-.47h-.03V10a1.73 1.73 0 0 0 .38.43v.01h-.01l-.24-.15h-.01v.02c.04.05.06.1.05.15l.01.05.12.15v.01h-.02c-.15-.1-.27-.19-.33-.27a3.5 3.5 0 0 1-.36-.58c-.05-.1-.09-.2-.1-.3.08-.02.14.02.17.1 0 .02.01.02.02.01h.01V9.6a.62.62 0 0 1-.05-.4c0-.02.01-.02.03 0l.02.05.04.03c.07.04.11.1.13.17Z" fill="#6E5448"/><path d="m7.6 9.38.05-.04.31-.11h.02v.03l-.39.12ZM4.9 9.77c-.05.03-.08.07-.11.15l-.03.02c-.1 0-.18.02-.24.07h-.03v-.03l.1-.23.52-.42c.08-.06.1-.05.06.05l-.07.08a.8.8 0 0 0-.2.31Z" fill="#AD9C7E"/><path d="M7.01 9.4c-.02.04-.05.06-.08.07-.02 0-.03 0-.03-.03V9.4c.01-.02.03-.03.05-.03l.06.02v.03Z" fill="#060504"/><path d="M13.33 9.47c.1.48.09.95-.02 1.4-.02.05-.03.05-.05 0-.05-.2-.15-.38-.3-.56v-.02l-.05-.35v-.01h-.01c-.01-.01-.02-.02-.03-.01v.56c0 .2-.02.38-.05.53-.04.27-.1.52-.17.76-.03.11-.04.1-.04 0 0-.15-.03-.3-.09-.43a.1.1 0 0 1 0-.05c.04-.23.05-.45.03-.66.16-.37.26-.75.28-1.14 0-.07.02-.07.05-.01.1.23.19.46.24.7.03.1.06.1.08-.01l.13-.7Z" fill="#AD9C7E"/><path d="m9.12 10-.05.06h-.02l-.09-.08h-.03l-.05.36c-.01.04-.02.04-.04 0a.4.4 0 0 1-.02-.19l-.01-.03h-.03c-.06.04-.1.1-.11.18l-.02.01c-.01 0-.02 0-.02-.02l.02-.33c.02-.06.05-.11.1-.17.07-.1.13-.2.16-.3.02-.05.04-.05.04.01.03.17.08.33.17.5Z" fill="#6E5448"/><path d="m8.1 9.72-.05.17c.01 0 .05-.06.09-.15l.05-.17c-.01 0-.05.06-.09.15ZM8.65 9.96l-.02.33c0 .01 0 .02.02.02l.02-.01a.25.25 0 0 1 .11-.18h.03l.01.03c0 .09 0 .15.02.2.02.03.03.03.04-.01l.05-.35.01-.02h.02l.1.1.06-.07.29.34h-.09l-.04.02c-.01.02-.03.03-.06.02a.08.08 0 0 1-.03-.03.4.4 0 0 1-.04-.04c-.04-.07-.05-.06-.04.01.01.07.03.13.06.2v.03l-.04.01a.05.05 0 0 0-.04.03c-.02.04-.03.08-.01.14l-.01.03h-.03l-.01-.01-.02-.08c-.01-.02-.02-.03-.04-.02a.07.07 0 0 0-.03.05c-.04.2-.06.37-.07.52 0 .06-.01.06-.03 0-.06-.14-.09-.3-.1-.47v-.03c-.02 0-.03 0-.03.02l-.06.31c-.01.07-.03.07-.05 0-.06-.14-.1-.31-.14-.5 0-.02-.01-.03-.04-.04-.02 0-.03 0-.02.03v.06c0 .01 0 .02-.02.02s-.03 0-.03-.02a.53.53 0 0 1-.01-.14c.01-.09 0-.1-.07-.04a.22.22 0 0 1-.22.06l.6-.52ZM7.77 10.39c-.03.04-.06.04-.11 0v-.04l.14-.17c.01.03.04.02.08-.02a.3.3 0 0 0 .05-.09.24.24 0 0 1 .06-.09c.02-.01.03 0 .02.02l-.04.1a.33.33 0 0 1-.05.07.86.86 0 0 0-.15.22Z" fill="#AD9C7E"/><path d="M11.73 11.86a3.5 3.5 0 0 1-1.18 1.27c-.02 0-.03 0-.02-.02.02-.13.03-.25.02-.36 0-.02 0-.04.02-.06l.14-.16v-.02l-.01-.02h-.02c-.2.21-.41.4-.64.56a2.46 2.46 0 0 1-.51.26c-.03.01-.04 0-.02-.03.06-.12.1-.24.1-.36 0-.09.02-.17.05-.23a1.85 1.85 0 0 0 .1-.34h-.03l-.01.02c-.08.24-.17.43-.3.58l-.46.56c-.12.13-.25.25-.4.37h-.02l-.01-.03c.03-.21.04-.4.04-.55l-.05-.37a1.5 1.5 0 0 1 0-.44l-.04-.11c0-.02-.02-.02-.03 0a.14.14 0 0 0-.03.09c.03.24 0 .46-.08.67 0 .01-.02.02-.03 0-.22-.32-.5-.57-.82-.75-.02-.02-.03-.01-.03.02.03.2.1.4.2.57.02.03.01.04-.02.03a3.27 3.27 0 0 1-1.2-.95 2.53 2.53 0 0 1-.33-.56c-.01-.03-.02-.03-.03 0 0 .03 0 .07.03.12v.06a2.2 2.2 0 0 0 0 .47c0 .04-.01.04-.03.01a7.7 7.7 0 0 1-.6-.9 2.27 2.27 0 0 1-.2-.5h-.04v.01l.03.13v.05c-.13.22-.2.46-.24.71-.02.07-.04.07-.06.01a1.2 1.2 0 0 1-.04-.94l-.01-.05a.04.04 0 0 0-.05 0c-.2.05-.4.07-.6.05-.05 0-.05-.02-.02-.04l.17-.14c.32-.1.58-.25.8-.47.03-.04.04-.03.03.02-.04.16-.11.3-.2.46v.01h.06l.18-.24c.01-.02.02-.01.02 0l-.03.16a.24.24 0 0 0 0 .13c.02.05.06.07.1.07.02 0 .04 0 .04.02a3.35 3.35 0 0 0 .52.96l.01-.02v-.01l-.06-.24a9.6 9.6 0 0 0-.03-.61h.03l.12.4c0 .03.02.03.03.03h.04c.01 0 .03 0 .04.02.14.11.22.2.24.27.1.26.22.5.36.73h.05v-.02a2.74 2.74 0 0 1-.21-.8c-.01-.07 0-.08.05-.03l.3.44c.13.26.27.5.41.74.04.06.05.05.04-.01-.08-.4-.1-.8-.05-1.19.01-.06.03-.06.05 0 .05.11.09.22.12.34l.15.33a3.27 3.27 0 0 0 .44.58l.02-.02v-.3c0-.02 0-.03.02-.03h.02l.02.02c.02.1.05.2.1.27.02.05.04.04.05-.02.02-.24.08-.5.17-.8a6.16 6.16 0 0 1 .1.57l.07.58c.02.12.06.24.13.35.01.02.03.02.04 0a4.76 4.76 0 0 0 1.32-1.73c.04-.07.06-.07.08 0l-.02.07c-.07.26-.11.52-.13.79 0 .02.01.03.03.01.15-.12.27-.23.34-.35.08-.14.1-.14.05.02-.05.14-.11.28-.18.4-.04.08-.03.09.04.03l.35-.31a1.57 1.57 0 0 0 .23-.34c.05-.1.07-.1.05.02l-.12.43c-.05.13-.03.14.05.03.15-.18.32-.37.5-.55a2.9 2.9 0 0 0 .35-.63h.03v.02l-.05.7ZM12.48 10.85a3.63 3.63 0 0 1-.43 1.47c-.02.02-.02.02-.03 0v-.06a1.27 1.27 0 0 0-.12-.5.06.06 0 0 1 0-.04l.07-.28c.1-.13.16-.24.18-.34 0-.07.03-.11.07-.12.02 0 .03 0 .04-.02.06-.19.1-.37.13-.54 0-.02 0-.03.02-.02.02 0 .02.01.02.03a.8.8 0 0 0 .05.42Z" fill="#AD9C7E"/></svg>