<!-- by TradingView --><svg width="18" height="18" viewBox="0 0 18 18" xmlns="http://www.w3.org/2000/svg"><path fill="#1974D8" d="M0 0h18v18H0z"/><path fill-rule="evenodd" d="m5.86 6.88.3-.87L7.5 8.06c.3.36.67.24.86.11L12.48 5c-.14 1.54-.65 2.26-.9 2.43L8.73 9.61c-.74.62-1.3.26-1.48 0l-1.2-1.8c-.28-.4-.24-.79-.18-.93Zm-.31 1.1L4 12h1.06c.24 0 .43-.18.49-.28l.66-1.65c.2-.47.08-.88 0-1.03l-.66-1.06Zm1.08 1.76L5.7 12h.35c.1 0 .2-.1.27-.28l.36-.92c.15-.4.02-.88-.06-1.06Zm5.66-.65L14 12h-1.54c-.32 0-.57-.26-.65-.37L10.76 10c-.21-.3-.56-1 .16-1.33.72-.34 1.21.14 1.37.42Zm-.48.36c0 .2-.16.35-.37.35-.2 0-.37-.16-.37-.35 0-.2.16-.35.37-.35.2 0 .37.16.37.35Z" fill="#fff"/></svg>