<!-- by TradingView --><svg width="18" height="18" viewBox="0 0 18 18" xmlns="http://www.w3.org/2000/svg"><path fill="#F4C343" d="M0 0h18v18H0z"/><path fill-rule="evenodd" d="M9 4c.47 0 .9.08 1.31.25 1.3.52 2.16 1.57 2.55 3.15 0 .02.02.04.05.05l.1.02.2.06c.7.3 1.05 1.19.81 2a2.5 2.5 0 0 0-.04.17l.01.08c.4.51.74 1.09.9 1.7.28 1.17.06 2.18-1.06 2.48-.83.22-1.94-.63-2.4-1.31-.03-.03-.05-.03-.08-.02-.78.42-1.52.55-2.35.55-.83 0-1.57-.13-2.35-.55-.03-.01-.05 0-.07.02-.47.69-1.57 1.54-2.41 1.31-1.12-.3-1.34-1.3-1.06-2.47.16-.62.5-1.2.9-1.7a.1.1 0 0 0 .01-.09l-.05-.17c-.24-.8.11-1.7.81-2L5 7.47l.1-.02c.02 0 .04-.02.04-.05.4-1.57 1.25-2.62 2.55-3.15C8.1 4.08 8.53 4 9 4Zm-3.55 7.49a.88.88 0 0 1-.39.38h-.03l-.02-.01-.01-.03v-.03a1.82 1.82 0 0 1 .33-.64.04.04 0 0 1 .04.01l.02.02.07.18a.13.13 0 0 1 0 .12Zm7.19-.31-.02.02-.07.17a.12.12 0 0 0 0 .1c.12.2.24.32.38.38h.02c.01 0 .02 0 .03-.02l.01-.02v-.03a1.74 1.74 0 0 0-.3-.6l-.03-.01h-.02Z" fill="#050304"/><path d="M9 4.2c1.8 0 3.3 1.35 3.7 3.37l.03.06.05.02c.85.05 1.35.95 1.06 1.87-.02.07-.05.08-.1.02l-.13-.14a.23.23 0 0 1-.04-.1.25.25 0 0 1 0-.1c.1-.54-.25-1.05-.74-1.04l-.03.01a.07.07 0 0 0-.02.04.46.46 0 0 0-.02.13c0 .08-.02.1-.06.05a7.18 7.18 0 0 0-1-1.23c-.17-.16-.15-.32-.28-.5-.27-.36-.6-.53-1-.51-.5.03-.98.6-1.42.6-.44 0-.92-.57-1.43-.6-.4-.02-.72.15-1 .52-.12.17-.1.34-.27.5a7.1 7.1 0 0 0-1 1.23c-.05.05-.07.03-.06-.05 0-.04 0-.08-.02-.13a.07.07 0 0 0-.02-.04.05.05 0 0 0-.03-.01c-.5 0-.84.5-.73 1.03v.11l-.05.1-.13.14c-.05.05-.08.05-.1-.02-.29-.92.21-1.82 1.05-1.87.02 0 .04-.01.05-.03a.1.1 0 0 0 .03-.05C5.7 5.55 7.2 4.2 9 4.2Z" fill="#B37D54"/><path d="M9 6.83c.3 0 .63-.23.89-.4.56-.35 1.15-.23 1.53.4.07.1.05.12-.05.07-.22-.12-.4-.16-.5.14-.05.15.15.34.28.5v.03c0 .05-.01.07-.06.06l-.7-.33c-.22-.1-.54-.21-.69.08a.24.24 0 0 1-.24.15c-.03 0-.05 0-.07.02-.2.2-.23.4-.08.6a.1.1 0 0 1 .02.09c-.04.15-.06.26.01.4l.09.26c.04.26.25.43.43.56.53.38 1.1.65 1.74.8a.1.1 0 0 1 .06.05l.02.08c-.03.72-.66 1.23-1.23 1.38-.5.13-1 .23-1.45.23-.45 0-.94-.1-1.44-.23-.57-.15-1.2-.65-1.24-1.38l.03-.08a.1.1 0 0 1 .06-.04c.62-.15 1.2-.42 1.73-.8.19-.14.39-.31.43-.57a.9.9 0 0 1 .09-.25c.07-.14.05-.25.01-.41 0-.03 0-.06.02-.08.15-.22.12-.42-.08-.6a.09.09 0 0 0-.07-.03.24.24 0 0 1-.25-.15c-.14-.29-.47-.18-.69-.08-.4.2-.63.3-.7.33-.04.02-.06 0-.06-.05l.01-.03c.13-.17.33-.35.28-.5-.11-.3-.29-.26-.5-.14-.1.05-.12.02-.05-.08.38-.63.96-.74 1.53-.4.26.17.6.4.89.4Z" fill="#FFC582"/><path d="M7.3 9.74c-.45.05-.89.18-1.32.4-.52.25-.93.63-1.22 1.14a.75.75 0 0 0-.06.7c.05.1.16.13.25.1.3.05.55-.32.7-.6a.1.1 0 0 0 0-.08l-.18-.45a.06.06 0 0 1 .01-.05 2.46 2.46 0 0 1 .7-.55l.03.01.02.02v.02a1.7 1.7 0 0 0 1.28 1.45 4.68 4.68 0 0 0 2.98 0 1.7 1.7 0 0 0 1.28-1.48l.01-.01a.03.03 0 0 1 .03 0c.25.11.49.29.71.53.03.03.03.06.01.1l-.19.37a.1.1 0 0 0 0 .1c.19.4.44.62.76.65.24-.07.34-.25.29-.51-.08-.42-.5-.89-.79-1.12-.29-.24-.63-.42-1.02-.55a3.01 3.01 0 0 0-.9-.19c-.27-.12-1.01-.5-1.11-.84v-.05l.03-.01h.02l.7.38h.06l.01-.04v-.04l-.03-.06A.15.15 0 0 0 10.3 9l-.75-.41a.18.18 0 0 1-.1-.17v-.06c0-.1.04-.13.12-.09l.82.45h.03l.01-.01v-.05c.01-.07-.01-.12-.06-.16-.3-.2-.59-.36-.89-.46-.1-.04-.13-.12-.09-.24.05-.12.13-.16.24-.12a3.33 3.33 0 0 1 .96.53h.02l.02-.01.01-.02.01-.02c.03-.06.01-.12-.04-.16-.25-.2-.5-.35-.76-.44-.03 0-.04-.03-.03-.06.1-.4.84.08 1.12.23.1.06.2.07.29.04a.16.16 0 0 0 .06-.06.2.2 0 0 0 0-.25l-.26-.29a.1.1 0 0 1-.02-.05.1.1 0 0 1 0-.06c.05-.1.12-.14.22-.08.53.33.92.82 1.28 1.38.06.1.23.29.52.58.88.88 1.86 2.09 1.8 3.56-.02.27-.08.49-.19.66-.43.68-1.17.77-1.8.44a3.68 3.68 0 0 1-1.4-1.23l-.05.01c-.27.16-.55.31-.84.4a4.98 4.98 0 0 1-3.98-.4 3.38 3.38 0 0 1-1.55 1.3c-.8.33-1.83-.12-1.83-1.23 0-.31.02-.56.06-.74.19-.85.66-1.5 1.19-2.16.1-.12.28-.33.57-.62.25-.26.48-.53.7-.83a3.3 3.3 0 0 1 1.05-1.09c.06-.05.13-.06.19-.03.02 0 .03.02.04.04l.02.05v.06l-.03.06c-.12.13-.34.35-.24.54l.02.03h.04c.13.02.22.02.26-.02a3 3 0 0 1 .89-.4c.09-.02.16 0 .22.09l.02.03c.05.06.04.1-.03.13-.26.08-.51.23-.76.44-.04.04-.04.08-.02.13.03.05.06.06.09.03.27-.22.57-.4.92-.51.11-.04.2 0 .25.13.03.1 0 .17-.1.22l-.88.47-.06.12a.1.1 0 0 0 0 .06c0 .03.02.04.05.02l.8-.42c.09-.05.13-.01.13.1v.06c-.01.1-.06.17-.14.2-.25.12-.6.25-.8.47l-.01.03v.04c.03.05.06.06.1.03.16-.12.37-.21.6-.33.14-.06.16-.03.08.11-.06.1-.16.2-.3.3-.26.2-.53.34-.8.45Z" fill="#B37D54"/><path d="m4.87 8.88-.29.28c-.04.04-.06.03-.07-.03-.03-.46.15-.75.53-.88a.1.1 0 0 1 .09.02l.03.03.02.05c.03.22-.13.35-.31.53ZM13.15 8.88c-.18-.18-.35-.3-.3-.53V8.3l.04-.03a.1.1 0 0 1 .08-.01c.38.13.56.42.53.87 0 .06-.03.08-.07.03l-.28-.28Z" fill="#FFC582"/><path d="M7.3 9.74a4.7 4.7 0 0 1-.98.4c-.37.12-.73.4-1.07.84-.22.27-.49.61-.4.99.01.06.04.1.1.12-.1.02-.2 0-.25-.1a.75.75 0 0 1 .06-.7c.3-.52.7-.9 1.22-1.16.43-.21.87-.34 1.32-.39ZM13.1 12.1a.76.76 0 0 0-.02-.62c-.22-.43-.5-.77-.86-1.04-.14-.1-.36-.21-.67-.33-.3-.1-.58-.23-.87-.37.24 0 .54.07.9.19.4.13.73.31 1.02.55.3.23.71.7.79 1.11.05.27-.05.44-.3.52Z" fill="#7E5249"/><path d="M9.6 9.19h.02l.01.03v.1a.6.6 0 0 1-.18.43.62.62 0 0 1-.44.18h-.03a.62.62 0 0 1-.43-.18.6.6 0 0 1-.18-.43v-.13h1.24Z" fill="#323028"/><path d="M9 9.93c.35 0 .68.01 1.01.1.26.08.78.33.47.75-.38.51-.92.63-1.48.63-.56 0-1.1-.12-1.48-.63-.31-.42.2-.67.47-.74.32-.1.66-.11 1.01-.11Z" fill="#050304"/><path d="M9 10.01c.5 0 .93.03 1.35.28.23.14.16.38 0 .54-.4.4-.84.49-1.35.49-.5 0-.95-.1-1.35-.5-.16-.16-.22-.4 0-.54.42-.25.86-.27 1.35-.27Z" fill="#FF6129"/></svg>