<!-- by TradingView --><svg xmlns="http://www.w3.org/2000/svg" width="18" height="18"><path fill="#F0F3FA" d="M0 0h18v18H0z"/><path d="M9.5 4a5 5 0 011.52.24A16.02 16.02 0 018.26 7.7a.17.17 0 00.22.25c.62-.57 2.03-2.07 2.86-3.61.29.11.56.25.82.42a16.27 16.27 0 01-7.13 6.47 4.98 4.98 0 01-.4-3.36l1.41.81-.38-1.8 1.37-1.24-1.13-.12A4.99 4.99 0 019.5 4zm2.94.95a16.6 16.6 0 01-7.25 6.59c.47.79 1.15 1.44 1.96 1.87 1.1-.35 3-1.18 4.4-2.51.15-.15.3-.3.44-.47a.66.66 0 01.51-1.1c.11 0 .21.03.3.08.6-.86 1.03-1.73 1.3-2.38a5.02 5.02 0 00-1.66-2.08zm1.83 2.54c-.28.62-.68 1.39-1.21 2.14.07.1.1.23.1.37a.67.67 0 01-.9.63 9.2 9.2 0 01-.49.5 12.36 12.36 0 01-4.19 2.49A4.99 4.99 0 0014.5 9a5 5 0 00-.23-1.51z" fill="url(#av3oyvzpt)"/><path d="M4.5 4.46l.55 1.24 1.35.14-1 .9.28 1.34L4.5 7.4l-1.18.68.29-1.33-1.01-.91 1.35-.14.55-1.24z" fill="url(#bv3oyvzpt)"/><defs><linearGradient id="av3oyvzpt" x1="4.62" y1="9.9" x2="14.49" y2="10.06" gradientUnits="userSpaceOnUse"><stop stop-color="#FFAF02"/><stop offset="1" stop-color="#FF5E1C"/></linearGradient><linearGradient id="bv3oyvzpt" x1="2.68" y1="6.29" x2="5.71" y2="6.46" gradientUnits="userSpaceOnUse"><stop stop-color="#EF6A37"/><stop offset="1" stop-color="#F29725"/></linearGradient></defs></svg>