<!-- by TradingView --><svg width="18" height="18" xmlns="http://www.w3.org/2000/svg"><path fill="#2C3A68" d="M0 0h18v18H0z"/><path d="M4.203 5.07L8.08 7.056l-.912.468c-.069.035-.157.015-.192 0L5.202 6.61C5.049 6.55 5 6.647 5 6.703v4.661c0 .145.149.111.218.076a946.515 946.515 0 015.58-2.875.277.277 0 01.236 0l.69.36c.117.106.03.194-.028.225l-7.413 3.8c-.248.127-.291-.018-.282-.107V5.14c.008-.129.138-.1.202-.069z" fill="#8AE2D8"/><path d="M13.797 12.93L9.92 10.944l.912-.468c.069-.035.156-.015.192 0l1.773.915c.153.06.202-.038.202-.095v-4.66c0-.145-.149-.111-.218-.076a945.55 945.55 0 01-5.58 2.875.277.277 0 01-.236 0l-.69-.36c-.117-.106-.03-.194.028-.225l7.413-3.8c.248-.127.291.018.282.107v7.704c-.008.129-.138.1-.202.069z" fill="#2C5FF3"/></svg>