<!-- by TradingView --><svg width="18" height="18" viewBox="0 0 18 18" xmlns="http://www.w3.org/2000/svg"><path fill="#3D3D3D" d="M0 0h18v18H0z"/><path d="M5.82 5.14 9 8c1.08-1 2.13-1.83 3.17-2.86a.49.49 0 0 1 .53-.1c.18.06.3.22.3.41V7c-1.28 1.22-2.45 2.66-3.7 3.88A.42.42 0 0 1 9 11a.4.4 0 0 1-.3-.12L7 9.5v3.12c0 .2-.18.38-.4.38H5.4c-.22 0-.4-.18-.4-.39V12h-.6c-.22 0-.4-.17-.4-.38v-1.24c0-.2.18-.38.4-.38H5V9h-.6c-.22 0-.4-.17-.4-.38V7.38c0-.2.18-.38.4-.38H5V5.45c0-.18.11-.35.3-.41a.47.47 0 0 1 .52.1ZM11.14 10.11l1.13-1c.13-.11.3-.14.47-.08.16.07.26.2.26.37v3.2c0 .22-.2.4-.43.4h-1.14c-.23 0-.43-.18-.43-.4v-2.2a.4.4 0 0 1 .14-.29Z" fill="#24DDD8"/></svg>