<!-- by TradingView --><svg width="18" height="18" viewBox="0 0 18 18" xmlns="http://www.w3.org/2000/svg"><path fill="url(#aehvntyp4)" d="M0 0h18v18H0z"/><path d="M3 5.1v4.8c0 .06.04.1.1.1h1.84c.05 0 .06-.04.06-.1V7.15c0-.05.07-.14.12-.14h1.8C6.97 7 7 7 7 6.96V5.09A.1.1 0 0 0 6.9 5H3.1a.1.1 0 0 0-.1.1Zm0 5.98c0-.04.04-.08.08-.08h1.84c.04 0 .08.04.08.08v1.84c0 .04-.04.08-.08.08H3.08a.08.08 0 0 1-.08-.08v-1.84Zm5 1.83V5.09c0-.05.04-.09.1-.09h5.32a.1.1 0 0 1 .06.03l1.5 1.46a.1.1 0 0 1 .02.07v6.35a.1.1 0 0 1-.1.09h-1.83c-.05 0-.07-.04-.07-.1V7.15c0-.05-.06-.14-.11-.14h-2.77c-.05 0-.12.1-.12.14v5.77c0 .05-.01.09-.06.09H8.09a.1.1 0 0 1-.09-.1Z" fill="#fff"/><defs><linearGradient id="aehvntyp4" x1="3.11" y1="2.65" x2="15.31" y2="15.2" gradientUnits="userSpaceOnUse"><stop stop-color="#0BD4F9"/><stop offset=".34" stop-color="#335DF7"/><stop offset=".62" stop-color="#5551CB"/><stop offset=".93" stop-color="#702EB6"/><stop offset="1" stop-color="#4E2EAD"/></linearGradient></defs></svg>