<!-- by TradingView --><svg width="18" height="18" viewBox="0 0 18 18" xmlns="http://www.w3.org/2000/svg"><path fill="#F0F3FA" d="M0 0h18v18H0z"/><path d="M11.94 13.12c-.64.5-1.28.67-2.11.82l-.52-.16-1.06-.28c-.03 0-.5-.67-.5-.67l.36-1.44 1.15-.12s-.1.2-.1.47c0 1.01.86 1.67 1.6 1.67.71 0 1.14-.27 1.18-.3Z" fill="url(#a0ajoeuod)"/><path d="M10.18 13.86c-.24.06-.5.1-.76.13l-.98-.3-.42-.29-.73-.72-.01-1.79 1.6-.68s1.48-.16.97.25c-.45.4-.6.81-.6.81s-.54.3-.54 1.3 1.43 1.28 1.47 1.29Z" fill="url(#b0ajoeuod)"/><path d="M9.93 13.91a5.14 5.14 0 0 1-1.57.05l-.92-.8.08-.74s.06-1.32.09-1.38l.42-1.09s1.82-.5 1.9-.5l1.66.24.01 1.01c-.22-.55-1-.52-1.4-.52-.4 0-2.3.38-2.3 1.98 0 1.57 1.98 1.75 2.03 1.75Z" fill="url(#c0ajoeuod)"/><path d="M9.08 14H9c-.6 0-1.17-.1-1.7-.3l-.56-.56-.51-.7.21-1.75 1.84-1.5.42-.62.23-.38s1.23-.02 1.91.27c.69.28 1.12.98 1.12 1.53 0 .54-.31.77-.31.77-.24-.5-1.1-.73-1.78-.73-.68 0-2.2.62-2.2 2.02 0 1.39 1.37 1.94 1.41 1.95Z" fill="url(#d0ajoeuod)"/><path d="M7.32 13.35s-.58-.6-.58-1.67c0-1.06 1.29-2.67 3.15-2.77 0 0-.2-.32-1-.4 0 0 1.25-.59 2.62.44 0 0-.35-.82-2.2-.97-1.86-.16-2.08.3-2.08.3l-.91 1.74-.24 1.57.14.82.37.77.73.17Z" fill="url(#e0ajoeuod)"/><path d="M8.15 13.93a5.21 5.21 0 0 1-.97-.27l-.59-.48-.5-1.22-.07-1.12.81-1.41 1.64-.57s-1.82.85-1.82 2.66c0 1.78 1.45 2.39 1.5 2.41Z" fill="url(#f0ajoeuod)"/><path d="M13.57 6.98a4.95 4.95 0 0 1-.56 5c.52-1.1.46-1.7.46-1.7-.22-3.05-3.34-2.76-3.34-2.76.5.18.62.63.62.63a3.37 3.37 0 0 0-3.43.75c.58-.26 1.14-.04 1.14-.04s-2.1.79-2.1 2.62 1.26 2.32 1.27 2.33a5.01 5.01 0 0 1-3.42-3.37l1.5-2.98 2.96-2.43 4.9 1.95Z" fill="url(#g0ajoeuod)"/><path d="M12.95 5.93a4.98 4.98 0 0 1 .25 5.78c1.17-1.94-.35-4.77-3.23-4.77-2.9 0-4.5 2.18-4.5 3.85s1.17 2.62 1.18 2.62a5.8 5.8 0 0 1-.67-.43l-.35-.49-1.06-1.74.05-2.48.82-1.4 3.99-1.9 3.52.96Z" fill="url(#h0ajoeuod)"/><path d="M6.53 13.35c-.5-.29-.94-.65-1.32-1.08l-.06-.23-.52-1.6.2-1.58 1.01-1.6 1.53-.61h.56a5 5 0 0 0-2.75 4.2c0 1.58 1.3 2.46 1.35 2.5Z" fill="url(#i0ajoeuod)"/><path d="M8.99 4a5 5 0 0 1 4.63 6.89 4.07 4.07 0 0 0-3.8-5.42 4.2 4.2 0 0 0-2.86 1.18h.46a4.86 4.86 0 0 0-2.54 3.97c0 .96.5 1.82.51 1.84A4.98 4.98 0 0 1 9 4Z" fill="url(#j0ajoeuod)"/><defs><linearGradient id="a0ajoeuod" x1="8.71" y1="11.79" x2="11.79" y2="13.56" gradientUnits="userSpaceOnUse"><stop stop-color="#2D5996"/><stop offset="1" stop-color="#2B7AB4"/></linearGradient><linearGradient id="b0ajoeuod" x1="9.88" y1="10.03" x2="8.56" y2="14.29" gradientUnits="userSpaceOnUse"><stop stop-color="#265D9A"/><stop offset="1" stop-color="#0D5192"/></linearGradient><linearGradient id="c0ajoeuod" x1="10.03" y1="9.88" x2="8.41" y2="14.15" gradientUnits="userSpaceOnUse"><stop stop-color="#2578BC"/><stop offset="1" stop-color="#6088BA"/></linearGradient><linearGradient id="d0ajoeuod" x1="11.65" y1="8.71" x2="8.12" y2="14" gradientUnits="userSpaceOnUse"><stop offset=".28" stop-color="#1E80C8"/><stop offset=".67" stop-color="#6283AC"/><stop offset="1" stop-color="#4771AC"/></linearGradient><linearGradient id="e0ajoeuod" x1="10.91" y1="7.97" x2="6.21" y2="13.56" gradientUnits="userSpaceOnUse"><stop stop-color="#1A7AC1"/><stop offset=".45" stop-color="#104D92"/></linearGradient><linearGradient id="f0ajoeuod" x1="8.12" y1="8.71" x2="7.25" y2="13.93" gradientUnits="userSpaceOnUse"><stop offset=".1" stop-color="#2374BC"/><stop offset=".53" stop-color="#5689BE"/><stop offset="1" stop-color="#2467AD"/></linearGradient><linearGradient id="g0ajoeuod" x1="11.94" y1="7.09" x2="6.5" y2="13.71" gradientUnits="userSpaceOnUse"><stop stop-color="#3189CD"/><stop offset="1" stop-color="#135EA9"/></linearGradient><linearGradient id="h0ajoeuod" x1="12.68" y1="6.5" x2="5.62" y2="12.82" gradientUnits="userSpaceOnUse"><stop stop-color="#2684CA"/><stop offset="1" stop-color="#003B7A"/></linearGradient><linearGradient id="i0ajoeuod" x1="7.82" y1="6.65" x2="5.47" y2="12.97" gradientUnits="userSpaceOnUse"><stop offset=".36" stop-color="#336DB0"/><stop offset="1" stop-color="#7E83AF"/></linearGradient><linearGradient id="j0ajoeuod" x1="11.35" y1="4.29" x2="4" y2="12.24" gradientUnits="userSpaceOnUse"><stop stop-color="#1A7CC5"/><stop offset="1" stop-color="#535B95"/></linearGradient></defs></svg>