<!-- by TradingView --><svg width="18" height="18" viewBox="0 0 18 18" xmlns="http://www.w3.org/2000/svg"><path fill="#F0F3FA" d="M0 0h18v18H0z"/><circle cx="9" cy="9" r="5"/><circle cx="9" cy="9" r="4.83" fill="#BCBCBC"/><path d="M9.58 7c.13-.02.26.03.3.11l1.11 2.7c.02.05 0 .1-.04.13a.31.31 0 0 1-.2.06h-3.5C7.1 10 7 9.93 7 9.85c0-.08.1-.15.24-.15h3.2L9.42 7.19c-.04-.08.04-.16.17-.19ZM7 11.2c0-.11.09-.2.2-.2h3.6c.11 0 .2.09.2.2a.2.2 0 0 1-.2.2H7.2a.2.2 0 0 1-.2-.2Z"/><circle cx="7.5" cy="6.5" r=".5"/><circle cx="11.5" cy="6.5" r=".5"/></svg>