<!-- by TradingView --><svg xmlns="http://www.w3.org/2000/svg" width="18" height="18"><path fill="#4100A8" d="M0 0h18v18H0z"/><path d="M5.9 6.33a3.33 3.33 0 014.04-.51c.29.18.53.4.76.65l-.42.31a2.55 2.55 0 00-1.21-.91 3 3 0 00-2.65.3c-.14.08-.27.18-.4.28H6l-.03-.04-.08-.08z" fill="#fff"/><path d="M14.5 4.76l-1 .1c-.12.02-.23.03-.31.1-.11.12 0 .27.08.37l.27.27.1.1-.09.09-.47.5-.02.02a6.33 6.33 0 00-.75-.85l-.05-.04-.07.06-.06.05c-.01.01.04.06.05.07l.23.27a5.35 5.35 0 01.44.6c.02.04.02.04 0 .06l-.3.3a4.54 4.54 0 00-2.01-1.91A4.5 4.5 0 004.7 6.78a4.51 4.51 0 00-.37 3.6v.05l-.04.03-.07.08-.16.16-.5.51-.54.55-.02.02.13.13c.02.01.03.04.04.02l.06-.06.69-.68.52-.5a4.52 4.52 0 008.62-2.42 4.6 4.6 0 00-.22-.81c-.01-.03-.03-.05-.01-.07l.07-.07.27-.26a4.6 4.6 0 01.3 3.3 5.22 5.22 0 01-.86 1.75l.6.36c.24-.43.46-.87.62-1.34a5.26 5.26 0 00.02-3.31 5.1 5.1 0 00-.32-.76l-.1-.17-.02-.04c-.01-.02 0-.02.02-.04l.08-.08.3-.28.29-.28.44.45c.1.1.27.2.36.03.04-.08.04-.17.04-.26l.04-.78.02-.33c0-.1 0-.2-.05-.3a.45.45 0 00-.45-.22zM4.7 9.68a3.87 3.87 0 01.52-3.02 3.78 3.78 0 016.71.72c.01.03.04.07.02.1l-.08.08-.57.6-1.19 1.23-.6.63-.22.22c-.05.05-.16.16-.25.13-.1-.05-.12-.24-.14-.34l-.16-.82c-.1-.56-.2-1.11-.32-1.66-.05-.24-.19-.5-.46-.52a.64.64 0 00-.5.2l-.38.38-.62.63-1.68 1.72a3.9 3.9 0 01-.08-.28c.03.1-.18-.73 0 0zm4.22.47zm3.16-.6a3.76 3.76 0 01-6.2 2.07l-.04-.02s-.02-.02 0 0a4.44 4.44 0 01-.92-1.28c-.01-.03-.04-.07-.02-.1l.08-.07.55-.54L6.7 8.44l.62-.61c.13-.13.25-.26.38-.37.06-.05.15-.12.23-.09.1.04.13.2.14.3l.16.83.28 1.63c.02.12.04.24.1.35.12.2.31.32.55.28.2-.04.35-.17.49-.3l.63-.62 1.83-1.77c.08.5.07 1-.04 1.49.12-.53-.05.26 0 0z" fill="#fff"/></svg>