<!-- by TradingView --><svg width="18" height="18" viewBox="0 0 18 18" xmlns="http://www.w3.org/2000/svg"><path fill="#1E1F3E" d="M0 0h18v18H0z"/><path d="M13.99 10.09a.58.58 0 0 0-.26-.6l-.26-.18-.63.31c.48 0 .88.22.84.37a4.73 4.73 0 0 1-4.63 3.7A4.71 4.71 0 0 1 4.32 9a4.71 4.71 0 0 1 4.73-4.69 4.73 4.73 0 0 1 4.63 3.7c.04.16-.36.37-.84.37l.63.3.25-.15c.2-.13.32-.37.27-.6A5.04 5.04 0 0 0 9.05 4 5.03 5.03 0 0 0 4 9c0 2.76 2.26 5 5.05 5A5.04 5.04 0 0 0 14 10.09Zm-4.1-.05a2.1 2.1 0 0 0 1.3-1.93c0-1.16-.98-2.11-2.2-2.11-1.22 0-2.18.97-2.18 2.13 0 .87.52 1.59 1.3 1.91l-.84.68a2.5 2.5 0 0 0-.77-.58c.1.1.21.3.32.48.1.2.2.37.28.42.13.1.76.03 1.12-.36v.1l-.54.81c-.2-.14-.61-.27-.82-.28l.05.04c.1.07.19.14.3.27.15.17.29.32.37.36.16.08.85-.14 1.08-.67L9 11l.33.28c.22.55.93.78 1.1.7.07-.04.21-.2.36-.36.1-.11.18-.17.26-.22l.1-.07c-.22 0-.62.12-.83.26l-.55-.82.02-.08c.37.38.98.45 1.1.35.08-.05.18-.23.3-.42.1-.18.21-.37.3-.48-.2.04-.6.4-.76.58l-.84-.68Zm-.87-2.49h-.04l-.07.09c-.13.17-.28.36-.47.36C8.2 8 8 7.78 8 7.5c0-.26.18-.47.4-.5h1.24v.01c.2.05.36.25.36.49 0 .28-.2.5-.44.5-.2 0-.34-.2-.47-.36a4.54 4.54 0 0 0-.07-.09Z" fill="url(#aiosz4ra1)"/><defs><linearGradient id="aiosz4ra1" x1="9" y1="4" x2="9" y2="14" gradientUnits="userSpaceOnUse"><stop stop-color="#A520B6"/><stop offset="1" stop-color="#15E6FC"/></linearGradient></defs></svg>