<!-- by TradingView --><svg width="18" height="18" viewBox="0 0 18 18" xmlns="http://www.w3.org/2000/svg"><path fill="url(#aksewzv1k)" d="M0 0h18v18H0z"/><path d="M8.66 3.08c.22-.1.46-.1.68 0l4.13 1.9c.32.14.53.48.53.85v6.34c0 .37-.2.7-.53.85l-4.13 1.9c-.22.1-.46.1-.68 0l-4.13-1.9a.93.93 0 0 1-.53-.85V5.83c0-.37.2-.7.53-.85l4.13-1.9Z" fill="#29C2F6"/><path d="M8.76 4.56a.56.56 0 0 1 .48 0l2.96 1.42a.7.7 0 0 1 .37.64v4.75a.7.7 0 0 1-.37.65l-2.96 1.42a.56.56 0 0 1-.48 0L5.8 12.02a.7.7 0 0 1-.37-.64V6.62a.7.7 0 0 1 .37-.64l2.96-1.42Z" fill="#0451C8"/><path d="M4.16 12.7a.98.98 0 0 1-.16-.53V5.83c0-.2.06-.38.16-.53L9 7.5v3l-4.84 2.2Z" fill="#ED723A"/><path d="M5.74 11.98a.72.72 0 0 1-.31-.6V6.62c0-.25.12-.48.31-.6L9 7.5v3l-3.26 1.48Z" fill="url(#bksewzv1k)"/><path d="M13.84 5.3c.1.15.16.34.16.53v6.34c0 .2-.06.38-.16.53L9 10.5v-3l4.84-2.2Z" fill="url(#cksewzv1k)"/><path d="M12.26 6.02c.19.12.31.35.31.6v4.76c0 .25-.12.48-.31.6L9 10.5v-3l3.26-1.48Z" fill="url(#dksewzv1k)"/><path d="M13.84 12.7a.88.88 0 0 1-.37.32l-4.13 1.9A.82.82 0 0 1 9 15v-4.5l4.84 2.2Z" fill="url(#eksewzv1k)"/><path d="M12.26 11.98a.57.57 0 0 1-.06.04l-2.96 1.42a.56.56 0 0 1-.24.06v-3l3.26 1.48Z" fill="#3C75D2"/><path d="M9 3v4.5L4.16 5.3c.09-.14.21-.25.37-.32l4.13-1.9A.82.82 0 0 1 9 3Z" fill="url(#fksewzv1k)"/><path d="M9 4.5v3L5.74 6.02a.6.6 0 0 1 .06-.04l2.96-1.42A.56.56 0 0 1 9 4.5Z" fill="url(#gksewzv1k)"/><path d="M9 3v4.5l4.84-2.2a.88.88 0 0 0-.37-.32l-4.13-1.9A.82.82 0 0 0 9 3Z" fill="url(#hksewzv1k)"/><path d="M12.26 6.02a.6.6 0 0 0-.06-.04L9.24 4.56A.56.56 0 0 0 9 4.5v3l3.26-1.48Z" fill="#6334AA"/><path d="M11.5 9a2.5 2.5 0 1 1-5 0 2.5 2.5 0 0 1 5 0Z" fill="url(#iksewzv1k)"/><defs><linearGradient id="aksewzv1k" x1="9" y1="0" x2="9" y2="18" gradientUnits="userSpaceOnUse"><stop stop-color="#251F2E"/><stop offset=".47" stop-color="#4B297C"/><stop offset="1" stop-color="#221E27"/></linearGradient><linearGradient id="bksewzv1k" x1="5.43" y1="8.58" x2="8.82" y2="8.58" gradientUnits="userSpaceOnUse"><stop stop-color="#E14719"/><stop offset="1" stop-color="#EC6813"/></linearGradient><linearGradient id="cksewzv1k" x1="10.79" y1="6.93" x2="14.04" y2="12.25" gradientUnits="userSpaceOnUse"><stop stop-color="#DF62AF"/><stop offset="1" stop-color="#D4438D"/></linearGradient><linearGradient id="dksewzv1k" x1="9" y1="8.06" x2="12.26" y2="8.73" gradientUnits="userSpaceOnUse"><stop stop-color="#894EBA"/><stop offset="1" stop-color="#95428A"/></linearGradient><linearGradient id="eksewzv1k" x1="9.46" y1="14.43" x2="13.12" y2="13.34" gradientUnits="userSpaceOnUse"><stop stop-color="#68D5FF"/><stop offset="1" stop-color="#29C2F6"/></linearGradient><linearGradient id="fksewzv1k" x1="9.01" y1="3" x2="5.32" y2="6.18" gradientUnits="userSpaceOnUse"><stop offset=".17" stop-color="#FAC35F"/><stop offset="1" stop-color="#F9A56E"/></linearGradient><linearGradient id="gksewzv1k" x1="5.89" y1="6" x2="9.46" y2="6.96" gradientUnits="userSpaceOnUse"><stop offset=".2" stop-color="#F68D44"/><stop offset="1" stop-color="#F8B136"/></linearGradient><linearGradient id="hksewzv1k" x1="8.99" y1="4.8" x2="13.58" y2="4.8" gradientUnits="userSpaceOnUse"><stop offset=".21" stop-color="#945ED3"/><stop offset="1" stop-color="#BF3C90"/></linearGradient><linearGradient id="iksewzv1k" x1="6.81" y1="7.39" x2="9" y2="11.5" gradientUnits="userSpaceOnUse"><stop offset=".64" stop-color="#FDFAF8"/><stop offset="1" stop-color="#FDFAF8" stop-opacity=".4"/></linearGradient></defs></svg>