<!-- by TradingView --><svg width="18" height="18" viewBox="0 0 18 18" xmlns="http://www.w3.org/2000/svg"><path fill="#F0F3FA" d="M0 0h18v18H0z"/><path d="M15 8a1 1 0 1 1-2 0 1 1 0 0 1 2 0ZM2 10.46a5.06 5.06 0 0 1 2.8-.82c.87 0 2.05.44 3.19.85 1.03.38 2.03.75 2.71.75 1.1 0 1.53-.14 1.62-.23-.34.34-1.33.99-2.64.99-.86 0-2.23-.45-3.54-.88-1.19-.4-2.32-.77-2.97-.77-.55 0-1.01.08-1.17.11Zm10.33.54v.01ZM7.45 7.62c-1.35 0-2.42.55-2.8.83.17-.04.63-.11 1.18-.11.65 0 1.78.38 2.97.77 1.3.44 2.68.9 3.54.9A4 4 0 0 0 15 9c-.1.1-.54.24-1.63.24-.68 0-1.68-.37-2.72-.76-1.13-.42-2.3-.86-3.19-.86Z" fill="#E0077D"/></svg>