<!-- by TradingView --><svg xmlns="http://www.w3.org/2000/svg" width="18" height="18" viewBox="0 0 18 18"><path fill="#F0F3FA" d="M0 0h18v18H0z"/><path d="M10.54 10.96H5V6.72C5 5.22 6.21 4 7.7 4h2.84A3.47 3.47 0 0 1 14 7.48a3.47 3.47 0 0 1-3.46 3.48z" fill="url(#ai2jf4alb)"/><path d="M7.77 6.79c-1.7-.86-1.84-1.71-1.68-2.25A2.73 2.73 0 0 0 5 6.72V11h5.5c.81 0 1.6-.32 2.2-.8-.3-2.06-2.62-2.25-4.93-3.41z" fill="url(#bi2jf4alb)"/><path d="M5 7.68v4.75c0 .91.71 1.57 1.5 1.57.22 0 .44-.05.66-.17l.32-.17c1.61-.85 1.45-3.53-.26-4.13C5.99 9.1 5 8.82 5 7.68z" fill="url(#ci2jf4alb)"/><path d="M8.12 4c.4.45 1.26 1.02 3.11 1.4 1.07.2 1.93.62 2.62 1.09A3.47 3.47 0 0 0 10.54 4H8.12z" fill="url(#di2jf4alb)"/><defs><linearGradient id="ai2jf4alb" x1="9.09" y1="7.74" x2="11.19" y2="5.33" gradientUnits="userSpaceOnUse"><stop stop-color="#0080EE"/><stop offset="1" stop-color="#01C5F6"/></linearGradient><linearGradient id="bi2jf4alb" x1="7.68" y1="9.72" x2="9.28" y2="7.52" gradientUnits="userSpaceOnUse"><stop stop-color="#725BFF"/><stop offset="1" stop-color="#9665FB"/></linearGradient><linearGradient id="ci2jf4alb" x1="5.9" y1="13.8" x2="7.53" y2="9.86" gradientUnits="userSpaceOnUse"><stop stop-color="#3C31D6"/><stop offset=".98" stop-color="#2880FA"/></linearGradient><linearGradient id="di2jf4alb" x1="12.1" y1="4.58" x2="11.35" y2="5.6" gradientUnits="userSpaceOnUse"><stop stop-color="#00E5CC"/><stop offset=".94" stop-color="#10DCC6"/></linearGradient></defs></svg>