<!-- by TradingView --><svg width="18" height="18" fill="none" xmlns="http://www.w3.org/2000/svg"><path fill="url(#paint0_linear_1530)" d="M0 0h18v18H0z"/><path d="M14 12.753v-1.411l-2.344-2.33H10.25l3.75 3.74zM4 5.466v1.372L6.371 9h1.375L4 5.466zM5.25 4h1.367L8.98 6.335 11.322 4h1.428L9 7.764 5.25 4zM5.25 14h1.367l2.363-2.335L11.322 14h1.428L9 10.259 5.25 14z" fill="#fff"/><path d="M8.988 10.002a1 1 0 100-2 1 1 0 000 2z" fill="#E6007A"/><defs><linearGradient id="paint0_linear_1530" x1="3.349" y1="3.122" x2="21.904" y2="24.434" gradientUnits="userSpaceOnUse"><stop stop-color="#1A1E21"/><stop offset="1" stop-color="#06060A"/></linearGradient></defs></svg>