<!-- by TradingView --><svg width="18" height="18" viewBox="0 0 18 18" xmlns="http://www.w3.org/2000/svg"><path fill="url(#anvgi3cfc)" d="M0 0h18v18H0z"/><path d="M12.75 9.72a.83.83 0 0 0-1.06.48c-.03.1-.1.21-.2.34a4.21 4.21 0 0 1-1.2 1.04 3.43 3.43 0 0 1-2.43.37.83.83 0 0 0-.98.62c-.1.44.18.88.62.98a5.07 5.07 0 0 0 3.6-.54 5.92 5.92 0 0 0 1.73-1.5c.16-.23.3-.47.4-.73a.82.82 0 0 0-.48-1.06ZM14 8.19a4.42 4.42 0 0 0-.64-1.97 4.82 4.82 0 0 0-2.96-2.19c-.43-.12-.88.12-1.01.52s.12.82.56.94c.4.11.8.3 1.13.54.34.25.64.56.86.93.26.43.4.88.43 1.33.03.42.42.74.87.7.45-.02.79-.38.76-.8Z" fill="#FCA311"/><path d="M10.43 9.8A1.94 1.94 0 0 0 7.7 7.07c-.76.76-.87 2.85-.49 3.23.37.37 2.46.27 3.22-.48Z" fill="url(#bnvgi3cfc)"/><path d="M8.2 5.5c.43-.1.7-.52.59-.93-.11-.4-.56-.65-1-.55-.42.1-.84.26-1.25.47a4.84 4.84 0 0 0-1.88 1.74c-.43.7-.66 1.5-.66 2.31v4.7c0 .42.55.76 1 .76.45 0 1-.34 1-.76v-4.7c0-1.53.72-2.7 2.2-3.05Z" fill="#FCA311"/><defs><linearGradient id="anvgi3cfc" x1="3.35" y1="3.12" x2="21.9" y2="24.43" gradientUnits="userSpaceOnUse"><stop stop-color="#1A1E21"/><stop offset="1" stop-color="#06060A"/></linearGradient><linearGradient id="bnvgi3cfc" x1="7" y1="9.91" x2="12.34" y2="7.76" gradientUnits="userSpaceOnUse"><stop stop-color="#ADA5EC"/><stop offset="1" stop-color="#A99EF2"/></linearGradient></defs></svg>