<!-- by TradingView --><svg width="18" height="18" viewBox="0 0 18 18" xmlns="http://www.w3.org/2000/svg"><path fill="#BAD3C0" d="M0 0h18v18H0z"/><path fill-rule="evenodd" d="M13.93 14H4c.26-.28.39-.53.38-.77-.04-1.4.13-2.8.5-4.18.02-.03 0-.05-.02-.06a1.65 1.65 0 0 1-.74-.67C4 8.1 4.08 8 4.19 7.86l.05-.07c.02-.03.02-.05 0-.08-.22-.38-.17-.74.14-1.07.05-.05.06-.1.05-.16-.07-.3.04-.5.32-.62.03-.02.04-.03.04-.06.03-.56.37-1 .93-1.13a.1.1 0 0 0 .07-.05c.07-.14.17-.26.3-.36a.1.1 0 0 0 .05-.06c.14-.66.61-1.14 1.32-1.2.57-.04 1.1.28 1.34.79.01.02.03.03.06.03.35-.04.68 0 .99.1h.08l.33-.23c.71-.47 1.68-.53 2.3.13.61.65.8 1.42.54 2.32a.66.66 0 0 1-.16.3.17.17 0 0 0 0 .23l.27.33c.07.1.14.14.24.21l.03.03c.14.1.16.26.16.4 0 .04 0 .06.03.08.15.11.16.29.03.51a.1.1 0 0 0 0 .1c.1.16.2.4.08.59-.03.05-.11.09-.18.12l-.14.08c-.02.02-.03.04-.01.07.12.2.2.4.22.58 0 .03.02.05.05.06l.04.01c.07.02.12.04.16.1.2.3-.02.54-.23.76l-.02.01-.02.03.01.04c.21.39.06.58-.26.78a.09.09 0 0 0-.04.07c-.1.93-.9 1.14-1.71 1.3-.03.01-.05.03-.04.06.02.31.26.36.59.4l.24.01c.64.06 1.13.1 1.5.6ZM6.64 4.07c.31-.64 1.06-.83 1.6-.32a.03.03 0 0 1 0 .03v.01l-.01.02H8.2c-.45-.1-.83.01-1.13.33-.02.02-.04.02-.07.01a.88.88 0 0 0-.35-.05.02.02 0 0 1 0-.02.02.02 0 0 1 0-.01Zm4.93.3.03.05.06.3c0 .02.01.03.02.03l.02.02c.3.12.48.32.53.62 0 .02.02.04.05.05.2.1.32.24.37.44v.2c0 .06.02.06.04 0 .27-.63-.1-1.85-.79-2.16a1.49 1.49 0 0 0-1.06-.05c-.06.02-.07.05 0 .08l.68.38.05.04Z" fill="#020201"/><path d="M6.42 14H4.2c.36-.45.36-.76.35-1.32l.01-.67a17.66 17.66 0 0 1 .51-2.95.2.2 0 0 1 .08-.05c.77-.26 1.49-.7 1.95-1.32l.4-.56c.5-.61 1.43-.85 2.2-.64.49.13.84.4 1.07.81.02.02 0 .03-.02.03a4.46 4.46 0 0 0-3.34.58c-.15 0-.26.04-.33.1-.3.28-.61.54-.94.78a.84.84 0 0 0-.22.33 1.5 1.5 0 0 0-.1.37l-.12.76c-.02.23-.16.58-.1.82.1.41.16.94.2 1.59.02.18.09.38.21.58.16.24.3.5.42.76Z" fill="#00AA37"/><path d="M9.48 14H6.6a9.83 9.83 0 0 0-.53-.94c-.07-.1-.11-.39-.12-.53a7.06 7.06 0 0 0-.19-1.39.9.9 0 0 1 0-.41c.07-.28.14-.68.21-1.21.05-.32.17-.56.42-.74l.83-.68c.1-.1.21-.09.31.02l.02.01c.04.05.06.1.05.17 0 .05-.03.11-.08.15l-.6.55a1.72 1.72 0 0 0-.08 1.19c.01.04 0 .06-.03.08l-.58.26a.07.07 0 0 0-.02.02.07.07 0 0 0-.01.06c0 .01 0 .02.02.03l.02.03a.03.03 0 0 0 .04 0l1.36-.63a.3.3 0 0 1 .26 0l.19.07c.06.03.06.06 0 .09l-.7.37-.02.01v.07l.02.02h.01a.05.05 0 0 0 .04 0l.85-.38a.3.3 0 0 1 .25-.01l.37.15c.1.04.1.08 0 .12l-.7.36a.06.06 0 0 0-.04.04v.04l.03.04v.01a.04.04 0 0 0 .05 0l.64-.31c.18-.09.33-.11.47-.07.2.06.3.2.33.43.04.37.03.66-.02.87-.02.1-.1.17-.24.19-.04 0-.06-.01-.06-.04l-.07-.32.01-.07c.13-.21.15-.42.06-.63v-.02a.05.05 0 0 0-.04-.01H9.3l-.03.02a.05.05 0 0 0-.03.02v.03a.6.6 0 0 1-.11.57.1.1 0 0 0-.02.08c.08.28.17.52.21.8.06.47.12.94.16 1.42Z" fill="#00AA37"/><path d="M13.76 14h-4.1l-.12-.97c0-.02.01-.04.04-.04l.63.03c.33.03.73 0 1.2-.07.02 0 .04 0 .04.03.07.5.43.5.93.55l.82.1c.2.03.39.15.56.37Z" fill="#00AA37"/><path d="M6.67 3.8c-.1.12-.11.33-.33.36a.06.06 0 0 1-.05-.02v-.05c.17-.6.66-1 1.33-.98.39.01.73.2 1.02.59.05.06.05.12 0 .18-.01.01-.04.02-.09.02a.1.1 0 0 1-.05 0 .1.1 0 0 1-.03-.04c-.48-.67-1.28-.68-1.8-.06ZM12.78 6.2c.22-.67.09-1.28-.26-1.87-.37-.63-1.23-.82-1.9-.48a.11.11 0 0 1-.07.01l-.23-.05v-.03a1.8 1.8 0 0 1 1.78-.18c.23.12.43.32.62.59.4.58.48 1.26.24 2.04-.01.04-.04.06-.09.07 0 0-.02 0-.03-.02l-.06-.08Z" fill="#0F51B0"/><path d="M8.09 5.34h.03c.03 0 .04-.02.05-.05l.09-.24c.1-.28.4-.17.6-.1.03.02.05.01.07-.01v-.05a.07.07 0 0 0-.02-.03.76.76 0 0 0-.47-.13.1.1 0 0 1-.07-.03c-.28-.3-.64-.46-1.07-.5-.1 0-.1-.03-.02-.08.67-.4 1.31-.2 1.66.43.12.22.2.37.2.45.1.47.14.88.52 1.12.03.01.04.04.02.07l-.04.06-.02.01-.02.01h-.65c-.04 0-.05-.02-.04-.05l.06-.23a.04.04 0 0 0 0-.03l-.02-.01H8.9c-.04 0-.06.01-.07.04l-.08.26-.01.03-.03.02c-.52.11-.9.3-1.17.54-.23.23-.47.69-.83 1.05a.09.09 0 0 1-.08.02c-.4-.05-.71-.04-.78-.44a.6.6 0 0 1 .23-.6.12.12 0 0 1 .08-.03c.16 0 .34-.18.54-.33a.08.08 0 0 1 .07-.02l.16.04h.05L7 6.5l.54-.87a.11.11 0 0 0 .02-.08c-.02-.13-.06-.21-.12-.25a1 1 0 0 0-.76-.16c-.03 0-.05 0-.05-.03.02-.28.19-.77.57-.76.4 0 .75.15 1.03.42v.04a.72.72 0 0 0-.2.47c0 .03.02.05.05.06Z" fill="#F68688"/><path d="M9.6 4.51c.2 0 .38.07.53.2l.04.07c.04.2.1.5.27.63.03.02.05.03.07.02a.1.1 0 0 0 .04-.02c.03-.02.03-.04.01-.06a1.4 1.4 0 0 1-.23-.51c0-.05 0-.06.05-.03l.55.3c.02 0 .04.03.05.05.21.46.58.6 1.1.4.09-.02.17 0 .26.09.17.15.2.32.1.52-.01.02-.03.03-.06.02-.1-.02-.2-.08-.32-.1-.67-.15-1.27 0-1.8.42a.06.06 0 0 1-.06 0l-.4-.16H9.8a.04.04 0 0 1 0-.06c.15-.14.31-.2.5-.17a.05.05 0 0 0 .04-.02l.01-.01v-.05c0-.03-.01-.05-.04-.05a.85.85 0 0 0-.43.05.07.07 0 0 1-.06 0c-.35-.21-.39-.48-.48-.9-.09-.43-.28-.79-.58-1.07-.06-.06-.04-.09.04-.1.54-.07 1 .02 1.38.28.04.02.06.05.07.08.02.04.02.07 0 .11v.03c-.02.07-.07.1-.13.05a.92.92 0 0 0-.47-.14c-.02 0-.04 0-.05.02a.07.07 0 0 0-.03.04v.03a.04.04 0 0 0 .01.03.04.04 0 0 0 .03.01Z" fill="#F68688"/><path d="M10.4 4.52c-.01-.2-.09-.36-.23-.47-.05-.04-.05-.06.02-.08l.07-.01c.06-.01.11 0 .15.06.07.1.1.24.12.38 0 .04-.01.08-.05.1l-.03.04c-.04.03-.05.03-.05-.02ZM10.7 4.36h-.03l-.02-.02-.01-.02c0-.03 0-.04.03-.04s.07.01.11.05c.03.02.05.03.08.02h.04a.05.05 0 0 0 .03-.03v-.05l-.05-.08c-.02-.05-.01-.06.04-.05.24.05.37.2.39.44 0 .02-.01.03-.03.02l-.03-.01-.02-.02c-.03-.09-.1-.12-.2-.1a.3.3 0 0 1-.26-.09.09.09 0 0 0-.06-.02Z" fill="#EF303B"/><path d="M6.79 4.4a.99.99 0 0 0-.27.84.08.08 0 0 1-.02.07l-.24.27c-.02.02-.04.02-.07 0-.37-.3-.43-.65-.18-1.03.04-.07.1-.13.17-.18a.62.62 0 0 1 .24-.09l.28-.04c.19-.03.22.02.09.15Z" fill="#F68688"/><path d="M11.44 4.68a.73.73 0 0 1-.09-.28c0-.05.01-.06.05-.03l.08.08a.1.1 0 0 1 .04.08v.34c0 .03-.02.04-.06.03a.14.14 0 0 1-.06-.05c-.02-.03-.02-.05 0-.07l.03-.03c.02-.02.03-.04.01-.07ZM11.36 4.97l-.75-.37a.07.07 0 0 0-.1.03l-.02.05c-.02.03 0 .07.03.09l.75.37c.03.02.08 0 .1-.03l.02-.04a.07.07 0 0 0-.03-.1Z" fill="#EF303B"/><path d="M5.52 5.91c.02 0 .04 0 .05-.02l.01-.03v-.03a.04.04 0 0 0-.02-.02.92.92 0 0 0-.58-.03.04.04 0 0 1-.03 0v-.02l-.01-.02c.05-.42.27-.72.66-.9.08-.03.1 0 .1.07-.02.3.13.57.44.8.02 0 .03.03.01.05l-.14.3a.1.1 0 0 0 0 .08c.03.07 0 .14-.1.22-.05.03-.07.1-.07.18v.04a.1.1 0 0 1-.03.03l-.11.11-.04.02-.03-.01c-.3-.26-.64-.34-1.01-.25-.03 0-.05 0-.06-.03-.03-.18.01-.32.14-.4.24-.16.51-.2.82-.14ZM11.29 5.27c.18-.07.3-.18.35-.33 0-.03.03-.04.05-.02.2.1.33.24.4.43 0 .02 0 .05-.04.06-.33.17-.62.12-.84-.14-.04-.05-.04-.06.01-.03 0 0 .02 0 .03.02h.04Z" fill="#F68688"/><path d="M6.77 5.53a.81.81 0 0 1-.25 0c-.03 0-.04-.02-.02-.05.16-.26.42-.31.76-.17.05.03.07.07.04.12l-.24.38-.02.02-.04.01h-.16c-.04 0-.06-.02-.06-.05 0-.02 0-.04.02-.05.03-.05.14-.06.19-.1A.08.08 0 0 0 7 5.57c0-.08-.04-.12-.1-.14-.03 0-.06 0-.09.02a.1.1 0 0 0-.05.08ZM7.15 5.86c-.14.23-.22.42-.2.44.04.01.17-.16.3-.38.14-.23.22-.43.2-.44-.04-.02-.17.15-.3.38ZM6.72 5.89a.11.11 0 0 1 .03-.03c.02 0 .03 0 .02.02-.02.08-.05.14-.1.17a.07.07 0 0 1-.07.01c-.17-.08-.32-.06-.45.07-.05.04-.06.04-.03-.01l.1-.26c.02-.04.05-.05.08-.04l.35.09c.03 0 .05 0 .07-.02Z" fill="#EF303B"/><path d="M6.2 6.58c-.03-.06-.11-.09-.2-.11-.02 0-.03-.02 0-.04l.3-.28a.11.11 0 0 1 .08-.03c.17 0 .25.08.26.24 0 .02-.01.05-.03.06l-.25.23c-.02.03-.05.03-.08.01a.16.16 0 0 1-.07-.08ZM12.5 9.86l.02.02a.06.06 0 0 0 .05 0h.02l.02-.03.02-.03-.01-.04-.14-.23a.02.02 0 0 1 0-.02l.02-.01c.26-.02.52-.11.76-.26.05-.03.08-.02.1.03l.17.49v.06c-.2.3-.48.51-.84.62a5.72 5.72 0 0 1-2.68.14c-.13-.02-.48-.04-.72-.1a.6.6 0 0 1-.24-.13c-.2-.16-.43-.26-.71-.27a.14.14 0 0 1-.08-.03 1.15 1.15 0 0 0-.5-.22c-.03 0-.06 0-.1.02l-.6.28c-.05.02-.08 0-.1-.04a1.7 1.7 0 0 1 .08-1.04l.51-.44c.1-.1.22-.1.33-.02.06.05.26.17.6.36.18.11.39.19.61.23.75.14 1.31.2 1.99-.13a.07.07 0 0 1 .08.02l.01.02.06.25c.01.06-.01.1-.07.12a4.79 4.79 0 0 1-3.06.02.06.06 0 0 0-.04.04v.06a4.8 4.8 0 0 0 3.13.02c.11-.04.2-.08.2-.21-.01-.16-.01-.4-.18-.47a.1.1 0 0 1-.05-.06L11 8.43c0-.02 0-.04.02-.06.1-.1.16-.19.17-.26a.97.97 0 0 0-.07-.49c-.24-.41-.38-.7-.74-.97a.03.03 0 0 1 0-.04V6.6a1.88 1.88 0 0 1 2.01-.21c.18.1.4.32.66.66.01.02 0 .03-.01.03-.47 0-.92.12-1.33.34-.06.03-.07.07-.03.12l.01.03a.02.02 0 0 0 .03.01c.37-.21.77-.33 1.2-.35.15 0 .3.02.44.09a.2.2 0 0 1 .1.11l.03.11c.02.05 0 .07-.05.06a2.2 2.2 0 0 0-1.82.29.03.03 0 0 0 0 .04l.03.03.04.02.05-.01c.52-.3 1.22-.42 1.8-.17.07.03.11.09.1.17v.06c-.01.07-.05.1-.12.05a1.84 1.84 0 0 0-1.37-.14c-.5.12-.61.49-.68.92 0 .07.03.11.1.12.53.05 1.02 0 1.5-.15.1-.04.27-.15.5-.34.02-.02.04-.01.06.01.05.1.06.2.04.29a.1.1 0 0 1-.05.06c-.13.06-.19.07-.27.16-.42.38-.88.39-1.44.35a.05.05 0 0 0-.04.01v.02l-.01.02v.03c.01.04.04.06.08.06.25.02.44.14.57.36Z" fill="#00AA37"/><path d="M4.64 7.61H4.4a.07.07 0 0 1-.06-.03.57.57 0 0 1-.05-.53c.2-.6.75-.54 1.23-.25.02.01.02.03.02.06-.04.12-.15.3-.15.48 0 .51.28.83.85.95.02 0 .02.02 0 .03l-.36.2h-.04a1.73 1.73 0 0 1-1.14-.87.07.07 0 0 0-.03-.03.08.08 0 0 0-.04 0Z" fill="#F68688"/><path d="M5.83 7.73c.16.26.52.21.71.29.03 0 .03.02.01.04a.35.35 0 0 1-.21.1c-.4.02-.78-.27-.82-.65-.04-.39.13-.65.46-.89.04-.03.08-.03.11 0l.03.03c.02.02.02.04 0 .05-.42.3-.51.64-.29 1.03Z" fill="#0F51B0"/><path d="m7.73 8.15-.1-.17v-.02c.98-.55 1.99-.7 3.03-.5.22.05.34.17.37.36 0 .03 0 .04-.04.03a4.11 4.11 0 0 0-3.23.3h-.03Z" fill="#00AA37"/><path d="M4.65 7.77c.21.41.56.61 1.02.8.03.02.04.04 0 .06a.15.15 0 0 1-.13.02 1.56 1.56 0 0 1-1.02-.9v-.01H4.64l.02.03ZM4.27 8.21c.02.03.04.04.07.03.03-.01.06 0 .08.02l.18.22c.02.03.02.05-.01.06l-.07.04h-.06a1.14 1.14 0 0 1-.27-.4.2.2 0 0 1 .03-.2l.12-.15c.04-.06.08-.06.1.01.08.2.21.39.4.55.03.03.03.05 0 .07l-.07.08h-.04L4.5 8.2l-.03-.13c0-.02-.02-.04-.05-.05a.22.22 0 0 0-.1-.01.08.08 0 0 0-.03.02.1.1 0 0 0-.03.05v.06l.02.06Z" fill="#EF303B"/><path d="M10.58 8.14a3.54 3.54 0 0 0-1.55.07c-.54.12-1.11.3-1.3.2l-.01-.01a.03.03 0 0 1 0-.04h.01a3.82 3.82 0 0 1 3.28-.32.09.09 0 0 1 .02.07l-.01.03-.07.12c-.04.05-.08.06-.12.02a.75.75 0 0 0-.25-.14Z" fill="#00AA37"/><path d="M12.95 8.64c.1-.16.02-.38-.08-.57-.02-.03-.01-.04.02-.04.24.03.44.09.6.19.03.01.03.03.02.05a.9.9 0 0 1-.55.41h-.01a.02.02 0 0 1 0-.04ZM12.02 8.18c-.14.2-.13.45.06.62.04.03.03.04-.02.04h-.36c-.04 0-.06-.02-.05-.05.03-.22.12-.55.35-.64.04-.02.05-.01.02.03ZM9.88 8.24c.3 0 .71-.03.9.2.13.15.2.3.23.47 0 .02-.01.04-.04.05-.33.14-.67.21-1.04.2-.04 0-.05-.02-.03-.04a.68.68 0 0 0-.03-.86v-.02Z" fill="#fff"/><path d="M12.64 10.63c.41-.1.73-.31.95-.62.07-.08.14-.08.21.02l.03.08c.01.07 0 .14-.04.21-.2.3-.48.5-.86.6-1.04.31-2.05.35-3.04.11a.1.1 0 0 1-.08-.07l-.07-.2c0-.03 0-.04.04-.04.3.02.72.12 1.05.13.6.02 1.2-.05 1.81-.22Z" fill="#B55C5A"/><path d="M11.75 11.3a4.5 4.5 0 0 0 1.73-.46c.03-.02.06-.01.07.02.18.43-.26.62-.6.7a6.24 6.24 0 0 1-3.09-.13l-.02-.23a.02.02 0 0 1 .03-.02c.63.12 1.22.2 1.88.13Z" fill="#B55C5A"/><path d="M9.48 12.28c.38-.07.32-.36.38-.63 0-.03.03-.04.06-.03 1.08.29 2.15.3 3.21.04.03 0 .05 0 .05.03-.04.5-.5.81-.97.94-.9.24-1.78.3-2.66.2-.04 0-.05-.02-.06-.05l-.05-.44c0-.03.01-.05.04-.06Z" fill="#00AA37"/></svg>