<!-- by TradingView --><svg width="18" height="18" viewBox="0 0 18 18" xmlns="http://www.w3.org/2000/svg"><path fill="#0063FF" d="M0 0h18v18H0z"/><path d="M9.32 3a5.97 5.97 0 0 1 5.63 5.27l.05.38v.6a19.87 19.87 0 0 0-.1.85A5.96 5.96 0 0 1 9.1 15h-.35A6 6 0 0 1 3 9.18v-.5A5.95 5.95 0 0 1 8.72 3h.6Z" fill="#10C84D"/><path d="M13.12 13.09a6.43 6.43 0 0 1-3.27 1.65 6.23 6.23 0 0 1-3.36-.5c-.2-.1-.43-.24-.68-.43l-.7-.52a5.34 5.34 0 0 1-1.26-1.58c-.28-.64-.46-1.11-.54-1.42a6.12 6.12 0 0 1-.16-1.31 7.04 7.04 0 0 1 .88-3.03A4.76 4.76 0 0 1 4.75 5c.14-.17.27-.3.39-.4.38-.3.76-.56 1.13-.76a4.83 4.83 0 0 1 .7-.3c.24-.1.42-.15.54-.18a4.93 4.93 0 0 1 2.66-.07c.39.09.7.18.94.27a3.66 3.66 0 0 1 .49.25l.25.13.54.35c.1.06.2.15.34.27.04.04.1.1.2.17a2.7 2.7 0 0 1 .45.46c.09.12.15.2.2.23.07.06.13.15.2.26l.1.15.15.2a6.76 6.76 0 0 1 .64 1.74c0 .06.02.15.05.25l.05.36c.04.68.02 1.2-.04 1.59-.04.2-.16.6-.36 1.2a4.83 4.83 0 0 1-1.25 1.9Z" fill="#43CE35"/><path d="M9.18 14.53c-.12-.44-.27-.95-.48-1.54-.11-.33-.18-.7-.21-1.13a.9.9 0 0 1 .14-.56c.14-.21.3-.42.5-.6a.08.08 0 0 1 .09-.03 6.23 6.23 0 0 0 2.02.36c.22 0 .42-.03.6-.1l.4-.1c.22-.03.37-.07.47-.1.21-.1.4-.24.58-.42.09-.1.14-.2.15-.33.04-.36 0-.73-.1-1.1a1.1 1.1 0 0 0-.25-.44 2.1 2.1 0 0 0-.42-.34c-.18-.11-.4-.25-.68-.4a.08.08 0 0 1-.05-.07 19.2 19.2 0 0 0-.1-.55l-.02.01-.01.07c0-.05 0-.08-.02-.11l.02-.01c.01 0 .02-.02.01-.03a.82.82 0 0 0-.1-.31.12.12 0 0 1-.02-.05l-.01-.03c-.17-.36-.46-.6-.88-.7a3.28 3.28 0 0 0-.96-.12c-.1 0-.18-.01-.25-.04a4.89 4.89 0 0 0-.97-.29 1.7 1.7 0 0 0-1.06.1c-.48.24-.99.56-1.5.98-.23.19-.4.43-.5.75a19.1 19.1 0 0 0-.49 1.77l-.04.37-.06.84a19.38 19.38 0 0 0 .09 2.5l-.01.05-.03.03A5.48 5.48 0 0 1 3.87 6.9a5.43 5.43 0 0 1 3.74-3.25 5.5 5.5 0 0 1 6.02 2.33 5.45 5.45 0 0 1 .45 5.2 5.46 5.46 0 0 1-4.52 3.33l-.38.03Z" fill="#0063FF"/><path d="M7.4 5.04c-.13.07-.28.19-.45.36a.11.11 0 0 1-.04.03l-.03-.01a.03.03 0 0 1 0-.04c.07-.16.16-.3.27-.42a.59.59 0 0 1 .6-.2c.13.04.25.08.33.13.12.07.1.1-.03.1l-.1-.01c-.24-.02-.42 0-.54.06ZM10.1 5.24a.8.8 0 0 0-.2.1l-.03.01-.02-.01V5.3a.9.9 0 0 1 .32-.26.51.51 0 0 1 .4-.04c.16.06.28.17.37.34.05.1.03.12-.06.05a.83.83 0 0 0-.78-.15ZM11.8 7.05l-.03.27c0 .02 0 .03-.02.05a.35.35 0 0 0-.05.13c0 .02 0 .04.03.05l.1.07h.03c.01-.01.02-.02.01-.03l-.06-.43.01-.07c0-.01.01-.02.03-.01l.01.03.08.52c0 .03.02.06.05.07l.68.4c.18.12.32.23.42.34.12.13.2.28.25.45.1.36.14.73.1 1.09a.55.55 0 0 1-.15.33c-.17.18-.37.32-.58.41-.1.04-.25.08-.47.12-.19.03-.32.06-.4.1-.18.06-.38.09-.6.1a6.3 6.3 0 0 1-2.02-.37.08.08 0 0 0-.1.02c-.19.2-.35.4-.49.61a.9.9 0 0 0-.14.56c.03.42.1.8.21 1.13.2.59.37 1.1.48 1.54h-.06l-.18-.65c0-.02-.02-.02-.04 0-.37.23-.78.28-1.22.15a.53.53 0 0 1-.2-.12v-.01c0-.02 0-.02.01-.01l.13.05c.4.17.82.14 1.24-.1.04-.02.06-.05.04-.09-.05-.18-.1-.36-.18-.55a4.33 4.33 0 0 1-.28-1.27c-.01-.22 0-.38.05-.47.14-.29.34-.55.6-.79.02-.02.02-.04-.01-.05l-.62-.36a4.1 4.1 0 0 0-.53-.28c-.3-.1-.5-.2-.62-.26a.96.96 0 0 1-.35-.35v-.02l.01-.02H7c.13.2.3.35.5.42.39.15.74.32 1.06.51l.48.28c.16.07.33.13.52.19.46.13.99.21 1.59.24.2.01.4 0 .58-.06.11-.03.1-.04 0-.05-.17 0-.34-.04-.5-.1a6.57 6.57 0 0 1-.56-.22 2.9 2.9 0 0 0-.62-.18 1.9 1.9 0 0 1-.51-.26 4.81 4.81 0 0 1-.77-.68 2 2 0 0 0-.45-.33l-.26-.12-.14-.07-.27-.17-.34-.2A.85.85 0 0 1 6.94 8h.04c.08.2.19.35.34.45.13.1.46.28.99.57.22.13.4.25.5.36.45.46.85.76 1.2.9l.4.09.25.1c.33.15.57.24.73.28.19.05.34.07.46.06.35-.03.57-.06.66-.08.3-.1.57-.27.77-.51.06-.07.1-.16.1-.25.04-.4 0-.75-.09-1.08a.93.93 0 0 0-.2-.39c-.1-.1-.24-.22-.45-.36a35.77 35.77 0 0 0-1.11-.67l-1.04-1.03a3.4 3.4 0 0 0-.42-.38 3.82 3.82 0 0 0-1.41-.54c-.27-.05-.5-.06-.7-.02-.2.04-.42.13-.66.26a10.06 10.06 0 0 0-1.33.96.89.89 0 0 0-.28.38c-.12.34-.26.83-.43 1.45-.1.37-.16.63-.16.79 0 .22-.02.42-.04.6a7.4 7.4 0 0 0-.03 1.1l.03.51c.03.34.05.68.04 1.03l.03.37a7.83 7.83 0 0 1-.1-.1l.03-.03v-.04c0-.23 0-.45-.03-.66a11.14 11.14 0 0 1-.05-1.86l.06-.83.04-.37a16.42 16.42 0 0 1 .5-1.77c.1-.32.26-.56.49-.75a7.68 7.68 0 0 1 1.5-.97c.3-.15.66-.18 1.06-.1.33.05.65.15.97.28.07.03.15.04.25.04.32-.01.64.03.96.11a1.28 1.28 0 0 1 .89.74l.01.05c.06.09.1.19.12.3 0 .02 0 .03-.02.04h-.02Z"/><path d="M10.4 10.38a.63.63 0 0 1-.01-.28c0-.07-.01-.09-.07-.04l-.31.23a3.73 3.73 0 0 1-1.2-.9 2.16 2.16 0 0 0-.5-.36c-.53-.29-.86-.48-1-.57A.92.92 0 0 1 7 8.02h-.01L6.95 8h-.02c.08.25.2.43.38.53l.34.2c-.16.16-.18.36-.07.58.01.02.02.02.03 0l.05-.1a.75.75 0 0 1 .26-.31l.14.07-.1.28c0 .03 0 .06.02.08.02.02.03.02.05 0 .03-.05.07-.1.11-.13a.4.4 0 0 1 .09-.05.28.28 0 0 0 .08-.06 2 2 0 0 1 .46.33c.3.31.56.54.77.68a1.9 1.9 0 0 0 .6.28 2.9 2.9 0 0 1 .55.17l.53.22c.17.05.34.09.5.1.12 0 .12.01.01.04-.18.05-.38.07-.58.06a7.23 7.23 0 0 1-1.6-.24 3.43 3.43 0 0 1-1-.47c-.31-.2-.66-.36-1.05-.5-.2-.08-.37-.22-.5-.43h-.03l-.01.02v.02c.1.16.21.27.35.35.12.06.32.15.62.26.1.04.28.13.53.28-.26.4-.46.82-.61 1.25-.1.3-.17.6-.2.9-.04.32-.05.63-.03.94v.6a.57.57 0 0 1-.13-.06h-.02v.02c.07.06.13.1.2.12l.03.35a5.52 5.52 0 0 1-1.41-.56c.11-.08.07-.2-.13-.35a.09.09 0 0 1-.03-.1c.02-.1 0-.2-.04-.27a.37.37 0 0 0-.22-.17l-.09-.02a.57.57 0 0 1-.2-.07c-.06-.05-.08-.11-.05-.2.03-.11.07-.2.14-.3l.47-.66c.12-.19.2-.33.21-.42.04-.13.01-.24-.07-.31a.73.73 0 0 0-.3-.13c-.06-.02-.1-.06-.1-.12 0-.1.02-.2.07-.3a2.26 2.26 0 0 1 .2-.32.27.27 0 0 0 .02-.18 1.43 1.43 0 0 1-.05-.27 1.2 1.2 0 0 0-.04-.27 2.14 2.14 0 0 0-.12-.25.56.56 0 0 1 0-.56c.03-.03.05-.08.08-.14.12-.2.19-.37.22-.48.12-.54.02-.94-.3-1.2a10.06 10.06 0 0 1 1.34-.96c.24-.13.46-.22.66-.26.2-.04.43-.03.7.02.57.11 1.04.3 1.4.54.1.06.24.19.43.38l1.03 1.03.25.15.87.52c.2.14.36.26.45.36.1.1.16.23.2.39.1.33.13.69.1 1.08-.02.1-.05.18-.1.25-.21.24-.47.41-.78.5-.1.03-.31.06-.66.1-.12 0-.28-.02-.46-.07a5.62 5.62 0 0 1-.98-.38ZM11.6 6.6h-.02c-.3-.37-.68-.53-1.16-.48a.16.16 0 0 0-.09.04h-.05l-.43-.28c-.04-.03-.04-.04.01-.04.33 0 .64.05.93.12a1.21 1.21 0 0 1 .82.64Z" fill="#4EC271"/><path d="M9.22 6.34c.26.2.47.44.61.74.08.17.13.32.14.43 0 .16-.05.29-.16.4a.95.95 0 0 1-.55.25c-.9.1-1.5-.27-1.75-1.12a.84.84 0 0 1 0-.47.71.71 0 0 1 .46-.52c.21-.08.45-.07.71.03.22.08.4.16.54.26Z"/><path d="M9.1 6.35c-.36.1-.51.34-.44.72.03.16.08.3.14.4.07.11.17.2.3.26.24.1.47.08.72-.07.09-.05.11-.03.06.06a.7.7 0 0 1-.5.36c-.29.05-.56.05-.8 0-.51-.13-.82-.45-.93-.96a1 1 0 0 1 .14-.75c.06-.1.12-.17.19-.2a.89.89 0 0 1 .75-.02c.13.05.25.11.37.18v.02ZM11.62 6.77l.03-.03h.03v.01c-.03.05-.05.09-.05.12l-.01.01c-.01 0-.02 0-.02-.02a.61.61 0 0 0-.35-.39c-.11-.04-.2-.06-.27-.04a.64.64 0 0 0-.24.15h-.05l-.36-.36V6.2l.01-.01c.52-.08.92.08 1.22.48a.1.1 0 0 1 .02.07v.02c.01.02.02.02.04.01Z" fill="#F5F0DC"/><path d="M11.1 6.62c.01.04.05.08.08.07.04 0 .07-.04.06-.09 0-.05-.04-.08-.08-.08-.03 0-.06.05-.05.1ZM9.24 6.75c.05.06.12.1.16.07.03-.03.02-.1-.03-.17s-.13-.1-.16-.07c-.04.03-.02.1.03.17Z" fill="#F5F0DC"/><path d="m11.4 6.75-.01.05c0 .02-.02.03-.04.02-.04-.01-.06-.03-.06-.06s.01-.06.05-.08c.02 0 .03 0 .04.02l.01.05Z" fill="#fff"/><path d="M5.97 6.73c.31.26.41.66.29 1.2-.03.11-.1.27-.22.48l-.07.14c-.1.19-.1.38 0 .56.04.09.08.17.1.25.03.05.04.14.05.27.02.12.03.22.05.27a.27.27 0 0 1-.01.18l-.04.05c-.08.12-.14.2-.17.27a.6.6 0 0 0-.07.3c0 .06.04.1.1.12.14.03.24.08.3.13.08.07.1.18.08.3-.03.1-.1.24-.22.43l-.47.66a.93.93 0 0 0-.14.3c-.03.09-.01.15.05.2.03.02.1.05.2.07l.09.02c.1.03.17.08.22.17.04.08.06.17.04.28 0 .04 0 .06.03.09.2.15.24.27.13.35-.42-.23-.8-.52-1.16-.86l-.03-.38c0-.34 0-.68-.04-1.02a5.33 5.33 0 0 1-.03-.77c0-.36 0-.64.03-.84l.04-.6c0-.16.06-.42.16-.8.17-.61.31-1.1.43-1.44a.89.89 0 0 1 .28-.38Z" fill="#007E60"/><path d="M11.6 7.38a.07.07 0 0 0 .04-.07v-.3l.02-.04a.5.5 0 0 1 .01-.04c.07-.08.08-.08.05.02a.96.96 0 0 0-.02.32c0 .07-.02.14-.07.19-.01.02-.03.02-.04 0l-.03-.03c-.02-.02-.02-.03 0-.04l.03-.01Z" fill="#fff"/><path d="M9.44 6.9h.04c.08.04.08.06-.01.07-.02 0-.03 0-.05-.02-.01-.02 0-.04.02-.05Z" fill="#F5F0DC"/><path d="m11.81 7.15.06.44v.02h-.03l-.11-.06a.04.04 0 0 1-.03-.05c.01-.05.03-.1.06-.13a.11.11 0 0 0 .01-.05l.02-.27c.02.03.03.06.02.1Z" fill="#DAE9C2"/><path d="m7.65 8.73.27.17a.75.75 0 0 0-.26.32l-.05.1h-.03c-.1-.23-.09-.43.07-.59Z" fill="#F5F0DC"/><path d="m8.06 8.97.26.12a.28.28 0 0 1-.1.06.4.4 0 0 0-.08.05.76.76 0 0 0-.11.13c-.02.02-.03.02-.05 0-.02-.02-.02-.05-.01-.08l.09-.28Z" fill="#fff"/><path d="M12.5 9.35c0 .09.03.14.04.17.04.07.03.07-.01.02a.49.49 0 0 1-.1-.43c0-.02.03-.04.05-.05.03 0 .05 0 .07.03.06.07.05.14-.04.2a.05.05 0 0 0-.02.06Z"/><path d="m10.4 10.38-.4-.1.32-.22c.06-.05.08-.03.07.04-.02.08-.01.18.02.28Z" fill="#F5F0DC"/><path d="m8.46 10.26.62.36c.03.01.03.03 0 .05-.25.24-.45.5-.6.79-.04.09-.05.24-.04.47.03.43.12.85.28 1.27.07.19.14.37.18.55.02.04 0 .07-.04.1a1.4 1.4 0 0 1-1.24.1v-.6a4.17 4.17 0 0 1 .23-1.84c.15-.43.35-.85.6-1.25Z" fill="#DAE9C2"/><path d="M8.67 13.22a.38.38 0 0 1-.17.08c-.21.03-.42.02-.64-.01v-.02l-.01-.01v-.01c.24.03.47.03.68-.01l.06-.03c.03-.03.06-.03.08-.03.02.02.02.03 0 .04Z"/><path d="M9.12 14.53a5.56 5.56 0 0 1-1.42-.15l-.02-.35c.44.13.85.08 1.22-.16.02-.01.03 0 .04.01l.18.65Z" fill="#DAE9C2"/></svg>