<!-- by TradingView --><svg width="18" height="18" viewBox="0 0 18 18" xmlns="http://www.w3.org/2000/svg"><path fill="#512D75" d="M0 0h18v18H0z"/><path fill-rule="evenodd" d="M15 9A6 6 0 1 1 3 9a6 6 0 0 1 12 0Zm-1 0A5 5 0 1 1 4 9a5 5 0 0 1 10 0ZM7.59 6c-.05 0-.08.04-.08.09v.82c0 .05.03.09.08.09h.84c.05 0 .08-.04.08-.09V6.1c0-.05-.03-.09-.08-.09h-.84Zm1.92.09c0-.05.03-.09.08-.09h.85c.04 0 .07.04.07.09v.82c0 .05-.03.09-.07.09h-.85c-.05 0-.08-.04-.08-.09V6.1ZM6 9.42v-.54c0-.47.45-.88.96-.88H11v-.5c0-.03.03-.06.07-.06h.83c.04 0 .1.03.1.07v.6c0 .48-.5.89-1 .89h-.5v2.62c0 .03-.02.06-.05.07l-.85.3a.07.07 0 0 1-.1-.07V9h-1v2.62c0 .03-.02.06-.05.07l-.85.3a.07.07 0 0 1-.1-.07V9H7v.42c0 .04-.02.07-.06.07h-.82c-.05 0-.12-.03-.12-.07Z" fill="#F1B65E"/></svg>