<!-- by TradingView --><svg width="18" height="18" viewBox="0 0 18 18" xmlns="http://www.w3.org/2000/svg"><path fill="#CD4140" d="M0 0h18v18H0z"/><path d="M4 8.99c0 1.2.43 2.3 1.14 3.17.08.1.22.1.3.02.1-.08.11-.22.03-.32a4.55 4.55 0 1 1 3.62 1.67c-.83 0-1.96-.6-1.96-1.54 0-.28.04-.56.17-.85l.17-.33.48.21c.13.06.28.1.42.1.4 0 .78-.22.98-.58.27-.5.09-1.18-.42-1.43a1 1 0 0 0-1.35.44l-.33.64-.71-.37a.11.11 0 0 1-.06-.15l.3-.6c.26-.34.56-.57 1-.57.07 0 .14-.04.17-.1l.4-.76c.1-.21.13-.4-.08-.5L8.07 7A.14.14 0 0 1 8 6.82l.18-.28a.14.14 0 0 1 .18-.05l2.95 1.43c.07.03.1.11.06.18l-.19.42a.14.14 0 0 1-.18.06l-.24-.1a.31.31 0 0 0-.41.14l-.35.78a.2.2 0 0 0 0 .18c.2.37.38.89.21 1.28-.1.24-.16.46-.24.63-.03.07-.1.1-.17.06l-.5-.25a.24.24 0 1 0-.2.42l.5.26c.3.14.67.02.8-.3l.25-.64c.06-.15.09-.31.09-.48 0-.37-.1-.76-.26-1.08l.23-.51.09.04c.3.14.66.02.8-.28l.2-.42a.6.6 0 0 0 .06-.28c0-.22-.1-.43-.32-.54L8.58 6.06a.6.6 0 0 0-.8.25l-.18.28a.6.6 0 0 0 .24.83l.07.04-.3.56c-.53.03-1.01.38-1.22.8l-.33.65a.58.58 0 0 0 .28.78l.7.36-.17.32v.01c-.15.33-.22.68-.22 1.05 0 1.26 1.32 1.9 2.41 2.01A5 5 0 1 0 4 8.99Zm4.14 1.6-.45-.2.31-.62a.54.54 0 0 1 .72-.24c.27.13.37.47.23.74-.15.27-.52.45-.81.32Z" fill="#FFFBFF"/></svg>