<!-- by TradingView --><svg xmlns="http://www.w3.org/2000/svg" width="18" height="18"><path fill="url(#agnhosrpp)" d="M0 0h18v18H0z"/><path d="M5.31 8.11c.03.19.1.6.15.73.01.05.06.13.11.23.18.33.49.89.36 1.07-.13.18-.2.28-.23.3l.68.07c.22-.14.7-.52.92-.97.27-.55 1.8-1.8 2.82-1.81 1.02-.01 1.86-.43 1.86-.5 0-.08-.14-.7-.46-1-.32-.3-.75-.9-.8-1.12a1.32 1.32 0 01-.02-.2c-.01-.16-.02-.29-.17-.32-.17-.05-1.92.8-2.78 1.23l.3.64-.3.44-.56.09-.27-.36-.15-.17-.84.6c-.23.2-.68.69-.62 1.05zm2.48 4.62l-.24 1.24-.06.73 1.23.22h.94c.1-.03.3-.1.33-.16.03-.04.01-1.7 0-2.52l-1.55.36-.65.13z" fill="#FFE3BB"/><path d="M9.82 12.32c-.7.57-1.7.73-2.1.74l.24-.9h-.79l-.98-.09-.44-.63-.17-.93h.87l.38-.29.5-.74.7-.78L9.36 8l1.48-.43.93-.12-.14.65v.89l.38.72.33.42v.22l-.45.28-1.05.35-.25.67-.18.86v.84h.18l.94-.29.1.16h.14l.66-.24h.23l-.12.54-.65.62-.95.34c-.13.06-.4.19-.44.19l-.86.17c-.25-.7.02-1.97.2-2.52z" fill="#F6C582"/><path fill-rule="evenodd" d="M9 14.67a5.26 5.26 0 005.18-5.34A5.26 5.26 0 009 4a5.26 5.26 0 00-5.18 5.33A5.26 5.26 0 009 14.67zM9 15c3.04 0 5.5-2.54 5.5-5.67A5.59 5.59 0 009 3.67a5.59 5.59 0 00-5.5 5.66A5.59 5.59 0 009 15z"/><path d="M6.45 4.65c-.2-1.05.46-1.5.56-1.54.03.51.23 1.52.23 1.54a27 27 0 00.79 1.93l-.4.28-.46.11c-.15-.33-.5-1.26-.72-2.32z" fill="#fff"/><path d="M12.94 6.04c-.27.32-.9.51-1.17.57l.2.43c1.1 0 1.87-.87 1.93-1.04.06-.13 0-.61-.04-.84-.2.16-.65.56-.92.88zm.33 1.84c-.42.7-1.26.68-1.62.59l-.02.53.27.53.4.48c.41-.28.34-.8.26-1.01-.07 0-.14-.03.13-.24.26-.2.5-.67.58-.88z" fill="#93F4A5"/><path d="M13.47 7.05c.3-.34.43-.97.45-1.24-.44.92-1.46 1.16-1.93 1.18l-.02.32-.25.66-.1.53c1.23.36 1.72-.52 1.79-1.13-.08.01-.23.02.06-.32z" fill="#93F4A5"/><path d="M8.82 10.07l.12-1.18c.09-.08.31-.23.54-.17.3.07.23.8.19 1.1-.03.25-.58.27-.85.25z" fill="#91F2A1"/><path d="M9.69 9.87c.17-.63-.03-1.03-.15-1.15.22-.13.57-.06.72-.01.14.53-.32 1-.57 1.16z" fill="#FFFCFF"/><path fill-rule="evenodd" d="M7.16 3.21l.01.15c.08 1.04.31 1.85.54 2.39l.13-.09.31-.17a17.46 17.46 0 012.26-.98c.1-.01.18 0 .24.06a.4.4 0 01.1.18l.03.2.02.18a2.45 2.45 0 00.53.8c.1.1.29.33.44.58.31-.01.63-.18.91-.38.29-.2.52-.44.63-.55l.47-.48.01-.01a.13.13 0 01.09-.02c.03 0 .06.03.08.05.04.04.06.11.06.2.02.17 0 .47-.1.98-.08.32-.25.62-.48.88.1.55-.15 1.05-.49 1.43-.1.11-.21.22-.33.32.24.53-.03.97-.24 1.15l.03.15c0 .11-.08.2-.16.27s-.2.13-.31.18c-.23.1-.49.17-.62.2-.05 0-.18.04-.36.11l-.04.01.02.02c-.1.18-.35.77-.48 1.67-.04.21-.03.41 0 .6l.88-.28a.37.37 0 01.23 0c.04.02.08.05.11.09a4.54 4.54 0 01.77-.27h.11a.2.2 0 01.1.03c.07.04.08.12.08.18a.8.8 0 01-.03.2c-.03.14-.1.28-.14.38a.08.08 0 01-.1.04.08.08 0 01-.04-.12c.04-.08.1-.22.13-.34a.62.62 0 00.02-.16v-.05h-.11a4.38 4.38 0 00-.74.27v.03c0 .25-.1.45-.16.53a.08.08 0 01-.11.02.08.08 0 01-.02-.12.87.87 0 00.13-.44c0-.04 0-.07-.02-.08a.07.07 0 00-.03-.03.21.21 0 00-.13 0l-.91.29c.1.5.36.88.53 1.06l-.12.11a2.47 2.47 0 01-.6-1.97c.12-.75.31-1.3.44-1.59a21.25 21.25 0 00-1.49.65c-.28.18-.85.39-1.09.47h-.01l-.08.01a.35.35 0 00-.08.12l-.09.23c-.06.18-.11.42-.16.68-.09.51-.16 1.1-.19 1.47l-.16-.02a17.37 17.37 0 01.36-2.18 1.8 1.8 0 01.1-.28 10.46 10.46 0 01-1.37 0 1.1 1.1 0 01-.4-.12.73.73 0 01-.25-.3.08.08 0 01-.03-.06l-.14-.39a5.54 5.54 0 01-.16-.9h.02l.23-.2c.08-.1.13-.2.14-.28l-.01-.1a5.52 5.52 0 00-.27-.59l-.1-.2a18.82 18.82 0 01-.27-.54c-.07-.27-.08-.6.08-.92a2.36 2.36 0 01.23-.28c.1-.11.25-.24.4-.37l.8-.65a4.93 4.93 0 01-.37-2c.04-.6.26-.95.4-1.15a.45.45 0 01.17-.16.14.14 0 01.1 0c.03 0 .06.03.07.05.03.05.05.1.05.15zM5.67 10.6a5.3 5.3 0 00.25 1.05c.13-.04.34-.08.52-.06a2.25 2.25 0 01.49.13 21.33 21.33 0 00.75.21c.15.03.28.04.37.03.19-.02.48-.1.75-.26s.5-.4.6-.72a.08.08 0 01.1-.05c.04 0 .07.06.05.1-.05.2-.15.35-.27.49a12.25 12.25 0 012.02-.8c.1-.02.36-.09.57-.18.11-.05.21-.1.28-.16.07-.06.1-.11.1-.14 0-.05-.02-.11-.08-.2a3.57 3.57 0 00-.19-.26l-.02-.03c-.16-.21-.35-.46-.4-.73-.06-.25-.02-.63.04-.96.04-.17.08-.33.13-.47v-.03c-1.71.2-2.77.62-3.43 1.06-.68.46-.96.94-1.14 1.25-.3.53-.66.7-.82.73h-.67zm6.13-3.21a.94.94 0 01.07-.12c.02-.04.02-.1-.01-.22a3.33 3.33 0 00-.63-.98 2.6 2.6 0 01-.58-.89 1.5 1.5 0 01-.03-.2c0-.07-.02-.13-.03-.18a.187.187 0 00-.05-.1c-.01 0-.04-.02-.1-.01l-.18.05-.33.12a21.02 21.02 0 00-2 .95.83.83 0 00-.15.1c.13.27.25.46.33.57l.04.05-.03.05c-.3.47-.82.51-1.04.48l-.05-.01L7.02 7a10.5 10.5 0 01-.22-.52 19.48 19.48 0 00-1.15.97 2.2 2.2 0 00-.2.24c-.13.28-.12.56-.06.81.01.05.06.15.13.28l.12.23.1.2a5.68 5.68 0 01.28.61c.02.06.03.11.02.16a.68.68 0 01-.18.38 1.3 1.3 0 01-.07.07h.53c.1-.02.42-.17.7-.65.19-.32.48-.83 1.2-1.3.7-.48 1.8-.9 3.58-1.1zm-4.2 4.68a6.34 6.34 0 01-.71-.2 24.34 24.34 0 00-.45-.12c-.14-.02-.31 0-.43.04.04.08.1.14.14.17.07.04.19.07.35.1a4.53 4.53 0 001.1.01zm4.71-2.14c.16-.16.35-.5.2-.9-.21.16-.41.28-.59.37l.18.24.02.02.2.27zm-.47-.67c.29-.15.69-.42 1-.76.3-.34.5-.73.47-1.16l-.34.31c-.43.35-.92.6-1.25.74a2 2 0 000 .6c.02.08.06.18.12.27zm-.09-1.06c.31-.14.74-.37 1.12-.68.43-.35.8-.78.9-1.25a3.51 3.51 0 00.1-1.01l-.44.43c-.11.12-.35.36-.65.57-.26.2-.58.37-.9.4.06.11.1.22.14.33.04.12.06.26 0 .36a3.97 3.97 0 00-.26.85zM6.9 3.27a.42.42 0 01.09-.1l.01.07v.12h.01c.12 1.68.65 2.77.94 3.17a.9.9 0 01-.8.36 5.53 5.53 0 01-.62-2.55c.04-.57.24-.89.37-1.07zm2.74 5.46c.1-.02.2-.03.28-.02.1 0 .17.02.22.03l.05.02c0 .06.02.27-.05.5a.96.96 0 01-.38.5c.08-.2.08-.4.05-.58-.03-.17-.1-.33-.17-.45zm-.18-.13c-.12.03-.25.08-.4.14-.56.27-.87.86-.96 1.12l-.02.06.05.03c.2.15.72.35 1.42.1.45-.15.65-.46.74-.75.09-.28.06-.53.05-.59a.14.14 0 00-.06-.08.36.36 0 00-.08-.04.9.9 0 00-.27-.05 1.62 1.62 0 00-.47.06zm.01.17c.07.1.15.26.18.45a.87.87 0 01-.14.67l-.01.01c-.22.08-.42.1-.59.1.1-.1.22-.3.25-.52a.66.66 0 00-.17-.51l.15-.08c.11-.05.23-.1.33-.12zm.72 0z"/><defs><linearGradient id="agnhosrpp" x1="9" y1="0" x2="9" y2="18" gradientUnits="userSpaceOnUse"><stop stop-color="#FF6599"/><stop offset="1" stop-color="#FF356C"/></linearGradient></defs></svg>