<!-- by TradingView --><svg width="18" height="18" viewBox="0 0 18 18" xmlns="http://www.w3.org/2000/svg"><path fill="url(#a0hlxykso)" d="M0 0h18v18H0z"/><path d="M8.12 8H6.6C5.99 8 5.1 8.28 5 9c-.12.8.67 1 1.3 1h2.28c.75 0 1.33-.95 1.43-1.62l.05-.32H9.5l-.04.22c-.07.43-.4 1.09-.87 1.1H6.35c-.24 0-.8-.03-.74-.38.04-.26.68-.38.98-.38h1.09c.1-.2.27-.42.44-.62ZM8.27 7.9c.18-.16.4-.3.66-.39L9.26 6h.56l-.24 1.44h.58c.15-1.03.31-1.94.31-1.94h-1.7l-.5 2.4Z" fill="#FEFEFC"/><path d="m10.58 8.49.06-.43h.6l-.1.53c-.2 1.28-1.2 2.41-2.5 2.41H6.34c-.6 0-1.28.05-1.75-.38a2.05 2.05 0 0 1-.57-1.88C4.23 7.42 5.42 7 6.6 7h.74l.63-3H12l-.64 3.44h-.61c.2-1.3.53-2.82.53-2.82H8.41l-.63 3h-1.2c-.96 0-1.94.3-2 1.42-.03.44.1.84.4 1.11.24.22.9.22 1.37.22h2.28c1.04 0 1.8-.89 1.95-1.88Z" fill="#FEFEFC"/><path d="m9.57 10.8-.64.2-.2 1.13h-.55s.06-.61.14-1.13h-.57c-.12.82-.22 1.75-.22 1.75h1.7l.34-1.95Z" fill="#32D7AF"/><path d="M7.15 11c-.19 1.11-.37 2.38-.37 2.38h2.86l.57-3h1.2c.97 0 1.95-.3 2.02-1.42v-.27a1.3 1.3 0 0 0-.4-.84c-.36-.22-.87-.22-1.33-.22H9.42c-.97 0-1.8.81-2.02 1.75h-.58C7.05 8.12 8.14 7 9.42 7h2.28c.6 0 1.23-.05 1.7.38.52.49.68 1.18.57 1.88-.2 1.32-1.39 1.74-2.56 1.74h-.74l-.57 3H6.06s.22-1.61.47-3h.62Z" fill="#32D7AF"/><path d="M8 9.38C8.2 8.77 8.78 8 9.42 8h2.28c.63 0 1.42.2 1.3 1-.11.72-.99 1-1.59 1h-.86l.35-.63h.51c.3 0 .94-.11.98-.37.06-.35-.5-.38-.74-.38H9.42c-.34 0-.66.43-.81.76H8Z" fill="#32D7AF"/><defs><linearGradient id="a0hlxykso" x1="3.35" y1="3.12" x2="21.9" y2="24.43" gradientUnits="userSpaceOnUse"><stop stop-color="#1A1E21"/><stop offset="1" stop-color="#06060A"/></linearGradient></defs></svg>