<!-- by TradingView --><svg width="18" height="18" viewBox="0 0 18 18" xmlns="http://www.w3.org/2000/svg"><path fill="#F0F3FA" d="M0 0h18v18H0z"/><path fill-rule="evenodd" d="m7.36 4.66 1.64-1 4.28 2.6c-.47.3-1.12.83-1.76 1.56a9.73 9.73 0 0 0-4.16-3.16Zm-.67.4L4.77 6.22c.46.2 1.12.52 1.61.8a.5.5 0 0 1 .3.02V5.06Zm.3 2.39H7V4.9c.47.4 1.1 1.14 1.68 2.07.55.86.7 1.95.74 3.04a.5.5 0 0 0-.18.06A11.31 11.31 0 0 0 7 7.56a.5.5 0 0 0 0-.11Zm2.74 2.6.02.02c.25-.53.72-1.05 1.13-1.5l.43-.5a9.74 9.74 0 0 0-3.66-2.93c.41.43.88 1 1.29 1.65.58.91.7 2.1.8 3.27Zm.27.45a.5.5 0 0 0-.03-.16c.26-.54.72-1.07 1.12-1.53l.42-.48c.11.16.25.42.37.67l.15.3a.5.5 0 0 0 .1.52c-.1.44-.18 1.5-.19 2.74l-.74.44c-.24-.71-.94-1.83-1.24-2.3a.5.5 0 0 0 .04-.2Zm2.38-.52a22.7 22.7 0 0 0-.12 2.39l1.08-.65a7.76 7.76 0 0 0-.69-1.73.55.55 0 0 1-.27-.01Zm.54-.15c.14.25.3.6.46.98V7.35c-.17.5-.36 1.1-.53 1.72a.5.5 0 0 1 .07.76Zm-.36-.86c.23-.89.48-1.83.7-2.32-.43.31-1 .79-1.54 1.43a6.3 6.3 0 0 1 .53.97.54.54 0 0 1 .3-.08ZM9.5 11a.5.5 0 0 0 .23-.06c.32.5 1 1.62 1.2 2.23l-1.78 1.07c.02-.97.13-2.49.31-3.24a.5.5 0 0 0 .04 0Zm-.5-.5c0 .15.07.3.18.38-.07.36-.1.9-.14 1.45-.03.53-.07 1.07-.13 1.5-.17-.4-.4-.81-.64-1.2l-.4-.65c-.31-.51-.65-1.07-.88-1.39a.5.5 0 0 0-.46-.6c-.22-.68-.63-1.47-.96-2.1-.26-.5-.53-.94-.76-1.3.39.18.87.42 1.28.63a.5.5 0 0 0 .77.63c.55.44 1.54 1.45 2.17 2.48a.5.5 0 0 0-.03.17Zm-2.85-.35a.5.5 0 0 1 .08-.07c-.2-.65-.61-1.42-.94-2.04-.22-.43-.46-.83-.67-1.16v2.17l.73.47c.24.17.57.43.8.63ZM6 10.5a.5.5 0 0 1 0-.06 8.92 8.92 0 0 0-1.38-1.01v2.26l2.02 1.22c0-.57-.2-1.5-.31-1.94A.5.5 0 0 1 6 10.5Zm.94 2.59a8.17 8.17 0 0 0-.29-2.11.5.5 0 0 0 .17-.1l.79 1.27.4.66c.28.45.54.92.69 1.34L6.94 13.1ZM9 3l5 3v6l-5 3-5-3V6l5-3Z" fill="#FF4E4A"/></svg>