<!-- by TradingView --><svg width="18" height="18" xmlns="http://www.w3.org/2000/svg"><path fill="#323568" d="M0 0h18v18H0z"/><path d="M13.317 7.25L9.052 3l-.97.937 4.276 4.272.96-.959zM13.317 10.63L9.052 6.38l-.97.938 4.276 4.271.96-.958zM9.91 10.63L5.645 6.38l-.97.938 4.276 4.271.96-.958zM9.91 14.041l-4.265-4.25-.97.938 4.276 4.27.96-.958z" fill="#fff"/><path d="M8.29 5.65l-.951-.958-.943.958.943.942.95-.942zM15 8.952l-.951-.958-.943.958.943.942.951-.942zM11.606 12.332l-.951-.958-.943.958.943.942.95-.942zM4.894 9.024l-.951-.958L3 9.024l.943.942.951-.942z" fill="#7A94CB"/></svg>