<!-- by TradingView --><svg width="18" height="18" viewBox="0 0 18 18" xmlns="http://www.w3.org/2000/svg"><path fill="#ADB9C2" d="M0 0h18v18H0z"/><path d="m12.47 6.24-.1.22c0 .03-.03.03-.04 0l-.05-.07c-.01-.02-.03-.02-.04 0a.12.12 0 0 1-.07.05 26.9 26.9 0 0 1-1.6.28l-.38.08H8.6v-.53c0-.02-.02-.03-.04-.04h-.47c-.04 0-.07.02-.07.06v.5l-2.3.01.01-.54c0-.01 0-.02-.03-.02h-.5c-.02 0-.03-.01-.03-.03l-.01-.46c0-.04.02-.07.07-.07h1.04c.02 0 .03-.01.03-.03V4.6c0-.03.02-.04.04-.04h.5c.02 0 .04 0 .04.03v.49c0 .02.02.04.05.04h.48c.03 0 .04-.02.04-.05v-.47c0-.04.01-.06.06-.06l.45.02c.04 0 .06-.02.06-.06v-.45c0-.04.03-.06.06-.06h2.18c.03 0 .05.02.05.06v.44c0 .03.02.05.05.05l.49.02c.03 0 .04-.02.04-.05v-.49c0-.02 0-.02.02-.02h.5c.04 0 .06.01.05.05v.45c0 .03-.01.04-.04.04l-.5.02c-.03 0-.04.01-.04.03l.01.47c0 .04.02.05.05.05h.5l.02.03v.48c0 .03.02.04.05.04h.5c.02 0 .03 0 .03-.03v-.47c0-.03 0-.04.03-.04h.5c.03 0 .04 0 .04.03l-.01.47c0 .03-.02.04-.04.04h-.47c-.04 0-.06 0-.06.04v.47c0 .04.02.06.06.06h.38ZM13.19 6.6a8.77 8.77 0 0 0-.45-.09h-.09l-.01-.04c-.01-.02-.02-.02-.04 0-.02.04-.04.05-.07.03 0-.03.02-.06.05-.1.03-.05.02-.07-.04-.05a.07.07 0 0 0-.05.06c0 .01-.02.02-.03.01h-.01c.03-.06.04-.12.03-.17l.09-.02c.02 0 .03-.02.03-.04v-.46c0-.04.01-.06.05-.06h.49c.02 0 .04.02.04.05v.88Z" fill="#fff"/><path d="M8.6 6.8h-.59l.01-.5c0-.05.03-.07.07-.07h.47c.02 0 .04.02.04.04v.52Z" fill="#AB8A67"/><path d="M12.47 6.24h.01c.01.06 0 .12-.03.17l.01.01.03-.01c0-.03.02-.05.05-.06.06-.02.07 0 .04.05a.33.33 0 0 0-.05.1 15 15 0 0 0-1.37.22l-.28.05c-.07 0-.17.04-.3.1-.16.07-.33.1-.5.1-.13 0-.26.01-.39.05a.1.1 0 0 1-.05 0l-.08-.01h-.04l-.06.04a1.5 1.5 0 0 1-.32.16 44.77 44.77 0 0 0-1.26.4c0 .03 0 .05.02.07h-.03a3.3 3.3 0 0 0-1.06-.12c-.02 0-.04 0-.04-.02 0 0 0-.03.02-.05.06-.05.1-.1.12-.18V7.3h.02c-.04.07-.04.12 0 .17l.04.01a.52.52 0 0 1 .18 0 10.64 10.64 0 0 1 .55.07l.03-.01a1.1 1.1 0 0 1 1.63-.57l.04-.04.02-.05c0-.02.02-.02.04-.01.07.05.15.06.24.04.11-.02.25-.04.42-.05.06 0 .09-.02.07-.06a11.96 11.96 0 0 0 .8-.16l1.18-.2c.02 0 .05-.03.07-.05.01-.02.03-.02.04 0l.05.07c.01.03.03.03.05 0l.09-.22Z" fill="#E32262"/><path d="M12.65 6.52c-.02.02-.02.05 0 .06 0 .01.02.02.05.02.11 0 .2 0 .25.02l.57.15.34.38c.07.46-.07.82-.4 1.06a7.74 7.74 0 0 0-.6.4l-.01.03a14.78 14.78 0 0 1-.5.24.8.8 0 0 1-.31.21l-.2.07a.42.42 0 0 0-.16.15c-.07.1-.1.22-.1.34a.49.49 0 0 0-.1.34c-.07 0-.1-.05-.1-.16l.06-.24v-.05a.21.21 0 0 1 0-.14c.01-.03 0-.03-.02-.02-.06.03-.1.06-.09.12l-.06.02-.03-.14c0-.02-.02-.03-.04-.02l-1.17.38c-.17.02-.26 0-.26-.07.08-.04.17-.06.26-.07.07 0 .11-.04.14-.1a.1.1 0 0 1 .05-.04.74.74 0 0 0 .1-.07c.1-.07.09-.08-.02-.04-.03.01-.08.01-.14 0l.11-.09c.04 0 .1-.02.17-.09.09-.07.26-.16.52-.26a.92.92 0 0 0 .35-.25c.02-.02.01-.03 0-.04-.03-.02-.04-.03-.04-.05.04-.28.1-.5.2-.68a6.57 6.57 0 0 0 .29-.73c0-.02-.01-.03-.03-.03-.08 0-.16 0-.23.03l-.29.07h-.1c-.01 0-.02-.01 0-.02a1.03 1.03 0 0 1 .29-.17.8.8 0 0 0-.27.07.34.34 0 0 0-.09.06.3.3 0 0 1-.1.06l-.24.06a4.67 4.67 0 0 0-.91.32c-.06.02-.08.05-.09.1a.2.2 0 0 1-.01.05l-.04.09c0 .02-.01.02-.02 0l-.01-.02c-.01-.02-.02-.03-.04-.01a.09.09 0 0 0-.02.05c0 .02 0 .03.02.04.1.02.19 0 .26-.05l.42-.03a3.06 3.06 0 0 0 .49.08l-.01.02-.19.02a.21.21 0 0 0-.12 0L10.3 8a1.71 1.71 0 0 0-.23.09c.12-.01.24-.03.35-.07.03 0 .04.03.03.1a7.22 7.22 0 0 1-.84.32.6.6 0 0 0-.15.06.8.8 0 0 1-.12.07.04.04 0 0 0-.02.03l-.07.2v.06c.05.03.05.08.02.13L9.25 9a.08.08 0 0 0-.05.08c.01.1-.03.18-.1.22a.07.07 0 0 0-.04.03l-.12.29c0 .01-.01.03-.03.03a.35.35 0 0 0-.13.15l.01.02c0 .01-.02.02-.03.01h-.05v-.06c.01-.1 0-.1-.06-.02a11.12 11.12 0 0 1-.16.25L8.48 10v-.02a.21.21 0 0 0 .04-.1c0-.02 0-.03-.03 0a.28.28 0 0 0-.08.15c0 .02 0 .03.02.04l.09.08-.03.06a.33.33 0 0 0-.11-.05.2.2 0 0 0-.08.01h-.05c-.03-.01-.03-.03 0-.06-.02-.1-.1-.14-.26-.16a.3.3 0 0 1-.12-.04h-.04c-.02.02-.02.04 0 .07l-.06.03c-.01-.02-.03-.03-.07-.04-.07.02-.16 0-.25-.07-.03-.1-.1-.14-.2-.13l-.17-.13a1.28 1.28 0 0 0-.61-.34c-.12-.03-.2 0-.25.12-.06.16-.13.29-.2.39l-.06.07c0-.06 0-.1-.02-.14-.03-.03-.05-.03-.07.01-.04.11-.1.2-.17.28l-.15.28c.01-.14.04-.27.1-.4.01-.01 0-.02-.01-.02l-.02.02-.2.35-.18.26h-.01l-.01-.02.07-.27.2-.62.01-.09-.01-.02a.9.9 0 0 0-.34.07c-.07.03-.16.07-.27.14l-.13.01-.02-.01v-.03l.07-.01c.02 0 .03 0 .03-.03V9.6h.02l.03-.01c.16-.12.33-.23.5-.33.2-.11.32-.26.37-.43a4.4 4.4 0 0 1 .2-.59l-.03-.09.02-.05-.04-.01c-.2-.01-.38.02-.57.1h-.07a.16.16 0 0 1-.06-.05.04.04 0 0 0-.04-.02H5.1l-.62.16-.01-.01-.01-.03v-.01l.26-.1a.7.7 0 0 0 .05-.03 10.14 10.14 0 0 1 1.37-.43c.03-.01.04-.02.05-.05l.08-.25.22-.43h.02v.02c-.05.12-.09.25-.1.38 0 .05.02.05.04.02.07-.1.11-.19.15-.3h.01l.01.02-.06.25c-.03.09-.03.14.01.15a.41.41 0 0 0-.08.13c0 .01 0 .02.02.01.04-.01.08-.05.13-.12a.77.77 0 0 1 .04-.06l.06.02c.01 0 .02 0 0-.02l-.04-.06a.03.03 0 0 1 0-.03c.01-.03.04-.05.08-.05s.05.01.02.04c-.04.06-.05.12-.01.16l-.02.05c0 .02.02.02.04.02h.38c.13 0 .36.05.68.13l.05.06c.16.11.2.24.15.37-.06.1-.18.22-.36.35l-.2.14-.21.19a1.3 1.3 0 0 1-.28.16C7 8.98 7 9 7.02 9c.05.04.1.06.17.07l.73.5.28.28.05.03c.02 0 .03 0 .04-.03l.26-.93a.1.1 0 0 0 0-.06c-.01-.02 0-.04.01-.05.02 0 .03-.02.04-.03.02-.02.01-.03-.02-.03a.22.22 0 0 0-.13.06L8 8.95l-.04-.01.01-.08h.09l-.02.02c0 .02 0 .02.02.02a.2.2 0 0 0 .13-.1c.05-.06.12-.1.2-.13v-.04l-.02-.01-.23.09h-.05l-.16.01c-.03-.02-.03-.05.01-.08v-.02H7.9a.73.73 0 0 1-.18.06v-.03c0-.02 0-.03.02-.03l.06-.04c.33-.1.64-.24.95-.38.04-.03.07-.06.08-.1a2.23 2.23 0 0 1 .11-.34l.02-.09v-.01l-.01-.01-.03.01c-.03.07-.1.1-.18.08a.17.17 0 0 1 .08-.07l-.01-.01H8.8l-.23.07-.24.07-.17.01-.03-.01a.23.23 0 0 0 .1-.08V7.7a.4.4 0 0 0-.22 0l-.1-.01c-.03-.02-.04-.04-.03-.06 0-.02.02-.02.05-.03l1.2-.38a1.5 1.5 0 0 0 .4-.2h.03l.08.01a.1.1 0 0 0 .05 0c.13-.04.26-.05.4-.05.16 0 .33-.03.5-.1.12-.06.22-.1.3-.1a11.77 11.77 0 0 1 .65-.11 15 15 0 0 1 1.06-.19c.02-.02.03-.02.04 0l.01.05Z" fill="#E645F4"/><path d="M12.65 6.52a26.38 26.38 0 0 1 .17 0l.37.08c.13.04.24.1.33.17l-.57-.15a1.03 1.03 0 0 0-.25-.02c-.03 0-.05 0-.06-.02-.01-.01-.01-.03.01-.06Z" fill="#E32262"/><path d="M5.73 6.8h4.47c0 .04-.02.06-.08.06-.17.01-.31.03-.42.05a.28.28 0 0 1-.24-.04h-.04l-.02.06-.04.04-.1.05a86.88 86.88 0 0 0-1.6.54l-.5-.09-.19.01-.04-.01c-.04-.05-.04-.1 0-.16l-.01-.01H6.9a.32.32 0 0 1-.12.19c-.04-.04-.03-.1.01-.16.03-.03.02-.04-.02-.04s-.07.02-.08.05v.03l.05.06-.01.02c-.02 0-.04 0-.06-.02-.04-.05-.06-.06-.07-.04l-.05-.07a302.3 302.3 0 0 0 .05-.27H6.6c-.04.11-.08.2-.15.3-.02.03-.04.03-.03-.02 0-.13.04-.26.1-.38l-.01-.02h-.02l-.22.43a23.37 23.37 0 0 1 .11-.5c-.04.13-.1.24-.15.34a2.58 2.58 0 0 0-.15.33c-.01.02-.02.03-.04.03l-.9.24.01-.46v-.51c0-.02.02-.03.03-.03h.55Z"/><path d="m6.27 7.36-.08.25c0 .03-.02.04-.05.05a10.14 10.14 0 0 0-1.42.46c-.06-.02-.13-.02-.22.02h-.05c-.02 0-.02-.02 0-.03l.4-.2c.1-.02.2-.05.3-.11l.9-.24.03-.03a24.74 24.74 0 0 0 .15-.33c.06-.1.1-.21.15-.34h.02l-.13.5Z" fill="#E32262"/><path d="M10.8 7.1c.06-.01.12-.04.12-.05 0-.01-.07-.01-.14 0-.07.02-.12.04-.12.06h.13Z" fill="#AB8A67"/><path d="m11.21 7.23-.15.12a4.3 4.3 0 0 0-1.17.4.3.3 0 0 0-.05.1.28.28 0 0 1-.26.06c-.02 0-.03-.02-.02-.04 0-.02 0-.04.02-.05.02-.02.03-.01.04 0v.03c.02.02.02.02.03 0l.04-.1a.2.2 0 0 0 .01-.04c0-.05.03-.08.09-.1l.29-.12a4.67 4.67 0 0 1 .87-.26.3.3 0 0 0 .1-.06.34.34 0 0 1 .08-.06.8.8 0 0 1 .27-.07c-.1.04-.2.1-.3.17l.01.01h.1ZM13.1 7.2v.03l-.02.02-.02-.01-.38-.02c-.02 0-.03 0-.03.02a3.12 3.12 0 0 1-.05.1l-.02-.01c-.02 0-.04 0-.05.03 0 .02-.02.02-.03 0a.08.08 0 0 0-.02-.03c-.04-.02-.05-.01-.03.02v.02c0 .02.02.02.03.02a.1.1 0 0 1 .09 0c.02.02.02.04.02.06 0 .02-.02.03-.04.04a.05.05 0 0 0-.02.04c0 .04-.01.07-.03.1a.34.34 0 0 0-.1.13.1.1 0 0 0-.02.04c0 .02 0 .03-.02.04-.03 0-.03.02 0 .04h.04l-.1.26s-.01.02-.03.02a.07.07 0 0 0-.06.03c-.02.03-.01.03 0 .01.04-.03.07-.04.1-.02a.55.55 0 0 0-.08.18c-.03.04-.06.06-.08.06-.03 0-.05 0-.07-.03a.07.07 0 0 1-.01-.08l.17-.41c0-.03.02-.05.04-.06.02-.02.02-.03 0-.04l-.05-.04c.15-.05.2-.14.13-.25.04-.04.05-.08.03-.12l-.01-.04c0-.02.01-.03.03-.03.03 0 .04 0 .03-.03v-.02c0-.03.01-.05.03-.06a.16.16 0 0 0 .06-.08l.05-.04c.19-.01.36.02.52.11ZM11.72 7.25l-.15.04a8.73 8.73 0 0 0-.4.05l.33-.18a.49.49 0 0 1 .23-.03c.02 0 .03.01.03.03 0 .03-.02.06-.04.1Z" fill="#DBF127"/><path d="M11.5 7.16a2.1 2.1 0 0 1-.34.2h.01l.4-.07a.96.96 0 0 1-.08.25 4.32 4.32 0 0 0-.32.84c0 .04 0 .08-.03.12-.03.04-.02.06.03.07.01 0 .03 0 .04-.02v.03c-.13.13-.3.23-.53.3a.8.8 0 0 0-.2.11l-.14.09a.08.08 0 0 0-.04.03c-.04.07-.14.13-.3.17-.03 0-.03.02 0 .02a.1.1 0 0 0 .06 0 .33.33 0 0 1 .21-.04l-.11.09-.1.04c-.03 0-.03.01-.01.02h.04c.02-.01.03 0 .02.02 0 .01 0 .02-.02.03-.12.05-.26.1-.4.12l-.55-.01c.02-.1.06-.16.13-.18.02 0 .03-.02.04-.04a.32.32 0 0 0 0-.2s0-.02.02-.03h.02l.01.01v.02h.03c.06-.19.13-.37.22-.54 0-.02.02-.03.04-.04l.6-.2c.1-.02.19-.06.28-.1v-.02l-.01-.01a.1.1 0 0 1-.07.02c-.04 0-.04 0 0-.02a3.95 3.95 0 0 1 .47-.14c-.17-.01-.35 0-.53.06-.03-.01 0-.03.07-.06a.67.67 0 0 0 .23-.08c.02 0 .02-.02 0-.02a.41.41 0 0 1-.14-.05l.19-.02v-.02h-.01c-.16-.02-.31-.04-.47-.08l.1-.06c.02-.01.02-.02 0-.02h-.48v-.01a.06.06 0 0 1 .04-.03c.05 0 .1-.03.14-.05a4.29 4.29 0 0 1 1-.31l.15-.12.3-.07Z"/><path d="M13.86 7.15c.1.06.15.18.14.36 0 .24-.08.46-.22.64l-.02.03v.04h-.03l-.26.23a.84.84 0 0 0-.3.23.3.3 0 0 0-.15.08.17.17 0 0 1-.07.04c-.26.1-.48.21-.64.33a.45.45 0 0 1-.2.08h-.02v-.03l-.01-.01h-.02v.04c.03.02.03.03 0 .04-.13.03-.2.08-.24.16-.1.2-.18.41-.24.62l-.06-.01a.8.8 0 0 0 .06-.37c0-.12.03-.23.1-.34.03-.06.08-.1.16-.15l.2-.07a.8.8 0 0 0 .3-.2c.05 0 .07.04.06.1 0 .04 0 .04.02 0a.13.13 0 0 1 .04-.06c.09-.06.19-.1.3-.14.09-.04.15-.09.2-.16l.02-.03c.19-.1.34-.23.48-.39.33-.24.47-.6.4-1.06Z" fill="#DBF127"/><path d="M13.1 7.2c.1.22.06.42-.1.6-.2.26-.46.44-.77.56a.54.54 0 0 1 .07-.18c.28-.13.5-.31.69-.56.03-.05.06-.17.07-.38h.02l.02-.01V7.2Z" fill="#E32262"/><path d="M13.06 7.24c-.01.2-.04.33-.07.38-.19.25-.41.43-.69.56-.02-.02-.05-.01-.08.02-.02.02-.03.02-.01 0a.07.07 0 0 1 .06-.04c.02 0 .03-.01.03-.02l.1-.25a.5.5 0 0 0 .1-.26.28.28 0 0 0 .03-.1l.02-.04a.08.08 0 0 0 .04-.04c0-.02 0-.04-.02-.05a.1.1 0 0 0-.09-.01c-.01 0-.02 0-.03-.02v-.02c-.02-.03 0-.04.03-.02l.02.03c.01.02.02.02.03 0 0-.02.03-.03.05-.03h.01l.01.02h.02c0-.04.02-.07.03-.1 0-.02.01-.03.03-.03l.38.02Z"/><path d="M11.72 7.25c-.07.22-.16.43-.26.64-.08.17-.15.4-.19.68 0 .02.01.03.03.05.02 0 .03.02.01.04-.1.12-.22.2-.35.25-.26.1-.43.19-.52.26-.07.07-.13.1-.17.1a.33.33 0 0 0-.21.03.1.1 0 0 1-.07 0c-.02 0-.02-.01 0-.02.17-.04.27-.1.3-.17l.05-.03.14-.09a.8.8 0 0 1 .2-.1 1.36 1.36 0 0 0 .54-.32c0-.02 0-.03-.01-.02a.05.05 0 0 1-.04.02c-.05-.01-.06-.03-.03-.07a.21.21 0 0 0 .03-.12l.01-.1c.08-.26.18-.5.31-.74a.95.95 0 0 0 .08-.25l.15-.04Z" fill="#E32262"/><path d="M5.15 7.34v.46c-.1.06-.2.1-.3.1l-.24-.02c-.02 0-.03-.01-.03-.03V7.4c0-.03.02-.05.06-.05l.51-.01Z" fill="#fff"/><path d="M6.68 7.43a.76.76 0 0 0-.04.06c-.05.07-.1.11-.13.12-.02 0-.03 0-.02-.01a.41.41 0 0 1 .08-.13l.04-.08c0-.02.03 0 .07.04Z" fill="#DBF127"/><path d="M12.36 7.5c.06.12.02.2-.13.26l-.07-.03c-.03-.01-.03-.02 0-.03h.07c.02 0 .03-.02.04-.04a.25.25 0 0 1 .09-.15Z" fill="#AB8A67"/><path d="M13.74 7.64c.01-.03.02-.06.01-.1l.02-.01h.02v.01c-.04.16-.11.31-.21.45h-.03l-.01-.01v-.01a.68.68 0 0 0 .14-.26c0-.02.01-.03.03-.04h.01l.02-.03ZM8.92 7.86l-.16.08v-.02c0-.02 0-.03-.02-.01-.02.03-.05.03-.08.01-.02 0-.02-.01 0-.02h.08l.02-.03c0-.02-.01-.03-.03-.03-.05 0-.1 0-.13.02-.12.04-.24.07-.35.08l-.04-.01c-.02-.02-.02-.03.01-.03h.09l.03-.03-.01-.07.24-.07.02.05c.08.02.14 0 .16-.04.09.01.15-.01.18-.08l.03-.01h.01v.02l-.02.1c0 .04-.01.07-.03.09Z" fill="#DBF127"/><path d="M8.13 7.8c-.01 0-.03 0-.04-.03a.09.09 0 0 0-.07-.03c-.03 0-.03 0 0 .02l.08.05c-.01.04-.01.06 0 .07.15.14.15.3 0 .47l-.18.18c-.02.02-.03.02-.04 0l-.01-.03c0-.02.01-.03.03-.05.1-.07.18-.16.24-.25a2.75 2.75 0 0 0-.25.24c-.08.04-.1.09-.08.14l-.06.04c-.02 0-.02.01-.02.03v.03l-.07.02a.14.14 0 0 0-.04.03l-.43.34A.41.41 0 0 1 7.02 9C7 9 7 8.98 7.02 8.96l.07-.03c.1-.05.16-.1.2-.13a16.2 16.2 0 0 0 .42-.33c.18-.13.3-.25.36-.35.06-.13.01-.26-.15-.37l.09-.06a.4.4 0 0 1 .21 0c.02 0 .02.02.01.03a.23.23 0 0 1-.1.08Z" fill="#DBF127"/><path d="m10.26 7.83-.42.03a.3.3 0 0 1 .04-.1h.48c.02 0 .02 0 0 .01l-.1.06Z" fill="#E32262"/><path d="M8.33 7.8c.01.03.02.05.01.07l-.03.02h-.09c-.03 0-.03.02 0 .04h.03c.11 0 .23-.03.35-.07a.38.38 0 0 1 .13-.02c.02 0 .03 0 .03.03l-.02.02h-.08c-.02.02-.02.02 0 .03.03.02.06.02.08-.01.01-.02.02-.01.02 0v.03c0 .09-.03.14-.08.17l-.58.24c.15-.17.15-.33 0-.47-.01-.01-.01-.03 0-.07h.06l.17-.01Z"/><path d="m8.92 7.86-.08.25c0 .03-.04.06-.08.09-.3.14-.62.27-.95.38-.02-.05 0-.1.08-.14-.02 0-.02 0 .01.01-.02.02-.03.03-.03.05v.03c.02.02.03.02.05 0l.18-.18.58-.24c.05-.03.08-.08.08-.17l.16-.08Z" fill="#E32262"/><path d="M10.55 7.95c.05.03.09.04.14.05.02 0 .02.01 0 .02a.67.67 0 0 1-.23.08c.01-.06 0-.1-.03-.09a2.23 2.23 0 0 1-.35.07l.23-.09.12-.04a.21.21 0 0 1 .12 0Z" fill="#AB8A67"/><path d="m5.92 8.14-.1.06-.56.14c-.03 0-.03 0-.02-.02 0-.02.04-.05.08-.07.01-.02.02-.05.01-.08.19-.07.38-.1.57-.1l.04.02c0 .02 0 .03-.02.05ZM7.2 8.2h-.24c-.11-.02-.17.02-.18.12-.03.02-.05.06-.05.1l-.02.04c-.02 0-.03 0-.03-.02V8.4c0-.02 0-.03-.03-.02a.04.04 0 0 0-.02.04l-.01.05c-.03.04-.04.08-.03.12-.02.05-.05.07-.09.07-.02 0-.03-.02-.02-.04a1.69 1.69 0 0 0 .1-.2c-.02-.02-.03-.02-.04 0a.51.51 0 0 1-.05.04c-.02.02-.03.02-.03-.02 0-.03.03-.07.06-.1.03.02.05.02.08 0a.07.07 0 0 0 .02-.05c.02-.13.07-.2.15-.2l.46.01c.02 0 .04.02.04.04s0 .04-.03.05l-.05.02ZM9.14 9.57a.37.37 0 0 0-.07.16c0 .01 0 .03-.02.04-.08.04-.16.16-.25.35a1.72 1.72 0 0 0-.02.03l.04-.22c.01-.04 0-.07-.03-.1v-.02c.02-.06.07-.11.12-.15.02 0 .03-.02.03-.03.03-.1.07-.2.12-.29l.03-.03c.08-.04.12-.11.11-.22 0-.03.02-.06.05-.08.02 0 .03-.02.03-.03.03-.05.03-.1-.01-.13a.04.04 0 0 1-.01-.05l.07-.21c0-.02 0-.03.02-.03a.8.8 0 0 0 .12-.07.6.6 0 0 1 .15-.07c.26-.07.52-.16.77-.26.18-.05.36-.07.53-.06.04 0 .04 0 0 .01a3.95 3.95 0 0 0-.48.15.1.1 0 0 0 .07-.02l.02.01v.01l-.28.12a25.28 25.28 0 0 0-.64.23c-.09.17-.16.35-.22.53 0 .02-.01.02-.02 0 0-.02-.01-.02-.02-.02h-.02c-.01.01-.02.02-.01.04.01.06.01.13-.01.2l-.04.03c-.07.02-.11.08-.13.18ZM5.1 8.12h.03c.03-.01.04 0 .04.03v.01a1.93 1.93 0 0 1-.6.23l-.02-.01.02-.02c.17-.09.35-.17.53-.24Z" fill="#DBF127"/><path d="m5.92 8.14.03.1v.04a4.4 4.4 0 0 0-.2.54.74.74 0 0 1-.37.43 5.5 5.5 0 0 0-.54.34l-.07-.01c.03-.03.02-.06 0-.08l.38-.27c.14-.07.27-.15.39-.27a.33.33 0 0 0 .07-.13c.09-.24.15-.45.2-.63l.1-.06Z" fill="#E32262"/><path d="M5.81 8.2c-.05.18-.11.4-.2.63a.33.33 0 0 1-.07.13c-.12.12-.25.2-.39.27V8.3c0-.07.03-.1.11-.1l.06.04c-.04.02-.07.05-.08.07-.01.02 0 .02.02.02l.55-.14Z"/><path d="M6.96 8.2h.23v.01c0 .01 0 .02-.02.03l-.47.28c-.01.01-.02 0-.03-.01l-.02.01c-.01.04-.03.06-.06.06-.01-.04 0-.08.03-.12a.08.08 0 0 0 .01-.05l.02-.04c.02-.01.03 0 .03.02v.05c0 .02.01.03.03.02l.02-.03c0-.05.02-.09.05-.1a.62.62 0 0 0 .18-.13Z" fill="#E32262"/><path d="M13.46 8.21c-.14.16-.3.3-.48.4a.09.09 0 0 0-.03.02.36.36 0 0 1-.2.16c-.1.03-.2.08-.3.14a.09.09 0 0 0-.02.03l-.01.03c-.01.04-.02.04-.02 0 0-.06-.01-.1-.05-.1a14.78 14.78 0 0 0 .5-.25l.01-.02a7.74 7.74 0 0 1 .6-.4Z" fill="#AB8A67"/><path d="M5.15 8.46v.77l-.39.27c-.02-.03-.05 0-.07.1l-.67-.02c-.01 0-.02 0-.02-.02l.03-.5c0-.02.01-.03.03-.03h.48c.02 0 .04-.01.04-.03v-.5c0-.02.02-.04.04-.04h.53Z" fill="#fff"/><path d="M9.46 8.71a.2.2 0 0 1 .1-.1c.02 0 .02 0 0 .01a.25.25 0 0 0-.06.15c0 .02 0 .03-.02.05a.51.51 0 0 0-.08.15h-.03l-.01-.02a1.82 1.82 0 0 0 .1-.24ZM7.33 8.87a.21.21 0 0 1 .08-.08 1.89 1.89 0 0 0 .26-.18l.01.01v.03a11.26 11.26 0 0 0-.35.26c0 .01 0 .02-.02.03a.54.54 0 0 0-.2.07H7.1V9c-.02-.01-.01-.02 0-.03l.21-.08.02-.02ZM7.93 8.72l-.39.16v.03a14 14 0 0 1 .53-.15.1.1 0 0 1-.05.04c-.04 0-.05.03-.05.06-.01.03-.02.06 0 .08 0 .01.01.02.03.01l.45-.14-.24.1c-.03.01-.04.03-.04.05l-.02.01c-.05 0-.08 0-.08.04-.01.03 0 .05.04.05.03 0 .06 0 .08-.02L8.27 9l.16-.03-.2.6h-.31l-.73-.5.43-.34a.14.14 0 0 1 .04-.03l.07-.02a.73.73 0 0 0 .18-.06h.03v.02c-.04.03-.04.06-.01.08Z"/><path d="m8.19 8.8-.13.06h-.09c0-.03.01-.05.05-.06a.1.1 0 0 0 .05-.04 14.01 14.01 0 0 0-.53.15v-.03l.39-.16c.05-.01.1-.02.16 0l.05-.01.23-.1c.01 0 .02 0 .02.02v.04a.47.47 0 0 0-.2.13Z" fill="#DBF127"/><path d="m13.17 8.68.01.9h-1.11c-.02 0-.03 0-.03.02v2.16c0 .03-.02.05-.06.05h-.45c-.04 0-.06.01-.06.05l-.01.46c0 .03-.02.04-.04.04l-.5.02c-.02 0-.03 0-.03.03v.47c0 .02-.01.03-.03.03h-.5c-.03 0-.04.01-.04.05v.47c0 .03-.01.04-.04.04h-.5c-.02 0-.03.02-.03.03v.45c0 .03-.02.05-.05.05a68.52 68.52 0 0 1-.54-.02l.01-.48c0-.02 0-.03-.03-.03h-.5c-.03 0-.04-.02-.04-.04v-.5h1.68c.02 0 .02-.02.03-.03l.01-.5c0-.02.01-.03.04-.03h.5c.02 0 .03 0 .03-.03v-.5c0-.02 0-.03.03-.03h.52c.02 0 .03 0 .03-.03v-1.42a.7.7 0 0 1 .08-.27 4.31 4.31 0 0 0 .27-.68c.03-.08.11-.13.24-.16.03-.01.03-.02 0-.04v-.04h.02l.01.01v.02l.02.01c.07 0 .13-.03.2-.08.16-.12.38-.23.64-.33.03 0 .05-.02.07-.04a.3.3 0 0 1 .15-.08Z"/><path d="M8.55 8.92a.26.26 0 0 1-.12.05L8.27 9c-.02-.03-.05-.04-.1-.04 0-.02.01-.04.04-.04l.24-.11a.22.22 0 0 1 .13-.06c.03 0 .04 0 .02.03a.12.12 0 0 1-.04.03c-.02.01-.02.03-.01.05a.1.1 0 0 1 0 .06Z" fill="#DBF127"/><path d="m8.55 8.92-.26.93c0 .02-.02.03-.04.03l-.05-.03c0-.1 0-.2.04-.28l.19-.6c.04 0 .08-.02.12-.05Z" fill="#E32262"/><path d="m7.08 9.64-.18-.1a2.37 2.37 0 0 0-.26-.1c-.2-.08-.31.01-.34.26l-.2.27c-.02.02-.02.02-.02 0 .01-.06 0-.11-.05-.16.06-.1.13-.23.2-.4.03-.1.12-.14.24-.11.24.06.45.17.61.34Z" fill="#DBF127"/><path d="M9.77 9.67c-.1-.01-.19 0-.27.04a.16.16 0 0 1-.06 0 .3.3 0 0 0-.03.01c-.03 0-.03 0-.01-.02l.02-.02c.13 0 .22-.04.27-.1.14-.03.28-.07.4-.12.02-.01.02-.02.02-.03.01-.02 0-.03-.02-.02h-.04c-.02 0-.02-.02 0-.02l.1-.04h.15c.1-.04.11-.03.02.04a.75.75 0 0 1-.1.07.1.1 0 0 0-.05.05c-.03.05-.07.09-.14.1-.09 0-.18.02-.26.06Z" fill="#E32262"/><path d="M11.27 9.52a10.05 10.05 0 0 0-.88.26 1.7 1.7 0 0 1-.4.07c-.05 0-.11.01-.2.04l-.18.04-.01-.01V9.9l.12-.02.3-.14 1.18-.38c.02 0 .04 0 .04.02l.03.14ZM11.38 9.83a.33.33 0 0 1-.1.15v-.01c.06-.14.1-.28.1-.42l.02-.05c0-.02 0-.03-.03-.02l-.04.02c0-.06.03-.1.1-.12.01-.01.02 0 .01.02a.21.21 0 0 0 0 .14v.05l-.06.24Z" fill="#DBF127"/><path d="M6.9 9.54a.2.2 0 0 0-.03.08v2.14c0 .04.02.05.06.05h.48c.02 0 .03 0 .03.02v2.14c.01.02 0 .03-.02.03a203.12 203.12 0 0 1-.53-.02v-2.13c0-.03-.02-.04-.05-.04h-.5c-.03 0-.04-.02-.04-.04l-.01-1.08V9.7c.04-.25.15-.34.35-.27l.26.1ZM11.39 9.55c-.05.02-.08.02-.1 0h-.05c-.03.02-.05.02-.07 0a.15.15 0 0 1 .1-.03c.03 0 .05 0 .06-.02l.04-.02c.02 0 .03 0 .03.02l-.01.05Z"/><path d="m5.49 9.61-.16.06a.37.37 0 0 0-.18.08.62.62 0 0 0-.23.1.1.1 0 0 1-.07 0c-.02 0-.02 0 0-.01.03-.04.04-.08.03-.13.11-.07.2-.11.27-.14a.9.9 0 0 1 .34-.07c.01 0 .02 0 .01.02l-.01.1Z" fill="#DBF127"/><path d="m7.08 9.64.18.13c.05.11.11.16.2.13.08.06.17.09.24.07-.02 0-.04 0-.04.02 0 .06.03.11.09.16.02.01.03.01.03-.01v-.02c-.02-.02-.01-.04.02-.04h.05a1 1 0 0 0 .09.06c.12.02.13 0 .02-.06a.97.97 0 0 0-.19-.07c.04 0 .06-.02.05-.03l.43.13c-.03.03-.03.05 0 .06h.05a.2.2 0 0 1 .08 0l-.03.2c0 .04 0 .04.02.02l.05-.08a.06.06 0 0 1 .05-.03c.08 0 .18.05.28.16.05.04.05.03.03-.02-.02-.04-.1-.1-.22-.17a1.75 1.75 0 0 1-.07-.04l.03-.06.19-.3h.03c-.02.02-.02.05-.02.06.01.03.02.03.04 0v-.07h.03c.03.02.04.05.03.09a2.72 2.72 0 0 1-.04.22h.01l.01-.03c.09-.19.17-.3.25-.35l.02-.04a.37.37 0 0 1 .07-.16h.55c-.05.07-.14.1-.27.11l-.02.02c-.02.02-.02.02.01.02h.03l.06-.01a.56.56 0 0 1 .27-.04c0 .06.09.09.26.07l-.31.14a.33.33 0 0 1-.11.02H9.6v.02h.01l.18-.03c.09-.03.15-.04.2-.04l.4-.06a10.05 10.05 0 0 1 .85-.24h.04c.03.02.06.02.1 0 0 .14-.04.28-.1.42 0 .02 0 .02 0 0a.33.33 0 0 0 .1-.14c0 .11.03.17.1.16l-.02.12.01.02h.02l.03-.11.06.01-.03.06a.7.7 0 0 0-.08.27v1.42c0 .02 0 .03-.03.03h-.52c-.02 0-.03.01-.03.03v.5c0 .02-.01.03-.03.03h-.5c-.03 0-.04.01-.04.03l-.01.5c0 .01-.01.02-.03.02H8.6l-.02-.51c0-.03-.01-.04-.03-.04h-.5c-.02 0-.02.01-.02.03v.47c0 .03.01.05.04.05h.53v.51c0 .02.01.03.03.03l.51.01c.02 0 .03.01.03.03v.48l-.03.01H7.47s-.02 0-.03-.02v-2.14c0-.02 0-.03-.03-.02h-.48c-.04 0-.06-.01-.06-.05V9.62a.2.2 0 0 1 .03-.08l.18.1Z" fill="#AB8A67"/><path d="m13.18 9.57.53.02c.03 0 .04.02.04.04v.45c0 .04-.02.06-.06.06h-1.06c-.01 0-.02 0-.02.02l-.02.51c0 .02 0 .03-.02.03h-.53V9.6c0-.01.01-.02.03-.02h1.11Z" fill="#fff"/><path d="m5.49 9.61-.2.62-.1.13-.03-.06.17-.63.16-.06Z" fill="#E32262"/><path d="m11.52 10.02-.02.1h-.03v-.13c0-.12.03-.23.11-.34a.8.8 0 0 1-.06.37Z"/><path d="m5.33 9.67-.17.63c-.02.02-.02.02-.02 0v-.03a.1.1 0 0 0 .01-.04v-.48a.37.37 0 0 1 .18-.08ZM6.3 9.7l-.01 1h-1.1c-.02 0-.03.01-.03.03l-.01.47c0 .03-.02.05-.05.05h-.48c-.03 0-.04 0-.04-.03v-.5c0-.02 0-.03.02-.03h.5c.05 0 .07-.03.06-.08-.03-.1-.01-.18.03-.25l.1-.13-.07.27v.02h.02l.18-.26-.06.28c-.03.1-.02.11.05.03a.81.81 0 0 0 .14-.26l.15-.28c.04.08.03.18-.02.3-.01.01 0 .02.01 0l.03-.01c.05-.1.1-.2.18-.27.04-.04.06-.1.06-.17l.07-.07c.04.05.06.1.05.16 0 .02 0 .02.02 0l.2-.27Z" fill="#fff"/><path d="m8.71 9.84-.19.31-.09-.08a.05.05 0 0 1-.02-.04c.01-.06.04-.11.08-.16.03-.02.03-.01.03.02l-.05.09V10h.02l.16-.24c.05-.08.07-.08.07.02l-.01.06ZM5.96 9.88c0 .07-.02.13-.06.17a1.1 1.1 0 0 0-.18.27l-.03.02c-.02 0-.02 0-.01-.02.05-.11.06-.21.02-.3a.91.91 0 0 0 .17-.27c.02-.04.04-.04.07 0 .02.02.03.07.02.13ZM5.55 10.3a.81.81 0 0 1-.14.27c-.07.08-.08.07-.05-.03l.06-.28a10.02 10.02 0 0 0 .22-.37c.01 0 .02 0 .01.02-.06.13-.09.26-.1.4ZM8.25 10.11l-.43-.13c-.01-.03-.01-.05 0-.07h.05a.3.3 0 0 0 .12.04c.16.02.24.07.26.16ZM7.7 9.97c.04 0 .06.02.07.04l.19.07c.11.07.1.08-.02.06l-.09-.05a.07.07 0 0 0-.05-.01c-.03 0-.04.02-.02.04v.02c0 .02-.01.02-.03.01-.06-.05-.09-.1-.09-.16 0-.02.02-.02.04-.02Z" fill="#DBF127"/><path d="M9.72 10.14H9.2a.02.02 0 0 0-.02.02v.5c0 .02 0 .03.02.03h.51c.02 0 .03-.01.03-.02v-.5a.02.02 0 0 0-.02-.03Z"/><path d="m8.38 10.16.11.05.07.04c.12.08.2.13.22.17.02.05.02.06-.03.02-.1-.11-.2-.16-.28-.16a.06.06 0 0 0-.05.03l-.05.08c-.01.02-.02.02-.02-.01l.03-.22Z" fill="#DBF127"/><path d="M13.13 10.7h-.47a.05.05 0 0 0-.05.04v.46c0 .03.02.05.05.05h.47c.03 0 .05-.02.05-.05v-.46a.05.05 0 0 0-.05-.05Z" fill="#fff"/><path d="M10.3 11.25H8.61a.02.02 0 0 0-.02.03v.5c0 .02.01.03.02.03h1.67c.01 0 .02-.01.02-.03v-.5a.02.02 0 0 0-.02-.03ZM8.6 12.92h-.53c-.03 0-.05-.02-.04-.05v-.47c0-.02 0-.03.02-.03h.5c.02 0 .03.01.03.04l.02.51Z"/></svg>