<!-- by TradingView --><svg width="18" height="18" viewBox="0 0 18 18" xmlns="http://www.w3.org/2000/svg"><path fill="url(#as052nldm)" d="M0 0h18v18H0z"/><path d="m12.85 12-1.72-2.45h.05c.67 0 1.22-.6 1.22-1.35V6.32c0-.73-.54-1.32-1.2-1.32H6.14c-.08 0-.14.07-.14.15v1.7c0 .09.06.15.14.15h4.04c.08 0 .14.07.14.16v.69c0 .08-.06.15-.14.15H6.13c-.07 0-.13.06-.13.13V12h.96v1.48a.27.27 0 0 0-.17.25c0 .15.11.27.25.27.13 0 .24-.12.24-.27a.27.27 0 0 0-.16-.25V12H8v-2h1.18l1.4 2v.41a.27.27 0 0 0-.16.26c0 .14.11.26.25.26.13 0 .24-.12.24-.26a.27.27 0 0 0-.16-.26V12h.91v1.48a.27.27 0 0 0-.16.25c0 .15.11.27.25.27.13 0 .24-.12.24-.27a.27.27 0 0 0-.16-.25V12h.87v.41c-.12 0-.19.14-.19.26 0 .14.11.26.25.26.13 0 .24-.12.24-.26 0-.12-.05-.22-.15-.26V12ZM8 12h-.15v.41a.27.27 0 0 0-.16.26c0 .14.11.26.25.26.13 0 .24-.12.24-.26a.27.27 0 0 0-.16-.26L8 12Zm-2 0h.17v.41c.1.04.16.14.16.26 0 .14-.2.26-.33.26V12Z" fill="#fff"/><defs><linearGradient id="as052nldm" x1="3.35" y1="3.12" x2="21.9" y2="24.43" gradientUnits="userSpaceOnUse"><stop stop-color="#1A1E21"/><stop offset="1" stop-color="#06060A"/></linearGradient></defs></svg>