<!-- by TradingView --><svg width="18" height="18" xmlns="http://www.w3.org/2000/svg"><path fill="url(#paint0_linear)" d="M0 0h18v18H0z"/><path d="M6.107 10.018a2.09 2.09 0 00.114 1.852c.196.339.51.667.92.913 1.39.838 3.628.602 4.496-.896a1.926 1.926 0 00.084-1.78c0 .002-.007-.012.001.003C10.931 8.59 8.988 8.88 7.752 8c-.687-.5-.537-1.48.136-1.928.767-.539 2.024-.415 2.558.404.165.256.234.597.124.89.144-.672-.4-1.237-1-1.416a1.91 1.91 0 00-1.277.073c-.722.261-1.153 1.29-.41 1.788.665.437 1.553.497 2.3.726.568.175 1.106.424 1.517.864.677.724.764 1.828.252 2.673-.8 1.326-2.602 1.743-4.012 1.308-1.401-.432-2.582-1.884-1.833-3.365z" fill="#fff"/><path d="M11.908 7.988a2.101 2.101 0 00-.115-1.86 2.625 2.625 0 00-.925-.919c-1.396-.842-3.645-.605-4.517.901a1.935 1.935 0 00-.084 1.788c-.001-.001.006.013-.002-.002.795 1.528 2.747 1.236 3.99 2.119.69.502.54 1.488-.137 1.937-.771.542-2.034.417-2.57-.405-.167-.258-.236-.6-.125-.894-.145.675.4 1.242 1.005 1.422.372.111.843.114 1.283-.073.725-.263 1.159-1.296.412-1.797-.65-.427-1.513-.492-2.245-.71-.55-.163-1.127-.393-1.53-.822-.705-.758-.863-1.844-.313-2.751.824-1.369 2.693-1.765 4.13-1.283 1.37.46 2.472 1.907 1.743 3.35z" fill="#fff"/><path d="M11.962 10.01c.614-.4 1.139-.89 1.437-1.575.33-.757.39-1.611.109-2.39-.608-1.68-2.46-2.58-4.147-2.646-1.703-.066-3.643.647-4.484 2.232a3.072 3.072 0 00.225 3.29c1.54 2.143 4.717 2.305 6.86 1.088zm.036.055c-2.45 1.54-6.257 1.172-7.667-1.623a3.415 3.415 0 01-.146-2.574c.7-1.983 2.958-2.944 4.924-2.863 2.017.083 4.265 1.256 4.66 3.417.254 1.47-.601 2.829-1.77 3.643z" fill="#fff"/><path d="M6.038 7.99c-.614.4-1.14.89-1.437 1.575-.33.757-.39 1.611-.109 2.39.607 1.68 2.46 2.58 4.147 2.646 1.703.066 3.643-.646 4.484-2.231a3.072 3.072 0 00-.225-3.292c-1.54-2.142-4.717-2.304-6.86-1.087zm-.036-.055c2.45-1.54 6.257-1.172 7.667 1.623.368.763.447 1.717.146 2.574-.7 1.983-2.958 2.944-4.924 2.863-2.017-.083-4.265-1.256-4.66-3.417-.254-1.47.601-2.829 1.77-3.643z" fill="#fff"/><defs><linearGradient id="paint0_linear" x1="3.349" y1="3.122" x2="21.904" y2="24.434" gradientUnits="userSpaceOnUse"><stop stop-color="#1A1E21"/><stop offset="1" stop-color="#06060A"/></linearGradient></defs></svg>