<!-- by TradingView --><svg width="18" height="18" viewBox="0 0 18 18" xmlns="http://www.w3.org/2000/svg"><path fill="#F0F3FA" d="M0 0h18v18H0z"/><path fill-rule="evenodd" d="M4.9 11.7a.61.61 0 0 0 .22-.32.04.04 0 0 0-.01-.03l-.02-.01a.1.1 0 0 0-.03 0c-.02 0-.03 0-.05.03a.9.9 0 0 0-.15.33c-.2.13-.39.06-.58-.01a1.83 1.83 0 0 0-.2-.07v-.05c0-.02 0-.03.03-.02.16.03.3-.01.4-.12.03-.02.03-.03 0-.04a2.07 2.07 0 0 1-.95-.36c-.06-.17-.1-.17-.12 0a.8.8 0 0 0 .12.5l.01.06c0 .07-.04.09-.1.05-.04-.02-.13-.1-.27-.24-.21-.2-.2-.38-.2-.66v-.06c.01-.17.14-.32.25-.45.04-.05.08-.1.1-.15a.1.1 0 0 1 .08-.04l.25-.02a.1.1 0 0 0 .05-.02 1 1 0 0 0 .32-.38c.05-.11.06-.25.03-.42a3 3 0 0 1-.01-.6c0-.12.06-.22.16-.3.15-.1.26-.16.33-.17a4.95 4.95 0 0 1 1.07.02l-.02-.01a.08.08 0 0 1-.04-.07c-.03-.33-.03-.77.2-.98a.12.12 0 0 1 .08-.03h.24c.38 0 .74 0 .93-.31.07-.1.1-.23.08-.36a2 2 0 0 0-.45-1.13c-.19-.22-.44-.45-.75-.7a.28.28 0 0 1-.1-.16c0-.03 0-.05.03-.05.8-.04 1.52.26 2.16.76.2.15.5.3.71.4l.16.07c.28.14.43.27.44.59 0 .27-.03.42-.19.66l-.56.83c-.11.17-.11.33 0 .49a.06.06 0 0 0 .04.02.06.06 0 0 0 .05-.01 3.53 3.53 0 0 1 2.4-.82h.22c.2-.02.35-.05.44-.1.33-.18.55-.68.3-1.04-.08-.11-.2-.31-.36-.6a4.9 4.9 0 0 0-.35-.58c-.2-.26-.45-.51-.75-.75-.14-.11-.12-.19.06-.23.68-.14 1.02.07 1.63.43l.1.06c.43.26.75.47.95.66.43.4.67.91.72 1.54.02.26 0 .46-.16.68-.13.17-.3.35-.5.53-.13.11-.3.2-.5.25l-.22.08c-.16.06-.31.12-.52.13h-.96c-.23-.02-.4.02-.5.1-.31.24-.48.63-.2.96.03.03.05.03.08.02.37-.14.69-.18.97-.12.3.06.57.23.82.51l.26.3c.21.17.39.3.52.34.1.04.28.05.56.03a14.84 14.84 0 0 1 1.33 0l.02.02v.03l-.01.02-.58.73c-.08.1-.25.27-.4.3-.24.04-.48.06-.7.05-.25 0-.45-.15-.65-.29-.19-.13-.37-.26-.58-.28-.37-.05-.82-.14-1.34-.27-.1-.03-.17-.03-.2 0-.04.04-.04.07.02.08l.71.2a.1.1 0 0 1 .08.09v.08c-.02.34-.03.66.46.66a162.19 162.19 0 0 1 .93 0l.04.03c.02.03.03.06.03.1a3.26 3.26 0 0 1-.8.37c-.08.01-.08.04-.02.07l.9.53c.03.01.05.04.06.06.03.06.07.1.14.12.1.02.14.1.18.18a.07.07 0 0 1-.03.08l-.03.01c-.11 0-.24-.04-.34-.08l-.11-.04a3.8 3.8 0 0 0-.42-.1c-.24-.04-.38-.18-.53-.32-.16-.16-.32-.32-.6-.32h-.08c-.4 0-.68 0-.96-.31-.03-.03-.05-.02-.06.01l-.21.63v.04l.23.67c0 .03.02.05.05.07.05.05.08.09.08.13-.01.13-.05.14-.13.05a.77.77 0 0 0-.32-.19.14.14 0 0 1-.07-.05c-.07-.1-.15-.16-.23-.17-.03 0-.05 0-.05.03v.23c0 .02-.02.04-.03.05a.13.13 0 0 1-.07.03h-.03c-.06-.01-.1-.06-.1-.12l-.02-.37c0-.25-.08-.35-.2-.48a3.1 3.1 0 0 1-.08-.1c-.1-.11-.25-.12-.42-.13a.94.94 0 0 1-.37-.07 3.13 3.13 0 0 1-.74-.5.04.04 0 0 0-.03.01l-.01.02a.96.96 0 0 1-.26.35.13.13 0 0 0-.04.08l-.13.83v.07l.04.1a.09.09 0 0 1-.06.12h-.05c-.33-.11-.6-.33-.78-.65l-.1-.22a1.55 1.55 0 0 0-.23-.46c-.02-.02-.04-.02-.07-.01-.29.14-.63.63-.7.95-.03.1-.03.2 0 .29a.12.12 0 0 1-.01.1.1.1 0 0 1-.1.04c-.03 0-.06-.03-.09-.1a3.3 3.3 0 0 1-.12-1.41.53.53 0 0 1 .11-.22c.06-.09.12-.17.14-.3Zm3.79-.33c.14.03.34.13.58.3.03 0 .04.03.04.06v.46a.03.03 0 0 1-.02.02h-.03c-.11-.12-.26-.15-.4-.19l-.19-.05a4.99 4.99 0 0 1-.7-.56c-.02-.02-.02-.04 0-.06l.25-.19a.07.07 0 0 1 .04-.01c.13 0 .25.06.36.18.02.02.04.04.07.04Zm-2.52.2a2.65 2.65 0 0 0 .36.86.02.02 0 0 0 .03-.02c.05-.21.11-.4.18-.57a.56.56 0 0 0 .03-.22v-.04c0-.04-.02-.06-.06-.06h-.5c-.03 0-.04.02-.04.06Z" fill="#0C0E0C"/><path d="M4.9 11.7h-.04a.9.9 0 0 1 .15-.33c.02-.02.03-.03.05-.03a.1.1 0 0 1 .03 0 .04.04 0 0 1 .02.02.04.04 0 0 1 0 .03.6.6 0 0 1-.2.3ZM8.75 11.09v-.07c0-.03.02-.05.05-.06.04 0 .06 0 .09.02l.03.07.01.04c0 .03.03.04.06.02.02-.01 0-.1-.07-.24 0-.03-.03-.04-.07-.04-.07 0-.14.05-.2.13v.02l-.02.1c0 .03-.02.04-.05.03a.8.8 0 0 0-.74.15c-.02.02-.04.02-.06 0a.76.76 0 0 1-.34-.36c-.04-.11-.08-.11-.12 0l.02.09c.01.03.05.08.12.15.3.33.54.48 1.05.88.03.03.08.06.17.1.2.1.37-.01.54.2l.34.44a2.92 2.92 0 0 1 .44.9.02.02 0 0 1-.03.01 1.7 1.7 0 0 1-.69-.6 3.96 3.96 0 0 0-.28-.35c-.18-.2-.37-.18-.67-.19a.93.93 0 0 1-.4-.18 2 2 0 0 1-.91-1.3c0-.02-.02-.04-.03-.05a.1.1 0 0 0-.09 0 .06.06 0 0 0-.04.06l.01.02.15.2a.07.07 0 0 1-.05.1h-.84c-.03 0-.05 0-.05-.04l-.14-.74a.03.03 0 0 0-.03-.03c-.04 0-.07 0-.08.02-.01.06-.02.1-.01.11.1.23.15.44.15.62 0 .14.03.25.09.35a5.96 5.96 0 0 0 .35.81c.11.23.16.42.3.68.06.1.07.23.08.34a.04.04 0 0 1-.02.04h-.05a1.6 1.6 0 0 1-.45-.43 4.8 4.8 0 0 1-.27-.54 4.9 4.9 0 0 0-.5-.85.58.58 0 0 1-.08-.3c.01-.18.02-.37.01-.57 0-.04-.02-.07-.07-.07h-.03c-.02 0-.03.02-.03.04v.47s0 .02-.03.03h-.04a.06.06 0 0 1-.05-.04.6.6 0 0 0-.22-.24c-.03-.02-.04-.04-.03-.07l.1-.37c0-.02.02-.03.05-.03l.09-.04c.24-.17.46-.39.66-.65a.8.8 0 0 0 .15-.38c.05-.4.1-.5.01-.76V8.7c.02-.03.05-.03.07 0l.26.26c.03.03.05.03.08.01l.03-.02a.02.02 0 0 0 0-.02V8.9c-.08-.1-.19-.2-.31-.27a.09.09 0 0 1-.04-.06l-.02-.09A.07.07 0 0 0 6 8.43c-.22-.05-.3-.2-.31-.43v-.57c.01-.19.1-.28.28-.27.16 0 .31-.01.47-.03.41-.03.57-.11.75-.45.06-.11.07-.25.03-.43-.13-.49-.3-.9-.65-1.24a9.1 9.1 0 0 0-.5-.44c-.1-.07-.08-.1.03-.1a2.97 2.97 0 0 1 1.82.72c.33.25.8.42 1.05.56.36.2.27.73.08 1l-.6.85a.57.57 0 0 0-.02.57.2.2 0 0 1 .02.07.1.1 0 0 1-.02.07c-.13.16-.23.33-.3.53-.03.09-.04.16-.02.2.05.15.1.15.14-.01.02-.13.08-.32.17-.56a.12.12 0 0 1 .06-.06c.12-.07.17-.17.3-.25.42-.26.82-.54 1.31-.62.29-.05.6-.08.92-.09.31 0 .55-.05.7-.12.44-.2.47-.5.45-.93 0-.1-.05-.22-.14-.36-.13-.2-.3-.5-.51-.9a6.44 6.44 0 0 0-.37-.45c-.17-.2-.39-.35-.57-.53-.02-.03-.02-.05.02-.05.37-.07.65-.05.84.04.65.32 1.21.67 1.69 1.05.28.22.52.53.64.93.1.32.13.61.12.88-.02.39-.5.8-.8 1-.04.02-.25.09-.63.2-.2.05-.41.07-.65.07l-.76.01a.86.86 0 0 0-.6.25c-.19.18-.19.25-.21.5-.03.26.04.47.2.66a.06.06 0 0 0 .1-.04c0-.12.07-.17.23-.17.44 0 .74-.06 1.03.1.16.08.28.16.33.24.28.34.55.58.81.7.14.07.38.1.72.09l1.04-.04c.18 0 .2.05.07.17-.1.08-.21.23-.37.44-.12.16-.35.39-.58.41-.23.03-.48.08-.7-.05a6.92 6.92 0 0 1-.53-.34c-.08-.07-.07-.1.02-.1.04 0 .08-.04.11-.1.05-.11-.1-.24-.18-.28a.1.1 0 0 0-.14.04.1.1 0 0 0 0 .05v.17c0 .1-.06.13-.15.1-.19-.08-.32-.15-.55-.18l-1.06-.14c-.05 0-.17.02-.35.07a.09.09 0 0 0-.06.05l-.02.04a.07.07 0 0 1-.1.03.07.07 0 0 1-.03-.04l-.1-.43a.14.14 0 0 0-.05-.07l-.63-.53c-.1-.09-.22-.09-.36 0-.02.02-.04.04-.04.06l.01.04c.01.03.03.03.06.03.25-.08.43 0 .54.22l.02.03h.06a.1.1 0 0 1 .08.04c.07.08.16.19.24.33.04.06.07.16.08.3.02.3.12.6.28.89.01.02.03.04.06.05.33.14.64.21.93.22a27.65 27.65 0 0 0 1.34 0v.02l-.02.01c-.22.07-.49.17-.8.3-.29.12-.71.08-1.07.05-.24-.02-.38-.08-.43-.2a.17.17 0 0 0-.05-.07c-.1-.09-.19-.2-.27-.25a.86.86 0 0 1-.22-.16.53.53 0 0 0-.23-.15c-.07-.03-.2-.1-.38-.24a.18.18 0 0 0-.07-.03.62.62 0 0 1-.36-.16c-.02-.02-.03-.04 0-.07l.04-.02c.02-.01.02-.02.02-.04Z" fill="#8AA981"/><path d="M4.74 9.73a.75.75 0 0 0-.3-.08.08.08 0 0 1-.08-.04c-.18-.28-.25-.6-.21-.96.01-.12.07-.2.16-.27a.74.74 0 0 1 .32-.14c.38-.05.7-.01.96.1.26.1.26.24.34.48.11.32-.07.82-.25 1.1-.06.08-.16.12-.2.19a1.24 1.24 0 0 1-.43.35h-.02v-.01l-.01-.02c-.01-.1-.04-.25-.1-.43-.03-.14-.09-.23-.18-.27Z" fill="#8AA981"/><path d="M3.85 10.04a.65.65 0 0 0 .26-.16c.16-.16.35-.18.57-.09l.06.06c.05.1.14.2.15.35v.61c-.03.26-.15.24-.29.4a.1.1 0 0 1-.07.04c-.24 0-.44-.08-.76-.2a.52.52 0 0 1-.14-.13c-.16-.21-.03-.8.22-.88Z" fill="#F1F77D"/><path d="M3.3 10.92v.36c0 .02 0 .03-.02.02-.07-.06-.12-.12-.13-.17-.1-.36 0-.66.26-.88.13-.1.17-.08.1.1-.04.09-.05.2-.05.33 0 .04-.04.1-.12.17a.1.1 0 0 0-.04.07ZM10.67 11.5c-.12-.14-.2-.13-.39-.12a.06.06 0 0 1-.06-.04c-.08-.14-.05-.25.07-.35.03-.02.05-.02.08 0a.7.7 0 0 0 .4.11c.15 0 .28.06.42.1.03.01.06.03.07.05.02.03.03.06.02.09a.9.9 0 0 0 .08.58c.01.03 0 .04-.03.05-.38.03-.46-.22-.66-.47ZM4.54 11.59c.07-.04.1-.1.07-.16a.12.12 0 0 1 .04-.13l.2-.15c.04-.03.05-.02.06.03 0 .15-.02.28-.09.4a.15.15 0 0 1-.15.08h-.1c-.1 0-.1-.03-.03-.07ZM4.8 13.28c-.03-.3-.11-.93.07-1.25a14.5 14.5 0 0 1 .37-.6.05.05 0 0 1 .06.01l.02.03a1.69 1.69 0 0 0 .33.67.08.08 0 0 1-.03.09c-.28.18-.4.38-.68.82-.05.08-.04.16-.08.24-.03.07-.04.07-.05 0ZM6.79 13.07l-.15-.33a.28.28 0 0 1 0-.23c.11-.2.1-.42.18-.62l.06-.28c.02-.15.08-.16.16-.04l.24.3a.19.19 0 0 1-.02.25c-.21.22-.34.43-.36.74a.6.6 0 0 1-.08.24c0 .03-.02.02-.03-.03Z" fill="#8AA981"/><path d="m10.56 11.55.22.3v.01a.04.04 0 0 1-.02.04c-.17.04-.34-.05-.5-.27a.09.09 0 0 1-.01-.06c0-.03.01-.05.03-.07.01 0 .04-.02.09-.02.08-.01.14.01.19.07Z" fill="#fff"/><path d="M9.73 12.82c-.14-.18-.3-.28-.29-.52v-.46c.01-.06.04-.08.09-.04l.43.32c.05.03.07.08.06.14a1.32 1.32 0 0 1-.23.57h-.02a.04.04 0 0 1-.04-.01ZM11.85 12.82c-.09-.1-.19-.15-.28-.2l.16-.06h.06l1.11.66a.03.03 0 0 1 .01.03.03.03 0 0 1-.02.02c-.46-.02-.81-.17-1.04-.45Z" fill="#8AA981"/><path d="M7.06 7.75c.12.09.23.12.35.25.16.17.09.35-.12.4-.28.05-.49 0-.64-.17-.25-.26.02-.41.21-.52a.13.13 0 0 1 .08-.01c.03 0 .07.02.12.05ZM9.8 8.64c.03.2 0 .33-.2.4-.22.09-.4.13-.57.14a.07.07 0 0 1-.07-.06c-.03-.17.03-.3.18-.4.14-.07.3-.14.49-.19a.14.14 0 0 1 .17.11ZM8.47 9.76a.2.2 0 0 1 .08.12c.05.24-.09.29-.27.31a4.7 4.7 0 0 1-.8.03c-.1 0-.15-.05-.18-.14-.07-.26.02-.4.26-.44l.5-.05c.2-.01.26.06.41.17ZM3.91 10.33c.04 0 .07-.03.07-.07a.07.07 0 0 0-.07-.07.07.07 0 0 0-.07.07c0 .04.03.07.07.07ZM4.62 10.4a.3.3 0 0 1 0 .08.07.07 0 0 1-.05.04.07.07 0 0 1-.06 0c-.05-.05-.07-.08-.07-.12 0-.03.02-.07.07-.1a.07.07 0 0 1 .06-.02.07.07 0 0 1 .05.05.3.3 0 0 1 0 .07ZM4 10.69c.1.15.28.21.43.07h.06l.01.03v.01c-.15.17-.43.1-.6 0a.07.07 0 0 1-.03-.04v-.04c0-.03.02-.05.05-.06a.07.07 0 0 1 .07.03Z" fill="#0C0E0C"/><path d="M7.35 8.18c-.01.05-.06.08-.13.1a.52.52 0 0 1-.26-.01.52.52 0 0 1-.22-.13c-.05-.05-.07-.11-.06-.16.01-.05.06-.09.14-.1a.52.52 0 0 1 .25 0c.1.03.17.08.22.13.06.06.08.12.06.17ZM7.7 9.93l.03.1c.01.03 0 .05-.03.05h-.23a.09.09 0 0 1-.1-.07c-.05-.14-.02-.22.1-.24a.95.95 0 0 1 .3 0c.02.01.03.02 0 .04l-.05.04c-.03.02-.03.05-.02.08ZM8.05 10c.02-.03.03-.05.01-.08l-.04-.1c-.02-.03 0-.05.02-.05l.24-.03c.04 0 .07.02.1.05.07.15.05.23-.06.26a.97.97 0 0 1-.3.03c-.04 0-.04-.02-.02-.04l.05-.04Z" fill="#fff"/></svg>