<!-- by TradingView --><svg width="18" height="18" viewBox="0 0 18 18" xmlns="http://www.w3.org/2000/svg"><path fill="url(#ahb2phgez)" d="M0 0h18v18H0z"/><path d="M15 12.35v-.08a55 55 0 0 1-1.22-.94l-.79-.6c-.95-.7-1.89-1.36-2.81-2.01a.4.4 0 0 1-.15-.23c0-.02 0-.02.01-.01l.71.48c.02 0 .03 0 .03-.02a.23.23 0 0 0-.07-.2c-.15-.15-.3-.27-.43-.39v-.04l.3-.3a.06.06 0 0 0 .02-.05l-.01-.08c0-.02 0-.03.03-.02l.77.28c.03 0 .05 0 .07-.02l.08-.1a.05.05 0 0 0 0-.05c-.16-.36-.38-.66-.67-.91a.08.08 0 0 1-.03-.09l.26-.86-.01-.05a3.37 3.37 0 0 0-3.75-.8.04.04 0 0 0-.02.05c0 .15-.04.23-.15.23-.02 0-.03 0-.04-.02l-.08-.08c-.01-.01-.03-.02-.05 0l-.2.12c-.03.02-.03.03-.02.05l.07.18c.03.07 0 .1-.06.06l-.94-.45-.02.01-.01.01.59.37c.02.02.03.04 0 .07l-.1.1a.1.1 0 0 1-.1.01l-1.13-.55c-.13-.06-.14-.04-.03.04l.9.72c.02.02.05.03.11.04h.08a67.1 67.1 0 0 1 1.57.83c.03.03.05.06.05.1l.04.27c0 .02.02.03.04.04l.92.4c.04.01.06.04.08.08 0 0 0 .03.02.05.04.13.08.21.13.24a17.6 17.6 0 0 1 1.01.74c.1.1.18.16.24.2a398.69 398.69 0 0 1 2.35 1.62c.08.05.16.17.24.34l.03.06c.06.1.2.16.44.16h.02a.4.4 0 0 1 .21.07l1.47.93ZM7.1 5.32l.05-.07v-.03l-.04-.1c-.02-.04-.04-.04-.06 0l-.08.12c-.01.02 0 .04.02.05l.07.04.05-.01Zm-.54-.06.03.28c0 .05-.01.06-.05.03l-.26-.2c-.03-.03-.03-.05 0-.06l.24-.08c.02 0 .03 0 .04.03Zm3.86 5.55h.02l1.83 1.14a28 28 0 0 0 1.8 1.04l.02-.01v-.02l-1.61-1.15a.39.39 0 0 1-.1-.12.4.4 0 0 0-.12-.15l-.62-.35a2.4 2.4 0 0 1-.62-.58 10.41 10.41 0 0 0-.16-.17l-.12-.03a.82.82 0 0 1-.3-.12l-.4-.32a.99.99 0 0 0-.35-.16.94.94 0 0 1-.33-.15 8.88 8.88 0 0 1-.53-.5.22.22 0 0 0-.1-.05l-.83-.23a.46.46 0 0 1-.2-.1l-1.62-1.5c-.1-.1-.28-.21-.54-.37A23.25 23.25 0 0 0 4 5.95v.01c-.01 0-.01 0 0 0l.53.47.37.34c.13.1.3.27.51.48l.02.02c.02.01.02.03.01.06l-.02.07c-.01.03-.03.03-.05.01a12.44 12.44 0 0 0-.73-.63v.02l.08.09.27.32.36.44c.06.07.11.16.15.27 0 .02 0 .03-.02.04l-.18.07a.05.05 0 0 0-.03.03 3.3 3.3 0 0 0 .64 2.46c.5.65 1.18 1.07 2.03 1.26.07.02.13.01.18 0l.17-.07.65-.35a.07.07 0 0 1 .08 0l.42.3c.02.02.03 0 .03-.03l-.04-.23c-.02-.11-.01-.26.03-.44 0-.04.03-.07.07-.08l.42-.19c.06-.02.08 0 .08.06-.02.12 0 .26.02.42a3.27 3.27 0 0 1-.04.13c-.06.14-.09.26-.1.34a9.97 9.97 0 0 1-.02.36c.52-.01.98-.13 1.4-.36.03-.01.03-.03 0-.04a.99.99 0 0 1-.23-.19 6.38 6.38 0 0 0-.65-.6Zm1.77-2.64-.35-.1a.08.08 0 0 1-.06-.06l-.15-.43a.44.44 0 0 0-.1-.17l-.3-.32a.06.06 0 0 1-.02-.05c.06-.3.14-.58.24-.84.01-.02.03-.02.04 0 .5.56.74 1.21.72 1.95 0 .02 0 .02-.02.02Zm-7.06-.5-.07.04-.01.02v.18c0 .02.02.02.03.02l.17-.09v-.02l-.1-.15h-.02Zm5.58.4.89.32v.03l-.44.55h-.02l-.58-.56v-.02l.14-.3c0-.01 0-.02.01-.01Zm1.53 1.88.03.01c.15.06.27.12.39.2.02.02.03.01.04-.01.12-.45.15-.88.07-1.3a9.6 9.6 0 0 0-.1-.5c0-.02-.02-.03-.04-.03l-.67-.01a.12.12 0 0 0-.1.05l-.54.77a.09.09 0 0 0 0 .08v.05c.05.14.1.24.18.28l.5.3.24.11Zm1.03-.91.01-.01h.04c.05.02.06.05.05.09v.03c-.01.04-.04.06-.08.05l-.04-.02-.02-.01.04-.13Zm-.11.67.17-.24c.03-.04.02-.06-.03-.06l-.28-.02c-.03 0-.04 0-.04.03v.21c0 .02 0 .03.02.04l.11.05.05-.01Zm-.25.2c0-.02.02-.03.05-.02l.48.12c.02 0 .03.02.03.04v.47c0 .03-.02.04-.04.02-.05-.04-.16-.07-.32-.07h-.08a.4.4 0 0 1-.25-.12.04.04 0 0 1-.01-.05l.14-.39Zm1.07.05c-.1-.07-.18-.06-.23.02 0 .02-.02.02-.05 0a.07.07 0 0 0-.05 0c-.04 0-.04.02-.01.04l.2.17c.03.01.04 0 .05-.01L14 10c.01-.02 0-.04-.01-.05Zm.06.6a.1.1 0 0 1-.01-.04c0-.02 0-.04.02-.04s.03 0 .04.02v.06c-.02.02-.04.02-.05 0Zm-2.47 0 .28.33h.01l.51.11c.04 0 .04 0 .02-.03l-.46-.41-.35-.02c-.02 0-.02 0 0 .02Zm1.92.4-.14-.26c0-.01 0-.02.02-.02l.33-.09.02.01.29.63c0 .03 0 .04-.03.02l-.48-.28Zm.8-.14-.01.02a.11.11 0 0 1-.04.04h-.03c-.02.02-.02.03 0 .05l.06.05h.04c.05-.04.07-.09.06-.14a.06.06 0 0 0-.04-.04c-.02-.01-.04 0-.04.02Zm-4.51.47-.15-.01c-.01 0-.02-.01-.02-.03l-.02-.12.01-.03.21-.12c.04-.02.05-.01.04.03l-.04.25c0 .02-.01.03-.03.03Zm2.48-.05.08.1.21.09c.04.01.05 0 .02-.03l-.12-.14-.18-.05c-.03 0-.03 0-.01.03Zm-3.9.77c-.06 0-.06-.01-.02-.04l.58-.42h.02a27.47 27.47 0 0 1 .42.22c-.32.13-.65.21-1 .24Zm2.62-.1.07.13v.04c-.02.02-.01.04.03.06l.5.1c.02 0 .03 0 .02-.03l-.03-.05a.64.64 0 0 1-.08-.22c0-.11-.07-.16-.18-.13l-.31.07c-.02 0-.03.02-.02.04Zm.83-.08c.2.07.49.22.84.44l.04.05.06.27c0 .02 0 .03-.02.03-.2-.03-.4-.04-.59-.04a.2.2 0 0 1-.14-.05.7.7 0 0 1-.22-.68c0-.02.01-.03.03-.02Zm-.96.33c-.03.02-.07-.01-.1-.06-.02-.05-.01-.1.01-.11.03-.02.08 0 .1.06.03.05.02.1 0 .11Zm.84.6-.18-.26c-.01-.02 0-.04.02-.04l.2-.06.03.01.2.3c.02.04.01.05-.02.05l-.22.02-.03-.01Zm1.1.21-.14-.24c-.04-.05-.07-.05-.1 0-.05.07-.06.14-.02.18.02.04.08.06.18.07l.07.02c.03 0 .03 0 .02-.03Z" fill="#EDEDED"/><defs><linearGradient id="ahb2phgez" x1="3.35" y1="3.12" x2="21.9" y2="24.43" gradientUnits="userSpaceOnUse"><stop stop-color="#1A1E21"/><stop offset="1" stop-color="#06060A"/></linearGradient></defs></svg>