<!-- by TradingView --><svg width="18" height="18" viewBox="0 0 18 18" xmlns="http://www.w3.org/2000/svg"><path fill="url(#a)" d="M0 0h18v18H0z"/><path d="m7.4 0 .58 6.73h2.14L10.6 0H7.39ZM.04 1.89 5.2 6.54l1.16-1.5L3 .29H.05v1.6Zm17.95 0-5.16 4.65-1.16-1.5L15.05.29H18v1.6ZM5.21 11.66.05 16.32v1.6H3l3.37-4.75-1.16-1.5ZM18 16.32l-5.16-4.66-1.16 1.5 3.37 4.76H18v-1.6ZM4.81 7.94 0 7.4v3.22l4.81-.91V7.94ZM18 7.4l-4.81.55V9.7l4.8.9V7.4ZM7.98 12.03 7.4 18h3.22l-.5-5.97H7.99Z" fill="url(#b)"/><path d="m10.04 3.3.05.2c0 .03.02.04.05.02a.48.48 0 0 0 .18-.23l.01-.02h.02l.05.01.01.03a1.55 1.55 0 0 0 .03.2l.02.01a.06.06 0 0 0 .06 0l.16-.1c.1-.05.14-.02.12.08v.02c-.01.04 0 .07.05.07l.07.01c.03.01.04.03.03.06l-.03.07v.02c.01.03.03.03.06.03.02 0 .03-.02.04-.03a.52.52 0 0 1 .23-.17c.1-.03.12 0 .06.07l-.15.18a.04.04 0 0 0 0 .04l.02.02h.02l.49-.08a.04.04 0 0 1 .03.01l.01.02v.02l-.03.23v.04l.05.03.29.04c.03 0 .04.02.01.04l-.15.12c-.02.03-.02.05 0 .06l.02.02a.8.8 0 0 1 .38.07.97.97 0 0 0-.27.09c-.07.04-.07.06.02.07l.34.01c.1 0 .12.03.02.08l-.2.1c-.07.05-.06.07.02.06.14 0 .31.02.5.07.03 0 .05.02.05.05 0 .06-.01.1-.03.1-.1.07-.09.1.03.1.09 0 .2.02.31.05.09.02.1.06.02.1l-.3.17c-.1.06-.09.09.03.09.18 0 .31.02.38.03.1.01.1.04 0 .07l-.3.11c-.02.01-.02.03 0 .05l.04.02c.12 0 .18.04.19.12 0 .03.01.05.04.06.07.03.13.04.21.04.05.07-.03.14-.22.21l-.02.01v.04l.01.02c.13.07.24.1.32.11.17.02.18.07.02.14a.49.49 0 0 1-.14.03c-.1 0-.1.03-.02.08l.2.1c.03.01.03.03 0 .05a.19.19 0 0 1-.05.02.15.15 0 0 0-.05.01c-.03.02-.02.04.03.05l.24.06c.04.02.04.03 0 .05l-.22.08-.02.02v.03l.01.01.36.2c.04.01.03.02 0 .03l-.26.02c-.11.01-.12.04-.02.1l.16.08c.03.02.03.03 0 .05l-.1.03-.02.02v.02c-.01.02 0 .04.02.04.14.06.23.14.27.24a.41.41 0 0 0-.24.11c-.02.03-.02.05.02.06l.1.03c.05.02.06.04 0 .06l-.16.08-.02.01a.03.03 0 0 0 0 .04l.02.01.34.15c.06.03.05.04 0 .05-.1 0-.18 0-.24-.03-.13-.05-.15-.02-.07.08l.23.26.01.03v.03l-.02.02-.03.01h-.17c-.08 0-.1.03-.03.07.08.06.19.11.32.17l.01.02v.02l-.01.01h-.29c-.02 0-.03.01-.02.03l.26.4-.22.07c-.02 0-.03.02-.01.04l.12.14c.04.04.03.05-.03.05l-.23-.03-.26-.07a.03.03 0 0 0-.03 0l-.02.03v.02l.01.03c.13.1.29.18.46.22l.13.2c.02.03 0 .04-.02.03l-.17-.05a.1.1 0 0 0-.07 0 .07.07 0 0 0-.04.08l.01.04a.5.5 0 0 0 .18.1c.03.02.04.03 0 .05h-.12l-.02.01v.03l.16.38v.02l-.01.01h-.18c-.04 0-.06.03-.04.06l.06.15c.02.03 0 .06-.03.07l-.1.04c-.02 0-.04.02-.03.05l.03.34c0 .03-.02.04-.06.04a.12.12 0 0 1-.05-.03.47.47 0 0 0-.1-.07c-.03-.01-.04 0-.04.03v.3a.1.1 0 0 1-.04.07c-.08.08-.12.2-.1.35v.04l-.03.07-.02.01a.04.04 0 0 1-.05 0v-.13l-.02-.03h-.02l-.04-.01c-.03 0-.05 0-.06.04l-.06.37c0 .03-.03.04-.05.02a.19.19 0 0 1-.11-.11c-.03-.08-.06-.08-.07 0a.9.9 0 0 1-.25.48.5.5 0 0 0-.32.23l-.03.03a.07.07 0 0 1-.07 0 .06.06 0 0 1-.03-.03l-.04-.1c0-.02-.02-.03-.04 0a.35.35 0 0 0-.09.14c0 .03-.02.05-.05.07a.17.17 0 0 1-.09.04.48.48 0 0 0-.34.2c-.02-.02-.03-.03-.02-.05.27-.28.44-.61.5-1 0-.03.02-.04.05-.04l.1-.01c.02-.02.03-.04 0-.07l-.07-.11a.1.1 0 0 1-.01-.06.93.93 0 0 0-.06-.36c0-.1-.02-.18-.04-.27-.02-.15.02-.25.13-.3.02-.01.03-.02.03-.04v-.04l-.15-.34a.11.11 0 0 1 0-.07l-.01-.05h-.08c-.26.06-.43.23-.66.3l-.33.11c-.09.02-.15 0-.18-.08a.1.1 0 0 0-.07-.06l-.22-.07c-.04 0-.05-.03-.04-.06v-.05l.3-.17-.11.2a.04.04 0 0 0 0 .04l.03.01h.02l.06-.02a.13.13 0 0 0 .07-.05.13.13 0 0 1 .05-.05c.03-.02.04-.01.03.02l-.01.13.24.03c.1 0 .16 0 .2-.03.16-.08.25-.17.29-.27a.1.1 0 0 1 .06-.06c.17-.07.27-.12.3-.12.13-.04.22-.1.27-.17.1-.15.15-.24.15-.29 0-.12.06-.2.19-.23l.03-.01.02-.03a.06.06 0 0 0-.02-.06l-.31-.3c-.03-.07 0-.12.09-.13.1-.02.1-.05 0-.09l-.27-.1c-.03 0-.04-.02-.01-.05.03-.03.07-.04.12-.04.06 0 .1 0 .13-.02.05-.02.05-.03 0-.04a.85.85 0 0 1-.27-.08.1.1 0 0 0-.08 0c-.56.18-1.13.34-1.7.49-.09.02-.12.01-.19.01a.1.1 0 0 0-.07.04c-.28.34-.62.4-1 .19-.18-.1-.2-.25-.42-.3l-.8-.18c-.37-.08-.78-.25-1.2-.36H6.2l-.01.03c-.02.02 0 .03.02.03.04 0 .08.02.11.05l.01.01a.03.03 0 0 1 0 .03l-.01.01-.07.04c-.03 0-.02.01 0 .01h.03c.04 0 .04.02.02.05-.07.09-.2.04-.25.16a.15.15 0 0 1-.04.06l-.07.05c-.03.02-.02.04.02.04h.15l-.16.26a.25.25 0 0 0-.01.24c.16.35.17.62.66.73.03 0 .05.02.07.04.1.1.24.3.4.37.18.08.37.09.57.03l-.2-.2c-.02-.02-.02-.03.02-.04.1 0 .17.05.21.15l.02.01.02.01a.05.05 0 0 0 .04-.01l.04-.04v-.04a.7.7 0 0 1-.18-.23c-.02-.07.05-.09.2-.04v.02c-.03 0-.05.01-.06.04 0 .01 0 .03.02.05.04.04.1.07.16.07.03-.06.07-.08.11-.09.03 0 .05.02.05.04v.22a.77.77 0 0 0-.35.16c-.13.1-.19.1-.34.08a1.3 1.3 0 0 1-.58-.24 1.27 1.27 0 0 0-.34-.17.08.08 0 0 0-.06.01l-.02.03-.01.02a.8.8 0 0 1-.13.37c-.02.03-.02.06 0 .08l.07.08c.02.01.03.04.02.06l-.13.9c-.01.04 0 .06.05.05.07.07.11.13.12.17.06.3.18.55.37.79.02.02.01.03-.02.04-.1 0-.2 0-.28-.04-.05-.08-.12-.12-.22-.08a.31.31 0 0 1-.09.02.1.1 0 0 1-.04 0 .08.08 0 0 1-.03-.02.7.7 0 0 1-.12-.23.06.06 0 0 0-.02-.03.07.07 0 0 0-.07-.01.07.07 0 0 0-.03.02c-.03.04-.08.05-.14.02-.12-.17-.2-.34-.23-.5-.02-.08-.04-.08-.08-.01a.45.45 0 0 1-.1.12c-.02.03-.04.02-.05-.01l-.05-.34c0-.01 0-.03-.02-.04a.08.08 0 0 0-.05-.03c-.03 0-.05.01-.06.04l-.04.11c0 .03-.02.04-.05.02a.04.04 0 0 1-.02-.03l-.01-.3-.02-.04-.03-.01-.03-.01a.07.07 0 0 1-.05-.05 1.08 1.08 0 0 1-.01-.42c0-.06.04-.11.09-.15.03-.02.04-.02.05.01.1.26.24.48.45.66.11.1.16.07.15-.07-.04-.4-.17-.84-.11-1.27a23.24 23.24 0 0 1 .09-.64l-.03-.02c-.01 0-.02 0-.03.02-.08.19-.2.32-.36.4a.24.24 0 0 0-.07.05.22.22 0 0 0-.06.17c0 .03.02.06.03.08.09.16.15.31.17.46 0 .03 0 .04-.03.05h-.02a.05.05 0 0 1-.06-.02c-.1-.22-.34-.13-.5-.04l-.11-.06c-.02 0-.03-.02-.03-.04l.04-.21v-.02l-.02-.02h-.16a.06.06 0 0 1-.05-.03.05.05 0 0 1 0-.05l.16-.34c.02-.03 0-.05-.03-.05h-.1c-.06 0-.06-.01-.01-.04l.19-.08.02-.02.01-.03v-.03l-.02-.02c-.05-.04-.13-.04-.22-.01-.05.02-.07 0-.04-.04l.2-.31a.04.04 0 0 0 0-.04l-.02-.02h-.2l-.01-.02v-.03a.66.66 0 0 0 .18-.27c.01-.02 0-.04-.03-.05a.24.24 0 0 0-.16.02h-.02c-.02-.02-.02-.03-.01-.04l.22-.34a.02.02 0 0 0 0-.03h-.03a1.92 1.92 0 0 1-.29.02v-.04l.32-.17c.05-.02.05-.04-.01-.05l-.21-.03H4.1v-.02l-.01-.02v-.01l.26-.33c.03-.03.02-.05-.03-.05-.1.02-.2.02-.29.02-.05 0-.05-.02 0-.04l.37-.17.34-.16c.14-.08.13-.11-.03-.1a.67.67 0 0 1-.24-.06c-.02 0-.03-.02-.01-.04.06-.07.05-.16-.03-.25-.04-.06-.12-.08-.24-.08H4.2v-.03l.03-.02.3-.15c.04-.03.04-.05-.01-.06a.89.89 0 0 0-.36 0l-.02-.01v-.02l.36-.23.02-.02a.04.04 0 0 0 0-.04l-.03-.02a2.83 2.83 0 0 0-.12-.03c-.15-.03-.14-.06.02-.08l.19-.03c.04 0 .05-.02.02-.05-.02-.02-.03-.04-.05-.04-.1-.03-.1-.06 0-.1a.6.6 0 0 0 .17-.08c.04-.03.03-.04 0-.05a8.79 8.79 0 0 1-.32-.08c-.02-.02-.02-.03 0-.04l.48-.17.02-.02v-.04l-.03-.02-.27-.08c-.04-.01-.05-.04-.04-.07l.04-.04.3-.06c.03 0 .04-.02.03-.04l-.01-.03c-.01-.03 0-.05.02-.06l.14-.06c.07-.03.07-.06-.01-.08a5.33 5.33 0 0 1-.32-.08c-.13-.03-.12-.05 0-.06l.41-.02c.11-.01.12-.04.03-.1a1.38 1.38 0 0 0-.23-.12c-.1-.04-.1-.08 0-.1.25-.07.5-.1.53-.2.01-.03 0-.05-.03-.05l-.07-.03c-.11-.03-.11-.05 0-.06.12-.01.23-.03.33-.06.13-.04.14-.08.01-.13l-.15-.07-.01-.01V4.7h.01l.32-.03.02-.01.02-.03v-.02L5.9 4.6a.6.6 0 0 0-.23-.1.3.3 0 0 1 .24-.05c.16.03.2-.01.11-.14a.77.77 0 0 1-.07-.17c0-.03 0-.04.04-.05a1.04 1.04 0 0 1 .34.03l.02-.01.01-.02v-.02l-.03-.19c0-.03 0-.05.05-.04a1.02 1.02 0 0 0 .44 0h.01V3.8a.65.65 0 0 1-.12-.12c-.06-.1-.03-.13.07-.08.05.02.12.07.22.16.01.01.03.02.05.01l.02-.01v-.04l-.04-.07v-.03l.02-.01.01-.02h.12a.03.03 0 0 0 .02 0l.01-.01v-.14c-.01-.05 0-.06.05-.04l.2.11a.06.06 0 0 0 .08-.01l.01-.03.03-.16c0-.03.02-.04.05-.04a.1.1 0 0 1 .04.01l.04.04c.01.05.03.09.05.12.02.04.06.06.1.05.02 0 .04-.01.05-.04a.3.3 0 0 1 .04-.12l.18.06c.03.01.05 0 .04-.03l-.04-.2c0-.03 0-.05.04-.06.03 0 .06 0 .09.03a24.47 24.47 0 0 1 .2.19.1.1 0 0 0 .1-.02.1.1 0 0 0 .03-.03l.09-.19c.02-.04.04-.04.08-.01l.08.07c.02.02.04.02.07 0 .01 0 .03-.04.04-.1l.01-.02L9 3a.05.05 0 0 1 .04 0l.03.01.02.04.06.12.01.01a.04.04 0 0 0 .04 0l.1-.11.02-.01a.04.04 0 0 1 .04 0l.01.02.08.18c0 .01 0 .02.02.03l.04.01a.08.08 0 0 0 .07-.02l.17-.14c.08-.06.12-.04.1.04l-.02.15c0 .03 0 .05.04.05.05 0 .11-.03.18-.09Z" fill="#2C2623"/><path d="M7.67 5.11a.05.05 0 0 1 .01-.06h.02l.02-.02c.05-.01.1-.02.14 0 .04.01.08.04.1.08v.02l.01.06-.01.06a.18.18 0 0 1-.05.05.22.22 0 0 1-.06.03l-.02.01h-.04a.06.06 0 0 1-.04-.03l-.08-.2ZM10.34 5.53c-.01-.02.14-.21.28-.39a.12.12 0 0 1 .07-.04l.21-.06c.13-.03.14 0 .04.07l-.55.43a.03.03 0 0 1-.04 0h-.01Z" fill="#34202C"/><path d="M7 5.47c-.11.05-.28.1-.51.12-.07.01-.12.05-.13.12l-.05.05c-.03 0-.05 0-.06.03-.05.1-.09.22-.11.36l-.02.02-.02.02h-.03l-.03-.02C6 6.1 6 6.03 6.01 5.94c0-.12.03-.21.1-.29.25-.3.55-.36.9-.18Z" fill="#EBD7A2"/><path d="M12.06 5.84a.7.7 0 0 1-.06.26c-.01.03-.02.03-.04 0l-.13-.25c-.02-.11-.1-.19-.22-.22a.53.53 0 0 0-.3.01c-.28.1-.4.3-.36.63 0 .05.02.05.04.01.03-.06.09-.09.17-.1.04 0 .05.01.02.04l-.11.1a.12.12 0 0 0-.07.09 2.1 2.1 0 0 0-.64-.43.56.56 0 0 1 .31-.05c.03 0 .05 0 .07-.03.03-.04.06-.1.07-.17.37-.45.98-.44 1.25.11Z" fill="#D3C092"/><path d="M7.46 5.78c.12.2.29.34.5.45-.1 0-.2.03-.31.1-.2.12-.36.3-.46.53l-.33.64a.06.06 0 0 1-.05.04c-.27 0-.51.07-.73.19a.07.07 0 0 1-.02-.03l.17-.1c.12-.09.11-.13-.04-.12h-.1a1.39 1.39 0 0 1 .47-.5.05.05 0 0 0 0-.05l-.03-.02c-.16-.09-.3-.2-.43-.34-.18-.2-.1-.33-.14-.58 0-.03.01-.05.05-.05-.02.1-.01.17.03.23l.03.01a.06.06 0 0 0 .05 0l.02-.03c.02-.14.06-.26.11-.36.01-.02.03-.03.06-.03l-.04.4a1.31 1.31 0 0 0 .36.6.4.4 0 0 0 .21.1c.03 0 .04-.01.04-.04v-.1c.02-.02.02-.05.01-.06a.26.26 0 0 0-.1-.07c-.03-.02-.04-.04-.02-.06.02-.03.05-.04.09-.03h.02l.01-.02a.03.03 0 0 0 0-.04l-.08-.09a.01.01 0 0 1 0-.02l.1-.03c.02-.01.03-.03 0-.05l-.05-.07c-.03-.03-.02-.05.03-.05.04 0 .1.03.16.08.02.02.04.02.07 0 .02-.02.03-.04.02-.07-.05-.2-.16-.43-.4-.49a.56.56 0 0 0-.38.06c.01-.07.06-.1.13-.12.22-.03.4-.07.52-.12.1.13.26.23.45.31Z" fill="#9B8565"/><path d="M9.26 5.84c-.03.08-.07.14-.11.2l-.02.01a.04.04 0 0 1-.04 0l-.01-.02a.34.34 0 0 1 0-.26c.04-.07.1-.13.2-.18a.04.04 0 0 1 .05 0v.04c0 .07-.03.14-.07.21Z" fill="#34202C"/><path d="M10.81 5.73a.38.38 0 0 1-.07.17.07.07 0 0 1-.07.03.56.56 0 0 0-.31.05c-.3.16-.55.22-.8.52l-.35.32a1.2 1.2 0 0 1-.47-.25c-.15-.12-.26-.2-.35-.23a1.67 1.67 0 0 0-.42-.11c-.22-.1-.39-.25-.5-.45.24.13.49.24.74.33a.9.9 0 0 1 .27.14 135.34 135.34 0 0 1 .31.23c.09.02.15.06.18.12l.03.03h.04c.03 0 .05 0 .06-.03a.1.1 0 0 1 .06-.05.57.57 0 0 0 .31-.25.11.11 0 0 1 .07-.05c.15-.05.29-.13.41-.23l.1-.05a.9.9 0 0 1 .07 0c.03 0 .05 0 .08-.02.2-.13.4-.2.61-.22Z" fill="#8F7856"/><path d="M11.53 7.09c-.04-.02-.07-.02-.1 0l-.21.12h-.03l-.02-.01v-.03l.06-.06c.02-.02.01-.04 0-.06A.27.27 0 0 0 11.1 7c-.03 0-.04-.03-.03-.06 0-.02.02-.03.06-.05-.02.01-.02.03-.01.04l.03.02h.03c.09-.04.27-.13.33-.22.08-.14.21-.22.26-.38.04-.15.06-.32.05-.5l.13.25c.02.03.03.03.04 0a.7.7 0 0 0 .07-.26c.1.44-.04.8-.42 1.05a.1.1 0 0 0-.04.06.24.24 0 0 1-.08.14Z" fill="#B39C6F"/><path d="M11 6.4c.01.04.03.05.05.05.03 0 .04-.01.05-.04.05-.02.1-.02.13-.01.03 0 .03.02 0 .04a.47.47 0 0 0-.15.1c-.02.04-.01.06 0 .07.03.02.04.02.06 0a.16.16 0 0 1 .12-.01c.03 0 .04.02.01.05a.5.5 0 0 0-.13.24c-.04.02-.06.03-.06.05-.01.03 0 .05.03.06.05.01.09.03.11.05.02.02.02.04 0 .06l-.05.06v.03l.02.01h.03l.2-.12c.13.2.24.4.33.62.06.16.18.29.3.41.03.05.03.06-.03.04l-.8-.21-.05.01V8l.03.03.22.13.02.03v.03c-.02.02-.04.03-.07.03l-.46-.13a.93.93 0 0 0 0-.33 1.08 1.08 0 0 1-.04-.45c0-.02 0-.05-.02-.07a.83.83 0 0 0-.21-.26c.03-.63-.56-.78-1.08-.5.25-.3.5-.36.8-.52.24.1.46.25.64.43Z" fill="#EBD7A2"/><path d="M7.97 6.23c.15.02.29.05.42.1.08.04.2.12.35.24.16.13.32.22.47.25-.06.18-.2.14-.4-.12-.36-.17-.75-.3-1.16-.38.1-.06.21-.09.32-.1Z" fill="#D3C092"/><path d="M10.64 7c-.43-.35-.89.54-.99.84-.2.31-.39.51-.7.59l-.11-.01a.15.15 0 0 1-.08-.07l-.4-.83a3.16 3.16 0 0 1-.16-.94c0-.03.01-.04.04-.03l.57.15c.21.26.34.3.4.12l.35-.32c.52-.28 1.1-.13 1.08.5Z" fill="#F9F6CB"/><path d="M7.65 6.33c.41.08.8.2 1.16.37l-.57-.15c-.03 0-.04 0-.04.03.04.5.09.82.15.94.13.24.27.52.41.83.02.03.04.06.08.07.03.01.07.02.1.01.32-.08.5-.27.71-.59-.04.26-.12.5-.25.74a.96.96 0 0 0-.8 0 2.97 2.97 0 0 0-.63-1.5c-.15-.18-.3-.22-.46-.12-.1.06-.1.1.03.08.18 0 .25.08.23.26-.13-.07-.27-.02-.39.15-.21-.02-.28-.22-.2-.59.11-.23.27-.41.47-.53Z" fill="#EBD7A2"/><path d="M7.19 6.86c-.09.37-.02.57.19.59-.16.21-.18.42-.06.62l-.4-.02a.3.3 0 0 0-.1 0c-.04 0-.05 0-.04-.04V8a.03.03 0 0 0 0-.03h-.03l-.91.18c-.11.02-.18.08-.26.15a.28.28 0 0 0-.12-.03l-.04-.01v-.03c0-.01 0-.02.02-.03.1-.03.16-.07.15-.11.22 0 .44-.06.65-.16.03 0 .04-.03.02-.05a.28.28 0 0 0-.18-.13v-.01c.22-.12.46-.18.73-.2.02 0 .04 0 .06-.03l.32-.64Z" fill="#D3C092"/><path d="m8.6 8.59-.17.28c-.02.01-.03.06-.02.15a.36.36 0 0 1-.01-.23V8.7a1.03 1.03 0 0 0-.08-.25c-.06-.1-.13-.11-.22-.05a.07.07 0 0 1-.07 0l-.02-.01-.02-.03a.48.48 0 0 0-.1-.18l.06-.02A.07.07 0 0 0 8 8.1c.02-.32.06-.62-.22-.81.02-.18-.05-.27-.23-.26-.13.01-.14-.02-.03-.08.16-.1.31-.06.46.13.34.43.55.93.63 1.5ZM10.64 7c.09.07.16.16.21.26.02.02.02.05.02.07-.02.12 0 .27.05.45.01.06.01.17-.01.33-.15 0-.24.05-.27.16a.1.1 0 0 1-.04.06.94.94 0 0 0-.28.29.12.12 0 0 1-.04.03.13.13 0 0 1-.15-.02l-.16-.18a.1.1 0 0 0-.08-.03.1.1 0 0 0-.07.02.3.3 0 0 0-.1.3c.02.12 0 .25-.08.38a.06.06 0 0 0 0 .07l.04.02h.04c.11-.03.22-.09.32-.18a.07.07 0 0 0 .02-.06c-.01-.1.06-.2.23-.27-.14.37-.4.57-.75.6-.16.02-.17-.01-.04-.1.2-.12.23-.28.1-.47a.38.38 0 0 0-.2-.15c.13-.24.21-.48.25-.74.1-.3.56-1.19.99-.84Z" fill="#C8AC7C"/><path d="M11.53 7.09c.09 0 .16.03.23.07v.02h-.04l-.02.01v.01a.03.03 0 0 0 0 .04l.22.16a.1.1 0 0 1 .03.06v.03l.04.02c.07 0 .14.02.2.04s.06.03 0 .04H12c-.05 0-.05.02 0 .04l.27.16c.04.02.03.04-.01.04l-.06.01c-.06.01-.06.03-.02.06l.32.2c.08.04.07.06-.03.05l-.03.03c-.03.02-.02.04 0 .05l.11.06c0 .05.03.08.09.1h.01v.04l-.01.01-.01.01c-.33.1-.58-.02-.91.02a.07.07 0 0 0-.06.04l-.15.34c-.35.25-.76.46-1.22.65-.14.02-.28.06-.42.12-.06.03-.07.02-.04-.04l.05-.05c.33-.13.52-.35.57-.67 0-.03.02-.04.05-.05.14 0 .28 0 .42.02.03 0 .06 0 .1-.03.02-.02.01-.03-.02-.03l-.71-.07c-.17.08-.24.16-.23.27 0 .02 0 .04-.02.06a.84.84 0 0 1-.32.18h-.04a.07.07 0 0 1-.03-.02.06.06 0 0 1 0-.07c.06-.13.09-.26.06-.39a.3.3 0 0 1 .1-.29.1.1 0 0 1 .15 0l.17.19.04.03a.13.13 0 0 0 .11 0 .12.12 0 0 0 .04-.05c.07-.1.16-.2.28-.28a.1.1 0 0 0 .04-.06c.03-.1.12-.16.27-.16l.46.13c.03 0 .05 0 .06-.03v-.03l-.01-.03a2 2 0 0 0-.22-.13l-.03-.03v-.03c.01-.01.02-.02.04-.01l.8.21c.07.02.07 0 .04-.04-.12-.12-.24-.25-.3-.4-.1-.23-.2-.43-.33-.63.03-.02.07-.02.11 0Z" fill="#F9F6CB"/><path d="M10.8 7.86c-.02.06-.01.13-.03.2 0 .02-.02.04-.05.05-.14.06-.31.09-.5.1-.03 0-.05-.02-.05-.04-.05-.33-.09-.7.2-.87.12-.07.22 0 .3.1.15.14.19.3.13.46Z" fill="#1E1417"/><path d="M7.66 7.6c.04.05.1.05.14.02.04-.04.03-.1-.01-.14-.04-.04-.1-.04-.14 0-.04.03-.04.09 0 .13ZM10.54 7.6c.05.03.11.03.13 0 .02-.03 0-.09-.06-.12-.05-.03-.11-.03-.13 0-.03.04 0 .09.06.12Z" fill="#F9F6CB"/><path d="M6.1 7.48h.09c.15 0 .17.03.04.11l-.17.11a.58.58 0 0 1-.25.03c-.03 0-.03-.01-.01-.03l.3-.22Z" fill="#EBD7A2"/><path d="M12.98 7.91c.06.08.14.12.18.1.05-.04.04-.12-.02-.2-.05-.08-.14-.12-.18-.1-.05.04-.04.12.02.2Z" fill="#34202C"/><path d="M6.08 7.74c.08.02.15.06.18.13.02.02.01.04-.02.05-.21.1-.43.15-.65.16l.49-.34Z" fill="#EBD7A2"/><path d="M4.41 8.46a.54.54 0 0 0-.22-.1c-.04-.02-.04-.03 0-.05l.14-.07.01-.01V8.2a.62.62 0 0 0-.27-.1c.05-.1.18-.19.37-.25.08.1.1.18.03.25-.02.02-.01.03.01.04.1.04.18.05.24.05.16 0 .17.03.03.1l-.34.17Z" fill="#34202C"/><path d="M6.92 8.05c-.22.06-.34.22-.34.46-.05-.04-.05-.1 0-.19v-.08l-.01-.02-.02-.01h-.02l-.02.02a.41.41 0 0 0-.07.2v.02l-.02.02a.06.06 0 0 1-.05.01 1.43 1.43 0 0 0-.87.01H5.3c-.04 0-.04 0-.01-.03a.94.94 0 0 1 .28-.17c.08-.07.15-.13.26-.15a14.18 14.18 0 0 0 .94-.18v.05c-.01.03 0 .05.03.04a.3.3 0 0 1 .11 0Z" fill="#EBD7A2"/><path d="M7.32 8.07c.19.08.38.13.58.12.04.06.07.11.09.18 0 .01 0 .02.02.03l.02.01a.07.07 0 0 0 .07 0c.09-.06.16-.05.22.05.02.03.05.12.08.25v.08a.36.36 0 0 0 0 .23c.11.11.05.15-.17.1h-.01l-.3-.24a.19.19 0 0 0-.08-.04c-.35-.07-.79.2-1.14-.1l-.12-.23c0-.24.12-.4.34-.46l.4.02Z" fill="#F9F6CB"/><path d="m6.58 8.51.13.23a.26.26 0 0 1-.18-.2c0-.02 0-.03-.02-.03L6.5 8.5c-.03 0-.04 0-.05.03-.02.08-.06.13-.12.14a1.92 1.92 0 0 0-.68-.11c-.03 0-.06-.02-.08-.06H5.5a1.43 1.43 0 0 1 .9-.02h.02l.02-.02v-.03c0-.06.03-.12.07-.2l.02-.02a.04.04 0 0 1 .04 0v.03l.02.05v.03c-.05.08-.06.15-.01.2Z" fill="#C8AC7C"/><path d="M11.01 8.22c.06 0 .13.01.19.04.06.02.06.04 0 .05a6.02 6.02 0 0 1-.36.02c-.06-.01-.07-.03 0-.06a.43.43 0 0 1 .17-.05Z" fill="#D3C092"/><path d="M12.53 8.6c-.15.03-.3.05-.46.06a.9.9 0 0 0-.29.07l-.26.12.14-.34.02-.03.04-.01c.33-.04.58.08.91-.02h.01v-.02l.01-.03a.02.02 0 0 0-.01-.02c-.06-.01-.1-.04-.09-.09.1.03.17.1.22.2.01.02 0 .03-.03.04a.65.65 0 0 0-.2.08Z" fill="#EBD7A2"/><path d="M6.32 8.67c.22.22.4.36.54.42l.91.37c-.64-.14-1.27-.35-1.88-.62.18-.06.11-.1-.2-.12 0-.05-.06-.07-.23-.07-.03 0-.04-.02-.02-.05a.36.36 0 0 1 .11-.1c.03.04.06.06.1.06.22 0 .45.03.67.11Z" fill="#87633E"/><path d="M6.7 8.74c.36.3.8.03 1.14.1l.07.04.31.24c.24.05.3.01.19-.1 0-.09 0-.14.02-.15.01.24.2.4.54.45.14.03.24-.04.36-.07.1-.03.17-.08.22-.15.07-.1.09-.22.05-.37.14.2.1.35-.1.48-.13.08-.12.11.04.1.36-.04.6-.24.75-.6l.7.06c.04 0 .05.01.02.04-.03.02-.06.03-.09.02a1.53 1.53 0 0 0-.42-.02c-.03 0-.05.02-.05.05-.05.32-.24.54-.57.67a3.39 3.39 0 0 0 .22-.33l-.01-.03h-.05c-.22.24-.67.44-.98.24a.07.07 0 0 0-.07 0c-.3.17-.66.03-.88-.19-.12-.18-.22-.28-.33-.3-.18-.03-.21.03-.1.19.08.11.16.21.26.29.02.01.02.03.02.05-.01.02-.04.03-.1.04a53.12 53.12 0 0 1-1-.4c-.14-.06-.32-.2-.54-.41.06-.02.1-.07.12-.15 0-.03.02-.04.05-.03h.02l.02.03c.02.1.08.17.18.2Z" fill="#9B8565"/><path d="M9.4 8.58c.09.03.15.08.2.14.04.16.02.28-.05.38a.38.38 0 0 1-.22.14c-.12.04-.22.1-.36.08-.35-.06-.53-.21-.54-.45l.17-.28a.97.97 0 0 1 .8-.01Z" fill="#34202C"/><path d="m12.53 8.61.02.07c.01.03 0 .05-.04.05s-.05.04-.03.1a.04.04 0 0 1 0 .02l-.02.02h-.01c-.11.03-.28.04-.42.09-.57.2-1.15.38-1.74.54.46-.19.87-.4 1.22-.65l.27-.12a.9.9 0 0 1 .29-.07c.16 0 .31-.03.46-.05Z" fill="#87633E"/><path d="M9.03 8.76c.17 0 .31-.03.31-.06s-.14-.06-.3-.05c-.18 0-.32.02-.32.05 0 .04.14.06.31.06Z" fill="#EBD7A2"/><path d="M5.68 8.72c.32.02.4.06.2.12l-.33-.06c-.02 0-.03-.01 0-.03.01-.02.06-.03.13-.03Z" fill="#C8AC7C"/><path d="M13.04 9.36a2.09 2.09 0 0 1-.1-.46c0-.12.02-.12.07-.02l.25.51a.04.04 0 0 1 0 .04l-.02.02h-.03c-.11.01-.27.03-.38-.07a7.86 7.86 0 0 1-.37-.36l.02-.02.01-.01a.04.04 0 0 1 .04 0l.48.39c.03.02.04.01.03-.02Z" fill="#34202C"/><path d="M8.1 9.22h-.08L8 9.26v.02l.01.02c.13.11.29.2.48.25l-.03.01c-.02 0-.03.01-.04.03v.04l-.55-.13c.05 0 .08-.02.08-.04.01-.02 0-.04-.01-.05-.1-.08-.19-.18-.26-.3-.11-.15-.08-.2.1-.18.1.02.21.12.33.3Z" fill="#87633E"/><path d="m11.9 9.8-.12-.14a.07.07 0 0 0-.07-.03c-.26.05-.5.14-.72.27-.1.06-.12.04-.07-.06l.12-.22c.04-.05.03-.07-.04-.06l-.53.15a2.8 2.8 0 0 0-.46.26c-.18.12-.37.21-.58.28a1.48 1.48 0 0 0-.36.42.07.07 0 0 1-.08 0c-.22-.22-.54-.32-.72-.48-.2-.17-.37-.31-.55-.43-.02-.02-.05-.02-.07 0-.16.17-.27.37-.35.6l-.15-.23a.86.86 0 0 0-.2-.21 1.07 1.07 0 0 0-.34-.18c-.03-.1-.15-.13-.36-.12-.08 0-.12.04-.13.09h-.15c-.04 0-.05-.02-.02-.04l.07-.05a.15.15 0 0 0 .04-.06c.06-.12.18-.07.25-.16.02-.03.02-.05-.02-.05h-.03c-.02 0-.03 0 0-.01l.07-.04h.01a.03.03 0 0 0 0-.04v-.01a.22.22 0 0 0-.12-.04c-.03 0-.04-.02-.02-.04l.01-.02h.02c.42.1.83.27 1.2.35l.8.18c.22.05.24.2.41.3.4.21.73.15 1-.19a.1.1 0 0 1 .08-.04l.18-.01c.58-.15 1.15-.31 1.7-.5a.1.1 0 0 1 .09 0c.1.05.19.08.27.1.05 0 .05.01 0 .03a.36.36 0 0 1-.13.02c-.05 0-.1.01-.12.04-.03.03-.02.05.01.06l.27.1c.1.03.1.06 0 .08-.09.01-.12.06-.1.13Z" fill="#735536"/><path d="M8.42 9.62v-.04c0-.01.02-.03.04-.03h.03l.16.08c.1.1.23.14.38.15.17.01.3-.08.45-.16.04-.06.1-.09.15-.09h.02l.02.02a.04.04 0 0 1 0 .04c-.2.36-.52.47-.96.3a.34.34 0 0 1-.21-.2.08.08 0 0 0-.05-.06l-.03-.01Z" fill="#EBD7A2"/><path d="m11.9 9.8.3.3c.02 0 .02.02.03.03v.03l-.02.03-.03.01c-.13.03-.19.1-.19.23 0 .05-.05.14-.15.3-.05.07-.14.12-.27.16-.03 0-.13.05-.3.12a.1.1 0 0 0-.06.06c-.04.1-.13.19-.29.27-.04.03-.1.03-.2.03l-.24-.03.19-.07.08-.02c.11 0 .2-.05.27-.12l.1-.09a.1.1 0 0 0 .03-.07c0-.08.04-.15.12-.2.15-.09.29-.2.39-.36.2-.3.01-.44-.27-.53l.3-.11c.03-.02.03-.03 0-.05a.12.12 0 0 0-.07-.01.96.96 0 0 0-.57.23c-.13.11-.24.32-.38.47-.42 0-.91.22-1.26.39-.2.1-.37.26-.53.51-.01.03-.03.03-.05 0l-.25-.29a.24.24 0 0 0-.18.02h-.05l-.05-.05c-.09-.08-.12-.06-.1.05 0 .13.04.24-.04.37s-.2.24-.33.34a.9.9 0 0 1 .24-.3c.02-.03.04-.08.04-.15l.04-.44c0-.02.02-.04.04-.05.28-.1.56-.12.84-.05.03 0 .05 0 .07-.03l.33-.48c.2-.07.4-.16.58-.28.23-.15.38-.24.46-.26l.53-.15c.07-.01.08 0 .04.06-.05.08-.1.16-.12.22-.05.1-.02.12.07.06.22-.13.46-.22.72-.27.03 0 .05 0 .07.03l.12.14Z" fill="#AB8D5F"/><path d="M9.48 9.63c-.15.07-.28.16-.45.15a.63.63 0 0 1-.39-.15c.25-.05.43-.05.55-.03.14.03.23.03.29.03Z" fill="#C21910"/><path d="M6.61 9.74c-.13-.03-.21-.03-.24 0-.02.01-.02.03.01.03l.26.07c-.09 0-.14.03-.15.05-.22.06-.3.19-.24.38.03.12.14.26.32.42l.31.3c.11.12.2.2.27.24.06.04.23.09.5.15a.8.8 0 0 1-.56-.03c-.17-.08-.3-.26-.41-.37a.14.14 0 0 0-.07-.04c-.49-.11-.5-.38-.66-.74a.25.25 0 0 1 .01-.23l.16-.26c0-.05.05-.08.13-.09.21-.01.33.02.36.12Z" fill="#AB8D5F"/><path d="M11.4 9.88a.5.5 0 0 0-.42.33.61.61 0 0 1-.32.36 5 5 0 0 0-.5.29c-.03.05-.01.07.05.07.12 0 .19.02.2.07a.64.64 0 0 0-.27 0l-.03.03a.07.07 0 0 0-.02.03.16.16 0 0 1-.08.08c-.03.02-.05.01-.06-.02l-.01-.08v-.03l.03-.01.08-.01.01-.01v-.04a.03.03 0 0 0-.02-.01c-.07 0-.1-.01-.1-.05l.73-.47c.14-.15.25-.36.38-.47a.96.96 0 0 1 .57-.23l.07.01c.03.02.03.03 0 .04l-.3.12ZM6.61 9.74c.12.03.23.1.35.18.06.05.13.12.19.2l.15.25c.12.08.24.16.38.23s.27.19.38.28c.01.02.01.03-.01.04l-.13.04c-.02.01-.03 0-.03-.01l-.03-.11-.47-.27a.75.75 0 0 1-.25-.2c-.15-.2-.22-.43-.5-.53l-.26-.07c-.03 0-.03-.02-.01-.04.03-.02.1-.02.24 0Z" fill="#34202C"/><path d="m9.43 10.25-.33.48c-.02.03-.04.03-.07.03a1.37 1.37 0 0 0-.84.05c-.02 0-.03.03-.04.05l-.04.44-.01-.22c0-.03-.02-.04-.05-.04-.04 0-.08.03-.1.09 0-.07-.04-.13-.12-.16v-.02c.02-.02.03-.06.03-.11l.03.11c0 .02.01.02.03.01l.13-.04c.02-.01.02-.02 0-.04-.1-.1-.23-.21-.37-.28a2.16 2.16 0 0 1-.38-.23c.08-.24.2-.44.35-.6.02-.03.05-.03.07-.01.18.12.36.26.55.43.18.16.5.26.72.47l.03.02a.07.07 0 0 0 .05 0l.02-.03c.08-.13.19-.27.34-.4Z" fill="#8F7856"/><path d="M6.65 9.84c.27.1.34.33.49.53.06.07.14.14.25.2l.48.27c0 .05-.02.09-.04.1-.16-.04-.23-.02-.2.05-.2-.18-.4-.38-.57-.58a2.45 2.45 0 0 1-.17-.28.43.43 0 0 0-.4-.24c.01-.02.06-.04.16-.05ZM11.4 9.88c.27.1.46.23.26.53-.1.15-.24.27-.4.36a.23.23 0 0 0-.11.2.1.1 0 0 1-.04.07l-.1.09-.7-.38.35-.18c.17-.1.26-.2.32-.36.08-.2.2-.3.41-.33Z" fill="#EBD7A2"/><path d="M6.5 9.9c.17 0 .3.07.4.23l.16.28c.18.2.37.4.56.58.04.08.1.16.17.23l.01.02v.02l-.04.04-.02.01a.05.05 0 0 1-.04 0l-.02-.02c-.04-.1-.11-.15-.21-.15-.04 0-.04.02-.02.04l.2.2a2.62 2.62 0 0 1-.5-.15 1.24 1.24 0 0 1-.27-.24 5.35 5.35 0 0 0-.3-.3c-.19-.16-.3-.3-.33-.42-.06-.2.02-.32.24-.38Z" fill="#F9F6CB"/><path d="M13.53 10.09c.04.08.1.15.17.23a1.13 1.13 0 0 1-.46-.23l-.01-.02v-.03l.02-.02a.03.03 0 0 1 .03 0l.25.07Z" fill="#34202C"/><path d="m10.67 10.41-.73.47c-.03 0-.05.03-.05.1-.17.12-.3.26-.38.42-.04.06-.07.06-.1-.01-.01-.03-.04-.05-.07-.06-.03 0-.06 0-.07.04l-.23.47c-.02.03-.03.03-.04 0l-.22-.5c0-.02-.02-.03-.03-.02-.05.01-.09.05-.11.11l-.02.02h-.05v-.05l.01-.37.25.28c.02.03.04.03.05 0 .16-.25.33-.42.53-.51.35-.17.84-.39 1.26-.39Z" fill="#C8AC7C"/><path d="M4.8 11.88c0-.07-.08-.05-.19.06-.02.02-.04.02-.06-.01l-.02-.06a.58.58 0 0 0 .04-.3c.16-.09.4-.18.5.04.02.02.03.03.06.03h.02c.02-.02.03-.03.03-.06-.02-.14-.08-.3-.17-.46a.21.21 0 0 1 .03-.25.24.24 0 0 1 .07-.05c.16-.07.28-.2.36-.4 0-.02.02-.02.03-.02l.03.02v.03l-.1.61c-.05.43.08.86.12 1.27.01.14-.04.17-.15.07a1.5 1.5 0 0 1-.45-.66c0-.03-.02-.03-.05-.01a.24.24 0 0 0-.1.15Z" fill="#34202C"/><path d="m10.32 10.75.7.37a.38.38 0 0 1-.27.13l-.08.02-.2.07.02-.13c0-.03 0-.04-.03-.02a.13.13 0 0 0-.05.04.13.13 0 0 1-.07.06l-.06.02a.05.05 0 0 1-.05-.01v-.05l.11-.2c.05-.01.07-.03.06-.05 0-.05-.07-.07-.2-.07-.06 0-.07-.03-.04-.07a.6.6 0 0 1 .16-.1Z" fill="#F9F6CB"/><path d="M9.94 10.88c0 .04.03.05.1.05l.03.01v.04a.02.02 0 0 1-.02 0l-.08.02-.03.01v.03l.01.08c.01.03.03.04.06.02a.16.16 0 0 0 .08-.08c0-.02 0-.03.02-.04l.03-.01a.64.64 0 0 1 .26 0c0 .01-.01.03-.06.05l-.3.17c-.03-.02-.06 0-.1.03l-.05-.28c0-.07.01-.1.05-.1Z" fill="#D3C092"/><path d="M8.58 11.02a15.1 15.1 0 0 1 0 .42l.02.01h.02l.02-.02c.02-.06.06-.1.1-.11l.04.01.22.5c.01.04.02.04.04 0l.23-.47c.01-.02.04-.03.07-.03a.1.1 0 0 1 .07.06c.03.07.06.07.1 0 .08-.15.21-.29.38-.41l.05.28c.08.26.3.39.55.5 0 .2-.11.4-.32.56-.07.06-.09.04-.06-.03l.06-.16a.03.03 0 0 0-.01-.04.04.04 0 0 0-.04 0c-.2.04-.37.13-.52.23a.17.17 0 0 1-.08.03.44.44 0 0 0-.2.06.1.1 0 0 1-.07.01l-.15-.04-.26.02-.06-.01-1.1-.32a.08.08 0 0 1-.03-.02.08.08 0 0 1-.02-.04v-.09l.2-.17c.14-.1.25-.21.33-.34.08-.13.05-.24.03-.37-.01-.11.02-.13.11-.05l.05.05h.05a.24.24 0 0 1 .18-.02ZM7.83 10.97c.08.03.11.08.11.16a.22.22 0 0 1-.16-.07L7.76 11c0-.03.03-.04.07-.04Z" fill="#EBD7A2"/><path d="M11.66 12.25c-.04-.09-.1-.13-.18-.13-.03 0-.05-.01-.08-.03l-.08-.07a.44.44 0 0 0-.42-.2c-.03 0-.05.01-.06.04a.36.36 0 0 1-.09.17l-.02.01a.05.05 0 0 1-.05-.01l-.01-.03c-.03-.15-.09-.23-.18-.23-.25-.12-.47-.25-.55-.51.04-.04.07-.05.1-.03v.05c-.01.03 0 .05.04.06l.22.07a.1.1 0 0 1 .07.06c.03.07.1.1.18.08l.33-.1c.23-.08.4-.25.66-.31h.08v.05l.01.07.15.34v.04c0 .02-.01.03-.03.04-.11.05-.15.15-.12.3l.03.27Z" fill="#87633E"/><path d="M8.1 11.3c0 .07 0 .12-.03.14a.9.9 0 0 0-.24.3l-.2.18a.23.23 0 0 0-.11.13l-.04.1c-.01.02-.03.03-.07.02-.08-.02-.11-.09-.1-.21 0-.06-.04-.08-.1-.06-.12.05-.2 0-.24-.16a.1.1 0 0 0-.02-.04.1.1 0 0 0-.13-.02.99.99 0 0 0-.5.94l-.04.11c-.04.01-.06 0-.05-.06.05-.3.1-.6.13-.9 0-.01 0-.04-.02-.05l-.07-.08c-.02-.02-.02-.05 0-.08a.8.8 0 0 0 .13-.37v-.02l.03-.03a.08.08 0 0 1 .06 0c.1.02.21.08.34.16.22.15.33.18.58.24.15.03.21.02.34-.08.1-.08.22-.14.36-.16Z" fill="#735536"/><path d="M7.52 12.04c.01.07.05.13.1.18.02.02.05.02.07.02l.25-.02c.07 0 .15.01.23.05l.31.18c.03.02.05.04.06.07l.3.69c.01.04.05.07.09.09.04.02.1.02.14 0l1.22-.39.48-.18c-.1.18-.27.32-.47.43-.33.02-.63.1-.9.26a.45.45 0 0 1-.19.07 1.56 1.56 0 0 1-.55-.09l-1.48-.74a.6.6 0 0 1-.25-.25h-.01a.04.04 0 0 0-.03-.01h-.02a.11.11 0 0 0-.03.05c-.02-.17-.14-.28-.36-.33a.06.06 0 0 0-.05.02l-.01.01-.01.03c0 .15-.02.3-.09.44a.99.99 0 0 1 .5-.93.1.1 0 0 1 .13.01.1.1 0 0 1 .02.04c.04.15.12.2.24.16.06-.02.1 0 .1.06-.01.12.02.2.1.21.04.01.06 0 .07-.03l.04-.1Z" fill="#8F7856"/><path d="m11.32 12.02-.33.74-.01-.12c0-.03-.03-.04-.05-.02l-.16.12-.48.17a1.29 1.29 0 0 1-.3-.55c-.02-.03-.03-.04-.06-.03-.3.1-.55.2-.83.05l.15.04a.1.1 0 0 0 .07 0 .44.44 0 0 1 .2-.07c.02 0 .05-.01.07-.03a1.7 1.7 0 0 1 .55-.24l.02.01a.03.03 0 0 1 0 .04l-.05.16c-.03.08 0 .09.06.03.2-.17.31-.35.32-.55.09 0 .15.08.17.24l.02.02.02.01h.03l.02-.01c.04-.04.07-.1.09-.17 0-.03.03-.04.06-.04.18-.02.32.05.42.2Z" fill="#C8AC7C"/><path d="M7.64 11.92a.14.14 0 0 0 0 .1l.01.03.04.02 1.09.32h.06l.27-.01c.27.14.52.05.82-.05.03 0 .05 0 .05.03.05.2.16.38.3.55l-1.21.4a.2.2 0 0 1-.14-.01.18.18 0 0 1-.1-.1l-.29-.68a.15.15 0 0 0-.06-.07 4.2 4.2 0 0 0-.31-.18.45.45 0 0 0-.23-.05c-.1 0-.19 0-.24.02-.03 0-.06 0-.08-.02a.36.36 0 0 1-.1-.18c.02-.05.06-.09.12-.12Z" fill="#B39C6F"/><path d="m11.32 12.02.08.07c.03.02.05.03.08.03.08 0 .14.04.18.13.04.11.06.23.05.36l.02.06.08.11c.01.03.01.05-.01.06a.13.13 0 0 1-.1.02c-.03 0-.05.01-.05.04-.06.38-.23.72-.5 1l-.48.38a.07.07 0 0 0-.03.07l.02.12.4.24c.03.02.05.06.06.1v.02l-.01.01a.03.03 0 0 1-.03.02h-.01l-.47-.24c-.17-.12-.28-.25-.28-.45-.02-.29.02-.48-.09-.79.26-.13.48-.3.67-.48 0 .16.02.32.06.49.03.13.1.18.23.15.03 0 .04-.02.06-.03a.13.13 0 0 0 .04-.05c.1-.22.1-.45.03-.69a.12.12 0 0 0-.03-.05.14.14 0 0 0-.17-.02l-.15.1c0-.02 0-.03.02-.04l.33-.74Z" fill="#EBD7A2"/><path d="m6.84 12.46.04.27c-.08-.04-.14-.01-.18.08a.67.67 0 0 0 0 .53c.06.13.15.22.29.26.19.06.33 0 .43-.2a.9.9 0 0 1 .29.4c.03.13.08.26.12.38.04.11.05.2.02.26-.04.1-.11.17-.21.21l-.4.2a.09.09 0 0 1-.07.01.07.07 0 0 1-.03-.02l-.02-.03-.05-.03a.1.1 0 0 0-.08.02c-.06.05-.1.07-.15.07-.04 0-.05-.02-.03-.05.04-.09.08-.15.2-.16a.85.85 0 0 0 .34-.12c.06.07.13.05.2-.06a.06.06 0 0 0 .01-.06l-.02-.02-.02-.01-.27-.04c.1-.03.13-.08.09-.13-.12-.16-.2-.17-.23-.03l-.33-.36a.1.1 0 0 0-.08-.04h-.12l-.09-.01c-.02-.02-.03-.05-.02-.09.09.03.18.04.28.04.03 0 .04-.02.02-.04-.19-.24-.31-.5-.37-.79 0-.04-.05-.1-.12-.17l.04-.11c.07-.15.1-.3.09-.44v-.03l.02-.01a.06.06 0 0 1 .05-.01c.22.04.34.15.36.32Z" fill="#AB8D5F"/><path d="M7.18 12.66c.16.45.59.57.94.8.18.12.38.19.62.22.03 0 .05.02.06.04.01.04 0 .09-.01.15a.26.26 0 0 1-.17-.01.03.03 0 0 0-.02 0h-.01v.04c.01.02 0 .03-.02.03h-.22a.57.57 0 0 0-.3-.07h-.01l-.02.02-.02.02v.02l.02.58-.3.22a.18.18 0 0 1-.08-.07c.1-.04.17-.11.2-.2.04-.07.03-.16 0-.27a8.14 8.14 0 0 1-.13-.38.9.9 0 0 0-.29-.4l-.54-.67-.04-.28.03-.05a.04.04 0 0 1 .03 0h.02v.01c.06.1.15.2.26.25Z" fill="#1E1417"/><path d="m10.99 12.76-.02.04-.07.1c-.19.19-.41.35-.66.48a.12.12 0 0 0-.07-.05c.06-.06.1-.12.13-.17.2-.1.36-.25.47-.43l.16-.11c.03-.02.04-.02.05.02v.12Z" fill="#2C2623"/><path d="M10.3 13.16a.65.65 0 0 1-.13.17l-.9.39a.09.09 0 0 0-.02.02l-.02.03a.07.07 0 0 0 .02.06c0 .01.02.02.06.02-.03.02-.05.03-.07.02-.01 0-.02-.02-.02-.06l-.01-.03a.06.06 0 0 0-.06-.01l-.08.02a.08.08 0 0 1-.06 0c-.1-.05-.18-.02-.22.08.02-.06.02-.11 0-.15a.07.07 0 0 0-.05-.04c-.24-.03-.44-.1-.62-.22-.35-.23-.78-.35-.94-.8l1.47.74c.1.05.28.08.56.09.03 0 .1-.02.18-.07.28-.15.58-.24.9-.26Z" fill="#735536"/><path d="m10.9 12.9.07-.1.15-.1a.14.14 0 0 1 .12 0c.02 0 .04 0 .05.02.01.02.03.03.03.05.08.24.07.47-.03.7l-.04.04a.15.15 0 0 1-.05.03c-.13.03-.21-.02-.24-.15a2.34 2.34 0 0 1-.06-.49ZM6.88 12.73l.54.68c-.1.19-.24.25-.43.2a.44.44 0 0 1-.29-.27.67.67 0 0 1 0-.53c.04-.1.1-.12.18-.08Z" fill="#F9F6CB"/><path d="M10.17 13.33c.03 0 .05.03.06.05.1.3.07.5.09.79 0 .2.1.33.28.45v.08a.66.66 0 0 1-.41-.27.11.11 0 0 1-.02-.07l.05-.43c0-.07-.03-.12-.1-.14a.07.07 0 0 0-.08.03c-.11.14-.28 0-.39.12l-.16-.01c-.02 0-.03-.02-.03-.04l.01-.06c0-.04 0-.05-.05-.04a.26.26 0 0 0-.11.06c-.04 0-.06 0-.06-.02a.07.07 0 0 1 0-.1l.03-.01.9-.4Z" fill="#1E1417"/><path d="M11.14 13.9c0 .02.01.04.03.05a.58.58 0 0 0-.2.26c-.02-.01-.03 0-.05.01l-.02.03v.03l.03.03.03.02.51.18c.02.01.03.02.03.04 0 .07.05.13.13.2l.02.02-.01.02-.03.01a.4.4 0 0 1-.15-.08.09.09 0 0 1-.03-.08v-.04a.07.07 0 0 0-.07-.03 1.3 1.3 0 0 1-.55-.14c-.1-.05-.15-.04-.15.04l-.02-.12c0-.03 0-.05.03-.07l.47-.38Z" fill="#AB8D5F"/><path d="M7.25 14.35c-.08 0-.14.03-.18.07-.02.02-.02.03 0 .04l.28.08c-.1.06-.21.1-.33.12-.12.01-.17.07-.21.16-.02.04-.01.05.03.05s.1-.02.15-.07a.1.1 0 0 1 .08-.02c.03 0 .05.02.05.03l.02.03.03.02.03.01.04-.01.4-.2.09.06-.4.22a.34.34 0 0 1-.33.02.09.09 0 0 0-.09 0c-.1.06-.18.05-.24-.02a.07.07 0 0 0-.08-.02.53.53 0 0 1-.17.03c-.04 0-.06-.02-.05-.05v-.06l-.03-.01-.28-.04-.02-.01v-.01a.03.03 0 0 1 0-.04c.27-.29 1.12-.12 1.07-.54.03-.13.1-.12.23.03.04.05.02.1-.09.13ZM10.98 14.2c.23.13.47.22.72.28.11.03.26.11.31.21.08.14.04.17-.1.1l-.1.02c-.03 0-.04.03-.03.06l.01.01a.06.06 0 0 1 0 .07l-.04.01h-.03l-.17-.02-.1.01c-.04.02-.13 0-.23-.05h-.01a.17.17 0 0 1-.1.07l-.07-.01a1.5 1.5 0 0 0-.44-.26v-.08l.47.23a.04.04 0 0 0 .03 0h.01v-.04a.12.12 0 0 0-.05-.1l-.4-.24c0-.08.05-.1.15-.05.2.1.39.15.55.14.03 0 .05.02.07.04v.04c0 .03.01.05.04.07a.4.4 0 0 0 .15.09h.02v-.05c-.09-.07-.13-.13-.13-.2 0-.02-.02-.03-.04-.04l-.5-.18a.1.1 0 0 1-.04-.02l-.02-.03v-.06c.03-.02.05-.02.07-.01Z" fill="#735536"/><path d="m7.25 14.35.26.04.03.01.02.02a.05.05 0 0 1 0 .06c-.08.1-.15.13-.21.06l-.27-.08c-.03 0-.03-.02-.01-.04.03-.04.1-.06.18-.07Z" fill="#F9F6CB"/><path d="M11.81 14.72c.04 0 .07 0 .07-.02s-.02-.04-.05-.05c-.03 0-.06 0-.07.02 0 .02.02.04.05.05ZM6.68 14.68c.02 0 .04 0 .04.02 0 .06-.04.09-.12.1-.09 0-.1-.02-.05-.08.02-.01.06-.03.13-.04Z" fill="#AB8D5F"/><defs><linearGradient id="a" x1="9" y1="0" x2="9" y2="18" gradientUnits="userSpaceOnUse"><stop stop-color="#F8E782"/><stop offset="1" stop-color="#F1CD65"/></linearGradient><linearGradient id="b" x1="9" y1="0" x2="9" y2="18.97" gradientUnits="userSpaceOnUse"><stop stop-color="#FDEEAD"/><stop offset="1" stop-color="#F8E782"/></linearGradient></defs></svg>