<!-- by TradingView --><svg width="18" height="18" viewBox="0 0 18 18" xmlns="http://www.w3.org/2000/svg"><path fill="#F0F3FA" d="M0 0h18v18H0z"/><path d="M6.9 3 4.01 13.64c-.05.18.08.36.26.36h9.46c.18 0 .3-.18.26-.36L11.17 3h-.87l.14 1h-.77V3H8.33v1h-.68l.1-1H6.9Z" fill="url(#awlmay1n3)"/><path d="M13.73 12.65 9 10.06V3h.66v1h.77l-.14-1h.87l2.56 9.65Z" fill="url(#bwlmay1n3)"/><path d="M4.28 12.65 9 10.06V3h-.47v1h-.97l.14-1h-.87l-2.55 9.65Z" fill="url(#cwlmay1n3)"/><defs><linearGradient id="awlmay1n3" x1="9" y1="3" x2="9" y2="14" gradientUnits="userSpaceOnUse"><stop offset=".64" stop-color="#054DC9"/><stop offset="1" stop-color="#0B3299"/></linearGradient><linearGradient id="bwlmay1n3" x1="9.01" y1="3.83" x2="11.5" y2="12.61" gradientUnits="userSpaceOnUse"><stop stop-color="#0556D9"/><stop offset=".77" stop-color="#0A2993"/></linearGradient><linearGradient id="cwlmay1n3" x1="3.91" y1="3.63" x2="9.35" y2="9.27" gradientUnits="userSpaceOnUse"><stop stop-color="#025EE3"/><stop offset="1" stop-color="#0E2FA2"/></linearGradient></defs></svg>