<!-- by TradingView --><svg width="18" height="18" viewBox="0 0 18 18" xmlns="http://www.w3.org/2000/svg"><path fill="url(#aysvp2dac)" d="M0 0h18v18H0z"/><path d="M13.73 8.25V8.1l-.01-.1v-.13l-.01-.08v-.04l-.01-.07v-.04l-.01-.07v-.04l-.02-.08v-.02l-.02-.1V7.3l-.01-.08v-.01a.92.92 0 0 0-.02-.1v-.03l-.02-.07V7h-.01l-.02-.1c0-.04-.02-.07-.03-.1v-.03l-.02-.07-.01-.04-.02-.06v-.03a4.01 4.01 0 0 0-.04-.1v-.01l-.03-.09v-.01l-.01-.02-.03-.07v-.03a4.9 4.9 0 0 0-.08-.2l-.02-.02a15.03 15.03 0 0 0-.1-.2v-.03a4.03 4.03 0 0 0-.11-.21l-.01-.02a4.2 4.2 0 0 0-.06-.1h-.01v-.02l-.03-.04-.02-.03-.02-.03-.02-.04-.03-.03-.02-.03-.02-.03-.01-.02h-.01a4.34 4.34 0 0 0-.05-.07V5.1a3.34 3.34 0 0 0-.06-.07l-.02-.02a4.05 4.05 0 0 0-.04-.05l-.02-.02a3.58 3.58 0 0 0-.04-.05l-.01-.02a4.91 4.91 0 0 0-.07-.07l-.02-.01a3.27 3.27 0 0 0-.05-.06l-.02-.01a3.18 3.18 0 0 0-.06-.07l-.02-.01a3.71 3.71 0 0 0-.06-.05l-.01-.02a3.29 3.29 0 0 0-.07-.06h-.01a4.21 4.21 0 0 0-.07-.05l-.02-.02a2.65 2.65 0 0 0-.07-.05l-.08-.05-.02-.02a3.5 3.5 0 0 0-.06-.04h-.01a2.89 2.89 0 0 0-.08-.05l-.02-.01a3.67 3.67 0 0 0-.07-.04h-.01a3.17 3.17 0 0 0-.08-.04l-.02-.01a3.45 3.45 0 0 0-.07-.03l-.02-.01a23.2 23.2 0 0 0-.08-.04h-.01a3.2 3.2 0 0 0-.08-.03h-.02a3.03 3.03 0 0 0-.08-.03l-1.27-.4.09.03.02.01.07.03h.01l.09.04h.02l.06.04h.02l.08.04.02.01.06.04h.02l.08.05.01.01.07.04.02.02.07.05.08.05.02.02.06.04.01.01.07.06.02.02.06.05.01.01.07.07.01.01.06.06.01.01.07.07.01.02.05.05.02.02.04.05.01.02.06.07v.01l.05.06.02.03.03.03.02.03.02.04.02.03.02.03.02.03.03.04.01.02.06.1v.02l.07.1v.01l.05.1.01.03.05.1.05.1v.02l.05.1.04.1v.03a7.5 7.5 0 0 1 .07.19 2.38 2.38 0 0 1 .1.3v.03l.02.1a5 5 0 0 1 .04.2l.01.04.01.07.01.03.01.08v.03l.02.1v.02a10.64 10.64 0 0 1 .05.43V7.8l.01.05v.4l-.01.06a6.03 6.03 0 0 1 0 .14l-.01.07-.01.05v.1l-.01.05-.02.09v.06l-.02.1v.05l-.02.12v.03l-.01.02-.02.1v.03l-.03.1v.02l-.03.12-.01.05-.02.07-.01.06-.02.07a8 8 0 0 1-.03.12l-.02.06-.02.07-.02.05-.02.07a9.67 9.67 0 0 1-.08.25l-.02.05-.03.07-.02.05a3.58 3.58 0 0 1-.1.24l-.02.06-.03.06-.03.06-.02.05-.03.07-.02.05-.04.06-.02.05-.04.07-.02.04a6.74 6.74 0 0 1-.14.25l-.04.07-.03.05-.04.06-.03.05-.04.06-.03.05-.04.05c0 .02-.02.04-.03.05l-.04.05-.04.06-.03.04-.02.02a6.7 6.7 0 0 1-.05.07l-.02.03-.05.06-.02.03-.07.08v.01l-.1.1-.03.04-.07.08-.03.03-.06.07-.03.03a5.08 5.08 0 0 1-.18.17l-.04.03-.05.05-.05.04-.04.04-.05.04-.04.03-.05.04-.04.04c-.02 0-.04.02-.05.03l-.04.03-.06.05-.03.02a4.13 4.13 0 0 1-.18.12l-.04.01a6.8 6.8 0 0 1-.06.04l-.03.02-.06.03-.04.03-.05.02-.04.02-.06.03-.04.02-.06.03-.03.02-.07.02-.03.02-.1.03-.1.04-.03.01-.06.02-.04.01a3.66 3.66 0 0 1-.18.05l-.03.01-.06.02h-.05l-.06.02h-.04l-.06.01-.05.01h-.06l-.05.01h-.05l-.06.01h-.52l-.02-.01-.08-.01h-.01a3 3 0 0 1-.1-.02h-.01l-.08-.02h-.03l-.07-.02-.03-.01-.08-.03 1.27.4h.04l.03.01.04.01.06.02h.03l.08.02h.02l.09.02h.02l.08.02H8.76v.01h.52l.05-.01h.06l.05-.02H9.5l.04-.01.07-.01.04-.01.04-.01h.03l.03-.02.1-.02.03-.01.04-.02h.04l.07-.03.03-.01.1-.03.09-.04.03-.02.07-.02.04-.02.04-.02h.02l.03-.03.06-.03.04-.01.02-.02.03-.01.04-.03.06-.03.03-.02h.01l.06-.04.03-.01.09-.06.09-.06.03-.02.05-.04.05-.04.05-.03.04-.04c.02 0 .03-.02.04-.03l.06-.04.04-.04.05-.04.03-.03.06-.06c.02 0 .03-.02.04-.03l.06-.06.03-.02.1-.1.02-.02.06-.07.02-.01.01-.02.08-.08.02-.03.1-.1v-.01l.07-.09.02-.02.05-.07.02-.03.06-.07.01-.01v-.01l.04-.04.03-.06.04-.04.04-.06c0-.02.02-.03.03-.05l.04-.05c0-.02.02-.04.03-.05l.03-.06.04-.06.03-.05.04-.07.02-.03.06-.11.01-.02.06-.09c0-.01 0-.03.02-.04l.03-.07.03-.05.03-.06.02-.05a4.89 4.89 0 0 0 .06-.12l.03-.06a.96.96 0 0 0 .05-.12l.02-.05a7.17 7.17 0 0 0 .05-.12c0-.03.02-.05.03-.07l.02-.05.02-.07.02-.05.03-.07a5.55 5.55 0 0 1 .08-.25l.01-.05.01-.03.01-.04a5.3 5.3 0 0 0 .05-.18l.02-.07a3.9 3.9 0 0 0 .03-.13l.02-.05v-.02l.02-.1v-.01l.03-.1v-.04l.02-.1v-.02l.01-.03.02-.12v-.05l.02-.1V9.2l.02-.09v-.05l.01-.1v-.04l.01-.08v-.06l.01-.08V8.6l.01-.08v-.26" fill="#1E9D93"/><path d="m7.84 14.83-.08-.03h-.01a1.68 1.68 0 0 1-.1-.04l-.01-.01a2.62 2.62 0 0 1-.07-.03l-.02-.01a2.9 2.9 0 0 1-.09-.05h-.02a3.31 3.31 0 0 1-.07-.04l-.02-.01a2.56 2.56 0 0 1-.08-.05h-.01a3.25 3.25 0 0 1-.07-.06l-.03-.01a3.36 3.36 0 0 1-.16-.11l-.02-.02a5.65 5.65 0 0 1-.06-.05H6.9a3.06 3.06 0 0 1-.07-.07l-.02-.02a3.65 3.65 0 0 1-.06-.05l-.02-.02a3.2 3.2 0 0 1-.07-.06l-.01-.02a3.6 3.6 0 0 1-.06-.06L6.57 14a3.18 3.18 0 0 1-.13-.15l-.02-.01a3.8 3.8 0 0 1-.05-.06l-.01-.02a4.07 4.07 0 0 1-.12-.15l-.02-.03-.03-.04-.02-.03-.03-.04-.02-.03-.02-.04-.02-.03-.03-.04-.01-.02a4.31 4.31 0 0 1-.13-.23l-.01-.02a5.22 5.22 0 0 1-.06-.1v-.03a3.88 3.88 0 0 1-.05-.1l-.01-.01a4.6 4.6 0 0 1-.05-.1v-.03a4.32 4.32 0 0 1-.05-.1v-.01a4.59 4.59 0 0 1-.04-.1l-.01-.03a2.32 2.32 0 0 1-.03-.08l-.01-.03-.03-.08v-.03l-.04-.1v-.02L5.48 12l-.01-.03-.02-.08v-.03l-.03-.08v-.03l-.03-.1v-.02l-.02-.1v-.03a5.73 5.73 0 0 1-.06-.3v-.04l-.02-.1v-.13l-.01-.03a8.33 8.33 0 0 1-.02-.2v-.16a7.9 7.9 0 0 1-.01-.21v-.36a7.42 7.42 0 0 1 .02-.42v-.02l.02-.14v-.05l.02-.1v-.06a4.87 4.87 0 0 1 .05-.28v-.06l.01-.03a11.03 11.03 0 0 1 .27-1.06l.02-.06.02-.07.02-.07.03-.07.02-.06.03-.07.02-.06.03-.07.02-.06.03-.07.03-.06.03-.07.02-.05.04-.08.02-.05.04-.07.02-.05a6.95 6.95 0 0 1 .13-.24l.01-.04.05-.08c0-.02.02-.03.03-.05l.04-.07c0-.02.02-.03.03-.05l.04-.07.03-.05.04-.06.04-.06.03-.06.04-.06.04-.05.04-.06.04-.05.04-.06.04-.05.02-.03.05-.07.03-.03.05-.07.02-.03.08-.1.1-.11.04-.04.07-.08.04-.04.07-.07.03-.03.1-.1.03-.03.07-.06c0-.02.02-.03.03-.04l.06-.05.05-.04.05-.05.05-.04.05-.04.05-.04.05-.03.05-.04.05-.04.06-.04.03-.03.07-.04.03-.02.1-.07h.02l.08-.06.04-.02.06-.04.04-.02.07-.03.04-.02.06-.03.04-.02.06-.03.04-.02.07-.03.04-.02.07-.02.04-.02.09-.03h.01l.1-.04.04-.01.09-.03.07-.02h.03l.06-.02h.01l.1-.02h.01l.1-.02h.01l.1-.02H10l.1-.01h.05l.03-.01h.12l.03-.01h.34l.02.01h.07l.05.01h.01l.07.01h.01l.09.02.08.02h.02l.08.02h.01l.09.03.04.01-1.25-.39H10l-.08-.03H9.9l-.08-.03h-.01l-.09-.02-.09-.01-.07-.01h-.02l-.05-.01h-.07L9.4 3h-.15L9.21 3H8.91l-.03.01h-.05l-.1.02H8.7l-.1.01H8.6l-.1.02H8.5l-.1.02-.07.02H8.3l-.08.03H8.2a.69.69 0 0 1-.06.03H8.1L8 3.2h-.02l-.1.04-.03.02-.05.02h-.02l-.04.02-.06.03-.05.02-.03.01-.03.02-.04.02a3.5 3.5 0 0 0-.06.03l-.04.02H7.4l-.04.03-.04.02-.07.04-.03.02h-.01l-.08.05-.02.01-.1.06-.03.03-.06.04-.04.03-.05.03-.01.01-.05.04-.05.04c-.02 0-.03.02-.05.03l-.04.03v.01a6.5 6.5 0 0 0-.06.04l-.05.04-.05.05-.03.03h-.01l-.06.06-.04.04-.07.06-.03.02-.1.1-.03.04-.07.07-.02.01-.01.03-.08.08-.03.04-.1.11-.08.1-.03.03-.05.07-.03.03-.05.07-.02.02v.01a1.4 1.4 0 0 0-.04.05l-.04.06-.04.05-.04.06-.03.05-.04.06-.04.06-.04.06-.04.06-.03.05-.04.07-.03.05-.04.07-.03.04-.04.1-.02.02-.06.12-.02.04-.05.09-.02.04-.04.08-.02.05-.03.08-.03.05a5.7 5.7 0 0 0-.05.13l-.03.07-.03.06-.03.07-.02.06-.02.07-.03.06-.02.07a3.73 3.73 0 0 0-.05.14l-.02.06a7.96 7.96 0 0 0-.04.13l-.01.04-.01.04a10.25 10.25 0 0 0-.11.4l-.02.07v.02l-.02.08v.02a8.35 8.35 0 0 0-.05.26l-.01.03v.06l-.03.11v.06l-.02.11v.04l-.01.02-.01.1v.05l-.02.14v.02l-.01.15v.02L4 9.46v.15L4 9.75v.45l.01.08v.04a6.48 6.48 0 0 0 .02.2v.04l.01.09v.02l.02.11v.03a9 9 0 0 0 .02.08v.04l.01.08v.02l.01.02.01.07.01.04.02.09v.01l.03.1v.04l.02.08v.01l.01.02a5 5 0 0 0 .06.2v.01l.03.1.01.04.03.07v.04l.04.08v.02l.05.1v.03l.04.09.01.02.05.1v.02l.05.1.01.02.06.1v.02l.14.24v.01l.01.01.03.04.02.03.02.04.02.03.03.04.02.03.03.03.01.03.07.08v.01l.06.07.01.02.05.05.02.03.06.06.07.08.02.02.06.06.01.01.07.07.02.02.06.05.02.02.07.06.02.01.06.05.02.02.08.05.08.06.03.01.07.05.1.05.01.02c.03 0 .05.02.07.03l.02.01.09.04.02.01.07.04h.02l.09.04h.01l.08.04h.02l.1.03 1.25.4a2.92 2.92 0 0 1-.09-.04h-.02" fill="url(#bysvp2dac)"/><path d="M9.28 3.95C7.1 4.58 5.42 7.4 5.5 10.28c.09 2.86 1.9 4.67 4.06 4.06 2.17-.63 3.86-3.47 3.77-6.33-.08-2.86-1.9-4.68-4.05-4.06Z" fill="url(#cysvp2dac)"/><path d="M8.85 15c-.48 0-.95-.11-1.38-.33a3.45 3.45 0 0 1-1.12-.93c-.34-.43-.6-.92-.77-1.45-.2-.6-.3-1.22-.32-1.85a7.9 7.9 0 0 1 2.52-5.99c.5-.43 1.07-.75 1.7-.93.3-.09.61-.13.92-.13.48 0 .96.11 1.39.33.43.23.82.54 1.12.93.34.43.6.92.77 1.44.2.6.3 1.23.32 1.86a7.9 7.9 0 0 1-2.52 5.99c-.5.43-1.08.74-1.7.93-.3.09-.61.13-.93.13Zm1.47-11.14c-.3 0-.58.04-.86.12-.57.17-1.1.46-1.55.85-.5.42-.91.92-1.24 1.47a7.3 7.3 0 0 0-1.06 4.02c.01.58.11 1.16.3 1.71.16.49.4.94.71 1.33.29.36.64.65 1.04.86.4.2.84.31 1.28.3.3 0 .58-.03.86-.11.57-.17 1.1-.46 1.55-.85.5-.42.91-.92 1.24-1.47a7.31 7.31 0 0 0 1.06-4.02 5.93 5.93 0 0 0-.3-1.71c-.16-.49-.4-.94-.71-1.33a3.2 3.2 0 0 0-1.04-.86c-.4-.2-.84-.31-1.29-.31Z" fill="url(#dysvp2dac)"/><path d="m10.51 9.58-.29-.12.54-.62.28.12-.53.62Z" fill="#1E9D93"/><path d="M9.23 12.04a.78.78 0 0 1-.2-.05l-.28-.13a.78.78 0 0 0 .33.07c.07 0 .14-.02.2-.03.19-.05.35-.14.5-.26l.17-.17v-.01a1.82 1.82 0 0 0 .4-.7 2.02 2.02 0 0 0 .07-.39c.04-.32-.03-.64-.2-.91l.3.12c.16.27.23.6.19.92a1.93 1.93 0 0 1-.46 1.08l-.01.01c-.05.06-.11.12-.18.17-.14.13-.3.22-.49.26a.92.92 0 0 1-.2.03H9.23ZM8.26 9.07a2.2 2.2 0 0 1-.32-1.46 3.05 3.05 0 0 1 .74-1.71v-.02l.28-.27c.23-.2.5-.34.78-.41.1-.03.21-.04.32-.04l.3.12h-.01c-.1 0-.22.02-.32.04-.29.08-.55.22-.78.42-.1.08-.19.17-.27.27l-.02.01a2.85 2.85 0 0 0-.52.87 3.11 3.11 0 0 0-.21.85c-.07.5.04 1.02.31 1.45l-.28-.12Zm2.5-3.73a1.23 1.23 0 0 0-.4-.06l-.3-.12a1.3 1.3 0 0 1 .53.1l.3.12a1.2 1.2 0 0 0-.13-.04Z" fill="#1E9D93"/><path d="M10.27 8.2c.19-.01.3.17.28.41-.01.11-.06.22-.13.3a.5.5 0 0 1-.28.17h-.01c-.18 0-.3-.18-.27-.42a.5.5 0 0 1 .4-.47h.01Z" fill="#fff"/><path d="m8.7 12.78-.28-.13c-.22-.1-.42-.26-.56-.47l.3.12c.13.21.32.38.55.48Z" fill="#1E9D93"/><path d="M11.04 8.96c.57.83.38 2.26-.41 3.18a1.98 1.98 0 0 1-1.4.74 1.24 1.24 0 0 1-1.08-.58l.53-.61a.8.8 0 0 0 .69.36 1.22 1.22 0 0 0 .88-.47c.5-.58.62-1.48.26-2l.53-.62Z" fill="url(#eysvp2dac)"/><path d="m8.15 12.3-.29-.12.54-.62.28.13-.53.61M8.86 9.95a.35.35 0 0 1-.14-.16.36.36 0 0 1-.03-.22v-.02a.58.58 0 0 1 .06-.2.71.71 0 0 1 .09-.12.5.5 0 0 1 .05-.06.38.38 0 0 1 .2-.09h.02l.29.13h-.07a.38.38 0 0 0-.15.09.5.5 0 0 0-.12.14.48.48 0 0 0-.04.09.53.53 0 0 0-.04.14v.02c-.02.08 0 .15.02.22.03.07.09.13.15.16l-.29-.12Zm.62-.73a.23.23 0 0 0-.08-.01l-.29-.13a.27.27 0 0 1 .1.02l.29.13-.02-.01ZM10.9 6.47l-.28-.12a.87.87 0 0 0-.22-.22c.05 0 .1.02.15.04l.2.13.01.01.02.02h.01v.01h.01v.01h.01v.01l.01.01h.01v.01l.02.02v.01h.01v.01l.02.02.01.01v.01h.01v.01Z" fill="#1E9D93"/><path d="M9.4 9.2c.18 0 .3.19.27.43-.01.1-.05.21-.13.3a.5.5 0 0 1-.27.16h-.02c-.18 0-.3-.18-.27-.42 0-.1.05-.21.13-.3a.5.5 0 0 1 .27-.16h.02ZM10.35 5.28a1.24 1.24 0 0 1 1.09.58l-.54.61a.8.8 0 0 0-.68-.36 1.21 1.21 0 0 0-.88.47c-.5.58-.62 1.48-.26 2l-.54.62c-.56-.83-.38-2.26.42-3.18a1.97 1.97 0 0 1 1.4-.74Z" fill="#fff"/><path d="M9.73 8.93a.35.35 0 0 1-.14-.16.36.36 0 0 1-.03-.22v-.02a.64.64 0 0 1 .02-.1l.02-.04a.49.49 0 0 1 .04-.09 1.07 1.07 0 0 1 .07-.09.5.5 0 0 1 .05-.05.39.39 0 0 1 .2-.1h.02l.29.13h-.01a.3.3 0 0 0-.05.01.39.39 0 0 0-.16.08.53.53 0 0 0-.14.19.66.66 0 0 0-.06.19v.02c-.01.07 0 .15.03.22.03.06.08.12.14.16l-.29-.13Zm.62-.73a.24.24 0 0 0-.08 0l-.29-.13a.27.27 0 0 1 .1.02l.3.12h-.03Z" fill="#1E9D93"/><defs><linearGradient id="aysvp2dac" x1="18" y1="3.46" x2="0" y2="9" gradientUnits="userSpaceOnUse"><stop stop-color="#C7BCF8"/><stop offset="1" stop-color="#7AE3E9"/></linearGradient><linearGradient id="bysvp2dac" x1="7.65" y1="3" x2="7.65" y2="14.86" gradientUnits="userSpaceOnUse"><stop stop-color="#43F1E3"/><stop offset=".35" stop-color="#fff"/><stop offset=".58" stop-color="#76F1E7"/><stop offset="1" stop-color="#1BA196"/></linearGradient><linearGradient id="cysvp2dac" x1="9.42" y1="14.46" x2="9.42" y2="3.83" gradientUnits="userSpaceOnUse"><stop stop-color="#00BBAC"/><stop offset="1" stop-color="#42DAD4"/></linearGradient><linearGradient id="dysvp2dac" x1="9.63" y1="3.39" x2="9.63" y2="15" gradientUnits="userSpaceOnUse"><stop stop-color="#71FFF9"/><stop offset="1" stop-color="#00EAD7"/></linearGradient><linearGradient id="eysvp2dac" x1="9.76" y1="12.88" x2="9.76" y2="8.96" gradientUnits="userSpaceOnUse"><stop stop-color="#F7F7F7"/><stop offset="1" stop-color="#fff"/></linearGradient></defs></svg>