<!-- by TradingView --><svg width="18" height="18" viewBox="0 0 18 18" xmlns="http://www.w3.org/2000/svg"><path fill="url(#a2nl2csgw)" d="M0 0h18v18H0z"/><path d="M6.08 4c0 .13-.05.23-.16.3-.04.04-.07.03-.07-.03 0-.04.01-.1.05-.18A.4.4 0 0 1 6.08 4ZM4.79 4.2c-.18.1-.29.12-.33.05.2-.26.31-.27.33-.05ZM10.6 4.62c.07-.01.13 0 .17.02.03.01.04.03.05.05.02.02.02.05.02.07-.03.2.02.39.12.58.03.05.07.07.12.07a.3.3 0 0 0 .21-.1c.06-.07.07-.14.02-.21l-.18-.24a.09.09 0 0 1-.02-.06c0-.02.01-.04.03-.05a.14.14 0 0 1 .06-.04c.06-.01.09.01.1.07a.6.6 0 0 0 .18.38c.14.14.25.15.34.04.07-.09.1-.24.1-.47.17.3.15.6-.05.9a.15.15 0 0 0 0 .16c0 .02.02.03.04.04l.28.22.02.04c-.01.04-.03.04-.05.01-.16-.24-.35-.29-.54-.16a.03.03 0 0 1-.04 0 .07.07 0 0 1-.01-.06c0-.01 0-.03.02-.04.14-.1.16-.22.06-.34-.1-.14-.23-.09-.39.13-.04.06-.1.07-.16.03-.42-.27-.58-.61-.5-1.04ZM4.8 4.85h-.02v-.02a.04.04 0 0 1 .02-.03l.04-.03h.04c.13.2.29.37.48.5l.02.02v.04c0 .02 0 .03-.02.03a.06.06 0 0 1-.04.02H5.3a.14.14 0 0 1-.14-.08c-.1-.17-.22-.32-.36-.45ZM5.72 4.85c.06-.05.13-.05.2-.02.05.03.05.06 0 .09a.98.98 0 0 0-.28.3c-.05.08-.07.08-.07-.02 0-.15.05-.26.15-.35ZM6.25 5.03c-.01-.09.02-.12.1-.1l.05.01a.09.09 0 0 1 .08.02.1.1 0 0 1 .03.09.33.33 0 0 1-.13.2.06.06 0 0 1-.06.02.07.07 0 0 1-.03-.03.07.07 0 0 1-.01-.03l-.03-.18ZM6.94 5.14c-.03.14 0 .26.05.27.05 0 .11-.1.14-.23.02-.13 0-.25-.05-.26-.05 0-.11.1-.14.22ZM8 5.54c-.02.05-.02.1 0 .14.03.04.03.07 0 .11-.04.08-.1.09-.18.04a.11.11 0 0 1-.04-.07v-.08c.11-.21.25-.4.42-.58.02-.01.04-.02.06 0l.05.03c.02.02.02.05 0 .07l-.29.3a.12.12 0 0 0-.02.04ZM9.42 5.22c-.03.08-.01.17.05.2.06.02.14-.02.17-.1.04-.1.02-.18-.04-.21s-.14.02-.18.1ZM10.06 5.41c.06.13.13.23.16.21.03-.01 0-.13-.06-.26-.07-.13-.14-.22-.17-.2-.03 0 0 .12.07.25ZM13.18 5.34c-.03.11 0 .22.05.23.06.02.13-.06.16-.17.03-.11 0-.21-.05-.23-.06-.02-.13.06-.16.17ZM10.96 5.97l.1.02a.1.1 0 0 1 .07.05.1.1 0 0 1 .01.07l-.01.06c0 .02-.02.03-.03.04a.08.08 0 0 1-.1 0 .09.09 0 0 1-.03-.04c-.04-.14-.13-.21-.26-.22a.19.19 0 0 1-.1-.04.2.2 0 0 1-.07-.18.2.2 0 0 1 .03-.1.24.24 0 0 1 .13-.09.06.06 0 0 1 .05 0 .07.07 0 0 1 .03.06c0 .1.03.19.06.28.03.05.06.08.12.1ZM4.96 5.94a.73.73 0 0 0-.27-.3.05.05 0 0 1-.03-.02v-.04l.04-.04h.05c.16.1.26.22.29.38v.03L5 5.97h-.03a.04.04 0 0 1-.02-.03Z" fill="#8BC0D6"/><path d="M4 5.6c.34.34.6.7.79 1.1a5.9 5.9 0 0 0 .62 1.07c.1.15.2.16.32.04.07-.07.1-.16.1-.28-.01-.07.01-.13.08-.17a.2.2 0 0 1 .15-.02c.06.01.12 0 .18-.02.23-.08.38-.14.57-.31.13-.12.25-.2.37-.27.2-.1.23-.05.11.14-.2.33-.51.53-.93.62a.2.2 0 0 0-.14.1.2.2 0 0 1-.04.05.2.2 0 0 0 0 .28c.02.03.05.04.09.05a.7.7 0 0 0 .67-.26c.04-.05.1-.07.16-.06l.49.09c.1.01.1.05.02.1l-.1.07a.14.14 0 0 1-.13.01.55.55 0 0 0-.48.04.17.17 0 0 0-.08.1.64.64 0 0 1-.1.2.15.15 0 0 1-.16.06.1.1 0 0 0-.1.03c-.06.05-.06.1 0 .15.07.05.12.12.15.2.02.05.06.09.12.1a.4.4 0 0 1 .12.05c.37.2.57.14.6-.18 0 .14.07.22.2.25.11.02.13.08.06.18a.56.56 0 0 1-.3.23.14.14 0 0 0-.1.07.56.56 0 0 1-.25.26.24.24 0 0 0-.1.1.25.25 0 0 0 .03.29c.03.04.07.06.12.07l.08.02c.04.12.05.22.04.3-.05-.17-.19-.15-.4.06-.1.1-.13.08-.1-.06l.04-.16a.19.19 0 0 0-.07-.2c-.3-.26-.54-.57-.7-.92-.18-.38-.42-.67-.6-1.03-.45-.83-.91-1.68-1.4-2.54ZM7.45 6.33c.1-.03.18-.1.24-.17.04-.05.08-.06.12-.01.08.07.14.16.18.25.04.1.01.12-.07.07-.2-.13-.36-.11-.5.04-.05.05-.1.05-.13-.01a.26.26 0 0 0-.15-.12c-.05-.01-.07-.05-.07-.1a.62.62 0 0 1 .42-.6c.12-.05.13-.03.02.05-.2.15-.28.32-.22.51.03.08.08.11.16.09ZM8.29 5.94c-.08-.04-.08-.08 0-.13a.26.26 0 0 1 .2-.04c.09.02.13.08.13.17 0 .12-.05.15-.15.1l-.18-.1ZM9.31 6.03a.23.23 0 0 1-.08.06c-.07.03-.1 0-.1-.07a.3.3 0 0 1 .06-.17.1.1 0 0 1 .08-.05c.34-.01.61.1.82.35.03.02.02.05 0 .07l-.07.05H10a.93.93 0 0 0-.54-.3c-.06 0-.1.02-.15.06ZM13.32 5.91c-.02.13-.15.24-.4.34-.07 0-.04-.07.1-.22.09-.11.2-.15.3-.12Z" fill="#8BC0D6"/><path d="M13.37 7.1c-.07.04-.13 0-.19-.11a.15.15 0 0 0-.05-.07.14.14 0 0 0-.08-.02c-.08 0-.14-.03-.17-.11a.2.2 0 0 0-.04-.07.18.18 0 0 0-.06-.04l-.31-.12a.11.11 0 0 1-.05-.16.11.11 0 0 1 .04-.05.35.35 0 0 1 .22-.02c.06 0 .1.04.11.1.03.05.07.1.15.13.04.12.1.21.18.29a.09.09 0 0 0 .07.02.08.08 0 0 0 .06-.04l.42-.68c.06-.08.09-.08.1.03 0 .18-.03.28-.18.4-.14.1-.21.28-.22.53ZM8.15 6.55a.2.2 0 0 0 .25.01c.13-.1.26-.21.38-.34a.13.13 0 0 1 .06-.04h.07l.1.05.02.02a.06.06 0 0 1-.02.08l-.52.32a.18.18 0 0 0-.07.07.2.2 0 0 0-.02.08c0 .05-.02.1-.04.15-.04.06-.08.06-.12 0a.92.92 0 0 1-.15-.35l.01-.04c.02-.02.03-.02.05 0ZM11.52 6.5c.1-.01.16-.08.14-.14 0-.05-.1-.09-.18-.07-.1.02-.16.09-.15.15.02.06.1.09.2.07ZM10.17 6.65a.48.48 0 0 1-.17.3c-.06.06-.12.06-.19.02-.07-.03-.07-.07-.01-.12.25-.18.38-.25.37-.2ZM6.05 7.01c.09.06.2.04.24-.03.04-.07 0-.18-.08-.24-.09-.05-.2-.04-.24.03-.05.08-.01.18.08.24ZM8.76 7.22a.18.18 0 0 1-.15.04c-.08 0-.1-.05-.05-.12.07-.1.16-.14.27-.1.08.02.15.02.22-.02a.45.45 0 0 1 .1-.04c.08-.03.1 0 .05.07-.08.11-.18.16-.3.13-.06 0-.1 0-.14.04ZM7.52 7.12c-.05.11-.02.23.06.28.1.04.2-.01.25-.12.05-.1.02-.23-.06-.27-.1-.05-.2 0-.25.11ZM13.02 8.29c-.07.13-.06.23.03.3.04.04.09.05.14.02a2.44 2.44 0 0 0 .77-.75h.02l.02.02v.02c-.2.58-.63.91-.93 1.43-.19.3-.4.6-.62.89-.1.12-.17.26-.21.4-.07.25-.01.29.17.12.27-.26.54-.5.82-.7.14-.1.16-.08.07.06-.29.46-.5.87-.93 1.2-.2.15-.18.23.07.24.14 0 .27.02.4.03.07 0 .12.04.13.12.01.06-.01.1-.07.1l-1.23.14c-.53-.07-.78-.02-.73.16a1.46 1.46 0 0 0-.68-.17l-.56.09c.03.01.03-.02.02-.1.1-.12.31-.16.65-.11.3.03.48 0 .57-.06.15.05.31.04.48-.03.08-.04.1-.09.05-.16l-.17-.29a.33.33 0 0 1-.05-.16c0-.62-.08-1.2-.24-1.77-.03-.08 0-.13.1-.13.04 0 .09.01.13.03.07.03.11.09.11.17 0 .1.03.2.08.28.06.1.14.11.23.05.36-.23.6-.54.74-.92a.2.2 0 0 0-.02-.18 1.06 1.06 0 0 0-.56-.45l.23-.06c.03 0 .05-.02.07-.04a.12.12 0 0 0-.01-.15.11.11 0 0 0-.08-.04c-.13-.02-.21-.08-.24-.2a.19.19 0 0 1 .1-.2c.14-.09.27-.2.38-.33.04-.06.1-.1.18-.1.32-.04.54.1.66.39.02.05.03.1.02.15l-.11.69ZM5.23 8.9h-.07c-.04 0-.07-.02-.07-.06v-.07c.01-.06.05-.08.11-.06.16.07.28.18.37.33.05.1.04.1-.05.04a2.06 2.06 0 0 1-.16-.13.18.18 0 0 0-.13-.05ZM6.54 10.42l.02.01.02.03a.08.08 0 0 1 0 .06l-.03.04h-.02c-.33-.17-.74-.36-.79-.8 0-.1.01-.1.06-.02.15.26.4.49.74.68ZM5.3 10.16c.07.11.16.19.19.17.02-.02-.03-.13-.11-.24-.08-.11-.17-.18-.2-.17-.02.02.03.13.11.24ZM6.76 10.77c.09.07.15.16.19.26.02.08 0 .11-.08.08-.17-.05-.26-.2-.27-.41l.02-.06a.08.08 0 0 1 .05-.02c.07-.02.1 0 .07.05-.01.04 0 .07.02.1ZM5.85 11.04c.14.09.27.12.3.08.02-.05-.07-.16-.2-.24-.15-.1-.28-.13-.31-.08-.03.04.07.15.2.24Z" fill="#8BC0D6"/><path d="M12.38 8.63a1.06 1.06 0 0 0-.56-.45s-.16 0-.34.13c-.32.22-.62-.21-.83-.51l-.15-.2s.1-.03-.38-.18a.88.88 0 0 0-.51 0c-.1.03-.22.06-.34.06-.37 0-.73.06-1.1.18-.45.15-.77.53-1.08.92l-.24.28c.37.2.57.14.6-.18.41-.27.88-.49 1.42-.65.2-.06.22-.03.05.11-.08.08-.16.14-.25.2-.18.14-.37.28-.52.5l-.96 1.31c.04.12.05.22.04.3-.11.28 0 .5.1.74.07.15.15.32.17.5 0 .06.03.1.08.14.14.1.21.25.22.44 0 .08-.03.11-.11.1l-.88-.16c-.36-.06-.65.17-.9.38l-.02.02a.13.13 0 0 0-.03.17l.48.74c.05.07.1.11.18.13.12.03.24.02.34-.02.2-.09.2-.18 0-.28-.17-.09-.26-.22-.26-.41a.15.15 0 0 1 .06-.12.13.13 0 0 1 .13-.01c.56.2 1.07.49 1.52.86a.41.41 0 0 0 .58-.05.67.67 0 0 0 .13-.58c-.06-.37-.14-.71-.22-1.03-.02-.08.01-.11.09-.1.28.06.56.06.83 0 .1-.12.31-.16.65-.11l.11-.74c0-.01 0-.02.02-.03l.03-.02h.03l.03.03.35.7c.15.05.31.04.48-.03.08-.04.1-.09.05-.16l-.17-.29a.33.33 0 0 1-.04-.16c-.01-.62-.1-1.2-.25-1.77-.02-.08 0-.13.1-.13.04 0 .09.01.13.03.07.03.11.09.11.17 0 .1.03.2.08.28.06.1.14.11.23.05.36-.23.6-.54.74-.92a.2.2 0 0 0-.02-.18Zm-2.32 1.39c-.21-.13-.67-.1-.92-.09a.06.06 0 0 1-.06-.03.07.07 0 0 1 0-.07c.08-.17.21-.22.4-.16.23.08.46.14.7.17.05 0 .08.03.08.08v.06c0 .05-.03.08-.09.08a.23.23 0 0 1-.1-.04Zm-1.68.95 1.2-.05a.06.06 0 0 1 .04.02.06.06 0 0 1 .01.05l-.11.75-.02.04a.06.06 0 0 1-.04 0l-.66-.01h-.03l-.02-.03-.41-.68a.06.06 0 0 1 .01-.08l.03-.01Z" fill="#068CAE"/><path d="M5.72 11.75c.18.08.33.11.34.08.02-.04-.11-.13-.29-.2-.17-.09-.33-.12-.34-.09-.02.04.11.13.29.21Z" fill="#8BC0D6"/><path d="M7.34 11.83a.03.03 0 0 1-.02.02.03.03 0 0 1-.02 0l-.15-.02c-.2-.04-.4-.1-.55-.14-.14-.04-.22-.08-.22-.1v-.04c0-.01.03-.02.07-.02h.18a4.04 4.04 0 0 1 .56.08l.15.03.02.02v.02l-.02.15Z" fill="#068CAE"/><path d="M7.99 11.77c.2 0 .42.01.63.05.06 0 .07.04.04.08l-.07.09a.13.13 0 0 1-.06.04c-.02.01-.05.01-.07 0l-.49-.15c-.22-.07-.21-.1.02-.11Z" fill="#8BC0D6"/><path d="M10.26 11.92c-.2.62.03.97.65 1.06l.01.01c.03.08 0 .14-.06.18a.3.3 0 0 1-.24.02 2.13 2.13 0 0 0-1-.11.12.12 0 0 1-.1-.05.13.13 0 0 1-.03-.12l.21-.9.56-.09ZM11.67 11.93a6.94 6.94 0 0 0 .38 1.99.1.1 0 0 1-.04.05c-.12.06-.22.03-.33-.07a.57.57 0 0 1-.16-.31 3.84 3.84 0 0 0-.58-1.5c-.04-.18.2-.23.73-.16Z" fill="#068CAE"/><defs><linearGradient id="a2nl2csgw" x1="3.35" y1="3.12" x2="21.9" y2="24.43" gradientUnits="userSpaceOnUse"><stop stop-color="#1A1E21"/><stop offset="1" stop-color="#06060A"/></linearGradient></defs></svg>