<!-- by TradingView --><svg width="18" height="18" fill="none" xmlns="http://www.w3.org/2000/svg"><path fill="url(#paint0_linear_1530)" d="M0 0h18v18H0z"/><path fill-rule="evenodd" clip-rule="evenodd" d="M9 5.4v1.484l-3 1.41v-1.51L9 5.4zm3 4.203v1.536L9 12.6v-1.564l3-1.433z" fill="#6C48B4"/><path fill-rule="evenodd" clip-rule="evenodd" d="M9 6.936V5.4l3 1.434v1.563l-3-1.46zM6 8.324V6.788l6 2.791v1.564L6 8.324zm0 1.279v1.536L9 12.6v-1.564L6 9.603z" fill="#8560FF"/><path fill-rule="evenodd" clip-rule="evenodd" d="M9 15A6 6 0 109 3a6 6 0 000 12zm0-.546A5.455 5.455 0 109 3.545a5.455 5.455 0 000 10.91z" fill="url(#paint1_linear_1530)"/><defs><linearGradient id="paint0_linear_1530" x1="3.349" y1="3.122" x2="21.904" y2="24.434" gradientUnits="userSpaceOnUse"><stop stop-color="#1A1E21"/><stop offset="1" stop-color="#06060A"/></linearGradient><linearGradient id="paint1_linear_1530" x1="9.318" y1="1.908" x2="8.22" y2="15" gradientUnits="userSpaceOnUse"><stop stop-color="#52B4FF"/><stop offset=".271" stop-color="#7768D8"/><stop offset=".568" stop-color="#FF4FC8"/><stop offset=".824" stop-color="#48D0FF"/><stop offset="1" stop-color="#5356F3"/></linearGradient></defs></svg>