<!-- by TradingView --><svg width="18" height="18" viewBox="0 0 18 18" xmlns="http://www.w3.org/2000/svg"><path fill="#181B1E" d="M0 0h18v18H0z"/><path d="M10.96 3.27c-.75-.06-1.4 0-1.68.77-.53 1.43.1 3.13.39 4.4.1.45.24.82.42 1.12a6.15 6.15 0 0 0 1.14 1.37c0 .04-.02.07-.05.08a4.4 4.4 0 0 1-1.51-1.77 6 6 0 0 1-.2-.95 12 12 0 0 0-.52-2.09c0-.04-.03-.04-.05 0-1.03 1.35-2.14 1.9-3.8 2.3L5 7.6c.46-.13.92-.27 1.37-.42.39-.13.67-.27.84-.4.7-.53 1.1-1.3.9-2.17-.14-.66-.56-.99-1.26-.97.65-.5 1.34-.68 2.15-.63.7.04 1.3.02 1.96.26Z" fill="#7F6C5C"/><path d="m10.96 3.27.44.16c-.17.04-.42.05-.77.02-1.4-.1-1.38 2.03-1.29 2.79.13 1 .58 1.1 1.4 1.45.2.08.4.25.63.51a.08.08 0 0 1 0 .1l-.03.02h-.09c-.03-.01-.04 0-.05.02l-.18.58.1.25c.02.04 0 .06-.04.05l-.51-.07c-.05 0-.06.01-.05.05.04.09.1.17.18.25.03.03.03.04-.02.04h-.06c-.04 0-.05.02-.04.05.1.43.29.83.54 1.2.03.03.06.05.1.06a1 1 0 0 0 .45-.04c.01 0 .02-.01.02-.03v-.03c0-.03-.02-.04-.05-.03-.28.1-.48.05-.6-.14-.16-.25-.16-.48-.02-.72.02-.02.01-.04-.01-.06l-.21-.16c-.04-.02-.04-.04-.02-.05h.03c.26.24.56.28.89.13.13-.06.26-.1.38-.1.05 0 .06.02.05.06-.14.46-.31 1.06-.68 1.41l-.27-.03c.03-.01.05-.04.05-.08v-.02l-.02-.03a6.15 6.15 0 0 1-1.12-1.32c-.18-.3-.32-.67-.42-1.11-.3-1.28-.92-2.98-.39-4.41.29-.77.93-.84 1.68-.77Z" fill="#9A826F"/><path d="M11.4 3.43a3.2 3.2 0 0 1 1.4 2.3l-.69.2a1 1 0 0 0 .18.69.26.26 0 0 0 .17.1.27.27 0 0 0 .2-.04l.13-.09c.05-.03.07-.02.06.04-.09.76-.43 1.34-1.03 1.75l-.52.01-.06.02a.11.11 0 0 0-.04.04c-.09.14-.15.3-.18.47l.18-.58c0-.02.02-.03.05-.02h.09l.04-.03a.07.07 0 0 0 0-.09 1.93 1.93 0 0 0-.63-.51c-.83-.36-1.28-.45-1.4-1.45-.1-.76-.13-2.9 1.28-2.79.35.03.6.02.77-.02Z" fill="#AD947F"/><path d="m5 7.6.05-.7c.49-.21.98-.4 1.48-.57.42-.14.69-.27.8-.38.2-.23.34-.5.4-.83 0-.04-.01-.07-.05-.1l-1.44-.85.61-.53c.7-.02 1.12.3 1.26.97.2.87-.2 1.64-.9 2.17-.17.13-.45.27-.84.4-.45.15-.91.3-1.37.42Z" fill="#9A826F"/><path d="m6.24 4.17 1.44.86c.04.02.05.05.04.1-.05.32-.18.6-.4.82-.1.11-.37.24-.8.38-.5.17-.98.36-1.47.58l.03-.3c.45-.18.9-.34 1.38-.46.6-.16.98-.33 1.14-.89v-.08a.14.14 0 0 0-.07-.07l-1.54-.73.25-.21Z" fill="#AD947F"/><path d="M5.08 6.62c.1-.83.4-1.58.91-2.24l1.54.73c.03.02.05.04.06.07.02.02.02.05.01.08-.16.56-.55.73-1.14.89-.47.12-.93.28-1.38.47Z" fill="#CCAC93"/><path d="m11.18 11.01.27.03a1.83 1.83 0 0 1-.6-.09c-.02.02-.02.03 0 .03l.7.1h.02c0 .01 0 .02-.02.02a7.6 7.6 0 0 1-.87.04h.02l.54.1c-1 .05-1.68-.48-2.5-.82-.23-.1-.28-.04-.15.16.16.25.38.47.67.67.33.24.6.53.8.87.02.03.04.03.06 0 .02-.01.02-.04 0-.07a1.7 1.7 0 0 0-.72-.87 2.08 2.08 0 0 1-.43-.36c-.02-.04-.01-.05.03-.04.06 0 .41.13 1.06.38a3.09 3.09 0 0 0 1.13.16c.04.08.04.08 0 0l-.8.03a.13.13 0 0 0-.1.05c-.07.08-.09.16-.05.22-.05.45-.05.8.02 1.04a5.25 5.25 0 0 0-.06-.03l-.12-.07a.1.1 0 0 0-.11 0 .99.99 0 0 0-.32.3c-.17.17-.31.39-.43.65-.06.13-.13.13-.2 0a2.95 2.95 0 0 0-.73-.86c-.26-.2-.6-.44-.83-.75-.38-.53-.6-1.17-1.1-1.62a.23.23 0 0 0-.19-.06.23.23 0 0 0-.09.03.21.21 0 0 0-.07.08c-.17.3-.1.75-.07 1.2.02.32.18.46.35.71l-.3-.3a.65.65 0 0 1-.14-.36l-.05-.47-.7-2.6c1.66-.41 2.77-.96 3.8-2.32.02-.03.04-.03.05.01a12 12 0 0 1 .52 2.09 6 6 0 0 0 .2.95c.27.71.91 1.34 1.5 1.77Z" fill="#69594C"/><path d="M12.11 5.93c0 .12.01.17.05.15.35-.1.6-.02.75.28.1.36.12.7.04 1.02-.19.77-.3 1.32-.36 1.63v-.14l-.02-.02s-.02 0-.03.02a8.62 8.62 0 0 0-.22.23c-.03.04-.05.03-.05-.01v-.3c0-.03-.02-.06-.06-.06l-.23-.02.28-.13c.18-.09.17-.14-.03-.16l-.4-.04c.59-.4.93-1 1.02-1.75.01-.06-.01-.07-.06-.04l-.13.09a.27.27 0 0 1-.2.04.27.27 0 0 1-.17-.1 1 1 0 0 1-.18-.69Z" fill="#9A826F"/><path d="m11.82 8.38.4.04c.21.02.22.07.04.16l-.28.13-.51.44a.1.1 0 0 0-.02.11c0 .02.02.04.04.05a.1.1 0 0 0 .06.01l.66-.06c.02.04.02.04 0 0a.49.49 0 0 1-.2.07.08.08 0 0 0-.08.06c-.04.11-.11.2-.23.28-.33.15-.63.11-.89-.13h-.03c-.02 0-.02.03.02.05l.2.16c.03.02.04.04.02.06-.14.24-.14.47.02.72.12.2.32.24.6.14.03-.01.05 0 .05.03v.03c0 .02 0 .03-.02.03a1 1 0 0 1-.45.04.14.14 0 0 1-.1-.06 3.69 3.69 0 0 1-.54-1.2c0-.03 0-.04.04-.04h.06c.05 0 .05-.02.02-.05a.67.67 0 0 1-.18-.25c-.01-.04 0-.06.05-.05l.5.07c.05.01.07 0 .05-.05l-.1-.25c.03-.18.1-.33.18-.47a.11.11 0 0 1 .04-.04l.06-.02h.52Z" fill="#69594C"/><path d="m11.98 8.7.23.03c.04 0 .06.03.06.07v.29c0 .04.02.05.05.01a7.8 7.8 0 0 1 .25-.25l.01.02c.01.04.01.09 0 .14a4 4 0 0 1-.52 1.23c-.13.2-.17.38-.23.6-.02.09-.12.21-.29.37l-.3.03a6.26 6.26 0 0 0-.56-.12 7.62 7.62 0 0 0 .89-.04h-.02l-.7-.1c-.02 0-.02-.01 0-.03h.01c.2.06.39.1.59.09.37-.35.54-.95.68-1.4.01-.05 0-.07-.05-.07-.12 0-.25.04-.38.1.12-.08.2-.17.23-.28a.08.08 0 0 1 .08-.06.48.48 0 0 0 .2-.07c.02.04.02.04 0 0l-.66.06a.1.1 0 0 1-.06-.01.1.1 0 0 1-.04-.05.1.1 0 0 1 .02-.1l.5-.45ZM9.65 12.86c-.18.38-.37.67-.56.87-.06.06-.18.1-.35.13a.1.1 0 0 1-.1-.04 5.5 5.5 0 0 1-.17-.3c-.18-.35-.73-.36-1.06-.21l-1.12-1.07c-.17-.25-.33-.4-.35-.7-.04-.46-.1-.9.07-1.21a.22.22 0 0 1 .17-.11.23.23 0 0 1 .18.06c.5.45.72 1.1 1.1 1.62.23.3.57.54.83.75.31.25.55.55.73.86.07.13.14.13.2 0 .12-.26.26-.48.43-.65Z" fill="#7F6C5C"/><path d="M10.2 12.63a4.5 4.5 0 0 1-.97 1.53l.06.06c0 .11-.14.11-.42 0 .03-.04.02-.09-.04-.13a6.66 6.66 0 0 0-1.36-.7.23.23 0 0 1-.06-.08c.33-.15.88-.14 1.06.22a5.5 5.5 0 0 0 .21.32.1.1 0 0 0 .06 0c.17-.02.29-.06.35-.12.19-.2.38-.49.56-.87a.98.98 0 0 1 .32-.3.1.1 0 0 1 .1 0l.13.07Z" fill="#AD947F"/><path d="m10.2 12.63.06.03c.03.01.05.04.07.08l.16 2.06-.12.03c-.12-.24-.3-.43-.53-.57-.13-.07-.33-.1-.6-.1.44-.48.76-.99.96-1.53ZM8.87 14.22l-.5.3-.9-1.13c.49.18.94.42 1.36.7.06.04.07.09.04.13Z" fill="#E2F0F9"/><path d="M9.29 14.22c.06.07.14.11.26.12.4.03.52.25.4.65L8.87 15a.42.42 0 0 0-.13-.11c-.17-.1-.27-.23-.37-.38l.5-.29c.28.11.42.11.42 0Z" fill="#2B80CC"/><path d="M10.43 5.76a.9.9 0 0 0-.43.22c-.03.02-.06.02-.09 0l-.03-.04c-.02-.01-.02-.03-.01-.05.28-.53 1.03-.5 1.35-.03.05.07.05.13 0 .19-.02.03-.06.04-.1 0a.37.37 0 0 0-.27-.06c-.05.01-.1 0-.13-.04l-.15-.14a.17.17 0 0 0-.14-.05Z" fill="#69594C"/><path d="M10.45 6.5c.1-.04.16-.12.13-.2-.03-.07-.13-.11-.23-.08s-.15.12-.13.2c.03.07.13.1.23.07Z" fill="#151518"/><path d="m11.14 6.54-.5.48a.21.21 0 0 1-.25.03l-.67-.37c-.05-.02-.07-.06-.06-.12l.03-.07c.02-.04.05-.05.1-.04.4.1.8.08 1.22-.04.02-.01.05 0 .07.02l.06.05a.04.04 0 0 1 .01.03.04.04 0 0 1-.01.03Z" fill="#CCAC93"/><path d="M12.38 6.34c-.06.07-.06.17 0 .22.06.05.16.04.22-.03.07-.07.07-.17 0-.22-.05-.05-.15-.04-.22.03Z" fill="#151518"/></svg>