<!-- by TradingView --><svg width="18" height="18" viewBox="0 0 18 18" xmlns="http://www.w3.org/2000/svg"><path fill="#2F8FF2" d="M0 0h18v18H0z"/><path d="M6.16 8.4 4.73 9.42h-.38l-.17.56.05.68.5 1.31 1.18 2.08 1.26.65 1.67.2 2.17-.31 2.87-1.14v-.76l-.2-.88-.93-1.67-.42-1.25-2.9-.75-2.75.16-.52.1Z" fill="#181818"/><path d="m11.12 12.12-.28-.57.5.06.36.31c0 .02-.39.15-.58.2Z" fill="#FFD0B1"/><path d="M7.37 5.02c-.24 1.04.8 2.18 1.35 2.62l.85.13c.16.02.6-.36 1.08-2.1.48-1.76-1.01-2.42-1.82-2.53-.38.2-1.21.83-1.46 1.88Z" fill="#D9BFAC"/><path d="M9.77 5.78c-.04.1-.13.22-.17.27-.03 0-.02-.11.03-.22.05-.08.05-.49.04-.68l.14-.12c0 .2 0 .65-.04.75Z" fill="#C4AA98"/><path d="M7.8 5.5c0 1.2.8 1.96 1.2 2.19l.25.14c.02.14.02.45-.03.58-.05.13-.3.52-.4.7l-2.13-.7a2.72 2.72 0 0 1-.29-.93c-.08-.6-.46-2.66.37-3.57a2.76 2.76 0 0 1 2.1-.79A3.27 3.27 0 0 0 7.8 5.5Z" fill="#C4A695"/><path d="m8.69 9.14-.19.32.2.5c.04.05.43.4.49.41.06.02.15-.02.15-.06l-.1-1.23-.18-.14-.37.2Z" fill="#1499F0"/><path d="M6.6 6.26c.02 1.07.51 2.05.76 2.42-.41-.11-.68-.33-.76-.42a9.25 9.25 0 0 1-.37-2.95c.12-.9.66-1.6.92-1.84-.2.47-.57 1.7-.55 2.79Z" fill="#94776B"/><path d="m7.96 7.32.14.8c0 .07.04.2.12.2.09.01.06-.27 0-.44a12.1 12.1 0 0 0-.26-.56Zm.85 1.12c.15-.07.41-.25.2-.37-.26-.16-.63-.4-.64-.72 0 .03.1.14.41.27.3.13.46.32.5.4l.02.22c-.1.05-.32.16-.5.2Z" fill="#9A7A66"/><path fill-rule="evenodd" d="M8.65 3.24c.48 0 1.54.29 1.87 1.55h-.06a.4.4 0 0 0-.12-.03c-.05 0-.1.01-.14.03h-.6a.54.54 0 0 0-.33-.1.95.95 0 0 0-.42.1H8.4v.27h.3v.14h.13v.14h.16v.13h.55v-.13h.1V5.2h.16v-.14h.1l.18.92h-.45c-.04 0-.07.03-.07.07 0 .04.03.07.07.07h.26l-.04.02c-.03.02-.04.06-.02.1.02.03.06.04.1.02l.27-.15.05-.03-.17-.88h.02v.14h.15v.13h.3a2.98 2.98 0 0 1-.28 1.17 3.01 3.01 0 0 1-.26.54l-.02.04-.1.2c-.1.14-.22.25-.41.25a1.6 1.6 0 0 1-.83-.26.14.14 0 0 0-.18.02.11.11 0 0 0 .02.17c.1.07.32.2.6.26l.1.39c-.03.13-.16.4-.42.73h-.03a30.29 30.29 0 0 0-1.03-.25c-.38-.09-.76-.31-.98-.48-.09-.34-.25-1.03-.28-1.35a6.91 6.91 0 0 1-.11-1.4c0-.35.1-.92.43-1.4.34-.47.9-.86 1.87-.86Zm0-.24c.59-.01 1.8.35 2.14 1.8h.37v.26h-.12v.14h-.1v.14h-.12a3.56 3.56 0 0 1-.53 1.84.66.66 0 0 0-.03.08l-.02.05-.13.24a.73.73 0 0 1-.63.36h-.11l.01.04.62.2.02.04 2.37.6.2.68c.1.11.17.27.22.42.06.15.1.3.12.41.16.26.53.87.83 1.41.16.3.22.65.24.97.01.31-.02.6-.06.77v.04l-.04.03c-.3.22-.86.45-1.38.64-.34.12-.68.24-.95.32l-.34.12c-.5.18-1.8.48-3.06.38a3.57 3.57 0 0 1-2.54-1.13A5.6 5.6 0 0 1 5 12.9a9.98 9.98 0 0 1-.95-2.31c-.03-.15-.05-.3-.04-.41.02-.25.06-.45.13-.59a.56.56 0 0 1 .25-.3l1.57-.8.48-.32c-.09-.37-.22-.94-.24-1.24l-.04-.34c-.04-.27-.07-.56-.07-1.08 0-.38.1-1 .47-1.53.38-.53 1.03-.97 2.1-.97Zm1.54 5.48.53.93-.26.06.38.22-.46 1.63c.1 0 .23.03.34.1.2.01.52.06.83.2a5.8 5.8 0 0 1-.08-.41.8.8 0 0 1 0-.2.63.63 0 0 1 .07-.2l.1-.17.03-.03c.08-.14.18-.3.25-.51.01-.06.08-.1.14-.07.06.01.1.07.08.13-.07.23-.18.41-.27.55l-.02.04-.1.15a.44.44 0 0 0-.05.14v.15a3.04 3.04 0 0 0 .12.56 1.81 1.81 0 0 1 .65-.13c.07 0 .12.05.12.11s-.06.1-.13.1-.14 0-.21.02c.19.02.39.08.58.16.06.03.08.1.05.15a.12.12 0 0 1-.15.05 2.13 2.13 0 0 0-1.53-.04c.13.32.24.73.27 1.18 0 .06-.04.1-.1.11-.07 0-.13-.04-.13-.1a3.45 3.45 0 0 0-.6-1.72l-1.47.23a.12.12 0 0 1-.12-.04l-1.04.27-.27-.09-.25.11-1.22-1.44a.1.1 0 0 1 .02-.15.13.13 0 0 1 .17.02l1.1 1.3.17-.07.29.1.81-.22-2.2-1.33.27-.49-.59-.08-.33-1.03-1.47.76c-.04.01-.09.06-.14.18-.05.11-.08.28-.1.52-.01.08 0 .2.03.34l.13.47a9.76 9.76 0 0 0 1.4 2.7 3.3 3.3 0 0 0 2.37 1.04c1.2.1 2.46-.2 2.94-.37l.36-.12.92-.32c.5-.18 1-.38 1.27-.57.03-.16.05-.4.04-.67-.01-.3-.07-.61-.21-.87-.3-.55-.68-1.17-.83-1.42l-.01-.02v-.02l-.12-.4a1.2 1.2 0 0 0-.19-.36l-.01-.02-.18-.6-2-.5Zm.76 3.18c.18.03.4.1.59.2l-.43.1a2.56 2.56 0 0 0-.16-.3Zm-1.78-.08-2.2-1.33.32-.6-.77-.1-.31-.95.3-.2c.23.18.62.43 1.06.54l2.46 2.44-.86.2Zm.99-.43.38-1.35-.75-.42.54-.13-.52-.91-.36-.11v.03c-.01.08-.05.2-.13.35l.2 1.9.64.64Zm-1-1.46.04.34-.03-.02-.1-.28s-.02-.03-.06-.02c-.04 0-.03.05-.02.07l.08.25-.01.03-.22-.22c.04-.08.1-.18.15-.2.05-.01.12.01.18.05Zm-.06.41.1-.02.02.14-.12-.12Zm.04-.65-.04-.47-.17.21-.04.05H8.8a.29.29 0 0 1-.04-.01h-.03l-.12.19.22.19c0-.04.03-.1.12-.1l.15.01.04-.07Zm-.68-.3-.43-.1.33.32.1-.22Zm-.72 2.97c.06.01.1.07.08.13-.1.34-.34.69-.44.82a.13.13 0 0 1-.17.02.1.1 0 0 1-.02-.15c.1-.12.32-.44.4-.74.02-.06.08-.1.15-.08ZM10.2 6.5c.02.02.02.07 0 .1a.23.23 0 0 1-.16.06.32.32 0 0 1-.04.03.27.27 0 0 1-.37-.04.58.58 0 0 1-.15-.03c-.04-.01-.06-.05-.04-.09.01-.03.05-.05.1-.04l.1.02c.05 0 .08 0 .1-.02l.02-.01h.21l.03.02.03.02.06-.02a.08.08 0 0 1 .1 0Zm-.49.14c.04.03.08.05.13.05a.2.2 0 0 0 .13-.05.22.22 0 0 1-.06-.03h-.1a.28.28 0 0 1-.1.03Zm1.04 6.24c0 .1-.09.19-.2.19-.11 0-.2-.08-.2-.19 0-.1.09-.18.2-.18.11 0 .2.08.2.18Zm-.12 0c0 .04-.04.07-.08.07s-.08-.03-.08-.07c0-.03.04-.07.08-.07s.08.04.08.07Z"/></svg>