<!-- by TradingView --><svg width="18" height="18" viewBox="0 0 18 18" xmlns="http://www.w3.org/2000/svg"><path fill="url(#abi3y5sfm)" d="M0 0h18v18H0z"/><path d="M12.84 8.9c.47-.95-.16-1.7-1.15-2.35l.78-1.23-.8-.44-.76 1.2-.64-.35.76-1.2-.8-.45-.78 1.24-.5-.28-1.11-.61-.5.8.58.32c.32.18.32.41.25.58l-.87 1.4.08.06-.1-.04-1.22 1.97c-.08.08-.23.2-.46.07 0 .02-.58-.3-.58-.3l-.72.8 1.04.57.57.32-.78 1.25.8.44.77-1.24.64.36-.77 1.23.8.44.78-1.25c1.4.67 2.54.88 3.4-.25.69-.9.47-1.59-.18-2.19.6.04 1.13-.2 1.47-.88Zm-2.79 2.04c-.58.94-2.22-.1-2.76-.4l1.03-1.66c.55.3 2.34 1.1 1.73 2.06Zm1.09-2.53c-.53.84-1.9-.04-2.34-.28l.93-1.5c.46.25 1.96.9 1.4 1.78Z" fill="#A86413"/><path d="M12.54 8.8c.47-.93-.16-1.68-1.15-2.34l.77-1.23-.8-.44-.75 1.2-.64-.34.76-1.21-.8-.44-.78 1.23-.5-.27-1.11-.62-.5.8.58.33c.32.18.31.41.25.58L7 7.45l.09.06-.1-.05-1.23 1.97c-.07.1-.22.21-.45.08 0 .02-.58-.31-.58-.31L4 10l1.04.58.57.32-.78 1.24.8.44.77-1.23.64.36-.77 1.23.8.44.78-1.25c1.4.67 2.54.87 3.4-.25.68-.9.47-1.6-.18-2.19.6.04 1.13-.2 1.47-.88Zm-2.79 2.06c-.58.94-2.22-.11-2.76-.4L8.02 8.8c.55.3 2.34 1.09 1.73 2.06Zm1.09-2.54c-.53.85-1.9-.03-2.34-.28l.93-1.5c.46.25 1.96.9 1.4 1.78Z" fill="#fff"/><circle cx="11.5" cy="12.5" r="1.5" fill="#FBC22B" fill-opacity=".6"/><defs><linearGradient id="abi3y5sfm" x1="14.46" y1="1.77" x2="2.73" y2="15.91" gradientUnits="userSpaceOnUse"><stop stop-color="#FFB301"/><stop offset="1" stop-color="#FF890A"/></linearGradient></defs></svg>