<!-- by TradingView --><svg width="18" height="18" viewBox="0 0 18 18" xmlns="http://www.w3.org/2000/svg"><path fill="#E91179" d="M0 0h18v18H0z"/><path d="M10.6 7.05C10.55 6.3 9.83 6 9.13 6c-.57 0-1.34.2-1.35.86-.02.51.39.76.8.9.18.07.38.12.6.17l.84.19c.48.1.91.24 1.28.42.37.17.68.38.93.62.26.24.45.52.58.83.13.32.2.67.2 1.06 0 .62-.16 1.14-.47 1.58-.3.45-.75.78-1.33 1.02-.57.23-1.27.35-2.08.35-1.7 0-3.82-.85-4.12-2.95l2.3-.42c.07 1 .93 1.37 1.8 1.37.67 0 1.43-.2 1.44-.95 0-.45-.21-.65-.62-.82a5.3 5.3 0 0 0-.88-.27l-1.02-.24c-.84-.19-1.5-.5-2-.93a2.23 2.23 0 0 1-.72-1.76c0-.6.16-1.13.49-1.59.32-.45.78-.8 1.36-1.06A4.88 4.88 0 0 1 9.12 4c1.32 0 2.9.7 3.68 2.4l-2.2.65Z" fill="#fff"/></svg>