<!-- by TradingView --><svg width="18" height="18" xmlns="http://www.w3.org/2000/svg"><path fill="#38276D" d="M0 0h18v18H0z"/><path d="M5.728 7.76a.653.653 0 010-.92l3.625-3.65a.642.642 0 01.912 0 .653.653 0 010 .919L6.64 7.759a.642.642 0 01-.913 0z" fill="#fff"/><path d="M12.273 10.24a.653.653 0 010 .919l-3.624 3.65a.642.642 0 01-.913 0 .653.653 0 010-.918l3.625-3.65a.642.642 0 01.912 0zm-6.779.78a.653.653 0 010-.92l2.294-2.31a.642.642 0 01.912 0 .653.653 0 010 .919l-2.294 2.31a.642.642 0 01-.912 0z" fill="#fff"/><path d="M12.506 6.98a.653.653 0 010 .92l-2.294 2.31a.642.642 0 01-.912 0 .653.653 0 010-.919l2.294-2.31a.642.642 0 01.912 0z" fill="#A674FF"/></svg>