<!-- by TradingView --><svg width="18" height="18" viewBox="0 0 18 18" xmlns="http://www.w3.org/2000/svg"><path fill="#F0F3FA" d="M0 0h18v18H0z"/><path d="M10.54 4.05c-.97.25-1.55 1.15-1.4 2.2.1.6.41 1.33.87 1.94.3.42.55.66 1.25 1.24.97.8 1.3 1.22 1.4 1.81.1.56-.11 1.15-.55 1.58-.3.29-.78.55-1.13.62a8.01 8.01 0 0 1-5.75-1.37c-.22-.18-.22-.18.02-.1.3.12.84.1 1.54-.06.78-.16 1.31-.2 1.74-.1.42.1 1.09.42 1.63.8l.48.33c.1.06-.26-.53-.46-.78-.43-.53-1-.92-1.6-1.07a3.43 3.43 0 0 0-1.77.12c-.04.02-.22-.11-.57-.4a4.28 4.28 0 0 1-1.6-2.22l.23.16c.13.1.38.26.56.36.3.18.48.26 1.7.8a6 6 0 0 1 1.51.89c.23.2.24.2.2.09-.15-.63-.76-1.24-1.72-1.74-.43-.22-.6-.34-.97-.66A3.74 3.74 0 0 1 4.72 6.3l-.14-.56c-.02-.06.03-.03.19.1.37.32.7.53 1.66 1.02 1.06.54 1.4.75 1.72 1.07.32.3.45.5.75 1.2.32.76.63 1.27.98 1.64.46.49.9.7 1.41.7.38 0 .44-.05.13-.11-.85-.16-1.36-.8-1.91-2.4a3.59 3.59 0 0 0-.72-1.4c-.5-.55-1.2-.93-2.58-1.44a6.51 6.51 0 0 1-2.05-1.07l.06.2c.03.11.09.5.12.88.09.98.26 1.42.77 1.97.15.15.26.27.24.27A6.03 6.03 0 0 1 4 7.6l.1.3c.06.16.15.52.2.8.06.27.15.6.2.73.3.74.88 1.3 1.74 1.7.36.17.37.16-.24.36-.47.16-.88.19-1.17.08-.1-.03-.17-.05-.18-.04-.05.05.3.52.6.83a6.12 6.12 0 0 0 3.72 1.6c.8.1 1.52.01 2.43-.27.58-.19.89-.36 1.22-.68.47-.46.67-.95.67-1.61 0-.93-.34-1.48-1.57-2.54-.69-.6-.98-.91-1.24-1.3-.44-.69-.59-1.1-.59-1.68 0-.4.01-.44.12-.63.2-.37.57-.58 1.02-.59.35 0 .63.1.92.31.31.23.44.43.47.73.04.31.2.86.33 1.1.05.12.16.26.24.34l.35.35c.22.23.58.43.65.36.03-.03 0-.12-.07-.26-.15-.31-.17-.52-.09-.78.17-.5-.11-1.04-.73-1.4a.88.88 0 0 1-.26-.28c-.47-.83-1.46-1.3-2.3-1.08Z" fill="url(#a4t3wfp15)"/><defs><linearGradient id="a4t3wfp15" x1="3.57" y1="5.3" x2="12.32" y2="13.17" gradientUnits="userSpaceOnUse"><stop stop-color="#0EF1A9"/><stop offset="1" stop-color="#DB20FE"/></linearGradient></defs></svg>