<!-- by TradingView --><svg xmlns="http://www.w3.org/2000/svg" width="18" height="18" viewBox="0 0 18 18" fill="none"><path fill="#3CE35F" d="M0 0h18v18H0z"/><circle cx="11.67" cy="4.91" r="1.06" stroke="#fff" stroke-width=".7"/><path d="M10.06 9a1.06 1.06 0 1 1-2.12 0 1.06 1.06 0 0 1 2.12 0zM7.4 13.09a1.06 1.06 0 1 1-2.14 0 1.06 1.06 0 0 1 2.13 0z" stroke="#fff" stroke-width=".7"/><path d="M5 6.96a2.4 2.4 0 0 1 2.4-2.4h3.17v.7H7.4a1.7 1.7 0 1 0 0 3.39h.51v.7h-.5A2.4 2.4 0 0 1 5 6.95zM13 11.04a2.4 2.4 0 0 1-2.4 2.4H7.44v-.7h3.18a1.7 1.7 0 0 0 0-3.4h-.51v-.7h.5a2.4 2.4 0 0 1 2.4 2.4z" fill="#fff"/></svg>