<!-- by TradingView --><svg width="18" height="18" viewBox="0 0 18 18" xmlns="http://www.w3.org/2000/svg"><path fill="#000563" d="M0 0h18v18H0z"/><path d="M13.5 6c.19 0 .5 0 .5-.5s-.31-.5-.5-.5h-9c-.19 0-.5 0-.5.5s.31.5.5.5h4v6.5c0 .17.1.5.5.5s.5-.33.5-.5V6h4Z" fill="#F0F3FA"/><path d="M7.67 7H4.5c-.5 0-.5.33-.5.5 0 .17 0 .5.5.5H7v1.5H4.5c-.18 0-.5 0-.5.5s.32.5.5.5H7V12H4.5c-.5 0-.5.33-.5.5 0 .17 0 .5.5.5h3.17a.3.3 0 0 0 .27-.16.3.3 0 0 0 .06-.18V7.34a.3.3 0 0 0-.07-.19.3.3 0 0 0-.26-.15ZM13.5 8c.33 0 .5-.33.5-.5 0-.17-.17-.5-.5-.5h-3.14a.36.36 0 0 0-.3.15.3.3 0 0 0-.06.19v5.32c0 .07.02.13.06.18.06.1.14.16.27.16h3.17c.33 0 .5-.33.5-.5 0-.17-.17-.5-.5-.5H11v-1.5h2.5c.5 0 .5-.34.5-.5 0-.16 0-.5-.5-.5H11V8h2.5Z" fill="#F0F3FA"/></svg>