<!-- by TradingView --><svg width="18" height="18" fill="none" xmlns="http://www.w3.org/2000/svg"><path fill="#F0F3FA" d="M0 0h18v18H0z"/><g opacity=".6"><circle cx="9" cy="9" r="8.875" stroke="#E0E3EB" stroke-width=".25"/><rect x="3.05" y="5.05" width="11.9" height="7.9" rx=".95" stroke="#E0E3EB" stroke-width=".1"/><rect x="2.05" y="6.05" width="13.9" height="5.9" rx=".95" stroke="#E0E3EB" stroke-width=".1"/><rect x="4.05" y="4.05" width="9.9" height="9.9" rx=".95" stroke="#E0E3EB" stroke-width=".1"/><rect x="5.05" y="3.05" width="7.9" height="11.9" rx=".95" stroke="#E0E3EB" stroke-width=".1"/><rect x="6.05" y="2.05" width="5.9" height="13.9" rx=".95" stroke="#E0E3EB" stroke-width=".1"/><circle cx="9" cy="9" r="4.875" stroke="#C1C4CD" stroke-width=".25"/></g><rect x="4" y="4" width="6.765" height="2" rx="1" fill="#30BFC5"/><rect x="4" y="7" width="4.86" height="2" rx="1" fill="#30BFC5"/><rect x="10" y="4" width="4" height="2" rx="1" fill="#FCB426"/><path d="M5.997 8a1 1 0 011-1H13a1 1 0 110 2H6.997a1 1 0 01-1-1z" fill="#FCB426"/><path d="M10 5.059c0-.702-.4-.998-.654-1.059H11.2c.843 0 .799.95.799 1.52v7.308c0 1.777-2.358 2.143-2.947 2.143l-1.164-.81.11-1.327.001-.006v.006c-.009.134.074 1.14 1 1.166.943.026 1.004-1.066 1-1.172v-7.77z" fill="#8B80B0"/><path d="M6 8.256C6.035 7.34 5.756 7.037 5.518 7h.646C7.061 7 8 7.993 8 8.503v4.41c0 1.286 1.636 1.767 2.044 1.868-.443.229-.913.219-1.17.219C7.499 15 6 14.245 6 12.85V8.255z" fill="#4D4285"/></svg>