<!-- by TradingView --><svg width="18" height="18" viewBox="0 0 18 18" xmlns="http://www.w3.org/2000/svg"><path fill="#FCCDD3" d="M0 0h18v18H0z"/><path d="M11.1 6.28c.3-.02.58.03.82.13.36.16.69.41 1.01.66.24.17.4.32.52.45.5.56.66 1.22.48 1.98-.07.32-.21.66-.37.95-.26.46-.57.89-.93 1.28-.64.7-1.54 1.2-2.46 1.54-.66.24-1.36.42-2.1.54-.88.14-1.77.2-2.67.19a.21.21 0 0 1-.12-.04l-.84-.56c-.07-.05-.07-.1-.08-.17A13.7 13.7 0 0 1 4 9.73c.02-.79.14-1.53.36-2.23.18-.6.46-1.18.83-1.65C6 4.79 7.37 3.6 8.85 4.13c.19.06.37.15.55.25.46.28.86.56 1.18.85.28.25.44.59.49 1.03 0 .01 0 .02.02.02Z" fill="#281C21"/><path d="M9.27 4.43c-.03.02-.07.03-.1.02-.08-.04-.16-.08-.26-.1a3.05 3.05 0 0 0-1.16.02 3.65 3.65 0 0 0-.81.34c-.36.22-.7.48-1 .8-.13.14-.26.28-.37.43-.22.31-.4.63-.56.94-.1.2-.18.4-.26.61-.08.2-.16.48-.23.84l-.27.02-.01-.01c.06-.32.14-.64.25-.96.24-.73.63-1.38 1.16-1.93.39-.42.81-.8 1.3-1.06.18-.09.38-.16.6-.22a2.13 2.13 0 0 1 1.72.26Z" fill="#FED8D0"/><path d="M9.27 4.43c.49.28.75.69.79 1.24.03.36-.02.7-.15 1.02-.01.03 0 .04.03.02.2-.11.41-.2.62-.26.58-.16 1.17-.13 1.64.26a2.11 2.11 0 0 1 .73 1.14l-.86.06a.02.02 0 0 1-.01 0v-.02c.02-.26 0-.64-.26-.78-.56-.31-1.35.12-1.8.5a1.6 1.6 0 0 0-.25.24h-.03c-.22-.08-.61-.11-.8.08h-.03c-.47-.34-1.13-.75-1.73-.57-.37.11-.52.5-.58.84 0 0-.01.02-.03.02l-2.03.11c.07-.36.15-.64.23-.84.08-.2.16-.41.26-.61.15-.31.34-.63.56-.94a4.7 4.7 0 0 1 1.77-1.43c.14-.06.27-.1.41-.14.4-.08.79-.08 1.16-.02.1.02.18.06.26.1.03 0 .07 0 .1-.02Z" fill="#FFB8D0"/><path d="M10.15 5v.04l.01.05.15.2a1.91 1.91 0 0 1 .36.68c0 .12.03.24.06.35a4 4 0 0 0-.67.2c.17-.55.14-1.16-.17-1.66a.38.38 0 0 0-.07-.08h.02l.3.22Z" fill="#FE91B6"/><path d="M10.15 5c.15.12.32.24.45.37.22.24.35.54.37.9l-.01.01-.23.04a1.3 1.3 0 0 1-.06-.35 1.91 1.91 0 0 0-.36-.68l-.15-.2v-.08L10.14 5Z" fill="#FD70B6"/><path d="M12.54 6.9c.2.14.4.28.59.44a2.15 2.15 0 0 1 .73 1.15.01.01 0 0 1-.02 0l-.78-.6a.06.06 0 0 1-.02-.03 2.03 2.03 0 0 0-.5-.97Z" fill="#FE91B6"/><path d="M11.3 9.02c-.04-.2-.02-.41.06-.63l.23-.6c.07-.17.11-.38-.04-.5a1.44 1.44 0 0 0-.24-.18c.14-.02.28 0 .4.07.36.17.25.8.18 1.1-.08.28-.13.57-.14.85 0 .02 0 .02-.02.01-.13-.08-.28-.1-.43-.12Z" fill="#BBAAE0"/><path d="M11.3 7.11c.1.05.17.1.25.17.15.13.11.34.04.5l-.23.61c-.08.22-.1.43-.06.63L10.88 9c-.41.01-.74.09-1.17.19-.06-.17-.03-.34.08-.53a1.91 1.91 0 0 1 .92-.3c-.3-.05-.6.02-.87.16-.02 0-.02 0-.01-.01.22-.32.48-.57.77-.77a2.27 2.27 0 0 0-.93.8c-.01.02-.03.02-.03 0a.7.7 0 0 1 .05-.4c.08-.16.19-.3.33-.42.27-.23.58-.4.93-.53.11-.04.23-.06.36-.07Z" fill="#CECCFD"/><path d="M7.36 7.42c0 .02-.02.04-.04.04v.01l-.01.01c-.15.04-.25.1-.31.2-.1.13-.15.32-.16.5l-.02.32c0 .16.03.31 0 .47V9a3.4 3.4 0 0 1-.13.2c-.08.15-.06.27.05.35l.06.15c0 .01 0 .02-.02 0-.2-.13-.32-.34-.18-.57.04-.07.08-.14.07-.24-.05-.5-.02-1.41.69-1.47Z" fill="#FDE7CD"/><path d="M7.36 7.42c.23-.02.47.04.67.13a3.75 3.75 0 0 1 .8.49l-.08.35h-.02c-.24-.26-.79-.48-1.14-.41-.04 0-.04 0 0 .02.36.06.7.18 1.04.37l-.02.04c-.33-.1-.89-.17-1.15.09.13-.04.24-.07.36-.08.18-.02.42 0 .74.05a1.76 1.76 0 0 0-.02.61.04.04 0 0 1-.02.03H8.5l-.9-.09c-.24-.01-.42 0-.55.04a.41.41 0 0 0-.25.27c-.05.05-.07.12-.06.22-.11-.08-.13-.2-.05-.36a3.45 3.45 0 0 0 .14-.22c.02-.16-.02-.31 0-.47l.01-.33c0-.17.07-.36.16-.5.06-.08.16-.15.3-.19h.01v-.02h.01c.02 0 .03-.02.04-.04ZM9.44 7.9a.94.94 0 0 0-.06.48c.01.09.04.18-.01.27a.88.88 0 0 0-.09.17 1.2 1.2 0 0 0-.05.5c-.18 0-.36 0-.39-.2-.03-.32-.03-.73.1-1.04.02-.06.06-.1.12-.13a.65.65 0 0 1 .38-.05Z" fill="#CECCFD"/><path d="m9.44 7.9.21.04a.02.02 0 0 1 .01 0 .02.02 0 0 1 0 .02c-.12.23-.17.42-.1.68v.04a.63.63 0 0 0-.1.56c0 .01 0 .02-.02.02a.42.42 0 0 1-.21.07c-.02-.18 0-.35.05-.51.02-.04.04-.1.09-.17.05-.09.02-.18 0-.27a.94.94 0 0 1 .07-.48Z" fill="#BBAAE0"/><path d="M11.98 8.32c.03-.11.05-.22.06-.34 0-.01.01-.02.03-.02l.87-.04.02.01a2.13 2.13 0 0 1-.03.89h-.02l-1.01.07c-.02 0-.02 0-.02-.02.01-.19.05-.37.1-.55Z" fill="#CECCFD"/><path d="M8.73 8.39v.02A3.41 3.41 0 0 0 7.58 8c-.03-.01-.03-.02 0-.02.36-.07.9.15 1.15.41Z" fill="#281C21"/><path d="M13.54 8.34c0 .3-.02.56-.08.81l-.42-.31a.03.03 0 0 1-.01-.03c.06-.28.07-.55.03-.82h.01l.47.35ZM4.39 9.4c-.01-.09 0-.18 0-.28l.13-.73 2.03-.11c.02 0 .02 0 .02.02-.01.16-.02.33-.01.49 0 .08.03.17-.02.24a.87.87 0 0 0-.09.2c0 .02-.01.03-.03.03l-2.03.14Z" fill="#CECCFD"/><path d="m8.61 8.41.1.05c.01 0 .02 0 .01.01v.02H8.7a3.32 3.32 0 0 0-.89-.07 1.27 1.27 0 0 0-.36.08c.26-.26.82-.19 1.15-.09Z" fill="#281C21"/><path d="m13.54 8.34.32.24a.08.08 0 0 1 .03.05 2.63 2.63 0 0 1-.04.8.02.02 0 0 1-.02 0l-.37-.28c.06-.25.09-.52.08-.8ZM8.63 8.37c.04 0 .07.02.1.04v-.02h.02a3.1 3.1 0 0 0 0 .78.02.02 0 0 1-.02 0l-1.08-.03c-.3 0-.6.03-.85.19a.41.41 0 0 1 .25-.27c.13-.04.31-.05.55-.04a19.78 19.78 0 0 1 .93.08.04.04 0 0 0 .02-.04c-.03-.2-.03-.4.01-.59.05 0 .1 0 .15.02l.01-.02-.1-.06.01-.04Z" fill="#BBAAE0"/><path d="m4.52 8.39-.12.73c-.02.1-.02.19-.01.28l-.27.01-.01-.02c.02-.3.06-.63.1-.95 0-.02.02-.03.03-.03l.28-.02ZM9.79 8.65c-.11.19-.14.36-.08.53l-.14.03a.02.02 0 0 1-.01 0c-.07-.27.01-.45.23-.56Z" fill="#FDE7CD"/><path d="M4.4 13.01c.03-.02.04-.07.04-.13-.06-.37-.09-.78-.1-1.23-.02-.2-.04-.53-.04-.78a47.78 47.78 0 0 1 .02-1.4h-.04l2.14-.15a.02.02 0 0 1 .02 0v.02c.02.33.34.54.66.57l.03.02c.04.03.07.07.12.09.13.04.25.05.37.03a3.33 3.33 0 0 0 1.36-.64c.19.03.34.04.51-.06a.03.03 0 0 1 .03 0c.24.18.5.34.78.48.17.09.4.2.6.18a.72.72 0 0 0 .51-.3.04.04 0 0 1 .04 0c.32.02.42-.22.4-.48 0-.08 0-.17.02-.27l.02-.01 1-.07a.03.03 0 0 1 .02.01.02.02 0 0 1 0 .02c-.1.38-.26.75-.49 1.11a6.5 6.5 0 0 1-.91 1.17 6.26 6.26 0 0 1-2.32 1.38c-.5.18-1.01.32-1.53.43a14.97 14.97 0 0 1-3.2.29v-.02L4.4 13Z" fill="#FFB8D0"/><path d="M13.46 9.23c-.17.75-.5 1.4-1 1.96-.34.4-.73.74-1.16 1.02l-.36.23-.22.12c-.42.24-.95.46-1.6.67a13.35 13.35 0 0 1-2.3.53l-.26.02c-.01 0-.03 0-.04.02H6.5a.44.44 0 0 0-.29.07v.02h.08l-.84.03c-.04 0-.07 0-.1-.03l-.73-.48c-.02-.02-.02-.02 0-.02.8 0 1.61-.06 2.42-.18 1.83-.28 3.8-.94 4.97-2.42a5.25 5.25 0 0 0 1.03-1.88l.43.32Z" fill="#FE91B6"/><path d="M11.6 9.19c0 .1-.04.17-.1.2a.25.25 0 0 1-.14.04.5.5 0 0 1-.13-.02 3.62 3.62 0 0 0-1.13-.16l-.16-.01v-.01c.38-.1.69-.14.92-.15.19 0 .44.03.74.1Z" fill="#BBAAE0"/><path d="M11.6 9.19c.1.04.16.1.15.15 0 .16-.08.25-.2.26a.89.89 0 0 1-.28-.05c-.39-.12-.77-.22-1.17-.3.38 0 .75.05 1.13.16l.13.02c.06 0 .1-.01.13-.03.07-.04.1-.11.11-.21Z" fill="#9D7FB1"/><path d="m13.46 9.23.36.27a4.07 4.07 0 0 1-.4 1c-.3.5-.62.93-.98 1.29A6.38 6.38 0 0 1 10 13.24a14.4 14.4 0 0 1-3.72.66l-.08-.01v-.02a.44.44 0 0 1 .3-.06l.02-.01.04-.02c.09-.01.18 0 .27-.02a14.9 14.9 0 0 0 2.3-.53 8.43 8.43 0 0 0 1.8-.8c.13-.06.25-.14.37-.22a5.7 5.7 0 0 0 1.17-1.02c.49-.56.82-1.21 1-1.96Z" fill="#FD70B6"/><path d="m8.69 9.28-.49.13c-.16.04-.33.06-.49.12l-.26.05c-.12.03-.4.07-.5-.01-.05-.05-.06-.12-.02-.22.2-.07.43-.1.67-.11.37-.01.74 0 1.09.04Z" fill="#BBAAE0"/><path d="M8.69 9.28c.02-.01.06 0 .12.02a.02.02 0 0 1 0 .03c-.32.16-.64.29-.96.39-.27.08-.78.22-.97-.1-.07-.1-.05-.2.05-.27-.04.1-.03.17.02.22.1.08.38.04.5.01l.26-.05c.16-.06.33-.08.5-.12l.48-.13ZM11.17 9.62a4.98 4.98 0 0 0 .14.07.61.61 0 0 1-.75.15c-.32-.14-.6-.3-.86-.48-.02-.02-.02-.03 0-.03h.22c.43.07.85.17 1.25.3Z" fill="#9D7FB1"/><path d="M4.28 9.46h.04a47.79 47.79 0 0 0-.02 1.4l.03.79c.02.45.05.86.1 1.23.01.06 0 .1-.03.13l-.06-.27a14.51 14.51 0 0 1-.24-3.25c0-.01 0-.02.02-.02h.16Z" fill="#FED8D0"/><path d="M8.47 9.58h.01v.01h.01v.01c-.26.15-.54.26-.85.35-.1.02-.2.02-.3 0-.06-.01-.06-.02 0-.03.4-.05.77-.16 1.13-.34Z" fill="#9D7FB1"/></svg>