<!-- by TradingView --><svg width="18" height="18" viewBox="0 0 18 18" xmlns="http://www.w3.org/2000/svg"><path fill="#F0F3FA" d="M0 0h18v18H0z"/><path d="M7.27 4.1a.5.5 0 0 1 .57-.02l1.2.7-.82.63-.62-.36L5 7.04v3.92l2.57 1.97L10 10.95V6.81c0-.12.09-.23.17-.31l.72-.6.76.56-.65.58v4.17c0 .14-.07.27-.19.35L7.87 13.9a.5.5 0 0 1-.6 0L4.2 11.56a.46.46 0 0 1-.19-.37V6.8c0-.14.07-.28.19-.37L7.27 4.1Z" fill="url(#a4n5vfjw2)"/><path d="M10.93 13.9a.5.5 0 0 1-.57.02l-1.2-.7.8-.63.64.36 2.4-2V7.03l-2.37-1.96L8 7.04v4.13c0 .12-.04.23-.13.32l-.81.6-.8-.6.74-.54V6.8c0-.14.1-.27.2-.35l3.13-2.34a.5.5 0 0 1 .6 0l2.89 2.34c.11.09.18.22.18.37v4.37c0 .14-.07.28-.18.37l-2.9 2.35Z" fill="url(#b4n5vfjw2)"/><defs><linearGradient id="a4n5vfjw2" x1="6.92" y1="4.94" x2="10.73" y2="7.57" gradientUnits="userSpaceOnUse"><stop stop-color="#FFE502"/><stop offset=".38" stop-color="#FBE60B"/><stop offset=".56" stop-color="#B6E763"/><stop offset=".7" stop-color="#B1E76A"/><stop offset=".89" stop-color="#65E8C2"/></linearGradient><linearGradient id="b4n5vfjw2" x1="6.92" y1="11.19" x2="10.39" y2="13.62" gradientUnits="userSpaceOnUse"><stop stop-color="#FEE502"/><stop offset=".28" stop-color="#C3E653"/><stop offset=".57" stop-color="#B5E764"/><stop offset="1" stop-color="#68E7BD"/></linearGradient></defs></svg>