<!-- by TradingView --><svg width="18" height="18" viewBox="0 0 18 18" xmlns="http://www.w3.org/2000/svg"><path fill="#F0F3FA" d="M0 0h18v18H0z"/><path d="M8.5 15V3l-1.32.75a.34.34 0 0 0-.18.3v8.83l-.75-.36c-.2-.1-.25-.3-.25-.5v-7.7l-2 1 .38.29v6.74l-.38.29L8.5 15Z" fill="#34CC99"/><path fill-rule="evenodd" d="M9.5 3v12l4.5-2.36-.38-.29V5.61l.38-.28-2-1v7.7c0 .2-.05.39-.25.49l-.75.36V4.04c0-.12 0-.23-.11-.3L9.5 3Zm1.1 1.44-.21-.3-.21.3-.37.1.24.27-.02.35.36-.13.35.13-.02-.35.24-.28-.37-.09Z" fill="#056366"/></svg>