<!-- by TradingView --><svg width="18" height="18" viewBox="0 0 18 18" xmlns="http://www.w3.org/2000/svg"><path fill="#181B1E" d="M0 0h18v18H0z"/><ellipse cx="9.5" cy="6.5" rx="4.5" ry="3.5" fill="#636363"/><ellipse cx="9.5" cy="6.5" rx="3.5" ry="2.5" fill="#949494"/><ellipse cx="9.5" cy="6.5" rx="2.5" ry="1.5" fill="#DBDBDB"/><path d="M10.18 6.02a.84.84 0 0 0 .03.68c-.02.01-.02.04.01.08 0 .04.03.07.08.1-.34.13-.65.17-.94.1l-.24-1.63a.78.78 0 0 1 .15-.3c.12-.08.3-.07.54.03.07.02.12.06.15.11.05.07.08.13.08.18.03.22.07.44.14.65Z" fill="#FED334"/><path d="m9.36 6.97-.22-.04c-.13-.04-.21-.1-.24-.19l.11-1.07c-.01-.09.02-.2.11-.32l.24 1.62Z" fill="#F8992B"/><path d="m8.9 6.74-.08-.13v-.16l.2-.78-.12 1.07Z" fill="#846B48"/><path d="M10.6 6.13c.02 0 .03 0 .04.02 0 .03-.01.04-.03.05-.2.1-.33.26-.4.5a.84.84 0 0 1-.03-.68c.07-.02.13 0 .16.04.02.02.01.05 0 .07l-.05.05c-.02.02-.02.05 0 .08l.03.02c.03 0 .05 0 .06-.03.04-.07.12-.1.22-.12Z" fill="#7D7D7D"/><path d="m8.82 6.61.08.13c.03.1.1.15.24.19.03.07.1.15.19.24.06.06.06.11.02.16l-.46.16-.6.73a.1.1 0 0 1-.09.04h-.05a.96.96 0 0 1-.1-.37c-.04-.19-.13-.4-.3-.63l.04-.08c.18-.08.3-.2.33-.34a.84.84 0 0 1 .23-.19l.47-.04Z" fill="#089CC7"/><path d="m10.63 6.99-.33-.12c-.05-.02-.08-.05-.08-.09v-.04c.01-.03.03-.04.06-.03.24.05.36.14.35.28Z" fill="#9E9E9E"/><path d="m10.3 6.87.33.12c.15 0 .3.04.45.13l.52.3.21.13.14.12c.35.8.04 1.4-.47 1.97a.24.24 0 0 1-.22.08c-.47-.05-.8-.28-.99-.68a.2.2 0 0 1-.01-.1c.02-.24.03-.39 0-.45-.19-.55-.5-.93-.91-1.16.04-.05.04-.1-.02-.16a.96.96 0 0 1-.19-.24l.22.04c.29.08.6.04.94-.1Z" fill="#FFABA1"/><path d="M7.75 7.26c.17.23.26.44.3.63.02.17.05.3.1.37l.01.02c.01.03 0 .04-.02.05-.02 0-.04 0-.07-.02l-.15-.33a.15.15 0 0 0-.07-.07c-.14-.06-.27-.05-.4.05-.1-.01-.16-.04-.16-.1a.82.82 0 0 1 .28-.45l.18-.15Z" fill="#0A678C"/><path d="m11.95 7.67.31.29.38.64.08.24c-.2.57-.54 1.04-.99 1.43a.13.13 0 0 1-.1.03c-.82-.06-1.31-.38-2-.6 0-.09.04-.16.12-.22.16-.12.36-.01.43-.33.03-.27.06-.6-.14-.8a.83.83 0 0 0-.46-.25l-.7-.61.47-.16c.42.23.72.61.91 1.16.03.06.02.2 0 .44l.01.11c.2.4.52.63 1 .68.08.01.15-.02.2-.08.52-.57.83-1.17.48-1.97Z" fill="#FE9089"/><path d="M9.58 8.1a.56.56 0 0 0-.33.14c-.02.03-.03.06-.01.1.05.08.13.11.23.07.02 0 .04 0 .03.03l-.01.03a.1.1 0 0 0-.05.02c-.02-.05-.05-.07-.09-.06-.12.03-.22.05-.3.05-.04 0-.06-.02-.04-.06l.02-.05c.02-.05 0-.07-.04-.05-.2.08-.26.2-.17.34-.27.01-.21.53-.18.69 0 .06-.02.1-.06.15l-.06-.13-.06-.9c0-.05-.03-.07-.07-.08-.07 0-.14 0-.21.03a.1.1 0 0 0-.07.07l-.25.68a1 1 0 0 0-.6-.47.1.1 0 0 1-.04-.03.1.1 0 0 1-.03-.09c0-.04.03-.06.07-.07l.81-.2c.03.02.05.02.07.02.03-.01.03-.02.02-.05v-.02h.04a.1.1 0 0 0 .1-.04l.59-.73.69.6Z" fill="#FE7B7C"/><path d="m8.07 8.31-.81.2c-.04 0-.06.03-.07.07v.04a.1.1 0 0 0 .07.08 1 1 0 0 1 .6.47c.02.1 0 .19-.02.26-.01.04-.04.05-.08.04-.27-.08-.5-.2-.7-.4-.2-.18-.29-.47-.43-.72a.2.2 0 0 1 .04-.09c.26-.22.5-.22.77-.3.14-.1.27-.11.4-.05.04.01.06.04.08.07l.15.33Z" fill="#FE9089"/><path d="M9.58 8.1c.19.03.34.12.46.24.2.21.17.54.14.82l-.02-.08c0-.01 0-.02-.02-.01h-.03c.05-.1.03-.19-.04-.26.07 0 .09-.09.06-.25a.12.12 0 0 0-.05-.1c-.08-.04-.16-.03-.24.04a.11.11 0 0 1-.1.02l-.25-.05a.06.06 0 0 0 .01-.03c0-.03 0-.03-.03-.03-.1.04-.18.01-.23-.08-.02-.03-.01-.06.01-.09.09-.07.2-.12.33-.14Z" fill="#62191F"/><path d="M9.44 8.49c-.16.05-.28.13-.39.22-.15.14-.14.33-.16.53-.02.1-.06.14-.1.11-.1-.1-.14-.2-.1-.28.07-.15.11-.28.13-.4-.09-.15-.03-.27.17-.35.05-.02.06 0 .04.05l-.02.05c-.02.04 0 .06.04.06.08 0 .18-.02.3-.05.04 0 .07.01.09.06Z" fill="#FFABA1"/><path d="M6.63 8.35c.14.25.23.54.43.73.2.18.43.31.7.39.04.01.07 0 .08-.04a.52.52 0 0 0 .02-.26l.25-.68a.1.1 0 0 1 .07-.07.48.48 0 0 1 .21-.03c.04 0 .07.03.07.07l.06.91c-.3 0-.58.07-.85.23a2.01 2.01 0 0 1-.87-.59c-.02-.03-.05-.03-.08-.01a.14.14 0 0 1-.06.02l-.05-.07c-.02-.21-.13-.4.02-.6Z" fill="#F85B5D"/><path d="M10.07 8.81c-.16-.05-.21.04-.15.27.01.04.04.06.08.05.04 0 .07-.02.11-.06h.03l.02.01.02.07c-.07.32-.27.21-.43.33a.3.3 0 0 0-.13.23c0 .03-.09.06-.23.07a1.2 1.2 0 0 1-.44-.28c-.05-.05-.07-.14-.06-.26.02-.2.01-.39.16-.53a1.08 1.08 0 0 1 .44-.24l.26.05a.11.11 0 0 0 .09-.02c.08-.07.16-.08.24-.03.03.02.05.05.05.09.03.16 0 .25-.06.25Z" fill="#18100E"/><path d="M8.82 8.66c-.02.13-.06.26-.13.4-.04.1 0 .19.1.3 0 .11.06.21.14.28v.04H8.9a.56.56 0 0 1-.25-.33c-.03-.16-.1-.68.18-.69Z" fill="#62191F"/><path d="M10.07 8.82c.07.06.09.15.04.25-.04.04-.07.06-.11.06-.04 0-.07-.01-.08-.05-.06-.23-.01-.32.15-.26Z" fill="#F5EADA"/><path d="m12.72 8.84.03.2c.03.28-.01.54-.12.76-.29.34-.63.61-1.02.82a5.8 5.8 0 0 1-1.13-.14 1.77 1.77 0 0 1-1.1-.7c.15-.01.23-.04.24-.07.7.2 1.2.53 2.01.6.04 0 .07-.02.1-.04.45-.39.78-.86.99-1.43Z" fill="#FE7B7C"/><path d="M7.67 9.6c.38.1.65.21.8.33 1.02.73 1.75 1.37 3.05.9-.04.09-.05.16-.02.23a5.79 5.79 0 0 1-3.25.11.14.14 0 0 0-.1.08V12.4c-.09.32-.1.65-.06 1 .02.19.13.27.3.32l.56.16c.02.01.02.02.01.04l-.02.03h-.01l-.6-.16a9.8 9.8 0 0 0-.34-.07c-.1-.03-.2-.12-.3-.28v-.03c0-.01 0-.02.02-.03l.02-.03a.08.08 0 0 0 0-.08c-.09-.22-.1-.46-.05-.71l.09.07c.03.02.04.01.04-.03l-.03-1.38c0-.1.05-.16.14-.16.04 0 .06-.02.07-.05v-.04c.02-.01.04-.06.04-.14l.67-.21a.1.1 0 0 0 .07-.1.1.1 0 0 0-.04-.1l-.98-.66c-.07-.06-.2-.13-.39-.19a4.28 4.28 0 0 0-.56-.38c-.08-.04-.13-.1-.14-.18.02 0 .04 0 .06-.02.03-.02.06-.02.08 0 .24.28.53.48.87.6Z" fill="#922428"/><path d="M8.89 9.24c-.01.12 0 .2.06.26.1.11.25.2.44.28.25.35.61.59 1.1.7.36.08.74.13 1.12.14A2.8 2.8 0 0 1 8.58 9.5a.24.24 0 0 0 .06-.15c.05.15.13.26.25.33h.04v-.04a.46.46 0 0 1-.15-.29c.05.03.09 0 .1-.11Z" fill="#F85B5D"/><path d="m8.52 9.37.06.13a2.81 2.81 0 0 0 3.03 1.12c.39-.2.73-.48 1.02-.82l-.04.15c-.11.22-.26.38-.44.5-.19.17-.4.3-.63.38-1.3.47-2.03-.17-3.04-.9a2.66 2.66 0 0 0-.8-.33c.26-.16.54-.23.84-.23Z" fill="#D03B42"/><path d="M8.03 10.84c.05-.26-.02-.53-.2-.8.01-.1-.01-.19-.08-.27l.98.67a.1.1 0 0 1-.03.19l-.67.2Z" fill="#62191F"/><path d="M11.5 11.06c.06.13.08.27.08.4l-.07-.2c-.01-.04-.04-.06-.08-.05a8.1 8.1 0 0 1-3.1.16.06.06 0 0 0-.02.04l-.17 1v-1.1a.14.14 0 0 1 .11-.14h.06c1.07.3 2.12.2 3.19-.11Z" fill="#D03B42"/><path d="m11.58 11.45.13 1.09-.14-1a.1.1 0 0 0-.11-.09l-2.63.3a.14.14 0 0 0-.12.15l.06.6c0 .04 0 .06-.04.09l-.08.06c-.13.1-.12.19.02.27.2.13.37.26.48.4.03.02.04.05.04.09v.42a.07.07 0 0 0 .05.06h.04c.28-.1.57-.14.87-.12.04 0 .06-.01.06-.05 0-.08.03-.11.07-.11v.18c-.05.03-.06.07-.02.12l.05.03c.03.01.03.03.01.06-.05.05-.08.1-.08.14-.29-.25-.67-.29-1.16-.11a.1.1 0 0 0-.07.07v.13h-.04a1.23 1.23 0 0 1-.64-.43l.6.16h.01l.02-.03c.01-.02.01-.03-.01-.04l-.56-.16c-.17-.05-.28-.13-.3-.33a2.8 2.8 0 0 1 .05-1l.17-.99.02-.04a8.1 8.1 0 0 0 3.1-.16c.04 0 .07 0 .08.04l.07.2Z" fill="#F85B5D"/><path d="m7.78 11.23.03 1.38c0 .04-.01.05-.04.03l-.09-.07a.92.92 0 0 0-.17-.33l.04-.64.23-.37Z" fill="#62191F"/><path d="m11.71 12.54.05.13c-.07.05-.12.1-.13.16-.14.12-.27.2-.4.23a.12.12 0 0 0-.09.06c-.17.32-.45.49-.86.49-.04 0-.06.03-.07.11 0 .04-.02.06-.06.05a2.2 2.2 0 0 0-.9.12h-.03a.07.07 0 0 1-.03-.06v-.42a.15.15 0 0 0-.04-.1 1.97 1.97 0 0 0-.48-.39c-.14-.08-.15-.17-.02-.27l.08-.06a.09.09 0 0 0 .04-.09l-.07-.6c0-.03.01-.07.03-.1a.14.14 0 0 1 .1-.05l2.62-.3a.1.1 0 0 1 .08.03.1.1 0 0 1 .04.06l.14 1Z" fill="#FE7B7C"/><path d="M7.5 12.24c.07.05.12.16.18.33-.05.25-.04.5.05.71a.08.08 0 0 1 0 .08.32.32 0 0 1-.02.03l-.02.03v.03c.1.16.2.25.3.28l.34.07c.17.21.38.35.64.43a.14.14 0 0 0-.02.05c0 .04.01.05.05.05.17 0 .29.1.43.12.15.03.3.04.44.04.05 0 .06.01.03.05a.48.48 0 0 1-.27.15c-.59.13-1.18.1-1.76-.06l-.26-.65.54.3h.01v-.04c0-.01 0-.03-.02-.03-.37-.17-.47-.45-.68-.76-.02-.03-.05 0-.09.11l.02-1.09c0-.03-.02-.04-.04-.02l-.68.49c.18-.33.46-.57.84-.7Z" fill="#D1AF79"/><path d="M7.37 13.56c.07.18.15.32.24.42l.26.65-.83-.35c-.47-.36-.6-.8-.37-1.34l.68-.49c.02-.02.04-.01.04.02l-.02 1.1Z" fill="#F5EADA"/><path d="M11.76 12.67c.07.21.06.43 0 .65-.59.91-1.75 1.13-2.74.9a.24.24 0 0 1 0-.12.1.1 0 0 1 .06-.07c.49-.18.87-.14 1.16.11.45-.02.85-.2 1.2-.55.1-.1.1-.21.1-.35.14-.22.16-.36.09-.4.01-.07.06-.12.13-.17Z" fill="#F99671"/><path d="M11.54 13.24c-.03.05-.07.08-.14.1-.26.06-.32.27-.54.4-.2.1-.38.12-.58.05v-.18c.4 0 .7-.17.86-.49a.12.12 0 0 1 .08-.06c.14-.04.27-.11.4-.23.08.05.06.2-.08.41Z" fill="#7D7D7D"/><path d="M11.54 13.24c0 .14 0 .25-.1.35-.35.34-.75.53-1.2.55 0-.04.03-.1.08-.14.02-.03.02-.05-.01-.06a.16.16 0 0 1-.05-.03c-.04-.05-.03-.09.02-.12.2.07.39.06.58-.05.22-.13.28-.34.54-.4.07-.02.11-.05.14-.1Z" fill="#B07559"/><path d="M11.75 13.32c0 .29-.15.53-.44.73-.22.14-.4.24-.55.3a2.4 2.4 0 0 0-.5.25c-.55.35-1.08.4-1.74.4a2.1 2.1 0 0 1-1.38-.5c-.03-.03-.07-.1-.1-.22l.83.35c.58.17 1.17.19 1.76.06.11-.02.2-.07.27-.15.03-.04.02-.06-.03-.05-.15 0-.3 0-.44-.04-.14-.02-.26-.12-.43-.12-.04 0-.05-.01-.05-.05l.02-.05h.05c1 .22 2.15 0 2.73-.9Z" fill="#846B48"/><path d="M7.61 13.98a1.5 1.5 0 0 1-.24-.42c.04-.1.07-.14.09-.11.2.31.3.6.68.76.02 0 .02.02.02.03v.04h-.01l-.54-.3Z" fill="#B07559"/><path d="M9.6 12.14a74.74 74.74 0 0 0-.24-.01v-.07l.03-.03c.34-.06.58.03.71.29.06.1.17.46.34 1.1.02.05 0 .08-.06.09l-.1.01c-.05 0-.08-.02-.08-.07a8.78 8.78 0 0 0-.15-.82c-.05-.26-.17-.5-.45-.5Z" fill="#D03B42"/></svg>