<!-- by TradingView --><svg width="18" height="18" viewBox="0 0 18 18" xmlns="http://www.w3.org/2000/svg"><path fill="#F0F3FA" d="M0 0h18v18H0z"/><path d="M6.7 14.56a5.83 5.83 0 0 1-3.68-5.9 5.62 5.62 0 0 1 2.33-4.09c.25-.2.5-.4.74-.63.14-.14.3-.25.48-.33.3-.14.59-.25.85-.31.74-.19 1.5-.28 2.27-.3a7.22 7.22 0 0 1 1.48.15c.3.28.55.6.76.95.02.03.04.06.07.07a5.77 5.77 0 0 1 3 5.16c0 .33-.07.64-.11.97a5.85 5.85 0 0 1-3.74 4.32 6.3 6.3 0 0 1-4.38-.03l-.06-.03Z" fill="#1A1D29"/><path d="m11.99 4.81-.01.02-.65-.04a.05.05 0 0 1-.04-.03 3.98 3.98 0 0 0-.6-1.03.12.12 0 0 0-.07-.04c-.47-.08-.91-.1-1.32-.09-.95.04-1.9.2-2.84.48-.13.04-.14.02-.03-.06.21-.15.44-.26.69-.34.92-.3 1.9-.43 2.95-.4a4.35 4.35 0 0 1 .98.14c.38.38.69.85.94 1.4Z" fill="#F79522"/><path d="M9.74 4.68c-.2-.3-.48-.56-.8-.79a5.27 5.27 0 0 1 1.6.1l.34.55a.04.04 0 0 1-.01.06h-.03l-1.1.08Z" fill="#7B4B9E"/><path d="M8.93 3.9c.33.22.6.48.81.78l-1.01.13a20.77 20.77 0 0 0-2.3.51c-.33.1-.74.25-1.23.45l.27-.91c.34-.27.7-.45 1.1-.54A36.7 36.7 0 0 1 8.03 4c.2-.03.5-.07.9-.1Z" fill="#67318F"/><path d="m5.47 4.86-.27.91-.29.11c-.02 0-.03 0-.03-.02.09-.4.28-.74.59-1Z" fill="#FFF9D5"/><path d="M11.43 5.53c-.1.03-.2.03-.3.02a.82.82 0 0 1 .25-.47h.01a1.65 1.65 0 0 1 .28.01l-.24.44Z" fill="#F79522"/><path d="M12.42 7.55c-.17.02-.35-.09-.5-.3a2.17 2.17 0 0 1-.3-1.3c.02-.14.05-.28.1-.4a.8.8 0 0 1 .17-.28.4.4 0 0 1 .23-.12c.17-.02.35.09.5.3.15.21.25.5.3.83v.46c-.01.15-.05.3-.1.4a.8.8 0 0 1-.17.3.4.4 0 0 1-.23.11Z" fill="#EFD01B"/><path d="M13.37 5.1c.4.54.53 1.17.4 1.8a1.56 1.56 0 0 1-1.15 1.24l-.4-1.54-.68-.14.67.14-.14-.53 1.3-.97Zm-1.3.97-.53.4-.12-.03a.84.84 0 0 1 .6-.6l.05.23Zm-.65.37Zm0 0a.2.2 0 0 0 .02.08.14.14 0 0 0 0 .02l.1-.08-.12-.02Z" fill="#895926"/><path d="M12.32 6.99c.15-.05.24-.15.27-.32.07-.32 0-.6-.18-.85 0-.16-.02-.3-.05-.43-.02-.08 0-.1.06-.04.41.4.47 1.1.36 1.62-.05.22-.26.54-.54.44-.03-.01-.04-.03-.03-.06l.1-.36Z" fill="#F79522"/><path d="M10.72 7.77c-.06-.55-.13-.98-.2-1.29a3.93 3.93 0 0 0-.24-.6.05.05 0 0 0-.05-.03l-1 .02-.26.01c-.83.06-1.44.14-1.82.23-.27.06-.48.09-.65.08.39-.13.77-.24 1.15-.32a23.61 23.61 0 0 1 3.2-.44l.01.02v.01c-.18.62-.1 1.3.14 1.9.04.07.09.14.12.22.01.03 0 .04-.02.05l-.38.14Z" fill="#F9A67F"/><path d="M11.43 5.53c-.17.63-.09 1.25.24 1.85l-.3.1a2.87 2.87 0 0 1-.25-1.93c.1.01.2 0 .31-.02Z" fill="#EFD01B"/><path d="M14 7.05c.17.36.28.67.33.92.01.03 0 .04-.03.01-.19-.15-.32-.36-.6-.29-.14.03-.26.18-.37.27l-.96.95c-.03.03-.04.03-.03-.02.1-.34.16-.67.16-1.02 0-.03.02-.05.05-.06.32-.07.54-.5.6-.78.1-.48.06-.94-.12-1.4a5 5 0 0 1 .97 1.4Z" fill="#FFF9D5"/><path d="M12.4 5.82c.2.25.26.53.2.85-.04.17-.13.27-.28.32-.41-.19-.47-.83-.29-1.15.09-.14.21-.15.38-.02Z" fill="#1A1D29"/><path d="m10.72 7.77-.28.1c-.7.22-1.31.38-1.83.47-.3.05-.73.1-1.3.15-.72.05-1.36.04-1.93-.03a5.86 5.86 0 0 1-.27-1.77c.45-.2.92-.37 1.4-.5.16 0 .37-.02.64-.08.38-.1.99-.17 1.82-.23a.9.9 0 0 0-.46.59c-.1.45 0 .83.3 1.15.25.26.65.3.9.01.43-.49.27-1.25-.23-1.65a1.27 1.27 0 0 0-.26-.11l1.01-.02c.02 0 .04.01.05.03.13.28.2.48.24.6.07.3.14.74.2 1.3Z" fill="#FCCEB0"/><path d="m4.3 6.47.21-.32c.02-.02.03-.02.03.01l-.02.18a.05.05 0 0 1-.02.04l-.18.11c-.05.04-.06.03-.03-.02Z" fill="#FFF9D5"/><path d="M9.07 6.67c.04.23.2.39.38.36.17-.03.28-.23.24-.45-.04-.23-.2-.39-.38-.36-.17.02-.27.23-.24.45Z" fill="#fff"/><path d="M6.72 8.22a.52.52 0 0 1-.26-.03.69.69 0 0 1-.24-.15.94.94 0 0 1-.18-.26 1.14 1.14 0 0 1-.11-.66c.02-.1.05-.2.1-.3.04-.09.1-.16.17-.22a.51.51 0 0 1 .5-.07c.08.03.17.08.24.15a1.13 1.13 0 0 1 .3.92.92.92 0 0 1-.1.3.67.67 0 0 1-.18.22.51.51 0 0 1-.24.1Z" fill="#1A1D29"/><path d="m4.52 7.07-.28.1.02-.35.01-.03.22-.15h.01v.01l.02.42Z" fill="#F79522"/><path d="m5.11 6.7.06.8c.03.27.1.6.2.96l-.3-.05a.04.04 0 0 1-.04-.03c-.13-.49-.2-.99-.2-1.51 0-.03 0-.04.02-.05l.26-.13Z" fill="#FFF9D5"/><path d="M6.45 7.2c.04.2.19.34.34.32.15-.03.25-.21.22-.41-.04-.2-.2-.34-.34-.32-.16.03-.25.21-.22.4Z" fill="#fff"/><path d="M4.55 9.01a6.1 6.1 0 0 1 .4.07c.1.24.18.52.33.73.19.26.43.44.74.57.02 0 .03.02.02.04a11.91 11.91 0 0 0-1.12 2.3h-.01l-.01-.01a5.28 5.28 0 0 1-1.31-2.67A5 5 0 0 1 4 7.02c.02-.06.03-.06.03 0-.02.66.1 1.27.35 1.85.03.06.07.14.16.14Z" fill="#FFF9D5"/><path d="m4.52 7.07.18 1.24c-.03.05-.12.06-.27.04a4.95 4.95 0 0 1-.19-1.18l.28-.1Z" fill="#EFD01B"/><path d="M11.67 7.38c.1.13.2.24.33.34.03.01.03.03 0 .03l-.29.08c-.03.01-.06 0-.08-.02l-.26-.34.3-.1Z" fill="#F79522"/><path d="M10.64 9.63c.1-.52.13-1.04.08-1.56l.54-.2.05.01.29.24c.02.02.04.02.07.01l.5-.15c.02 0 .03 0 .03.03 0 .36-.08.72-.22 1.05-.02.05-.06.07-.1.06-.38-.04-.62.28-.69.6 0 .03-.02.05-.05.06l-.23.06c-.03.01-.06 0-.09-.02l-.18-.19Z" fill="#7B4B9E"/><path d="m13.85 7.93.01.02v.02l-.01.02-1.42 1.38a.2.2 0 0 1-.08-.08l.01-.05 1.26-1.23a.25.25 0 0 1 .23-.08Z" fill="#6B7993"/><path d="m13.85 7.93.45.4-1.46 1.42-.41-.38L13.85 8v-.02l.01-.02v-.02Z" fill="#394458"/><path d="M10.72 8.07a5.7 5.7 0 0 1-.08 1.56.76.76 0 0 0-.3-.13c-.38-.07-.65.23-.61.58 0 .03-.01.05-.05.05-.76.15-1.64.19-2.65.13a3.72 3.72 0 0 1-.8-.12 4.56 4.56 0 0 1-.73-1.36 12.84 12.84 0 0 0 5.22-.7Z" fill="#67318F"/><path d="m4.7 8.3.14.5c.01.02 0 .03-.03.03l-.15-.01a.08.08 0 0 1-.07-.05l-.16-.42c.15.02.24 0 .27-.04Z" fill="#F79522"/><path d="M14.3 8.32c.06.08.05.16-.03.25l-1.28 1.25c-.04.04-.1.02-.15-.07l1.46-1.43Z" fill="#6B7993"/><path d="M5.5 8.78c.16.48.4.94.73 1.36-.39-.1-.66-.33-.82-.67-.11-.23-.2-.47-.28-.72-.01-.02 0-.03.02-.03l.35.06ZM13.15 11.2c.25-.18.66-.54.3-.86-.12-.1-.22-.2-.3-.3-.02-.02-.02-.04 0-.06l1.28-1.25h.01a5.1 5.1 0 0 1-1.49 4.13c-.02.02-.03.01-.03-.01l-.05-.28c-.04-.23.17-.42.15-.65a1.94 1.94 0 0 0-.15-.65c-.01-.02 0-.03.02-.03.09.01.19.01.26-.04Z" fill="#FFF9D5"/><path d="m11.84 10.7-.43-.1c-.02-.36 0-.85.2-1.11.12-.15.33-.14.42.04.14.29.14.63.14.97 0 .02-.01.03-.03.04a.74.74 0 0 0-.3.16Z" fill="#FCCEB0"/><path d="M13.14 10.39c-.11.17-.25.31-.43.42l-.24-.24a.09.09 0 0 1-.03-.06c0-.28-.03-.55-.09-.83 0-.03 0-.04.03-.01l.76.72Z" fill="#F79522"/><path d="M11.2 10.69c-.1.36-.36.48-.77.36a3.71 3.71 0 0 1-.38-.73.67.67 0 0 1-.02-.43.1.1 0 0 1 .02-.05c.2-.18.39-.04.52.12l.64.73Z" fill="#FCCEB0"/><path d="m13.14 10.39.17.17c.04.04.05.09.01.14-.08.1-.17.2-.29.3a.12.12 0 0 1-.15-.02l-.17-.17c.18-.1.32-.25.43-.42Z" fill="#EFD01B"/><path d="M8.13 13.84a16.55 16.55 0 0 0-.26.56H7.8l-.79-.21a.03.03 0 0 1-.02-.03v-.01a21.75 21.75 0 0 1 2.14-3.64l.63-.1c.02 0 .03 0 .04.03.02.08.05.15.09.22a.06.06 0 0 1 0 .06c-.69.99-1.28 2.03-1.77 3.12Z" fill="#F79522"/><path d="M6.35 13.88c0-.97.07-1.94.17-2.92l.13-.4c0-.03.02-.04.05-.04l.39.03c.02 0 .05.01.06.03.23.37.5.7.85 1.01.02.02.02.04 0 .06-.47.78-.9 1.57-1.26 2.37-.01.02-.03.03-.05.02l-.34-.16Z" fill="#67318F"/><path d="M5.2 12.8c.35-.87.65-1.53 1.08-2.21.04-.07.05-.06.03.01a12.84 12.84 0 0 0-.55 2.92.03.03 0 0 1-.02.01h-.01l-.58-.45a.04.04 0 0 1-.01-.04c.01-.07.03-.15.07-.24Z" fill="#7B4B9E"/><path d="m11.41 10.6.43.1c-.16.1-.5.38-.54.58v.01a.04.04 0 0 1-.03.02h-.02a.28.28 0 0 0-.17-.04 4.1 4.1 0 0 1-.43.05c-.03 0-.05-.01-.06-.03l-.16-.24c.4.12.67 0 .78-.36l.15.18c.02.02.03.02.03 0l.02-.28Z" fill="#F9A67F"/><path d="M12.53 11.06c.05.1.03.2-.05.3-.15.2-.48.43-.75.35-.12-.03-.2-.12-.2-.26-.03-.28.37-.53.6-.67a.09.09 0 0 1 .07-.01c.15.05.26.14.33.29Z" fill="#FCCEB0"/><path d="M6.52 10.96c-.1.98-.16 1.95-.17 2.92l-.25-.15-.02-.02-.01-.03c.05-.66.14-1.32.26-1.98.05-.25.11-.5.2-.74Z" fill="#FFF9D5"/><path d="m10.22 11.61-.34-.36.15-.22c.02-.03.03-.03.05 0l.23.35v.05l-.1.18Z" fill="#7B4B9E"/><path d="m9.88 11.25.34.36c-.13.35-.04.62.25.8l.04.04.2.38c.06.5.03.98-.08 1.45a5.6 5.6 0 0 1-2.44.17v-.03a19.43 19.43 0 0 1 1.7-3.17Z" fill="#67318F"/><path d="M11.12 11.52c.05 0 .1.01.14.04.04.03.06.08.06.13l.01.19c0 .05 0 .1-.02.14a.38.38 0 0 1-.1.13.44.44 0 0 1-.13.1.48.48 0 0 1-.16.03h-.06a.48.48 0 0 1-.3-.1.39.39 0 0 1-.1-.11.35.35 0 0 1-.05-.15v-.19c-.01-.04 0-.1.04-.13a.2.2 0 0 1 .13-.06l.54-.02ZM11.96 11.95c.2-.05.41-.16.56-.3.03-.04.07-.04.1 0 .45.4-.1.76-.48.76-.25 0-.33-.24-.23-.42a.07.07 0 0 1 .05-.04Z" fill="#FCCEB0"/><path d="M11.79 12.52a1.14 1.14 0 0 0-.86.12.2.2 0 0 1-.08-.1c-.01-.03 0-.05.04-.04.1.01.2 0 .3-.04a.7.7 0 0 0 .38-.53c0-.03.02-.04.04-.03l.02.01a.04.04 0 0 1 .02.05c-.06.2-.02.38.14.56Z" fill="#F9A67F"/><path d="M11.79 12.52c.15.11.34.15.56.11.02 0 .03 0 .01.02-.2.18-.46.28-.75.3a.84.84 0 0 1-.68-.3c.23-.16.52-.2.86-.13Z" fill="#FCCEB0"/><path d="m12.36 13.46-.03-.43.25-.2a.02.02 0 0 1 .03.02l.02.35c0 .03 0 .06-.03.08l-.24.18Z" fill="#67318F"/><path d="M10.71 12.83c.23.23.48.35.77.37.29.01.57-.04.84-.17l.04.43c-.42.29-.88.53-1.38.72l-.35.1c.1-.47.13-.95.08-1.45Z" fill="#7B4B9E"/></svg>