<!-- by TradingView --><svg width="18" height="18" viewBox="0 0 18 18" xmlns="http://www.w3.org/2000/svg"><path fill="#F0F3FA" d="M0 0h18v18H0z"/><path d="M9.17 3A6.07 6.07 0 0 1 15 8.77v.49a6.01 6.01 0 0 1-10.9 3.2 5.94 5.94 0 0 1 .14-7.07A5.97 5.97 0 0 1 8.8 3h.37Z"/><path d="M7.88 3.3a.01.01 0 0 1 0-.01h.02a31.07 31.07 0 0 1 .94-.11v.02l-.07.02a6.81 6.81 0 0 1-.5.08l-.36.05H7.9a.01.01 0 0 1-.02 0V3.3Z" fill="#E7A03D"/><path d="M10.08 3.32a9.4 9.4 0 0 0-1.77.24 7.17 7.17 0 0 0-2.17 1.17 5.18 5.18 0 0 0-1.57 2.4 6.02 6.02 0 0 0 .13 4.17c.37.92.91 1.67 1.64 2.25.8.64 1.67 1 2.64 1.08a4.2 4.2 0 0 0 1.58-.1l1.04-.3c-1.2.63-2.44.75-3.73.34a5.14 5.14 0 0 1-1.75-1 5.11 5.11 0 0 1-1.14-1.32c-.07-.21-.16-.42-.25-.63l-.33-.82c-.11-.31-.19-.7-.21-1.17-.03-.44 0-1.11.05-2.02a5.71 5.71 0 0 1 2.12-3.32 13.63 13.63 0 0 1 1.88-.86c.05-.03.05-.04 0-.04a5.4 5.4 0 0 1 1.84-.07Z" fill="#FFBB5C"/><path d="M10.65 3.43c-.04.02-.03.04.04.08l.07.03c.32.09.66.26 1.02.5.7.48 1.3 1 1.76 1.55.29.33.48.68.64 1.07.17.4.3.87.42 1.4a5.78 5.78 0 0 1 .08 1.63 9 9 0 0 1-.64 2.22c-.12.27-.28.51-.49.74l-.49.52c-.43.44-.92.8-1.46 1.07l-1.04.29a4.2 4.2 0 0 1-1.58.1 4.77 4.77 0 0 1-2.64-1.08A5.37 5.37 0 0 1 4.7 11.3a6.02 6.02 0 0 1-.13-4.17 5.18 5.18 0 0 1 1.98-2.71 6.8 6.8 0 0 1 1.76-.86 9.4 9.4 0 0 1 1.77-.24c.17 0 .36.03.57.11Z" fill="#FFD264"/><path d="m7.07 3.52.62-.18h.01l.1.03a.02.02 0 0 1 0 .05l-.48.19h-.01l-.24-.04a.02.02 0 0 1-.02-.02.02.02 0 0 1 .02-.03Zm1.17-.12c.04-.01.05 0 0 .03l-.03.02a13.63 13.63 0 0 0-1.85.84 5 5 0 0 1 1.88-.9Z" fill="#E7A03D"/><path d="M10.65 3.43a5.77 5.77 0 0 1 4.13 6.26c-.06.75-.3 1.49-.74 2.22a9 9 0 0 0 .64-2.22 5.75 5.75 0 0 0-.08-1.63 7.5 7.5 0 0 0-.42-1.4 3.8 3.8 0 0 0-.64-1.07 8.83 8.83 0 0 0-1.76-1.55 3.68 3.68 0 0 0-1.1-.53c-.06-.04-.07-.06-.03-.08Z" fill="#FFE5A7"/><path d="m6.53 3.77.37-.16h.02l.23.04a.02.02 0 0 1 .02.03l-.01.01-.28.13-.34-.01a.02.02 0 0 1-.02-.03l.01-.01Z" fill="#E7A03D"/><path d="M11.04 4.03a4.23 4.23 0 0 0-1.5-.2 5.4 5.4 0 0 0-2.79 1.02c-.11.09-.24.15-.38.2-.03.01-.03 0-.02-.02.02-.06.05-.1.1-.14.25-.23.53-.45.84-.6.27-.13.53-.28.82-.37.36-.11.74-.18 1.12-.21a4.14 4.14 0 0 1 1.84.28v.03c0 .01-.01.02-.03.01Z" fill="#FFE5A7"/><path d="m6.55 3.87.17.02c.05 0 .05.01.01.04l-.32.21a.05.05 0 0 1-.03 0l-.33-.07v-.01a.6.6 0 0 1 .5-.19Zm-.99.49.36-.24h.02l.37.07a.02.02 0 0 1 .01.02v.01l-.3.23a.02.02 0 0 1-.02 0l-.43-.06a.02.02 0 0 1-.01-.03Z" fill="#E7A03D"/><path d="m12.82 5.46-.26-.09a4.74 4.74 0 0 0-2.6-1.06c-.35-.04-.78 0-1.3.1.29-.19.6-.15.91-.18 1.1-.14 2.54.4 3.25 1.23Z" fill="#FFBB5C"/><path d="M12.56 5.37c.68.6 1.3 1.33 1.55 2.21a4.79 4.79 0 0 1-1.54 5.13c-.55.4-1.16.7-1.84.92a5.8 5.8 0 0 1-2.53-.08 4.99 4.99 0 0 1-2.12-1.45c-.15-.2-.3-.4-.43-.63a6.17 6.17 0 0 1-.67-2.1c0-.41.02-.82.08-1.22.07-.32.16-.63.27-.94a5.3 5.3 0 0 1 1.03-1.57c.44-.44.95-.78 1.55-1.03l.75-.2c.52-.1.95-.14 1.3-.1.93.11 1.9.43 2.6 1.06Z"/><path d="m10.2 4.5-.52.03c-.1 0-.16.03-.2.07a.4.4 0 0 0-.14.37c.1.65.72.8 1.26.95.36.11.68.29.98.5.41.28.6.65.79 1.1.12.28.55.36.82.33a.1.1 0 0 0 .05-.03.2.2 0 0 0 .05-.23 7.76 7.76 0 0 0-.96-1.67 3.71 3.71 0 0 0-.93-.8c-.08-.05-.12-.13-.15-.22a4.84 4.84 0 0 1 2.26 3.23c0 .13.05.27.06.4l.01.18-.05 1.16c-.05.32-.1.53-.13.63a6.5 6.5 0 0 1-.72 1.42 3.5 3.5 0 0 1-.92.92c-.28.19-.58.4-.88.52-.4.17-.85.3-1.3.3a6.06 6.06 0 0 1-1.7-.34h.13a.02.02 0 0 0 .03-.02.02.02 0 0 0-.01-.03c-.28-.27-.54-.61-.42-1.03 0-.02 0-.03-.02-.04a.47.47 0 0 0-.17 0 .08.08 0 0 0-.05.03c-.13.16-.14.33-.03.52.1.17.19.28.28.34.13.08.2.16.25.22a4.57 4.57 0 0 1-2.54-2.8 4.51 4.51 0 0 1 .71-4.36 5.6 5.6 0 0 1 1.4-1.23c.3-.18.71-.31 1.22-.41-.12.25-.25.59-.11.85.07.13.12.12.17-.01a.46.46 0 0 0-.03-.22c-.07-.21 0-.42.06-.64L9 4.44c-.11.23-.28.9.05 1.03a.09.09 0 0 0 .12-.06v-.04A6.04 6.04 0 0 1 9.11 5a.9.9 0 0 1 .1-.58c.33-.05.66-.03.99.07Z" fill="#E7A03D"/><path d="M9.2 4.42a.9.9 0 0 0-.1.58 6.04 6.04 0 0 0 .08.41.09.09 0 0 1-.07.06h-.05c-.33-.13-.16-.8-.05-1.03a.58.58 0 0 1 .2-.02Z" fill="#FFD264"/><path d="m5.92 4.52-.3.3a.02.02 0 0 1-.02 0l-.43-.1a.02.02 0 0 1-.01-.02.02.02 0 0 1 0-.02l.27-.22h.02l.46.03a.02.02 0 0 1 .01.02Z" fill="#E7A03D"/><path d="M8.75 4.49c-.05.22-.13.43-.06.64.04.09.04.16.03.22-.05.13-.1.14-.17.01-.14-.26-.01-.6.1-.85l.1-.02Zm1.45.01c.36.08.71.22 1.05.4.03.09.06.17.15.22a3.7 3.7 0 0 1 1.22 1.18c.26.4.48.83.67 1.29a.2.2 0 0 1-.05.23.1.1 0 0 1-.06.03c-.26.03-.69-.05-.81-.33-.2-.45-.38-.82-.8-1.1-.3-.21-.61-.39-.97-.5-.54-.16-1.17-.3-1.26-.95a.42.42 0 0 1 .13-.37c.04-.04.11-.06.21-.07.17 0 .34-.02.52-.04Z" fill="#FFD264"/><path d="m4.68 5.15.34-.36a.02.02 0 0 1 .02 0l.5.05a.02.02 0 0 1 .02.04l-.3.34a.02.02 0 0 1-.02.01l-.54-.05a.02.02 0 0 1-.02-.02v-.01Zm-.05.09.52.02a.05.05 0 0 1 .04.08L5 5.6a.05.05 0 0 1-.04.02l-.49-.08a.05.05 0 0 1-.03-.08l.16-.2a.05.05 0 0 1 .04-.02Zm8.19.22-.01.01.56.6c.11.1.2.24.29.37.07.09.12.19.17.3l.26.5c.04.08.04.16.08.23l.07.16c.04.2.12.4.14.61.02.35.08.7.05 1.05a5.63 5.63 0 0 1-.48 1.89c-.07.16-.21.4-.44.71-.06.09-.15.15-.2.25-.13.2-.36.4-.52.56-.23.22-.5.4-.82.52l-.37.16-.36.12c-.03 0-.1.04-.23.1a.44.44 0 0 1-.28.03 6.3 6.3 0 0 0 1.84-.92 4.79 4.79 0 0 0 1.54-5.12 4.84 4.84 0 0 0-1.55-2.22l.26.09ZM4.36 5.59l.52.05a.05.05 0 0 1 .04.08L4.74 6a.05.05 0 0 1-.04 0l-.5-.08a.05.05 0 0 1-.05-.05l.01-.03.16-.24a.05.05 0 0 1 .05-.02Z" fill="#E7A03D"/><path d="M11.47 11.48c-.37.22-.77.36-1.21.42-1 .14-1.98.2-2.98.2.04-.03.05-.05.03-.08.99-.01 1.97-.08 2.94-.22.23-.03.44-.09.65-.16.37-.1.68-.31.93-.63.65-.85.85-1.93.54-2.95a3.47 3.47 0 0 0-.75-1.35c-.41-.44-1.42-.55-2.02-.56l-.5-.03a6.85 6.85 0 0 0-.5-.01c-.54-.06-1.07-.09-1.6-.07l-.05-.07A9.97 9.97 0 0 1 9 6.02l.69.05c.8.05 1.66.11 2.18.83.44.6.68 1.22.72 1.85.09 1.09-.29 2-1.12 2.73Z" fill="#1D1206"/><path d="m6.95 5.97.05.07v.2c.01.03.02.04.05.04.3.07.48.27.55.61.09.46.13.95.14 1.43a238.44 238.44 0 0 1-.02 3.03c-.03.25-.18.32-.4.39a.05.05 0 0 0-.03.04.5.5 0 0 0 .02.24c.02.03.01.05-.03.08l-.4.01h-.02a.05.05 0 0 1-.03-.03v-.36c0-.05.01-.07.05-.08.24-.03.38-.13.4-.4.04-.54.05-1.1.04-1.67a268.03 268.03 0 0 0-.1-2.37 2.78 2.78 0 0 0-.08-.48c-.04-.17-.36-.26-.52-.3a.07.07 0 0 1-.06-.07v-.23c0-.03.02-.05.04-.06l.35-.1Z"/><path d="m4.08 6 .6.05a.02.02 0 0 1 .02.02l-.19.36a.02.02 0 0 1-.02.01l-.57-.13a.02.02 0 0 1-.01-.03L4.06 6a.02.02 0 0 1 .02 0Zm4.52.1c-.46.05-.9.06-1.32.02-.1 0-.1.02-.03.09l.13.1c.25.15.38.37.41.66.04.39.06.75.05 1.08 0 .4.04.81.05 1.22 0 .63 0 1.26-.02 1.89 0 .2-.03.41-.2.54-.1.09-.21.1-.33.15-.03.02-.04.04-.03.08a.05.05 0 0 0 .05.03c.26-.04.55-.03.76-.05l2.44-.26.34-.01a3.2 3.2 0 0 1-.65.16c-.97.14-1.95.21-2.94.22a.5.5 0 0 1-.02-.24c0-.02.02-.04.04-.04.21-.07.36-.14.39-.4l.02-.55V8.32c0-.48-.05-.97-.14-1.43-.07-.34-.25-.54-.55-.6A.05.05 0 0 1 7 6.24a.62.62 0 0 1 0-.21c.52-.02 1.05 0 1.58.07Z" fill="#E7A03D"/><path d="M10.9 11.64h-.34c-.81.1-1.63.2-2.44.27-.21.02-.5 0-.75.05h-.04a.05.05 0 0 1-.02-.03c-.01-.04 0-.06.03-.08.12-.06.23-.06.34-.15.16-.13.19-.35.2-.54.01-.63.02-1.26 0-1.9 0-.4-.05-.8-.04-1.2 0-.34 0-.7-.05-1.09a.85.85 0 0 0-.4-.67 1.16 1.16 0 0 1-.14-.1c-.08-.06-.07-.09.03-.08.43.04.86.03 1.31-.01l.51.01.5.03c.6.01 1.6.12 2.02.56.34.37.59.82.75 1.35.31 1.02.1 2.1-.54 2.95a1.7 1.7 0 0 1-.93.63Z" fill="#FFD264"/><path d="m10.7 9.48-.02-1.45c0-.22-.03-.47-.08-.76.13-.42-.26-.72-.64-.7-.36 0-.44.35-.42.64l.03.71c0 .58 0 1.12.03 1.6a.9.9 0 0 1-.06.36A6.83 6.83 0 0 0 8 8.32a44.67 44.67 0 0 0-.05-1.27c0-.3-.18-.53-.39-.74-.05-.05-.04-.08.04-.08 1 .02 2 0 2.98.18.31.06.68.14.9.37.48.49.74 1.24.86 1.94.07.4.05.77-.06 1.14-.09.29-.42.5-.68.6a.92.92 0 0 1-.54.05l-.03-.02-.02-.03a5.46 5.46 0 0 1-.14-1c0-.02-.02-.03-.04-.03a.18.18 0 0 0-.11.05Z" fill="#FFBB5C"/><path d="m3.89 6.38.57.08a.03.03 0 0 1 .03.04l-.13.35a.03.03 0 0 1-.03.02l-.6-.09a.03.03 0 0 1-.03-.04l.15-.34a.03.03 0 0 1 .04-.02Zm6.71.89c.05.29.08.54.08.76a28.34 28.34 0 0 0 .06 2.1 2.34 2.34 0 0 1-.14.92c-.04.06-.07.08-.09.06.06-.9.09-1.82.08-2.75 0-.46-.02-.78-.06-.98-.08-.37-.2-.63-.6-.74a.4.4 0 0 1 .46.16c.1.13.17.29.2.47Z" fill="#E7A03D"/><path d="M9.92 6.64c.4.1.53.37.6.74.05.2.07.52.07.98 0 .93-.02 1.84-.07 2.75-.15.2-.34.3-.56.28-.08 0-.13-.06-.14-.16a49.56 49.56 0 0 1-.1-4.56.29.29 0 0 1 .2-.03Z"/><path d="M9.85 6.78c.28.32.31 1.11.32 1.5.01.7.04 1.39.02 1.95 0 .31-.05.73-.24.98-.03.04-.04.03-.05-.02-.1-1.45-.13-2.92-.1-4.39 0-.04.02-.05.05-.02Zm-5.54.19-.07.28c-.01.04-.04.05-.07.05l-.6-.12c-.02 0-.03-.02-.02-.05l.08-.22c0-.02.02-.03.04-.03a3.38 3.38 0 0 1 .62.03.05.05 0 0 1 .02.06Z" fill="#E7A03D"/><path d="M7.15 9.81c0 .36-.04.72-.13 1.08a.27.27 0 0 1-.15.19c-.48.24-.9-.02-1.24-.36a.68.68 0 0 1-.16-.31c-.3-1.11-.32-2.42.28-3.39.03-.03.06-.04.1-.03a2.62 2.62 0 0 1 1.28 1.72c.03.17.04.4.03.67v.43Z" fill="#FFD264"/><path d="M3.5 7.28c.2-.01.42.01.69.06v.02l-.08.39-.02.01a3.5 3.5 0 0 1-.7-.08c-.02 0-.03-.01-.02-.03a91.9 91.9 0 0 1 .13-.37Zm.74.32c-.06.92-.08 1.6-.05 2.03.02.47.1.86.21 1.17.1.28.22.55.33.82.1.21.18.42.25.63a6.04 6.04 0 0 1-.74-4.64Zm-.84.15.62.05a.07.07 0 0 1 .06.08l-.05.28a.07.07 0 0 1-.08.05l-.6-.1a.07.07 0 0 1-.06-.07l.04-.23a.07.07 0 0 1 .07-.06Z" fill="#E7A03D"/><path d="m13.2 8.06.15-.03c.06 0 .1.03.1.09l.01.03c.01.07-.01.1-.08.11l-.39.03a.17.17 0 0 1-.14-.06.5.5 0 0 1-.07-.1c-.03-.07-.01-.1.06-.1.12.02.22.07.35.03Z" fill="#FFD264"/><path d="M3.96 8.25 3.3 8.2a.04.04 0 0 0-.05.05l-.02.38c0 .02.02.04.04.04l.65.04c.02 0 .05-.02.05-.04L4 8.3a.04.04 0 0 0-.04-.05Z" fill="#E7A03D"/><path d="M13.4 8.47c.08-.01.1.02.08.1l-.01.03c-.02.07-.07.1-.15.1a.53.53 0 0 1-.33-.13.05.05 0 0 1-.02-.04c0-.05.03-.07.07-.06h.36Z" fill="#FFD264"/><path d="M9.63 11.36a.11.11 0 0 0 .1.1c.36.04.8-.06 1-.38.08-.11.1-.26.14-.39.01-.03.03-.03.05 0l.06.05.05.04c.36.1.73-.08.96-.35h.02l.01.02v.02c-.12.18-.2.37-.35.53-.15.15-.3.26-.46.33a3.48 3.48 0 0 1-1.47.26 7.07 7.07 0 0 0-1.94.24c-.02 0-.04 0-.04-.03v-.04c.14-.04.21-.15.23-.32.04-.31.1-.63.08-.94-.02-.58 0-1.18-.11-1.75-.02-.07 0-.12.06-.16h.05c.14.1.25.2.34.3.39.45.77.88 1.16 1.3.1.1 0 .23 0 .35 0 .3.02.57.06.82Z" fill="#FFE5A7"/><path d="m13.53 9.87.05-1.16c.04.23.05.47.04.72 0 .16-.03.3-.09.44Z" fill="#1D1206"/><path d="M3.97 9.14a.05.05 0 0 1-.05.05l-.55-.01a.35.35 0 0 1-.1-.02.1.1 0 0 1-.04-.02l-.01-.02V8.8c0-.02.02-.03.05-.04a.3.3 0 0 1 .1-.02l.56.01a.05.05 0 0 1 .04.05v.34Zm-.69.09h.66a.04.04 0 0 1 .04.05l.02.37a.04.04 0 0 1-.05.05l-.65-.03a.04.04 0 0 1-.05-.04l-.02-.36a.04.04 0 0 1 .05-.04Zm.71.97-.6-.02a.06.06 0 0 1-.06-.05l-.05-.33a.06.06 0 0 1 .06-.07l.6.02A.06.06 0 0 1 4 9.8l.05.33a.06.06 0 0 1-.06.07Zm.15.55-.63-.04h-.03l-.01-.03-.1-.37a.04.04 0 0 1 0-.04h.02l.02-.01.62-.01a.04.04 0 0 1 .04.03l.11.42a.04.04 0 0 1-.02.05h-.02Z" fill="#E7A03D"/><path d="M10.26 11.9c.44-.06.84-.2 1.21-.42a.68.68 0 0 0 .3-.15c.15-.13.98-.86 1.16-.52.03.06.04.12.01.19-.16.5-.43.96-.75 1.35-.25.3-.62.51-.96.72-.36.2-.83.24-1.21.1-.27-.09-.52-.41-.39-.7.08-.16.17-.27.27-.32.17-.09.29-.17.36-.25Z" fill="#FFD264"/><path d="m4.32 11.29-.62-.04a.03.03 0 0 1-.03-.02l-.15-.4a.03.03 0 0 1 .01-.04h.65a.03.03 0 0 1 .03.02l.15.43a.03.03 0 0 1-.04.05Z" fill="#E7A03D"/><path d="M5.8 11.03c.2.17.43.28.69.3a.06.06 0 0 1 .04.04c.04.09.02.15-.07.19-.32.13-.62-.25-.7-.52a.02.02 0 0 1 0-.02l.04.01Z" fill="#FFD264"/><path d="m4.4 11.37.21.42a.03.03 0 0 1 0 .02v.01h-.64l-.01-.01-.01-.01-.21-.42a.03.03 0 0 1 0-.04h.02l.62.01h.02v.02Z" fill="#E7A03D"/><path d="M6.22 11.76c.12.02.23.02.33-.05.03-.02.05-.01.05.03-.02.24-.29.17-.4.06-.05-.04-.04-.05.02-.04Z" fill="#FFD264"/><path d="m4.81 12.23-.6-.01H4.2v-.01l-.17-.29a.02.02 0 0 1 0-.02.02.02 0 0 1 .02-.01h.6a.02.02 0 0 1 .02.02l.16.28a.02.02 0 0 1-.02.04Z" fill="#E7A03D"/><path d="M9.6 12.09a.1.1 0 0 1 .1.11.1.1 0 0 1-.01.06c-.36.46-.06.89.39 1.1.02 0 .03.02.01.04a.16.16 0 0 1-.12.08 4 4 0 0 1-1.36-.05 1.27 1.27 0 0 1-.8-.62c-.12-.21.04-.43.2-.56.05-.04.1-.06.16-.07.52-.02 1-.05 1.42-.09Z" fill="#FFD264"/><path d="M7.88 13.32h-.01a.81.81 0 0 0-.25-.23.98.98 0 0 1-.28-.34c-.1-.19-.1-.36.03-.52a.08.08 0 0 1 .05-.03h.17c.02 0 .03.02.02.04-.12.42.14.76.42 1.03a.02.02 0 0 1 0 .04H8l-.13.01Z" fill="#FFD264"/><path d="m5.1 12.68-.6-.02-.2-.3c-.02-.02-.02-.04.02-.04l.5-.04c.03 0 .05 0 .06.03l.23.37Z" fill="#E7A03D"/><path d="M10.59 14.09c.32-.06.64-.13.97-.23.1-.03.1-.01.04.06a.4.4 0 0 1-.13.09c-.48.2-.96.32-1.44.35a5.28 5.28 0 0 1-4.22-1.69v-.02l.02-.01h.01a6 6 0 0 0 3.91 1.54c.17 0 .45-.03.84-.1Z" fill="#FFE5A7"/><path d="M5.1 12.68c.02 0 .04.03.05.06h-.57c0-.01-.02-.04-.07-.08l.6.02Z" fill="#1D1206"/><path d="M12.1 13.61a.06.06 0 0 0-.02.02v-.04c.37-.23.7-.52 1-.85.02-.04.05-.04.09-.01.02.01.02.04 0 .09l-.02.02a4.95 4.95 0 0 1-1.05.77Z" fill="#FFE5A7"/><path d="m5.15 12.74.3.36c.04.05.02.07-.04.07h-.36a.18.18 0 0 1-.15-.06l-.32-.36h.57Zm.82.86-.38.03h-.05l-.06-.01a4.06 4.06 0 0 1-.42-.38l.47-.02c.02 0 .03 0 .04.02l.4.37Z" fill="#E7A03D"/><path d="m6.07 13.69-.43.01-.05-.07.38-.02.1.08Z" fill="#1D1206"/><path d="m6.07 13.69.3.24c.02.02.02.03-.02.03-.1 0-.18 0-.28.03a.1.1 0 0 1-.07-.02l-.34-.2a.06.06 0 0 1-.03-.04v-.03l.44-.01Zm.43.33.37.2a.03.03 0 0 1 .02.03l-.01.02h-.02l-.28.03h-.02l-.36-.2a.03.03 0 0 1 0-.06l.3-.02Zm.62.5-.33-.12-.01-.01a.03.03 0 0 1 .02-.04l.22-.02h.02l.28.14h.01a.03.03 0 0 1 0 .04h-.21Zm.25.07c0-.02.01-.02.03-.03h.06a.73.73 0 0 1 .2.03l.03.01.18.07.07.06-.57-.14Z" fill="#E7A03D"/></svg>