<!-- by TradingView --><svg width="18" height="18" viewBox="0 0 18 18" xmlns="http://www.w3.org/2000/svg"><path fill="url(#aftenejh2)" d="M0 0h18v18H0z"/><path d="M7.09 6H4.65l.38.44h2.35L7.08 6Zm4.56 0-2.36 4.81L8.37 9H6.1l.32.4L8 13h2.5L14 6h-2.35ZM8.08 8l-.32-.43h-2.2l.36.43h2.16Z" fill="url(#bftenejh2)"/><path d="M6.35 6H4l.3.44h2.35L6.35 6Zm4.7 0-2.34 4.81L7.74 9H5.4l2.14 4H10l3.5-7h-2.44Zm-4 2-.29-.44h-2.2l.3.44h2.2Z" fill="url(#cftenejh2)"/><defs><linearGradient id="aftenejh2" x1="3.35" y1="3.12" x2="21.9" y2="24.43" gradientUnits="userSpaceOnUse"><stop stop-color="#1A1E21"/><stop offset="1" stop-color="#06060A"/></linearGradient><linearGradient id="bftenejh2" x1="4.65" y1="9.5" x2="14" y2="9.5" gradientUnits="userSpaceOnUse"><stop offset=".4" stop-color="#26A4FE"/><stop offset="1" stop-color="#38E9FD"/></linearGradient><linearGradient id="cftenejh2" x1="4" y1="9.5" x2="13.35" y2="9.5" gradientUnits="userSpaceOnUse"><stop offset=".3" stop-color="#FF9DDB"/><stop offset="1" stop-color="#FFC8FF"/></linearGradient></defs></svg>