<!-- by TradingView --><svg xmlns="http://www.w3.org/2000/svg" width="18" height="18" viewBox="0 0 18 18"><path fill="url(#ayiu1zgur)" d="M0 0h18v18H0z"/><path d="M13 5H5v.35h8V5zm0 7.65H5V13h8v-.35zm0-7.03H9.02v.16h.15c.41 0 .72.35.72.8v4.82c0 .44-.3.82-.72.82h-.15v.16h3.9l.53-1.5h-.17l-.13.28c-.26.54-.77.92-1.34.92h-1.35V5.92h1.8c.32 0 .59.3.59.66v.32H13V5.62zm-.67 2.58h.15v1.6h-.15v-.16c0-.26-.2-.48-.45-.48h-1.42v-.32h1.42c.25 0 .45-.21.45-.48V8.2zM4.7 9h1.15v.1c-.16 0-.26.17-.2.32l.96 2.24.92-2.17c.08-.19-.04-.4-.24-.4V9h1.16v.1c-.26 0-.5.15-.6.4L6.6 12.39h-.12l-1.23-2.9a.62.62 0 0 0-.56-.39V9z" fill="#fff"/><defs><linearGradient id="ayiu1zgur" x1="3.35" y1="3.12" x2="21.9" y2="24.43" gradientUnits="userSpaceOnUse"><stop stop-color="#1A1E21"/><stop offset="1" stop-color="#06060A"/></linearGradient></defs></svg>