<!-- by TradingView --><svg width="18" height="18" viewBox="0 0 18 18" xmlns="http://www.w3.org/2000/svg"><path fill="url(#a)" d="M0 0h18v18H0z"/><path d="M10.5 4.6c0 .03-.02.04-.05.05a5.78 5.78 0 0 1-.25-.25c-.07-.09-.21-.14-.42-.16a.1.1 0 0 1-.07-.03.57.57 0 0 0-.18-.11c-.04-.06-.08-.08-.12-.06l-.03-.01a.13.13 0 0 0 .05-.08c0-.03 0-.04-.03-.04h-.1c-.04-.07-.1-.1-.16-.1-.34 0-.46-.09-.4-.26h.09c.04 0 .04-.01.02-.04l-.16-.18a8.52 8.52 0 0 1-.26-.15c-.05-.03-.05-.04 0-.04l.23.01c.03 0 .05.01.07.03.13.1.23.23.3.39h.02l.03-.01v-.03l-.19-.32a.27.27 0 0 0-.1-.11c-.03-.02-.03-.03 0-.03.07-.01.1 0 .12.03 0 .02.02.03.04.02.02-.01.02-.03.02-.05-.01-.08.02-.09.08-.04.09.06.17.1.27.1a.1.1 0 0 1 .06.03c.05.05.1.12.15.22l.1.17h.03l.02-.01c-.05-.03-.08-.07-.07-.1v-.05l-.15-.24c-.02-.04-.01-.05.03-.04.22.04.4.15.55.32a4.95 4.95 0 0 0 .1.53c.02.08-.03.16-.14.22-.02 0-.02.02 0 .03.2.1.37.23.5.4Z" fill="#E1D4BB"/><path d="m9.41 3.55.14.1-.02.02H9.5a.63.63 0 0 0-.2-.1c-.02 0-.04-.03-.04-.06v-.05l-.24-.32c-.01-.02 0-.03.02-.03h.04l.02.01c.03.13.11.22.24.27.02.01.03.03.03.06v.04l.03.06Z" fill="#11110D"/><path d="m9.83 3.53.05.1c.01.09 0 .1-.05.01a.63.63 0 0 0-.05-.08.6.6 0 0 0-.06-.08c-.06-.06-.05-.08.03-.04.02 0 .04.04.08.09Z" fill="#BCB99B"/><path d="M9.29 3.76a.1.1 0 0 0-.06-.02.57.57 0 0 1-.19-.03c-.1-.04-.1-.06.01-.06.12 0 .22.04.3.1.03.02.03.03 0 .03-.02 0-.04 0-.06-.02Z" fill="#8F6C5D"/><path d="M9.3 3.91h.1c.03 0 .04.01.03.04 0 .03-.02.06-.05.08l-.2-.04-.36-.05c-.02 0-.03-.01-.02-.03v-.02a.07.07 0 0 1 .07-.05c.13 0 .26.02.38.08h.03l.02-.01Z" fill="#BCB99B"/><path d="m9.18 4 .2.03h.03v.07c.06.1.15.19.25.26l.04.06.38.87-.01.04c0 .01-.01.02-.03.02h-.02l-.39-.76a.55.55 0 0 0-.07-.18c0-.02-.01-.02-.03-.01h-.01c-.02.02-.04.01-.05 0l-.2-.24a.2.2 0 0 0-.06-.08.07.07 0 0 0-.07-.02c-.04.02-.07.04-.07.08 0 .02 0 .05.02.09.05.08.1.16.12.25h-.03c-.08-.1-.2-.14-.36-.1a.4.4 0 0 0-.2-.14l-.01.03v.02c.1.05.18.11.23.2 0 .02.03.03.05.02a.16.16 0 0 0 .1-.1c.02-.02.03-.02.04 0v.06l-.1.14a.06.06 0 0 0-.01.07l.15.32-.02.06c0 .04-.02.04-.04 0-.14-.21-.36-.33-.66-.37l.07-.11.01-.37c0-.05.03-.1.08-.12.04-.03.1-.04.15-.02l.11.03c.02.04.05.07.1.08.02.01.04 0 .05-.02l.02-.05c.05-.01.1-.04.13-.06 0-.03.04-.05.11-.06Z" fill="#11110D"/><path d="M9.06 4.05a.32.32 0 0 1-.12.06c-.04 0-.08 0-.1-.02a.03.03 0 0 1-.02-.03l.02-.02a.28.28 0 0 1 .22 0ZM9.27 4.16c-.02 0-.03.02-.03.06H9.2c-.03.02-.03.03-.02.05.06.08.08.14.06.2H9.2a.93.93 0 0 0-.12-.25c-.02-.03-.03-.06-.02-.08 0-.04.03-.06.07-.08l.07.01a.2.2 0 0 1 .06.1Z" fill="#9D937B"/><path d="M9.54 4.13c.13.14.31.23.55.29.08.02.2.11.33.28.01.02.03.02.03-.01v-.03l.05-.05.26.41-.04.01a.1.1 0 0 0-.03-.04h-.02l-.02.01c0 .06-.02.12-.06.16a.12.12 0 0 0-.03.06c-.03.14 0 .28.05.41a.24.24 0 0 0-.07.13c-.02.06-.01.1.01.14 0 .05.02.08.06.1h.02l.02-.03.02.03c0 .07-.02.12-.04.13a2.19 2.19 0 0 1-.55-.84l-.38-.87a.14.14 0 0 0-.04-.06c-.1-.07-.19-.16-.26-.26.05-.02.1-.01.14.03Z" fill="#BCB99B"/><path d="M10.45 4.65v.04c0 .02-.02.03-.04 0-.13-.16-.24-.25-.32-.27a1.12 1.12 0 0 1-.56-.29V4.1c.07.03.13.06.18.11a.1.1 0 0 0 .07.03c.2.02.35.07.42.16l.25.25Z" fill="#11110D"/><path d="m8.1 4.16.27.03-.03.4c0 .02-.02.03-.04.03-.18 0-.31.07-.4.21a.08.08 0 0 1-.07.04c-.15.02-.22.12-.21.32a.91.91 0 0 0-.13.56l-.1.17c-.02.01-.03.03-.02.04-.06 0-.08-.04-.04-.12.03-.4.16-.8.37-1.18l.59-.36c.03-.01.02-.02 0-.03l-.3-.06a.11.11 0 0 1 .1-.05ZM9.27 4.16l.2.24c.01.01.03.02.05 0h.04c.04.06.06.12.07.2-.04.04-.06.08-.05.13-.02.01-.02.03 0 .06l.01.02v.02c-.02.02-.04.02-.05 0 0-.02-.01-.02-.02-.03-.03-.01-.04 0-.03.03 0 .03.02.06.07.1a175.34 175.34 0 0 1 .01.18c.02 0 .03 0 .05-.02-.02.18.03.35.15.5a.2.2 0 0 0 .04.2c.02.02.02.05.02.07 0 .15.04.28.16.38 0 .08-.03.1-.11.06l-.38-.7c-.02-.03-.03-.03-.06-.02a.15.15 0 0 0-.06.17c0 .02 0 .04-.03.06a.13.13 0 0 1-.07 0V5.8l-.16-.57v-.17c-.02-.14 0-.24.04-.3v-.03l-.02-.02c-.02 0-.02-.02-.01-.04a.42.42 0 0 0 .05-.18l.03-.01h.04l.02.3c0 .05.02.1.05.17l.06.18a.3.3 0 0 1-.07.19c-.02.02-.02.04 0 .06.03.06.02.12-.02.18v.04l.02.01.04-.01c.12-.12.16-.25.12-.4l-.08-.75a.12.12 0 0 0-.02-.07l-.13-.16c0-.04.01-.06.03-.06Z" fill="#E1D4BB"/><path d="m7.99 4.21.3.06c.02 0 .03.02 0 .03l-.59.36c-.1.02-.19.1-.25.22a.2.2 0 0 1-.09.1c-.08.04-.1.02-.04-.05l.03-.05a.42.42 0 0 0 .08-.13.77.77 0 0 1 .56-.54Z" fill="#9D937B"/><path d="M8.42 4.57c0 .02-.02.06-.07.12-.12.04-.26.1-.4.18a.91.91 0 0 0-.23.2c-.04.05-.07.1-.1.12 0-.2.06-.3.21-.32.03 0 .05-.01.06-.04.1-.14.23-.21.4-.2.03 0 .05-.02.05-.05l.03-.39.05.38Z" fill="#8F6C5D"/><path d="M8.82 4.37c.09 0 .14 0 .16.05a.16.16 0 0 1-.09.09c-.02 0-.04 0-.05-.02a.5.5 0 0 0-.22-.2c-.02 0-.02-.01-.01-.02v-.03h.02a.4.4 0 0 1 .19.13Z" fill="#9D937B"/><path d="m9.24 4.22.13.16.02.07.08.75c-.02.08-.05.05-.1-.07 0-.04-.02-.1-.05-.18a.55.55 0 0 1-.05-.17l-.02-.3c.02-.07 0-.13-.06-.2-.01-.03 0-.04.02-.05h.03Z" fill="#11110D"/><path d="M7.98 4.43a.65.65 0 0 1-.18.12c-.12.04-.13.02-.04-.06a.6.6 0 0 1 .34-.15c.03 0 .03 0 .01.03a.09.09 0 0 1-.06.03.12.12 0 0 0-.07.03ZM9.18 4.49c0 .06-.02.11-.05.17-.01.03 0 .04.01.05l.02.02v.03c-.05.06-.06.16-.05.3v.17L9.08 5l-.15-.32a.06.06 0 0 1 0-.07l.1-.14a.05.05 0 0 0 .01-.06c0-.02-.02-.02-.03 0h-.02c-.02-.03-.07-.05-.16-.04.16-.03.28 0 .36.12Z" fill="#BCB99B"/><path d="M10.23 4.8c.04.05.06.1.08.17l-.02.01h-.01l-.3-.49.02-.02.04.01c.04.11.12.2.23.25.02 0 .02.02 0 .03l-.03.02c-.01 0-.02.01 0 .03Z" fill="#8F6C5D"/><path d="M10.41 5.72a1 1 0 0 0-.11-.2.77.77 0 0 1-.13-.22 3.06 3.06 0 0 0-.36-.75c0-.02 0-.03.02-.03h.02c.16.19.27.38.33.57.08.22.16.39.26.5a.1.1 0 0 1 .03.06v.06c0 .1-.02.1-.06 0Z" fill="#2A2B25"/><path d="M10.02 5.35c.12.28.28.54.5.8.07 0 .13.05.16.1.02.04.03.04.04 0a.1.1 0 0 0 0-.05.52.52 0 0 1-.02-.12c0-.03.01-.05.03-.07.08-.08.09-.18.03-.3a.97.97 0 0 0-.01-.33l.01-.07c.03-.04.03-.07.02-.1-.02-.03-.03-.03-.05 0a.23.23 0 0 0-.02.1c0 .02-.01.02-.03.02h-.03c-.01 0-.02 0-.02-.02 0-.06.01-.11.06-.15a.08.08 0 0 0 .04-.06l-.01-.07h.03c.07.08.1.15.1.22v.72c0 .1-.03.2-.08.28 0 .02-.02.03-.03.04h-.03c-.02.01-.03.02-.03.04.03.1.03.25.02.43-.02.24-.07.37-.16.4-.03.02-.04.03-.04.06 0 .05.02.09.06.12.02.02.03.04.02.06a.54.54 0 0 0-.04.33c-.01.08.02.16.11.23.02.01.02.03 0 .04 0 .01-.02.02-.03.01a.16.16 0 0 1-.09-.05l-.04-.03c-.02 0-.03 0-.05.03-.05-.03-.06-.08-.04-.15 0-.02 0-.03-.02-.03h-.04s-.02 0-.02.02c-.03.07-.02.12.03.15.02.01.01.01 0 .01h-.03V8c0 .02.03.04.06.05l-.03.01h-.03l-.01-.02c-.02-.02-.02-.02-.02.01.01.06.01.1 0 .14l-.1.09c-.04.03-.05.02-.04-.02v-.1c0-.04-.02-.04-.03 0l-.04.13c.03-.14.04-.28.04-.43a.69.69 0 0 0-.06-.23.32.32 0 0 1 0-.24c.02-.04.01-.06 0-.08-.03-.02-.04-.01-.05.02a.4.4 0 0 1-.1.22 4.45 4.45 0 0 0-.08 1.03c.01.15.06.29.16.4.07.09.19.18.35.28.02.03.01.06 0 .08-.32.38-.73.6-1.24.64L9 9.96c-.03 0-.04-.02-.04-.05v-.35c.02-.51-.02-.9-.1-1.14h-.39c-.03.01-.04 0-.05-.03a.76.76 0 0 1-.01-.27.1.1 0 0 1 .03-.07c.06-.05.07-.1.04-.19-.01-.02 0-.04.01-.06.08-.07.2-.12.38-.13-.12-.06-.23-.1-.34-.13-.07-.02-.12-.05-.15-.09a.34.34 0 0 1-.04-.16c0-.07-.05-.11-.13-.13l-.04-.07.1-.6s.01-.02.03-.02h.03c.02.02.04.05.05.09.22.4.54.51.96.33.15-.07.2-.2.17-.36.03-.02.05-.1.04-.23.18.08.28.2.29.36 0 .07.02.13.06.2.02.02.02.04.02.06v.22l.01.01.03.02h.02l-.01-.55V6.6l.02-.02c.02-.02.02-.03-.01-.04-.09-.02-.12-.07-.1-.14 0-.02 0-.03-.03-.03h-.07a.1.1 0 0 1-.06-.03l-.22-.2a.15.15 0 0 1-.04-.08c-.02-.05-.06-.08-.15-.09-.01 0-.02 0-.02-.02-.01-.05.03-.06.12-.03.02 0 .03 0 .03-.02a.3.3 0 0 0-.02-.12c0-.03 0-.04.03-.04h.04l.02.01c.04.1.09.2.16.26.02.02.02.04 0 .06l-.04.07c-.02.03 0 .05.02.06l.23.1c.08.04.12.02.1-.06l.13.09c.02.01.04.02.06.01h.07l.23.48c0 .02.01.02.02.01l.03-.02v-.03a.59.59 0 0 1-.17-.41c0-.1.06-.13.16-.1h.03v-.03c0-.01 0-.02-.03-.03a.13.13 0 0 1-.07-.04 5.98 5.98 0 0 0-.09-.1c-.11-.12-.2-.23-.23-.33l-.13-.27c-.13-.28-.22-.5-.27-.66-.01-.05-.06-.08-.14-.08-.01-.05 0-.1.05-.14l.39.76Z" fill="#F3D0BD"/><path d="M8.35 4.7c.3.02.52.15.66.37.02.03.04.03.04-.01L9.07 5l.05.23.16.57-.19-.03a.2.2 0 0 0 .1 0c.03 0 .04-.03.03-.06 0-.04-.04-.06-.09-.07-.02-.22-.12-.37-.32-.45a.08.08 0 0 1-.05-.05.79.79 0 0 0-.19-.3.1.1 0 0 0-.07-.03c-.06 0-.14 0-.22.02a.61.61 0 0 0-.22.1c-.02.02-.03.06-.04.12 0 .1-.02.2-.05.28a.97.97 0 0 0-.03.48l.2.24a.63.63 0 0 1-.16-.1.54.54 0 0 0-.14-.1 1.5 1.5 0 0 0-.35-.1c-.01-.2.03-.4.13-.56l.1-.12c.09-.1.16-.17.23-.2.14-.08.28-.14.4-.18Z" fill="#4C3729"/><path d="m10.25 6.33-.05-.03c-.08-.06-.07-.1.03-.1h.04c.03 0 .03-.02 0-.04a.67.67 0 0 1-.07-.05.73.73 0 0 1-.2-.35 1.87 1.87 0 0 0-.12-.33c-.1-.16-.16-.34-.2-.52 0-.02-.02-.03-.05-.02a.19.19 0 0 0-.07.04c-.04-.04-.07-.07-.07-.1 0-.04 0-.05.03-.03l.02.03c.01.02.03.02.04 0l.01-.02v-.02c-.03-.03-.03-.05-.01-.06.08 0 .13.03.14.08a5.26 5.26 0 0 0 .63 1.27l.09.1c.01.01.04.03.07.03.03 0 .04.02.04.03l-.01.02c0 .01-.02.02-.03.01-.1-.03-.15 0-.16.1 0 .14.05.28.17.41v.03l-.02.02h-.03l-.22-.5Z" fill="#11110D"/><path d="M10.44 4.87c.02.02.03.05.03.07-.01.04-.03.04-.05.01l-.08-.1c-.05-.06-.04-.08.04-.06l.02.03c0 .02.02.04.04.05Z" fill="#9D937B"/><path d="M9.13 5.64c-.15-.17-.3-.31-.47-.44a1.1 1.1 0 0 1-.26-.32.06.06 0 0 0-.07-.03c-.08.01-.12.06-.12.14 0 .08-.03.2-.1.36-.05.14-.08.26-.08.33 0 .22.1.38.31.48.03 0 .05.01.05.03 0 .01 0 .03-.02.03h-.1c0 .08-.01.12-.04.13.02-.04.01-.07-.02-.08a.08.08 0 0 0-.08 0 .08.08 0 0 0-.03.07c-.02.44-.25.64-.69.6a.55.55 0 0 0-.18-.13.33.33 0 0 1-.18-.28c0-.12-.01-.18-.02-.2 0-.02-.02-.04-.04-.05-.01 0-.02 0-.03-.02-.01-.02 0-.03.02-.04a.6.6 0 0 0 .35-.38c-.04.08-.02.12.04.11-.06.1-.14.2-.24.28a.08.08 0 0 0-.03.06c0 .22.03.37.12.46.09.09.25.12.49.1.19-.02.28-.21.28-.58 0-.1-.07-.16-.21-.21-.02 0-.03-.02-.02-.04 0-.02.01-.03.02-.03a.15.15 0 0 1 .1 0c.08.05.13.1.17.17.02.03.04.03.07 0 .06-.04.06-.08.01-.11l-.2-.24V5.8c-.02-.2-.01-.35.03-.46a.8.8 0 0 0 .06-.28c0-.06.02-.1.04-.12a.61.61 0 0 1 .22-.1.69.69 0 0 1 .22-.02.1.1 0 0 1 .07.03c.08.07.14.17.19.3 0 .02.02.04.05.05.2.08.3.23.32.45Z" fill="#8F6C5D"/><path d="M9.13 5.64c.05 0 .08.03.1.08 0 .02-.01.04-.04.05a2.95 2.95 0 0 0-.66.12c-.02.01-.02.03-.02.05-.08.04-.14.11-.17.22-.2-.1-.3-.26-.3-.48 0-.07.02-.18.08-.33.06-.15.09-.27.09-.36 0-.08.04-.13.13-.13.02 0 .04 0 .06.02l.04.07c.08.11.15.2.22.25.17.13.32.28.47.44Z" fill="#C99984"/><path d="m10.24 6.33-.07.01-.06-.01-.12-.1a.44.44 0 0 1-.16-.37c0-.03 0-.05-.02-.07a.2.2 0 0 1-.04-.2l.05.03c.03 0 .04 0 .03-.03l-.23-.5c-.02.02-.03.03-.05.02v-.04l-.01-.14a.19.19 0 0 1 .07-.04c.03-.01.04 0 .05.02.04.18.1.36.2.52.03.05.07.16.12.32.05.18.12.3.2.36l.07.05c.03.02.03.03 0 .03h-.04c-.1.02-.11.05-.03.1l.04.04Z" fill="#9D937B"/><path d="M10.72 5.03v.07c0 .03 0 .05-.03.06a.16.16 0 0 0-.06.15c0 .02 0 .02.02.02h.03c.02 0 .03 0 .03-.02 0-.03 0-.06.02-.1.02-.03.03-.03.05 0 .01.03 0 .06-.02.1a.08.08 0 0 0-.01.07c.02.1.02.21 0 .32-.04.02-.06.05-.05.1.04.12.03.19-.03.2l-.02-.03c-.06-.13-.1-.16-.1-.07-.02-.04-.03-.08-.01-.14.05.06.09.03.1-.07 0-.02 0-.04-.03-.06a.72.72 0 0 1-.05-.4c0-.03.01-.05.03-.07.04-.04.06-.1.06-.16l.02-.02h.02l.03.05Z" fill="#8F6C5D"/><path d="M9.77 5.6a.66.66 0 0 1-.15-.51l.23.5c0 .03 0 .04-.03.04l-.05-.04Z" fill="#11110D"/><path d="m10.42 5.23.1.06v.04h-.02c-.02 0-.06-.02-.11-.08s-.08-.1-.07-.12l.02-.02h.02l.01.01.05.1Z" fill="#9D937B"/><path d="M9.47 5.2c.04.15 0 .28-.12.4-.02.01-.03.02-.04.01l-.02-.01v-.04c.05-.06.05-.12.02-.18-.02-.02-.01-.04 0-.06a.3.3 0 0 0 .07-.19c.04.12.07.14.09.07Z" fill="#8F6C5D"/><path d="m10.63 6.13-.12.01c-.2-.25-.37-.51-.5-.79h.03c.02 0 .03 0 .03-.02l.01-.04c.1.3.29.58.55.84Z" fill="#1D1E19"/><path d="m9.88 6.3-.23-.1c-.03-.01-.04-.03-.02-.06l.04-.07c.02-.02.02-.04 0-.06a.63.63 0 0 1-.16-.26l-.02-.01h-.04c-.03 0-.04.01-.03.04.02.05.02.09.02.12 0 .02-.01.02-.03.02-.1-.03-.13-.02-.12.03 0 .02 0 .02.02.02.08 0 .13.04.15.1 0 .02.02.04.04.06l.22.21a.1.1 0 0 0 .06.03h.07c.02 0 .03 0 .03.03-.02.07.01.12.1.14.03 0 .03.02.01.04l-.01.02-.01.02v.54c0 .01 0 .02-.01 0h-.03v-.24l-.03-.07a.43.43 0 0 1-.06-.19c-.02-.16-.11-.28-.29-.36l-.18-.19a.1.1 0 0 0-.06-.03c-.06 0-.1-.03-.12-.06-.02-.03-.04-.04-.07-.02a.5.5 0 0 1-.29 0 .1.1 0 0 0-.07 0c-.21.12-.3.3-.28.54a.1.1 0 0 0-.08-.03c-.01 0-.02.02-.02.05a.16.16 0 0 0-.05-.08.03.03 0 0 0-.03-.01.03.03 0 0 0-.03.03l-.1.59a.27.27 0 0 1-.14-.14.1.1 0 0 1 0-.07l.2-.53c.02-.01.04-.05.04-.12l.07.15c.05.09.08.08.08-.01v-.13c0-.03 0-.05.03-.06a.42.42 0 0 0 .14-.2c.18-.04.38-.05.59-.02.02 0 .04 0 .05-.03l.05-.11.07-.01c.03-.02.04-.04.03-.06a.15.15 0 0 1 .06-.17c.03-.02.05-.01.06.01l.38.7Z" fill="#9D937B"/><path d="M10.54 5.76c0-.05.03-.1.07-.13.03.02.04.04.04.06-.02.1-.06.13-.11.07Z" fill="#2A2B25"/><path d="M10.76 5.7c.06.13.05.23-.03.31a.09.09 0 0 0-.03.07l.02.12a.1.1 0 0 1 0 .06c0 .03-.02.03-.04 0-.03-.06-.09-.1-.17-.12l.12-.01c.01-.01.03-.06.04-.13.06-.01.07-.08.03-.2-.01-.05 0-.08.06-.1Z" fill="#764C5B"/><path d="M8.13 6.05c.05.03.05.07-.01.12-.03.02-.05.02-.07-.01a.47.47 0 0 0-.17-.17c-.05-.05-.17-.08-.37-.07H7.4l.1-.17c.13.02.25.05.35.1.04.01.09.05.14.1l.15.1Z" fill="#11110D"/><path d="M8.5 5.94c.03.03.06.04.09.05a.42.42 0 0 1-.14.19.07.07 0 0 0-.03.06v.13c0 .1-.03.1-.08 0a1.32 1.32 0 0 1-.07-.15h.1c.02 0 .03-.02.02-.03 0-.02-.02-.03-.05-.03.03-.11.09-.18.17-.22Z" fill="#F3D0BD"/><path d="M9.55 6.3c0 .13 0 .2-.04.23-.09.27-.27.4-.55.38a.52.52 0 0 1-.48-.37c-.02-.24.07-.42.28-.53A.1.1 0 0 1 8.83 6c.12.02.21.02.29 0 .03-.02.05 0 .07.02.02.03.06.05.12.06a.1.1 0 0 1 .06.03l.18.2Z" fill="#BCB99B"/><path d="M9.02 6.39c-.09.01-.17 0-.23-.02-.1-.04-.13-.01-.07.08.04.05.12.1.24.12-.1.02-.2 0-.3-.08a.09.09 0 0 1-.04-.06c-.02-.14.04-.26.18-.34a.11.11 0 0 1 .12 0 .1.1 0 0 1 .06.1c0 .07.01.13.04.2Z" fill="#8F6C5D"/><path d="m8.23 6.35-.2.53a.1.1 0 0 0 0 .07c.03.06.07.1.14.14l.04.07-.02.06-.08.15a.06.06 0 0 0 0 .06l.1.09c.02.03.09.06.2.09.08.01.08.02.01.03l-.22.03c-.03 0-.05.02-.05.05l.01.12c0 .03.01.05 0 .07a.75.75 0 0 0 .04.48c.07.04.15.06.22.07.1.02.16.02.19 0-.1.5-.27.93-.51 1.3a.85.85 0 0 1-.54-.43c-.03-.07-.01-.12.06-.15a.88.88 0 0 0 .5-.72L8.1 8.4a3.03 3.03 0 0 0-.17-.2l-.25-.32c-.16-.29-.25-.6-.27-.93.44.03.67-.17.69-.61 0-.03.01-.05.04-.07a.08.08 0 0 1 .07 0c.03.01.04.04.02.08Z" fill="#4C3729"/><path d="M9.02 6.39c.1 0 .2 0 .31-.02h.04c.02 0 .03.02.03.03.01.02 0 .04-.02.05-.13.06-.27.1-.42.12-.12-.03-.2-.07-.23-.12-.07-.1-.05-.12.06-.08.06.03.14.03.23.02Z" fill="#11110D"/><path d="m10.54 6.53-.05-.07c0-.1.02-.1.08-.03l.02.08c0 .05-.02.05-.05.02ZM8.48 6.54c.08.22.24.35.48.37.28.02.46-.1.55-.38.03.17-.02.29-.17.36-.42.18-.74.07-.96-.33 0-.03 0-.05.02-.05a.1.1 0 0 1 .08.03Z" fill="#764C5B"/><path d="M10.23 6.7c0 .05 0 .1-.05.14-.02.02-.03.01-.04-.01a6.46 6.46 0 0 1-.05-.22c0-.02 0-.03.03-.02.06.02.1.05.1.1Z" fill="#BCB99B"/><path d="M8.66 7.05v-.02c0-.02.01-.03.03-.03l.04.02c.02.02.03.03.02.06a.17.17 0 0 1-.1.1c-.02 0-.03 0-.03-.03l.04-.08v-.02Z" fill="#C99984"/><path d="M10.36 7.03c.05.07.06.12.03.16-.02.02-.04.02-.05 0a.2.2 0 0 1-.04-.15s.01-.02.03-.02l.03.01Z" fill="#BCB99B"/><path d="M8.36 7.14c.04.03.1.04.1.02.02-.02 0-.06-.05-.09-.04-.03-.09-.04-.1-.02-.02.02 0 .06.05.1Z" fill="#4C3729"/><path d="M8.87 7.67h-.4c-.02 0-.04.02-.03.05.02.04 0 .08-.02.12h-.01v-.01a.12.12 0 0 0-.01-.13v-.02.13c0 .03-.02.05-.04.06a.2.2 0 0 1-.08.02c-.03 0-.04 0-.05.03a1 1 0 0 0-.03.48.75.75 0 0 1-.03-.48v-.08a.26.26 0 0 1-.02-.12c0-.03.02-.04.05-.05l.22-.03c.07 0 .07-.02 0-.03-.12-.03-.2-.06-.2-.1.04-.05.05-.14.03-.24 0-.03-.02-.05-.06-.05l.02-.06c.08.02.12.06.13.13 0 .07.02.13.04.16.03.04.08.07.15.1.1.02.22.06.34.12Z" fill="#8F6C5D"/><path d="M8.22 7.52a.24.24 0 0 1-.1-.09.06.06 0 0 1 0-.06l.07-.15c.04 0 .06.02.06.05.02.1.01.18-.03.25Z" fill="#BCB99B"/><path d="m10.08 8.28.06.26c.02.09.05.17.1.24.1.11.18.23.26.34a.21.21 0 0 1-.06.07l-.03.01a.13.13 0 0 1-.07.05c-.17-.1-.28-.2-.35-.28a.71.71 0 0 1-.16-.4 4.45 4.45 0 0 1 .07-1.03.4.4 0 0 0 .11-.22c0-.03.02-.04.05-.02.01.02.02.04 0 .08a.32.32 0 0 0 0 .24l.06.23c0 .15-.01.29-.04.43Z" fill="#1D1E19"/><path d="M10.26 7.52c.02.06.06.1.08.09.01 0 0-.06-.02-.11-.03-.06-.07-.1-.08-.1-.02.02-.01.07.02.12Z" fill="#373935"/><path d="M8.87 7.67c-.17.02-.3.06-.38.13-.02.02-.02.04-.01.06.03.08.02.15-.04.2a.1.1 0 0 0-.03.06v.27c.02.03.03.04.06.04h.39l.03.81-.02.02h-.01l-.02-.54-.01-.23c0-.02-.02-.04-.04-.04h-.37a.64.64 0 0 1-.22-.05 1 1 0 0 1 .03-.48c0-.02.02-.03.05-.03a.2.2 0 0 0 .08-.02c.02-.01.04-.03.04-.06v-.13.02c.03.04.03.09 0 .13v.01h.02a.15.15 0 0 0 .02-.12c0-.03 0-.05.04-.05h.4Z" fill="#C99984"/><path d="M10.44 7.95c-.01.04-.03.06-.06.09-.03-.01-.05-.03-.06-.05v-.03h.02c.02 0 .03 0 0-.01-.04-.03-.05-.08-.02-.15l.02-.02h.04c.02 0 .03.01.02.03-.02.07 0 .12.04.14Z" fill="#9D937B"/><path d="M10.29 8.18c-.1.34 0 .63.28.88.02.02.03.04 0 .07-.03.03-.05.03-.07-.01l-.25-.34a.63.63 0 0 1-.11-.24l-.06-.26.04-.12c.01-.05.02-.04.03 0v.1c0 .03 0 .04.03.01l.1-.09Z" fill="#E1D4BB"/><path d="M9.1 9.97c-.18.03-.36.02-.55-.05a.26.26 0 0 1 .12-.15c.03.05.07.08.1.08s.05-.01.05-.04v-.23l.02-.86.02.53c0 .01 0 .02.01 0h.02l-.03-.83c.08.25.12.62.1 1.14v.35c0 .03.01.04.04.05l.1.01Z" fill="#BCB99B"/><path d="m8.84 8.72-.02.86a24.4 24.4 0 0 0 0-1.05c-.02-.01-.02 0-.02.01 0 .39-.03.78-.08 1.17 0 .02-.02.03-.04.03a.37.37 0 0 0-.34.11c-.02.02-.04.02-.06 0l-.02-.02a.07.07 0 0 1 0-.08c.18-.26.3-.53.4-.8.06-.27.04-.43-.05-.5-.03.03-.1.03-.19 0h.37c.02 0 .04.02.04.04v.23Z" fill="#8F6C5D"/><path d="m8.66 8.94-.02-.38-.45 1.27c.08.04.15.06.21.06.04.02.1.04.15.04.19.06.37.07.55.04.5-.05.92-.26 1.23-.64.02-.02.03-.05 0-.08.04 0 .07-.02.08-.04.08.11.07.2-.04.27l-.4.28a2 2 0 0 1-.64.29c-.03 0-.04.02-.04.06a2.86 2.86 0 0 1 0 .53h-.02c-.02 0-.03 0-.03-.02l-.05-.5c0-.02-.02-.04-.05-.04l-.28-.02c-.03 0-.04.01-.04.04v.07a.04.04 0 0 1-.04.01c-.02 0-.03-.02-.03-.04v-.04c-.01-.02-.02-.03-.05-.03h-.03l-.01.04c.02.3.02.6 0 .89 0 .04-.04.1-.1.21-.02.02-.02.02-.02 0v-.33c.01-.04 0-.14-.02-.31a.96.96 0 0 1 .05-.48l-.01-.03h-.02c-.08.02-.12.07-.12.13a5.7 5.7 0 0 1-.04.58 2.96 2.96 0 0 1-.03-.63c0-.08-.03-.1-.11-.08-.12.05-.15.1-.1.18 0 .03.02.04.04.04h.02c.03.02.04.04.04.07l-.02.1a.83.83 0 0 0-.01.22l.04.6c0 .06-.03.11-.09.16-.05.04-.07.02-.06-.04.01-.06.02-.11.01-.16 0-.04-.02-.04-.04-.01-.05.06-.07.17-.04.33 0 .02-.01.03-.03.04h-.03l-.04-.04a1.1 1.1 0 0 1-.08-.77v-.08c-.03-.03-.04-.02-.04.01-.01.1-.04.15-.08.15-.03 0-.05-.01-.05-.04l-.03-.26c0-.03-.01-.03-.03-.03-.02 0-.03 0-.04.02a4.92 4.92 0 0 0-.04.47l-.02.02h-.03c-.01 0-.02 0-.02-.02v-.8c0-.03-.01-.04-.04-.02l-.05.02a.03.03 0 0 0-.01.03v.45c.03.11.01.26-.03.46a3.63 3.63 0 0 0-.05.23h-.03l-.02-.02v-.8c0-.01 0-.02-.02-.02H7.2l-.05.44c0 .01 0 .02-.02.02h-.04c-.02 0-.02-.01-.02-.03l.07-1.01-.01-.02H7.1v.01a.7.7 0 0 0 0 .1c.02.1 0 .17-.05.21a.1.1 0 0 0-.04.03.52.52 0 0 0-.06.29c.01.2 0 .42-.01.62H6.88c-.02-.01-.03-.02-.03-.05v-.45l-.01-.02H6.8c-.02 0-.03 0-.03.02L6.7 11.8l-.06-.31c.06-.42.07-.84.03-1.28.03-.03.04-.06.03-.1 0-.03-.02-.04-.05-.01-.03.04-.07.05-.1.05a.07.07 0 0 0-.07.03 2.4 2.4 0 0 0-.42 1.06c0 .03-.02.03-.04.02l-.03-.02c-.02-.01-.03-.03-.03-.05 0-.25-.02-.5-.1-.78.07-.1.18-.2.32-.3a.74.74 0 0 1 .27-.12.86.86 0 0 0 .43-.24.03.03 0 0 1 .04-.01c.01 0 .02.01.02.03v.07c0 .02.01.04.03.05h.06l.05-.05c.07-.13.2-.18.4-.16a2.27 2.27 0 0 1 .6.19l.04-.01V9.8l-.02-.03c.24-.38.41-.82.5-1.31.1.06.12.22.06.48Z" fill="#3A365E"/><path d="M8.66 8.94c-.1.28-.22.55-.4.82a.07.07 0 0 0 0 .07l.02.03h.06c.1-.1.2-.15.34-.12.02 0 .04 0 .04-.03a8.33 8.33 0 0 0 .1-1.18V9.8c0 .03-.02.04-.04.04-.05 0-.08-.03-.11-.08-.11 0-.2.04-.27.12a.55.55 0 0 1-.2-.06c.25-.4.4-.82.44-1.27l.02.38Z" fill="#9D937B"/><path d="M8.64 8.56c-.04.45-.2.87-.45 1.27l.45-1.27Z" fill="#764C5B"/><path d="M8.64 9.63V9.6c.08-.58.13-.86.15-.86.01 0-.02.29-.1.86l-.01.02-.01.01h-.03Z" fill="#9D937B"/><path d="M10.44 9.19h.02l.04.02.3.24.02.06-.04.04-.03.06a.08.08 0 0 0 0 .07l.19.45a4 4 0 0 1 .17.63l.07.3.03 1.49c0 .03-.01.04-.04.01a.1.1 0 0 1-.01-.04c0-.02-.02-.03-.03-.01l-.01.05c0 .06-.02.1-.06.12a.08.08 0 0 0-.03.06c-.03.22.02.42.15.6v.03l-.02.01-.17-.06c-.02-.01-.03 0-.03.02l-.03.18c0 .03.01.05.04.04l.35-.03c-.23.1-.48.17-.72.24 0-.05-.04-.07-.12-.08-.03 0-.04-.02-.04-.05l.08-.59c0-.01.01-.02.03-.02h.02c.03 0 .05 0 .05-.04l.01-.31c-.02-.16-.05-.16-.1 0a11.53 11.53 0 0 0-.27 1.07l-.07.04c-.04.02-.06 0-.06-.03v-.06c.03-.13.06-.26.07-.4l.05-.09a.15.15 0 0 0 .03-.06l.23-.86.02-.37c0-.03.02-.05.04-.06.05-.04.07-.08.04-.12a.06.06 0 0 1 0-.07c.03-.03.03-.07 0-.12a.1.1 0 0 1-.01-.07c.09-.43.07-.87-.04-1.3 0-.02-.02-.03-.04-.03s-.03.01-.03.03c-.02.23-.01.43.01.59l.02.31a3.16 3.16 0 0 0 .01.25h-.02l-.01-.01a.67.67 0 0 1-.03-.2.6.6 0 0 0-.01-.16c-.06-.2-.09-.43-.07-.69 0-.03-.01-.04-.04-.04h-.03c-.02 0-.03.02-.03.03-.02.22-.03.36-.02.42.09.63.13 1.12.13 1.47a.2.2 0 0 1-.03.1.04.04 0 0 1-.05 0l-.03-.03-.04-.48c0-.04-.03-.05-.07-.05h-.04c-.03 0-.04.02-.04.05-.02.3 0 .58.03.86.02.15.02.32-.01.51l-.15.8-.25.03.06-.73c0-.03-.01-.05-.05-.05h-.04c-.03 0-.04.02-.04.05l-.05.33c0 .03-.02.04-.06.02a.13.13 0 0 1-.05-.05c.1-.6.17-1.06.2-1.4 0 0 0-.02-.03-.03-.03-.02-.04 0-.04.02a.1.1 0 0 1-.01.05c-.01.03-.03.03-.05 0l-.04-.07c-.02-.03-.04-.04-.06-.03a.12.12 0 0 0-.08.07c0 .02-.03.03-.05.03-.06-.01-.1 0-.13.02-.02.02-.04.05-.04.1a.77.77 0 0 1-.14.34.08.08 0 0 0-.01.08c.02.06.03.15.04.26 0 .13.03.23.05.3.03.09.04.17.03.26-.01.08-.03.08-.05 0l-.1-.42c-.02-.17-.06-.3-.1-.42-.06-.15-.1-.3-.15-.46 0-.02-.02-.03-.04-.02h-.02c-.01 0-.02 0-.02.02.09.27.13.46.12.57 0 .2 0 .37.03.53a5.39 5.39 0 0 1 .06.69c-.53 0-1.05-.05-1.57-.17-.03-.28-.07-.55-.12-.82-.02-.1-.01-.26.02-.47.06-.36.07-.7.03-1.06 0-.03-.01-.04-.04-.05h-.03c-.03 0-.05 0-.06.03l-.27.6c-.06.14-.1.14-.1-.02l-.02-.25.08-1.08c0-.01.01-.02.03-.02h.03l.01.02v.45c0 .02.01.04.03.04l.05.02v-.01c.03-.2.03-.41.02-.62 0-.1.02-.2.06-.29a.1.1 0 0 1 .04-.03c.05-.04.07-.11.05-.22a.7.7 0 0 1 0-.1h.02c.01 0 .02 0 .02.02l-.08 1.01c0 .02 0 .02.02.02h.06l.05-.45h.03c.02 0 .03 0 .03.02v.8s0 .02.02.02h.03v-.02l.04-.22c.05-.19.06-.34.04-.45a2.6 2.6 0 0 1-.01-.45c0-.02 0-.03.02-.03l.04-.02c.03-.02.04-.01.04.02v.8c0 .01 0 .02.02.03l.03-.01.02-.02V11l.05-.46c0-.02 0-.02.03-.03.02 0 .03.01.03.03l.03.26c0 .04.02.05.05.05.04 0 .07-.05.08-.15 0-.03.01-.04.04-.01v.08c-.06.28-.03.53.09.77 0 .02.02.04.03.04H8c.02 0 .03-.02.03-.04-.03-.16-.01-.27.04-.33.02-.03.04-.03.04.01v.16c-.02.06 0 .08.06.04.05-.05.08-.1.08-.16 0-.2-.02-.4-.04-.6 0-.05 0-.12.02-.23l.01-.1c0-.03 0-.05-.03-.05h-.02a.08.08 0 0 1-.05-.05c-.05-.07-.01-.13.1-.18.08-.03.12 0 .11.08-.01.2 0 .4.03.63a5.7 5.7 0 0 0 .04-.58c0-.07.04-.11.12-.14h.02c.01.02.02.03.01.04a.96.96 0 0 0-.05.48 3.2 3.2 0 0 1 .04.64c.06-.1.1-.17.1-.21a5.33 5.33 0 0 0 0-.93h.04c.03 0 .04 0 .04.03v.04c0 .02.02.03.04.04l.04-.01v-.07c0-.03.01-.04.04-.04l.29.02c.02 0 .04.02.04.04l.05.5.03.03h.03v-.03c.02-.17.01-.34 0-.51-.01-.04 0-.06.04-.06a2 2 0 0 0 .63-.3c.17-.1.3-.2.4-.27.11-.07.13-.16.05-.28l.02-.01Z" fill="#4D4879"/><path d="M10.78 9.55c-.01.02-.02.04-.01.06 0 .03.02.04.05.03.06-.01.1-.04.12-.08.01-.02.03-.02.04-.01l.9.53c.06.26.07.53.03.8v.03h.04l.02-.01v-.58c0-.1.03-.12.1-.04 0 .02.02.09.01.2 0 .03.01.05.03.07.07.04.1.1.12.17 0 .03.02.05.05.06.06.02.07.06.04.14 0 .02 0 .04.02.06a.2.2 0 0 1 .05.22l-.05.15-.03.28c-.02.19-.05.34-.1.44a.7.7 0 0 0-.04.33c0 .02 0 .05-.02.07a.7.7 0 0 0-.06.25l-.02.16a8.26 8.26 0 0 0-.04.22h.03l.04-.02a.12.12 0 0 0 .06-.06.58.58 0 0 1 .09-.19.06.06 0 0 0 0-.06c-.04-.1-.02-.2.05-.33a.08.08 0 0 0 .01-.07c-.03-.09 0-.2.08-.33V11.57l.02-.07.24-.66v.36l-.1.84-.03.02c-.02.01-.04.05-.06.1-.01.02 0 .02.01.02h.03c.02 0 .03.01.04.03v.05c-.1.12-.17.26-.22.41 0 .03 0 .04.03.03a.2.2 0 0 0 .13-.07c.02.1-.03.23-.13.4l-.55.29c.05-.37.04-.72-.03-1.05a7.63 7.63 0 0 1-.03-.91h-.02c-.02 0-.03 0-.04-.02a.44.44 0 0 1-.05-.2c0-.03-.01-.05-.04-.05-.06-.01-.1-.05-.1-.12 0-.04-.03-.05-.06-.05-.1 0-.18.05-.25.14a8.53 8.53 0 0 1-.07-.3 4.02 4.02 0 0 0-.36-1.08.08.08 0 0 1 0-.07l.03-.06Z" fill="#764C5B"/><path d="M6.67 10.2c.04-.03.04-.05-.01-.05-.04 0-.05.02-.05.05v1.02c0 .08-.03.17-.08.29-.05.1-.07.09-.07-.02a3.75 3.75 0 0 0-.04-.57H6.4l-.06.63c-.04.45-.05.89-.03 1.32 0 .06-.01.14-.04.24a.73.73 0 0 0-.04.2c0 .03-.02.05-.04.06H6.1a.4.4 0 0 1-.04-.11l-.12-1.24a1.71 1.71 0 0 0-.2-.62s-.04-.07-.15-.2a.5.5 0 0 1-.06-.51c0-.03.03-.04.05-.03.17.02.26-.07.27-.26.08.27.1.53.1.78 0 .02 0 .04.03.05l.03.02c.02.01.04 0 .04-.02.05-.37.2-.72.43-1.06a.07.07 0 0 1 .06-.03c.04 0 .07-.02.1-.05.03-.03.04-.02.05.01.01.04 0 .07-.03.1Z" fill="#4D4879"/><path d="m11.88 10.08.13.08c.32.13.54.35.64.68l-.24.66-.01.07v.47c-.09.13-.12.24-.09.33v.07c-.08.12-.1.23-.06.33v.06a.57.57 0 0 0-.1.19.12.12 0 0 1-.05.06l-.04.02h-.03l-.01-.03a8.13 8.13 0 0 1 .07-.35.7.7 0 0 1 .06-.25.12.12 0 0 0 .02-.07c-.01-.12 0-.23.04-.33.05-.1.08-.25.1-.44 0-.12.02-.21.03-.28l.05-.15c.03-.08.01-.15-.05-.22a.06.06 0 0 1-.02-.06c.03-.08.02-.12-.04-.14a.07.07 0 0 1-.05-.06.27.27 0 0 0-.12-.18.07.07 0 0 1-.03-.06l-.01-.2c-.07-.08-.1-.07-.1.04v.58l-.02.02-.03-.01a.03.03 0 0 1-.01-.04c.04-.26.03-.53-.03-.8Z" fill="#966371"/><path d="M6.67 10.2c.04.44.03.86-.02 1.28l-.04.96c0 .03-.02.04-.05.04-.02 0-.04-.02-.05-.04a3.9 3.9 0 0 1-.17-.89l.06-.62c0-.02 0-.02.02-.01a3.74 3.74 0 0 1 .04.57c0 .1.02.11.07.02.05-.12.08-.21.08-.3V10.2c0-.03.01-.05.05-.05.05 0 .05.02.01.04Z" fill="#766997"/><path d="M10.5 12.3c0-.06 0-.1-.02-.14 0-.03-.02-.04-.05-.03a.11.11 0 0 0-.03.02c0-.35-.04-.84-.14-1.47 0-.06 0-.2.03-.42 0-.01.01-.02.03-.02h.03c.03 0 .04 0 .04.03-.02.26 0 .5.06.69.02.04.02.1.02.17 0 .08.01.14.03.19v.01h.03v-.25l-.03-.31a2.65 2.65 0 0 1 0-.59c0-.02 0-.03.02-.03s.03.01.03.03c.12.43.13.87.04 1.3 0 .03 0 .05.02.07.03.05.03.09 0 .12a.06.06 0 0 0 0 .07c.02.04.01.08-.04.12a.08.08 0 0 0-.04.06l-.03.37Z" fill="#3A365E"/><path d="M11.8 13.32c-.15.08-.32.15-.48.21l-.35.03c-.03 0-.04 0-.04-.04l.03-.18c0-.03.01-.03.03-.02l.17.06h.02v-.04a.79.79 0 0 1-.15-.6l.03-.06c.04-.02.05-.06.06-.12v-.05c.02-.02.03-.01.03 0l.02.05c.03.03.04.02.04-.01l-.03-1.49c.07-.09.15-.14.25-.14.03 0 .05.01.06.05 0 .07.04.1.1.12.03 0 .04.02.04.05 0 .07.02.14.05.2l.04.02h.02c0 .53.01.83.03.9.07.34.08.69.03 1.06Z" fill="#766997"/><path d="m12.65 11.2.03.78c0 .1-.03.2-.08.32l-.12.33a.2.2 0 0 1-.13.07c-.03 0-.04 0-.03-.03.05-.15.12-.29.22-.4a.05.05 0 0 0 0-.06.05.05 0 0 0-.04-.03h-.03c-.01 0-.02 0-.01-.02.02-.05.04-.09.06-.1l.02-.02.1-.84Z" fill="#966371"/><path d="M7.19 12.54a20.15 20.15 0 0 0-.02-.89l-.02-.02c-.02-.02-.04-.01-.05.02-.04.09-.1.23-.2.41a4.37 4.37 0 0 0-.48 1.52 6.7 6.7 0 0 1-.3-.12v-.1c.02.02.05.02.07 0 .02 0 .03-.02.04-.05 0-.05.01-.12.04-.2.03-.1.04-.18.04-.24-.02-.43 0-.87.03-1.31.03.34.09.64.17.88.01.02.03.04.05.04.03 0 .04-.01.04-.04l.04-.96.06.31.02.25c0 .16.04.16.1.02l.26-.6.06-.03h.04c.03 0 .04.02.04.05.04.35.02.7-.03 1.06Z" fill="#373935"/><path d="M10.4 12.15a.11.11 0 0 1 .03-.02c.03 0 .05 0 .05.03.02.04.03.09.03.13l-.23.86-.03.06c-.03.04-.05.07-.05.1-.01.13-.04.27-.08.4l-.03.17-.12.02.15-.79c.03-.19.03-.36.01-.5a4.16 4.16 0 0 1-.03-.87c0-.03.01-.04.04-.04h.04c.04-.01.06 0 .06.04l.05.48c0 .02.02.03.03.04.02 0 .04 0 .05-.02a.2.2 0 0 0 .03-.09Z" fill="#2A2B25"/><path d="M8.3 12.74a.83.83 0 0 0-.06.22l-.02.02h-.03l-.01-.02.01-1.17c0-.1.02-.1.06-.01.14.33.2.64.17.93-.01.14.01.14.07.01l.03-.07c.03-.06.04-.06.04 0l.03 1.2c0 .02-.01.02-.03.02l-.03-.02-.02-.01-.02-.35-.01-.03-.05-.01c-.02-.01-.04 0-.05.03l-.03.28c-.01.05-.04.07-.08.07h-.54c-.04 0-.05-.02-.06-.05 0-.15.02-.3.08-.43.12-.29.18-.54.2-.77a3.42 3.42 0 0 1 .1-.53h.01c.02 0 .03 0 .02.02-.03.32-.04.54-.01.67.05.27.08.55.07.85 0 .02.01.03.03.03h.04a.06.06 0 0 0 .02-.04l.12-.83c0-.09 0-.09-.05 0Z" fill="#766997"/><path d="M12.83 12a.4.4 0 0 1 .15.23.6.6 0 0 1 0 .28c0 .04-.04.07-.1.07-.02 0-.04-.01-.04-.04l-.06-.52c0-.01 0-.02.02-.03h.03Z" fill="#764C5B"/><path d="m9.5 13.51-.05.46-.59.03a6.36 6.36 0 0 1-.07-.7 2.83 2.83 0 0 1-.02-.52c0-.1-.03-.3-.12-.57 0-.01 0-.02.02-.02h.02c.02 0 .04 0 .04.02.04.16.1.31.15.46a18.07 18.07 0 0 0 .2.84c.02.08.04.08.05 0a.53.53 0 0 0-.03-.26 1.27 1.27 0 0 1-.05-.3c-.01-.11-.02-.2-.04-.26l.01-.08c.07-.1.12-.22.14-.35 0-.04.02-.07.04-.1.03-.01.07-.02.13-.01.02 0 .04-.01.05-.03a.12.12 0 0 1 .08-.07c.02 0 .04 0 .06.02l.04.08c.02.03.03.03.05 0a.1.1 0 0 0 0-.05c0-.03.02-.04.05-.02.03 0 .04.02.03.04-.03.33-.1.8-.2 1.4Z" fill="#1D1E19"/><path d="m10.6 13.77-.51.11.03-.18v.06c.01.04.03.05.07.03l.07-.04c.03-.02.04-.04.03-.07 0-.09.02-.21.07-.36l.03-.12.15-.53c.04-.15.07-.14.1.01l-.02.32c0 .03-.02.04-.05.04h-.02l-.03.01-.08.6c0 .03.01.04.04.04.07 0 .11.03.12.08ZM9.72 13.94l-.27.03.04-.46.05.06c.04.01.05 0 .06-.03l.04-.33c0-.03.02-.04.05-.04h.04c.04-.01.05 0 .05.04l-.06.73Z" fill="#3A365E"/><defs><linearGradient id="a" x1="0" y1="9" x2="18.62" y2="9" gradientUnits="userSpaceOnUse"><stop stop-color="#1D1E19"/><stop offset="1" stop-color="#3D403B"/></linearGradient></defs></svg>