<!-- by TradingView --><svg width="18" height="18" viewBox="0 0 18 18" xmlns="http://www.w3.org/2000/svg"><path fill="#F0F3FA" d="M0 0h18v18H0z"/><path d="M13.5 6.82a5 5 0 0 0-9.45 2.92c.55-.01 1.09 0 1.63.02a3.43 3.43 0 0 1 2.94-4.15c.8-.09 1.61.12 2.29.57.1.08.23.12.36.14.75.12 1.5.28 2.22.5Z" fill="url(#a)"/><path d="M13.93 8.2c-.55-.06-1.1-.1-1.65-.1a3.42 3.42 0 0 1-3.08 4.3 3.39 3.39 0 0 1-2.1-.57.88.88 0 0 0-.37-.14c-.75-.11-1.5-.28-2.23-.5a5 5 0 0 0 9.43-2.99Z" fill="url(#b)"/><path d="M13.93 8.2c-.55-.06-1.1-.1-1.65-.1a3.42 3.42 0 0 1-3.08 4.3 3.39 3.39 0 0 1-2.1-.57.88.88 0 0 0-.37-.14c-.75-.11-1.5-.28-2.23-.5a5 5 0 0 0 9.43-2.99Z" fill="url(#c)"/><path d="M13.84 7.75a.53.53 0 0 0-.36-.37c-1.04-.33-2.63-.7-4.48-.7-2.02 0-2.63 1.03-2.82 2.15A6.62 6.62 0 0 1 9 8.26c2.5 0 4.54.8 5 1V9c0-.43-.06-.85-.16-1.25Z" fill="url(#d)"/><path d="M4.16 10.26c.05.18.18.32.35.37 1.05.33 2.64.71 4.49.71 2.01 0 2.63-1.04 2.82-2.15-.38.23-1.56.56-2.82.56-2.51 0-4.54-.8-5-1v.26c0 .43.06.85.16 1.25Z" fill="url(#e)"/><defs><linearGradient id="a" x1="4.96" y1="8.56" x2="10.6" y2="5.41" gradientUnits="userSpaceOnUse"><stop stop-color="#FFAF5B"/><stop offset=".49" stop-color="#F6642D"/><stop offset="1" stop-color="#D42E58"/></linearGradient><linearGradient id="b" x1="8.19" y1="11.05" x2="-.05" y2="16.91" gradientUnits="userSpaceOnUse"><stop stop-color="#5A2FBA"/><stop offset="1" stop-color="#2F0C6A"/></linearGradient><linearGradient id="c" x1="12.56" y1="11.95" x2="13.54" y2="7.88" gradientUnits="userSpaceOnUse"><stop stop-color="#210151" stop-opacity="0"/><stop offset="1" stop-color="#210151"/></linearGradient><linearGradient id="d" x1="6.28" y1="7.24" x2="35.79" y2="14.23" gradientUnits="userSpaceOnUse"><stop stop-color="#5A2FBA"/><stop offset=".67" stop-color="#2F0C6A"/></linearGradient><linearGradient id="e" x1="11.79" y1="10.05" x2="4.9" y2="10.05" gradientUnits="userSpaceOnUse"><stop stop-color="#F6642D"/><stop offset="1" stop-color="#D42E58"/></linearGradient></defs></svg>