<!-- by TradingView --><svg width="18" height="18" viewBox="0 0 18 18" xmlns="http://www.w3.org/2000/svg"><path fill="#8AF48F" d="M0 0h18v18H0z"/><path d="M6.37 9.58v3.9h-1.7v-3.9h-.45l1.36-2.12L6.8 9.58h-.43Z" fill="url(#avvuw4plp)"/><path d="M5.59 7.24 7 9.76h-.5v3.87H4.56V9.76H4l1.59-2.52ZM4.44 9.46h.4v3.92h1.38V9.46h.37L5.58 7.68 4.44 9.46Z" fill="url(#bvvuw4plp)"/><path d="m12.65 6.29 1.04 2.8h-.9v.85h-.8v-.85h-.55l1.21-2.8Zm-.77 2.55h.34v.85h.34v-.85h.72l-.64-2.1-.76 2.1Z" fill="#438907"/><path d="m9.03 3 1.03 3.1h-.9v.95h-.79v-.94h-.56L9.03 3Zm-.78 2.83h.35v.94h.33v-.94h.72L9 3.73l-.74 2.1Z" fill="url(#cvvuw4plp)"/><path d="M13.06 6.3v6.22h-1.7V6.3h-.46l1.37-2.11 1.21 2.11h-.42Z" fill="url(#dvvuw4plp)"/><path d="m12.27 3.96 1.42 2.47h-.52v6.22h-1.93V6.43h-.56l1.6-2.47Zm-1.15 2.17h.35v6.27h1.42V6.13h.39L12.26 4.4l-1.14 1.73Z" fill="url(#evvuw4plp)"/><path d="M7.81 12.81v.98h-1.7v-.98h-.45l1.36-2.11 1.22 2.11H7.8Z" fill="url(#fvvuw4plp)"/><path d="m7.03 10.47 1.41 2.47h-.52v.9H5.94v-.9h-.5l1.59-2.47ZM5.88 12.7h.34v.9H7.7v-.9h.33l-1.01-1.77-1.14 1.77Z" fill="url(#gvvuw4plp)"/><path d="M13.91 12.68v1.16h-1.7v-.51h-.45l1.36-2.12.79 1.47Z" fill="url(#hvvuw4plp)"/><path d="m13.13 10.99.87 1.5V14h-1.9v-.55h-.56L13.13 11Zm-1.15 2.21h.34v.43h1.48v-1.04l-.68-1.16-1.14 1.77Z" fill="url(#ivvuw4plp)"/><path d="M12.5 12.25c.2-.01 1.29.04 1.5.06V14H4v-.66l1.77-.07.2-.15.25-.17c.04-.03.38-.14.4-.17l.1-.13.08-.04.14-.27.08-.15.15-.32c.03-.06.04-.13.06-.26.03-.11.01-.26 0-.32l.09-.23-.03-.2-.12-.56c-.02-.1-.07-.34-.14-.45l-.24-.4-.27-.3-.19-.37-.13-.28-.11-.2-.1-.2-.15-.75a3.05 3.05 0 0 1 0-.86v-.42l.07-.33.04-.35.03-.18.14-.32.11-.26c.01-.02.26-.18.39-.25.04-.03.14-.08.15-.1l.26-.24.4-.3.28-.08.6-.16.92-.05c.26 0 .57.12.69.18l1.04.6c.1.06.3.23.43.4.13.18.24.52.28.66l.08.3.19.2.13.26.04.24.13.16-.03.42.03.29.05.1c.02 0 .2.28.27.4.05.1.07.41.07.55l-.03.19c-.02.03-.07.34-.09.38l-.02.24-.17.41-.09.3.05.44-.25.45a14.6 14.6 0 0 0-.15.34l-.12.08c-.02 0-.11.1-.13.1-.01 0-.2.17-.28.26l-.08.02-.08-.02v.08l-.04.2.03.3.12.23c.02.01.06.04.09.04l.34.03.24-.03h.52Z" fill="#028A08"/><path d="M8.45 3.52a33.98 33.98 0 0 0-1.06.29l-.12.1a10.98 10.98 0 0 0-.33.29l-.04.03a9.34 9.34 0 0 1-.08.07v.01l-.12.05a4.15 4.15 0 0 1-.46.37.4.4 0 0 0-.05.06.13.13 0 0 0-.01.04 1.83 1.83 0 0 1-.1.32l-.1.21v.34l-.01.02-.06.13a.58.58 0 0 0-.03.17v.39c0 .1 0 .17-.02.23v.04l-.02.12a16.76 16.76 0 0 0 .07.62l.01.1c.02.15.1.52.15.7a4.6 4.6 0 0 0 .2.34l.02.08c.04.06.12.2.16.33l.04.08a1.3 1.3 0 0 0 .22.24l.07.06a1.92 1.92 0 0 1 .34.59 13.25 13.25 0 0 1 .24 1.17l-.1.25a.5.5 0 0 0 0 .09V11.56a.9.9 0 0 1-.04.25c-.03.1-.1.26-.14.34a.53.53 0 0 1-.02.12l-.02.05-.01.01-.02.03a2.61 2.61 0 0 0-.15.28l-.03.02a.99.99 0 0 0-.08.02h-.01l-.03.05-.01.02.18-.03c.02 0 .04.02.05.04 0 .03-.02.05-.04.05a10.1 10.1 0 0 0-.43.1l-.1.04a4.53 4.53 0 0 0-.35.17l-.07.07a1.5 1.5 0 0 1-.03.03.43.43 0 0 1-.13.1 126.42 126.42 0 0 1-1.72.08c-.02 0-.04-.03-.04-.05 0-.03.02-.05.04-.05a131.58 131.58 0 0 0 1.69-.07.34.34 0 0 0 .1-.08l.03-.03a.77.77 0 0 1 .08-.07c.03-.03.1-.06.17-.1a4.75 4.75 0 0 1 .46-.18 2.63 2.63 0 0 1 .12-.18l.05-.01h.04a7.83 7.83 0 0 1 .18-.33v-.01l.01-.03.01-.07v-.02c.04-.07.11-.24.14-.34a.82.82 0 0 0 .03-.26v-.08l.02-.1.09-.26a13.23 13.23 0 0 0-.23-1.12 9.4 9.4 0 0 0-.15-.3 2.97 2.97 0 0 0-.23-.3 1.39 1.39 0 0 1-.24-.25.41.41 0 0 1-.06-.11c-.03-.11-.1-.25-.14-.3-.02-.03-.04-.07-.04-.1v-.01a.21.21 0 0 0-.04-.08 4.66 4.66 0 0 1-.16-.26 12.6 12.6 0 0 1-.16-.81l-.04-.29a2.29 2.29 0 0 1-.03-.36l.02-.14v-.03c.01-.05.02-.1.02-.21v-.39a1.14 1.14 0 0 1 .1-.34V5.33a11.9 11.9 0 0 1 .16-.38l.04-.13.02-.08a.5.5 0 0 1 .06-.08c.04-.04.1-.1.15-.12l.16-.11a4.07 4.07 0 0 0 .18-.15 4.09 4.09 0 0 0 .12-.07l.06-.05.04-.03.14-.13a11.1 11.1 0 0 1 .32-.27l.06-.03.1-.03a10.87 10.87 0 0 1 .93-.24l.72-.03c.15 0 .26.02.36.05l.27.1.07.03a4.9 4.9 0 0 1 .75.39l.26.15.3.21.14.15a2.77 2.77 0 0 1 .4.76l.07.32a1.53 1.53 0 0 1 .19.16.3.3 0 0 1 .04.07l.04.09.02.06.08.14v.23l.11.12.02.03v.31a.6.6 0 0 1-.02.12v.1c.03.03.03.06.03.08a.32.32 0 0 1 0 .04l-.01.02v.05l.04.04a.6.6 0 0 1 .15.2l.07.15.04.07.04.17a2.32 2.32 0 0 1 .04.35v.07h.01v.01l.01.04-.01.1-.02.05-.01.01v.02l-.01.07c0 .06-.02.11-.03.15l-.01.04a.47.47 0 0 0 0 .03l-.01.01v.01l-.01.03v.02a2.99 2.99 0 0 0-.06.18.1.1 0 0 1 0 .03v.04l-.02.09-.07.16-.08.17a.66.66 0 0 0-.05.2 4.89 4.89 0 0 0 .03.56c-.03.04-.1.14-.12.2a.32.32 0 0 1-.05.07l-.03.04-.02.03a.28.28 0 0 0-.07.14l-.04.18c0 .03-.02.05-.03.07a.11.11 0 0 1-.05.04.79.79 0 0 0-.1.05.25.25 0 0 0-.09.07 1.61 1.61 0 0 1-.13.13h-.01a.96.96 0 0 0-.12.1.48.48 0 0 1-.15.12c-.03 0-.05-.01-.06-.04h-.02a.6.6 0 0 1 .01.09v.05c-.03.04-.05.09-.04.14a1.58 1.58 0 0 1 .04.3l.01.02a1.42 1.42 0 0 0 .07.13l.02.02a.38.38 0 0 0 .05 0h.13c.03 0 .08 0 .12.02l.1.03.28-.06h.01l1.6.07h.32c.02 0 .04.02.04.04 0 .03-.02.05-.04.05h-.31l-1.6-.07-.3.06h-.03a1.26 1.26 0 0 0-.19-.06h-.07a3.7 3.7 0 0 1-.15 0h-.02v-.03a.87.87 0 0 1-.06-.08 1.5 1.5 0 0 1-.06-.11v-.04a1.35 1.35 0 0 0-.01-.1l-.03-.17c-.02-.08.02-.16.04-.2v-.08l-.56.1c-.1 0-.18-.02-.26-.04h-.03c-.06-.02-.11-.04-.17-.04a.41.41 0 0 1-.2-.05l-.07-.04a12.67 12.67 0 0 1-.24-.17c-.03-.04-.08-.07-.12-.1l-.19-.15a.6.6 0 0 0-.17-.08 3.94 3.94 0 0 1-.44-.23 2.66 2.66 0 0 1-.73-.6.45.45 0 0 1-.06-.1l-.08-.23a23.13 23.13 0 0 0-.14-.43 12.76 12.76 0 0 1-.07-.33v-.22c0-.03.02-.05.04-.05s.04.02.04.05v.22a12.66 12.66 0 0 0 .15.56 4 4 0 0 1 .04.12l.02.05a4.2 4.2 0 0 0 .12.3l.09.09a2.58 2.58 0 0 0 .63.49 3.85 3.85 0 0 0 .4.22c.07.01.14.05.2.1a2.33 2.33 0 0 1 .37.28.77.77 0 0 0 .18.12l.07.05c.05.02.1.04.16.04.07 0 .13.02.2.03l.02.01a.6.6 0 0 0 .24.03c.18-.02.47-.07.57-.1.05-.02.08-.02.11 0 .01 0 .02 0 .03.02a.38.38 0 0 0 .1-.08 10.31 10.31 0 0 1 .5-.43c.02-.04.03-.1.04-.17a.37.37 0 0 1 .09-.18l.02-.04a1.24 1.24 0 0 0 .06-.08c.03-.07.1-.16.13-.2a4.84 4.84 0 0 1-.04-.52c0-.07.03-.16.05-.23l.09-.18a2.08 2.08 0 0 0 .09-.25v-.05a.92.92 0 0 1 .05-.2v-.04l.01-.02V8.7h.01l.01-.05a.46.46 0 0 0 .02-.12c0-.05 0-.08.02-.1V8.4l.01-.01a.37.37 0 0 0 .03-.1l-.01-.03v-.04l-.01-.05-.01-.16a2.28 2.28 0 0 0-.07-.32 3.85 3.85 0 0 1-.03-.08l-.07-.14a.51.51 0 0 0-.13-.17.2.2 0 0 1-.07-.1.18.18 0 0 1 0-.08v-.08a.19.19 0 0 1-.02-.14v-.04l.01-.09v-.29l-.1-.12-.02-.03v-.2a.82.82 0 0 1-.07-.16l-.03-.06a1.4 1.4 0 0 0-.03-.08.22.22 0 0 0-.03-.05 1.44 1.44 0 0 0-.18-.16l-.02-.02-.08-.32a33.95 33.95 0 0 0-.15-.38 4.04 4.04 0 0 0-.35-.5 4.2 4.2 0 0 0-.67-.4l-.09-.06-.1-.05c-.13-.08-.3-.16-.44-.22l-.07-.03c-.1-.05-.18-.08-.26-.1-.1-.03-.2-.04-.34-.04l-.71.02Zm-.69 6Zm3.48 2.5Z" fill="#070006"/><path d="M8.45 11.95c0 .02 0 .05-.03.05l-.26.1a6.47 6.47 0 0 0-.14.21l-.01.03a.68.68 0 0 1-.05.13 1.53 1.53 0 0 0-.07.15.82.82 0 0 1-.05.1l-.03.02h-.07l-.08.02c-.02 0-.04-.02-.04-.04 0-.03.01-.05.03-.05a2.58 2.58 0 0 0 .14-.03l.03-.06.02-.04.05-.12a.6.6 0 0 0 .04-.1v-.03a2.71 2.71 0 0 1 .03-.07l.02-.04a2.52 2.52 0 0 1 .14-.16l.28-.1c.02-.01.04 0 .05.03Zm-.67.7ZM11.49 10.08a1.92 1.92 0 0 1-.18.05.99.99 0 0 0-.18.07l-.03.02a2 2 0 0 1-.08.03l-.04-.01a.16.16 0 0 1-.03-.02v-.01a.54.54 0 0 0-.08 0 3.1 3.1 0 0 1-.32.1h-.01l-.05-.01a.6.6 0 0 1-.09-.04.25.25 0 0 0-.07-.01 1.13 1.13 0 0 0-.22 0h-.04v.03l-.03.03-.02.01a.37.37 0 0 1-.04.02c-.02 0-.05 0-.05-.03-.01-.02 0-.05.02-.06l.03-.01v-.01c0-.01 0-.03.02-.05a.06.06 0 0 1 .05-.03h.05a3.31 3.31 0 0 1 .23 0c.04 0 .08.01.1.03l.08.03h.03a1.86 1.86 0 0 0 .14-.04 3.62 3.62 0 0 0 .2-.06.35.35 0 0 1 .07 0h.01a.04.04 0 0 1 .02.01v.01H11l.01.02h.04l.03-.02.03-.01c.05-.03.12-.06.2-.07a1.88 1.88 0 0 0 .15-.05l.03-.02h.02l.02.02.04.03.1.08c.01.02.02.05 0 .07a.04.04 0 0 1-.06 0 2.38 2.38 0 0 0-.11-.1Zm-.04-.08Zm-.49.12Zm-.43.1Zm-.46 0Zm-.03.03ZM10.24 8.93c.02.02.01.05 0 .06l-.16.11a.23.23 0 0 1-.08.03h-.02v.03a.4.4 0 0 0 0 .06l.01.04.05.08.08.05a.6.6 0 0 0 .1.04c.02 0 .03.03.03.05 0 .03-.03.04-.05.04a.69.69 0 0 1-.11-.04.29.29 0 0 1-.11-.09 1.14 1.14 0 0 1-.06-.08.2.2 0 0 1-.02-.07.5.5 0 0 1 0-.13c0-.02 0-.04.03-.05a.1.1 0 0 1 .03-.02h.02l.06-.02.14-.1c.02-.02.05-.01.06 0Zm-.26.2ZM10.83 7.82c.02 0 .04.02.04.05l.01.04.05.11c.03.1.07.16.1.2l.02.03.02.02.05.04.14.12c.05.06.15.12.2.15l.02.03v.17c-.01.07-.05.19-.07.23 0 .03-.03.04-.05.03-.03-.01-.04-.04-.03-.06l.07-.22v-.11a.98.98 0 0 1-.2-.15 1.35 1.35 0 0 0-.12-.11h-.01a2.39 2.39 0 0 1-.1-.1.99.99 0 0 1-.16-.36.33.33 0 0 1-.02-.06c0-.02.02-.04.04-.05Z" fill="#070006"/><path d="M10.3 9.41c.02.05.16.05.17.05l.12-.04c.05 0 .04-.1.05-.14.01-.04-.04-.1-.08-.12-.04-.02-.13 0-.18.03a.27.27 0 0 0-.12.1c-.02.04 0 .08.03.12ZM11.01 9.21c0 .05.1.1.1.1l.1.02c.03 0 .06-.1.08-.12.03-.03.01-.1 0-.13-.02-.04-.1-.04-.14-.04-.03 0-.1.03-.12.06-.02.03-.02.06-.02.11ZM9.69 7.42c.02 0 .04.03.04.05a3.25 3.25 0 0 1-.03.2.15.15 0 0 1-.07.08l-.05.04h-.02a.22.22 0 0 1-.07.03.95.95 0 0 1-.2 0 .53.53 0 0 0-.06.02l-.02.01a2.01 2.01 0 0 1-.18.05L9 7.92a.27.27 0 0 1-.15.02.54.54 0 0 1-.15-.08l-.13-.1a.05.05 0 0 1-.01-.06.04.04 0 0 1 .06 0 1.8 1.8 0 0 0 .24.15c.03 0 .07 0 .11-.02L9 7.8h.02a.2.2 0 0 1 .06-.02l.04-.01.07-.02h.02a3.46 3.46 0 0 1 .08-.03h.11a.88.88 0 0 0 .12-.02h.02l.05-.04.03-.02.01-.08.01-.1c0-.03.02-.05.05-.05ZM11.77 7.11c.02 0 .04.02.04.05a2.24 2.24 0 0 1-.02.27.07.07 0 0 1-.04.04h-.04a.7.7 0 0 1-.1 0l-.15-.03h-.12l-.1.02-.05.01a1.53 1.53 0 0 1-.18.02s-.04 0-.04-.04v-.03L11 7.4v-.02a.14.14 0 0 0 0-.03v-.01l-.01-.01V7.3c0-.03.02-.04.04-.04s.04.02.04.04l.02.04v.05l.1-.02h.05l.1-.03a1.16 1.16 0 0 1 .1-.01h.05a2.5 2.5 0 0 0 .24.04V7.3c.01-.05.01-.1 0-.14 0-.02.03-.04.05-.05Zm-.04.27Zm-.67-.08ZM10.64 5.23a2.95 2.95 0 0 0-.41.12h-.01l-.38.08c-.1.02-.25 0-.28 0a.2.2 0 0 1-.04 0l-.03-.02a2.75 2.75 0 0 0-.12-.03h-.05a1.3 1.3 0 0 0-.22.07c-.05.02-.19.07-.29.08l-.27.08-.02.01a12.8 12.8 0 0 0-.46.18c-.01 0-.02 0-.03-.02 0-.02 0-.03.02-.04l.14-.04.31-.13h.02l.29-.1c.09 0 .22-.05.28-.08a3.04 3.04 0 0 1 .28-.07l.11.03h.03l.03.02h.03c.03.01.17.02.26 0a10 10 0 0 0 .7-.16c.04 0 .06-.02.08-.03l.03-.01a.15.15 0 0 1 .13 0 9.76 9.76 0 0 1 .32.15h.01v.03-.03c.02 0 .02.02.02.04 0 .01-.02.02-.04.01l.01-.02v.02h-.02l-.03-.01a35.45 35.45 0 0 0-.29-.14.1.1 0 0 0-.09 0l-.02.01ZM10.86 5.62l.12.07c.01 0 .02.02.01.03 0 .02-.02.02-.03.02l-.1-.06a13.47 13.47 0 0 1-.54.1l-.19.01-.1.05a.5.5 0 0 1-.15.03 1.53 1.53 0 0 1-.34-.08H9.33a2.16 2.16 0 0 0-.3.11 7.68 7.68 0 0 1-.85.47h-.02a131.02 131.02 0 0 1-.46.1c0-.02 0-.03.02-.04a7.68 7.68 0 0 0 .88-.35c.07-.05.3-.17.4-.22a2.2 2.2 0 0 1 .32-.12h.15a.62.62 0 0 1 .08 0h.03l.03.02a1.49 1.49 0 0 0 .27.05c.04 0 .08 0 .13-.02a1 1 0 0 0 .1-.05h.01a15.31 15.31 0 0 1 .5-.07l.23-.05h.01ZM9.24 6.45a66.56 66.56 0 0 1-.42.1c0 .02-.02.02-.03.03l-.03.02a2.52 2.52 0 0 1-.13.07 2.9 2.9 0 0 0-.14.06l-.06.02-.03.02a3.4 3.4 0 0 0-.18.15h-.04v-.04a12.19 12.19 0 0 1 .22-.17h.01V6.7a.62.62 0 0 0 .07-.03h.02a2.9 2.9 0 0 1 .16-.08l.07-.04.03-.02a6.2 6.2 0 0 1 .07-.04 64.42 64.42 0 0 0 .4-.1l.09-.02.09-.02.04.02.02.05c0 .01-.01.03-.03.03-.01 0-.02-.01-.02-.03L9.4 6.4h-.07l-.08.04Zm-.81.3Zm.42-.2ZM11.14 5.98l.47.22c.01 0 .02.02.01.04 0 .01-.02.02-.03.01l-.44-.2h-.01l-.04.01-.09.03-.18.04a.22.22 0 0 0-.04.05l-.02.03-.03.01a.27.27 0 0 1-.05.01l-.06.06a.02.02 0 0 1-.03 0v-.04l.07-.07.05-.01h.02v-.01a.27.27 0 0 1 .07-.08 3.09 3.09 0 0 0 .32-.09l.01-.01ZM9.52 6.72c0-.02.02-.03.03-.02l.07.03a.3.3 0 0 1 .08.05l.06.08.03.09-.01.03-.04-.01a.63.63 0 0 0-.03-.08.3.3 0 0 0-.05-.07.25.25 0 0 0-.06-.04.38.38 0 0 0-.06-.03l-.02-.03ZM10.76 6.5a24.42 24.42 0 0 0 .06.42l-.04-.01v-.03a1 1 0 0 1-.02-.13 25.22 25.22 0 0 1 0-.26ZM8.06 10.32l.03.01c.04.07.12.23.14.32l.04.21a.7.7 0 0 1-.01.23l-.06.2c0 .01-.02.02-.03.01-.01 0-.02-.02-.01-.03l.05-.2a.64.64 0 0 0 0-.2c0-.08-.02-.15-.03-.2a1.9 1.9 0 0 0-.13-.3l.01-.05ZM10.52 12.93c0 .01 0 .03-.02.03a1.25 1.25 0 0 0-.35.13l-.03.06-.01.08v.02h-.02a2.44 2.44 0 0 1-.35.07c-.01 0-.03 0-.04-.02a.54.54 0 0 1-.05-.13v-.02h-.03l-.02-.01h-.05a1.74 1.74 0 0 1-.08-.07 2.04 2.04 0 0 0-.1-.06h-.03a1.4 1.4 0 0 0-.16.07c-.01 0-.03 0-.03-.02l.01-.03.02-.01.09-.04.06-.02h.06l.1.07.02.01.07.04h.01a.53.53 0 0 0 .03 0l.04.02c.01 0 .03.01.03.03l.01.03.04.1h.13l.2-.05v-.07c.01-.03.03-.07.06-.1l.16-.07c.06-.03.14-.05.2-.06.01 0 .03 0 .03.02Zm-.78.33ZM10.31 12c.02 0 .03 0 .04.02l.08.14v.02l.02.02c0 .02.01.03.03.05.02.03.08.07.18.1.01 0 .02 0 .02.02s-.02.03-.03.03a.38.38 0 0 1-.2-.11.26.26 0 0 1-.06-.08v-.02a3.97 3.97 0 0 1-.08-.15v-.03Z" fill="#070006"/><defs><linearGradient id="avvuw4plp" x1="5.51" y1="7.46" x2="5.51" y2="15.8" gradientUnits="userSpaceOnUse"><stop stop-color="#AFCA9A"/><stop offset="1" stop-color="#60C90A"/></linearGradient><linearGradient id="bvvuw4plp" x1="5.51" y1="7.46" x2="5.51" y2="15.8" gradientUnits="userSpaceOnUse"><stop stop-color="#6ABD3A"/><stop offset="1" stop-color="#438907"/></linearGradient><linearGradient id="cvvuw4plp" x1="8.57" y1="3.62" x2="8.57" y2="12.88"><stop stop-color="#6ABD3A"/></linearGradient><linearGradient id="dvvuw4plp" x1="12.19" y1="4.18" x2="12.19" y2="12.52" gradientUnits="userSpaceOnUse"><stop stop-color="#AFCA9A"/><stop offset="1" stop-color="#60C90A"/></linearGradient><linearGradient id="evvuw4plp" x1="12.19" y1="4.18" x2="12.19" y2="12.52" gradientUnits="userSpaceOnUse"><stop stop-color="#6ABD3A"/><stop offset="1" stop-color="#438907"/></linearGradient><linearGradient id="fvvuw4plp" x1="6.95" y1="10.7" x2="6.95" y2="19.04" gradientUnits="userSpaceOnUse"><stop stop-color="#AFCA9A"/><stop offset="1" stop-color="#60C90A"/></linearGradient><linearGradient id="gvvuw4plp" x1="6.95" y1="10.7" x2="6.95" y2="19.04" gradientUnits="userSpaceOnUse"><stop stop-color="#6ABD3A"/><stop offset="1" stop-color="#438907"/></linearGradient><linearGradient id="hvvuw4plp" x1="13.05" y1="11.21" x2="13.05" y2="19.55" gradientUnits="userSpaceOnUse"><stop stop-color="#AFCA9A"/><stop offset="1" stop-color="#60C90A"/></linearGradient><linearGradient id="ivvuw4plp" x1="13.05" y1="11.21" x2="13.05" y2="19.55" gradientUnits="userSpaceOnUse"><stop stop-color="#6ABD3A"/><stop offset="1" stop-color="#438907"/></linearGradient></defs></svg>