<!-- by TradingView --><svg width="18" height="18" viewBox="0 0 18 18" xmlns="http://www.w3.org/2000/svg"><path fill="#F0F3FA" d="M0 0h18v18H0z"/><path fill-rule="evenodd" d="M12.32 10.39c.33-.04.54-.07.66-.26a.46.46 0 0 0 .02-.4 5.5 5.5 0 0 0-.41-.84c-.1-.16-.19-.33-.25-.5-.03-.47-1.24-1.97-2.01-2.63a2.8 2.8 0 0 0-.32-.8.77.77 0 0 0-.65-.43.64.64 0 0 0-.34.1c-.17.1-.33.23-.46.38a6.3 6.3 0 0 0-1.31-.06 1.92 1.92 0 0 0-.31-.4.79.79 0 0 0-1.07-.02c-.19.16-.34.35-.46.56h-.05a.22.22 0 0 1-.19-.15.22.22 0 0 1 .07-.23s-.12-.23-.17-.18l-.02-.01h-.02l-.02.01a5.99 5.99 0 0 0 3.04 10.4l.08.02c.07 0 .04-.28.04-.28a1.19 1.19 0 0 1-1.04-1.17 1.15 1.15 0 0 1 .92-1.2c.23-.06.45-.08.68-.08.4.01.8.05 1.2.12l.32.05h.02l.5.05.22.01c.8 0 1.24-.32 1.48-.59a.53.53 0 0 0-.03-.71.54.54 0 0 0-.21-.14.45.45 0 0 1-.38-.46l.02-.05a.15.15 0 0 1 .1-.07c.09 0 .17-.02.24-.03l.11-.01ZM8.78 8.47c.35.7.71.62 1.13.46 0 0-.25-1.2-1.13-.46Z" fill="#FF4F24"/><path d="M12.59 11.56c0 .81-.98 1.28-2.4 1.13-.96-.1-2.27-.04-2.52.45-.42.83.67 1.78.62 1.78-.09-.01-.08.04-.16.02h-.08a5.94 5.94 0 0 1-2.57-1.07A4.63 4.63 0 0 1 4 12.08c-1-2.2.45-3.7 1.43-4.04a2.16 2.16 0 0 0 .72 3.77c.46.12.95.11 1.4-.03.3-.08.59-.21.84-.4 0 0 2.31.7 3.12.55l.14-.04c.48-.16.7-.46.35-.66l.02-.03c.13-.08.58-.34.58.36ZM6.78 5.51c-.3.05-.62.1-.88.17.06-.22.18-.42.35-.58a.2.2 0 0 1 .21 0c.14.11.25.25.32.41Z" fill="#A53A2F"/><path fill-rule="evenodd" d="M9 14.65a5.65 5.65 0 1 0 0-11.3 5.65 5.65 0 0 0 0 11.3ZM9 15A6 6 0 1 0 9 3a6 6 0 0 0 0 12Z" fill="#FF4F24"/><path d="M11.82 10.41c-.28.14.12.77.36 1.06l.35.35c.42-.84.53-1.64.53-1.94-.35.53-.88.36-1.24.53Z" fill="#A53A2F"/></svg>