<!-- by TradingView --><svg width="18" height="18" viewBox="0 0 18 18" xmlns="http://www.w3.org/2000/svg"><path fill="#218CFF" d="M0 0h18v18H0z"/><path d="M4.1 10.52a2.12 2.12 0 0 1 1.43-2.68c.4-.12.99-.1 1.62.02.47.1 1 .27 1.55.52.32-.58.71-1.05 1.1-1.42a3.8 3.8 0 0 1 1.32-.86c1.16-.36 2.4.26 2.77 1.38a2.12 2.12 0 0 1-1.42 2.68c-.59.18-1.92.31-3.29-.32a4.65 4.65 0 0 1-2.3 2.06 2.22 2.22 0 0 1-2.77-1.38Zm4.11-1.19a6 6 0 0 0-1.29-.42 2.56 2.56 0 0 0-1.05-.05c-.58.18-.9.78-.71 1.34.18.56.8.86 1.38.68.3-.1 1.07-.56 1.67-1.55Zm1.46-.45a3.8 3.8 0 0 0 2.46.26c.58-.18.9-.78.71-1.34-.18-.56-.8-.86-1.38-.68-.15.04-.5.23-.9.6-.31.3-.63.7-.9 1.16Z" fill="#fff"/></svg>