<!-- by TradingView --><svg width="18" height="18" viewBox="0 0 18 18" xmlns="http://www.w3.org/2000/svg"><path fill="url(#ajiwivxui)" d="M0 0h18v18H0z"/><path d="M5.99 5.86a3.41 3.41 0 0 0-1.15 2.3c0 .72.32 1.2.8 1.52.5.33 1.19.49 1.9.49 1.13 0 2.15-.52 2.5-.77l.54.43a6 6 0 0 1-3.04 1c-.8 0-1.63-.17-2.27-.6a2.37 2.37 0 0 1-1.1-2.06c0-.95.52-1.99 1.35-2.78A4.88 4.88 0 0 1 8.9 4c1.36 0 2.57.58 3.46 1.38a4.63 4.63 0 0 1 1.6 2.75c.08.78.09 1.98-.48 3.12A5.63 5.63 0 0 1 9.23 14v-.67c2.03-.5 3.17-1.4 3.64-2.37a5 5 0 0 0 .42-2.76 3.98 3.98 0 0 0-1.38-2.33c-.8-.7-1.85-1.2-3.01-1.2a4.2 4.2 0 0 0-2.91 1.2Z" fill="#F0F3FA"/><circle cx="11.83" cy="8.17" r=".5" fill="#F0F3FA"/><path d="M11.6 10.5c-3.23 2.36-6.48 1.57-7.6.83l.34-.5c.9.6 3.73 1.41 6.72-.76l.54.43Zm.9.57a7.49 7.49 0 0 1-6.3 2.1v-.67c.98.2 3.77.13 5.83-1.9l.48.47Z" fill="#F0F3FA"/><defs><linearGradient id="ajiwivxui" x1="14.5" y1="2" x2="4" y2="15.5" gradientUnits="userSpaceOnUse"><stop stop-color="#4375F2"/><stop offset="1" stop-color="#2141E1"/></linearGradient></defs></svg>