<!-- by TradingView --><svg width="18" height="18" viewBox="0 0 18 18" xmlns="http://www.w3.org/2000/svg"><path fill="#041A4C" d="M0 0h18v18H0z"/><circle cx="5" cy="5" r="1" fill="#FF31FF"/><circle cx="13" cy="5" r="1" fill="#FF31FF"/><circle cx="13" cy="13" r="1" fill="#FF31FF"/><circle cx="5" cy="13" r="1" fill="#FF31FF"/><path d="M11.36 12a.64.64 0 0 1-.54-.29.66.66 0 0 1-.08-.19 1.8 1.8 0 0 0-3.48 0 .66.66 0 0 1-.23.35.64.64 0 0 1-1.03-.5v-.01a.64.64 0 0 1 .29-.54.66.66 0 0 1 .19-.08 1.8 1.8 0 0 0 0-3.48.66.66 0 0 1-.35-.23.64.64 0 0 1 .5-1.03h.01a.64.64 0 0 1 .54.29c.04.05.07.12.08.19a1.8 1.8 0 0 0 3.48 0 .66.66 0 0 1 .23-.35.64.64 0 0 1 1.03.5v.01a.64.64 0 0 1-.29.54.66.66 0 0 1-.19.08 1.8 1.8 0 0 0 0 3.48.66.66 0 0 1 .35.23.64.64 0 0 1-.5 1.03ZM9 9.75a.75.75 0 1 0 0-1.5.75.75 0 0 0 0 1.5Z" fill="#FF31FF"/></svg>