<!-- by TradingView --><svg width="18" height="18" viewBox="0 0 18 18" xmlns="http://www.w3.org/2000/svg"><path fill="#F0F3FA" d="M0 0h18v18H0z"/><path d="M9.18 3c-.02.4-.3.54-.83.44a.03.03 0 0 1-.02-.04v-.02c.09-.07.11-.15.08-.24a.07.07 0 0 0-.05-.05.31.31 0 0 0-.15 0c.3-.07.61-.1.97-.09Z" fill="#C53792"/><path d="m12.72 11.43.15-.3a.06.06 0 0 0-.04-.07 1.96 1.96 0 0 0-.74.03c-.16.04-.16.1 0 .15l.21.08a.82.82 0 0 1-.5-.2.94.94 0 0 1-.2-.63l-.02-.23c.01-.42.19-.76.53-1a.12.12 0 0 0 .04-.08c.07-.27.18-.43.31-.5a1.68 1.68 0 0 1 .16.73.07.07 0 0 0 .05.04h.03l.91-.29c.03 0 .05-.02.05-.05l.03-.4.01-.59a.08.08 0 0 1 .08-.08 2 2 0 0 0 .71-.15c.05-.02.05-.02 0-.02a.21.21 0 0 0-.08.03c-.03.02-.05.01-.06-.02-.07-.42-.3-.35-.62-.3a3.2 3.2 0 0 1-1.06-.14l.27-.16c.05-.03.1-.06.13-.1l.02-.04c0-.01 0-.02-.02-.03a14.65 14.65 0 0 0-.93-1.01.1.1 0 0 0-.1.03l-.15.17c-.1.21-.19.43-.23.66-.04.15.01.3 0 .44-.03.16-.1.18-.2.05a.63.63 0 0 1-.09-.15.08.08 0 0 0-.07-.05c-.05 0-.09.03-.11.09a.42.42 0 0 1-.3-.22c.03 0 .06 0 .09-.02a.12.12 0 0 0 .06-.05c.03-.06.08-.1.13-.14a.08.08 0 0 0 .04-.06.26.26 0 0 0-.06-.2.07.07 0 0 0-.06-.03c-.17.02-.27-.08-.43-.09-.12 0-.19.05-.18.13-.1 0-.14-.04-.18-.11-.07-.11-.2-.25-.34-.18-.21-.52-.6-.75-1.14-.7-.02 0-.04.03-.04.05.01.09.05.17.1.27-.08.01-.12.04-.1.1 0 .03.02.05.04.07.23.14.27.34.62.38-.2-.03-.37-.1-.51-.18-.11-.07-.14-.04-.07.07.14.26.38.45.7.55a.1.1 0 0 0 .08 0c.1-.06.19-.14.26-.24l-.15.29a.08.08 0 0 1-.07.04l-.23.02a.45.45 0 0 1-.23-.03c-.5-.21-.87-.51-.8-1.13a.06.06 0 0 0-.03-.05.06.06 0 0 0-.05-.02l-.92.2a.1.1 0 0 0-.06.04c-.2.3-.42.59-.8.65-.05 0-.05 0-.03-.04l.23-.36a.07.07 0 0 0-.07-.11c-.5.05-.74.4-.89.84l-.37.13a3 3 0 0 0-.03-.85.45.45 0 0 0-.36-.34.03.03 0 0 0-.02.01v.39a.09.09 0 0 1-.05.08.09.09 0 0 1-.1-.01l-.11-.12a.1.1 0 0 0-.08-.03.23.23 0 0 0-.16.06c-.03.02-.03.04-.02.07.03.05.07.1.12.14a.06.06 0 0 1-.02.1.18.18 0 0 1-.11.02 4.72 4.72 0 0 1-.34-.06.04.04 0 0 0-.01.04.7.7 0 0 0 .32.42l.18.21a.1.1 0 0 1 .02.08c-.01.05-.05.1-.12.15a1.75 1.75 0 0 0-.38-.61c-.15-.15-.24-.66-.4-.93a5.98 5.98 0 0 1 3.89-2.9 2.42 2.42 0 0 1 .71-.04c.03 0 .05.02.05.05.03.1 0 .17-.07.24a.03.03 0 0 0 .01.06c.53.1.8-.04.83-.44.99 0 1.97.29 2.96.89.74.45 1.3.96 1.67 1.54.23.35.47.67.62 1.07l.25.62c.23.52.27 1.15.3 1.72a5.68 5.68 0 0 1-1.07 3.58l-.02-.01-.01-.02-.04-.09a.14.14 0 0 0-.06-.07 4.11 4.11 0 0 0-1.07-.8Z" fill="#EAC1BC"/><path d="M11.58 3.73c.01-.03.02-.03.05-.02.28.11.5.27.68.48.08.08.08.16.01.25l-.26.36c-.07.1-.15.1-.23 0l-.65-.74c-.03-.03-.02-.05.02-.06.12-.05.24-.12.35-.22a.1.1 0 0 0 .03-.05Z" fill="#DD6EAC"/><path d="M8.99 5.16a.3.3 0 0 0 .05-.13.08.08 0 0 0-.02-.07.08.08 0 0 0-.08-.01l-.35.13a.09.09 0 0 1-.1-.02l-.23-.23c-.14-.15-.17-.13-.1.06.07.15.15.3.25.46-.14 0-.33.13-.55.37l.2-.34c.02-.03.01-.06-.02-.08-.09-.07-.18-.07-.27-.01a.45.45 0 0 0-.22.4c0 .02.01.04.04.05.06.02.12.02.18 0-.17.09-.32.05-.44-.11-.35-.47.05-.75.48-.8a.09.09 0 0 0 .07-.08l.02-.44c0-.04.02-.06.05-.06.53-.14.99-.1 1.38.15l.03.06c.01.1 0 .22-.02.34a.4.4 0 0 1-.15.2l-.2.16Z" fill="#DA86AC"/><path d="M5.83 5.17c-.07-.08-.17-.14-.21-.24-.01-.03 0-.05.01-.06.37-.29.92-.49 1.35-.26.1.05.13.13.1.24-.09.27-.21.51-.37.73a.13.13 0 0 1-.07.05.36.36 0 0 1-.25-.03c-.22-.1-.4-.25-.56-.43Zm5.71.4.04-.14c.02-.12 0-.14-.1-.05-.19.2-.42.32-.69.36a.05.05 0 0 1-.06-.03l-.33-.66c-.01-.03-.03-.03-.03 0l-.05.2a.6.6 0 0 1 .1-.5.07.07 0 0 1 .07-.03c.45.03.82.24 1.22.44.05.02.06.06.04.1a.9.9 0 0 1-.21.3Z" fill="#DD6EAC"/><path d="M8.99 5.16a.6.6 0 0 0-.17.16c-.07.08-.12.13-.16.14-.08.02-.17-.02-.25-.1-.1-.16-.18-.32-.25-.47-.07-.19-.04-.21.1-.06l.24.23a.09.09 0 0 0 .09.02l.35-.13a.08.08 0 0 1 .08 0 .08.08 0 0 1 .02.08c0 .04-.02.08-.05.13Zm2.55.41c-.14.13-.66.53-.9.46-.05-.02-.09-.06-.12-.13a3.44 3.44 0 0 1-.2-.65l.05-.2c0-.03.02-.03.03 0l.33.66a.06.06 0 0 0 .06.03c.27-.04.5-.16.7-.36.08-.09.11-.07.1.05l-.05.14Zm-3.68.15c.01-.03-.02-.02-.1.02a.32.32 0 0 1-.17 0c-.03 0-.04-.03-.04-.06 0-.16.07-.3.22-.4.1-.05.19-.05.27.02.03.02.04.05.02.08l-.2.34Z" fill="#C53792"/><path d="m9.96 6.37-.06.37a.82.82 0 0 1-.26.23.1.1 0 0 1-.08.01 1.2 1.2 0 0 1-.7-.55c-.07-.11-.04-.14.07-.07.14.09.31.15.5.18.08.02.14.06.18.11a.05.05 0 0 0 .1-.02.28.28 0 0 0 0-.2.07.07 0 0 0-.07-.05c-.1 0-.13-.05-.13-.15a.2.2 0 0 0-.11-.2.2.2 0 0 0-.08-.01l-.43-.03a.58.58 0 0 1-.1-.27c0-.02 0-.04.03-.04.55-.06.93.17 1.14.7Z" fill="#EEC9BA"/><path d="m9.9 6.74.06-.37c.14-.07.27.07.34.18.04.07.09.1.17.1.12.2.26.35.42.47.06.12.16.2.3.22 0 .1.03.19.09.27a.1.1 0 0 0 .07.04c.17.03.24.12.2.27-.05-.08-.13-.1-.23-.07-.03 0-.04.03-.03.05.15.3.17.64.2.96.03.19.04.4.04.64 0 .25.01.5.05.76l.01.23.04.46c0 .03 0 .05-.03.07l-.17.08c-.02.01-.03.03-.02.06.14.42.38.79.72 1.1.02.03.04.03.04-.01v-.42l-.03-.09-.1-.15a.07.07 0 0 1-.02-.05c.01-.06.07-.1.16-.1-.03.6.17 1.08.6 1.47.08.07.16.09.27.09a.08.08 0 0 0 .07-.06v-.03a1.08 1.08 0 0 0-.56-.9.08.08 0 0 1-.04-.05v-.06a.04.04 0 0 1 .03-.02h.02c.13.03.24.08.34.16.26.19.47.41.76.59a.2.2 0 0 1-.11.12.06.06 0 0 0-.05.06v.12a.1.1 0 0 1-.03.07l-.59.58c-.3-.34-.59-.74-.96-.97a4.95 4.95 0 0 1-.55-.4c-.13-.1-.28-.04-.33.12l-.09.33c0 .04-.02.05-.06.02a2.52 2.52 0 0 1-.6-.62c-.2-.36-.42-.9-.65-1.6-.07-.76.08-1.47.47-2.15a.07.07 0 0 0 0-.07c-.16-.22-.37-.3-.64-.21-.3.08-.53.3-.68.64a.06.06 0 0 1-.04.04.1.1 0 0 1-.08-.02.08.08 0 0 1-.04-.07c.01-.59-.39-.7-.6-1.16l-.3-.72a.1.1 0 0 0-.13-.06c-.18.05-.26.19-.4.28-.4.26-.8.62-.95 1.07l-.22.75c0 .04-.03.05-.06.03a.35.35 0 0 1-.15-.14c.04.02.08.02.11 0a.08.08 0 0 0 .03-.08c-.03-.33-.03-.69.03-1.07.07-.1.12-.23.15-.37 0-.03-.01-.04-.04-.05l-.3-.02c.14-.44.38-.8.88-.84a.07.07 0 0 1 .08.07l-.01.04-.23.36c-.02.03-.02.04.02.04.4-.06.6-.35.81-.65a.1.1 0 0 1 .06-.04l.92-.2a.06.06 0 0 1 .05.02.06.06 0 0 1 .02.05c-.06.62.3.92.8 1.13.08.03.16.04.24.03l.23-.02c.03 0 .06-.01.07-.04l.15-.29Z" fill="#939C60"/><path d="M5.43 7.2v.2a.8.8 0 0 0-.44-.05.26.26 0 0 0-.11-.02.11.11 0 0 1-.08-.03 1.1 1.1 0 0 0-.34-.17.7.7 0 0 1-.32-.42.04.04 0 0 1 .03-.05h.02l.3.07c.04 0 .08 0 .11-.02a.06.06 0 0 0 .02-.1.54.54 0 0 1-.12-.14c-.01-.03 0-.05.02-.07.04-.04.1-.06.16-.06a.1.1 0 0 1 .08.03l.11.12a.09.09 0 0 0 .15-.07v-.38a.03.03 0 0 1 .01-.02.03.03 0 0 1 .03 0c.17.04.29.16.34.34a3 3 0 0 1 .03.85Z" fill="#DD6EAC"/><path d="m8.89 5.99.43.03a.2.2 0 0 1 .18.13l.01.08c0 .1.04.15.13.15.03 0 .05.02.06.06.03.06.03.12 0 .2a.06.06 0 0 1-.06.03c-.01 0-.02 0-.03-.02a.45.45 0 0 0-.17-.11c-.35-.04-.39-.24-.62-.38a.11.11 0 0 1-.04-.07c-.02-.06.02-.09.1-.1Z" fill="#655551"/><path d="M4.54 7.57c-.1.15-.23.28-.38.38h-.04l-.04.92a.6.6 0 0 1-.02.04l-.01.04c-.06.13-.13.19-.23.17a.06.06 0 0 0-.04.02.06.06 0 0 0-.02.04v.38c0 .04.02.06.05.08a.6.6 0 0 0 .25.1c.03.01.05 0 .06-.02a4 4 0 0 0 .22-.77c0-.03.03-.04.05-.01.13.13.1.43.1.6a.14.14 0 0 0 .04.12l.17.16a.07.07 0 0 0 .1 0l.03-.03c.04-.1.1-.2.18-.27.2-.21.34-.46.39-.74 0-.03 0-.06-.03-.08-.16-.11-.33-.2-.5-.26a.64.64 0 0 1-.32-.25c-.02-.03-.02-.06 0-.08l.27-.41a.12.12 0 0 0 .02-.08c-.02-.23.03-.32.15-.27a.8.8 0 0 1 .44.04c-.02.13 0 .24.05.34.06.13.14.15.23.06L6 7.52c-.06.38-.06.74-.03 1.07 0 .03 0 .05-.03.07-.03.03-.07.03-.11.01a.22.22 0 0 0-.16-.07c-.02 0-.04 0-.05.04-.02.19.01.32.1.38a.34.34 0 0 1-.16-.08c-.02-.02-.04-.01-.05.02-.17.51-.5.8-.94 1.06-.19.11-.32.3-.42.49a.06.06 0 0 1-.1 0c-.24-.31-.52-.31-.91-.14A4.94 4.94 0 0 1 3 8.91v-.14c.03-.37.03-.73.11-1.1.13-.57.35-1.12.65-1.64.15.27.24.78.39.93.17.18.3.38.38.6Z" fill="#EEC9BA"/><path d="M12.94 7.28c-.02-.08-.06-.11-.12-.09a2.6 2.6 0 0 1-.74.14c-.06 0-.08-.03-.09-.09v-.88c0-.03-.01-.04-.04-.05h-.06l.14-.18a.1.1 0 0 1 .15 0 14.65 14.65 0 0 1 .9 1.01v.03a.38.38 0 0 1-.14.1Z" fill="#DA86AC"/><path d="m12.94 7.28-.27.16c-.22.05-.36.14-.42.24-.1.18-.25.35-.43.5a.1.1 0 0 1-.13.01.4.4 0 0 1-.13-.27c.03-.15-.04-.24-.21-.27a.1.1 0 0 1-.07-.04.46.46 0 0 1-.1-.27c.03-.06.07-.09.12-.09.04 0 .06.02.07.05l.1.15c.1.13.16.1.18-.05.02-.15-.03-.29 0-.44.05-.23.13-.45.24-.66l.06.01c.03 0 .04.02.04.05v.88c0 .06.03.09.1.09.24-.01.48-.06.73-.14.06-.02.1 0 .12.09Z" fill="#C53792"/><path d="m6.13 6.83.07-.35a.12.12 0 0 1 .12-.1h.16c.06 0 .09.03.06.1-.05.15-.16.2-.22.38-.02.06-.08.09-.14.06a.08.08 0 0 1-.05-.09Z" fill="#202F12"/><path d="m13.64 6.57.03-.03c.09-.05.14-.03.16.07.05.24.05.49 0 .74-.02.1-.05.1-.1 0a4.98 4.98 0 0 1-.18-.56c-.02-.1 0-.17.09-.22Z" fill="#EECA78"/><path d="M10.89 7.12c-.16-.12-.3-.28-.41-.46 0-.08.06-.13.18-.13.16 0 .26.1.43.1a.07.07 0 0 1 .06.01c.05.06.07.13.06.2a.08.08 0 0 1-.04.07.34.34 0 0 0-.13.14.12.12 0 0 1-.06.05.28.28 0 0 1-.1.02Z" fill="#C53792"/><path d="m9.65 10.45.02.17c-.16-.5-.15-.99.04-1.44l.17-.53.07-.22a.08.08 0 0 0-.03-.09l-.28-.26a.06.06 0 0 0-.1.05l.04.24c0 .03 0 .05-.03.07a5.48 5.48 0 0 0-.81 1.09.07.07 0 0 1-.1-.03c-.13-.26-.28-.58-.6-.65-.3-.07-.45-.1-.67-.33-.42-.41-.93.06-.78.56.15.25.44.37.58.71.36.62.49 1.29.39 2.01a.6.6 0 0 0 .17.55c-.06.22-.09.39-.08.52a128.54 128.54 0 0 0 .1 1.53.1.1 0 0 0 .15 0l.53-.57c-.15.3-.35.55-.6.74a.08.08 0 0 1-.08 0 .08.08 0 0 1-.04-.06 36.6 36.6 0 0 0-.12-1.44 2.27 2.27 0 0 0-.14-.45c-.28.14-.5.39-.63.74-.17.43-.23.83-.2 1.2a5.33 5.33 0 0 1-1.47-.9l.08-.08a.09.09 0 0 1 .08-.03h.07l.04-.03a.07.07 0 0 0 .02-.04v-.05c0-.04.02-.06.06-.05.08 0 .12-.03.12-.11 0-.04 0-.07.03-.1l.22-.26c.12-.17.28-.28.4-.44a.44.44 0 0 0 .08-.26l.03-.91c0-.04.03-.1.09-.18a.76.76 0 0 0 .1-.17c.1-.32.02-.58-.28-.79-.14-.15-.35-.3-.41-.52l-.02-.3a.5.5 0 0 0-.14-.32c-.09-.06-.12-.2-.1-.38 0-.03.03-.05.05-.04.06 0 .11.02.16.07a.3.3 0 0 0 .15.14c.03.02.05 0 .06-.03l.22-.75c.15-.45.55-.8.94-1.07.15-.1.23-.23.4-.28a.1.1 0 0 1 .13.06c.1.25.21.49.32.72.2.45.6.57.6 1.16 0 .02 0 .05.03.07a.1.1 0 0 0 .08.02c.02 0 .03-.02.04-.04.15-.34.38-.56.68-.64.27-.08.48-.01.64.2.02.03.02.06 0 .08-.39.68-.54 1.4-.47 2.14Z" fill="#777E4C"/><path d="m5.8 7.08.3.02c.04 0 .05.02.05.05a.98.98 0 0 1-.15.37c-.11.11-.2.2-.29.27-.1.09-.17.07-.23-.06a.53.53 0 0 1-.05-.34v-.18l.37-.13Z" fill="#C53792"/><path d="M5 7.35c-.13-.05-.18.04-.16.27 0 .03 0 .06-.02.08l-.27.4a.08.08 0 0 0 0 .09c.08.12.19.2.31.25.18.06.35.15.5.26a.1.1 0 0 1 .04.08c-.05.28-.18.53-.4.74a.86.86 0 0 0-.17.27.08.08 0 0 1-.06.04.08.08 0 0 1-.07-.01l-.17-.16a.14.14 0 0 1-.04-.12c0-.17.03-.47-.1-.6-.02-.03-.04-.02-.05.01a4 4 0 0 1-.22.77c-.01.02-.03.03-.06.03a.83.83 0 0 1-.25-.11.09.09 0 0 1-.04-.08l-.01-.38a.06.06 0 0 1 .02-.04.06.06 0 0 1 .04-.02c.1.02.17-.04.23-.17a6.6 6.6 0 0 0 .03-.08l.04-.91v-.01h.04c.15-.1.28-.23.38-.38.07-.05.11-.1.12-.15a.1.1 0 0 0-.02-.08l-.18-.21c.12.04.23.1.34.17.02.02.05.03.08.03.04 0 .08 0 .11.02Z" fill="#DA86AC"/><path d="M13.69 8.71a3.2 3.2 0 0 0-1.23-.02c-.13.06-.24.22-.3.5l-.05.06c-.34.25-.52.59-.53 1-.04-.24-.05-.5-.05-.75 0-.24-.01-.45-.04-.64-.03-.32-.05-.66-.2-.96-.01-.02 0-.04.03-.05.1-.04.18-.01.24.07a.4.4 0 0 0 .13.27.1.1 0 0 0 .13 0c.18-.16.32-.33.43-.5.06-.11.2-.2.42-.25.32.08.73.18 1.06.13.31-.04.55-.1.62.3 0 .04.03.05.06.03a.21.21 0 0 1 .08-.03c.05 0 .05 0 0 .02-.24.1-.47.15-.71.15a.08.08 0 0 0-.08.08l-.01.6Z" fill="#D6CFD5"/><path d="m9.88 8.65.02-.2c0-.02 0-.03-.04-.03-.41.08-.78.78-.9 1.1-.06.17-.08.43-.07.78 0 .07-.02.14-.06.2a.2.2 0 0 1-.21.1.13.13 0 0 1-.08-.05c-.17-.18-.31-.4-.42-.65a.88.88 0 0 0-.34-.34c-.24-.13-.45-.3-.62-.5-.17-.21-.4-.23-.57.02-.15-.5.36-.97.78-.56.22.23.38.26.68.33.3.07.46.39.6.65a.07.07 0 0 0 .09.03l.02-.03c.22-.38.48-.74.8-1.06a.09.09 0 0 0 .02-.07l-.04-.24a.06.06 0 0 1 .07-.06l.03.01.28.26c.03.03.04.05.03.09l-.07.22Z" fill="#69733B"/><path d="M14.63 8.3h.14c.02 0 .04.02.04.04a.7.7 0 0 1-.06.44c-.1.19-.23.37-.38.56-.06.08-.12.07-.16-.02-.11-.24-.18-.5-.2-.77 0-.03 0-.05.02-.06.16-.13.33-.21.54-.25l.03.01.02.03.01.01Z" fill="#DD6EAC"/><path d="m9.88 8.65-.17.53v-.44c-.03-.12-.06-.13-.12-.02-.24.43-.35.94-.3 1.44.02.2.04.4.04.6 0 .79-.83.92-1.42.99a.04.04 0 0 0-.03.03.04.04 0 0 0 0 .04c.12.12.25.19.41.2.56.03 1.06 0 1.6-.25.03-.01.04-.03.03-.06l-.19-.84.14.47c.05.15.11.3.19.43.12.21.23.43.32.67.03.07.1.13.17.17a.1.1 0 0 1 .08.08c.02.06.02.11.02.17 0 .03 0 .05.02.07a.9.9 0 0 1 .26.4l.6.78c.03.04.03.08 0 .12a.19.19 0 0 1-.17.09c-.31-.01-.57-.14-.62-.47a1.61 1.61 0 0 0-.28-.73c-.13-.2-.59-.81-.82-.83a.11.11 0 0 0-.1.05.11.11 0 0 0-.02.1c.2.48.38.97.54 1.47.06.17.08.34.06.5 0 .03-.02.05-.05.05h-.14a.1.1 0 0 1-.08-.05c-.06-.08-.14-.14-.19-.24-.2-.4-.45-.64-.93-.63-.03 0-.04 0-.02-.04l.48-1.06a.1.1 0 0 0-.05-.14c-.45-.27-.92-.19-1.42-.1a.08.08 0 0 1-.09-.1c.06-.26.1-.5.12-.73.05-.59-.22-1.11-.58-1.58-.14-.34-.43-.46-.58-.71.17-.25.4-.23.57-.02.17.2.38.37.62.5.12.06.28.22.34.34.1.26.25.47.42.65.02.02.05.04.08.04a.2.2 0 0 0 .2-.1.32.32 0 0 0 .07-.19c-.01-.35.01-.61.07-.77.12-.33.49-1.03.9-1.1.03-.01.05 0 .04.03l-.02.2Z" fill="#435023"/><path d="m13.69 8.71-.03.4c0 .03-.02.04-.05.05l-.91.29a.07.07 0 0 1-.06-.02.07.07 0 0 1-.03-.05c0-.23-.05-.46-.15-.7a3.2 3.2 0 0 1 1.23.03Z" fill="#E2F1E1"/><path d="M9.7 9.18c-.18.45-.2.94-.03 1.44l.06.25.19.84c0 .03 0 .05-.03.06-.54.24-1.04.28-1.6.25a.57.57 0 0 1-.4-.2.04.04 0 0 1-.01-.04l.01-.02.02-.01c.59-.07 1.43-.2 1.42-1 0-.19-.02-.39-.04-.6-.05-.49.06-1 .3-1.43.06-.1.1-.1.11.02.01.11.02.26 0 .44Z" fill="#202F12"/><path d="M5.72 9.02c.09.1.14.2.14.33l.02.3c.06.21.27.36.41.51.2.3.25.6.15.9-.1.34-.21.6-.34.77-.14.19-.3.39-.5.6-.02.01-.04.02-.06 0-.39-.38-.66-.38-1.13-.45a.07.07 0 0 1-.06-.05l-.28-.76a.08.08 0 0 0-.06-.05l-.71-.16-.16-.59c.4-.17.67-.17.9.14a.06.06 0 0 0 .06.03.06.06 0 0 0 .05-.03c.1-.2.23-.38.42-.49.44-.27.77-.55.94-1.06.01-.03.03-.04.05-.02.06.05.11.07.16.08Z" fill="#FCFADC"/><path d="m10.93 13.33.97.96c-.5.27-1.02.47-1.58.6-.27.07-.54.1-.82.1-.5.02-.99 0-1.48-.04a2.96 2.96 0 0 1-.67-.14l.29-.14a.1.1 0 0 0 .03-.07l-.22-1.98c.08.21.13.36.14.45a36.6 36.6 0 0 1 .13 1.48.08.08 0 0 0 .07.04l.04-.02c.25-.19.45-.44.6-.74a2.74 2.74 0 0 0 .4-1.05l-.01-.03c-.35-.24-.67-.4-1.1-.4a.6.6 0 0 1-.16-.55c.1-.72-.03-1.39-.39-2 .36.46.63.98.58 1.57a6.24 6.24 0 0 1-.11.77.08.08 0 0 0 .08.05c.5-.08.97-.16 1.42.11a.1.1 0 0 1 .05.14L8.7 13.5c-.02.03 0 .05.02.04.48-.01.74.23.93.63.05.1.13.16.19.24a.1.1 0 0 0 .08.05h.14c.03 0 .05-.02.05-.05.02-.16 0-.33-.06-.5a18.52 18.52 0 0 0-.54-1.52.12.12 0 0 1 .12-.1c.23.02.69.64.82.83.16.22.24.46.28.73.05.33.3.46.62.47a.2.2 0 0 0 .17-.09.1.1 0 0 0 0-.12l-.6-.78Z" fill="#69733B"/><path d="M5.15 13.65a6.06 6.06 0 0 1-1.85-2.69l.7.16c.04 0 .06.03.07.05l.28.76a.07.07 0 0 0 .06.05c.47.07.74.07 1.13.44.02.03.04.02.06 0 .2-.2.36-.4.5-.59.13-.17.24-.43.34-.77a1 1 0 0 0-.15-.9c.3.2.39.47.27.8a.76.76 0 0 1-.1.16.62.62 0 0 0-.08.18l-.03.91c0 .11-.03.2-.07.26-.13.16-.29.27-.41.44l-.22.27a.13.13 0 0 0-.03.09c0 .08-.04.12-.12.1-.04 0-.06.02-.06.06v.05a.07.07 0 0 1-.06.06c-.02 0-.05.01-.07 0-.04 0-.06.01-.08.04l-.08.07Z" fill="#EEC9BA"/><path d="M12.9 13.58c-.3.26-.63.5-1 .71l-.97-.96a.98.98 0 0 0-.26-.4.08.08 0 0 1-.02-.07c0-.06 0-.11-.02-.17a.14.14 0 0 0-.08-.08.34.34 0 0 1-.17-.17 5 5 0 0 0-.32-.67 2.15 2.15 0 0 1-.2-.43l-.13-.47-.06-.25-.02-.17c.23.72.45 1.25.65 1.6.09.17.3.38.6.63.04.03.06.02.06-.02l.09-.33c.05-.16.2-.22.33-.11.18.15.36.28.55.39.37.23.67.63.96.97Z" fill="#808B4D"/><path d="M5.76 10.53c.2.1.17.4.16.6 0 .03-.02.06-.04.09l-.32.38a.05.05 0 0 1-.03.02.05.05 0 0 1-.04-.01c-.2-.2-.38-.41-.55-.66a.27.27 0 0 1-.05-.17c0-.08.02-.14.05-.2a.09.09 0 0 1 .08-.05l.68-.01h.06Z" fill="#DA86AC"/><path d="m12.3 11.32.13.07-.07.01a.54.54 0 0 1-.18.04c-.1 0-.15.04-.16.1a.07.07 0 0 0 .01.05l.1.15c.03.03.03.06.03.09v.42c0 .04 0 .04-.03.02a2.75 2.75 0 0 1-.72-1.11c0-.03 0-.05.02-.06l.17-.08a.06.06 0 0 0 .03-.07l-.04-.46c.01.27.08.47.22.62.1.12.27.2.49.2Z" fill="#BFBF7A"/><path d="M12.72 11.43c-.07.03-.17.02-.3-.04l-.12-.07-.21-.08c-.16-.06-.16-.1 0-.15a1.96 1.96 0 0 1 .76-.03l.02.03a.06.06 0 0 1 0 .05l-.15.29Z" fill="#DD6EAC"/><path d="m12.36 11.4.92.47a.1.1 0 0 1 .06.05c.02.06.05.1.1.12.03 0 .05.02.07.05a3.28 3.28 0 0 0 .27.33l.03.01a.08.08 0 0 1 .05.05.08.08 0 0 1 0 .07c-.06.08-.12.1-.19.08-.29-.18-.5-.4-.76-.6a.95.95 0 0 0-.36-.15.04.04 0 0 0-.03.04v.04l.04.04a1.08 1.08 0 0 1 .56.94.08.08 0 0 1-.07.06c-.11 0-.2-.02-.28-.1a1.76 1.76 0 0 1-.59-1.46c.05 0 .11-.01.18-.04Z" fill="#69733B"/><path d="m8.43 13.83-.53.58a.1.1 0 0 1-.17-.06l-.08-1.48a2 2 0 0 1 .08-.52 1.81 1.81 0 0 1 1.1.43v.03c-.06.36-.2.7-.4 1.02Z" fill="#939C60"/><path d="m7.45 12.62.22 1.98c0 .03 0 .05-.03.07l-.3.14-.71-.26a2.5 2.5 0 0 1 .19-1.19c.14-.35.35-.6.63-.74Z" fill="#435023"/><path d="M10.4 14.08a.08.08 0 0 0-.09.08v.26c.01.04.05.08.1.08s.09-.04.09-.09l-.01-.25a.08.08 0 0 0-.09-.08Z" fill="#939C60"/></svg>