<!-- by TradingView --><svg width="18" height="18" viewBox="0 0 18 18" xmlns="http://www.w3.org/2000/svg"><path fill="#181B1E" d="M0 0h18v18H0z"/><path d="M6.07 14.84v-.5h.18v.5h-.18ZM7.55 7.34v-.5h.18v.5h-.18ZM6.98 14.1v-.5h.18v.5h-.18ZM7.8 14.84v-.5h.18v.5H7.8ZM9.36 14.84v-.5h.18v.5h-.18ZM11.2 14.84v-.5h.18v.5h-.17ZM6.25 13.97h.64v.17h-.64v-.17ZM7.48 13.97h.65v.17h-.65v-.17ZM6.25 14.83H7.8V15H6.25v-.17ZM9.62 14.83h1.56V15H9.62v-.17ZM7.3 14.1v-.5h.18v.5h-.17ZM10.45 14.1v-.5h-.18v.5h.18ZM11.18 13.97h-.65v.17h.65v-.17ZM9.95 13.97H9.3v.17h.65v-.17Z" fill="#fff"/><path d="M10.12 14.1v-.5h-.17v.5h.17ZM7.86 7.34v-.5h.18v.5h-.18ZM10 7.34v-.5h.18v.5H10ZM10.36 7.34v-.5h.17v.5h-.17ZM7.43 12.34l.24-.43.15.08-.23.43-.16-.08ZM7.08 13.18l.24-.43.15.08-.23.43-.16-.08ZM7.43 13.18l.24-.43.15.08-.23.43-.16-.08ZM7.81 12.34l.24-.43.15.08-.23.43-.16-.08ZM11.49 3.17H6.65V3h4.84v.17Zm-5.26.67.2-.4.16.07-.2.4-.16-.07Zm5.34-.4.17.4-.16.07-.17-.4.16-.07ZM6 4.85v-.51h.18v.51H6Zm6-.51v.51h-.18v-.51H12Zm-6 1.3v-.43h.18v.43H6Zm6-.43v.43h-.18v-.43H12ZM6.44 6.46l-.2-.36.14-.08.21.36-.15.08Zm5.3-.36-.17.36-.16-.08.17-.36.16.08Zm-.39.46h-4.7V6.4h4.7v.17ZM11.49 8.07H6.65V7.9h4.84v.17Zm-5.26.67.2-.4.16.07-.2.4-.16-.07Zm5.34-.4.17.4-.16.07-.17-.4.16-.07ZM6 9.75v-.51h.18v.51H6Zm6-.51v.51h-.18v-.51H12Zm-6 1.3v-.43h.18v.43H6Zm6-.43v.43h-.18v-.43H12Zm-5.56 1.25-.2-.36.14-.08.21.36-.15.08Zm5.3-.36-.17.36-.16-.08.17-.36.16.08Zm-.39.46h-4.7v-.17h4.7v.17ZM10.6 13.26l-.08-.48.18-.03.08.48-.18.03ZM10.32 13.26l-.08-.48.17-.03.08.48-.17.03ZM10 12.42l-.09-.48.18-.03.08.48-.18.03ZM10.35 12.42l-.09-.48.18-.03.08.48-.17.03ZM7.33 4h3.34v.33H7.33V4ZM6.67 5h4.66v.33H6.67V5ZM7.67 8.67h2.66V9H7.67v-.33ZM7.33 9.67H10V10H7.33v-.33ZM7 10.33h4.33v.34H7v-.34Z" fill="#fff"/></svg>