<!-- by TradingView --><svg width="18" height="18" viewBox="0 0 18 18" xmlns="http://www.w3.org/2000/svg"><path fill="url(#aq45pzi0y)" d="M0 0h18v18H0z"/><path fill-rule="evenodd" d="M9 13.72a4.72 4.72 0 1 0 0-9.44 4.72 4.72 0 0 0 0 9.44ZM9 14A5 5 0 1 0 9 4a5 5 0 0 0 0 10Z" fill="#FCE058"/><path fill-rule="evenodd" d="M9 13.45a4.45 4.45 0 1 0 0-8.9 4.45 4.45 0 0 0 0 8.9Zm0 .28a4.73 4.73 0 1 0 0-9.46 4.73 4.73 0 0 0 0 9.46Z" fill="#fff"/><path d="M11 7H7v1h2.17L7 10.34V11h4v-1H8.83L11 7.67V7Z" fill="#fff"/><defs><linearGradient id="aq45pzi0y" x1="3.35" y1="3.12" x2="21.9" y2="24.43" gradientUnits="userSpaceOnUse"><stop stop-color="#1A1E21"/><stop offset="1" stop-color="#06060A"/></linearGradient></defs></svg>