<?xml version="1.0" encoding="UTF-8" standalone="no" ?>
<!DOCTYPE svg PUBLIC "-//W3C//DTD SVG 1.1//EN" "http://www.w3.org/Graphics/SVG/1.1/DTD/svg11.dtd">
<svg xmlns="http://www.w3.org/2000/svg" xmlns:xlink="http://www.w3.org/1999/xlink" version="1.1" width="1080" height="1080" viewBox="0 0 1080 1080" xml:space="preserve">
<desc>Created with Fabric.js 5.2.4</desc>
<defs>
</defs>
<rect x="0" y="0" width="100%" height="100%" fill="transparent"></rect>
<g transform="matrix(1 0 0 1 540 540)" id="a6474d76-c44b-4cb3-bcc2-9e97042a2b6d"  >
<rect style="stroke: none; stroke-width: 1; stroke-dasharray: none; stroke-linecap: butt; stroke-dashoffset: 0; stroke-linejoin: miter; stroke-miterlimit: 4; fill: rgb(255,255,255); fill-rule: nonzero; opacity: 1; visibility: hidden;" vector-effect="non-scaling-stroke"  x="-540" y="-540" rx="0" ry="0" width="1080" height="1080" />
</g>
<g transform="matrix(1 0 0 1 540 540)" id="1fc2687a-fc2d-4a62-942d-07f30305f0f7"  >
</g>
<g transform="matrix(38.57 0 0 38.57 540 540)"  >
<g style=""   >
		<g transform="matrix(1 0 0 1 3.5 -1.5)"  >
<path style="stroke: none; stroke-width: 1; stroke-dasharray: none; stroke-linecap: butt; stroke-dashoffset: 0; stroke-linejoin: miter; stroke-miterlimit: 4; fill: rgb(255,255,255); fill-rule: nonzero; opacity: 1;" vector-effect="non-scaling-stroke"  transform=" translate(-17.5, -12.5)" d="M 17 17 L 18 17 L 18 23 L 17 23 L 17 17 z M 17 2 L 18 2 L 18 7 L 17 7 L 17 2 z" stroke-linecap="round" />
</g>
		<g transform="matrix(1 0 0 1 1 1)"  >
<path style="stroke: none; stroke-width: 1; stroke-dasharray: none; stroke-linecap: butt; stroke-dashoffset: 0; stroke-linejoin: miter; stroke-miterlimit: 4; fill: rgb(255,255,255); fill-rule: nonzero; opacity: 1;" vector-effect="non-scaling-stroke"  transform=" translate(-15, -15)" d="M 16 17 L 19 17 L 19 8 L 16 8 L 16 17 z M 15 7 L 20 7 L 20 18 L 15 18 L 15 7 z M 10 5 L 11 5 L 11 10 L 10 10 L 10 5 z M 10 22 L 11 22 L 11 25 L 10 25 L 10 22 z" stroke-linecap="round" />
</g>
		<g transform="matrix(1 0 0 1 -3.5 1.5)"  >
<path style="stroke: none; stroke-width: 1; stroke-dasharray: none; stroke-linecap: butt; stroke-dashoffset: 0; stroke-linejoin: miter; stroke-miterlimit: 4; fill: rgb(255,255,255); fill-rule: nonzero; opacity: 1;" vector-effect="non-scaling-stroke"  transform=" translate(-10.5, -15.5)" d="M 9 21 L 12 21 L 12 10 L 9 10 L 9 21 z M 8 9 L 13 9 L 13 22 L 8 22 L 8 9 z" stroke-linecap="round" />
</g>
		<g transform="matrix(1 0 0 1 0.98 -1.45)"  >
<path style="stroke: none; stroke-width: 1; stroke-dasharray: none; stroke-linecap: butt; stroke-dashoffset: 0; stroke-linejoin: miter; stroke-miterlimit: 4; fill: rgb(255,255,255); fill-rule: evenodd; opacity: 1;" vector-effect="non-scaling-stroke"  transform=" translate(-14.98, -12.55)" d="M 25.27 9.42 L 14.1 16.53 L 7.119999999999999 15.030000000000001 L 5.3 16.4 L 4.7 15.599999999999998 L 6.880000000000001 13.959999999999997 L 13.9 15.459999999999997 L 24.73 8.579999999999998 L 25.27 9.419999999999998 z" stroke-linecap="round" />
</g>
		<g transform="matrix(1 0 0 1 -10 3)"  >
<path style="stroke: none; stroke-width: 1; stroke-dasharray: none; stroke-linecap: butt; stroke-dashoffset: 0; stroke-linejoin: miter; stroke-miterlimit: 4; fill: rgb(255,255,255); fill-rule: evenodd; opacity: 1;" vector-effect="non-scaling-stroke"  transform=" translate(-4, -17)" d="M 4 18 C 4.552284749830793 18 5 17.552284749830793 5 17 C 5 16.447715250169207 4.552284749830793 16 4 16 C 3.4477152501692068 16 3 16.447715250169207 3 17 C 3 17.552284749830793 3.4477152501692068 18 4 18 z M 4 19 C 5.1045694996615865 19 6 18.104569499661586 6 17 C 6 15.895430500338414 5.1045694996615865 15 4 15 C 2.8954305003384135 15 2 15.895430500338414 2 17 C 2 18.104569499661586 2.8954305003384135 19 4 19 z" stroke-linecap="round" />
</g>
</g>
</g>
</svg>