<?xml version="1.0" encoding="UTF-8" standalone="no" ?>
<!DOCTYPE svg PUBLIC "-//W3C//DTD SVG 1.1//EN" "http://www.w3.org/Graphics/SVG/1.1/DTD/svg11.dtd">
<svg xmlns="http://www.w3.org/2000/svg" xmlns:xlink="http://www.w3.org/1999/xlink" version="1.1" width="1080" height="1080" viewBox="0 0 1080 1080" xml:space="preserve">
<desc>Created with Fabric.js 5.2.4</desc>
<defs>
</defs>
<rect x="0" y="0" width="100%" height="100%" fill="transparent"></rect>
<g transform="matrix(1 0 0 1 540 540)" id="e8c8f618-96ba-4784-90d1-b20bd5ccc995"  >
<rect style="stroke: none; stroke-width: 1; stroke-dasharray: none; stroke-linecap: butt; stroke-dashoffset: 0; stroke-linejoin: miter; stroke-miterlimit: 4; fill: rgb(255,255,255); fill-rule: nonzero; opacity: 1; visibility: hidden;" vector-effect="non-scaling-stroke"  x="-540" y="-540" rx="0" ry="0" width="1080" height="1080" />
</g>
<g transform="matrix(1 0 0 1 540 540)" id="5e645da5-4b7f-4aa7-937b-67bb204a7508"  >
</g>
<g transform="matrix(38.57 0 0 38.57 540 540)"  >
<path style="stroke: none; stroke-width: 1; stroke-dasharray: none; stroke-linecap: butt; stroke-dashoffset: 0; stroke-linejoin: miter; stroke-miterlimit: 4; fill: rgb(255,255,255); fill-rule: evenodd; opacity: 1;"  transform=" translate(-14, -14)" d="M 22.38 4.04 L 22.419999999999998 4.04 C 22.853235320105604 3.9353016696949856 23.309905645756174 4.059848122145142 23.63 4.369999999999999 C 24 4.73 24.05 5.21 23.959999999999997 5.57 L 23.959999999999997 5.61 L 21.509999999999998 13.93 C 21.369999999999997 14.48 20.939999999999998 14.84 20.509999999999998 14.969999999999999 C 20.06 15.11 19.31 15.04 18.959999999999997 14.339999999999998 L 18.619999999999997 13.699999999999998 L 6.019999999999998 23.729999999999997 C 5.719999999999998 23.979999999999997 5.349999999999998 24.039999999999996 5.019999999999998 23.979999999999997 C 4.497451224550918 23.867868861575428 4.096771187822787 23.447353179464713 4.009999999999998 22.919999999999998 C 3.959999999999998 22.61 4.029999999999998 22.229999999999997 4.299999999999998 21.93 L 4.319999999999998 21.91 C 4.478660238173549 21.72165264516848 4.635335566235476 21.531642140923164 4.790000000000004 21.339999999999993 C 6.461308005449334 19.29377781371215 8.127978947720731 17.24377255471807 9.790000000000225 15.189999999999454 L 13.489999999999998 10.62 L 14.399999999999999 9.489999999999998 L 13.769999999999998 9.159999999999998 C 13.069999999999999 8.799999999999999 12.999999999999998 8.059999999999999 13.129999999999997 7.6099999999999985 C 13.259999999999998 7.169999999999998 13.629999999999997 6.749999999999998 14.159999999999997 6.6099999999999985 L 22.379999999999995 4.039999999999999 z M 14.43 7.57 C 14.08 7.65 13.93 8.13 14.23 8.27 L 15.940000000000001 9.18 L 15.3 9.98 C 11.888638328329902 14.181601982148946 8.475304618957908 18.38160244485158 5.060000000000219 22.579999999998545 L 5.050000000000001 22.599999999999998 C 4.880000000000001 22.79 5.200000000000001 23.119999999999997 5.380000000000001 22.95 L 18.93 12.17 L 19.85 13.87 C 19.990000000000002 14.17 20.470000000000002 14.03 20.55 13.67 L 22.990000000000002 5.359999999999999 C 23.040000000000003 5.119999999999999 22.89 4.959999999999999 22.64 5.01 L 14.440000000000001 7.57 z M 5.8 23.27 z" stroke-linecap="round" />
</g>
</svg>