<?xml version="1.0" encoding="UTF-8" standalone="no" ?>
<!DOCTYPE svg PUBLIC "-//W3C//DTD SVG 1.1//EN" "http://www.w3.org/Graphics/SVG/1.1/DTD/svg11.dtd">
<svg xmlns="http://www.w3.org/2000/svg" xmlns:xlink="http://www.w3.org/1999/xlink" version="1.1" width="1080" height="1080" viewBox="0 0 1080 1080" xml:space="preserve">
<desc>Created with Fabric.js 5.2.4</desc>
<defs>
</defs>
<rect x="0" y="0" width="100%" height="100%" fill="transparent"></rect>
<g transform="matrix(1 0 0 1 540 540)" id="e8c8f618-96ba-4784-90d1-b20bd5ccc995"  >
<rect style="stroke: none; stroke-width: 1; stroke-dasharray: none; stroke-linecap: butt; stroke-dashoffset: 0; stroke-linejoin: miter; stroke-miterlimit: 4; fill: rgb(255,255,255); fill-rule: nonzero; opacity: 1; visibility: hidden;" vector-effect="non-scaling-stroke"  x="-540" y="-540" rx="0" ry="0" width="1080" height="1080" />
</g>
<g transform="matrix(1 0 0 1 540 540)" id="5e645da5-4b7f-4aa7-937b-67bb204a7508"  >
</g>
<g transform="matrix(38.57 0 0 38.57 540 540)"  >
<g style=""   >
		<g transform="matrix(1 0 0 1 0 0)"  >
<path style="stroke: rgb(0,0,0); stroke-width: 1; stroke-dasharray: none; stroke-linecap: butt; stroke-dashoffset: 0; stroke-linejoin: miter; stroke-miterlimit: 4; fill: none; fill-rule: nonzero; opacity: 1;" vector-effect="non-scaling-stroke"  transform=" translate(-14, -14)" d="M 16 14 C 16 15.104569499661586 15.104569499661586 16 14 16 C 12.895430500338414 16 12 15.104569499661586 12 14 C 12 12.895430500338414 12.895430500338414 12 14 12 C 15.104569499661586 12 16 12.895430500338414 16 14 Z" stroke-linecap="round" />
</g>
		<g transform="matrix(1 0 0 1 1.1 0)"  >
<path style="stroke: none; stroke-width: 1; stroke-dasharray: none; stroke-linecap: butt; stroke-dashoffset: 0; stroke-linejoin: miter; stroke-miterlimit: 4; fill: rgb(0,0,0); fill-rule: evenodd; opacity: 1;" vector-effect="non-scaling-stroke"  transform=" translate(-15.1, -14)" d="M 4.5 14 C 4.4992662784807465 9.214566011466854 8.05808607468277 5.175616514499062 12.805543959261614 4.573933349448161 C 17.55300184384046 3.972250184397261 22.006893859821094 6.995684868805005 23.200000000000003 11.630000000000003 C 22.18175844847754 11.971852394399273 21.495675813381304 12.925905536368711 21.495675813381304 13.999999999999998 C 21.495675813381304 15.074094463631283 22.181758448477538 16.028147605600726 23.2 16.369999999999997 C 22.006893859821087 21.004315131194993 17.55300184384046 24.02774981560274 12.805543959261614 23.42606665055184 C 8.05808607468277 22.824383485500938 4.4992662784807465 18.785433988533146 4.5 14.000000000000002 Z M 24.2 16.5 C 22.935234414385345 21.659251520935783 18.016562135978564 25.061215382748614 12.742875944996308 24.4242364177298 C 7.469189754014053 23.78725745271099 3.5019609728144268 19.31201545958155 3.5019609728144268 14 C 3.5019609728144268 8.687984540418451 7.469189754014046 4.2127425472890145 12.742875944996301 3.5757635822702003 C 18.016562135978557 2.938784617251386 22.935234414385334 6.340748479064207 24.199999999999996 11.49999999999999 C 25.580711874576984 11.5 26.7 12.619288125423017 26.7 14 C 26.7 15.380711874576983 25.580711874576984 16.5 24.2 16.5 Z M 22.5 14 C 22.5 13.17157287525381 23.17157287525381 12.5 24 12.5 C 24.82842712474619 12.5 25.5 13.17157287525381 25.5 14 C 25.5 14.82842712474619 24.82842712474619 15.5 24 15.5 C 23.17157287525381 15.5 22.5 14.82842712474619 22.5 14 Z" stroke-linecap="round" />
</g>
</g>
</g>
</svg>