<?xml version="1.0" encoding="UTF-8" standalone="no" ?>
<!DOCTYPE svg PUBLIC "-//W3C//DTD SVG 1.1//EN" "http://www.w3.org/Graphics/SVG/1.1/DTD/svg11.dtd">
<svg xmlns="http://www.w3.org/2000/svg" xmlns:xlink="http://www.w3.org/1999/xlink" version="1.1" width="1080" height="1080" viewBox="0 0 1080 1080" xml:space="preserve">
<desc>Created with Fabric.js 5.2.4</desc>
<defs>
</defs>
<rect x="0" y="0" width="100%" height="100%" fill="transparent"></rect>
<g transform="matrix(1 0 0 1 540 540)" id="e8c8f618-96ba-4784-90d1-b20bd5ccc995"  >
<rect style="stroke: none; stroke-width: 1; stroke-dasharray: none; stroke-linecap: butt; stroke-dashoffset: 0; stroke-linejoin: miter; stroke-miterlimit: 4; fill: rgb(255,255,255); fill-rule: nonzero; opacity: 1; visibility: hidden;" vector-effect="non-scaling-stroke"  x="-540" y="-540" rx="0" ry="0" width="1080" height="1080" />
</g>
<g transform="matrix(1 0 0 1 540 540)" id="5e645da5-4b7f-4aa7-937b-67bb204a7508"  >
</g>
<g transform="matrix(38.57 0 0 38.57 540 540)"  >
<g style=""   >
		<g transform="matrix(1 0 0 1 -6.57 2.2)"  >
<path style="stroke: none; stroke-width: 1; stroke-dasharray: none; stroke-linecap: butt; stroke-dashoffset: 0; stroke-linejoin: miter; stroke-miterlimit: 4; fill: rgb(255,255,255); fill-rule: nonzero; opacity: 1;" vector-effect="non-scaling-stroke"  transform=" translate(-7.43, -16.2)" d="M 6.256 20.652 C 6.804 17.628 7.863 14.690000000000001 9.585 12.340000000000002 L 8.778 11.749000000000002 C 6.953 14.242000000000003 5.845000000000001 17.314000000000004 5.272 20.474000000000004 L 6.256 20.652000000000005 z" stroke-linecap="round" />
</g>
		<g transform="matrix(1 0 0 1 2.15 -6.54)"  >
<path style="stroke: none; stroke-width: 1; stroke-dasharray: none; stroke-linecap: butt; stroke-dashoffset: 0; stroke-linejoin: miter; stroke-miterlimit: 4; fill: rgb(255,255,255); fill-rule: nonzero; opacity: 1;" vector-effect="non-scaling-stroke"  transform=" translate(-16.15, -7.46)" d="M 12.243 9.657 C 14.608 7.893 17.588 6.811 20.659 6.255 L 20.480999999999998 5.271 C 17.270999999999997 5.852 14.154999999999998 6.983 11.644999999999998 8.855 L 12.242999999999999 9.657 z" stroke-linecap="round" />
</g>
		<g transform="matrix(1 0 0 1 0 0)"  >
<path style="stroke: none; stroke-width: 1; stroke-dasharray: none; stroke-linecap: butt; stroke-dashoffset: 0; stroke-linejoin: miter; stroke-miterlimit: 4; fill: rgb(255,255,255); fill-rule: nonzero; opacity: 1;" vector-effect="non-scaling-stroke"  transform=" translate(-14, -14)" d="M 10.5 12 C 11.328 12 12 11.328 12 10.5 C 12 9.672 11.328 9 10.5 9 C 9.672 9 9 9.672 9 10.5 C 9 11.328 9.672 12 10.5 12 z M 10.5 13 C 9.119 13 8 11.881 8 10.5 C 8 9.119 9.119 8 10.5 8 C 11.881 8 13 9.119 13 10.5 C 13 11.881 11.881 13 10.5 13 z M 22.5 7 C 23.328 7 24 6.328 24 5.5 C 24 4.672 23.328 4 22.5 4 C 21.672 4 21 4.672 21 5.5 C 21 6.328 21.672 7 22.5 7 z M 22.5 8 C 21.119 8 20 6.881 20 5.5 C 20 4.119 21.119 3 22.5 3 C 23.881 3 25 4.119 25 5.5 C 25 6.881 23.881 8 22.5 8 z M 5.5 24 C 6.328 24 7 23.328 7 22.5 C 7 21.672 6.328 21 5.5 21 C 4.672 21 4 21.672 4 22.5 C 4 23.328 4.672 24 5.5 24 z M 5.5 25 C 4.119 25 3 23.881 3 22.5 C 3 21.119 4.119 20 5.5 20 C 6.881 20 8 21.119 8 22.5 C 8 23.881 6.881 25 5.5 25 z" stroke-linecap="round" />
</g>
</g>
</g>
</svg>