<?xml version="1.0" encoding="UTF-8" standalone="no" ?>
<!DOCTYPE svg PUBLIC "-//W3C//DTD SVG 1.1//EN" "http://www.w3.org/Graphics/SVG/1.1/DTD/svg11.dtd">
<svg xmlns="http://www.w3.org/2000/svg" xmlns:xlink="http://www.w3.org/1999/xlink" version="1.1" width="1080" height="1080" viewBox="0 0 1080 1080" xml:space="preserve">
<desc>Created with Fabric.js 5.2.4</desc>
<defs>
</defs>
<rect x="0" y="0" width="100%" height="100%" fill="transparent"></rect>
<g transform="matrix(1 0 0 1 540 540)" id="9412f0e9-6590-45c7-92b6-3c568b86ec3e"  >
<rect style="stroke: none; stroke-width: 1; stroke-dasharray: none; stroke-linecap: butt; stroke-dashoffset: 0; stroke-linejoin: miter; stroke-miterlimit: 4; fill: #0055ff; fill-rule: nonzero; opacity: 1; visibility: hidden;" vector-effect="non-scaling-stroke"  x="-540" y="-540" rx="0" ry="0" width="1080" height="1080" />
</g>
<g transform="matrix(1 0 0 1 540 540)" id="77a50504-0f50-43c8-84a0-dfc11a3296c3"  >
</g>
<g transform="matrix(NaN NaN NaN NaN 0 0)"  >
<g style=""   >
</g>
</g>
<g transform="matrix(NaN NaN NaN NaN 0 0)"  >
<path style="stroke: none; stroke-width: 1; stroke-dasharray: none; stroke-linecap: butt; stroke-dashoffset: 0; stroke-linejoin: miter; stroke-miterlimit: 4; fill: #0055ff; fill-rule: nonzero; opacity: 1;"  transform=" translate(-14, -14)" d="M 2 9.75 C 1.17157287525381 9.75 0.5 10.42157287525381 0.5 11.25 L 0.5 16.75 C 0.5 17.57842712474619 1.17157287525381 18.25 2 18.25 L 26 18.25 C 26.82842712474619 18.25 27.5 17.57842712474619 27.5 16.75 L 27.5 11.25 C 27.5 10.42157287525381 26.82842712474619 9.75 26 9.75 z M 2 10.75 L 5 10.75 L 5 13.25 L 6 13.25 L 6 10.75 L 9.25 10.75 L 9.25 14.65 L 10.25 14.65 L 10.25 10.75 L 13.5 10.75 L 13.5 13.25 L 14.5 13.25 L 14.5 10.75 L 17.75 10.75 L 17.75 14.65 L 18.75 14.65 L 18.75 10.75 L 22 10.75 L 22 13.25 L 23 13.25 L 23 10.75 L 26 10.75 C 26.2761423749154 10.75 26.5 10.973857625084603 26.5 11.25 L 26.5 16.75 C 26.5 17.0261423749154 26.2761423749154 17.25 26 17.25 L 2 17.25 C 1.7238576250846034 17.25 1.5 17.0261423749154 1.5 16.75 L 1.5 11.25 C 1.5 10.973857625084603 1.7238576250846034 10.75 2 10.75 z" stroke-linecap="round" />
</g>
<g transform="matrix(NaN NaN NaN NaN 0 0)"  >
<path style="stroke: none; stroke-width: 1; stroke-dasharray: none; stroke-linecap: butt; stroke-dashoffset: 0; stroke-linejoin: miter; stroke-miterlimit: 4; fill: #0055ff; fill-rule: nonzero; opacity: 1;"  transform=" translate(-14, -14)" d="M 2 9.75 C 1.17157287525381 9.75 0.5 10.42157287525381 0.5 11.25 L 0.5 16.75 C 0.5 17.57842712474619 1.17157287525381 18.25 2 18.25 L 26 18.25 C 26.82842712474619 18.25 27.5 17.57842712474619 27.5 16.75 L 27.5 11.25 C 27.5 10.42157287525381 26.82842712474619 9.75 26 9.75 z M 2 10.75 L 5 10.75 L 5 13.25 L 6 13.25 L 6 10.75 L 9.25 10.75 L 9.25 14.65 L 10.25 14.65 L 10.25 10.75 L 13.5 10.75 L 13.5 13.25 L 14.5 13.25 L 14.5 10.75 L 17.75 10.75 L 17.75 14.65 L 18.75 14.65 L 18.75 10.75 L 22 10.75 L 22 13.25 L 23 13.25 L 23 10.75 L 26 10.75 C 26.2761423749154 10.75 26.5 10.973857625084603 26.5 11.25 L 26.5 16.75 C 26.5 17.0261423749154 26.2761423749154 17.25 26 17.25 L 2 17.25 C 1.7238576250846034 17.25 1.5 17.0261423749154 1.5 16.75 L 1.5 11.25 C 1.5 10.973857625084603 1.7238576250846034 10.75 2 10.75 z" stroke-linecap="round" />
</g>
<g transform="matrix(NaN NaN NaN NaN 0 0)"  >
<path style="stroke: none; stroke-width: 1; stroke-dasharray: none; stroke-linecap: butt; stroke-dashoffset: 0; stroke-linejoin: miter; stroke-miterlimit: 4; fill: #0055ff; fill-rule: nonzero; opacity: 1;"  transform=" translate(-14, -14)" d="M 2 9.75 C 1.17157287525381 9.75 0.5 10.42157287525381 0.5 11.25 L 0.5 16.75 C 0.5 17.57842712474619 1.17157287525381 18.25 2 18.25 L 26 18.25 C 26.82842712474619 18.25 27.5 17.57842712474619 27.5 16.75 L 27.5 11.25 C 27.5 10.42157287525381 26.82842712474619 9.75 26 9.75 z M 2 10.75 L 5 10.75 L 5 13.25 L 6 13.25 L 6 10.75 L 9.25 10.75 L 9.25 14.65 L 10.25 14.65 L 10.25 10.75 L 13.5 10.75 L 13.5 13.25 L 14.5 13.25 L 14.5 10.75 L 17.75 10.75 L 17.75 14.65 L 18.75 14.65 L 18.75 10.75 L 22 10.75 L 22 13.25 L 23 13.25 L 23 10.75 L 26 10.75 C 26.2761423749154 10.75 26.5 10.973857625084603 26.5 11.25 L 26.5 16.75 C 26.5 17.0261423749154 26.2761423749154 17.25 26 17.25 L 2 17.25 C 1.7238576250846034 17.25 1.5 17.0261423749154 1.5 16.75 L 1.5 11.25 C 1.5 10.973857625084603 1.7238576250846034 10.75 2 10.75 z" stroke-linecap="round" />
</g>
<g transform="matrix(NaN NaN NaN NaN 0 0)"  >
<path style="stroke: none; stroke-width: 1; stroke-dasharray: none; stroke-linecap: butt; stroke-dashoffset: 0; stroke-linejoin: miter; stroke-miterlimit: 4; fill: #0055ff; fill-rule: nonzero; opacity: 1;"  transform=" translate(-14, -14)" d="M 2 9.75 C 1.17157287525381 9.75 0.5 10.42157287525381 0.5 11.25 L 0.5 16.75 C 0.5 17.57842712474619 1.17157287525381 18.25 2 18.25 L 26 18.25 C 26.82842712474619 18.25 27.5 17.57842712474619 27.5 16.75 L 27.5 11.25 C 27.5 10.42157287525381 26.82842712474619 9.75 26 9.75 z M 2 10.75 L 5 10.75 L 5 13.25 L 6 13.25 L 6 10.75 L 9.25 10.75 L 9.25 14.65 L 10.25 14.65 L 10.25 10.75 L 13.5 10.75 L 13.5 13.25 L 14.5 13.25 L 14.5 10.75 L 17.75 10.75 L 17.75 14.65 L 18.75 14.65 L 18.75 10.75 L 22 10.75 L 22 13.25 L 23 13.25 L 23 10.75 L 26 10.75 C 26.2761423749154 10.75 26.5 10.973857625084603 26.5 11.25 L 26.5 16.75 C 26.5 17.0261423749154 26.2761423749154 17.25 26 17.25 L 2 17.25 C 1.7238576250846034 17.25 1.5 17.0261423749154 1.5 16.75 L 1.5 11.25 C 1.5 10.973857625084603 1.7238576250846034 10.75 2 10.75 z" stroke-linecap="round" />
</g>
<g transform="matrix(NaN NaN NaN NaN 0 0)"  >
<path style="stroke: none; stroke-width: 1; stroke-dasharray: none; stroke-linecap: butt; stroke-dashoffset: 0; stroke-linejoin: miter; stroke-miterlimit: 4; fill: #0055ff; fill-rule: nonzero; opacity: 1;"  transform=" translate(-14, -14)" d="M 2 9.75 C 1.17157287525381 9.75 0.5 10.42157287525381 0.5 11.25 L 0.5 16.75 C 0.5 17.57842712474619 1.17157287525381 18.25 2 18.25 L 26 18.25 C 26.82842712474619 18.25 27.5 17.57842712474619 27.5 16.75 L 27.5 11.25 C 27.5 10.42157287525381 26.82842712474619 9.75 26 9.75 z M 2 10.75 L 5 10.75 L 5 13.25 L 6 13.25 L 6 10.75 L 9.25 10.75 L 9.25 14.65 L 10.25 14.65 L 10.25 10.75 L 13.5 10.75 L 13.5 13.25 L 14.5 13.25 L 14.5 10.75 L 17.75 10.75 L 17.75 14.65 L 18.75 14.65 L 18.75 10.75 L 22 10.75 L 22 13.25 L 23 13.25 L 23 10.75 L 26 10.75 C 26.2761423749154 10.75 26.5 10.973857625084603 26.5 11.25 L 26.5 16.75 C 26.5 17.0261423749154 26.2761423749154 17.25 26 17.25 L 2 17.25 C 1.7238576250846034 17.25 1.5 17.0261423749154 1.5 16.75 L 1.5 11.25 C 1.5 10.973857625084603 1.7238576250846034 10.75 2 10.75 z" stroke-linecap="round" />
</g>
<g transform="matrix(NaN NaN NaN NaN 0 0)"  >
<path style="stroke: none; stroke-width: 1; stroke-dasharray: none; stroke-linecap: butt; stroke-dashoffset: 0; stroke-linejoin: miter; stroke-miterlimit: 4; fill: #0055ff; fill-rule: nonzero; opacity: 1;"  transform=" translate(-14, -14)" d="M 2 9.75 C 1.17157287525381 9.75 0.5 10.42157287525381 0.5 11.25 L 0.5 16.75 C 0.5 17.57842712474619 1.17157287525381 18.25 2 18.25 L 26 18.25 C 26.82842712474619 18.25 27.5 17.57842712474619 27.5 16.75 L 27.5 11.25 C 27.5 10.42157287525381 26.82842712474619 9.75 26 9.75 z M 2 10.75 L 5 10.75 L 5 13.25 L 6 13.25 L 6 10.75 L 9.25 10.75 L 9.25 14.65 L 10.25 14.65 L 10.25 10.75 L 13.5 10.75 L 13.5 13.25 L 14.5 13.25 L 14.5 10.75 L 17.75 10.75 L 17.75 14.65 L 18.75 14.65 L 18.75 10.75 L 22 10.75 L 22 13.25 L 23 13.25 L 23 10.75 L 26 10.75 C 26.2761423749154 10.75 26.5 10.973857625084603 26.5 11.25 L 26.5 16.75 C 26.5 17.0261423749154 26.2761423749154 17.25 26 17.25 L 2 17.25 C 1.7238576250846034 17.25 1.5 17.0261423749154 1.5 16.75 L 1.5 11.25 C 1.5 10.973857625084603 1.7238576250846034 10.75 2 10.75 z" stroke-linecap="round" />
</g>
<g transform="matrix(NaN NaN NaN NaN 0 0)"  >
<path style="stroke: none; stroke-width: 1; stroke-dasharray: none; stroke-linecap: butt; stroke-dashoffset: 0; stroke-linejoin: miter; stroke-miterlimit: 4; fill: #0055ff; fill-rule: nonzero; opacity: 1;"  transform=" translate(-14, -14)" d="M 2 9.75 C 1.17157287525381 9.75 0.5 10.42157287525381 0.5 11.25 L 0.5 16.75 C 0.5 17.57842712474619 1.17157287525381 18.25 2 18.25 L 26 18.25 C 26.82842712474619 18.25 27.5 17.57842712474619 27.5 16.75 L 27.5 11.25 C 27.5 10.42157287525381 26.82842712474619 9.75 26 9.75 z M 2 10.75 L 5 10.75 L 5 13.25 L 6 13.25 L 6 10.75 L 9.25 10.75 L 9.25 14.65 L 10.25 14.65 L 10.25 10.75 L 13.5 10.75 L 13.5 13.25 L 14.5 13.25 L 14.5 10.75 L 17.75 10.75 L 17.75 14.65 L 18.75 14.65 L 18.75 10.75 L 22 10.75 L 22 13.25 L 23 13.25 L 23 10.75 L 26 10.75 C 26.2761423749154 10.75 26.5 10.973857625084603 26.5 11.25 L 26.5 16.75 C 26.5 17.0261423749154 26.2761423749154 17.25 26 17.25 L 2 17.25 C 1.7238576250846034 17.25 1.5 17.0261423749154 1.5 16.75 L 1.5 11.25 C 1.5 10.973857625084603 1.7238576250846034 10.75 2 10.75 z" stroke-linecap="round" />
</g>
<g transform="matrix(NaN NaN NaN NaN 0 0)"  >
<path style="stroke: none; stroke-width: 1; stroke-dasharray: none; stroke-linecap: butt; stroke-dashoffset: 0; stroke-linejoin: miter; stroke-miterlimit: 4; fill: #0055ff; fill-rule: evenodd; opacity: 1;"  transform=" translate(-14.4, -13.97)" d="M 5 10.76 L 4.59 10.04 L 4.56 10 L 4.59 9.96 C 5.168581323953241 8.913481066006684 5.870229011779498 7.9399029345731185 6.68 7.06 C 8.15 5.460000000000001 10.28 3.9400000000000004 13 3.9400000000000004 C 15.73 3.9400000000000004 17.85 5.470000000000001 19.33 7.0600000000000005 C 20.13619347615351 7.940509418200669 20.834461076760125 8.914055592123347 21.41 9.960000000000004 L 21.439999999999998 10 L 21.409999999999997 10.04 C 20.831418676046756 11.086518933993316 20.129770988220496 12.060097065426884 19.319999999999997 12.940000000000001 C 17.849999999999998 14.54 15.719999999999997 16.06 12.999999999999996 16.06 C 10.269999999999996 16.06 8.149999999999997 14.53 6.669999999999996 12.939999999999998 C 6.051315855816767 12.265500159694229 5.4956648301933875 11.535789776646656 5.009999999999998 10.76 z M 22.45 9.78 L 22 10 L 22.45 10.22 L 22.439999999999998 10.24 C 22.392954331323153 10.334886175026403 22.34292949279665 10.428265873609208 22.29 10.52 C 21.673007139511178 11.638601219021622 20.924349536842485 12.679336003000529 20.060000000000002 13.620000000000001 C 18.5 15.309999999999999 16.119999999999997 17.06 13 17.06 C 9.879999999999999 17.06 7.5 15.309999999999999 5.94 13.62 C 5.003845741356495 12.600989966601354 4.203836904613402 11.464842963159484 3.559999999999998 10.239999999999997 L 3.5600000000000005 10.219999999999999 L 3.5500000000000007 10.219999999999999 L 4 10 L 3.55 9.78 L 3.5599999999999996 9.76 C 3.6072434854653888 9.66521595108548 3.6572651211961906 9.571842231054653 3.71 9.480000000000002 C 4.326911652675953 8.361347436159868 5.075575960677918 7.320603330865659 5.940000000000001 6.38 C 7.5 4.69 9.88 2.94 13 2.94 C 16.12 2.94 18.5 4.6899999999999995 20.06 6.38 C 20.996066399294815 7.399080828307938 21.796066829119496 8.535215892512742 22.439999999999994 9.759999999999994 L 22.439999999999998 9.78 L 22.45 9.78 z M 22 10 L 22.45 9.78 L 22.55 10 L 22.45 10.22 L 22 10 z M 3.55 9.78 L 4 10 L 3.55 10.22 L 3.4499999999999997 10 L 3.55 9.78 z M 10.35 10 C 10.360508013931252 9.30864756031358 10.645962295034032 8.649955031992002 11.143250339476637 8.169556015473864 C 11.640538383919242 7.689156998955725 12.30869711409037 7.426623372990055 12.999999999999998 7.44 C 13.691302885909629 7.426623372990054 14.359461616080756 7.689156998955724 14.856749660523361 8.169556015473862 C 15.354037704965966 8.649955031992 15.639491986068746 9.308647560313577 15.65 9.999999999999998 C 15.639491986068748 10.69135243968642 15.354037704965968 11.350044968007998 14.856749660523363 11.830443984526138 C 14.359461616080758 12.310843001044276 13.691302885909629 12.573376627009946 13 12.56 C 12.308697114090371 12.573376627009946 11.640538383919242 12.310843001044276 11.143250339476637 11.830443984526138 C 10.645962295034032 11.350044968008 10.360508013931252 10.69135243968642 10.35 10 z M 13 6.44 C 12.043482305279575 6.426655717132646 11.120984940821964 6.794560079983999 10.436168730129264 7.462490411508934 C 9.751352519436562 8.13042074303387 9.360535930733736 9.043447249566393 9.35 9.999999999999998 C 9.360535930733736 10.956552750433605 9.75135251943656 11.869579256966128 10.436168730129262 12.537509588491066 C 11.120984940821964 13.205439920016001 12.043482305279575 13.573344282867355 13.000000000000002 13.56 C 15 13.56 16.65 11.98 16.65 10 C 16.639464069266264 9.043447249566395 16.248647480563438 8.130420743033872 15.563831269870736 7.462490411508935 C 14.879015059178034 6.794560079983999 13.956517694720421 6.426655717132646 12.999999999999996 6.440000000000001 z M 20.85 18.44 L 21.650000000000002 17.64 L 22.35 18.35 L 21.560000000000002 19.150000000000002 C 21.36942856190286 19.344421755099322 21.36942856190286 19.65557824490068 21.560000000000002 19.85 L 22.150000000000002 20.44 C 22.35 20.64 22.650000000000002 20.64 22.85 20.44 L 24.650000000000002 18.64 L 25.35 19.35 L 23.560000000000002 21.150000000000002 C 22.974364906452088 21.73490675611503 22.025635093547915 21.73490675611503 21.44 21.150000000000002 L 20.85 20.560000000000002 C 20.265093243884973 19.974364906452088 20.265093243884973 19.025635093547915 20.85 18.44 z M 16.5 21.5 L 16.15 21.15 C 16.124408545913266 21.170960315558123 16.100960315558122 21.194408545913266 16.08 21.22 L 15.079999999999998 22.72 L 14.079999999999998 24.22 C 13.975819230357555 24.37410359668506 13.965798556845781 24.573302514576284 14.05398819853438 24.737083277712255 C 14.14217784022298 24.900864040848226 14.31399749103773 25.002148937948242 14.499999999999998 25 L 18.5 25 C 19.15532408115453 24.980109313038746 19.776608689002998 24.70358379393856 20.23 24.23 C 20.70358379393856 23.776608689002998 20.980109313038746 23.15532408115453 21 22.5 C 20.980109313038746 21.84467591884547 20.70358379393856 21.223391310997 20.23 20.77 C 19.776608689002998 20.29641620606144 19.15532408115453 20.019890686961254 18.5 20 C 17.905731750553773 20.030959560187167 17.332931795155737 20.23230742329678 16.85 20.58 C 16.60505689348203 20.743759961696757 16.374251135652916 20.92773556576344 16.16 21.130000000000003 L 16.16 21.14 L 16.15 21.14 L 16.5 21.5 z M 16.89 21.82 L 15.92 23.28 L 15.43 24 L 18.5 24 C 18.84 24 19.22 23.83 19.52 23.52 C 19.82 23.22 20 22.84 20 22.5 C 20 22.16 19.83 21.78 19.52 21.48 C 19.22 21.18 18.84 21 18.5 21 C 18.15 21 17.75 21.18 17.4 21.42 C 17.22011144420487 21.540219830702522 17.049620412667743 21.673938286810074 16.889999999999997 21.82 z" stroke-linecap="round" />
</g>
<g transform="matrix(NaN NaN NaN NaN 0 0)"  >
<path style="stroke: none; stroke-width: 1; stroke-dasharray: none; stroke-linecap: butt; stroke-dashoffset: 0; stroke-linejoin: miter; stroke-miterlimit: 4; fill: #0055ff; fill-rule: evenodd; opacity: 1;"  transform=" translate(-14.4, -13.97)" d="M 5 10.76 L 4.59 10.04 L 4.56 10 L 4.59 9.96 C 5.168581323953241 8.913481066006684 5.870229011779498 7.9399029345731185 6.68 7.06 C 8.15 5.460000000000001 10.28 3.9400000000000004 13 3.9400000000000004 C 15.73 3.9400000000000004 17.85 5.470000000000001 19.33 7.0600000000000005 C 20.13619347615351 7.940509418200669 20.834461076760125 8.914055592123347 21.41 9.960000000000004 L 21.439999999999998 10 L 21.409999999999997 10.04 C 20.831418676046756 11.086518933993316 20.129770988220496 12.060097065426884 19.319999999999997 12.940000000000001 C 17.849999999999998 14.54 15.719999999999997 16.06 12.999999999999996 16.06 C 10.269999999999996 16.06 8.149999999999997 14.53 6.669999999999996 12.939999999999998 C 6.051315855816767 12.265500159694229 5.4956648301933875 11.535789776646656 5.009999999999998 10.76 z M 22.45 9.78 L 22 10 L 22.45 10.22 L 22.439999999999998 10.24 C 22.392954331323153 10.334886175026403 22.34292949279665 10.428265873609208 22.29 10.52 C 21.673007139511178 11.638601219021622 20.924349536842485 12.679336003000529 20.060000000000002 13.620000000000001 C 18.5 15.309999999999999 16.119999999999997 17.06 13 17.06 C 9.879999999999999 17.06 7.5 15.309999999999999 5.94 13.62 C 5.003845741356495 12.600989966601354 4.203836904613402 11.464842963159484 3.559999999999998 10.239999999999997 L 3.5600000000000005 10.219999999999999 L 3.5500000000000007 10.219999999999999 L 4 10 L 3.55 9.78 L 3.5599999999999996 9.76 C 3.6072434854653888 9.66521595108548 3.6572651211961906 9.571842231054653 3.71 9.480000000000002 C 4.326911652675953 8.361347436159868 5.075575960677918 7.320603330865659 5.940000000000001 6.38 C 7.5 4.69 9.88 2.94 13 2.94 C 16.12 2.94 18.5 4.6899999999999995 20.06 6.38 C 20.996066399294815 7.399080828307938 21.796066829119496 8.535215892512742 22.439999999999994 9.759999999999994 L 22.439999999999998 9.78 L 22.45 9.78 z M 22 10 L 22.45 9.78 L 22.55 10 L 22.45 10.22 L 22 10 z M 3.55 9.78 L 4 10 L 3.55 10.22 L 3.4499999999999997 10 L 3.55 9.78 z M 10.35 10 C 10.360508013931252 9.30864756031358 10.645962295034032 8.649955031992002 11.143250339476637 8.169556015473864 C 11.640538383919242 7.689156998955725 12.30869711409037 7.426623372990055 12.999999999999998 7.44 C 13.691302885909629 7.426623372990054 14.359461616080756 7.689156998955724 14.856749660523361 8.169556015473862 C 15.354037704965966 8.649955031992 15.639491986068746 9.308647560313577 15.65 9.999999999999998 C 15.639491986068748 10.69135243968642 15.354037704965968 11.350044968007998 14.856749660523363 11.830443984526138 C 14.359461616080758 12.310843001044276 13.691302885909629 12.573376627009946 13 12.56 C 12.308697114090371 12.573376627009946 11.640538383919242 12.310843001044276 11.143250339476637 11.830443984526138 C 10.645962295034032 11.350044968008 10.360508013931252 10.69135243968642 10.35 10 z M 13 6.44 C 12.043482305279575 6.426655717132646 11.120984940821964 6.794560079983999 10.436168730129264 7.462490411508934 C 9.751352519436562 8.13042074303387 9.360535930733736 9.043447249566393 9.35 9.999999999999998 C 9.360535930733736 10.956552750433605 9.75135251943656 11.869579256966128 10.436168730129262 12.537509588491066 C 11.120984940821964 13.205439920016001 12.043482305279575 13.573344282867355 13.000000000000002 13.56 C 15 13.56 16.65 11.98 16.65 10 C 16.639464069266264 9.043447249566395 16.248647480563438 8.130420743033872 15.563831269870736 7.462490411508935 C 14.879015059178034 6.794560079983999 13.956517694720421 6.426655717132646 12.999999999999996 6.440000000000001 z M 20.85 18.44 L 21.650000000000002 17.64 L 22.35 18.35 L 21.560000000000002 19.150000000000002 C 21.36942856190286 19.344421755099322 21.36942856190286 19.65557824490068 21.560000000000002 19.85 L 22.150000000000002 20.44 C 22.35 20.64 22.650000000000002 20.64 22.85 20.44 L 24.650000000000002 18.64 L 25.35 19.35 L 23.560000000000002 21.150000000000002 C 22.974364906452088 21.73490675611503 22.025635093547915 21.73490675611503 21.44 21.150000000000002 L 20.85 20.560000000000002 C 20.265093243884973 19.974364906452088 20.265093243884973 19.025635093547915 20.85 18.44 z M 16.5 21.5 L 16.15 21.15 C 16.124408545913266 21.170960315558123 16.100960315558122 21.194408545913266 16.08 21.22 L 15.079999999999998 22.72 L 14.079999999999998 24.22 C 13.975819230357555 24.37410359668506 13.965798556845781 24.573302514576284 14.05398819853438 24.737083277712255 C 14.14217784022298 24.900864040848226 14.31399749103773 25.002148937948242 14.499999999999998 25 L 18.5 25 C 19.15532408115453 24.980109313038746 19.776608689002998 24.70358379393856 20.23 24.23 C 20.70358379393856 23.776608689002998 20.980109313038746 23.15532408115453 21 22.5 C 20.980109313038746 21.84467591884547 20.70358379393856 21.223391310997 20.23 20.77 C 19.776608689002998 20.29641620606144 19.15532408115453 20.019890686961254 18.5 20 C 17.905731750553773 20.030959560187167 17.332931795155737 20.23230742329678 16.85 20.58 C 16.60505689348203 20.743759961696757 16.374251135652916 20.92773556576344 16.16 21.130000000000003 L 16.16 21.14 L 16.15 21.14 L 16.5 21.5 z M 16.89 21.82 L 15.92 23.28 L 15.43 24 L 18.5 24 C 18.84 24 19.22 23.83 19.52 23.52 C 19.82 23.22 20 22.84 20 22.5 C 20 22.16 19.83 21.78 19.52 21.48 C 19.22 21.18 18.84 21 18.5 21 C 18.15 21 17.75 21.18 17.4 21.42 C 17.22011144420487 21.540219830702522 17.049620412667743 21.673938286810074 16.889999999999997 21.82 z" stroke-linecap="round" />
</g>
<g transform="matrix(NaN NaN NaN NaN 0 0)"  >
<path style="stroke: none; stroke-width: 1; stroke-dasharray: none; stroke-linecap: butt; stroke-dashoffset: 0; stroke-linejoin: miter; stroke-miterlimit: 4; fill: #0055ff; fill-rule: evenodd; opacity: 1;"  transform=" translate(-14.4, -13.4)" d="M 19.76 6.07 L 19.060000000000002 6.7700000000000005 C 19.79774920225328 7.514992589193023 20.44551341984059 8.34399653605347 20.990000000000002 9.24 C 21.180000000000003 9.540000000000001 21.32 9.790000000000001 21.410000000000004 9.96 L 21.440000000000005 10 L 21.410000000000004 10.04 C 20.831418676046763 11.086518933993316 20.129770988220503 12.060097065426884 19.320000000000004 12.940000000000001 C 17.850000000000005 14.54 15.720000000000004 16.06 13.000000000000004 16.06 C 12.020000000000003 16.06 11.120000000000005 15.86 10.300000000000004 15.54 L 9.530000000000005 16.3 C 10.560000000000004 16.77 11.710000000000004 17.060000000000002 13.000000000000005 17.060000000000002 C 16.120000000000005 17.060000000000002 18.500000000000007 15.310000000000002 20.060000000000006 13.620000000000003 C 20.996154258643507 12.60098996660136 21.796163095386596 11.464842963159489 22.44 10.240000000000006 L 22.440000000000005 10.220000000000002 L 22.450000000000006 10.220000000000002 L 22 10 L 22.45 10.22 L 22.55 10 L 22.45 9.78 L 22 10 L 22.45 9.78 L 22.439999999999998 9.76 C 22.392919413057673 9.66513183295925 22.342895155811167 9.571753219432438 22.29 9.479999999999999 C 21.601904992535456 8.235982808887393 20.75108152436369 7.089220743090668 19.760000000000005 6.070000000000006 z M 6.24 13.93 L 6.94 13.23 L 6.67 12.940000000000001 C 5.86373240345984 12.059550741725472 5.165458174569935 11.085995326446273 4.59 10.039999999999997 L 4.56 10 L 4.59 9.96 C 5.168581323953241 8.913481066006684 5.870229011779498 7.9399029345731185 6.68 7.06 C 8.15 5.460000000000001 10.28 3.9400000000000004 13 3.9400000000000004 C 13.98 3.9400000000000004 14.879999999999999 4.140000000000001 15.7 4.460000000000001 L 16.47 3.700000000000001 C 15.38153180979234 3.1998200126208625 14.19789093238023 2.940578782985931 12.999999999999995 2.9399999999999986 C 9.879999999999999 2.94 7.5 4.6899999999999995 5.94 6.38 C 5.003845741356494 7.399010033398647 4.203836904613401 8.53515703684052 3.559999999999996 9.760000000000009 L 3.5600000000000005 9.78 L 3.5500000000000007 9.78 L 4 10 L 3.55 9.78 L 3.4499999999999997 10 L 3.55 10.22 L 4 10 L 3.55 10.22 L 3.5599999999999996 10.24 C 3.6072938182069296 10.334758021786472 3.657314674010938 10.428130285953953 3.709999999999999 10.519999999999998 C 4.398095007464544 11.764017191112607 5.248918475636309 12.910779256909333 6.239999999999997 13.929999999999996 z M 12.33 13.5 C 13.511695116807978 13.7380347180163 14.734102787390103 13.368839644543673 15.586471215966888 12.516471215966888 C 16.438839644543673 11.664102787390103 16.8080347180163 10.441695116807976 16.57 9.259999999999998 L 15.64 10.19 C 15.528684033416582 11.444395825780363 14.534395825780363 12.43868403341658 13.280000000000001 12.549999999999999 L 12.330000000000002 13.499999999999998 z M 10.36 9.81 L 9.43 10.74 C 9.1919652819837 9.558304883192024 9.561160355456327 8.335897212609897 10.413528784033112 7.483528784033112 C 11.265897212609897 6.631160355456327 12.488304883192022 6.261965281983701 13.669999999999998 6.5 L 12.72 7.45 C 11.465604174219637 7.561315966583419 10.471315966583418 8.555604174219638 10.360000000000001 9.810000000000002 z M 21.65 17.65 L 20.849999999999998 18.439999999999998 C 20.26509324388497 19.025635093547912 20.26509324388497 19.974364906452085 20.849999999999998 20.56 L 21.439999999999998 21.15 C 22.025635093547912 21.734906756115027 22.974364906452085 21.73490675611503 23.56 21.15 L 25.36 19.349999999999998 L 24.65 18.65 L 22.849999999999998 20.439999999999998 C 22.655578244900678 20.630571438097142 22.34442175509932 20.630571438097142 22.15 20.439999999999998 L 21.56 19.849999999999998 C 21.369428561902854 19.655578244900678 21.369428561902858 19.34442175509932 21.56 19.15 L 22.36 18.349999999999998 L 21.65 17.65 z M 16.15 21.15 L 16.5 21.5 L 16.15 21.15 L 16.16 21.13 L 16.18 21.11 L 16.2 21.09 C 16.401618919021892 20.9046349422484 16.619120370156402 20.73732613368339 16.849999999999994 20.59 C 17.249999999999996 20.32 17.849999999999998 20 18.499999999999996 20 C 19.159999999999997 20 19.779999999999998 20.33 20.229999999999997 20.77 C 20.669999999999998 21.22 20.999999999999996 21.84 20.999999999999996 22.5 C 20.980109313038742 23.15532408115453 20.703583793938556 23.776608689002998 20.229999999999997 24.23 C 19.776608689002995 24.70358379393856 19.155324081154525 24.980109313038746 18.499999999999996 25 L 14.499999999999996 25 C 14.313997491037727 25.002148937948242 14.142177840222978 24.900864040848226 14.053988198534379 24.737083277712255 C 13.96579855684578 24.573302514576284 13.975819230357553 24.37410359668506 14.079999999999997 24.22 L 15.079999999999997 22.72 L 16.08 21.22 C 16.100960315558122 21.194408545913266 16.124408545913266 21.170960315558123 16.15 21.15 z M 16.889999999999997 21.82 C 17.047109536174208 21.671002518563967 17.217858517027036 21.53708174926763 17.4 21.42 C 17.75 21.180000000000003 18.15 21 18.5 21 C 18.84 21 19.22 21.17 19.52 21.48 C 19.82 21.78 20 22.16 20 22.5 C 20 22.84 19.83 23.22 19.52 23.52 C 19.22 23.82 18.84 24 18.5 24 L 15.43 24 L 15.92 23.28 L 16.89 21.82 z M 21.2 2.5 L 5.5 18.2 L 4.8 17.5 L 20.5 1.8 L 21.2 2.5 z" stroke-linecap="round" />
</g>
<g transform="matrix(38.57 0 0 38.57 540 540)"  >
<path style="stroke: none; stroke-width: 1; stroke-dasharray: none; stroke-linecap: butt; stroke-dashoffset: 0; stroke-linejoin: miter; stroke-miterlimit: 4; fill: #0055ff; fill-rule: evenodd; opacity: 1;"  transform=" translate(-14, -14.5)" d="M 11.5 6 C 11.223857625084603 6 11 6.223857625084603 11 6.5 L 11 8 L 17 8 L 17 6.5 C 17 6.223857625084603 16.7761423749154 6 16.5 6 L 11.5 6 z M 18 8 L 18 6.5 C 18 5.67 17.33 5 16.5 5 L 11.5 5 C 10.67 5 10 5.67 10 6.5 L 10 8 L 5.5 8 C 5.223857625084603 8 5 8.223857625084603 5 8.5 C 5 8.776142374915397 5.223857625084603 9 5.5 9 L 7 9 L 7 21.5 C 7 22.880711874576985 8.119288125423017 24 9.5 24 L 18.5 24 C 19.880711874576985 24 21 22.880711874576985 21 21.5 L 21 9 L 22.5 9 C 22.7761423749154 9 23 8.776142374915397 23 8.5 C 23 8.223857625084603 22.7761423749154 8 22.5 8 L 18 8 z M 20 9 L 8 9 L 8 21.5 C 8 22.33 8.67 23 9.5 23 L 18.5 23 C 19.33 23 20 22.33 20 21.5 L 20 9 z M 11.5 12 C 11.78 12 12 12.22 12 12.5 L 12 19.5 C 12 19.7761423749154 11.776142374915397 20 11.5 20 C 11.223857625084603 20 11 19.7761423749154 11 19.5 L 11 12.5 C 11 12.22 11.22 12 11.5 12 z M 17 12.5 C 17 12.223857625084603 16.7761423749154 12 16.5 12 C 16.223857625084605 12 16 12.223857625084603 16 12.5 L 16 19.5 C 16 19.7761423749154 16.2238576250846 20 16.5 20 C 16.776142374915395 20 17 19.7761423749154 17 19.5 L 17 12.5 z" stroke-linecap="round" />
</g>
</svg>