<?xml version="1.0" encoding="UTF-8" standalone="no" ?>
<!DOCTYPE svg PUBLIC "-//W3C//DTD SVG 1.1//EN" "http://www.w3.org/Graphics/SVG/1.1/DTD/svg11.dtd">
<svg xmlns="http://www.w3.org/2000/svg" xmlns:xlink="http://www.w3.org/1999/xlink" version="1.1" width="1080" height="1080" viewBox="0 0 1080 1080" xml:space="preserve">
<desc>Created with Fabric.js 5.2.4</desc>
<defs>
</defs>
<rect x="0" y="0" width="100%" height="100%" fill="transparent"></rect>
<g transform="matrix(1 0 0 1 540 540)" id="a6474d76-c44b-4cb3-bcc2-9e97042a2b6d"  >
<rect style="stroke: none; stroke-width: 1; stroke-dasharray: none; stroke-linecap: butt; stroke-dashoffset: 0; stroke-linejoin: miter; stroke-miterlimit: 4; fill: rgb(255,255,255); fill-rule: nonzero; opacity: 1; visibility: hidden;" vector-effect="non-scaling-stroke"  x="-540" y="-540" rx="0" ry="0" width="1080" height="1080" />
</g>
<g transform="matrix(1 0 0 1 540 540)" id="1fc2687a-fc2d-4a62-942d-07f30305f0f7"  >
</g>
<g transform="matrix(NaN NaN NaN NaN 0 0)"  >
<g style=""   >
</g>
</g>
<g transform="matrix(38.57 0 0 38.57 540 540)"  >
<g style=""   >
		<g transform="matrix(1 0 0 1 2.87 2.91)"  >
<path style="stroke: none; stroke-width: 1; stroke-dasharray: none; stroke-linecap: butt; stroke-dashoffset: 0; stroke-linejoin: miter; stroke-miterlimit: 4; fill: rgb(0,0,0); fill-rule: nonzero; opacity: 1;" vector-effect="non-scaling-stroke"  transform=" translate(-16.87, -16.91)" d="M 23.868 7.825 C 26.659 11.741 26.785999999999998 17.155 23.802999999999997 21.26 C 20.069999999999997 26.398000000000003 12.877999999999997 27.537000000000003 7.739999999999998 23.804000000000002 L 8.460999999999999 23.090000000000003 C 13.142999999999999 26.384000000000004 19.618 25.319000000000003 22.994999999999997 20.672000000000004 C 25.635999999999996 17.037000000000006 25.651999999999997 12.170000000000003 23.147999999999996 8.539000000000005 L 23.868999999999996 7.825000000000005 z" stroke-linecap="round" />
</g>
		<g transform="matrix(1 0 0 1 -1.97 -1.95)"  >
<path style="stroke: none; stroke-width: 1; stroke-dasharray: none; stroke-linecap: butt; stroke-dashoffset: 0; stroke-linejoin: miter; stroke-miterlimit: 4; fill: rgb(0,0,0); fill-rule: nonzero; opacity: 1;" vector-effect="non-scaling-stroke"  transform=" translate(-12.03, -12.05)" d="M 8.477 5.899 C 12.061 3.39 16.775 3.3850000000000002 20.342 5.772 L 21.06 5.051 C 17.215 2.382 11.960999999999999 2.238 7.902999999999999 5.079 C 2.6999999999999984 8.722 1.435999999999999 15.893 5.078999999999999 21.095 L 5.796999999999999 20.374 C 2.5959999999999988 15.636999999999999 3.774999999999999 9.188999999999998 8.476999999999999 5.897999999999998 z" stroke-linecap="round" />
</g>
		<g transform="matrix(1 0 0 1 0.5 0.5)"  >
<path style="stroke: none; stroke-width: 1; stroke-dasharray: none; stroke-linecap: butt; stroke-dashoffset: 0; stroke-linejoin: miter; stroke-miterlimit: 4; fill: rgb(0,0,0); fill-rule: nonzero; opacity: 1;" vector-effect="non-scaling-stroke"  transform=" translate(-14.5, -14.5)" d="M 14.5 22 C 18.642 22 22 18.642 22 14.5 C 22 10.358 18.642 7 14.5 7 C 10.358 7 7 10.358 7 14.5 C 7 18.642 10.358 22 14.5 22 z M 14.5 23 C 9.806000000000001 23 6 19.194 6 14.5 C 6 9.806000000000001 9.806000000000001 6 14.5 6 C 19.194 6 23 9.806000000000001 23 14.5 C 23 19.194 19.194 23 14.5 23 z" stroke-linecap="round" />
</g>
		<g transform="matrix(1 0 0 1 0.5 0.5)"  >
<path style="stroke: none; stroke-width: 1; stroke-dasharray: none; stroke-linecap: butt; stroke-dashoffset: 0; stroke-linejoin: miter; stroke-miterlimit: 4; fill: rgb(0,0,0); fill-rule: nonzero; opacity: 1;" vector-effect="non-scaling-stroke"  transform=" translate(-14.5, -14.5)" d="M 14.5 19 C 16.985 19 19 16.985 19 14.5 C 19 12.015 16.985 10 14.5 10 C 12.015 10 10 12.015 10 14.5 C 10 16.985 12.015 19 14.5 19 z M 14.5 20 C 11.462 20 9 17.538 9 14.5 C 9 11.462 11.462 9 14.5 9 C 17.538 9 20 11.462 20 14.5 C 20 17.538 17.538 20 14.5 20 z" stroke-linecap="round" />
</g>
		<g transform="matrix(1 0 0 1 0.5 0.5)"  >
<path style="stroke: none; stroke-width: 1; stroke-dasharray: none; stroke-linecap: butt; stroke-dashoffset: 0; stroke-linejoin: miter; stroke-miterlimit: 4; fill: rgb(0,0,0); fill-rule: nonzero; opacity: 1;" vector-effect="non-scaling-stroke"  transform=" translate(-14.5, -14.5)" d="M 22.5 8 C 23.328 8 24 7.328 24 6.5 C 24 5.672 23.328 5 22.5 5 C 21.672 5 21 5.672 21 6.5 C 21 7.328 21.672 8 22.5 8 z M 22.5 9 C 21.119 9 20 7.881 20 6.5 C 20 5.119 21.119 4 22.5 4 C 23.881 4 25 5.119 25 6.5 C 25 7.881 23.881 9 22.5 9 z M 6.5 24 C 7.328 24 8 23.328 8 22.5 C 8 21.672 7.328 21 6.5 21 C 5.672 21 5 21.672 5 22.5 C 5 23.328 5.672 24 6.5 24 z M 6.5 25 C 5.119 25 4 23.881 4 22.5 C 4 21.119 5.119 20 6.5 20 C 7.881 20 9 21.119 9 22.5 C 9 23.881 7.881 25 6.5 25 z" stroke-linecap="round" />
</g>
</g>
</g>
</svg>