<?xml version="1.0" encoding="UTF-8" standalone="no" ?>
<!DOCTYPE svg PUBLIC "-//W3C//DTD SVG 1.1//EN" "http://www.w3.org/Graphics/SVG/1.1/DTD/svg11.dtd">
<svg xmlns="http://www.w3.org/2000/svg" xmlns:xlink="http://www.w3.org/1999/xlink" version="1.1" width="1080" height="1080" viewBox="0 0 1080 1080" xml:space="preserve">
<desc>Created with Fabric.js 5.2.4</desc>
<defs>
</defs>
<rect x="0" y="0" width="100%" height="100%" fill="transparent"></rect>
<g transform="matrix(1 0 0 1 540 540)" id="e8c8f618-96ba-4784-90d1-b20bd5ccc995"  >
<rect style="stroke: none; stroke-width: 1; stroke-dasharray: none; stroke-linecap: butt; stroke-dashoffset: 0; stroke-linejoin: miter; stroke-miterlimit: 4; fill: rgb(255,255,255); fill-rule: nonzero; opacity: 1; visibility: hidden;" vector-effect="non-scaling-stroke"  x="-540" y="-540" rx="0" ry="0" width="1080" height="1080" />
</g>
<g transform="matrix(1 0 0 1 540 540)" id="5e645da5-4b7f-4aa7-937b-67bb204a7508"  >
</g>
<g transform="matrix(38.57 0 0 38.57 540 540)"  >
<path style="stroke: none; stroke-width: 1; stroke-dasharray: none; stroke-linecap: butt; stroke-dashoffset: 0; stroke-linejoin: miter; stroke-miterlimit: 4; fill: rgb(255,255,255); fill-rule: evenodd; opacity: 1;"  transform=" translate(-14, -14.5)" d="M 19 4 L 19 25 L 20 25 L 20 4 L 19 4 Z M 24 4 L 24 25 L 25 25 L 25 4 L 24 4 Z M 6 12.95 L 6 25 L 5 25 L 5 12.95 C 3.8348380107899516 12.713403767049355 2.997493718553309 11.688940805316374 2.997493718553309 10.5 C 2.997493718553309 9.311059194683624 3.8348380107899502 8.286596232950643 4.999999999999998 8.049999999999999 L 5 4 L 6 4 L 6 8.05 C 6.78862798252809 8.209408704414663 7.452337891410128 8.73862867867283 7.7833320566230295 9.47196904471339 C 8.114326221835931 10.205309410753948 8.072146971653481 11.053133410860141 7.67 11.75 L 8.7 12.8 L 8 13.5 L 7 12.5 C 6.7 12.72 6.37 12.88 6 12.95 Z M 5.5 9 C 6.32842712474619 9 7 9.67157287525381 7 10.5 C 7 11.32842712474619 6.328427124746191 12 5.500000000000001 12 C 4.67157287525381 12 4 11.32842712474619 4 10.5 C 4 9.67157287525381 4.67157287525381 9 5.5 9 Z M 13 19.5 C 13 18.67157287525381 13.67157287525381 18 14.5 18 C 15.32842712474619 18 16 18.67157287525381 16 19.5 C 16 20.32842712474619 15.32842712474619 21 14.5 21 C 13.67157287525381 21 13 20.32842712474619 13 19.5 Z M 14 25 L 14 21.95 C 13.160248981610598 21.77870508485816 12.466772523237204 21.189187484631532 12.162512670346823 20.387969872020193 C 11.858252817456442 19.586752259408858 11.985622140954282 18.685521071129862 12.5 18 L 11.5 17 L 12.2 16.3 L 13.25 17.330000000000002 C 13.48 17.200000000000003 13.73 17.1 14 17.05 L 14 4 L 15 4 L 15 17.05 C 16.16516198921005 17.286596232950643 17.002506281446696 18.311059194683622 17.002506281446696 19.5 C 17.002506281446696 20.688940805316378 16.165161989210052 21.71340376704936 15 21.950000000000003 L 15 25 L 14 25 Z M 8.97 14.47 L 10.530000000000001 16.03 L 11.23 15.32 L 9.68 13.77 L 8.98 14.469999999999999 Z" stroke-linecap="round" />
</g>
</svg>