<?xml version="1.0" encoding="UTF-8" standalone="no" ?>
<!DOCTYPE svg PUBLIC "-//W3C//DTD SVG 1.1//EN" "http://www.w3.org/Graphics/SVG/1.1/DTD/svg11.dtd">
<svg xmlns="http://www.w3.org/2000/svg" xmlns:xlink="http://www.w3.org/1999/xlink" version="1.1" width="1080" height="1080" viewBox="0 0 1080 1080" xml:space="preserve">
<desc>Created with Fabric.js 5.2.4</desc>
<defs>
</defs>
<rect x="0" y="0" width="100%" height="100%" fill="transparent"></rect>
<g transform="matrix(1 0 0 1 540 540)" id="a6474d76-c44b-4cb3-bcc2-9e97042a2b6d"  >
<rect style="stroke: none; stroke-width: 1; stroke-dasharray: none; stroke-linecap: butt; stroke-dashoffset: 0; stroke-linejoin: miter; stroke-miterlimit: 4; fill: #0055ff; fill-rule: nonzero; opacity: 1; visibility: hidden;" vector-effect="non-scaling-stroke"  x="-540" y="-540" rx="0" ry="0" width="1080" height="1080" />
</g>
<g transform="matrix(1 0 0 1 540 540)" id="1fc2687a-fc2d-4a62-942d-07f30305f0f7"  >
</g>
<g transform="matrix(NaN NaN NaN NaN 0 0)"  >
<g style=""   >
</g>
</g>
<g transform="matrix(38.57 0 0 38.57 540 540)"  >
<g style=""   >
		<g transform="matrix(1 0 0 1 1 10.5)" id="Line"  >
<path style="stroke: none; stroke-width: 1; stroke-dasharray: none; stroke-linecap: butt; stroke-dashoffset: 0; stroke-linejoin: miter; stroke-miterlimit: 4; fill: #0055ff; fill-rule: nonzero; opacity: 1;" vector-effect="non-scaling-stroke"  transform=" translate(-15, -24.5)" d="M 4 25 L 26 25 L 26 24 L 4 24 z" stroke-linecap="round" />
</g>
		<g transform="matrix(1 0 0 1 1 6.5)"  >
<path style="stroke: none; stroke-width: 1; stroke-dasharray: none; stroke-linecap: butt; stroke-dashoffset: 0; stroke-linejoin: miter; stroke-miterlimit: 4; fill: #0055ff; fill-rule: nonzero; opacity: 1;" vector-effect="non-scaling-stroke"  transform=" translate(-15, -20.5)" d="M 4 21 L 26 21 L 26 20 L 4 20 z" stroke-linecap="round" />
</g>
		<g transform="matrix(1 0 0 1 2.25 2.5)"  >
<path style="stroke: none; stroke-width: 1; stroke-dasharray: none; stroke-linecap: butt; stroke-dashoffset: 0; stroke-linejoin: miter; stroke-miterlimit: 4; fill: #0055ff; fill-rule: nonzero; opacity: 1;" vector-effect="non-scaling-stroke"  transform=" translate(-16.25, -16.5)" d="M 6.5 17 L 26 17 L 26 16 L 6.5 16 z" stroke-linecap="round" />
</g>
		<g transform="matrix(1 0 0 1 -3.61 -4.4)"  >
<path style="stroke: none; stroke-width: 1; stroke-dasharray: none; stroke-linecap: butt; stroke-dashoffset: 0; stroke-linejoin: miter; stroke-miterlimit: 4; fill: #0055ff; fill-rule: nonzero; opacity: 1;" vector-effect="non-scaling-stroke"  transform=" translate(-10.39, -9.6)" d="M 5 14.5 L 5 11.5 L 4 11.5 L 4 14.5 z M 6.617 9.275 L 16.775 5.647 L 16.439 4.705 L 6.281000000000001 8.333 z" stroke-linecap="round" />
</g>
		<g transform="matrix(1 0 0 1 -2.5 -3.5)"  >
<path style="stroke: none; stroke-width: 1; stroke-dasharray: none; stroke-linecap: butt; stroke-dashoffset: 0; stroke-linejoin: miter; stroke-miterlimit: 4; fill: #0055ff; fill-rule: nonzero; opacity: 1;" vector-effect="non-scaling-stroke"  transform=" translate(-11.5, -10.5)" d="M 18.5 6 C 19.328 6 20 5.328 20 4.5 C 20 3.6719999999999997 19.328 3 18.5 3 C 17.672 3 17 3.672 17 4.5 C 17 5.327999999999999 17.672 6 18.5 6 z M 18.5 7 C 17.119 7 16 5.881 16 4.5 C 16 3.1189999999999998 17.119 2 18.5 2 C 19.881 2 21 3.1189999999999998 21 4.5 C 21 5.881 19.881 7 18.5 7 z M 4.5 11 C 5.328 11 6 10.328 6 9.5 C 6 8.672 5.328 8 4.5 8 C 3.6719999999999997 8 3 8.672 3 9.5 C 3 10.328 3.672 11 4.5 11 z M 4.5 12 C 3.1189999999999998 12 2 10.881 2 9.5 C 2 8.119 3.1189999999999998 7 4.5 7 C 5.881 7 7 8.119 7 9.5 C 7 10.881 5.881 12 4.5 12 z M 4.5 18 C 5.328 18 6 17.328 6 16.5 C 6 15.672 5.328 15 4.5 15 C 3.6719999999999997 15 3 15.672 3 16.5 C 3 17.328 3.672 18 4.5 18 z M 4.5 19 C 3.1189999999999998 19 2 17.881 2 16.5 C 2 15.119 3.1189999999999998 14 4.5 14 C 5.881 14 7 15.119 7 16.5 C 7 17.881 5.881 19 4.5 19 z" stroke-linecap="round" />
</g>
</g>
</g>
</svg>