<?xml version="1.0" encoding="UTF-8" standalone="no" ?>
<!DOCTYPE svg PUBLIC "-//W3C//DTD SVG 1.1//EN" "http://www.w3.org/Graphics/SVG/1.1/DTD/svg11.dtd">
<svg xmlns="http://www.w3.org/2000/svg" xmlns:xlink="http://www.w3.org/1999/xlink" version="1.1" width="1080" height="1080" viewBox="0 0 1080 1080" xml:space="preserve">
<desc>Created with Fabric.js 5.2.4</desc>
<defs>
</defs>
<rect x="0" y="0" width="100%" height="100%" fill="transparent"></rect>
<g transform="matrix(1 0 0 1 540 540)" id="a6474d76-c44b-4cb3-bcc2-9e97042a2b6d"  >
<rect style="stroke: none; stroke-width: 1; stroke-dasharray: none; stroke-linecap: butt; stroke-dashoffset: 0; stroke-linejoin: miter; stroke-miterlimit: 4; fill: rgb(255,255,255); fill-rule: nonzero; opacity: 1; visibility: hidden;" vector-effect="non-scaling-stroke"  x="-540" y="-540" rx="0" ry="0" width="1080" height="1080" />
</g>
<g transform="matrix(1 0 0 1 540 540)" id="1fc2687a-fc2d-4a62-942d-07f30305f0f7"  >
</g>
<g transform="matrix(NaN NaN NaN NaN 0 0)"  >
<g style=""   >
</g>
</g>
<g transform="matrix(38.57 0 0 38.57 540 540)"  >
<g style=""   >
		<g transform="matrix(1 0 0 1 0 -3.5)"  >
<path style="stroke: none; stroke-width: 1; stroke-dasharray: none; stroke-linecap: butt; stroke-dashoffset: 0; stroke-linejoin: miter; stroke-miterlimit: 4; fill: rgb(255,255,255); fill-rule: nonzero; opacity: 1;" vector-effect="non-scaling-stroke"  transform=" translate(-14, -10.5)" d="M 3.5 11 L 24.5 11 L 24.5 10 L 3.5 10 z" stroke-linecap="round" />
</g>
		<g transform="matrix(1 0 0 1 0 3.5)"  >
<path style="stroke: none; stroke-width: 1; stroke-dasharray: none; stroke-linecap: butt; stroke-dashoffset: 0; stroke-linejoin: miter; stroke-miterlimit: 4; fill: rgb(255,255,255); fill-rule: nonzero; opacity: 1;" vector-effect="non-scaling-stroke"  transform=" translate(-14, -17.5)" d="M 3.5 18 L 24.5 18 L 24.5 17 L 3.5 17 z" stroke-linecap="round" />
</g>
		<g transform="matrix(1 0 0 1 -3.5 0)"  >
<path style="stroke: none; stroke-width: 1; stroke-dasharray: none; stroke-linecap: butt; stroke-dashoffset: 0; stroke-linejoin: miter; stroke-miterlimit: 4; fill: rgb(255,255,255); fill-rule: nonzero; opacity: 1;" vector-effect="non-scaling-stroke"  transform=" translate(-10.5, -14)" d="M 10 3.5 L 10 24.5 L 11 24.5 L 11 3.5 z" stroke-linecap="round" />
</g>
		<g transform="matrix(1 0 0 1 3.5 0)"  >
<path style="stroke: none; stroke-width: 1; stroke-dasharray: none; stroke-linecap: butt; stroke-dashoffset: 0; stroke-linejoin: miter; stroke-miterlimit: 4; fill: rgb(255,255,255); fill-rule: nonzero; opacity: 1;" vector-effect="non-scaling-stroke"  transform=" translate(-17.5, -14)" d="M 17 3.5 L 17 24.5 L 18 24.5 L 18 3.5 z" stroke-linecap="round" />
</g>
		<g transform="matrix(1 0 0 1 -1.25 -1.25)"  >
<path style="stroke: none; stroke-width: 1; stroke-dasharray: none; stroke-linecap: butt; stroke-dashoffset: 0; stroke-linejoin: miter; stroke-miterlimit: 4; fill: rgb(255,255,255); fill-rule: nonzero; opacity: 1;" vector-effect="non-scaling-stroke"  transform=" translate(-12.75, -12.75)" d="M 22.5 4 L 22.5 3 L 3 3 L 3 22.5 L 4 22.5 L 4 4 z" stroke-linecap="round" />
</g>
		<g transform="matrix(1 0 0 1 1.25 1.25)"  >
<path style="stroke: none; stroke-width: 1; stroke-dasharray: none; stroke-linecap: butt; stroke-dashoffset: 0; stroke-linejoin: miter; stroke-miterlimit: 4; fill: rgb(255,255,255); fill-rule: nonzero; opacity: 1;" vector-effect="non-scaling-stroke"  transform=" translate(-15.25, -15.25)" d="M 24 24 L 5.4929999999999986 24 L 5.4929999999999986 25 L 25 25 L 25 5.5 L 24 5.5 z" stroke-linecap="round" />
</g>
		<g transform="matrix(1 0 0 1 0 0)"  >
<path style="stroke: none; stroke-width: 1; stroke-dasharray: none; stroke-linecap: butt; stroke-dashoffset: 0; stroke-linejoin: miter; stroke-miterlimit: 4; fill: rgb(255,255,255); fill-rule: nonzero; opacity: 1;" vector-effect="non-scaling-stroke"  transform=" translate(-14, -14)" d="M 3.5 26 C 4.328 26 5 25.328 5 24.5 C 5 23.672 4.328 23 3.5 23 C 2.6719999999999997 23 2 23.672 2 24.5 C 2 25.328 2.672 26 3.5 26 z M 3.5 27 C 2.1189999999999998 27 1 25.881 1 24.5 C 1 23.119 2.1189999999999998 22 3.5 22 C 4.881 22 6 23.119 6 24.5 C 6 25.881 4.881 27 3.5 27 z M 24.5 5 C 25.328 5 26 4.328 26 3.5 C 26 2.6719999999999997 25.328 2 24.5 2 C 23.672 2 23 2.672 23 3.5 C 23 4.327999999999999 23.672 5 24.5 5 z M 24.5 6 C 23.119 6 22 4.881 22 3.5 C 22 2.1189999999999998 23.119 1 24.5 1 C 25.881 1 27 2.1189999999999998 27 3.5 C 27 4.881 25.881 6 24.5 6 z" stroke-linecap="round" />
</g>
</g>
</g>
</svg>