<?xml version="1.0" encoding="UTF-8" standalone="no" ?>
<!DOCTYPE svg PUBLIC "-//W3C//DTD SVG 1.1//EN" "http://www.w3.org/Graphics/SVG/1.1/DTD/svg11.dtd">
<svg xmlns="http://www.w3.org/2000/svg" xmlns:xlink="http://www.w3.org/1999/xlink" version="1.1" width="1080" height="1080" viewBox="0 0 1080 1080" xml:space="preserve">
<desc>Created with Fabric.js 5.2.4</desc>
<defs>
</defs>
<g transform="matrix(1 0 0 1 540 540)" id="0002b6b5-50c6-4f7a-8ad6-c9a1b3788963"  >
<rect style="stroke: none; stroke-width: 1; stroke-dasharray: none; stroke-linecap: butt; stroke-dashoffset: 0; stroke-linejoin: miter; stroke-miterlimit: 4; fill: rgb(255,255,255); fill-rule: nonzero; opacity: 1; visibility: hidden;" vector-effect="non-scaling-stroke"  x="-540" y="-540" rx="0" ry="0" width="1080" height="1080" />
</g>
<g transform="matrix(1 0 0 1 540 540)" id="bf9d2cb5-5461-4ece-8cef-18fa8c635b75"  >
</g>
<g transform="matrix(NaN NaN NaN NaN 0 0)"  >
<g style=""   >
		<g transform="matrix(1 0 0 1 0 0)"  >
<path style="stroke: rgb(0,0,0); stroke-width: 1; stroke-dasharray: none; stroke-linecap: butt; stroke-dashoffset: 0; stroke-linejoin: miter; stroke-miterlimit: 4; fill: none; fill-rule: nonzero; opacity: 1;" vector-effect="non-scaling-stroke"  transform=" translate(-13, -11)" d="M 4.5 21.5 L 23.5 21.5 L 23.5 0.5 L 2.5 0.5 L 2.5 19.5 M 2.5 14.5 L 7.5 14.5 M 11.5 14.5 L 23.5 14.5 M 3 7.5 L 23 7.5 M 16.5 1 L 16.5 21" stroke-linecap="round" />
</g>
		<g transform="matrix(1 0 0 1 0 0)"  >
<path style="stroke: rgb(0,0,0); stroke-width: 1; stroke-dasharray: none; stroke-linecap: butt; stroke-dashoffset: 0; stroke-linejoin: miter; stroke-miterlimit: 4; fill: none; fill-rule: nonzero; opacity: 1;" vector-effect="non-scaling-stroke"  transform=" translate(-13, -11)" d="M 9.5 0.5 L 9.5 12.5 M 9.5 16.5 L 9.5 21.5 M 3.9000000000000004 20.1 L 8.100000000000001 15.900000000000002 M 11 13 L 23 1 M 4.4 21 L 23.5 15 M 3.1 19.6 L 9 0.5 M 23.5 21.5 C 23.5 9.90202025355334 14.09797974644666 0.5 2.5 0.5" stroke-linecap="round" />
</g>
		<g transform="matrix(1 0 0 1 -10.5 10.5)"  >
<circle style="stroke: rgb(0,0,0); stroke-width: 1; stroke-dasharray: none; stroke-linecap: butt; stroke-dashoffset: 0; stroke-linejoin: miter; stroke-miterlimit: 4; fill: none; fill-rule: nonzero; opacity: 1;" vector-effect="non-scaling-stroke"  cx="0" cy="0" r="2" />
</g>
		<g transform="matrix(1 0 0 1 -3.5 3.5)"  >
<circle style="stroke: rgb(0,0,0); stroke-width: 1; stroke-dasharray: none; stroke-linecap: butt; stroke-dashoffset: 0; stroke-linejoin: miter; stroke-miterlimit: 4; fill: none; fill-rule: nonzero; opacity: 1;" vector-effect="non-scaling-stroke"  cx="0" cy="0" r="2" />
</g>
</g>
</g>
<g transform="matrix(NaN NaN NaN NaN 0 0)"  >
<g style=""   >
		<g transform="matrix(1 0 0 1 0 0)"  >
<path style="stroke: rgb(0,0,0); stroke-width: 1; stroke-dasharray: none; stroke-linecap: butt; stroke-dashoffset: 0; stroke-linejoin: miter; stroke-miterlimit: 4; fill: none; fill-rule: nonzero; opacity: 1;" vector-effect="non-scaling-stroke"  transform=" translate(-13, -11)" d="M 4.5 21.5 L 23.5 21.5 L 23.5 0.5 L 2.5 0.5 L 2.5 19.5 M 2.5 14.5 L 7.5 14.5 M 11.5 14.5 L 23.5 14.5 M 3 7.5 L 23 7.5 M 16.5 1 L 16.5 21" stroke-linecap="round" />
</g>
		<g transform="matrix(1 0 0 1 0 0)"  >
<path style="stroke: rgb(0,0,0); stroke-width: 1; stroke-dasharray: none; stroke-linecap: butt; stroke-dashoffset: 0; stroke-linejoin: miter; stroke-miterlimit: 4; fill: none; fill-rule: nonzero; opacity: 1;" vector-effect="non-scaling-stroke"  transform=" translate(-13, -11)" d="M 9.5 0.5 L 9.5 12.5 M 9.5 16.5 L 9.5 21.5 M 3.9000000000000004 20.1 L 8.100000000000001 15.900000000000002 M 11 13 L 23 1 M 4.4 21 L 23.5 15 M 3.1 19.6 L 9 0.5 M 23.5 21.5 C 23.5 9.90202025355334 14.09797974644666 0.5 2.5 0.5" stroke-linecap="round" />
</g>
		<g transform="matrix(1 0 0 1 -10.5 10.5)"  >
<circle style="stroke: rgb(0,0,0); stroke-width: 1; stroke-dasharray: none; stroke-linecap: butt; stroke-dashoffset: 0; stroke-linejoin: miter; stroke-miterlimit: 4; fill: none; fill-rule: nonzero; opacity: 1;" vector-effect="non-scaling-stroke"  cx="0" cy="0" r="2" />
</g>
		<g transform="matrix(1 0 0 1 -3.5 3.5)"  >
<circle style="stroke: rgb(0,0,0); stroke-width: 1; stroke-dasharray: none; stroke-linecap: butt; stroke-dashoffset: 0; stroke-linejoin: miter; stroke-miterlimit: 4; fill: none; fill-rule: nonzero; opacity: 1;" vector-effect="non-scaling-stroke"  cx="0" cy="0" r="2" />
</g>
</g>
</g>
<g transform="matrix(1 0 0 1 540 540)"  >
<g style="" vector-effect="non-scaling-stroke"   >
		<g transform="matrix(1 0 0 1 1 -1)"  >
<path style="stroke: rgb(0,0,0); stroke-width: 1; stroke-dasharray: none; stroke-linecap: butt; stroke-dashoffset: 0; stroke-linejoin: miter; stroke-miterlimit: 4; fill: none; fill-rule: nonzero; opacity: 1;" vector-effect="non-scaling-stroke"  transform=" translate(-13, -11)" d="M 4.5 21.5 L 23.5 21.5 L 23.5 0.5 L 2.5 0.5 L 2.5 19.5 M 2.5 14.5 L 7.5 14.5 M 11.5 14.5 L 23.5 14.5 M 3 7.5 L 23 7.5 M 16.5 1 L 16.5 21" stroke-linecap="round" />
</g>
		<g transform="matrix(1 0 0 1 1 -1)"  >
<path style="stroke: rgb(0,0,0); stroke-width: 1; stroke-dasharray: none; stroke-linecap: butt; stroke-dashoffset: 0; stroke-linejoin: miter; stroke-miterlimit: 4; fill: none; fill-rule: nonzero; opacity: 1;" vector-effect="non-scaling-stroke"  transform=" translate(-13, -11)" d="M 9.5 0.5 L 9.5 12.5 M 9.5 16.5 L 9.5 21.5 M 3.9000000000000004 20.1 L 8.100000000000001 15.900000000000002 M 11 13 L 23 1 M 4.4 21 L 23.5 15 M 3.1 19.6 L 9 0.5 M 23.5 21.5 C 23.5 9.90202025355334 14.09797974644666 0.5 2.5 0.5" stroke-linecap="round" />
</g>
		<g transform="matrix(1 0 0 1 -9.5 9.5)"  >
<circle style="stroke: rgb(0,0,0); stroke-width: 1; stroke-dasharray: none; stroke-linecap: butt; stroke-dashoffset: 0; stroke-linejoin: miter; stroke-miterlimit: 4; fill: none; fill-rule: nonzero; opacity: 1;" vector-effect="non-scaling-stroke"  cx="0" cy="0" r="2" />
</g>
		<g transform="matrix(1 0 0 1 -2.5 2.5)"  >
<circle style="stroke: rgb(0,0,0); stroke-width: 1; stroke-dasharray: none; stroke-linecap: butt; stroke-dashoffset: 0; stroke-linejoin: miter; stroke-miterlimit: 4; fill: none; fill-rule: nonzero; opacity: 1;" vector-effect="non-scaling-stroke"  cx="0" cy="0" r="2" />
</g>
</g>
</g>
</svg>