<svg xmlns="http://www.w3.org/2000/svg" xmlns:xlink="http://www.w3.org/1999/xlink" version="1.1" width="1080" height="1080" viewBox="0 0 1080 1080" xml:space="preserve">
<g transform="matrix(38.57 0 0 38.57 540 540)">
<path style="stroke: none; stroke-width: 1; stroke-dasharray: none; stroke-linecap: butt; stroke-dashoffset: 0; stroke-linejoin: miter; stroke-miterlimit: 4; fill: rgb(255,255,255); fill-rule: evenodd; opacity: 1;" transform=" translate(-13.5, -13.17)" d="M 11 4 L 10 4 L 10 6 L 7.5 6 C 6.119288125423017 6 5 7.119288125423017 5 8.5 L 5 13 L 6 13 L 6 11 L 22 11 L 22 19.5 C 22 20.33 21.33 21 20.5 21 L 14 21 L 14 22 L 20.5 22 C 21.880711874576985 22 23 20.880711874576985 23 19.5 L 23 8.5 C 23 7.119288125423017 21.880711874576985 6 20.5 6 L 18 6 L 18 4 L 17 4 L 17 6 L 11 6 L 11 4 Z M 17 8 L 17 7 L 11 7 L 11 8 L 10 8 L 10 7 L 7.5 7 C 6.67 7 6 7.67 6 8.5 L 6 10 L 22 10 L 22 8.5 C 22 7.67 21.33 7 20.5 7 L 18 7 L 18 8 L 17 8 Z M 11.85 18.15 L 8.35 14.649999999999999 L 7.6499999999999995 15.349999999999998 L 10.29 18 L 4 18 L 4 19 L 10.3 19 L 7.65 21.65 L 8.35 22.349999999999998 L 11.85 18.849999999999998 L 12.209999999999999 18.499999999999996 L 11.85 18.149999999999995 Z" stroke-linecap="round"/>
</g>
</svg>