<?xml version="1.0" encoding="UTF-8" standalone="no" ?>
<!DOCTYPE svg PUBLIC "-//W3C//DTD SVG 1.1//EN" "http://www.w3.org/Graphics/SVG/1.1/DTD/svg11.dtd">
<svg xmlns="http://www.w3.org/2000/svg" xmlns:xlink="http://www.w3.org/1999/xlink" version="1.1" width="1080" height="1080" viewBox="0 0 1080 1080" xml:space="preserve">
<desc>Created with Fabric.js 5.2.4</desc>
<defs>
</defs>
<rect x="0" y="0" width="100%" height="100%" fill="transparent"></rect>
<g transform="matrix(1 0 0 1 540 540)" id="4b1e2d16-51fa-4de0-8dbc-36db90562ece"  >
<rect style="stroke: none; stroke-width: 1; stroke-dasharray: none; stroke-linecap: butt; stroke-dashoffset: 0; stroke-linejoin: miter; stroke-miterlimit: 4; fill: rgb(255,255,255); fill-rule: nonzero; opacity: 1; visibility: hidden;" vector-effect="non-scaling-stroke"  x="-540" y="-540" rx="0" ry="0" width="1080" height="1080" />
</g>
<g transform="matrix(1 0 0 1 540 540)" id="e78b54e5-2964-4bc8-b092-af82c423827b"  >
</g>
<g transform="matrix(NaN NaN NaN NaN 0 0)"  >
<path style="stroke: none; stroke-width: 1; stroke-dasharray: none; stroke-linecap: butt; stroke-dashoffset: 0; stroke-linejoin: miter; stroke-miterlimit: 4; fill: rgb(0,0,0); fill-rule: nonzero; opacity: 1;"  transform=" translate(-14.5, -13.5)" d="M 4 13 L 9 13 L 9 14 L 4 14 L 4 13 z M 12 13 L 17 13 L 17 14 L 12 14 L 12 13 z M 20 13 L 25 13 L 25 14 L 20 14 L 20 13 z" stroke-linecap="round" />
</g>
<g transform="matrix(38.57 0 0 38.57 540 540)"  >
<g style=""   >
		<g transform="matrix(1 0 0 1 0.5 0.5)"  >
<path style="stroke: none; stroke-width: 1; stroke-dasharray: none; stroke-linecap: butt; stroke-dashoffset: 0; stroke-linejoin: miter; stroke-miterlimit: 4; fill: rgb(255,255,255); fill-rule: nonzero; opacity: 1;" vector-effect="non-scaling-stroke"  transform=" translate(-14.5, -14.5)" d="M 4 15 L 12.5 15 L 12.5 14 L 4 14 z M 16.5 15 L 25 15 L 25 14 L 16.5 14 z" stroke-linecap="round" />
</g>
		<g transform="matrix(1 0 0 1 0.5 0.5)"  >
<path style="stroke: none; stroke-width: 1; stroke-dasharray: none; stroke-linecap: butt; stroke-dashoffset: 0; stroke-linejoin: miter; stroke-miterlimit: 4; fill: rgb(255,255,255); fill-rule: nonzero; opacity: 1;" vector-effect="non-scaling-stroke"  transform=" translate(-14.5, -14.5)" d="M 14.5 16 C 15.328 16 16 15.328 16 14.5 C 16 13.672 15.328 13 14.5 13 C 13.672 13 13 13.672 13 14.5 C 13 15.328 13.672 16 14.5 16 z M 14.5 17 C 13.119 17 12 15.881 12 14.5 C 12 13.119 13.119 12 14.5 12 C 15.881 12 17 13.119 17 14.5 C 17 15.881 15.881 17 14.5 17 z" stroke-linecap="round" />
</g>
</g>
</g>
</svg>