<?xml version="1.0" encoding="UTF-8" standalone="no" ?>
<!DOCTYPE svg PUBLIC "-//W3C//DTD SVG 1.1//EN" "http://www.w3.org/Graphics/SVG/1.1/DTD/svg11.dtd">
<svg xmlns="http://www.w3.org/2000/svg" xmlns:xlink="http://www.w3.org/1999/xlink" version="1.1" width="1080" height="1080" viewBox="0 0 1080 1080" xml:space="preserve">
<desc>Created with Fabric.js 5.2.4</desc>
<defs>
</defs>
<rect x="0" y="0" width="100%" height="100%" fill="transparent"></rect>
<g transform="matrix(1 0 0 1 540 540)" id="9412f0e9-6590-45c7-92b6-3c568b86ec3e"  >
<rect style="stroke: none; stroke-width: 1; stroke-dasharray: none; stroke-linecap: butt; stroke-dashoffset: 0; stroke-linejoin: miter; stroke-miterlimit: 4; fill: rgb(255,255,255); fill-rule: nonzero; opacity: 1; visibility: hidden;" vector-effect="non-scaling-stroke"  x="-540" y="-540" rx="0" ry="0" width="1080" height="1080" />
</g>
<g transform="matrix(1 0 0 1 540 540)" id="77a50504-0f50-43c8-84a0-dfc11a3296c3"  >
</g>
<g transform="matrix(NaN NaN NaN NaN 0 0)"  >
<g style=""   >
</g>
</g>
<g transform="matrix(38.57 0 0 38.57 540 540)"  >
<path style="stroke: none; stroke-width: 1; stroke-dasharray: none; stroke-linecap: butt; stroke-dashoffset: 0; stroke-linejoin: miter; stroke-miterlimit: 4; fill: rgb(255,255,255); fill-rule: nonzero; opacity: 1;"  transform=" translate(-13.5, -14)" d="M 9.5 21 L 9 21 L 9.5 21 z M 17.5 21 L 17 21 L 17.5 21 z M 11.5 11 L 11 11 L 11 12 L 11.5 12 L 11.5 11 z M 15.5 12 L 16 12 L 16 11 L 15.5 11 L 15.5 12 z M 9.5 19.5 L 10 19.5 L 9.5 19.5 z M 17.5 19.5 L 18 19.5 L 17.5 19.5 z M 17.79 17.91 C 19.81478708515355 16.402293323817375 21.00555724311791 14.024462572243683 21 11.5 L 20 11.5 C 20.003941467576656 13.699136236021037 18.969787557361208 15.77115070129142 17.21 17.09 L 17.79 17.91 z M 21 11.5 C 21 7.35786437626905 17.64213562373095 4 13.5 4 L 13.5 5 C 17.089850873900158 5 20 7.910149126099841 20 11.499999999999998 L 21 11.5 z M 13.5 4 C 9.357864376269049 4 6 7.35786437626905 6 11.5 L 7 11.5 C 7 7.910149126099843 9.910149126099842 5 13.5 5 L 13.5 4 z M 6 11.5 C 5.9960360298274855 14.02408751281795 7.186467615654177 16.401242174858165 9.210000000000004 17.910000000000004 L 9.780000000000001 17.09 C 8.025226029365056 15.768020991659697 6.995276102617661 13.69700657061008 6.999999999999999 11.5 L 6 11.5 z M 9 21 C 9 21.552284749830793 9.447715250169207 22 10 22 L 10 21 L 9 21 z M 17 22 C 17.552284749830793 22 18 21.552284749830793 18 21 L 17 21 L 17 22 z M 11 21.5 L 11 23 L 12 23 L 12 21.5 L 11 21.5 z M 11 23 C 11 23.552284749830793 11.447715250169207 24 12 24 L 12 23 L 11 23 z M 12 24 L 15 24 L 15 23 L 12 23 L 12 24 z M 15 24 C 15.552284749830793 24 16 23.552284749830793 16 23 L 15 23 L 15 24 z M 16 23 L 16 21.5 L 15 21.5 L 15 23 L 16 23 z M 13 11.5 L 13 17.5 L 14 17.5 L 14 11.5 L 13 11.5 z M 9 17.5 L 9 19.5 L 10 19.5 L 10 17.5 L 9 17.5 z M 9 19.5 L 9 21 L 10 21 L 10 19.5 L 9 19.5 z M 18 21 L 18 19.5 L 17 19.5 L 17 21 L 18 21 z M 18 19.5 L 18 17.5 L 17 17.5 L 17 19.5 L 18 19.5 z M 9.5 18 L 13.5 18 L 13.5 17 L 9.5 17 L 9.5 18 z M 13.5 18 L 17.5 18 L 17.5 17 L 13.5 17 L 13.5 18 z M 11.5 12 L 13.5 12 L 13.5 11 L 11.5 11 L 11.5 12 z M 13.5 12 L 15.5 12 L 15.5 11 L 13.5 11 L 13.5 12 z M 10 22 L 11.5 22 L 11.5 21 L 10 21 L 10 22 z M 11.5 22 L 15.5 22 L 15.5 21 L 11.5 21 L 11.5 22 z M 15.5 22 L 17 22 L 17 21 L 15.5 21 L 15.5 22 z" stroke-linecap="round" />
</g>
</svg>