<?xml version="1.0" encoding="UTF-8" standalone="no" ?>
<!DOCTYPE svg PUBLIC "-//W3C//DTD SVG 1.1//EN" "http://www.w3.org/Graphics/SVG/1.1/DTD/svg11.dtd">
<svg xmlns="http://www.w3.org/2000/svg" xmlns:xlink="http://www.w3.org/1999/xlink" version="1.1" width="1080" height="1080" viewBox="0 0 1080 1080" xml:space="preserve">
<desc>Created with Fabric.js 5.2.4</desc>
<defs>
</defs>
<rect x="0" y="0" width="100%" height="100%" fill="transparent"></rect>
<g transform="matrix(1 0 0 1 540 540)" id="a6474d76-c44b-4cb3-bcc2-9e97042a2b6d"  >
<rect style="stroke: none; stroke-width: 1; stroke-dasharray: none; stroke-linecap: butt; stroke-dashoffset: 0; stroke-linejoin: miter; stroke-miterlimit: 4; fill: #0055ff; fill-rule: nonzero; opacity: 1; visibility: hidden;" vector-effect="non-scaling-stroke"  x="-540" y="-540" rx="0" ry="0" width="1080" height="1080" />
</g>
<g transform="matrix(1 0 0 1 540 540)" id="1fc2687a-fc2d-4a62-942d-07f30305f0f7"  >
</g>
<g transform="matrix(38.57 0 0 38.57 540 540)"  >
<g style=""   >
		<g transform="matrix(1 0 0 1 -1.5 8.5)" id="Line"  >
<path style="stroke: none; stroke-width: 1; stroke-dasharray: none; stroke-linecap: butt; stroke-dashoffset: 0; stroke-linejoin: miter; stroke-miterlimit: 4; fill: #0055ff; fill-rule: nonzero; opacity: 1;" vector-effect="non-scaling-stroke"  transform=" translate(-12.5, -22.5)" d="M 6.5 23 L 18.5 23 L 18.5 22 L 6.5 22 z" stroke-linecap="round" />
</g>
		<g transform="matrix(1 0 0 1 8.67 1.73)"  >
<path style="stroke: none; stroke-width: 1; stroke-dasharray: none; stroke-linecap: butt; stroke-dashoffset: 0; stroke-linejoin: miter; stroke-miterlimit: 4; fill: #0055ff; fill-rule: nonzero; opacity: 1;" vector-effect="non-scaling-stroke"  transform=" translate(-22.67, -15.73)" d="M 21.596 20.715 L 24.687 11.055 L 23.735 10.75 L 20.644 20.41 z" stroke-linecap="round" />
</g>
		<g transform="matrix(1 0 0 1 -5.09 5.46)"  >
<path style="stroke: none; stroke-width: 1; stroke-dasharray: none; stroke-linecap: butt; stroke-dashoffset: 0; stroke-linejoin: miter; stroke-miterlimit: 4; fill: #0055ff; fill-rule: nonzero; opacity: 1;" vector-effect="non-scaling-stroke"  transform=" translate(-8.91, -19.46)" d="M 8.413 22.664 L 10.363 16.57 L 9.411 16.265 L 7.460999999999999 22.359 z" stroke-linecap="round" />
</g>
		<g transform="matrix(1 0 0 1 -1.33 -6.28)"  >
<path style="stroke: none; stroke-width: 1; stroke-dasharray: none; stroke-linecap: butt; stroke-dashoffset: 0; stroke-linejoin: miter; stroke-miterlimit: 4; fill: #0055ff; fill-rule: nonzero; opacity: 1;" vector-effect="non-scaling-stroke"  transform=" translate(-12.67, -7.72)" d="M 11.602 12.695 L 14.687000000000001 3.0540000000000003 L 13.735000000000001 2.749 L 10.650000000000002 12.39 z" stroke-linecap="round" />
</g>
		<g transform="matrix(1 0 0 1 1.5 4.5)"  >
<path style="stroke: none; stroke-width: 1; stroke-dasharray: none; stroke-linecap: butt; stroke-dashoffset: 0; stroke-linejoin: miter; stroke-miterlimit: 4; fill: #0055ff; fill-rule: nonzero; opacity: 1;" vector-effect="non-scaling-stroke"  transform=" translate(-15.5, -18.5)" d="M 11.783 16.167 L 18.6 21.621000000000002 L 19.225 20.840000000000003 L 12.408000000000001 15.386000000000003 z" stroke-linecap="round" />
</g>
		<g transform="matrix(1 0 0 1 3.36 -1.3)"  >
<path style="stroke: none; stroke-width: 1; stroke-dasharray: none; stroke-linecap: butt; stroke-dashoffset: 0; stroke-linejoin: miter; stroke-miterlimit: 4; fill: #0055ff; fill-rule: nonzero; opacity: 1;" vector-effect="non-scaling-stroke"  transform=" translate(-17.36, -12.7)" d="M 15.976 18.652 L 19.687 7.054 L 18.735 6.7490000000000006 L 15.024 18.347 z" stroke-linecap="round" />
</g>
		<g transform="matrix(1 0 0 1 -1.5 4.5)"  >
<path style="stroke: none; stroke-width: 1; stroke-dasharray: none; stroke-linecap: butt; stroke-dashoffset: 0; stroke-linejoin: miter; stroke-miterlimit: 4; fill: #0055ff; fill-rule: nonzero; opacity: 1;" vector-effect="non-scaling-stroke"  transform=" translate(-12.5, -18.5)" d="M 4.5 24 C 5.328 24 6 23.328 6 22.5 C 6 21.672 5.328 21 4.5 21 C 3.6719999999999997 21 3 21.672 3 22.5 C 3 23.328 3.672 24 4.5 24 z M 4.5 25 C 3.1189999999999998 25 2 23.881 2 22.5 C 2 21.119 3.1189999999999998 20 4.5 20 C 5.881 20 7 21.119 7 22.5 C 7 23.881 5.881 25 4.5 25 z M 10.5 16 C 11.328 16 12 15.328 12 14.5 C 12 13.672 11.328 13 10.5 13 C 9.672 13 9 13.672 9 14.5 C 9 15.328 9.672 16 10.5 16 z M 10.5 17 C 9.119 17 8 15.881 8 14.5 C 8 13.119 9.119 12 10.5 12 C 11.881 12 13 13.119 13 14.5 C 13 15.881 11.881 17 10.5 17 z M 20.5 24 C 21.328 24 22 23.328 22 22.5 C 22 21.672 21.328 21 20.5 21 C 19.672 21 19 21.672 19 22.5 C 19 23.328 19.672 24 20.5 24 z M 20.5 25 C 19.119 25 18 23.881 18 22.5 C 18 21.119 19.119 20 20.5 20 C 21.881 20 23 21.119 23 22.5 C 23 23.881 21.881 25 20.5 25 z" stroke-linecap="round" />
</g>
</g>
</g>
</svg>