<?xml version="1.0" encoding="UTF-8" standalone="no" ?>
<!DOCTYPE svg PUBLIC "-//W3C//DTD SVG 1.1//EN" "http://www.w3.org/Graphics/SVG/1.1/DTD/svg11.dtd">
<svg xmlns="http://www.w3.org/2000/svg" xmlns:xlink="http://www.w3.org/1999/xlink" version="1.1" width="1080" height="1080" viewBox="0 0 1080 1080" xml:space="preserve">
<desc>Created with Fabric.js 5.2.4</desc>
<defs>
</defs>
<rect x="0" y="0" width="100%" height="100%" fill="transparent"></rect>
<g transform="matrix(1 0 0 1 540 540)" id="a6474d76-c44b-4cb3-bcc2-9e97042a2b6d"  >
<rect style="stroke: none; stroke-width: 1; stroke-dasharray: none; stroke-linecap: butt; stroke-dashoffset: 0; stroke-linejoin: miter; stroke-miterlimit: 4; fill: rgb(255,255,255); fill-rule: nonzero; opacity: 1; visibility: hidden;" vector-effect="non-scaling-stroke"  x="-540" y="-540" rx="0" ry="0" width="1080" height="1080" />
</g>
<g transform="matrix(1 0 0 1 540 540)" id="1fc2687a-fc2d-4a62-942d-07f30305f0f7"  >
</g>
<g transform="matrix(38.57 0 0 38.57 540 540)"  >
<g style=""   >
		<g transform="matrix(1 0 0 1 -0.79 0.79)"  >
<path style="stroke: none; stroke-width: 1; stroke-dasharray: none; stroke-linecap: butt; stroke-dashoffset: 0; stroke-linejoin: miter; stroke-miterlimit: 4; fill: rgb(255,255,255); fill-rule: nonzero; opacity: 1;" vector-effect="non-scaling-stroke"  transform=" translate(-13.21, -14.79)" d="M 7.275 21.432 L 19.854 8.852999999999998 L 19.147 8.145999999999997 L 6.567999999999998 20.724999999999998 z" stroke-linecap="round" />
</g>
		<g transform="matrix(1 0 0 1 -3.12 -1.95)"  >
<path style="stroke: none; stroke-width: 1; stroke-dasharray: none; stroke-linecap: butt; stroke-dashoffset: 0; stroke-linejoin: miter; stroke-miterlimit: 4; fill: rgb(255,255,255); fill-rule: nonzero; opacity: 1;" vector-effect="non-scaling-stroke"  transform=" translate(-10.88, -12.05)" d="M 6.69 13.397 L 14.603000000000002 21.310000000000002 L 15.310000000000002 20.603 L 7.397000000000002 12.690000000000001 z M 7.149 10.558 L 14.207 3.5 L 13.5 2.793 L 6.442 9.850999999999999 z" stroke-linecap="round" />
</g>
		<g transform="matrix(1 0 0 1 7.32 3.68)"  >
<path style="stroke: none; stroke-width: 1; stroke-dasharray: none; stroke-linecap: butt; stroke-dashoffset: 0; stroke-linejoin: miter; stroke-miterlimit: 4; fill: rgb(255,255,255); fill-rule: nonzero; opacity: 1;" vector-effect="non-scaling-stroke"  transform=" translate(-21.32, -17.68)" d="M 18.149 21.558 L 25.207 14.5 L 24.5 13.793 L 17.442 20.851 z" stroke-linecap="round" />
</g>
		<g transform="matrix(1 0 0 1 -3 3)"  >
<path style="stroke: none; stroke-width: 1; stroke-dasharray: none; stroke-linecap: butt; stroke-dashoffset: 0; stroke-linejoin: miter; stroke-miterlimit: 4; fill: rgb(255,255,255); fill-rule: nonzero; opacity: 1;" vector-effect="non-scaling-stroke"  transform=" translate(-11, -17)" d="M 5.5 24 C 6.328 24 7 23.328 7 22.5 C 7 21.672 6.328 21 5.5 21 C 4.672 21 4 21.672 4 22.5 C 4 23.328 4.672 24 5.5 24 z M 5.5 25 C 4.119 25 3 23.881 3 22.5 C 3 21.119 4.119 20 5.5 20 C 6.881 20 8 21.119 8 22.5 C 8 23.881 6.881 25 5.5 25 z M 5.5 13 C 6.328 13 7 12.328 7 11.5 C 7 10.672 6.328 10 5.5 10 C 4.672 10 4 10.672 4 11.5 C 4 12.328 4.672 13 5.5 13 z M 5.5 14 C 4.119 14 3 12.881 3 11.5 C 3 10.119 4.119 9 5.5 9 C 6.881 9 8 10.119 8 11.5 C 8 12.881 6.881 14 5.5 14 z M 16.5 24 C 17.328 24 18 23.328 18 22.5 C 18 21.672 17.328 21 16.5 21 C 15.672 21 15 21.672 15 22.5 C 15 23.328 15.672 24 16.5 24 z M 16.5 25 C 15.119 25 14 23.881 14 22.5 C 14 21.119 15.119 20 16.5 20 C 17.881 20 19 21.119 19 22.5 C 19 23.881 17.881 25 16.5 25 z" stroke-linecap="round" />
</g>
</g>
</g>
</svg>