<?xml version="1.0" encoding="UTF-8" standalone="no" ?>
<!DOCTYPE svg PUBLIC "-//W3C//DTD SVG 1.1//EN" "http://www.w3.org/Graphics/SVG/1.1/DTD/svg11.dtd">
<svg xmlns="http://www.w3.org/2000/svg" xmlns:xlink="http://www.w3.org/1999/xlink" version="1.1" width="1080" height="1080" viewBox="0 0 1080 1080" xml:space="preserve">
<desc>Created with Fabric.js 5.2.4</desc>
<defs>
</defs>
<rect x="0" y="0" width="100%" height="100%" fill="transparent"></rect>
<g transform="matrix(1 0 0 1 540 540)" id="a6474d76-c44b-4cb3-bcc2-9e97042a2b6d"  >
<rect style="stroke: none; stroke-width: 1; stroke-dasharray: none; stroke-linecap: butt; stroke-dashoffset: 0; stroke-linejoin: miter; stroke-miterlimit: 4; fill: rgb(255,255,255); fill-rule: nonzero; opacity: 1; visibility: hidden;" vector-effect="non-scaling-stroke"  x="-540" y="-540" rx="0" ry="0" width="1080" height="1080" />
</g>
<g transform="matrix(1 0 0 1 540 540)" id="1fc2687a-fc2d-4a62-942d-07f30305f0f7"  >
</g>
<g transform="matrix(NaN NaN NaN NaN 0 0)"  >
<g style=""   >
</g>
</g>
<g transform="matrix(38.57 0 0 38.57 540 540)"  >
<g style=""   >
		<g transform="matrix(1 0 0 1 8.52 5.8)"  >
<path style="stroke: none; stroke-width: 1; stroke-dasharray: none; stroke-linecap: butt; stroke-dashoffset: 0; stroke-linejoin: miter; stroke-miterlimit: 4; fill: rgb(0,0,0); fill-rule: nonzero; opacity: 1;" vector-effect="non-scaling-stroke"  transform=" translate(-22.52, -19.8)" d="M 20.349 20.654 L 24.838 19.943 L 24.682000000000002 18.955000000000002 L 20.193 19.666 z" stroke-linecap="round" />
</g>
		<g transform="matrix(1 0 0 1 -2.01 7.47)"  >
<path style="stroke: none; stroke-width: 1; stroke-dasharray: none; stroke-linecap: butt; stroke-dashoffset: 0; stroke-linejoin: miter; stroke-miterlimit: 4; fill: rgb(0,0,0); fill-rule: nonzero; opacity: 1;" vector-effect="non-scaling-stroke"  transform=" translate(-11.99, -21.47)" d="M 7.254 22.728 L 16.881 21.203000000000003 L 16.725 20.215000000000003 L 7.098000000000001 21.740000000000002 z" stroke-linecap="round" />
</g>
		<g transform="matrix(1 0 0 1 0.88 3.51)"  >
<path style="stroke: none; stroke-width: 1; stroke-dasharray: none; stroke-linecap: butt; stroke-dashoffset: 0; stroke-linejoin: miter; stroke-miterlimit: 4; fill: rgb(0,0,0); fill-rule: nonzero; opacity: 1;" vector-effect="non-scaling-stroke"  transform=" translate(-14.88, -17.51)" d="M 7.284 22.118 L 22.953 13.786999999999999 L 22.483999999999998 12.904 L 6.814999999999998 21.235 z" stroke-linecap="round" />
</g>
		<g transform="matrix(1 0 0 1 -3.53 -0.85)"  >
<path style="stroke: none; stroke-width: 1; stroke-dasharray: none; stroke-linecap: butt; stroke-dashoffset: 0; stroke-linejoin: miter; stroke-miterlimit: 4; fill: rgb(0,0,0); fill-rule: nonzero; opacity: 1;" vector-effect="non-scaling-stroke"  transform=" translate(-10.47, -13.15)" d="M 6.732 21.248 L 15.096 5.517000000000001 L 14.213000000000001 5.048000000000001 L 5.849 20.779 z" stroke-linecap="round" />
</g>
		<g transform="matrix(1 0 0 1 -0.98 1.02)"  >
<path style="stroke: none; stroke-width: 1; stroke-dasharray: none; stroke-linecap: butt; stroke-dashoffset: 0; stroke-linejoin: miter; stroke-miterlimit: 4; fill: rgb(0,0,0); fill-rule: nonzero; opacity: 1;" vector-effect="non-scaling-stroke"  transform=" translate(-13.02, -15.02)" d="M 17.465 18.758 L 9.277 10.569999999999999 L 8.569999999999999 11.277 L 16.758 19.465 z" stroke-linecap="round" />
</g>
		<g transform="matrix(1 0 0 1 -7.47 2.01)"  >
<path style="stroke: none; stroke-width: 1; stroke-dasharray: none; stroke-linecap: butt; stroke-dashoffset: 0; stroke-linejoin: miter; stroke-miterlimit: 4; fill: rgb(0,0,0); fill-rule: nonzero; opacity: 1;" vector-effect="non-scaling-stroke"  transform=" translate(-6.53, -16.01)" d="M 6.273 20.818 L 7.772 11.351 L 6.784000000000001 11.195 L 5.285 20.662 z" stroke-linecap="round" />
</g>
		<g transform="matrix(1 0 0 1 -5.81 -8.5)"  >
<path style="stroke: none; stroke-width: 1; stroke-dasharray: none; stroke-linecap: butt; stroke-dashoffset: 0; stroke-linejoin: miter; stroke-miterlimit: 4; fill: rgb(0,0,0); fill-rule: nonzero; opacity: 1;" vector-effect="non-scaling-stroke"  transform=" translate(-8.19, -5.5)" d="M 8.329 7.834 L 9.044 3.3179999999999996 L 8.056000000000001 3.1619999999999995 L 7.341000000000001 7.677999999999999 z" stroke-linecap="round" />
</g>
		<g transform="matrix(1 0 0 1 1.5 -1.5)"  >
<path style="stroke: none; stroke-width: 1; stroke-dasharray: none; stroke-linecap: butt; stroke-dashoffset: 0; stroke-linejoin: miter; stroke-miterlimit: 4; fill: rgb(0,0,0); fill-rule: nonzero; opacity: 1;" vector-effect="non-scaling-stroke"  transform=" translate(-15.5, -12.5)" d="M 7.354 21.354 L 24.354 4.353999999999999 L 23.647 3.6469999999999994 L 6.6469999999999985 20.647 z" stroke-linecap="round" />
</g>
		<g transform="matrix(1 0 0 1 -2 2)"  >
<path style="stroke: none; stroke-width: 1; stroke-dasharray: none; stroke-linecap: butt; stroke-dashoffset: 0; stroke-linejoin: miter; stroke-miterlimit: 4; fill: rgb(0,0,0); fill-rule: nonzero; opacity: 1;" vector-effect="non-scaling-stroke"  transform=" translate(-12, -16)" d="M 5.5 24 C 6.328 24 7 23.328 7 22.5 C 7 21.672 6.328 21 5.5 21 C 4.672 21 4 21.672 4 22.5 C 4 23.328 4.672 24 5.5 24 z M 5.5 25 C 4.119 25 3 23.881 3 22.5 C 3 21.119 4.119 20 5.5 20 C 6.881 20 8 21.119 8 22.5 C 8 23.881 6.881 25 5.5 25 z M 7.5 11 C 8.328 11 9 10.328 9 9.5 C 9 8.672 8.328 8 7.5 8 C 6.672000000000001 8 6 8.672 6 9.5 C 6 10.328 6.672 11 7.5 11 z M 7.5 12 C 6.119 12 5 10.881 5 9.5 C 5 8.119 6.119 7 7.5 7 C 8.881 7 10 8.119 10 9.5 C 10 10.881 8.881 12 7.5 12 z M 18.5 22 C 19.328 22 20 21.328 20 20.5 C 20 19.672 19.328 19 18.5 19 C 17.672 19 17 19.672 17 20.5 C 17 21.328 17.672 22 18.5 22 z M 18.5 23 C 17.119 23 16 21.881 16 20.5 C 16 19.119 17.119 18 18.5 18 C 19.881 18 21 19.119 21 20.5 C 21 21.881 19.881 23 18.5 23 z" stroke-linecap="round" />
</g>
</g>
</g>
</svg>