<?xml version="1.0" encoding="UTF-8" standalone="no" ?>
<!DOCTYPE svg PUBLIC "-//W3C//DTD SVG 1.1//EN" "http://www.w3.org/Graphics/SVG/1.1/DTD/svg11.dtd">
<svg xmlns="http://www.w3.org/2000/svg" xmlns:xlink="http://www.w3.org/1999/xlink" version="1.1" width="1080" height="1080" viewBox="0 0 1080 1080" xml:space="preserve">
<desc>Created with Fabric.js 5.2.4</desc>
<defs>
</defs>
<rect x="0" y="0" width="100%" height="100%" fill="transparent"></rect>
<g transform="matrix(1 0 0 1 540 540)" id="e8c8f618-96ba-4784-90d1-b20bd5ccc995"  >
<rect style="stroke: none; stroke-width: 1; stroke-dasharray: none; stroke-linecap: butt; stroke-dashoffset: 0; stroke-linejoin: miter; stroke-miterlimit: 4; fill: rgb(255,255,255); fill-rule: nonzero; opacity: 1; visibility: hidden;" vector-effect="non-scaling-stroke"  x="-540" y="-540" rx="0" ry="0" width="1080" height="1080" />
</g>
<g transform="matrix(1 0 0 1 540 540)" id="5e645da5-4b7f-4aa7-937b-67bb204a7508"  >
</g>
<g transform="matrix(38.57 0 0 38.57 540 540)"  >
<g style=""   >
		<g transform="matrix(1 0 0 1 -0.02 -0.01)"  >
<path style="stroke: none; stroke-width: 1; stroke-dasharray: none; stroke-linecap: butt; stroke-dashoffset: 0; stroke-linejoin: miter; stroke-miterlimit: 4; fill: rgb(255,255,255); fill-rule: nonzero; opacity: 1;" vector-effect="non-scaling-stroke"  transform=" translate(-13.98, -13.99)" d="M 14.743 3.55 L 10.535 7.758 L 11.242 8.465 L 15.450000000000001 4.257 z M 7.71 10.583 L 3.5229999999999997 14.77 L 4.2299999999999995 15.477 L 8.417 11.29 z M 3.536 18.244 L 9.707 24.415 L 10.414000000000001 23.708 L 4.243000000000001 17.537 z M 13.232 24.475 L 17.451999999999998 20.255000000000003 L 16.744999999999997 19.548000000000002 L 12.524999999999999 23.768 z M 20.214 17.494 L 24.430999999999997 13.277000000000001 L 23.723999999999997 12.57 L 19.506999999999998 16.787 z M 24.423 9.716 L 18.205 3.4979999999999993 L 17.497999999999998 4.204999999999999 L 23.715999999999998 10.422999999999998 z" stroke-linecap="round" />
</g>
		<g transform="matrix(1 0 0 1 0 0)"  >
<path style="stroke: none; stroke-width: 1; stroke-dasharray: none; stroke-linecap: butt; stroke-dashoffset: 0; stroke-linejoin: miter; stroke-miterlimit: 4; fill: rgb(255,255,255); fill-rule: nonzero; opacity: 1;" vector-effect="non-scaling-stroke"  transform=" translate(-14, -14)" d="M 2.5 18 C 3.328 18 4 17.328 4 16.5 C 4 15.672 3.328 15 2.5 15 C 1.6720000000000002 15 1 15.672 1 16.5 C 1 17.328 1.6720000000000002 18 2.5 18 z M 2.5 19 C 1.119 19 0 17.881 0 16.5 C 0 15.119 1.119 14 2.5 14 C 3.8810000000000002 14 5 15.119 5 16.5 C 5 17.881 3.8810000000000002 19 2.5 19 z M 9.5 11 C 10.328 11 11 10.328 11 9.5 C 11 8.672 10.328 8 9.5 8 C 8.672 8 8 8.672 8 9.5 C 8 10.328 8.672 11 9.5 11 z M 9.5 12 C 8.119 12 7 10.881 7 9.5 C 7 8.119 8.119 7 9.5 7 C 10.881 7 12 8.119 12 9.5 C 12 10.881 10.881 12 9.5 12 z M 16.5 4 C 17.328 4 18 3.328 18 2.5 C 18 1.6720000000000002 17.328 1 16.5 1 C 15.672 1 15 1.6720000000000002 15 2.5 C 15 3.328 15.672 4 16.5 4 z M 16.5 5 C 15.119 5 14 3.8810000000000002 14 2.5 C 14 1.1189999999999998 15.119 0 16.5 0 C 17.881 0 19 1.119 19 2.5 C 19 3.8810000000000002 17.881 5 16.5 5 z M 11.5 27 C 12.328 27 13 26.328 13 25.5 C 13 24.672 12.328 24 11.5 24 C 10.672 24 10 24.672 10 25.5 C 10 26.328 10.672 27 11.5 27 z M 11.5 28 C 10.119 28 9 26.881 9 25.5 C 9 24.119 10.119 23 11.5 23 C 12.881 23 14 24.119 14 25.5 C 14 26.881 12.881 28 11.5 28 z M 18.5 20 C 19.328 20 20 19.328 20 18.5 C 20 17.672 19.328 17 18.5 17 C 17.672 17 17 17.672 17 18.5 C 17 19.328 17.672 20 18.5 20 z M 18.5 21 C 17.119 21 16 19.881 16 18.5 C 16 17.119 17.119 16 18.5 16 C 19.881 16 21 17.119 21 18.5 C 21 19.881 19.881 21 18.5 21 z M 25.5 13 C 26.328 13 27 12.328 27 11.5 C 27 10.672 26.328 10 25.5 10 C 24.672 10 24 10.672 24 11.5 C 24 12.328 24.672 13 25.5 13 z M 25.5 14 C 24.119 14 23 12.881 23 11.5 C 23 10.119 24.119 9 25.5 9 C 26.881 9 28 10.119 28 11.5 C 28 12.881 26.881 14 25.5 14 z" stroke-linecap="round" />
</g>
</g>
</g>
</svg>