<?xml version="1.0" encoding="UTF-8" standalone="no" ?>
<!DOCTYPE svg PUBLIC "-//W3C//DTD SVG 1.1//EN" "http://www.w3.org/Graphics/SVG/1.1/DTD/svg11.dtd">
<svg xmlns="http://www.w3.org/2000/svg" xmlns:xlink="http://www.w3.org/1999/xlink" version="1.1" width="1080" height="1080" viewBox="0 0 1080 1080" xml:space="preserve">
<desc>Created with Fabric.js 5.2.4</desc>
<defs>
</defs>
<g transform="matrix(1 0 0 1 540 540)" id="68e82ac4-29d8-42c9-9074-b3566b398ff3"  >
<rect style="stroke: none; stroke-width: 1; stroke-dasharray: none; stroke-linecap: butt; stroke-dashoffset: 0; stroke-linejoin: miter; stroke-miterlimit: 4; fill: #0055ff; fill-rule: nonzero; opacity: 1; visibility: hidden;" vector-effect="non-scaling-stroke"  x="-540" y="-540" rx="0" ry="0" width="1080" height="1080" />
</g>
<g transform="matrix(1 0 0 1 540 540)" id="07c523eb-937b-4a2c-b325-7ac65392686b"  >
</g>
<g transform="matrix(1 0 0 1 540 540)" id="00c99409-8dba-4f66-bfde-c6c66d850bfe"  >
<path style="stroke: #0055ff; stroke-width: 0; stroke-dasharray: none; stroke-linecap: butt; stroke-dashoffset: 0; stroke-linejoin: miter; stroke-miterlimit: 4; fill: #0055ff; fill-rule: nonzero; opacity: 1;" vector-effect="non-scaling-stroke"  transform=" translate(-50.8, -61.45)" d="M 55.28 15.28 L 55.28 45.28 L 97.17 45.28 C 99.62 45.28 101.61 47.27 101.61 49.72 C 101.61 52.17 99.62 54.16 97.17 54.16 L 4.44 54.16 C 1.99 54.17 0 52.18 0 49.73 C 0 47.279999999999994 1.99 45.29 4.44 45.29 L 46.4 45.29 L 46.4 15.07 L 31.12 30.22 C 29.39 31.939999999999998 26.580000000000002 31.939999999999998 24.86 30.2 C 23.14 28.47 23.14 25.66 24.88 23.939999999999998 L 47.71 1.29 L 47.71 1.29 L 47.72 1.28 C 47.769999999999996 1.23 47.81 1.19 47.86 1.15 L 47.87 1.14 L 47.94 1.0799999999999998 L 47.96 1.0599999999999998 L 48.02 1.0099999999999998 L 48.050000000000004 0.9899999999999998 L 48.07000000000001 0.9699999999999998 L 48.14000000000001 0.9199999999999997 L 48.14000000000001 0.9199999999999997 L 48.20000000000001 0.8699999999999997 L 48.22000000000001 0.8499999999999996 L 48.240000000000016 0.8399999999999996 L 48.31000000000002 0.7899999999999996 L 48.33000000000002 0.7799999999999996 L 48.40000000000002 0.7299999999999995 L 48.40000000000002 0.7299999999999995 L 48.47000000000002 0.6899999999999995 L 48.49000000000002 0.6799999999999995 L 48.510000000000026 0.6699999999999995 L 48.58000000000003 0.6299999999999994 L 48.60000000000003 0.6199999999999994 L 48.63000000000003 0.5999999999999994 L 48.69000000000003 0.5599999999999994 L 48.69000000000003 0.5599999999999994 L 48.76000000000003 0.5199999999999994 L 48.78000000000004 0.5099999999999993 L 48.860000000000035 0.46999999999999936 L 48.860000000000035 0.46999999999999936 L 48.94000000000003 0.4299999999999994 L 48.960000000000036 0.4199999999999994 L 49.02000000000004 0.38999999999999935 L 49.05000000000004 0.37999999999999934 L 49.07000000000004 0.36999999999999933 L 49.15000000000004 0.3399999999999993 L 49.170000000000044 0.3299999999999993 L 49.25000000000004 0.29999999999999927 L 49.270000000000046 0.28999999999999926 L 49.350000000000044 0.25999999999999923 L 49.36000000000004 0.25999999999999923 C 49.420000000000044 0.23999999999999924 49.490000000000045 0.21999999999999922 49.55000000000004 0.19999999999999923 L 49.56000000000004 0.19999999999999923 L 49.640000000000036 0.17999999999999924 L 49.66000000000004 0.16999999999999924 L 49.68000000000004 0.15999999999999923 L 49.76000000000004 0.13999999999999924 L 49.86000000000004 0.11999999999999923 L 49.87000000000004 0.11999999999999923 L 50 0.08 L 50.01 0.08 L 50.08 0.07 L 50.11 0.060000000000000005 L 50.13 0.060000000000000005 L 50.21 0.05 L 50.230000000000004 0.05 L 50.31 0.04 L 50.31 0.04 L 50.400000000000006 0.03 L 50.410000000000004 0.03 L 50.43000000000001 0.03 L 50.510000000000005 0.019999999999999997 L 50.52 0.019999999999999997 C 50.59 0.019999999999999997 50.650000000000006 0.009999999999999997 50.720000000000006 0.009999999999999997 L 50.730000000000004 0.009999999999999997 L 50.82000000000001 0.009999999999999997 L 50.84000000000001 0.009999999999999997 L 50.92000000000001 0.009999999999999997 L 50.94000000000001 0.009999999999999997 L 50.960000000000015 0.009999999999999997 L 51.04000000000001 0.009999999999999997 L 51.06000000000002 0.009999999999999997 L 51.140000000000015 0.019999999999999997 L 51.140000000000015 0.019999999999999997 L 51.23000000000002 0.03 L 51.240000000000016 0.03 C 51.34000000000002 0.04 51.45000000000002 0.05 51.55000000000002 0.07 L 51.64000000000002 0.09000000000000001 L 51.660000000000025 0.09000000000000001 C 51.760000000000026 0.11000000000000001 51.86000000000003 0.13 51.96000000000002 0.16000000000000003 L 51.96000000000002 0.16000000000000003 L 52.04000000000002 0.18000000000000002 L 52.07000000000002 0.19000000000000003 L 52.090000000000025 0.20000000000000004 L 52.17000000000002 0.22000000000000003 L 52.190000000000026 0.23000000000000004 L 52.270000000000024 0.26 L 52.29000000000003 0.27 L 52.370000000000026 0.30000000000000004 L 52.380000000000024 0.30000000000000004 C 52.480000000000025 0.34 52.57000000000002 0.38000000000000006 52.660000000000025 0.42000000000000004 L 52.67000000000002 0.43000000000000005 C 52.730000000000025 0.4600000000000001 52.79000000000002 0.49000000000000005 52.840000000000025 0.52 L 52.86000000000003 0.53 L 52.88000000000003 0.54 L 53 0.56 L 53.02 0.5700000000000001 L 53.09 0.6100000000000001 C 53.14 0.6400000000000001 53.2 0.6700000000000002 53.25 0.7100000000000001 L 53.28 0.7300000000000001 L 53.300000000000004 0.7400000000000001 L 53.370000000000005 0.7900000000000001 L 53.38 0.7900000000000001 C 53.440000000000005 0.8300000000000002 53.49 0.8700000000000001 53.54 0.9100000000000001 L 53.55 0.9200000000000002 L 53.64 1 L 53.64 1 L 53.72 1.07 L 53.73 1.08 L 53.779999999999994 1.12 L 53.82999999999999 1.1700000000000002 L 53.82999999999999 1.1700000000000002 L 53.88999999999999 1.2300000000000002 L 53.91 1.2500000000000002 L 53.97 1.3100000000000003 L 53.97 1.3100000000000003 L 53.98 1.3200000000000003 L 76.2 23.97 C 77.91 25.709999999999997 77.89 28.52 76.15 30.229999999999997 C 74.41000000000001 31.939999999999998 71.60000000000001 31.919999999999998 69.89 30.179999999999996 L 55.28 15.28 L 55.28 15.28 z M 97.16 67.86 C 99.61 67.86 101.6 69.85 101.6 72.3 C 101.6 74.75 99.61 76.74 97.16 76.74 L 55.28 76.74 L 55.28 107.6 L 69.89 92.69999999999999 C 71.6 90.96 74.41 90.92999999999999 76.15 92.64999999999999 C 77.89 94.35999999999999 77.92 97.16999999999999 76.2 98.91 L 53.99 121.56 L 53.980000000000004 121.57000000000001 L 53.980000000000004 121.57000000000001 L 53.92 121.63000000000001 L 53.9 121.65 L 53.839999999999996 121.71000000000001 L 53.839999999999996 121.71000000000001 L 53.79 121.76 L 53.74 121.80000000000001 L 53.730000000000004 121.81000000000002 L 53.650000000000006 121.88000000000001 L 53.650000000000006 121.88000000000001 L 53.57000000000001 121.95 L 53.56000000000001 121.96000000000001 C 53.51000000000001 122.00000000000001 53.45000000000001 122.04 53.40000000000001 122.08000000000001 L 53.390000000000015 122.08000000000001 L 53.320000000000014 122.13000000000001 L 53.30000000000001 122.14000000000001 L 53.27000000000001 122.16000000000001 C 53.22000000000001 122.19000000000001 53.17000000000001 122.23 53.110000000000014 122.26 L 53.04000000000001 122.30000000000001 L 53 122.32 L 52.93 122.36 L 52.91 122.37 L 52.88999999999999 122.38000000000001 C 52.82999999999999 122.41000000000001 52.769999999999996 122.44000000000001 52.71999999999999 122.47000000000001 L 52.709999999999994 122.48000000000002 C 52.61999999999999 122.52000000000002 52.519999999999996 122.56000000000002 52.42999999999999 122.60000000000002 L 52.419999999999995 122.60000000000002 L 52.339999999999996 122.63000000000002 L 52.31999999999999 122.64000000000003 L 52.239999999999995 122.67000000000003 L 52.21999999999999 122.68000000000004 L 52.13999999999999 122.70000000000003 L 52.11999999999999 122.71000000000004 L 52.08999999999999 122.72000000000004 L 52.00999999999999 122.74000000000004 L 52.00999999999999 122.74000000000004 C 51.90999999999999 122.77000000000004 51.80999999999999 122.79000000000003 51.709999999999994 122.81000000000003 L 51.68999999999999 122.81000000000003 L 51.59999999999999 122.83000000000003 C 51.499999999999986 122.85000000000002 51.389999999999986 122.86000000000003 51.289999999999985 122.87000000000003 L 51.27999999999999 122.87000000000003 L 51.18999999999998 122.88000000000004 L 51.18999999999998 122.88000000000004 L 51.109999999999985 122.89000000000004 L 51.08999999999998 122.89000000000004 L 51.009999999999984 122.89000000000004 L 50.98999999999998 122.89000000000004 L 50.96999999999998 122.89000000000004 L 50.88999999999998 122.89000000000004 L 50.869999999999976 122.89000000000004 L 50.77999999999997 122.89000000000004 L 50.769999999999975 122.89000000000004 C 50.699999999999974 122.89000000000004 50.63999999999997 122.89000000000004 50.56999999999997 122.88000000000004 L 50.559999999999974 122.88000000000004 L 50.479999999999976 122.87000000000003 L 50.45999999999997 122.87000000000003 L 50.449999999999974 122.87000000000003 L 50.35999999999997 122.86000000000003 L 50.35999999999997 122.86000000000003 L 50.27999999999997 122.85000000000002 L 50.25999999999997 122.85000000000002 L 50.17999999999997 122.84000000000002 L 50.15999999999997 122.84000000000002 L 50.12999999999997 122.83000000000001 L 50.05999999999997 122.82000000000001 L 50.04999999999997 122.82000000000001 L 49.94999999999997 122.80000000000001 L 49.93999999999997 122.80000000000001 L 49.83999999999997 122.78000000000002 L 49.75999999999997 122.76000000000002 L 49.73999999999997 122.75000000000001 L 49.71999999999996 122.74000000000001 L 49.639999999999965 122.72000000000001 L 49.62999999999997 122.72000000000001 C 49.569999999999965 122.70000000000002 49.499999999999964 122.68 49.43999999999997 122.66000000000001 L 49.42999999999997 122.66000000000001 L 49.34999999999997 122.63000000000001 L 49.32999999999997 122.62 L 49.24999999999997 122.59 L 49.22999999999997 122.58 L 49.14999999999997 122.55 L 49.12999999999997 122.53999999999999 L 49.099999999999966 122.52999999999999 L 49.039999999999964 122.49999999999999 L 49.01999999999996 122.48999999999998 L 48.93999999999996 122.44999999999997 L 48.93999999999996 122.44999999999997 L 48.859999999999964 122.40999999999997 L 48.83999999999996 122.39999999999996 L 48.76999999999996 122.35999999999996 L 48.76999999999996 122.35999999999996 L 48.70999999999996 122.31999999999995 L 48.67999999999996 122.29999999999995 L 48.659999999999954 122.28999999999995 L 48.589999999999954 122.24999999999994 L 48.56999999999995 122.23999999999994 L 48.54999999999995 122.22999999999993 L 48.47999999999995 122.18999999999993 L 48.47999999999995 122.18999999999993 L 48.40999999999995 122.13999999999993 L 48.389999999999944 122.12999999999992 L 48.31999999999994 122.07999999999993 L 48.29999999999994 122.06999999999992 L 48.27999999999994 122.04999999999993 L 48.219999999999935 121.99999999999993 L 48.219999999999935 121.99999999999993 L 48.149999999999935 121.94999999999993 L 48.12999999999993 121.92999999999994 L 48.09999999999993 121.90999999999994 L 48.03999999999993 121.85999999999994 L 48.019999999999925 121.83999999999995 L 47.949999999999925 121.77999999999994 L 47.93999999999993 121.76999999999994 C 47.88999999999993 121.72999999999993 47.839999999999925 121.67999999999994 47.799999999999926 121.63999999999994 L 47.78999999999993 121.62999999999994 L 47.78999999999993 121.62999999999994 L 24.87 98.94 C 23.14 97.22 23.130000000000003 94.41 24.85 92.67999999999999 C 26.57 90.94999999999999 29.380000000000003 90.94 31.11 92.66 L 46.39 107.81 L 46.39 76.74 L 4.44 76.74 C 1.99 76.74 0 74.75 0 72.3 C 0 69.85 1.99 67.86 4.44 67.86 L 97.16 67.86 L 97.16 67.86 z M 53.25 122.16 C 53.2 122.19 53.15 122.22999999999999 53.09 122.25999999999999 L 53.25 122.16 L 53.25 122.16 z" stroke-linecap="round" />
</g>
</svg>