<?xml version="1.0" encoding="UTF-8" standalone="no" ?>
<!DOCTYPE svg PUBLIC "-//W3C//DTD SVG 1.1//EN" "http://www.w3.org/Graphics/SVG/1.1/DTD/svg11.dtd">
<svg xmlns="http://www.w3.org/2000/svg" xmlns:xlink="http://www.w3.org/1999/xlink" version="1.1" width="1080" height="1080" viewBox="0 0 1080 1080" xml:space="preserve">
<desc>Created with Fabric.js 5.2.4</desc>
<defs>
</defs>
<rect x="0" y="0" width="100%" height="100%" fill="transparent"></rect>
<g transform="matrix(1 0 0 1 540 540)" id="68e82ac4-29d8-42c9-9074-b3566b398ff3"  >
<rect style="stroke: none; stroke-width: 1; stroke-dasharray: none; stroke-linecap: butt; stroke-dashoffset: 0; stroke-linejoin: miter; stroke-miterlimit: 4; fill: #0055ff; fill-rule: nonzero; opacity: 1; visibility: hidden;" vector-effect="non-scaling-stroke"  x="-540" y="-540" rx="0" ry="0" width="1080" height="1080" />
</g>
<g transform="matrix(1 0 0 1 540 540)" id="07c523eb-937b-4a2c-b325-7ac65392686b"  >
</g>
<g transform="matrix(1 0 0 1 540 540)" id="ba3e8380-e27f-41e7-b482-ed11fc6eae8c"  >
<path style="stroke: #0055ff; stroke-width: 0; stroke-dasharray: none; stroke-linecap: butt; stroke-dashoffset: 0; stroke-linejoin: miter; stroke-miterlimit: 4; fill: #0055ff; fill-rule: nonzero; opacity: 1;" vector-effect="non-scaling-stroke"  transform=" translate(-61.44, -50.8)" d="M 15.28 46.33 L 45.28 46.33 L 45.28 4.44 C 45.28 1.9900000000000002 47.27 0 49.72 0 C 52.17 0 54.16 1.99 54.16 4.44 L 54.16 97.16 C 54.16 99.61 52.169999999999995 101.6 49.72 101.6 C 47.269999999999996 101.6 45.28 99.61 45.28 97.16 L 45.28 55.21 L 15.07 55.21 L 30.22 70.49 C 31.939999999999998 72.22 31.939999999999998 75.03 30.2 76.75 C 28.47 78.47 25.66 78.47 23.939999999999998 76.73 L 1.29 53.89 L 1.29 53.89 L 1.28 53.88 C 1.23 53.830000000000005 1.19 53.79 1.15 53.74 L 1.14 53.730000000000004 L 1.0799999999999998 53.660000000000004 L 1.0599999999999998 53.64 L 1.0099999999999998 53.58 L 0.9899999999999998 53.55 L 0.9699999999999998 53.529999999999994 L 0.9199999999999997 53.459999999999994 L 0.9199999999999997 53.459999999999994 L 0.87 53.4 L 0.85 53.379999999999995 L 0.84 53.35999999999999 L 0.7899999999999999 53.28999999999999 L 0.7799999999999999 53.26999999999999 L 0.7299999999999999 53.19999999999999 L 0.7299999999999999 53.19999999999999 L 0.6899999999999998 53.12999999999999 L 0.66 53.1 L 0.65 53.08 L 0.61 53.01 L 0.6 52.989999999999995 L 0.58 52.959999999999994 L 0.5399999999999999 52.89999999999999 L 0.5399999999999999 52.89999999999999 L 0.5 52.82 L 0.49 52.8 L 0.45 52.72 L 0.45 52.72 L 0.41000000000000003 52.64 L 0.4 52.62 L 0.37 52.559999999999995 L 0.36 52.529999999999994 L 0.35 52.5 L 0.31999999999999995 52.42 L 0.31 52.4 L 0.28 52.32 L 0.27 52.3 L 0.24000000000000002 52.22 L 0.24000000000000002 52.21 C 0.22000000000000003 52.15 0.2 52.08 0.18000000000000002 52.02 L 0.18000000000000002 52.010000000000005 L 0.16000000000000003 51.93000000000001 L 0.15000000000000002 51.910000000000004 L 0.14 51.89 L 0.12000000000000001 51.81 L 0.1 51.71 L 0.1 51.7 L 0.08 51.6 L 0.08 51.59 L 0.07 51.52 L 0.06 51.5 L 0.06 51.48 L 0.049999999999999996 51.4 L 0.049999999999999996 51.379999999999995 L 0.039999999999999994 51.3 L 0.039999999999999994 51.3 L 0.02 51.2 L 0.02 51.190000000000005 L 0.02 51.17 L 0.01 51.09 L 0.01 51.080000000000005 C 0.01 51 0 50.93 0 50.87 L 0 50.86 L 0 50.769999999999996 L 0 50.74999999999999 L 0 50.669999999999995 L 0 50.64999999999999 L 0 50.62999999999999 L 0 50.54999999999999 L 0 50.52999999999999 L 0.01 50.44999999999999 L 0.01 50.44999999999999 L 0.02 50.359999999999985 L 0.02 50.34999999999999 C 0.03 50.249999999999986 0.04 50.139999999999986 0.06 50.039999999999985 L 0.08 49.94999999999998 L 0.08 49.92999999999998 C 0.1 49.82999999999998 0.12 49.729999999999976 0.15000000000000002 49.62999999999998 L 0.15000000000000002 49.62999999999998 L 0.17 49.54999999999998 L 0.18000000000000002 49.51999999999998 L 0.19000000000000003 49.49999999999998 L 0.21000000000000002 49.41999999999998 L 0.22000000000000003 49.39999999999998 L 0.25 49.31999999999998 L 0.26 49.299999999999976 L 0.29000000000000004 49.21999999999998 L 0.29000000000000004 49.20999999999998 C 0.33 49.10999999999998 0.37000000000000005 49.01999999999998 0.41000000000000003 48.92999999999998 L 0.42000000000000004 48.91999999999998 C 0.45000000000000007 48.85999999999998 0.48000000000000004 48.79999999999998 0.51 48.74999999999998 L 0.52 48.729999999999976 L 0.53 48.70999999999997 L 0.5700000000000001 48.63999999999997 L 0.5800000000000001 48.61999999999997 L 0.6200000000000001 48.54999999999997 C 0.6500000000000001 48.49999999999997 0.6800000000000002 48.43999999999997 0.7200000000000001 48.38999999999997 L 0.7400000000000001 48.35999999999997 L 0.7500000000000001 48.33999999999997 L 0.8000000000000002 48.26999999999997 L 0.8000000000000002 48.25999999999997 C 0.8400000000000002 48.19999999999997 0.8800000000000001 48.14999999999997 0.9200000000000002 48.09999999999997 L 0.9300000000000002 48.089999999999975 L 1 47.97 L 1 47.97 L 1.07 47.89 L 1.08 47.88 L 1.12 47.830000000000005 L 1.1700000000000002 47.78000000000001 L 1.1700000000000002 47.78000000000001 L 1.2300000000000002 47.720000000000006 L 1.2500000000000002 47.7 L 1.3100000000000003 47.64 L 1.3100000000000003 47.64 L 1.3200000000000003 47.63 L 23.97 25.4 C 25.709999999999997 23.689999999999998 28.52 23.709999999999997 30.229999999999997 25.45 C 31.939999999999998 27.189999999999998 31.919999999999998 30 30.179999999999996 31.71 L 15.28 46.33 L 15.28 46.33 z M 67.86 4.44 C 67.86 1.99 69.85 0 72.3 0 C 74.75 0 76.74 1.99 76.74 4.44 L 76.74 46.33 L 107.6 46.33 L 92.7 31.72 C 90.96000000000001 30.009999999999998 90.93 27.2 92.65 25.46 C 94.36 23.720000000000002 97.17 23.69 98.91000000000001 25.41 L 121.56 47.620000000000005 L 121.57000000000001 47.63 L 121.57000000000001 47.63 L 121.63000000000001 47.690000000000005 L 121.65 47.71000000000001 L 121.71000000000001 47.77000000000001 L 121.71000000000001 47.77000000000001 L 121.76 47.82000000000001 L 121.80000000000001 47.870000000000005 L 121.81000000000002 47.88 L 121.88000000000001 47.96 L 121.88000000000001 47.96 L 121.95 48.04 L 121.96000000000001 48.05 C 122.00000000000001 48.099999999999994 122.04 48.16 122.08000000000001 48.209999999999994 L 122.08000000000001 48.21999999999999 L 122.13000000000001 48.28999999999999 L 122.14000000000001 48.309999999999995 L 122.16000000000001 48.339999999999996 C 122.19000000000001 48.38999999999999 122.23 48.449999999999996 122.26 48.49999999999999 L 122.30000000000001 48.56999999999999 L 122.31000000000002 48.589999999999996 L 122.35000000000002 48.66 L 122.36000000000003 48.68 L 122.37000000000003 48.7 C 122.40000000000003 48.760000000000005 122.43000000000004 48.82 122.46000000000004 48.870000000000005 L 122.47000000000004 48.88 C 122.51000000000005 48.970000000000006 122.55000000000004 49.07 122.59000000000005 49.160000000000004 L 122.59000000000005 49.17 L 122.62000000000005 49.25 L 122.63000000000005 49.27 L 122.66000000000005 49.35 L 122.67000000000006 49.370000000000005 L 122.69000000000005 49.45 L 122.70000000000006 49.470000000000006 L 122.71000000000006 49.50000000000001 L 122.73000000000006 49.580000000000005 L 122.73000000000006 49.580000000000005 C 122.76000000000006 49.68000000000001 122.78000000000006 49.78000000000001 122.80000000000005 49.88 L 122.80000000000005 49.900000000000006 L 122.82000000000005 49.99000000000001 C 122.84000000000005 50.09000000000001 122.85000000000005 50.20000000000001 122.86000000000006 50.30000000000001 L 122.86000000000006 50.31000000000001 L 122.87000000000006 50.40000000000001 L 122.87000000000006 50.40000000000001 L 122.88000000000007 50.48000000000001 L 122.88000000000007 50.500000000000014 L 122.88000000000007 50.58000000000001 L 122.88000000000007 50.600000000000016 L 122.88000000000007 50.62000000000002 L 122.88000000000007 50.70000000000002 L 122.88000000000007 50.72000000000002 L 122.88000000000007 50.810000000000024 L 122.88000000000007 50.82000000000002 C 122.88000000000007 50.89000000000002 122.88000000000007 50.950000000000024 122.87000000000006 51.020000000000024 L 122.87000000000006 51.03000000000002 L 122.86000000000006 51.11000000000002 L 122.86000000000006 51.130000000000024 L 122.86000000000006 51.14000000000002 L 122.85000000000005 51.230000000000025 L 122.85000000000005 51.230000000000025 L 122.84000000000005 51.310000000000024 L 122.84000000000005 51.33000000000003 L 122.83000000000004 51.410000000000025 L 122.83000000000004 51.43000000000003 L 122.82000000000004 51.46000000000003 L 122.81000000000003 51.53000000000003 L 122.81000000000003 51.54000000000003 L 122.79000000000003 51.64000000000003 L 122.79000000000003 51.65000000000003 L 122.77000000000004 51.75000000000003 L 122.75000000000004 51.83000000000003 L 122.74000000000004 51.85000000000003 L 122.73000000000003 51.87000000000003 L 122.71000000000004 51.95000000000003 L 122.71000000000004 51.96000000000003 C 122.69000000000004 52.02000000000003 122.67000000000003 52.09000000000003 122.65000000000003 52.15000000000003 L 122.65000000000003 52.160000000000025 L 122.62000000000003 52.24000000000002 L 122.61000000000003 52.260000000000026 L 122.58000000000003 52.340000000000025 L 122.57000000000002 52.36000000000003 L 122.54000000000002 52.440000000000026 L 122.53000000000002 52.46000000000003 L 122.52000000000001 52.49000000000003 L 122.49000000000001 52.55000000000003 L 122.48 52.570000000000036 L 122.44 52.650000000000034 L 122.44 52.650000000000034 L 122.39999999999999 52.73000000000003 L 122.38999999999999 52.750000000000036 L 122.34999999999998 52.820000000000036 L 122.34999999999998 52.820000000000036 L 122.30999999999997 52.88000000000004 L 122.28999999999998 52.91000000000004 L 122.27999999999997 52.93000000000004 L 122.23999999999997 53.00000000000004 L 122.22999999999996 53.020000000000046 L 122.21999999999996 53.04000000000005 L 122.17999999999995 53.11000000000005 L 122.17999999999995 53.11000000000005 L 122.12999999999995 53.18000000000005 L 122.11999999999995 53.20000000000005 L 122.06999999999995 53.27000000000005 L 122.05999999999995 53.290000000000056 L 122.03999999999995 53.31000000000006 L 121.98999999999995 53.37000000000006 L 121.98999999999995 53.37000000000006 L 121.93999999999996 53.44000000000006 L 121.91999999999996 53.460000000000065 L 121.89999999999996 53.490000000000066 L 121.84999999999997 53.55000000000007 L 121.82999999999997 53.57000000000007 L 121.76999999999997 53.64000000000007 L 121.75999999999996 53.65000000000007 C 121.71999999999996 53.70000000000007 121.66999999999996 53.75000000000007 121.62999999999997 53.79000000000007 L 121.61999999999996 53.80000000000007 L 121.61999999999996 53.80000000000007 L 98.94 76.73 C 97.22 78.46000000000001 94.41 78.47 92.67999999999999 76.75 C 90.94999999999999 75.03 90.94 72.22 92.66 70.49 L 107.81 55.209999999999994 L 76.74 55.209999999999994 L 76.74 97.16999999999999 C 76.74 99.61999999999999 74.75 101.60999999999999 72.3 101.60999999999999 C 69.85 101.60999999999999 67.86 99.61999999999999 67.86 97.16999999999999 L 67.86 4.44 L 67.86 4.44 z M 122.16 48.35 C 122.19 48.4 122.22999999999999 48.46 122.25999999999999 48.51 L 122.16 48.35 L 122.16 48.35 z" stroke-linecap="round" />
</g>
</svg>