<svg width="32" height="32" viewBox="0 0 32 32" fill="none" xmlns="http://www.w3.org/2000/svg">
<circle cx="16" cy="16" r="14" fill="white"/>
<path d="M16 0.654999C7.53 0.654999 0.660004 7.525 0.660004 16.005C0.660004 24.475 7.53 31.345 16 31.345C24.4699 31.345 31.34 24.475 31.34 16.005C31.34 7.525 24.47 0.654999 16 0.654999ZM24.18 11.815C24.18 11.815 24.15 13.695 23.87 14.875C23.59 16.045 22.65 19.315 19.85 21.615C17.05 23.915 13.63 24.415 11.69 24.285C9.76 24.155 7.38 23.415 5.85 22.465C5.85 22.465 9.36 22.845 11.95 20.705C11.95 20.705 9.33 20.825 8.09 17.815C8.09 17.815 8.98 17.975 9.95 17.705C9.95 17.705 6.65 17.105 6.61 13.555C6.61 13.555 7.69 14.085 8.49 14.035C8.49 14.035 5.34 11.625 7.26 8.515C7.26 8.515 10.4099 12.695 15.89 12.855C14.56 9.185 20.52 5.7051 22.9699 9.045C22.9699 9.045 23.92 9.015 25.6599 8.075C25.6599 8.075 25.24 9.395 23.9099 10.275C23.9099 10.275 24.9099 10.265 26.14 9.735C26.05 9.875 25.3 11.025 24.18 11.815Z" fill="#4AA0EC"/>
</svg>
