<?xml version="1.0" encoding="utf-8"?>
<!-- Generator: Adobe Illustrator 26.1.0, SVG Export Plug-In . SVG Version: 6.00 Build 0)  -->
<svg version="1.1" id="Layer_1" xmlns="http://www.w3.org/2000/svg" xmlns:xlink="http://www.w3.org/1999/xlink" x="0px" y="0px"
	 viewBox="0 0 500 500" style="enable-background:new 0 0 500 500;" xml:space="preserve">
<style type="text/css">
	.st0{fill:#0C0C0E;}
</style>
<path class="st0" d="M416,309.8L257.7,41.2c-0.8-1.3-1.9-2.4-3.2-3.2c-1.3-0.8-2.9-1.2-4.4-1.2c-1.6,0-3.1,0.4-4.4,1.1
	c-1.4,0.8-2.5,1.8-3.3,3.2L195,121.6c-1.6,2.6-2.4,5.6-2.4,8.7c0,3,0.8,6,2.4,8.7l103.2,175.2c1.6,2.6,3.8,4.8,6.5,6.3
	c2.7,1.5,5.7,2.3,8.9,2.3h94.8c1.6,0,3.1-0.4,4.4-1.2c1.3-0.8,2.5-1.9,3.2-3.2c0.8-1.3,1.2-2.8,1.2-4.3
	C417.1,312.6,416.7,311.1,416,309.8z"/>
<path class="st0" d="M1.2,450.2l158.2-268.6c0.8-1.3,1.9-2.4,3.2-3.2c1.3-0.8,2.9-1.2,4.4-1.2s3.1,0.4,4.4,1.2
	c1.3,0.8,2.5,1.9,3.2,3.2l47.4,80.4c1.6,2.6,2.4,5.6,2.4,8.7c0,3-0.8,6-2.4,8.7L119,454.6c-1.5,2.6-3.8,4.8-6.5,6.3
	c-2.7,1.5-5.7,2.3-8.8,2.3H8.9c-1.6,0-3.1-0.4-4.5-1.2c-1.4-0.8-2.5-1.9-3.3-3.2c-0.8-1.3-1.2-2.8-1.2-4.4
	C0,453,0.4,451.5,1.2,450.2z"/>
<path class="st0" d="M174.7,463.2h316.4c1.6,0,3.1-0.4,4.4-1.2s2.5-1.9,3.2-3.2c0.8-1.3,1.2-2.8,1.2-4.3c0-1.5-0.4-3-1.2-4.3
	l-47.3-80.5c-1.6-2.6-3.8-4.8-6.5-6.3c-2.7-1.5-5.7-2.3-8.9-2.3H229.8c-3.1,0-6.2,0.8-8.9,2.3c-2.7,1.5-4.9,3.7-6.5,6.3l-47.4,80.5
	c-0.8,1.3-1.2,2.8-1.2,4.3c0,1.5,0.4,3,1.2,4.3c0.8,1.3,1.9,2.4,3.2,3.2C171.6,462.8,173.2,463.2,174.7,463.2z"/>
</svg>
