<?xml version="1.0" encoding="utf-8"?>
<!-- Generator: Adobe Illustrator 26.1.0, SVG Export Plug-In . SVG Version: 6.00 Build 0)  -->
<svg version="1.1" id="Layer_1" xmlns="http://www.w3.org/2000/svg" xmlns:xlink="http://www.w3.org/1999/xlink" x="0px" y="0px"
	 viewBox="0 0 500 500" style="enable-background:new 0 0 500 500;" xml:space="preserve">
<style type="text/css">
	.st0{fill:#FF875B;}
</style>
<path class="st0" d="M313.3,24H186.1c-4.3,0-7.7,3.5-7.8,7.9c-2.6,123.3-65.1,240.4-172.7,323.3c-3.4,2.6-4.2,7.6-1.7,11.1
	l74.4,106.3c2.5,3.6,7.5,4.4,10.9,1.8c67.3-51.5,121.4-113.7,160.4-182.5c39,68.9,93.1,131,160.4,182.5c3.5,2.7,8.4,1.8,10.9-1.8
	l74.4-106.3c2.5-3.6,1.7-8.5-1.7-11.1c-107.6-82.9-170.1-200-172.7-323.3C321,27.5,317.6,24,313.3,24z"/>
</svg>
