<?xml version="1.0" encoding="utf-8"?>
<!-- Generator: Adobe Illustrator 26.1.0, SVG Export Plug-In . SVG Version: 6.00 Build 0)  -->
<svg version="1.1" id="Layer_1" xmlns="http://www.w3.org/2000/svg" xmlns:xlink="http://www.w3.org/1999/xlink" x="0px" y="0px"
	 viewBox="0 0 500 500" style="enable-background:new 0 0 500 500;" xml:space="preserve">
<style type="text/css">
	.st0{fill:#25B135;}
</style>
<path id="Combined-Shape" class="st0" d="M442,118.5c16.9,36.8,20.5,44.4,33.5,81.9c7.5,23.5-7.5,58.4-69.1,28.8
	c-43.9-20.9-75.6-35.7-49.5-70.6c12.7-16.9,27.2-32.7,43.1-47C417,96.7,427.5,87.4,442,118.5z M427.4,354.4
	c32.3-31.7,77.1,3.8,45.8,46.3c-63.1,86.2-173.2,120.6-271.8,86S36.2,357.3,36.2,249C35.9,184,57.5,129.9,98.6,81.1
	c39.6-44.3,98.6-79.8,156.7-80.6c81.7,0,118.3,71.5,89.5,111.4c-32.2,44.3-69.6,40.7-97.4,21.7c0,0-38.3-27.1-49.6-36.2
	c-17.4-13.6-36.5-13.6-43.5,8.2c-12.2,38.9-18.2,63.3-27.8,102.3c-4.5,19.6-6.8,39.6-6.9,59.7c0.2,37,16.5,72,44.4,95
	c19.2,18.1,39.9,34.4,61.7,48.9c17.6,12,38.1,18.6,59.1,19h1.7c21-0.4,41.5-7,59.1-19C374.1,394.3,401.4,375.2,427.4,354.4z
	 M197.5,309.5c-11.6-4.2-37.9-27.2-30.1-44.2c3.1-9.3,25.5-11.9,32.5-11.9C240.7,252.7,242.3,325.7,197.5,309.5z M269.5,387.4
	c-5.2-4.7-14.8-14.1-23.6-21.9c-2.4-2.6-2.9-6.3-1.2-9.3c1.7-3,5.2-4.9,9-4.8c15.4-0.8,30.8-0.8,46.2,0c3.6,0.3,6.7,2.3,8,5.3
	s0.6,6.4-1.9,8.7c-8.7,7.8-18.3,17.2-22.7,21.9c-1.9,1.6-4.4,2.4-7,2.4C273.9,389.8,271.4,388.9,269.5,387.4z M361.4,309.5
	c-44.8,16.2-43.3-56.9-2.3-56c6.9,0,28.6,2.5,32.5,11.9C399.3,282.4,373,305.3,361.4,309.5z"/>
</svg>
