<?xml version="1.0" encoding="utf-8"?>
<!-- Generator: Adobe Illustrator 26.1.0, SVG Export Plug-In . SVG Version: 6.00 Build 0)  -->
<svg version="1.1" id="Layer_1" xmlns="http://www.w3.org/2000/svg" xmlns:xlink="http://www.w3.org/1999/xlink" x="0px" y="0px"
	 viewBox="0 0 500 500" style="enable-background:new 0 0 500 500;" xml:space="preserve">
<style type="text/css">
	.st0{fill:#3D89F5;}
	.st1{fill:#1656B9;}
	.st2{fill:#85B5F8;}
</style>
<path class="st0" d="M44.3,185.6l-22.7,22.7C-4.1,233-4.9,274,19.8,299.7c0.6,0.6,1.2,1.2,1.8,1.8l182.8,184.6
	c4.4,4.4,9.4,8.1,14.9,10.9V273.3L44.3,185.6z"/>
<path class="st1" d="M456.5,185.6l22.7,22.7c25.7,24.7,26.6,65.7,1.8,91.4c-0.6,0.6-1.2,1.2-1.8,1.8L296.4,486.1
	c-4.4,4.4-9.4,8.1-14.9,10.9V273.3C281.4,273.3,456.5,185.6,456.5,185.6z"/>
<path class="st2" d="M412.6,139.3L298.2,24.6c-25-25.7-66.1-26.4-91.8-1.4c-0.5,0.5-1,0.9-1.4,1.4L90.3,139.3l160.7,80.2
	C250.9,219.5,412.6,139.3,412.6,139.3z"/>
</svg>
