<?xml version="1.0" encoding="utf-8"?>
<!-- Generator: Adobe Illustrator 26.1.0, SVG Export Plug-In . SVG Version: 6.00 Build 0)  -->
<svg version="1.1" id="Layer_1" xmlns="http://www.w3.org/2000/svg" xmlns:xlink="http://www.w3.org/1999/xlink" x="0px" y="0px"
	 viewBox="0 0 500 500" style="enable-background:new 0 0 500 500;" xml:space="preserve">
<style type="text/css">
	.st0{fill:#8DC63F;}
	.st1{fill:#F9E988;}
	.st2{fill:#FFFFFF;}
	.st3{fill:#8BC53F;}
	.st4{fill:#009345;}
	.st5{fill:#58595B;}
</style>
<g id="Coin_Gecko_AI">
	<path class="st0" d="M500,248.9C500.6,387,389.2,499.4,251.1,500C113,500.6,0.6,389.2,0,251.1C-0.6,113,110.8,0.6,248.9,0l0,0
		C387-0.6,499.4,110.8,500,248.9C500,248.9,500,248.9,500,248.9z"/>
	<path class="st1" d="M481.2,249c0.6,127.7-102.4,231.7-230.1,232.3C123.5,482,19.5,379,18.8,251.3S121.2,19.5,248.9,18.9
		c0,0,0.1,0,0.1,0l0,0C376.6,18.4,480.6,121.3,481.2,249z"/>
	<path class="st2" d="M254.3,33.8c14.7-2.6,29.7-2.6,44.4,0c14.8,2.4,29.2,7.2,42.4,14.2c13.2,7.2,24.6,17.1,35.9,26.3
		s22.6,18.7,33.4,29c11,10.2,20.5,21.7,28.5,34.4c8.2,12.6,14.8,26.1,19.9,40.2c9.7,28.4,13,58.9,8.2,88.1h-1.4
		c-4.8-28.9-11.4-56.4-21.7-82.6c-4.9-13.2-10.6-26-17.1-38.4c-6.8-12.5-14.3-24.6-22.5-36.2c-8.3-11.7-18.5-22-30.1-30.4
		c-11.7-8.4-25.2-13.8-38.3-18.9s-26-10.4-39.6-14.3c-13.6-3.9-27.5-6.8-41.9-9.7L254.3,33.8z"/>
	<path class="st3" d="M367.3,167.4c-16.8-4.9-34.2-11.7-51.8-18.7c-1-4.4-4.9-9.9-12.8-16.6c-11.5-10-33.1-9.7-51.8-5.3
		c-20.6-4.9-41-6.6-60.5-1.8C30.5,169,121.1,276.4,62.4,384.4c8.4,17.7,98.4,121.1,228.6,93.4c0,0-44.5-107,56-158.4
		C428.6,277.5,487.5,200.1,367.3,167.4z"/>
	<path class="st2" d="M387,237.7c0,5.4-4.3,9.7-9.6,9.7c-5.4,0-9.7-4.3-9.7-9.6c0-5.4,4.3-9.7,9.6-9.7
		C382.6,228,387,232.3,387,237.7z"/>
	<path class="st4" d="M250.9,126.7c11.6,0.8,53.8,14.5,64.6,22C306.4,122.3,276,118.8,250.9,126.7L250.9,126.7z"/>
	<path class="st2" d="M262,193.1c0,24.7-20,44.7-44.7,44.7s-44.7-20-44.7-44.7c0-24.7,20-44.7,44.7-44.7l0,0
		C241.9,148.4,261.9,168.4,262,193.1L262,193.1z"/>
	<path class="st5" d="M248.7,193.5c0,17.4-14.1,31.4-31.4,31.4s-31.4-14.1-31.4-31.4s14.1-31.4,31.4-31.4l0,0l0,0
		C234.6,162,248.7,176.1,248.7,193.5z"/>
	<path class="st3" d="M423.2,257.4c-36.2,25.5-77.4,44.9-135.9,44.9c-27.4,0-32.9-29-51-14.8c-9.3,7.4-42.2,23.8-68.3,22.6
		s-68.4-16.5-80.2-72.3c-4.7,55.7-7.1,96.8-28.1,143.8c41.7,66.7,141,118.2,231.2,96c-9.6-67.7,49.6-133.9,82.8-167.8
		C386.5,296.9,410.6,276,423.2,257.4L423.2,257.4z"/>
	<path class="st5" d="M421.8,259.1c-11.2,10.3-24.6,17.8-38.3,24.5c-13.8,6.5-28.2,11.8-42.9,15.6c-14.8,3.8-30.2,6.7-45.8,5.3
		s-31.6-6.7-41.9-18.4l0.5-0.6c12.7,8.2,27.3,11.1,41.9,11.5c14.8,0.5,29.5-0.8,44-3.6c14.6-3.1,29-7.5,42.8-13.2
		c13.8-5.7,27.5-12.3,39.3-21.7L421.8,259.1z"/>
</g>
</svg>
