<?xml version="1.0" encoding="utf-8"?>
<!-- Generator: Adobe Illustrator 26.1.0, SVG Export Plug-In . SVG Version: 6.00 Build 0)  -->
<svg version="1.1" id="coinmarketcap" xmlns="http://www.w3.org/2000/svg" xmlns:xlink="http://www.w3.org/1999/xlink" x="0px"
	 y="0px" viewBox="0 0 500 500" style="enable-background:new 0 0 500 500;" xml:space="preserve">
<style type="text/css">
	.st0{fill-rule:evenodd;clip-rule:evenodd;fill:#17181B;}
</style>
<path class="st0" d="M432.2,298.8c-8.7,5.5-19,6.2-26.8,1.8c-9.9-5.6-15.4-18.7-15.4-36.9v-54.5c0-26.3-10.4-45.1-27.8-50.1
	c-29.5-8.6-51.7,27.5-60,41.1l-52,84.4V181.3c-0.6-23.7-8.3-37.9-22.9-42.2c-9.7-2.8-24.2-1.7-38.2,19.8L72.3,346.1
	c-15.6-29.6-23.7-62.6-23.7-96.1c0-112.8,90.4-204.5,201.5-204.5S451.6,137.2,451.6,250c0,0.2,0,0.4,0.1,0.5c0,0.2,0,0.4,0,0.6
	C452.7,273,445.6,290.3,432.2,298.8L432.2,298.8z M496.4,250L496.4,250v-0.6l0-0.6C495.7,111.5,385.5,0,250.1,0
	C114.3,0,3.9,112.1,3.9,250c0,137.8,110.5,250,246.3,250c62.3,0,121.8-23.7,167.4-66.7c9.1-8.5,9.6-22.9,1.2-32.1
	c-8.2-9.1-22.2-9.8-31.3-1.5c-0.1,0.1-0.2,0.2-0.3,0.3c-37,35-86,54.6-137,54.5c-59.5,0-113-26.3-149.9-68.1l105.2-168.9v77.8
	c0,37.4,14.5,49.5,26.7,53c12.2,3.5,30.8,1.1,50.3-30.6l57.8-93.8c1.9-3,3.6-5.6,5.1-7.9v47.4c0,35,14,62.9,38.4,76.7
	c22,12.4,49.7,11.3,72.2-2.9C483.2,320.1,497.9,288.3,496.4,250z"/>
</svg>
