<?xml version="1.0" encoding="utf-8"?>
<!-- Generator: Adobe Illustrator 26.1.0, SVG Export Plug-In . SVG Version: 6.00 Build 0)  -->
<svg version="1.1" id="Layer_1" xmlns="http://www.w3.org/2000/svg" xmlns:xlink="http://www.w3.org/1999/xlink" x="0px" y="0px"
	 viewBox="0 0 500 500" style="enable-background:new 0 0 500 500;" xml:space="preserve">
<path d="M228,498c-0.5,0-0.8,0.4-0.8,0.9c0,0.5,0.4,0.8,0.9,0.8c0.5,0,0.8-0.4,0.8-0.8C228.9,498.4,228.5,498,228,498z M204.4,489.8
	c-0.9,0-1.7,0.7-1.7,1.7c0,0,0,0,0,0c0,0.9,0.8,1.7,1.7,1.7c0.9,0,1.7-0.8,1.7-1.7C206.1,490.6,205.3,489.8,204.4,489.8
	C204.4,489.8,204.4,489.8,204.4,489.8z M181.6,479.2c-1.4,0.1-2.5,1.3-2.4,2.7c0.1,1.3,1.1,2.4,2.4,2.4c1.4,0.1,2.6-1,2.7-2.4
	c0.1-1.4-1-2.6-2.4-2.7C181.8,479.2,181.7,479.2,181.6,479.2z M160,466.2c-1.9,0-3.4,1.5-3.4,3.4c0,1.9,1.5,3.4,3.4,3.4
	c1.9,0,3.4-1.5,3.4-3.4C163.5,467.7,161.9,466.2,160,466.2C160,466.2,160,466.2,160,466.2z M139.8,451c-2.4,0-4.3,1.9-4.3,4.3
	c0,2.4,1.9,4.3,4.3,4.3c2.4,0,4.3-1.9,4.3-4.3c0,0,0,0,0,0C144.1,452.9,142.2,451,139.8,451z M121.3,433.7c-2.8,0-5.1,2.3-5.1,5.1
	c0,2.8,2.3,5.1,5.1,5.1c2.8,0,5.1-2.3,5.1-5.1C126.4,436,124.1,433.7,121.3,433.7C121.3,433.7,121.3,433.7,121.3,433.7z
	 M104.5,414.6c-3.3,0-6,2.7-5.9,6c0,3.3,2.7,6,6,5.9c3.3,0,5.9-2.7,5.9-6C110.5,417.3,107.9,414.6,104.5,414.6
	C104.5,414.6,104.5,414.6,104.5,414.6z M89.8,393.8c-3.8,0-6.8,3.1-6.8,6.8c0,3.8,3.1,6.8,6.8,6.8c3.8,0,6.8-3.1,6.8-6.8l0,0
	C96.7,396.9,93.6,393.8,89.8,393.8C89.8,393.8,89.8,393.8,89.8,393.8z M85.4,379c0-4.2-3.4-7.7-7.7-7.7c-4.2,0-7.7,3.4-7.7,7.7
	c0,4.2,3.4,7.7,7.7,7.7C82,386.7,85.4,383.2,85.4,379z M77.2,355.9c0-4.7-3.8-8.5-8.5-8.5c-4.7,0-8.5,3.8-8.5,8.5
	c0,4.7,3.8,8.5,8.5,8.5C73.4,364.5,77.2,360.6,77.2,355.9L77.2,355.9z M72.1,331.9c0-5.2-4.2-9.4-9.4-9.4s-9.4,4.2-9.4,9.4
	s4.2,9.4,9.4,9.4C67.9,341.3,72.1,337.1,72.1,331.9z M70.1,307.3c0-5.7-4.6-10.2-10.2-10.3c-5.7,0-10.2,4.6-10.3,10.2
	c0,5.7,4.6,10.2,10.2,10.3c0,0,0,0,0,0C65.5,317.5,70.1,313,70.1,307.3C70.1,307.3,70.1,307.3,70.1,307.3z M60.3,293.6
	c6.1,0,11.1-5,11.1-11.1c0-6.1-5-11.1-11.1-11.1s-11.1,5-11.1,11.1C49.3,288.7,54.2,293.6,60.3,293.6z"/>
<path d="M52.1,258c0,6.6,5.4,11.9,12,11.9S76,264.6,76,258c0-6.6-5.4-11.9-12-11.9C57.4,246.1,52.1,251.4,52.1,258
	C52.1,258,52.1,258,52.1,258z M410.6,441c-0.4,0-0.8,0.3-0.8,0.8c0,0.4,0.3,0.8,0.8,0.8c0.4,0,0.8-0.3,0.8-0.8c0,0,0,0,0,0
	C411.4,441.3,411,441,410.6,441z M388.7,451.8c-0.8,0-1.5,0.6-1.5,1.5c0,0,0,0,0,0c0,0.8,0.6,1.6,1.4,1.6c0.8,0,1.6-0.6,1.6-1.4
	c0-0.1,0-0.1,0-0.2C390.2,452.4,389.5,451.7,388.7,451.8z M365.7,460.2c-1.3,0-2.3,1-2.3,2.3c0,1.3,1,2.3,2.3,2.3
	c1.3,0,2.3-1,2.3-2.3C367.9,461.2,366.9,460.2,365.7,460.2L365.7,460.2z M341.8,466.1c-1.7,0.1-3,1.5-2.9,3.1
	c0.1,1.6,1.3,2.8,2.9,2.9c1.7,0.1,3.1-1.2,3.1-2.9s-1.2-3.1-2.9-3.1C342,466.1,341.9,466.1,341.8,466.1z M317.4,469.5
	c-2.1,0-3.8,1.7-3.8,3.7c0,2.1,1.7,3.8,3.7,3.8c2.1,0,3.8-1.7,3.8-3.7c0,0,0,0,0,0C321.1,471.2,319.5,469.5,317.4,469.5L317.4,469.5
	z M292.7,470.2c-2.5,0-4.5,2-4.5,4.5s2,4.5,4.5,4.5c2.5,0,4.5-2,4.5-4.5C297.2,472.3,295.2,470.2,292.7,470.2
	C292.7,470.2,292.7,470.2,292.7,470.2z M267.9,468.4c-2.9,0-5.3,2.4-5.3,5.3c0,2.9,2.4,5.3,5.3,5.3c2.9,0,5.3-2.4,5.3-5.3
	C273.2,470.8,270.8,468.4,267.9,468.4C267.9,468.4,267.9,468.4,267.9,468.4z M243.4,464c-3.3,0-6,2.7-6,6c0,3.3,2.7,6,6,6
	c3.3,0,6-2.7,6-6c0,0,0,0,0,0C249.4,466.6,246.7,464,243.4,464z M219.6,456.4c-3.7,0-6.8,3-6.8,6.8c0,3.7,3,6.8,6.8,6.8
	c3.7,0,6.8-3,6.8-6.8C226.4,459.4,223.3,456.4,219.6,456.4z M196.9,445.8c-4.2,0-7.5,3.4-7.6,7.5c0,4.2,3.4,7.5,7.5,7.6
	c4.2,0,7.5-3.4,7.6-7.5c0,0,0,0,0,0C204.4,449.2,201,445.8,196.9,445.8L196.9,445.8z M183.9,440.6c0-4.6-3.7-8.3-8.3-8.3
	c-4.6,0-8.3,3.7-8.3,8.3s3.7,8.3,8.3,8.3l0,0C180.2,448.9,183.9,445.2,183.9,440.6C183.9,440.6,183.9,440.6,183.9,440.6z
	 M156.3,416.1c-5,0-9,4-9.1,9c0,5,4,9,9,9.1c5,0,9-4,9.1-9c0,0,0,0,0,0C165.3,420.2,161.3,416.1,156.3,416.1z M139.1,397.5
	c-5.4,0-9.8,4.4-9.8,9.8c0,5.4,4.4,9.8,9.8,9.8c5.4,0,9.8-4.4,9.8-9.8c0,0,0,0,0,0C148.9,401.9,144.5,397.5,139.1,397.5z M124.4,398
	c5.8,0,10.6-4.7,10.6-10.6c0-5.8-4.7-10.6-10.6-10.6c-5.8,0-10.6,4.7-10.6,10.6c0,0,0,0,0,0C113.8,393.2,118.5,397.9,124.4,398
	C124.3,398,124.3,398,124.4,398z M123.6,365.7c0-6.2-5.1-11.3-11.3-11.3s-11.3,5.1-11.3,11.3c0,6.2,5.1,11.3,11.3,11.3
	C118.6,377,123.6,372,123.6,365.7z M499.3,271.5c-0.4,0-0.7,0.3-0.7,0.7c0,0.4,0.3,0.7,0.7,0.7c0.4,0,0.7-0.3,0.7-0.7c0,0,0,0,0,0
	C500,271.8,499.7,271.5,499.3,271.5C499.3,271.5,499.3,271.5,499.3,271.5z M492,294.5c-0.7,0-1.3,0.6-1.4,1.3c0,0.7,0.6,1.3,1.3,1.4
	c0.7,0,1.3-0.6,1.4-1.3c0,0,0,0,0,0C493.3,295.1,492.7,294.5,492,294.5C492,294.5,492,294.5,492,294.5z M482.2,316.6
	c-1.1,0-2,0.9-2,2c0,1.1,0.9,2,2,2c1.1,0,2-0.9,2-2C484.2,317.5,483.3,316.6,482.2,316.6C482.2,316.6,482.2,316.6,482.2,316.6z
	 M470,337.5c-1.5,0-2.7,1.2-2.7,2.7c0,1.5,1.2,2.7,2.7,2.7c1.5,0,2.7-1.2,2.7-2.7C472.7,338.7,471.5,337.5,470,337.5
	C470,337.5,470,337.5,470,337.5z M455.7,357c-1.9,0-3.4,1.5-3.3,3.4c0,1.9,1.5,3.4,3.4,3.3c1.8,0,3.3-1.5,3.3-3.4
	C459.1,358.5,457.5,357,455.7,357C455.7,357,455.7,357,455.7,357z M439.3,374.9c-2.2,0-4.1,1.8-4.1,4c0,2.2,1.8,4.1,4,4.1
	c2.2,0,4.1-1.8,4.1-4c0,0,0,0,0,0C443.3,376.7,441.5,374.9,439.3,374.9C439.3,374.9,439.3,374.9,439.3,374.9z M421,391
	c-2.6,0-4.7,2.1-4.7,4.7c0,2.6,2.1,4.7,4.7,4.7c2.6,0,4.7-2.1,4.7-4.7C425.7,393.1,423.6,391,421,391C421,391,421,391,421,391z
	 M401.1,405c-3,0-5.4,2.4-5.4,5.4s2.4,5.4,5.4,5.4s5.4-2.4,5.4-5.4c0,0,0,0,0,0C406.4,407.5,404,405,401.1,405z M379.4,416.4
	c-3.4,0-6.1,2.7-6.1,6.1c0,3.4,2.7,6.1,6.1,6.1c3.4,0,6.1-2.7,6.1-6.1c0,0,0,0,0,0C385.5,419.1,382.8,416.4,379.4,416.4z
	 M356.4,424.8c-3.7,0-6.8,3-6.8,6.7c0,3.7,3,6.8,6.7,6.8c3.7,0,6.8-3,6.8-6.7c0,0,0,0,0,0C363.1,427.8,360.1,424.8,356.4,424.8z
	 M332.3,430.1c-4.1,0-7.4,3.3-7.4,7.4c0,4.1,3.3,7.4,7.4,7.4c4.1,0,7.4-3.3,7.4-7.4c0,0,0,0,0,0
	C339.8,433.5,336.4,430.2,332.3,430.1z M307.7,432.2c-4.5,0-8.1,3.6-8.1,8.1c0,4.5,3.6,8.1,8.1,8.1c4.5,0,8.1-3.6,8.1-8.1
	C315.8,435.9,312.2,432.2,307.7,432.2z M291.7,439.9c0-4.8-3.9-8.8-8.8-8.8c-4.8,0-8.8,3.9-8.8,8.8c0,4.8,3.9,8.8,8.8,8.8l0,0
	C287.8,448.7,291.7,444.7,291.7,439.9z M267.9,436.2c0-5.2-4.2-9.5-9.4-9.5c-5.2,0-9.5,4.2-9.5,9.4c0,5.2,4.2,9.5,9.4,9.5
	C263.7,445.7,267.9,441.5,267.9,436.2C267.9,436.2,267.9,436.2,267.9,436.2z M244.8,429.4c0-5.6-4.5-10.2-10.2-10.2
	s-10.2,4.5-10.2,10.2s4.5,10.2,10.2,10.2C240.2,439.5,244.8,435,244.8,429.4C244.8,429.4,244.8,429.4,244.8,429.4z M222.7,419.5
	c0-6-4.8-10.8-10.8-10.8c-6,0-10.8,4.8-10.8,10.8c0,6,4.8,10.8,10.8,10.8c0,0,0,0,0,0C217.9,430.3,222.7,425.5,222.7,419.5
	C222.7,419.5,222.7,419.5,222.7,419.5z M442.2,90.3c0.4,0,0.7-0.2,0.7-0.6c0-0.4-0.2-0.7-0.6-0.7c0,0-0.1,0-0.1,0
	c-0.4,0-0.6,0.4-0.6,0.7C441.6,90,441.8,90.3,442.2,90.3z M453.7,112.9c0.7,0,1.4-0.6,1.4-1.4c0-0.7-0.6-1.4-1.4-1.4
	c-0.7,0-1.4,0.6-1.4,1.3C452.3,112.3,452.9,112.9,453.7,112.9C453.7,112.9,453.7,112.9,453.7,112.9z M462.8,136.6c1.1,0,2-0.9,2-2
	c0-1.1-0.9-2-2-2c-1.1,0-2,0.9-2,2c0,0,0,0,0,0C460.8,135.7,461.7,136.6,462.8,136.6C462.8,136.6,462.8,136.6,462.8,136.6z
	 M469.5,161.1c1.5,0,2.7-1.2,2.7-2.7s-1.2-2.7-2.7-2.7c-1.5,0-2.7,1.2-2.7,2.7c0,0,0,0,0,0C466.8,159.9,468,161.1,469.5,161.1
	C469.5,161.1,469.5,161.1,469.5,161.1z M470.3,182.9c0,1.9,1.5,3.4,3.4,3.4c1.9,0,3.4-1.5,3.4-3.4c0-1.9-1.5-3.4-3.4-3.4
	C471.8,179.5,470.3,181,470.3,182.9z M475.2,203.5c-2.2,0-4,1.8-4,4.1c0,2.2,1.8,4,4.1,4c2.2,0,4-1.8,4-4
	C479.3,205.3,477.4,203.5,475.2,203.5L475.2,203.5z M474.1,227.6c-2.6,0-4.7,2.1-4.7,4.7s2.1,4.7,4.7,4.7c2.6,0,4.7-2.1,4.7-4.7
	c0,0,0,0,0,0C478.9,229.7,476.8,227.6,474.1,227.6C474.1,227.6,474.1,227.6,474.1,227.6z M470.4,251.4c-3,0-5.4,2.4-5.4,5.4
	c0,3,2.4,5.4,5.4,5.4c3,0,5.4-2.4,5.4-5.4C475.8,253.9,473.4,251.4,470.4,251.4C470.4,251.4,470.4,251.4,470.4,251.4L470.4,251.4z
	 M469.7,280.7c0-3.4-2.7-6.1-6.1-6.1c-3.4,0-6.1,2.7-6.1,6.1c0,3.4,2.7,6.1,6.1,6.1c0,0,0,0,0,0C467,286.8,469.7,284,469.7,280.7
	C469.7,280.7,469.7,280.7,469.7,280.7z M453.8,296.6c-3.7,0-6.8,3-6.8,6.8s3,6.8,6.8,6.8s6.8-3,6.8-6.8l0,0
	C460.5,299.7,457.5,296.6,453.8,296.6C453.8,296.6,453.8,296.6,453.8,296.6z M441,317.2c-4.1,0-7.4,3.3-7.4,7.4
	c0,4.1,3.3,7.4,7.4,7.4c4.1,0,7.4-3.3,7.4-7.4C448.4,320.5,445.1,317.2,441,317.2C441,317.2,441,317.2,441,317.2z M425.6,335.9
	c-4.5,0-8.1,3.6-8.1,8.1c0,4.5,3.6,8.1,8.1,8.1c4.5,0,8.1-3.6,8.1-8.1c0,0,0,0,0,0C433.7,339.5,430,335.9,425.6,335.9
	C425.6,335.9,425.6,335.9,425.6,335.9z M407.7,352.4c-4.8,0-8.8,3.9-8.8,8.8s3.9,8.8,8.8,8.8s8.8-3.9,8.8-8.8l0,0
	C416.5,356.3,412.6,352.4,407.7,352.4z M387.8,366.4c-5.2,0-9.4,4.2-9.4,9.5c0,5.2,4.2,9.4,9.5,9.4c5.2,0,9.4-4.2,9.4-9.4
	C397.3,370.7,393.1,366.5,387.8,366.4C387.8,366.4,387.8,366.4,387.8,366.4z M366.2,377.8c-5.6,0-10.1,4.5-10.1,10.1
	c0,5.6,4.5,10.1,10.1,10.1c5.6,0,10.1-4.5,10.1-10.1C376.3,382.3,371.8,377.8,366.2,377.8C366.2,377.8,366.2,377.8,366.2,377.8z
	 M343.1,386.2c-6,0-10.8,4.8-10.8,10.8c0,6,4.8,10.8,10.8,10.8c6,0,10.8-4.8,10.8-10.8C353.9,391,349.1,386.2,343.1,386.2z
	 M272.7,1.6c0.4,0,0.7-0.3,0.7-0.7s-0.3-0.7-0.7-0.7c-0.4,0-0.7,0.3-0.7,0.7C272,1.3,272.3,1.6,272.7,1.6
	C272.7,1.6,272.7,1.6,272.7,1.6z M296.3,9.6c0.7,0,1.3-0.6,1.3-1.4s-0.6-1.3-1.4-1.3c-0.7,0-1.3,0.6-1.3,1.3
	C294.9,9,295.6,9.6,296.3,9.6C296.3,9.6,296.3,9.6,296.3,9.6z M319.1,20.1c1.1,0,2-0.9,2-2c0-1.1-0.9-2-2-2c-1.1,0-2,0.9-2,2
	c0,0,0,0,0,0C317,19.2,317.9,20.1,319.1,20.1z M340.7,32.9c1.5,0,2.7-1.2,2.7-2.7c0-1.5-1.2-2.7-2.7-2.7c-1.5,0-2.7,1.2-2.7,2.7
	C337.9,31.7,339.2,32.9,340.7,32.9C340.6,32.9,340.7,32.9,340.7,32.9z M360.8,47.9c1.9,0,3.4-1.5,3.4-3.4c0-1.9-1.5-3.4-3.4-3.4
	c-1.9,0-3.4,1.5-3.4,3.4c0,0,0,0,0,0C357.5,46.4,359,47.9,360.8,47.9C360.8,47.9,360.8,47.9,360.8,47.9z M379.4,65
	c2.2,0,4.1-1.8,4.1-4c0-2.2-1.8-4.1-4-4.1c-2.2,0-4.1,1.8-4.1,4c0,0,0,0,0,0C375.4,63.2,377.2,65,379.4,65z M396.2,84
	c2.6,0,4.7-2.1,4.7-4.7c0-2.6-2.1-4.7-4.7-4.7s-4.7,2.1-4.7,4.7c0,0,0,0,0,0C391.4,81.9,393.6,84,396.2,84z M410.9,104.6
	c3,0,5.4-2.4,5.4-5.4c0-3-2.4-5.4-5.4-5.4c-3,0-5.4,2.4-5.4,5.4C405.5,102.2,407.9,104.6,410.9,104.6
	C410.9,104.6,410.9,104.6,410.9,104.6z M422.9,126.9c3.4,0,6.1-2.7,6-6.1s-2.7-6.1-6.1-6c-3.3,0-6,2.7-6,6.1
	C416.8,124.2,419.6,126.9,422.9,126.9C422.9,126.9,422.9,126.9,422.9,126.9z M425.3,143.8c0,3.7,3,6.8,6.7,6.8c3.7,0,6.8-3,6.8-6.7
	c0-3.7-3-6.8-6.7-6.8c0,0,0,0,0,0C428.3,137.1,425.3,140.1,425.3,143.8C425.3,143.8,425.3,143.8,425.3,143.8z M430.6,167.9
	c0,4.1,3.3,7.4,7.4,7.4c4.1,0,7.4-3.3,7.4-7.4c0-4.1-3.3-7.4-7.4-7.4C433.9,160.5,430.6,163.8,430.6,167.9
	C430.6,167.9,430.6,167.9,430.6,167.9z M432.7,192.5c0,4.5,3.6,8.1,8.1,8.1c4.5,0,8.1-3.6,8.1-8.1c0-4.5-3.6-8.1-8.1-8.1
	c0,0,0,0,0,0C436.3,184.4,432.7,188,432.7,192.5C432.7,192.5,432.7,192.5,432.7,192.5z M449.1,217.3c0-4.8-3.9-8.8-8.8-8.8
	c-4.8,0-8.8,3.9-8.8,8.8s3.9,8.8,8.8,8.8l0,0C445.2,226,449.1,222.1,449.1,217.3z M446.1,241.8c0-5.2-4.2-9.5-9.5-9.4
	c-5.2,0-9.5,4.2-9.4,9.5c0,5.2,4.2,9.5,9.5,9.4c0,0,0,0,0,0C441.9,251.2,446.1,247,446.1,241.8z M440,265.6
	c0-5.6-4.5-10.1-10.1-10.1c-5.6,0-10.1,4.5-10.1,10.1c0,5.6,4.5,10.1,10.1,10.1C435.4,275.7,439.9,271.2,440,265.6
	C440,265.6,440,265.6,440,265.6z M419.9,277.5c-6,0-10.8,4.9-10.8,10.8c0,6,4.9,10.8,10.8,10.8c6,0,10.8-4.8,10.8-10.8
	C430.7,282.3,425.9,277.5,419.9,277.5C419.9,277.5,419.9,277.5,419.9,277.5z M90.1,58.7c0.4,0,0.7-0.3,0.7-0.7
	c0-0.4-0.3-0.7-0.7-0.7c-0.4,0-0.7,0.3-0.7,0.7l0,0C89.4,58.4,89.7,58.7,90.1,58.7C90.1,58.7,90.1,58.7,90.1,58.7z M112,47.9
	c0.7,0,1.3-0.6,1.3-1.4c0-0.7-0.6-1.3-1.4-1.3c-0.7,0-1.3,0.6-1.3,1.4C110.6,47.3,111.2,47.9,112,47.9C112,47.9,112,47.9,112,47.9z
	 M135,39.4c1.1,0,2-0.9,2.1-2c0-1.1-0.9-2-2-2.1c-1.1,0-2,0.9-2.1,2c0,0,0,0,0,0C133,38.5,133.9,39.4,135,39.4z M158.9,33.4
	c1.5,0,2.7-1.2,2.7-2.7c0-1.5-1.2-2.7-2.7-2.7c-1.5,0-2.7,1.2-2.7,2.7C156.1,32.2,157.3,33.4,158.9,33.4
	C158.8,33.4,158.9,33.4,158.9,33.4z M183.3,29.9c1.9,0,3.4-1.5,3.4-3.4c0-1.9-1.5-3.4-3.4-3.4c-1.9,0-3.4,1.5-3.4,3.4
	C179.9,28.4,181.4,29.9,183.3,29.9C183.3,29.9,183.3,29.9,183.3,29.9z M208,29.1c2.2,0,4.1-1.8,4-4.1s-1.8-4.1-4.1-4
	c-2.2,0-4.1,1.8-4,4.1C203.9,27.3,205.7,29.1,208,29.1C208,29.1,208,29.1,208,29.1z M232.8,30.8c2.6,0,4.7-2.1,4.7-4.7
	c0-2.6-2.1-4.7-4.7-4.7c-2.6,0-4.7,2.1-4.7,4.7c0,0,0,0,0,0C228,28.7,230.1,30.8,232.8,30.8C232.7,30.8,232.8,30.8,232.8,30.8z
	 M257.3,35.2c3,0,5.4-2.4,5.4-5.4c0-3-2.4-5.4-5.4-5.4c-3,0-5.4,2.4-5.4,5.4C251.9,32.8,254.3,35.2,257.3,35.2
	C257.2,35.2,257.3,35.2,257.3,35.2z M281.1,42.7c3.4,0,6.1-2.7,6.1-6.1s-2.7-6.1-6.1-6.1c-3.4,0-6.1,2.7-6.1,6.1
	C275,39.9,277.7,42.7,281.1,42.7z M303.8,53.2c3.7,0,6.8-3,6.8-6.7c0-3.7-3-6.8-6.7-6.8c-3.7,0-6.8,3-6.8,6.7c0,0,0,0,0,0
	C297.1,50.2,300.1,53.2,303.8,53.2C303.8,53.2,303.8,53.2,303.8,53.2z M317.6,59.2c0,4.1,3.3,7.4,7.4,7.4c4.1,0,7.4-3.3,7.4-7.4
	s-3.3-7.4-7.4-7.4c0,0,0,0,0,0C321,51.8,317.6,55.1,317.6,59.2C317.6,59.2,317.6,59.2,317.6,59.2z M344.4,82.8
	c4.5,0,8.1-3.6,8.1-8.1c0-4.5-3.6-8.1-8.1-8.1c-4.5,0-8.1,3.6-8.1,8.1C336.3,79.1,339.9,82.8,344.4,82.8
	C344.4,82.8,344.4,82.8,344.4,82.8L344.4,82.8z M361.6,101.3c4.8,0,8.8-3.9,8.8-8.8c0-4.8-3.9-8.8-8.8-8.8s-8.8,3.9-8.8,8.8l0,0
	C352.9,97.3,356.8,101.3,361.6,101.3z M376.3,103c-5.2,0-9.5,4.2-9.5,9.5c0,5.2,4.2,9.5,9.5,9.5c5.2,0,9.5-4.2,9.5-9.5c0,0,0,0,0,0
	C385.8,107.2,381.6,103,376.3,103C376.3,103,376.3,103,376.3,103z M378.2,134.1c0,5.6,4.5,10.1,10.1,10.1c5.6,0,10.1-4.5,10.1-10.1
	c0-5.6-4.5-10.1-10.1-10.1C382.7,123.9,378.2,128.5,378.2,134.1C378.2,134.1,378.2,134.1,378.2,134.1z M386.6,157.1
	c0,6,4.8,10.8,10.8,10.8c6,0,10.8-4.8,10.8-10.8c0-6-4.8-10.8-10.8-10.8C391.5,146.3,386.6,151.1,386.6,157.1z M403.4,169.7
	c-6.3,0-11.5,5.1-11.5,11.5c0,6.3,5.1,11.5,11.5,11.5c6.3,0,11.5-5.1,11.5-11.5c0,0,0,0,0,0C414.8,174.8,409.7,169.7,403.4,169.7z
	 M1.4,226.3c-0.7,0-1.3,0.5-1.3,1.2s0.5,1.3,1.2,1.3c0.1,0,0.1,0,0.2,0c0.7,0,1.3-0.5,1.3-1.2s-0.5-1.3-1.2-1.3
	C1.5,226.3,1.4,226.3,1.4,226.3z M8.7,201.4c-1.4,0-2.6,1.1-2.6,2.5c0,1.4,1.1,2.6,2.5,2.6c1.4,0,2.6-1.1,2.6-2.5c0,0,0,0,0,0
	C11.3,202.5,10.1,201.4,8.7,201.4z M22.4,181.2c0-2.1-1.7-3.8-3.8-3.8s-3.8,1.7-3.8,3.8c0,2.1,1.7,3.8,3.8,3.8c0,0,0,0,0,0
	C20.6,185,22.3,183.3,22.4,181.2z M30.7,164.7c2.8,0,5.1-2.3,5.1-5.1c0-2.8-2.3-5.1-5.1-5.1s-5.1,2.3-5.1,5.1l0,0
	C25.6,162.4,27.9,164.7,30.7,164.7z M45,145.8c3.5,0,6.4-2.8,6.4-6.4c0-3.5-2.8-6.4-6.4-6.4c-3.5,0-6.4,2.8-6.4,6.4c0,0,0,0,0,0
	C38.6,142.9,41.5,145.8,45,145.8C45,145.8,45,145.8,45,145.8z M61.4,128.5c4.2,0,7.6-3.4,7.6-7.6c0-4.2-3.4-7.6-7.6-7.6
	s-7.6,3.4-7.6,7.6C53.8,125,57.2,128.5,61.4,128.5C61.4,128.5,61.4,128.5,61.4,128.5z M79.7,113c4.9,0,8.9-4,8.9-8.9
	c0-4.9-4-8.9-8.9-8.9c-4.9,0-8.9,4-8.9,8.9c0,0,0,0,0,0C70.8,109,74.7,113,79.7,113L79.7,113z M99.6,99.6c5.6,0,10.2-4.5,10.2-10.2
	c0-5.6-4.5-10.2-10.2-10.2c-5.6,0-10.2,4.5-10.2,10.2c0,0,0,0,0,0C89.4,95,94,99.5,99.6,99.6z M121.1,88.6c6.3,0,11.5-5.1,11.5-11.5
	c0-6.3-5.1-11.5-11.5-11.5c-6.3,0-11.5,5.1-11.5,11.5C109.7,83.5,114.8,88.6,121.1,88.6C121.1,88.6,121.1,88.6,121.1,88.6z"/>
<path d="M144.1,80.6c6.3,0,11.6-4.6,12.5-10.9c4.4,6.3,13.1,7.9,19.4,3.5c1.9-1.3,3.4-3.1,4.5-5.1c5.1,6.7,14.6,8.1,21.3,3
	c0.8-0.6,1.5-1.2,2.1-1.9c5.2,7.4,15.5,9.2,22.9,4c0.6,1,1.3,1.9,2.1,2.8c-4.1,0.4-7.9,2.2-10.9,5c-7.2-6.6-18.4-6.1-25,1.1
	c-0.4,0.5-0.9,1-1.3,1.5c-2.9-2.3-6.6-3.6-10.3-3.6c-6.5,0-12.4,3.8-15.2,9.7c-7.2-4.9-17-3-21.9,4.2c-1.1,1.6-1.9,3.4-2.3,5.3
	c-7-4.2-16.1-2-20.3,4.9c-1.4,2.3-2.2,5-2.2,7.7v0.1c-6.6-3.8-15-1.6-18.8,5c-1.2,2.1-1.9,4.5-1.8,6.9c0,1.3,0.2,2.6,0.5,3.8
	c-2-1.2-4.3-1.9-6.7-1.9c-7.1,0-12.8,5.7-12.8,12.8c0,7.1,5.7,12.8,12.8,12.8c7.1,0,12.8-5.7,12.8-12.8l0,0c0-1.1-0.2-2.1-0.4-3.2
	c6.4,4.2,14.9,2.4,19.1-4c1.4-2.1,2.2-4.6,2.2-7.1c2.4,1.5,5.1,2.3,7.9,2.3c0.3,0,0.5,0,0.8,0c-3.2,2.9-5.2,6.9-5.5,11.2
	c-8.8-1.7-17.3,4.1-18.9,12.9c-0.2,1-0.3,2-0.3,3c0,0.6,0,1.3,0.1,1.9c-0.6-0.1-1.2-0.1-1.8-0.1c-8.5,0-15.4,6.9-15.4,15.3
	c0,0,0,0,0,0c0,1.7,0.3,3.3,0.8,4.9c-0.3,0-0.6,0-0.9,0c-8,0-14.5,6.5-14.5,14.5c0,2.7,0.7,5.3,2.1,7.6c-0.1,0-0.3,0-0.4,0
	c-7.5,0-13.6,6.1-13.7,13.6c0,3.8,1.6,7.4,4.3,10c-0.2,0-0.4-0.1-0.6-0.1c-7.1,0-12.9,5.7-12.9,12.8c0,7.1,5.7,12.9,12.8,12.9
	c7.1,0,12.9-5.7,12.9-12.8c0-3.5-1.4-6.8-3.8-9.2c0.3,0,0.6,0,0.9,0c3.8,0,7.4-1.6,10-4.4v0.5c0,3.4,1.1,6.7,3.1,9.4
	c-7.8,2.8-11.9,11.4-9.1,19.2c0.9,2.5,2.4,4.7,4.4,6.4c-7.2,3.3-10.4,11.8-7.1,19c1.3,2.9,3.6,5.3,6.4,6.7c-6.7,3.4-9.4,11.5-6,18.2
	c1.8,3.6,5.2,6.2,9.1,7.1c-6.3,3.2-8.8,10.9-5.7,17.2c2.2,4.3,6.6,7.1,11.4,7c0.8,0,1.6-0.1,2.4-0.2c-6.2,2.1-9.6,8.8-7.5,15.1
	c2.1,6.2,8.8,9.6,15.1,7.5c6.2-2.1,9.6-8.8,7.5-15.1c-1.6-4.9-6.3-8.2-11.4-8.1c-0.7,0-1.5,0.1-2.2,0.2c5.4-1.6,9-6.6,9.1-12.2
	c0-0.3-0.1-0.6-0.1-0.9c2,2.2,4.7,3.8,7.6,4.4c-5.1,5.9-4.4,14.9,1.6,19.9c2.6,2.2,5.8,3.4,9.2,3.4h0.3c-4.4,6-3,14.5,3,18.8
	c2.3,1.7,5.1,2.6,8,2.6c1.3,0,2.6-0.2,3.9-0.6c-3.9,5.9-2.3,13.9,3.6,17.8c2.1,1.4,4.6,2.1,7.1,2.1c2.9,0,5.7-1,8-2.9
	c-4.4,5.1-3.8,12.7,1.3,17.1s12.7,3.8,17.1-1.3c4.1-4.7,3.9-11.8-0.4-16.3c1.6,0,3.2-0.3,4.7-0.8v0.2c0,5.6,3.1,10.7,8.1,13.2
	c-0.7-0.2-1.5-0.2-2.2-0.2c-6.4,0-11.6,5.1-11.7,11.5c0,6.4,5.1,11.6,11.5,11.7c6.4,0,11.6-5.1,11.7-11.5c0-4.3-2.3-8.3-6.1-10.3
	c1.2,0.3,2.4,0.5,3.6,0.5c2.8,0,5.5-0.8,7.8-2.2c0.6,7.8,7.5,13.6,15.3,13c3.5-0.3,6.7-1.8,9.1-4.3c1.2,7.4,8.1,12.4,15.4,11.2
	c4.2-0.7,7.8-3.2,9.8-7c1.4,6.9,8.2,11.4,15.1,10c5.5-1.1,9.6-5.6,10.2-11.2c0.5,6.7,6.2,11.7,12.9,11.3c6.7-0.5,11.7-6.2,11.3-12.9
	c-0.4-6.3-5.6-11.2-11.8-11.3c1.1-1.2,2-2.5,2.7-3.9c3.9,4,9.8,5.5,15.1,3.8c-5.3,3.6-6.6,10.7-3.1,15.9c3.6,5.3,10.7,6.6,15.9,3.1
	c5.3-3.6,6.6-10.7,3.1-15.9c-2.1-3.1-5.7-5-9.5-5c-1.1,0-2.2,0.2-3.3,0.5c3.4-2.1,5.9-5.5,6.8-9.4c2.5,2.2,5.8,3.4,9.1,3.4
	c7.8,0,14.2-6.3,14.2-14.2c0-0.1,0-0.2,0-0.3c2.3,1.7,5.1,2.6,7.9,2.6c7.5,0,13.5-6,13.5-13.5c0,0,0,0,0,0c0-1.3-0.2-2.7-0.6-3.9
	c5.8,4,13.8,2.4,17.8-3.4c3.2-4.7,2.9-10.9-0.7-15.2c2.2,1.9,5,3,7.9,3c6.7,0,12.2-5.4,12.2-12.2s-5.4-12.2-12.2-12.2l0,0
	c-3.1,0-6.1,1.2-8.4,3.4c0-1.6-0.3-3.2-0.8-4.7h0.1c5.6,0,10.7-3.1,13.2-8.1c-0.1,0.7-0.2,1.5-0.2,2.2c-0.1,6.4,5.1,11.7,11.5,11.8
	c6.4,0.1,11.7-5.1,11.8-11.5c0.1-6.4-5.1-11.7-11.5-11.8c-4.3-0.1-8.3,2.3-10.3,6.1c0.3-1.2,0.5-2.4,0.5-3.6c0-2.8-0.8-5.5-2.3-7.8
	c7.8-0.6,13.6-7.5,13-15.3c-0.3-3.5-1.8-6.7-4.3-9.1c7.4-1.2,12.4-8.1,11.2-15.5c-0.7-4.2-3.2-7.8-6.9-9.8c6.9-1.4,11.4-8.1,10-15
	c-1.1-5.5-5.7-9.6-11.2-10.2c6.7-0.4,11.9-6.2,11.4-13c-0.4-6.7-6.2-11.9-13-11.4c-6.7,0.4-11.9,6.2-11.4,13
	c0.4,5.9,4.9,10.7,10.8,11.4c-7,0.4-12.4,6.5-12,13.5c0.3,4.4,2.8,8.4,6.7,10.5c-7.3,1.3-12.3,8.2-11,15.6c0.5,2.7,1.8,5.3,3.7,7.2
	c-7.7,1-13.2,8.2-12.1,15.9c0.3,1.9,0.9,3.7,1.8,5.3c-7.9,0.4-14.1,6.9-14.1,14.8c0,1.5,0.2,2.9,0.7,4.3c-0.2,0-0.5,0-0.7-0.1
	c-8.6,0-15.5,7-15.5,15.5c0,0.4,0,0.7,0.1,1.1c-0.8-0.1-1.6-0.2-2.4-0.2c-8.1,0-14.9,5.9-16,13.9c-1.4-0.4-2.9-0.6-4.4-0.6
	c-6.6,0-12.5,3.8-15.3,9.7c-6.3-5.2-15.6-4.2-20.8,2.1c-0.8,1-1.5,2.1-2.1,3.3c-5.6-6-14.9-6.4-21-0.9c-1.2,1.1-2.2,2.4-3,3.9
	c-5.1-6.4-14.5-7.5-20.9-2.3c-0.5,0.4-1,0.9-1.5,1.4c-3.4-7.5-12.2-10.8-19.7-7.4c-0.9,0.4-1.7,0.9-2.4,1.4
	c-1.8-8-9.8-13.1-17.8-11.2c-1,0.2-1.9,0.5-2.8,1c-0.2-8.2-7.1-14.6-15.3-14.4c-0.7,0-1.3,0.1-2,0.2c1.9-8-3.1-16-11.1-17.9
	c-1.1-0.2-2.1-0.4-3.2-0.4c3.3-7.5-0.2-16.3-7.7-19.5c-0.6-0.3-1.3-0.5-2-0.7c5-6.5,3.8-15.9-2.7-20.9c-0.5-0.4-1.1-0.8-1.6-1.1
	c6.5-5,7.8-14.4,2.7-20.9c-0.6-0.8-1.3-1.5-2-2.1c3.9-2,6.7-5.5,7.8-9.7c1.1-4.2,0.2-8.6-2.3-12.2c8-1.8,13-9.8,11.2-17.8
	c-0.1-0.6-0.3-1.2-0.5-1.8c8.2,0.4,15.2-5.9,15.6-14.1c0.1-1,0-2-0.1-3c8,2,16.1-2.9,18-10.9c0.2-0.7,0.3-1.4,0.4-2.2
	c7.3,3.8,16.3,1,20.1-6.3c0.3-0.6,0.6-1.2,0.8-1.8c3.1,2.8,7.3,4.2,11.4,3.7c4.6-0.4,8.7-3,11.1-6.9c4.7,6.7,13.9,8.4,20.7,3.7
	c0.7-0.5,1.3-1,1.9-1.6c3,7.6,11.7,11.3,19.3,8.3c0.9-0.4,1.8-0.8,2.7-1.4c0.8,4.4,3.6,8.2,7.5,10.3h0c3.2,1.8,7,2.3,10.7,1.4
	c0.4,0.6,0.8,1.1,1.3,1.6c0.2,3.3,1.5,6.4,3.7,8.9c0.1,0.1,0.2,0.2,0.3,0.3c7.6,7.9,25.2,27.2,21.9,53c-0.8,6.4,2.8,9.7,7.4,4.7
	c28-30.1,23.6-67.2,23-71.5c-0.1-2.8-0.8-5.5-1.8-8c0.3-1.6,0.5-3.2,0.5-4.8c0-7.5-3.5-14.5-9.4-19c0.3-1.4,0.4-2.9,0.4-4.3
	c0-9.4-5.7-17.8-14.4-21.3c-0.2-10.6-8-19.6-18.5-21.2c-1.8-9.9-10.5-17.1-20.5-17.1c-0.4,0-0.7,0-1.1,0.1
	c-2.6-8.2-10.2-13.7-18.8-13.7c-1.7,0-3.4,0.2-5,0.7c-4.3-9.4-15.4-13.6-24.8-9.3c-0.1,0.1-0.3,0.1-0.4,0.2
	c-5-8.4-15.8-11.2-24.3-6.3c-0.7,0.4-1.4,0.9-2,1.4c-5.3-7.4-15.6-9.1-23-3.8c-1.2,0.9-2.3,1.9-3.3,3.1c-5.3-6.5-14.9-7.6-21.4-2.3
	c-1.9,1.5-3.3,3.4-4.3,5.6c-5-5.9-13.8-6.7-19.7-1.7c-2.7,2.3-4.5,5.6-4.9,9.2c-4.3-5.6-12.2-6.6-17.8-2.4
	c-5.6,4.3-6.6,12.2-2.4,17.8C136.4,78.7,140.1,80.6,144.1,80.6z M58.5,409.2c-0.5,0-1,0.5-1,1c0,0,0,0,0,0c0,0.5,0.4,1,1,1
	c0.5,0,1-0.4,1-1C59.5,409.6,59,409.2,58.5,409.2z M47,386.3c-1.1,0-2,0.9-2,2c0,0,0,0,0,0c0,1.1,0.9,2,2,2s2-0.9,2-2
	C49,387.2,48.1,386.3,47,386.3C47,386.3,47,386.3,47,386.3z M37.8,362.3c-1.6,0-3,1.3-3,3c0,1.6,1.3,3,3,3c1.6,0,3-1.3,3-2.9
	C40.8,363.6,39.5,362.3,37.8,362.3z M31.1,337.4c-2.2,0-3.9,1.8-3.9,3.9c0,2.2,1.8,3.9,3.9,3.9c2.2,0,3.9-1.8,3.9-3.9
	C35.1,339.2,33.3,337.4,31.1,337.4C31.2,337.4,31.2,337.4,31.1,337.4z M31.9,317c0-2.7-2.2-4.9-4.9-4.9c-2.7,0-4.9,2.2-4.9,4.9
	c0,2.7,2.2,4.9,4.9,4.9c0,0,0,0,0,0C29.7,321.9,31.9,319.7,31.9,317z M31.4,292.2c0-3.3-2.7-5.9-5.9-5.9c-3.3,0-5.9,2.7-5.9,5.9
	c0,3.3,2.6,5.9,5.9,5.9C28.7,298.2,31.4,295.5,31.4,292.2C31.4,292.2,31.4,292.2,31.4,292.2z M19.7,267.5c0,3.8,3.1,6.9,6.9,6.9
	s6.9-3.1,6.9-6.9c0-3.8-3.1-6.9-6.9-6.9C22.8,260.6,19.7,263.6,19.7,267.5C19.7,267.5,19.7,267.5,19.7,267.5z M30.3,250.9
	c4.4,0,7.9-3.5,7.9-7.9c0-4.4-3.5-7.9-7.9-7.9c-4.4,0-7.9,3.5-7.9,7.9C22.4,247.3,25.9,250.9,30.3,250.9
	C30.3,250.9,30.3,250.9,30.3,250.9z M37.1,210.3c-4.9,0-8.9,4-8.9,8.9c0,4.9,4,8.9,8.9,8.9c4.9,0,8.9-4,8.9-8.9c0,0,0,0,0,0
	C45.9,214.3,41.9,210.3,37.1,210.3z M46.9,206.3c5.4,0,9.9-4.4,9.9-9.8c0-5.4-4.4-9.9-9.8-9.9c-5.4,0-9.9,4.4-9.9,9.8c0,0,0,0,0,0
	C37.1,201.9,41.5,206.3,46.9,206.3z"/>
<path d="M59.7,186c6,0,10.8-4.9,10.8-10.9c0-6-4.9-10.8-10.9-10.8c-6,0-10.8,4.9-10.8,10.9C48.8,181.2,53.6,186,59.7,186
	C59.6,186,59.7,186,59.7,186z M86.9,155.8c0-6.5-5.3-11.8-11.8-11.8c-6.5,0-11.8,5.3-11.8,11.8c0,6.5,5.3,11.8,11.8,11.8
	C81.6,167.6,86.9,162.3,86.9,155.8z"/>
</svg>
