<?xml version="1.0" encoding="utf-8"?>
<!-- Generator: Adobe Illustrator 26.1.0, SVG Export Plug-In . SVG Version: 6.00 Build 0)  -->
<svg version="1.1" id="Layer_1" xmlns="http://www.w3.org/2000/svg" xmlns:xlink="http://www.w3.org/1999/xlink" x="0px" y="0px"
	 viewBox="0 0 500 500" style="enable-background:new 0 0 500 500;" xml:space="preserve">
<style type="text/css">
	.st0{fill:#F45741;}
	.st1{fill:#F7D1CD;}
	.st2{fill:#D83E2E;}
</style>
<g id="Layer_2_00000015346815413412685440000011973370695608126905_">
	<g id="Layer_1-2">
		<path class="st0" d="M175.5,496c0,2.7-10.8,1.7-13.9-2.7c-51-70.7-78.9-155.2-88.1-235.3C57.5,120,140.6,37.1,184.8,3.3
			c7.2-5.5,17.5-4.1,23,3.1c2.1,2.8,3.3,6.3,3.3,9.8v49.1c0.1,8.4,6.5,15.3,14.8,16.2c31.5,3.3,61,17.4,83.4,39.8c2,2,3.9,4,5.8,6.2
			l0,0v0.2c3.2,3.5,6.2,7.3,9,11.1l0.4,0.5c13.1,15.3,27,29.8,41.7,43.5c21.8,20.6,42.5,24.8,54.9,25.1c0.4,0,3.2-0.4,3.5-0.3
			c3.6,0.9,2.8,5.7,0.3,8.7l-30.8,37.4C394.1,253.8,129.3,241.2,175.5,496z"/>
		<path class="st1" d="M93.1,360.7c0-0.2,0-0.5,0-0.7c4.2-32.5,20-87.8,76.3-122.5c59.6-36.5,161.2,7.5,254.7-29.7
			c1.7-0.7,3.5,0.1,4.2,1.8c0.3,0.7,0.3,1.6,0.1,2.3c-6.8,20.7-33,84.1-104.8,87.3c-1.9,0-3.8,0.2-5.8,0.2
			c-79.3,0-152,84.6-141.8,197.2c-5.9,3.2-11.4,4.4-13.6,1C144,468.2,98.4,391.7,93.1,360.7z"/>
		<path class="st2" d="M329.8,298.1l0.3-0.5c-1.9,0-3.9,0.2-5.8,0.2c-83.2,0-169.5,76.4-148.6,198.8l-0.3,0.2
			c35.4-22,72.1-42,109.8-59.7c5.6-2.8,8-9.6,5.3-15.2C280.7,401.8,267.8,353.2,329.8,298.1z"/>
		<path class="st1" d="M175.9,496.5c-5.9,3.2-10.7,5.4-13.6,1c-18.8-28.9-63.9-105.7-69.1-136.8"/>
	</g>
</g>
</svg>
