<?xml version="1.0" encoding="utf-8"?>
<!-- Generator: Adobe Illustrator 26.1.0, SVG Export Plug-In . SVG Version: 6.00 Build 0)  -->
<svg version="1.1" id="Layer_1" xmlns="http://www.w3.org/2000/svg" xmlns:xlink="http://www.w3.org/1999/xlink" x="0px" y="0px"
	 viewBox="0 0 500 500" style="enable-background:new 0 0 500 500;" xml:space="preserve">
<style type="text/css">
	.st0{fill:url(#SVGID_1_);}
</style>
<linearGradient id="SVGID_1_" gradientUnits="userSpaceOnUse" x1="-1915.0229" y1="-2047.6444" x2="-1899.4377" y2="-2047.6444" gradientTransform="matrix(31.992 0 0 -32 61265.8125 -65275.3203)">
	<stop  offset="0" style="stop-color:#00BFFF"/>
	<stop  offset="1" style="stop-color:#6619FF"/>
</linearGradient>
<path class="st0" d="M349.4,249.3L499,398.9h-53c-9.3,0-17.1-3.1-23.4-9.3L284,249.3l138.7-138.7c6.2-6.2,15.6-9.3,23.4-9.3h53
	L349.4,249.3z M76.7,110.6c-6.2-6.2-15.6-9.3-23.4-9.3h-53l149.6,148L0.4,398.9h53c9.3,0,17.1-3.1,23.4-9.3l138.7-138.7
	C215.4,249.3,76.7,110.6,76.7,110.6z M249.7,283.6L111,422.3c-6.2,6.2-9.3,15.6-9.3,23.4v53L251.3,349l149.6,149.6v-53
	c0-9.3-3.1-17.1-9.3-23.4L249.7,283.6z M249.7,215L388.4,76.3c6.2-6.2,9.3-15.6,9.3-23.4V0l-148,149.6L100.1,0v53
	c0,9.3,3.1,17.1,9.3,23.4C109.5,76.3,249.7,215,249.7,215z"/>
</svg>
