<?xml version="1.0" encoding="utf-8"?>
<!-- Generator: Adobe Illustrator 26.1.0, SVG Export Plug-In . SVG Version: 6.00 Build 0)  -->
<svg version="1.1" id="Layer_2_00000091713482122880987950000001711345573388970681_"
	 xmlns="http://www.w3.org/2000/svg" xmlns:xlink="http://www.w3.org/1999/xlink" x="0px" y="0px" viewBox="0 0 500 500"
	 style="enable-background:new 0 0 500 500;" xml:space="preserve">
<path d="M473,247.1v-189c0-16.7-13.6-30.3-30.3-30.2h0H253.1c-1.9,0-3.7-0.8-5.1-2.1L225.2,3c-1.4-1.4-3.3-2.2-5.2-2.2H30.3
	C13.6,0.8,0,14.3,0,31c0,0,0,0,0,0l0,0v189c0,1.9,0.8,3.7,2.1,5.1l22.8,22.8c1.4,1.3,2.1,3.2,2.1,5.1v189
	c0,16.7,13.6,30.3,30.3,30.2c0,0,0,0,0,0H247c1.9,0,3.7,0.8,5.1,2.1l22.8,22.8c1.4,1.3,3.2,2.1,5.1,2.1h189.6
	c16.7,0,30.3-13.5,30.3-30.2c0,0,0,0,0,0l0,0V280c0-1.9-0.8-3.7-2.1-5.1l-22.8-22.8C473.8,250.8,473,249,473,247.1z M367.8,372.8
	H132.5c-3-0.1-5.4-2.5-5.4-5.4V132.9c0-3,2.4-5.4,5.4-5.4h235.2c3,0,5.4,2.4,5.4,5.4v234.5C373.2,370.3,370.8,372.8,367.8,372.8z"/>
</svg>
