<?xml version="1.0" encoding="utf-8"?>
<!-- Generator: Adobe Illustrator 24.1.0, SVG Export Plug-In . SVG Version: 6.00 Build 0)  -->
<svg version="1.1" id="fulcrum" xmlns="http://www.w3.org/2000/svg" xmlns:xlink="http://www.w3.org/1999/xlink" x="0px" y="0px"
	 viewBox="0 0 500 500" style="enable-background:new 0 0 500 500;" xml:space="preserve">
<style type="text/css">
	.st0{fill:url(#SVGID_1_);}
	.st1{fill:#FFFFFF;}
</style>
<linearGradient id="SVGID_1_" gradientUnits="userSpaceOnUse" x1="465.3664" y1="37.6646" x2="68.8472" y2="432.0545" gradientTransform="matrix(1 0 0 -1 0 502)">
	<stop  offset="0.1594" style="stop-color:#003CDA"/>
	<stop  offset="1" style="stop-color:#33DFCC"/>
</linearGradient>
<path class="st0" d="M3.3,101.2c0-54.7,44.1-99.1,98.6-99.1h295.8c54.5,0,98.6,44.4,98.6,99.1v297.4c0,54.7-44.1,99.1-98.6,99.1
	H101.9c-54.5,0-98.6-44.4-98.6-99.1V101.2z"/>
<path class="st1" d="M235.8,232c-9.7,3.5-16.3,13.3-15.6,23.8c0,2.1,0.7,4.6,1.4,6.7l4.2,11.2c4.5,12.3,17.7,18.9,29.8,14.4l16.3-6
	l41.2-14.7c12.1-4.6,18.7-17.9,14.2-30.1l-4.2-11.2c-4.5-12.3-17.7-18.9-29.8-14.4l-46,16.5l-10,3.5L235.8,232z"/>
<path class="st1" d="M280.6,357.3c-2.8,1.1-5.6,2.5-8.4,3.2c-26.5,9.2-51.6,7.8-77.1-4.6c-6.3-3.2-12.6-6.7-18.1-10.9
	c-4.9-3.9-9.8-7.8-14-12.7c-4.2-4.6-8-9.9-11.5-15.1c-3.5-6-6.6-12.7-9.1-19.4c-7.3-20.4-8-40.2-2.4-59.9c1.7-6.3,4.2-12.3,7-18.3
	c7.7-16.2,18.1-28.9,31.4-38.8c8-5.6,16.7-10.2,25.8-13.7c2.8-1.1,5.9-2.1,8.7-2.8l7.3-2.1l-19.9-56l-6.6,2.1
	c-3.1,1.1-5.9,1.8-9.1,2.8c-21.3,7.8-39.4,18.3-54.8,32.4c-1,1.1-2.1,2.1-3.5,3.2c-13.6,13.4-24.8,29.2-33.1,46.9
	c-18.1,38.8-20.9,78.6-8.4,118.7c0.7,1.8,1,3.5,1.7,5.3c8.4,24.3,21.3,44.7,38.4,61.7c12.9,12.7,27.9,22.9,44,30.6
	c5.2,2.5,10.5,4.6,15.7,6.7c3.5,1.4,6.6,2.5,10.1,3.5c24.8,7,51.3,7.8,76.4,1.8c6.6-1.4,13.3-3.5,19.9-6c3.1-1.1,6.3-2.5,9.1-3.5
	l6.3-2.8l-15.4-44l-4.2-11.6L280.6,357.3z"/>
<path class="st1" d="M308.3,64.6l-13.9,4.9l-26.3,9.5l-22.9,8.1l-20.1,7.1l19.8,56.5l1-0.4l12.1-4.2l78.3-28.3l26.3-9.5l14.6-5.3
	l17-6l57.2-20.8l39.9-14.5c-3.8-20.8-15.3-39.2-31.5-52.3l-28.1,10.6L308.3,64.6z"/>
</svg>
