<?xml version="1.0" encoding="utf-8"?>
<!-- Generator: Adobe Illustrator 26.1.0, SVG Export Plug-In . SVG Version: 6.00 Build 0)  -->
<svg version="1.1" id="gate.io" xmlns="http://www.w3.org/2000/svg" xmlns:xlink="http://www.w3.org/1999/xlink" x="0px" y="0px"
	 viewBox="0 0 500 500" style="enable-background:new 0 0 500 500;" xml:space="preserve">
<style type="text/css">
	.st0{fill:#DE5959;}
</style>
<path class="st0" d="M195.1,246.4l-4.3-4.3c-3.2-3.2-8.8-1-8.8,3.6v61.2c0,2.8,2.3,5.1,5.2,5.1h61.2c4.6,0,6.8-5.5,3.6-8.8
	c-2-2-2-5.3,0-7.2l65.1-65.3c2-2,2-5.3,0-7.2l-6-5.9c-3.2-3.2-1-8.8,3.6-8.8h61.2c2.8,0,5.2,2.3,5.2,5.1v61.2c0,4.6-5.5,6.8-8.8,3.6
	l-4.1-4.1c-2-2-5.3-2-7.2,0L251.2,384.2c-2,2-5.3,2-7.3,0L109.7,250c-2-2-2-5.3,0-7.3L295.7,57c2-2,2-5.3,0-7.3L252,6
	c-2-2-5.3-2-7.3,0L4.1,246.6c-2,2-2,5.3,0,7.3l240.6,240.6c2,2,5.3,2,7.3,0l240.6-240.6c2-2,2-5.3,0-7.3L351,105.2c-2-2-5.3-2-7.3,0
	L202.4,246.5C200.4,248.4,197.1,248.4,195.1,246.4L195.1,246.4z"/>
</svg>
