<?xml version="1.0" encoding="utf-8"?>
<!-- Generator: Adobe Illustrator 26.1.0, SVG Export Plug-In . SVG Version: 6.00 Build 0)  -->
<svg version="1.1" id="Layer_1" xmlns="http://www.w3.org/2000/svg" xmlns:xlink="http://www.w3.org/1999/xlink" x="0px" y="0px"
	 viewBox="0 0 500 500" style="enable-background:new 0 0 500 500;" xml:space="preserve">
<style type="text/css">
	.st0{fill:#57BAE5;}
	.st1{fill:#005472;}
	.st2{fill:#34AFE4;}
	.st3{fill:#0076A7;}
	.st4{fill:#009DE2;}
	.st5{fill:#7ACDF2;}
	.st6{fill:#00ABE7;}
	.st7{fill:#008DBE;}
	.st8{fill:#00698D;}
	.st9{fill:#09A1CB;}
	.st10{fill:#8BDAFF;}
</style>
<path class="st0" d="M180.9,116.7l-23,89.7L0,226.9L180.9,116.7z"/>
<path class="st1" d="M223.6,478.7l39.2-163l-50.9-21L223.6,478.7z"/>
<path class="st2" d="M157.9,206.3l-41.4,85.3l-116-64.4L157.9,206.3z"/>
<path class="st3" d="M223.6,478.7l-11.7-184l-96-3.3L223.6,478.7z"/>
<path class="st4" d="M157.9,206.3l54.6,88.2l-96-3.2L157.9,206.3z"/>
<g>
	<path class="st5" d="M180.9,116.7l130.7,16.4l-153.7,73.3L180.9,116.7z"/>
	<path class="st5" d="M454.4,75.9l-82.1,95.5l5.8-88.3L454.4,75.9z"/>
	<path class="st5" d="M500,21.2l-45.6,54.7l35.6,4.4L500,21.2z"/>
</g>
<path class="st6" d="M410.2,125.4l79.9-45.3l-35.6-4.4L410.2,125.4z"/>
<path class="st3" d="M262.8,315.7l3.9-109.6L212,294.6L262.8,315.7z"/>
<path class="st7" d="M266.7,206.1L212,294.6l-54.1-88.2L266.7,206.1z"/>
<path class="st0" d="M311.5,133.1l-44.8,73l-108.9,0.4L311.5,133.1z"/>
<path class="st8" d="M266.7,206.1l-3.9,109.6l100.2,102.5L266.7,206.1z"/>
<path class="st9" d="M415.5,360.9l-53-131.2l0.6,188.6L415.5,360.9z"/>
<path class="st9" d="M372.3,171.4l-9.8,58.3l-95.8-23.6L372.3,171.4z"/>
<path class="st10" d="M420.8,250.4l-58.3-20.8l9.5-58.2L420.8,250.4z"/>
<path class="st5" d="M442.1,357.3l-63.5-101.8h36.3L442.1,357.3z"/>
<path class="st0" d="M323.5,111.4l48.8,60l5.8-88.3L323.5,111.4z"/>
<path class="st7" d="M362.5,229.6l-95.8-23.6l96.4,212.1L362.5,229.6z"/>
<path class="st3" d="M415.5,360.9l21.1,11.8l-73.3,45.5L415.5,360.9z"/>
<path class="st0" d="M442.1,356l-79.6-126.4l53,131.3L442.1,356z"/>
<path class="st5" d="M323.5,111.4l-56.9,94.8l105.6-34.7L323.5,111.4z"/>
</svg>
