<?xml version="1.0" encoding="utf-8"?>
<!-- Generator: Adobe Illustrator 26.1.0, SVG Export Plug-In . SVG Version: 6.00 Build 0)  -->
<svg version="1.1" id="instadapp" xmlns="http://www.w3.org/2000/svg" xmlns:xlink="http://www.w3.org/1999/xlink" x="0px" y="0px"
	 viewBox="0 0 500 500" style="enable-background:new 0 0 500 500;" xml:space="preserve">
<style type="text/css">
	.st0{fill:#3F75FF;}
</style>
<path class="st0" d="M249.7,473.4c0,14.3,11.6,26,25.8,24.5C401.2,485,499.3,378.8,499.3,249.6S401.2,14.2,275.4,1.3
	c-14.2-1.5-25.8,10.2-25.8,24.5v68.9c0,14.3,11.7,25.6,25.7,28.4c59,11.9,103.5,64.1,103.5,126.6s-44.4,114.7-103.5,126.6
	c-14,2.8-25.7,14.1-25.7,28.4V473.4z"/>
<path class="st0" d="M172.2,47.8c0-17.6-17.2-29.9-32.9-22.2C56.7,66.4,0,151.4,0,249.6c0,98.2,56.7,183.2,139.2,224
	c15.7,7.8,32.9-4.6,32.9-22.2V47.8z"/>
</svg>
