<?xml version="1.0" encoding="utf-8"?>
<!-- Generator: Adobe Illustrator 26.1.0, SVG Export Plug-In . SVG Version: 6.00 Build 0)  -->
<svg version="1.1" id="Layer_1" xmlns="http://www.w3.org/2000/svg" xmlns:xlink="http://www.w3.org/1999/xlink" x="0px" y="0px"
	 viewBox="0 0 500 500" style="enable-background:new 0 0 500 500;" xml:space="preserve">
<path d="M427.7,323.2v10.5H500v-47.5h-10.5v37H427.7z M427.7,166.3v10.5h61.8v37H500v-47.5H427.7z M390.3,247.8v-24.5h16.5
	c8.1,0,11,2.7,11,10v4.3c0,7.5-2.8,10.1-11,10.1H390.3z M416.6,252.2c7.5-2,12.8-9,12.8-17.4c0-5.3-2.1-10-6-13.9
	c-5-4.8-11.6-7.1-20.2-7.1H380v72.3h10.3v-28.8h15.5c8,0,11.2,3.3,11.2,11.6v17.3h10.5v-15.6c0-11.4-2.7-15.7-11-16.9V252.2z
	 M329.6,254.5h31.8V245h-31.8v-21.7h34.9v-9.5H319v72.3h47v-9.5h-36.5V254.5z M294.9,258.4v5c0,10.4-3.8,13.9-13.4,13.9h-2.3
	c-9.6,0-14.3-3.1-14.3-17.5v-19.4c0-14.5,4.9-17.5,14.5-17.5h2.1c9.4,0,12.4,3.5,12.5,13.2h11.4c-1-14.3-10.5-23.3-24.8-23.3
	c-6.9,0-12.7,2.2-17.1,6.3c-6.5,6.1-10.1,16.4-10.1,30.9c0,14,3.1,24.3,9.5,30.7c4.3,4.2,10.3,6.5,16.2,6.5c6.2,0,11.9-2.5,14.8-7.9
	h1.4v6.8h9.5v-37.3h-28v9.5H294.9z M203.8,223.3h11.3c10.6,0,16.4,2.7,16.4,17.2v19c0,14.5-5.8,17.2-16.4,17.2h-11.3V223.3z
	 M216,286.2c19.7,0,27.1-15,27.1-36.2c0-21.5-7.9-36.2-27.3-36.2h-22.3v72.3H216z M143.5,254.5h31.8V245h-31.8v-21.7h34.9v-9.5H133
	v72.3h47v-9.5h-36.5V254.5z M82.6,213.8H72v72.3h47.5v-9.5h-37V213.8z M-0.4,286.2v47.5h72.3v-10.5H10.1v-37H-0.4z M-0.4,166.3v47.5
	h10.5v-37h61.8v-10.5H-0.4z"/>
</svg>
