<?xml version="1.0" encoding="utf-8"?>
<!-- Generator: Adobe Illustrator 26.5.0, SVG Export Plug-In . SVG Version: 6.00 Build 0)  -->
<svg version="1.1" id="Layer_1" xmlns="http://www.w3.org/2000/svg" xmlns:xlink="http://www.w3.org/1999/xlink" x="0px" y="0px"
	 viewBox="0 0 500 500" style="enable-background:new 0 0 500 500;" xml:space="preserve">
<style type="text/css">
	.st0{clip-path:url(#SVGID_00000129195970507357512650000015272646959007324056_);}
	.st1{fill:#00501E;}
</style>
<g>
	<defs>
		<rect id="SVGID_1_" x="66.2" y="1" width="367.6" height="498.3"/>
	</defs>
	<clipPath id="SVGID_00000070818440886086334300000006515323870063066301_">
		<use xlink:href="#SVGID_1_"  style="overflow:visible;"/>
	</clipPath>
	<g style="clip-path:url(#SVGID_00000070818440886086334300000006515323870063066301_);">
		<path class="st1" d="M70.6,497V382.2h13.8v102.3h59.9V497H70.6z"/>
		<path class="st1" d="M158.3,497V382.2h70.7v12.5H172v38.4h46.1v12.5H172v39h57.7V497L158.3,497z"/>
		<path class="st1" d="M243.2,497V382.2h29.2l40,106.1h4.6V382.2h13.6V497h-29.2l-39.9-106.2h-4.8V497L243.2,497z"/>
		<path class="st1" d="M388.9,499.3c-7.7,0.1-15.3-1.4-22.3-4.4c-6.4-2.8-11.8-7.5-15.5-13.4c-3.8-6-5.7-13.4-5.7-22.4v-3.4h13.6
			v3.4c0,9.5,2.8,16.6,8.4,21.2c5.6,4.6,12.7,7,21.5,7c9,0,15.8-2,20.5-6.1c2.3-1.8,4.1-4.2,5.3-6.8c1.2-2.6,1.8-5.5,1.8-8.4
			c0.2-3.7-0.9-7.3-3.2-10.2c-2.4-2.8-5.5-4.9-8.9-6.2c-4.3-1.8-8.8-3.2-13.4-4.2l-8.5-2.1c-6.1-1.5-12-3.7-17.7-6.4
			c-4.8-2.2-8.9-5.6-12.1-9.9c-2.9-4.1-4.3-9.4-4.3-15.8c-0.1-5.9,1.5-11.8,4.8-16.7c3.4-4.8,8.1-8.6,13.6-10.8
			c6.4-2.6,13.3-3.9,20.3-3.7c7.2-0.1,14.3,1.3,20.9,4c5.9,2.5,10.9,6.5,14.5,11.7c3.6,5.2,5.3,11.7,5.3,19.6v6.9h-13.6v-6.9
			c0-5.6-1.2-10.1-3.5-13.4c-2.4-3.4-5.8-6.1-9.7-7.5c-4.5-1.7-9.2-2.6-14-2.5c-7.5,0-13.6,1.7-18.2,5c-4.6,3.3-6.9,8-6.9,14.2
			c-0.2,3.5,0.9,7,2.9,9.8c2.2,2.7,5.1,4.9,8.4,6.2c4.2,1.8,8.5,3.2,12.9,4.2l8.5,2.1c6.2,1.3,12.2,3.2,17.9,5.8
			c5,2.2,9.4,5.7,12.7,10c3.2,4.2,4.8,9.7,4.8,16.5c0.1,6.3-1.6,12.5-5.1,17.7c-3.6,5.2-8.6,9.2-14.3,11.7
			C403.8,498,396.4,499.4,388.9,499.3z"/>
		<path class="st1" d="M250.4,231.9c-3.6,0-90.1-0.8-156.2-66.9c-1.4-1.4-2.8-2.8-4.1-4.2c-13.8-14.6-20.4-32-19-50.2
			c1.2-16.1,8.7-31.7,20.9-43.9c12.2-12.2,27.8-19.6,43.9-20.9c16.9-1.2,33,4.2,46.9,16c1.5-18.1,9-33.4,21.8-44.4
			C216.9,6.8,233.1,1,250.5,1c17.3,0,33.6,5.8,45.8,16.3c12.8,11,20.3,26.3,21.8,44.4c13.9-11.8,30-17.3,46.9-16
			c16.1,1.2,31.7,8.7,43.9,20.9c12.2,12.2,19.7,27.8,20.9,43.9c1.4,18.2-5.2,35.6-19,50.2c-1.3,1.4-2.7,2.8-4.1,4.2
			C340.5,231.1,254.1,231.9,250.4,231.9z M140.7,59.3c-15,0-29.1,7-39.1,17c-18,18-26.2,49.2-1.6,75.2c1.3,1.3,2.5,2.6,3.8,4
			c62.2,62.1,145.7,62.9,146.5,62.9c0.8,0,84.6-0.9,146.6-62.9c1.3-1.3,2.6-2.6,3.8-4c24.6-26,16.4-57.2-1.6-75.2
			s-49.2-26.2-75.2-1.6c-1.3,1.2-2.6,2.5-4,3.8c-1,1-2,2-2.9,3.1l-12.9,13.7l0.5-18.8c0-1.4,0.1-2.9,0.1-4.3c0-1.9,0-3.7-0.1-5.5
			c-1-35.7-28.8-52-54.3-52c-25.5,0-53.3,16.3-54.3,52c0,1.8-0.1,3.7-0.1,5.5c0,1.4,0,2.8,0.1,4.2l0.5,18.9l-12.9-13.6
			c-1-1-2-2.1-3-3.1c-1.3-1.3-2.6-2.6-4-3.8C165.3,63.7,152.7,59.3,140.7,59.3z"/>
		<path class="st1" d="M241.7,159.7h-9.9c0-14.8-14.4-26.8-32-26.8s-32,12-32,26.8h-9.9c0-20.2,18.8-36.7,41.9-36.7
			C222.9,123,241.7,139.5,241.7,159.7z"/>
		<path class="st1" d="M342.5,159.3h-9.9c0-14.8-14.4-26.8-32-26.8c-17.7,0-32,12-32,26.8h-9.9c0-20.2,18.8-36.7,41.9-36.7
			C323.7,122.6,342.5,139.1,342.5,159.3z"/>
		<path class="st1" d="M211.2,159.9c7.9,0,14.3-6.4,14.3-14.3c0-7.9-6.4-14.3-14.3-14.3c-7.9,0-14.3,6.4-14.3,14.3
			C196.9,153.5,203.3,159.9,211.2,159.9z"/>
		<path class="st1" d="M311.3,159.9c7.9,0,14.3-6.4,14.3-14.3c0-7.9-6.4-14.3-14.3-14.3c-7.9,0-14.3,6.4-14.3,14.3
			C297,153.5,303.4,159.9,311.3,159.9z"/>
		<path class="st1" d="M250.4,196.1c-11.7,0-22.5-6-27.6-15.3l8.7-4.7c3.4,6.2,10.8,10.1,18.9,10.1c8.1,0,15.5-4,18.9-10.1l8.7,4.7
			C272.9,190.1,262.1,196.1,250.4,196.1z"/>
		<path class="st1" d="M428,333.5c-24.8,11.6-52.8,14.7-79.6,8.7c-22.1-4.9-42.5-15.9-58.7-31.8c10.3,4.3,21.3,6.4,32.4,6.4
			c19.2,0,38-6,53.6-17.1l-8-11.1c-21.4,15.4-50.9,19.2-74.2,8.6c-23-10.3-35.9-32.5-36.8-62.5v-9.7h-13.6v1.7v7.9
			c-0.8,30.1-13.8,52.2-36.8,62.6c-23.3,10.5-52.8,6.8-74.2-8.7l-7.9,11.1c15.7,11.1,34.4,17.1,53.6,17.1
			c11.1,0.1,22.1-2.1,32.4-6.4c-16.2,15.9-36.5,26.9-58.7,31.8c-26.8,6-54.7,3-79.6-8.7l-5.8,12.3c18.2,8.6,38.1,13,58.3,13
			c10.1,0,20.2-1.1,30.1-3.3c30.3-6.7,57.4-23.7,76.7-48l0.1-0.1c4.5-5.9,8.5-12.3,11.9-19v70.1h13.6v-70
			c3.4,6.6,7.3,12.9,11.8,18.9l0.1,0.1c19.3,24.3,46.4,41.2,76.7,48c9.9,2.2,20,3.3,30.1,3.3c20.1,0,40.1-4.4,58.3-13L428,333.5z"/>
	</g>
</g>
</svg>
