<?xml version="1.0" encoding="utf-8"?>
<!-- Generator: Adobe Illustrator 26.1.0, SVG Export Plug-In . SVG Version: 6.00 Build 0)  -->
<svg version="1.1" id="Layer_1" xmlns="http://www.w3.org/2000/svg" xmlns:xlink="http://www.w3.org/1999/xlink" x="0px" y="0px"
	 viewBox="0 0 500 500" style="enable-background:new 0 0 500 500;" xml:space="preserve">
<style type="text/css">
	.st0{fill:#007896;}
	.st1{fill:#FFFFFF;}
</style>
<g id="Group">
	<circle id="Oval" class="st0" cx="250" cy="250" r="250"/>
	<g id="Shape" transform="translate(39.000000, 51.000000)">
		<path class="st1" d="M237,261.9c-6.7,6.9-15.9,10.7-25.6,10.7s-18.8-3.9-25.6-10.7L153.4,229c-4.2-4.3-9.9-6.7-15.9-6.7
			s-11.7,2.4-15.9,6.7c-14.1,14.4-14.1,37.4,0,51.7l64.5,65.1c6.7,6.9,15.9,10.7,25.6,10.7c9.6,0,18.8-3.9,25.6-10.7l64.3-65.2
			c14.1-14.4,14.1-37.4,0-51.7c-4.2-4.3-9.9-6.7-15.9-6.7c-6,0-11.7,2.4-15.9,6.7L237,261.9z"/>
		<g>
			<path class="st1" d="M114.8,147.3c6.4-6.7,15.3-10.5,24.5-10.6c9.3-0.1,18.2,3.5,24.7,10.1l31.1,31.4c4.1,4.1,9.6,6.3,15.4,6.3
				c5.8-0.1,11.3-2.4,15.3-6.6c13.8-13.7,14-36,0.5-49.9l-61.4-62.1c-6.6-6.5-15.5-10.2-24.7-10.1c-9.3,0.1-18.1,3.9-24.5,10.6
				L53,129.8c-13.8,13.7-14,36-0.5,49.9c4.1,4.1,9.6,6.3,15.4,6.3c5.8-0.1,11.3-2.4,15.3-6.6L114.8,147.3z"/>
			<path class="st1" d="M258.1,145.9c6.4-6.7,15.3-10.5,24.5-10.6c9.3-0.1,18.2,3.5,24.7,10.1l31.1,31.4c4.1,4.1,9.6,6.3,15.4,6.3
				c5.8-0.1,11.3-2.4,15.3-6.6c13.8-13.7,14-36,0.5-49.9l-61.4-62.1c-6.6-6.5-15.5-10.2-24.7-10.1c-9.3,0.1-18.1,3.9-24.5,10.6
				l-62.6,63.4c-13.8,13.7-14,36-0.5,49.9c4.1,4.1,9.6,6.3,15.4,6.3c5.8-0.1,11.3-2.4,15.3-6.6L258.1,145.9z"/>
		</g>
	</g>
</g>
</svg>
