<?xml version="1.0" encoding="utf-8"?>
<!-- Generator: Adobe Illustrator 26.1.0, SVG Export Plug-In . SVG Version: 6.00 Build 0)  -->
<svg version="1.1" id="Layer_1" xmlns="http://www.w3.org/2000/svg" xmlns:xlink="http://www.w3.org/1999/xlink" x="0px" y="0px"
	 viewBox="0 0 500 500" style="enable-background:new 0 0 500 500;" xml:space="preserve">
<style type="text/css">
	.st0{fill:url(#SVGID_1_);}
	.st1{fill:url(#SVGID_00000151531142399447232650000007795412691375132853_);}
</style>
<linearGradient id="SVGID_1_" gradientUnits="userSpaceOnUse" x1="250" y1="502" x2="250" y2="2" gradientTransform="matrix(1 0 0 -1 0 502)">
	<stop  offset="0" style="stop-color:#534BB1"/>
	<stop  offset="1" style="stop-color:#551BF9"/>
</linearGradient>
<circle class="st0" cx="250" cy="250" r="250"/>
<linearGradient id="SVGID_00000008860657175650559980000000000473050928988326_" gradientUnits="userSpaceOnUse" x1="255.3196" y1="411.5746" x2="255.3196" y2="81.7868" gradientTransform="matrix(1 0 0 -1 0 502)">
	<stop  offset="0" style="stop-color:#FFFFFF"/>
	<stop  offset="1" style="stop-color:#FFFFFF;stop-opacity:0.82"/>
</linearGradient>
<path style="fill:url(#SVGID_00000008860657175650559980000000000473050928988326_);" d="M429,253h-44.1
	c0-89.8-73.1-162.6-163.2-162.6c-89,0-161.4,71-163.2,159.3c-1.8,91.2,84.1,170.5,175.7,170.5h11.5c80.7,0,189-63,205.9-139.7
	C454.7,266.3,443.5,253,429,253z M156.2,257c0,12-9.9,21.8-21.9,21.8c-12.1,0-21.9-9.8-21.9-21.8v-35.3c0-12,9.9-21.8,21.9-21.8
	c12.1,0,21.9,9.8,21.9,21.8V257z M232.3,257c0,12-9.9,21.8-21.9,21.8c-12.1,0-21.9-9.8-21.9-21.8v-35.3c0-12,9.9-21.8,21.9-21.8
	c12.1,0,21.9,9.8,21.9,21.8V257z"/>
</svg>
