<?xml version="1.0" encoding="utf-8"?>
<!-- Generator: Adobe Illustrator 26.1.0, SVG Export Plug-In . SVG Version: 6.00 Build 0)  -->
<svg version="1.1" id="Layer_1" xmlns="http://www.w3.org/2000/svg" xmlns:xlink="http://www.w3.org/1999/xlink" x="0px" y="0px"
	 viewBox="0 0 500 500" style="enable-background:new 0 0 500 500;" xml:space="preserve">
<style type="text/css">
	.st0{fill:#5351FB;}
	.st1{fill-rule:evenodd;clip-rule:evenodd;fill:#5351FB;}
</style>
<path class="st0" d="M252.5,498.7c8.2,0,18-1.5,29.5-4.6c38.6-14.5,57.9-42.5,57.9-83.9V291.8c0-2.3-0.1-4.2-0.4-5.9
	c0-0.3,0-0.5-0.1-0.6c0-0.1-0.2-0.3-0.4-0.6c-4-10.1-10.4-15.2-19.1-15.2h-1.2l-2.5,0.1H315c-0.3,0-0.6,0.1-1,0.4
	c-10.1,3.9-15.1,12.2-15.1,24.9v121.5c0,6.6-1.7,13-5,19.3c-9.4,14.8-23.3,22.2-41.8,22.2c-14,0-25.8-4.4-35.5-13.1
	c-7.9-6.5-12-18.4-12.2-35.8l-0.3-119.4c0-1.1-0.1-2.2-0.3-3.4c0-0.4,0-0.7-0.1-0.8c0-0.1-0.2-0.4-0.5-0.8
	c-4.1-10.3-10.6-15.5-19.5-15.5c-2.8,0.3-4.7,0.6-5.7,1c-9.8,3.9-14.7,10.6-14.7,19.9l0.4,123.8c0.1,18.5,5.2,35.1,15.3,49.9
	c18.8,23.3,43.1,34.9,72.9,34.9H252.5z"/>
<path class="st1" d="M111.9,192.8c-22.4,0-36.1,6.6-44.9,16.9c-7.2,8.5-19.8,9.5-28.2,2.3c-8.4-7.2-9.5-19.9-2.3-28.3
	c18.3-21.7,44.7-31.1,75.4-31.1c25.8,0,49.5,6.6,70.5,19.9c21.8-13,44.7-19.9,68.6-19.9c23.4,0,45.4,6.6,65.9,19.2
	c18.3-12.4,40.3-18,64.7-18c30.7,0,57.7,8.9,79.7,27.7c8.4,7.2,9.4,19.9,2.3,28.3c-7.2,8.5-19.8,9.5-28.2,2.3
	c-13.8-11.8-31.2-18.1-53.7-18.1c-21.3,0-36.6,5.7-47.8,15.3c-8.7,7.6-21.5,8.2-30.9,1.4l-0.4-0.3c-16.9-12.1-34-17.6-51.6-17.6
	c-17.9,0-36.1,5.8-54.9,18.5c-8.8,6-20.4,5.7-29-0.7l-0.6-0.5C150.8,198.7,132.9,192.8,111.9,192.8z"/>
<path class="st1" d="M362.1,78.9c-29.2-25.4-66.9-38.3-114.7-37.4c-48.1,0.9-85.4,14.8-113.7,40.2c-28.6,25.6-49.9,64.8-62.4,119.5
	c-2.5,10.8-13.2,17.6-24,15.1c-10.8-2.5-17.5-13.3-15-24.1C46.1,132.1,70.5,84.6,107,51.8c36.8-33,83.9-49.4,139.6-50.4
	c56-1.1,103.8,14.2,141.7,47.2c37.6,32.7,63.6,81.2,79.5,143.2c2.8,10.8-3.7,21.7-14.4,24.5c-10.7,2.8-21.6-3.7-24.4-14.5
	C414.5,144.8,391.7,104.6,362.1,78.9z"/>
</svg>
