<?xml version="1.0" encoding="utf-8"?>
<!-- Generator: Adobe Illustrator 26.1.0, SVG Export Plug-In . SVG Version: 6.00 Build 0)  -->
<svg version="1.1" id="Layer_1" xmlns="http://www.w3.org/2000/svg" xmlns:xlink="http://www.w3.org/1999/xlink" x="0px" y="0px"
	 viewBox="0 0 500 500" style="enable-background:new 0 0 500 500;" xml:space="preserve">
<style type="text/css">
	.st0{fill:#2962EF;}
	.st1{fill:#FFFFFF;}
</style>
<path class="st0" d="M100,0h300c55.2,0,100,44.8,100,100v300c0,55.2-44.8,100-100,100H100C44.8,500,0,455.2,0,400V100
	C0,44.8,44.8,0,100,0z"/>
<g>
	<path class="st1" d="M215.8,346.3c0.2-0.3,14.1-20.2,33.6-48.1l-70.2,0.3c-29.6,41.6-54.2,76.2-54.9,77.2
		c-3.8,5.9-2.2,12.9-2.2,12.9c0,4.2,4,8,8.4,8h244.1c1.6,0,3-1.3,3-2.8c0-0.8-0.3-1.5-0.9-2.1l-49.8-43.8c-0.5-0.5-1.3-0.8-2-0.8
		l-109,0C215.8,347.1,215,347.3,215.8,346.3z"/>
	<path class="st1" d="M283.2,154.9c-0.4,0.5-14.5,20.1-34.1,47.3l68.4,0.4c30.7-43.5,56.7-80.3,58-82.2c2.7-4,2-8.3,2-8.3
		c0-4.2-4-7.9-8.4-7.9H124.6c-2.6,0-4,3-2.1,4.7l45.7,43.2c0.6,0.5,1.3,0.8,2.1,0.8H216l67.1,0.3
		C283.2,153.2,284.4,153.1,283.2,154.9z"/>
</g>
</svg>
