<?xml version="1.0" encoding="UTF-8" standalone="no" ?>
<!DOCTYPE svg PUBLIC "-//W3C//DTD SVG 1.1//EN" "http://www.w3.org/Graphics/SVG/1.1/DTD/svg11.dtd">
<svg xmlns="http://www.w3.org/2000/svg" xmlns:xlink="http://www.w3.org/1999/xlink" version="1.1" width="1080" height="1080" viewBox="0 0 1080 1080" xml:space="preserve">
<desc>Created with Fabric.js 5.2.4</desc>
<defs>
</defs>
<rect x="0" y="0" width="100%" height="100%" fill="transparent"></rect>
<g transform="matrix(1 0 0 1 540 540)" id="0e624569-d4a4-454d-a66a-d5332fd5f0af"  >
<rect style="stroke: none; stroke-width: 1; stroke-dasharray: none; stroke-linecap: butt; stroke-dashoffset: 0; stroke-linejoin: miter; stroke-miterlimit: 4; fill: rgb(255,255,255); fill-rule: nonzero; opacity: 1; visibility: hidden;" vector-effect="non-scaling-stroke"  x="-540" y="-540" rx="0" ry="0" width="1080" height="1080" />
</g>
<g transform="matrix(1 0 0 1 540 540)" id="c9f89c15-131d-431b-9f98-53d60be4f8ff"  >
</g>
<g transform="matrix(1.02 0 0 1.02 77.01 80.86)"  >
<rect style="stroke: none; stroke-width: 1; stroke-dasharray: none; stroke-linecap: butt; stroke-dashoffset: 0; stroke-linejoin: miter; stroke-miterlimit: 4; fill: rgb(255,255,255); fill-opacity: 0; fill-rule: nonzero; opacity: 1;" vector-effect="non-scaling-stroke"  x="-50" y="-50" rx="0" ry="0" width="100" height="100" />
</g>
<g transform="matrix(1.02 0 0 1.02 575.24 579.1)"  >
<rect style="stroke: none; stroke-width: 1; stroke-dasharray: none; stroke-linecap: butt; stroke-dashoffset: 0; stroke-linejoin: miter; stroke-miterlimit: 4; fill: rgb(255,255,255); fill-rule: nonzero; opacity: 1; visibility: hidden;" vector-effect="non-scaling-stroke"  x="-540" y="-540" rx="0" ry="0" width="1080" height="1080" />
</g>
<g transform="matrix(2.76 0 0 4.29 779.91 527.92)" style=""  >
		<text xml:space="preserve" font-family="Raleway" font-size="92" font-style="normal" font-weight="900" style="stroke: none; stroke-width: 1; stroke-dasharray: none; stroke-linecap: butt; stroke-dashoffset: 0; stroke-linejoin: miter; stroke-miterlimit: 4; fill: rgb(206,102,0); fill-rule: nonzero; opacity: 1; white-space: pre;" ><tspan x="-96.27" y="28.9" >ATK</tspan></text>
</g>
<g transform="matrix(4.1 0 0 4.1 322.79 506.81)"  >
<polygon style="stroke: none; stroke-width: 1; stroke-dasharray: none; stroke-linecap: butt; stroke-dashoffset: 0; stroke-linejoin: miter; stroke-miterlimit: 4; fill: rgb(206,102,0); fill-rule: nonzero; opacity: 1;" vector-effect="non-scaling-stroke"  points="-32.51,-35.64 -37.05,-35.64 -37.05,35.64 37.05,35.64 37.05,31.04 -32.51,31.04 " />
</g>
<g transform="matrix(4.86 0 0 5.33 229.68 523.44)"  >
<path style="stroke: none; stroke-width: 1; stroke-dasharray: none; stroke-linecap: butt; stroke-dashoffset: 0; stroke-linejoin: miter; stroke-miterlimit: 4; fill: rgb(30,141,5); fill-rule: nonzero; opacity: 1;" vector-effect="non-scaling-stroke"  transform=" translate(-28.72, -55.25)" d="M 24.092 36.293 L 34.291 36.293 L 34.291 74.19800000000001 L 23.15 74.19800000000001 L 23.15 36.293 L 24.092 36.293 z" stroke-linecap="round" />
</g>
<g transform="matrix(4.61 0 0 2.31 300.46 572.35)"  >
<path style="stroke: none; stroke-width: 1; stroke-dasharray: none; stroke-linecap: butt; stroke-dashoffset: 0; stroke-linejoin: miter; stroke-miterlimit: 4; fill: rgb(189,35,26); fill-rule: nonzero; opacity: 1;" vector-effect="non-scaling-stroke"  transform=" translate(-41.51, -51.03)" d="M 36.826 27.863 L 47.082 27.863 L 47.082 74.19800000000001 L 35.94 74.19800000000001 L 35.94 27.863 L 36.826 27.863 z" stroke-linecap="round" />
</g>
<g transform="matrix(4.83 0 0 5.15 375.94 562.09)"  >
<path style="stroke: none; stroke-width: 1; stroke-dasharray: none; stroke-linecap: butt; stroke-dashoffset: 0; stroke-linejoin: miter; stroke-miterlimit: 4; fill: rgb(189,35,26); fill-rule: nonzero; opacity: 1;" vector-effect="non-scaling-stroke"  transform=" translate(-54.27, -61.91)" d="M 49.616 49.616 L 59.815 49.616 L 59.815 74.19800000000001 L 48.735 74.19800000000001 L 48.735 49.616 L 49.616 49.616 z" stroke-linecap="round" />
</g>
<g transform="matrix(4.71 0 0 5.11 444.96 500.39)"  >
<path style="stroke: none; stroke-width: 1; stroke-dasharray: none; stroke-linecap: butt; stroke-dashoffset: 0; stroke-linejoin: miter; stroke-miterlimit: 4; fill: rgb(30,141,5); fill-rule: nonzero; opacity: 1;" vector-effect="non-scaling-stroke"  transform=" translate(-67.04, -49.68)" d="M 62.411 25.152 L 72.60900000000001 25.152 L 72.60900000000001 74.19800000000001 L 61.469 74.19800000000001 L 61.469 25.152 L 62.411 25.152 z" stroke-linecap="round" />
</g>
</svg>