<?xml version="1.0" encoding="UTF-8" standalone="no" ?>
<!DOCTYPE svg PUBLIC "-//W3C//DTD SVG 1.1//EN" "http://www.w3.org/Graphics/SVG/1.1/DTD/svg11.dtd">
<svg xmlns="http://www.w3.org/2000/svg" xmlns:xlink="http://www.w3.org/1999/xlink" version="1.1" width="1080" height="1080" viewBox="0 0 1080 1080" xml:space="preserve">
<desc>Created with Fabric.js 5.2.4</desc>
<defs>
</defs>
<rect x="0" y="0" width="100%" height="100%" fill="transparent"></rect>
<g transform="matrix(1 0 0 1 540 540)" id="e8c8f618-96ba-4784-90d1-b20bd5ccc995"  >
<rect style="stroke: none; stroke-width: 1; stroke-dasharray: none; stroke-linecap: butt; stroke-dashoffset: 0; stroke-linejoin: miter; stroke-miterlimit: 4; fill: rgb(255,255,255); fill-rule: nonzero; opacity: 1; visibility: hidden;" vector-effect="non-scaling-stroke"  x="-540" y="-540" rx="0" ry="0" width="1080" height="1080" />
</g>
<g transform="matrix(1 0 0 1 540 540)" id="5e645da5-4b7f-4aa7-937b-67bb204a7508"  >
</g>
<g transform="matrix(38.57 0 0 38.57 540 540)"  >
<g style=""   >
		<g transform="matrix(1 0 0 1 0.74 10.09)"  >
<path style="stroke: none; stroke-width: 1; stroke-dasharray: none; stroke-linecap: butt; stroke-dashoffset: 0; stroke-linejoin: miter; stroke-miterlimit: 4; fill: rgb(255,255,255); fill-rule: nonzero; opacity: 1;" vector-effect="non-scaling-stroke"  transform=" translate(-14.74, -24.09)" d="M 8.013 23.846 C 12.936 26.093 17.805 26.472 21.461 23.329 L 20.808999999999997 22.571 C 17.531999999999996 25.388 13.033999999999997 25.038 8.427999999999997 22.936 L 8.012999999999998 23.846 z" stroke-linecap="round" />
</g>
		<g transform="matrix(1 0 0 1 10.28 -0.43)"  >
<path style="stroke: none; stroke-width: 1; stroke-dasharray: none; stroke-linecap: butt; stroke-dashoffset: 0; stroke-linejoin: miter; stroke-miterlimit: 4; fill: rgb(255,255,255); fill-rule: nonzero; opacity: 1;" vector-effect="non-scaling-stroke"  transform=" translate(-24.28, -13.57)" d="M 24.035 20.056 C 26.297 15.88 25.849 11.326 23.905 7.0760000000000005 L 22.996000000000002 7.492000000000001 C 24.822000000000003 11.485000000000001 25.240000000000002 15.732000000000001 23.156000000000002 19.58 L 24.035000000000004 20.055999999999997 z" stroke-linecap="round" />
</g>
		<g transform="matrix(1 0 0 1 0.48 0.02)"  >
<path style="stroke: none; stroke-width: 1; stroke-dasharray: none; stroke-linecap: butt; stroke-dashoffset: 0; stroke-linejoin: miter; stroke-miterlimit: 4; fill: rgb(255,255,255); fill-rule: nonzero; opacity: 1;" vector-effect="non-scaling-stroke"  transform=" translate(-14.48, -14.02)" d="M 8.221 21.401 L 21.47 7.324 L 20.741999999999997 6.638999999999999 L 7.492999999999997 20.716 z" stroke-linecap="round" />
</g>
		<g transform="matrix(1 0 0 1 0.5 0)"  >
<path style="stroke: none; stroke-width: 1; stroke-dasharray: none; stroke-linecap: butt; stroke-dashoffset: 0; stroke-linejoin: miter; stroke-miterlimit: 4; fill: rgb(255,255,255); fill-rule: nonzero; opacity: 1;" vector-effect="non-scaling-stroke"  transform=" translate(-14.5, -14)" d="M 6.5 24 C 7.328 24 8 23.328 8 22.5 C 8 21.672 7.328 21 6.5 21 C 5.672 21 5 21.672 5 22.5 C 5 23.328 5.672 24 6.5 24 z M 6.5 25 C 5.119 25 4 23.881 4 22.5 C 4 21.119 5.119 20 6.5 20 C 7.881 20 9 21.119 9 22.5 C 9 23.881 7.881 25 6.5 25 z M 22.5 7 C 23.328 7 24 6.328 24 5.5 C 24 4.672 23.328 4 22.5 4 C 21.672 4 21 4.672 21 5.5 C 21 6.328 21.672 7 22.5 7 z M 22.5 8 C 21.119 8 20 6.881 20 5.5 C 20 4.119 21.119 3 22.5 3 C 23.881 3 25 4.119 25 5.5 C 25 6.881 23.881 8 22.5 8 z M 22.5 23 C 23.328 23 24 22.328 24 21.5 C 24 20.672 23.328 20 22.5 20 C 21.672 20 21 20.672 21 21.5 C 21 22.328 21.672 23 22.5 23 z M 22.5 24 C 21.119 24 20 22.881 20 21.5 C 20 20.119 21.119 19 22.5 19 C 23.881 19 25 20.119 25 21.5 C 25 22.881 23.881 24 22.5 24 z" stroke-linecap="round" />
</g>
</g>
</g>
</svg>