<?xml version="1.0" encoding="UTF-8" standalone="no" ?>
<!DOCTYPE svg PUBLIC "-//W3C//DTD SVG 1.1//EN" "http://www.w3.org/Graphics/SVG/1.1/DTD/svg11.dtd">
<svg xmlns="http://www.w3.org/2000/svg" xmlns:xlink="http://www.w3.org/1999/xlink" version="1.1" width="1080" height="1080" viewBox="0 0 1080 1080" xml:space="preserve">
<desc>Created with Fabric.js 5.2.4</desc>
<defs>
</defs>
<rect x="0" y="0" width="100%" height="100%" fill="transparent"></rect>
<g transform="matrix(1 0 0 1 540 540)" id="eb9bdddc-823c-43d7-9c91-68de8e9da5a7"  >
<rect style="stroke: none; stroke-width: 1; stroke-dasharray: none; stroke-linecap: butt; stroke-dashoffset: 0; stroke-linejoin: miter; stroke-miterlimit: 4; fill: rgb(255,255,255); fill-rule: nonzero; opacity: 1; visibility: hidden;" vector-effect="non-scaling-stroke"  x="-540" y="-540" rx="0" ry="0" width="1080" height="1080" />
</g>
<g transform="matrix(1 0 0 1 540 540)" id="c9a33982-4f1e-45f1-b6f7-6ce17223a752"  >
</g>
<g transform="matrix(10.8 0 0 10.8 540 540)"  >
<path style="stroke: none; stroke-width: 1; stroke-dasharray: none; stroke-linecap: butt; stroke-dashoffset: 0; stroke-linejoin: miter; stroke-miterlimit: 4; fill: rgb(255,255,255); fill-rule: nonzero; opacity: 1;"  transform=" translate(-50, -50)" d="M 16 21.8 L 23.2 21.8 L 23.2 53.400000000000006 L 16 53.400000000000006 L 16 75 L 12.2 75 L 12.2 53.4 L 5 53.4 L 5 21.8 L 12.2 21.8 L 12.2 12.4 L 16 12.4 L 16 21.8 z M 39.9 19.6 L 36.1 19.6 L 36.1 35.6 L 28.900000000000002 35.6 L 28.900000000000002 69.1 L 36.1 69.1 L 36.1 81.89999999999999 L 39.9 81.89999999999999 L 39.9 69.1 L 47.1 69.1 L 47.1 35.6 L 39.9 35.6 L 39.9 19.6 z M 95 45.5 L 87.8 45.5 L 87.8 28.1 L 84 28.1 L 84 45.5 L 76.8 45.5 L 76.8 66 L 84 66 L 84 82 L 87.8 82 L 87.8 66 L 95 66 L 95 45.5 z M 67.6 30.7 L 71 30.7 L 71 78 L 63.8 78 L 63.8 90.7 L 60 90.7 L 60 78 L 52.8 78 L 52.8 30.8 L 60.1 30.8 L 60.1 9.3 L 63.9 9.3 L 63.9 30.7 L 67.6 30.7 z M 63.3 74.3 L 60.1 71 L 56.7 67.6 L 56.7 72.89999999999999 L 58.1 74.3 L 63.300000000000004 74.3 z M 67.3 67.6 L 63.9 64.19999999999999 L 60.1 60.39999999999999 L 56.7 56.99999999999999 L 56.7 62.29999999999999 L 60.1 65.69999999999999 L 63.9 69.49999999999999 L 67.3 72.89999999999999 L 67.3 67.6 z M 67.3 56.99999999999999 L 63.9 53.599999999999994 L 60.1 49.8 L 56.7 46.4 L 56.7 51.699999999999996 L 60.1 55.099999999999994 L 63.9 58.89999999999999 L 67.3 62.29999999999999 L 67.3 57 z M 67.3 46.3 L 63.9 42.9 L 60.1 39.1 L 56.7 35.7 L 56.7 41 L 60.1 44.4 L 63.9 48.199999999999996 L 67.3 51.599999999999994 L 67.3 46.3 z M 67.3 35.699999999999996 L 66.1 34.49999999999999 L 60.8 34.49999999999999 L 63.9 37.599999999999994 L 67.3 40.99999999999999 L 67.3 35.699999999999996 z" stroke-linecap="round" />
</g>
</svg>