<?xml version="1.0" encoding="UTF-8" standalone="no" ?>
<!DOCTYPE svg PUBLIC "-//W3C//DTD SVG 1.1//EN" "http://www.w3.org/Graphics/SVG/1.1/DTD/svg11.dtd">
<svg xmlns="http://www.w3.org/2000/svg" xmlns:xlink="http://www.w3.org/1999/xlink" version="1.1" width="1080" height="1080" viewBox="0 0 1080 1080" xml:space="preserve">
<desc>Created with Fabric.js 5.2.4</desc>
<defs>
</defs>
<rect x="0" y="0" width="100%" height="100%" fill="transparent"></rect>
<g transform="matrix(1 0 0 1 540 540)" id="0594cade-ff73-48fd-9c04-06fb5c624394"  >
<rect style="stroke: none; stroke-width: 1; stroke-dasharray: none; stroke-linecap: butt; stroke-dashoffset: 0; stroke-linejoin: miter; stroke-miterlimit: 4; fill: rgb(255,255,255); fill-rule: nonzero; opacity: 1; visibility: hidden;" vector-effect="non-scaling-stroke"  x="-540" y="-540" rx="0" ry="0" width="1080" height="1080" />
</g>
<g transform="matrix(1 0 0 1 540 540)" id="b0108de0-3f73-4c83-b704-ff79f93a97a1"  >
</g>
<g transform="matrix(38.57 0 0 38.57 540 540)"  >
<path style="stroke: rgb(255,255,255); stroke-width: 1; stroke-dasharray: none; stroke-linecap: butt; stroke-dashoffset: 0; stroke-linejoin: miter; stroke-miterlimit: 4; fill: rgb(255,255,255); fill-rule: evenodd; opacity: 1;"  transform=" translate(-14, -14.5)" d="M 11.5 6 C 11.223857625084603 6 11 6.223857625084603 11 6.5 L 11 8 L 17 8 L 17 6.5 C 17 6.223857625084603 16.7761423749154 6 16.5 6 L 11.5 6 z M 18 8 L 18 6.5 C 18 5.67 17.33 5 16.5 5 L 11.5 5 C 10.67 5 10 5.67 10 6.5 L 10 8 L 5.5 8 C 5.223857625084603 8 5 8.223857625084603 5 8.5 C 5 8.776142374915397 5.223857625084603 9 5.5 9 L 7 9 L 7 21.5 C 7 22.880711874576985 8.119288125423017 24 9.5 24 L 18.5 24 C 19.880711874576985 24 21 22.880711874576985 21 21.5 L 21 9 L 22.5 9 C 22.7761423749154 9 23 8.776142374915397 23 8.5 C 23 8.223857625084603 22.7761423749154 8 22.5 8 L 18 8 z M 20 9 L 8 9 L 8 21.5 C 8 22.33 8.67 23 9.5 23 L 18.5 23 C 19.33 23 20 22.33 20 21.5 L 20 9 z M 11.5 12 C 11.78 12 12 12.22 12 12.5 L 12 19.5 C 12 19.7761423749154 11.776142374915397 20 11.5 20 C 11.223857625084603 20 11 19.7761423749154 11 19.5 L 11 12.5 C 11 12.22 11.22 12 11.5 12 z M 17 12.5 C 17 12.223857625084603 16.7761423749154 12 16.5 12 C 16.223857625084605 12 16 12.223857625084603 16 12.5 L 16 19.5 C 16 19.7761423749154 16.2238576250846 20 16.5 20 C 16.776142374915395 20 17 19.7761423749154 17 19.5 L 17 12.5 z" stroke-linecap="round" />
</g>
</svg>