<?xml version="1.0" encoding="UTF-8" standalone="no" ?>
<!DOCTYPE svg PUBLIC "-//W3C//DTD SVG 1.1//EN" "http://www.w3.org/Graphics/SVG/1.1/DTD/svg11.dtd">
<svg xmlns="http://www.w3.org/2000/svg" xmlns:xlink="http://www.w3.org/1999/xlink" version="1.1" width="1080" height="1080" viewBox="0 0 1080 1080" xml:space="preserve">
<desc>Created with Fabric.js 5.2.4</desc>
<defs>
</defs>
<rect x="0" y="0" width="100%" height="100%" fill="transparent"></rect>
<g transform="matrix(1 0 0 1 540 540)" id="a6474d76-c44b-4cb3-bcc2-9e97042a2b6d"  >
<rect style="stroke: none; stroke-width: 1; stroke-dasharray: none; stroke-linecap: butt; stroke-dashoffset: 0; stroke-linejoin: miter; stroke-miterlimit: 4; fill: rgb(255,255,255); fill-rule: nonzero; opacity: 1; visibility: hidden;" vector-effect="non-scaling-stroke"  x="-540" y="-540" rx="0" ry="0" width="1080" height="1080" />
</g>
<g transform="matrix(1 0 0 1 540 540)" id="1fc2687a-fc2d-4a62-942d-07f30305f0f7"  >
</g>
<g transform="matrix(NaN NaN NaN NaN 0 0)"  >
<g style=""   >
</g>
</g>
<g transform="matrix(38.57 0 0 38.57 540 540)"  >
<g style=""   >
		<g transform="matrix(1 0 0 1 1.25 1.25)"  >
<path style="stroke: none; stroke-width: 1; stroke-dasharray: none; stroke-linecap: butt; stroke-dashoffset: 0; stroke-linejoin: miter; stroke-miterlimit: 4; fill: rgb(0,0,0); fill-rule: nonzero; opacity: 1;" vector-effect="non-scaling-stroke"  transform=" translate(-15.25, -15.25)" d="M 6.5 23 L 6.5 24 L 24 24 L 24 6.5 L 23 6.5 L 23 23 z" stroke-linecap="round" />
</g>
		<g transform="matrix(1 0 0 1 -1.25 -1.25)"  >
<path style="stroke: none; stroke-width: 1; stroke-dasharray: none; stroke-linecap: butt; stroke-dashoffset: 0; stroke-linejoin: miter; stroke-miterlimit: 4; fill: rgb(0,0,0); fill-rule: nonzero; opacity: 1;" vector-effect="non-scaling-stroke"  transform=" translate(-12.75, -12.75)" d="M 21.5 5 L 21.5 4 L 4 4 L 4 21.5 L 5 21.5 L 5 5 z" stroke-linecap="round" />
</g>
		<g transform="matrix(1 0 0 1 0 0)"  >
<path style="stroke: none; stroke-width: 1; stroke-dasharray: none; stroke-linecap: butt; stroke-dashoffset: 0; stroke-linejoin: miter; stroke-miterlimit: 4; fill: rgb(0,0,0); fill-rule: nonzero; opacity: 1;" vector-effect="non-scaling-stroke"  transform=" translate(-14, -14)" d="M 4.5 25 C 5.328 25 6 24.328 6 23.5 C 6 22.672 5.328 22 4.5 22 C 3.6719999999999997 22 3 22.672 3 23.5 C 3 24.328 3.672 25 4.5 25 z M 4.5 26 C 3.1189999999999998 26 2 24.881 2 23.5 C 2 22.119 3.1189999999999998 21 4.5 21 C 5.881 21 7 22.119 7 23.5 C 7 24.881 5.881 26 4.5 26 z M 23.5 6 C 24.328 6 25 5.328 25 4.5 C 25 3.6719999999999997 24.328 3 23.5 3 C 22.672 3 22 3.672 22 4.5 C 22 5.327999999999999 22.672 6 23.5 6 z M 23.5 7 C 22.119 7 21 5.881 21 4.5 C 21 3.1189999999999998 22.119 2 23.5 2 C 24.881 2 26 3.1189999999999998 26 4.5 C 26 5.881 24.881 7 23.5 7 z" stroke-linecap="round" />
</g>
		<g transform="matrix(1 0 0 1 -0.5 1.5)" id="Line"  >
<path style="stroke: none; stroke-width: 1; stroke-dasharray: none; stroke-linecap: butt; stroke-dashoffset: 0; stroke-linejoin: miter; stroke-miterlimit: 4; fill: rgb(0,0,0); fill-rule: nonzero; opacity: 1;" vector-effect="non-scaling-stroke"  transform=" translate(-13.5, -15.5)" d="M 13 9 L 13 22 L 14 22 L 14 9 z" stroke-linecap="round" />
</g>
		<g transform="matrix(1 0 0 1 -0.5 -6.5)"  >
<path style="stroke: none; stroke-width: 1; stroke-dasharray: none; stroke-linecap: butt; stroke-dashoffset: 0; stroke-linejoin: miter; stroke-miterlimit: 4; fill: rgb(0,0,0); fill-rule: nonzero; opacity: 1;" vector-effect="non-scaling-stroke"  transform=" translate(-13.5, -7.5)" d="M 13.5 6 L 16 9 L 11 9 z" stroke-linecap="round" />
</g>
		<g transform="matrix(1 0 0 1 -1.5 0.5)"  >
<path style="stroke: none; stroke-width: 1; stroke-dasharray: none; stroke-linecap: butt; stroke-dashoffset: 0; stroke-linejoin: miter; stroke-miterlimit: 4; fill: rgb(0,0,0); fill-rule: nonzero; opacity: 1;" vector-effect="non-scaling-stroke"  transform=" translate(-12.5, -14.5)" d="M 19 14 L 6 14 L 6 15 L 19 15 z" stroke-linecap="round" />
</g>
		<g transform="matrix(1 0 0 1 6.5 0.5)"  >
<path style="stroke: none; stroke-width: 1; stroke-dasharray: none; stroke-linecap: butt; stroke-dashoffset: 0; stroke-linejoin: miter; stroke-miterlimit: 4; fill: rgb(0,0,0); fill-rule: nonzero; opacity: 1;" vector-effect="non-scaling-stroke"  transform=" translate(-20.5, -14.5)" d="M 19 17 L 19 12 L 22 14.5 z" stroke-linecap="round" />
</g>
</g>
</g>
</svg>