<?xml version="1.0" encoding="UTF-8" standalone="no" ?>
<!DOCTYPE svg PUBLIC "-//W3C//DTD SVG 1.1//EN" "http://www.w3.org/Graphics/SVG/1.1/DTD/svg11.dtd">
<svg xmlns="http://www.w3.org/2000/svg" xmlns:xlink="http://www.w3.org/1999/xlink" version="1.1" width="1080" height="1080" viewBox="0 0 1080 1080" xml:space="preserve">
<desc>Created with Fabric.js 5.2.4</desc>
<defs>
</defs>
<g transform="matrix(1 0 0 1 540 540)" id="6684167a-1ad2-40ab-b296-9a49ff31db70"  >
<rect style="stroke: none; stroke-width: 1; stroke-dasharray: none; stroke-linecap: butt; stroke-dashoffset: 0; stroke-linejoin: miter; stroke-miterlimit: 4; fill: rgb(255,255,255); fill-rule: nonzero; opacity: 1; visibility: hidden;" vector-effect="non-scaling-stroke"  x="-540" y="-540" rx="0" ry="0" width="1080" height="1080" />
</g>
<g transform="matrix(1 0 0 1 540 540)" id="f87b653c-636b-441d-96ad-4af391f47d15"  >
</g>
<g transform="matrix(1 0 0 1 540 540)" id="1dec9da1-5503-4118-8d2d-ae51aeb417d4"  >
<path style="stroke: rgb(0,0,0); stroke-width: 0; stroke-dasharray: none; stroke-linecap: butt; stroke-dashoffset: 0; stroke-linejoin: miter; stroke-miterlimit: 4; fill: rgb(255,255,255); fill-rule: nonzero; opacity: 1;" vector-effect="non-scaling-stroke"  transform=" translate(-12, -11.79)" d="M 19.604 2.562 L 16.258 5.699 C 14.988 5.271 13.572 5 12.014999999999999 5 C 4.445999999999999 5 -1.7763568394002505e-15 11.551 -1.7763568394002505e-15 11.551 C -1.7763568394002505e-15 11.551 1.9279999999999982 14.502 5.145999999999998 16.689 L 2.234999999999998 19.598 L 3.6489999999999982 21.012 L 21.019 3.9770000000000003 L 19.604 2.5620000000000003 z M 13.588 8.341 C 10.299999999999999 6.887999999999999 6.906999999999999 10.248999999999999 8.323 13.547 L 6.597 15.254000000000001 C 4.783 14.094000000000001 3.3720000000000003 12.604000000000001 2.537000000000001 11.594000000000001 C 4.030000000000001 9.946000000000002 7.354000000000001 7.000000000000001 12.015 7.000000000000001 C 12.942 7.000000000000001 13.811 7.119000000000001 14.625 7.315000000000001 L 13.588000000000001 8.341000000000001 z M 10.704999999999998 15.771999999999998 L 15.794999999999998 10.778999999999998 C 16.811999999999998 13.889999999999999 13.791999999999998 16.845999999999997 10.704999999999998 15.771999999999998 z M 24 11.550999999999998 C 24 11.550999999999998 19.748 19 12.015 19 C 10.636000000000001 19 9.353000000000002 18.709 8.164000000000001 18.263 L 9.778000000000002 16.680000000000003 C 10.493000000000002 16.873000000000005 11.236000000000002 17.000000000000004 12.015000000000002 17.000000000000004 C 16.806000000000004 17.000000000000004 20.119 13.473000000000003 21.519000000000002 11.636000000000003 C 20.790000000000003 10.814000000000004 19.563000000000002 9.646000000000003 17.932000000000002 8.684000000000003 L 19.421000000000003 7.224000000000003 C 22.403000000000002 9.124000000000002 24.000000000000004 11.551000000000002 24.000000000000004 11.551000000000002 z" stroke-linecap="round" />
</g>
</svg>