<svg width="48" height="48" viewBox="0 0 48 48" fill="none" xmlns="http://www.w3.org/2000/svg">
<path d="M24 48C37.2548 48 48 37.2548 48 24C48 10.7452 37.2548 0 24 0C10.7452 0 0 10.7452 0 24C0 37.2548 10.7452 48 24 48Z" fill="#4E71A8"/>
<path d="M29.9001 19.5H25.9001V16.9C25.9001 15.9 26.6001 15.7 27.0001 15.7C27.5001 15.7 29.8001 15.7 29.8001 15.7V11.3H25.9001C21.5001 11.3 20.6001 14.6 20.6001 16.6V19.5H18.1001V24H20.6001C20.6001 29.8 20.6001 36.7001 20.6001 36.7001H25.9001C25.9001 36.7001 25.9001 29.7 25.9001 24H29.5001L29.9001 19.5Z" fill="white"/>
</svg>
