<?xml version="1.0" encoding="UTF-8" standalone="no" ?>
<!DOCTYPE svg PUBLIC "-//W3C//DTD SVG 1.1//EN" "http://www.w3.org/Graphics/SVG/1.1/DTD/svg11.dtd">
<svg xmlns="http://www.w3.org/2000/svg" xmlns:xlink="http://www.w3.org/1999/xlink" version="1.1" width="1080" height="1080" viewBox="0 0 1080 1080" xml:space="preserve">
<desc>Created with Fabric.js 5.2.4</desc>
<defs>
</defs>
<rect x="0" y="0" width="100%" height="100%" fill="transparent"></rect>
<g transform="matrix(1 0 0 1 540 540)" id="a6474d76-c44b-4cb3-bcc2-9e97042a2b6d"  >
<rect style="stroke: none; stroke-width: 1; stroke-dasharray: none; stroke-linecap: butt; stroke-dashoffset: 0; stroke-linejoin: miter; stroke-miterlimit: 4; fill: #0055ff; fill-rule: nonzero; opacity: 1; visibility: hidden;" vector-effect="non-scaling-stroke"  x="-540" y="-540" rx="0" ry="0" width="1080" height="1080" />
</g>
<g transform="matrix(1 0 0 1 540 540)" id="1fc2687a-fc2d-4a62-942d-07f30305f0f7"  >
</g>
<g transform="matrix(NaN NaN NaN NaN 0 0)"  >
<g style=""   >
</g>
</g>
<g transform="matrix(38.57 0 0 38.57 540 540)"  >
<g style=""   >
		<g transform="matrix(1 0 0 1 6.5 -1)"  >
<path style="stroke: none; stroke-width: 1; stroke-dasharray: none; stroke-linecap: butt; stroke-dashoffset: 0; stroke-linejoin: miter; stroke-miterlimit: 4; fill: #0055ff; fill-rule: nonzero; opacity: 1;" vector-effect="non-scaling-stroke"  transform=" translate(-20.5, -13)" d="M 20 2 L 20 24 L 21 24 L 21 2 z" stroke-linecap="round" />
</g>
		<g transform="matrix(1 0 0 1 10.5 -1)"  >
<path style="stroke: none; stroke-width: 1; stroke-dasharray: none; stroke-linecap: butt; stroke-dashoffset: 0; stroke-linejoin: miter; stroke-miterlimit: 4; fill: #0055ff; fill-rule: nonzero; opacity: 1;" vector-effect="non-scaling-stroke"  transform=" translate(-24.5, -13)" d="M 24 2 L 24 24 L 25 24 L 25 2 z" stroke-linecap="round" />
</g>
		<g transform="matrix(1 0 0 1 -7.01 2.47)"  >
<path style="stroke: none; stroke-width: 1; stroke-dasharray: none; stroke-linecap: butt; stroke-dashoffset: 0; stroke-linejoin: miter; stroke-miterlimit: 4; fill: #0055ff; fill-rule: nonzero; opacity: 1;" vector-effect="non-scaling-stroke"  transform=" translate(-6.99, -16.47)" d="M 4.673 11.471 L 8.363 21.804000000000002 L 9.305 21.468000000000004 L 5.615 11.135000000000003 z" stroke-linecap="round" />
</g>
		<g transform="matrix(1 0 0 1 2.5 -2.23)"  >
<path style="stroke: none; stroke-width: 1; stroke-dasharray: none; stroke-linecap: butt; stroke-dashoffset: 0; stroke-linejoin: miter; stroke-miterlimit: 4; fill: #0055ff; fill-rule: nonzero; opacity: 1;" vector-effect="non-scaling-stroke"  transform=" translate(-16.5, -11.77)" d="M 17 21.535 L 17 2 L 16 2 L 16 21.535 z" stroke-linecap="round" />
</g>
		<g transform="matrix(1 0 0 1 -1 9.5)"  >
<path style="stroke: none; stroke-width: 1; stroke-dasharray: none; stroke-linecap: butt; stroke-dashoffset: 0; stroke-linejoin: miter; stroke-miterlimit: 4; fill: #0055ff; fill-rule: nonzero; opacity: 1;" vector-effect="non-scaling-stroke"  transform=" translate(-13, -23.5)" d="M 11.5 24 L 14.5 24 L 14.5 23 L 11.5 23 z" stroke-linecap="round" />
</g>
		<g transform="matrix(1 0 0 1 -3.5 2.5)"  >
<path style="stroke: none; stroke-width: 1; stroke-dasharray: none; stroke-linecap: butt; stroke-dashoffset: 0; stroke-linejoin: miter; stroke-miterlimit: 4; fill: #0055ff; fill-rule: nonzero; opacity: 1;" vector-effect="non-scaling-stroke"  transform=" translate(-10.5, -16.5)" d="M 4.5 11 C 5.328 11 6 10.328 6 9.5 C 6 8.672 5.328 8 4.5 8 C 3.6719999999999997 8 3 8.672 3 9.5 C 3 10.328 3.672 11 4.5 11 z M 4.5 12 C 3.1189999999999998 12 2 10.881 2 9.5 C 2 8.119 3.1189999999999998 7 4.5 7 C 5.881 7 7 8.119 7 9.5 C 7 10.881 5.881 12 4.5 12 z M 9.5 25 C 10.328 25 11 24.328 11 23.5 C 11 22.672 10.328 22 9.5 22 C 8.672 22 8 22.672 8 23.5 C 8 24.328 8.672 25 9.5 25 z M 9.5 26 C 8.119 26 7 24.881 7 23.5 C 7 22.119 8.119 21 9.5 21 C 10.881 21 12 22.119 12 23.5 C 12 24.881 10.881 26 9.5 26 z M 16.5 25 C 17.328 25 18 24.328 18 23.5 C 18 22.672 17.328 22 16.5 22 C 15.672 22 15 22.672 15 23.5 C 15 24.328 15.672 25 16.5 25 z M 16.5 26 C 15.119 26 14 24.881 14 23.5 C 14 22.119 15.119 21 16.5 21 C 17.881 21 19 22.119 19 23.5 C 19 24.881 17.881 26 16.5 26 z" stroke-linecap="round" />
</g>
</g>
</g>
</svg>