<?xml version="1.0" encoding="UTF-8" standalone="no" ?>
<!DOCTYPE svg PUBLIC "-//W3C//DTD SVG 1.1//EN" "http://www.w3.org/Graphics/SVG/1.1/DTD/svg11.dtd">
<svg xmlns="http://www.w3.org/2000/svg" xmlns:xlink="http://www.w3.org/1999/xlink" version="1.1" width="1080" height="1080" viewBox="0 0 1080 1080" xml:space="preserve">
<desc>Created with Fabric.js 5.2.4</desc>
<defs>
</defs>
<rect x="0" y="0" width="100%" height="100%" fill="transparent"></rect>
<g transform="matrix(1 0 0 1 540 540)" id="a6474d76-c44b-4cb3-bcc2-9e97042a2b6d"  >
<rect style="stroke: none; stroke-width: 1; stroke-dasharray: none; stroke-linecap: butt; stroke-dashoffset: 0; stroke-linejoin: miter; stroke-miterlimit: 4; fill: rgb(255,255,255); fill-rule: nonzero; opacity: 1; visibility: hidden;" vector-effect="non-scaling-stroke"  x="-540" y="-540" rx="0" ry="0" width="1080" height="1080" />
</g>
<g transform="matrix(1 0 0 1 540 540)" id="1fc2687a-fc2d-4a62-942d-07f30305f0f7"  >
</g>
<g transform="matrix(NaN NaN NaN NaN 0 0)"  >
<g style=""   >
</g>
</g>
<g transform="matrix(38.57 0 0 38.57 540 540)"  >
<g style=""   >
		<g transform="matrix(1 0 0 1 -2.79 -6.16)"  >
<path style="stroke: none; stroke-width: 1; stroke-dasharray: none; stroke-linecap: butt; stroke-dashoffset: 0; stroke-linejoin: miter; stroke-miterlimit: 4; fill: rgb(255,255,255); fill-rule: nonzero; opacity: 1;" vector-effect="non-scaling-stroke"  transform=" translate(-11.21, -7.84)" d="M 4.395 10.18 C 7.827 5.768 14.459999999999999 5.1819999999999995 18.07 9.206999999999999 L 18.815 8.539 C 14.771 4.029999999999999 7.406000000000001 4.680999999999999 3.6060000000000016 9.565999999999999 L 4.395000000000001 10.18 z" stroke-linecap="round" />
</g>
		<g transform="matrix(1 0 0 1 -0.12 3.09)"  >
<path style="stroke: none; stroke-width: 1; stroke-dasharray: none; stroke-linecap: butt; stroke-dashoffset: 0; stroke-linejoin: miter; stroke-miterlimit: 4; fill: rgb(255,255,255); fill-rule: nonzero; opacity: 1;" vector-effect="non-scaling-stroke"  transform=" translate(-13.88, -17.09)" d="M 19.991 12.494 C 20.868 15.212 20.222 17.981 18.094 20.037 C 15.448 22.593 11.342000000000002 22.866999999999997 8.906 20.514 C 6.914000000000001 18.59 6.8790000000000004 15.134 8.847000000000001 13.233 C 10.429000000000002 11.705 12.627 11.646 14.152000000000001 13.118 C 15.176000000000002 14.108 15.538 15.542 15.028 16.609 L 15.93 17.040000000000003 C 16.639 15.558000000000003 16.162 13.670000000000002 14.846 12.399000000000003 C 12.925 10.544000000000002 10.112 10.619000000000003 8.151 12.514000000000003 C 5.773 14.811000000000003 5.814 18.919000000000004 8.209999999999999 21.233000000000004 C 11.056 23.982000000000003 15.773 23.668000000000003 18.787 20.756000000000004 C 21.194 18.431000000000004 21.933999999999997 15.263000000000003 20.941 12.187000000000003 L 19.988999999999997 12.494000000000003 z" stroke-linecap="round" />
</g>
		<g transform="matrix(1 0 0 1 8.26 -6.26)"  >
<path style="stroke: none; stroke-width: 1; stroke-dasharray: none; stroke-linecap: butt; stroke-dashoffset: 0; stroke-linejoin: miter; stroke-miterlimit: 4; fill: rgb(255,255,255); fill-rule: nonzero; opacity: 1;" vector-effect="non-scaling-stroke"  transform=" translate(-22.26, -7.74)" d="M 21.01 9.697 L 24.207 6.499999999999999 L 23.5 5.792999999999999 L 20.303 8.989999999999998 z" stroke-linecap="round" />
</g>
		<g transform="matrix(1 0 0 1 2.47 -0.47)"  >
<path style="stroke: none; stroke-width: 1; stroke-dasharray: none; stroke-linecap: butt; stroke-dashoffset: 0; stroke-linejoin: miter; stroke-miterlimit: 4; fill: rgb(255,255,255); fill-rule: nonzero; opacity: 1;" vector-effect="non-scaling-stroke"  transform=" translate(-16.47, -13.53)" d="M 14.989 15.719 L 18.663 12.045 L 17.956 11.338 L 14.282 15.011999999999999 z" stroke-linecap="round" />
</g>
		<g transform="matrix(1 0 0 1 2.5 -0.5)"  >
<path style="stroke: none; stroke-width: 1; stroke-dasharray: none; stroke-linecap: butt; stroke-dashoffset: 0; stroke-linejoin: miter; stroke-miterlimit: 4; fill: rgb(255,255,255); fill-rule: nonzero; opacity: 1;" vector-effect="non-scaling-stroke"  transform=" translate(-16.5, -13.5)" d="M 13.5 18 C 14.328 18 15 17.328 15 16.5 C 15 15.672 14.328 15 13.5 15 C 12.672 15 12 15.672 12 16.5 C 12 17.328 12.672 18 13.5 18 z M 13.5 19 C 12.119 19 11 17.881 11 16.5 C 11 15.119 12.119 14 13.5 14 C 14.881 14 16 15.119 16 16.5 C 16 17.881 14.881 19 13.5 19 z M 19.5 12 C 20.328 12 21 11.328 21 10.5 C 21 9.672 20.328 9 19.5 9 C 18.672 9 18 9.672 18 10.5 C 18 11.328 18.672 12 19.5 12 z M 19.5 13 C 18.119 13 17 11.881 17 10.5 C 17 9.119 18.119 8 19.5 8 C 20.881 8 22 9.119 22 10.5 C 22 11.881 20.881 13 19.5 13 z" stroke-linecap="round" />
</g>
</g>
</g>
</svg>