<?xml version="1.0" encoding="UTF-8" standalone="no" ?>
<!DOCTYPE svg PUBLIC "-//W3C//DTD SVG 1.1//EN" "http://www.w3.org/Graphics/SVG/1.1/DTD/svg11.dtd">
<svg xmlns="http://www.w3.org/2000/svg" xmlns:xlink="http://www.w3.org/1999/xlink" version="1.1" width="1080" height="1080" viewBox="0 0 1080 1080" xml:space="preserve">
<desc>Created with Fabric.js 5.2.4</desc>
<defs>
</defs>
<rect x="0" y="0" width="100%" height="100%" fill="transparent"></rect>
<g transform="matrix(1 0 0 1 540 540)" id="a6474d76-c44b-4cb3-bcc2-9e97042a2b6d"  >
<rect style="stroke: none; stroke-width: 1; stroke-dasharray: none; stroke-linecap: butt; stroke-dashoffset: 0; stroke-linejoin: miter; stroke-miterlimit: 4; fill: rgb(255,255,255); fill-rule: nonzero; opacity: 1; visibility: hidden;" vector-effect="non-scaling-stroke"  x="-540" y="-540" rx="0" ry="0" width="1080" height="1080" />
</g>
<g transform="matrix(1 0 0 1 540 540)" id="1fc2687a-fc2d-4a62-942d-07f30305f0f7"  >
</g>
<g transform="matrix(NaN NaN NaN NaN 0 0)"  >
<g style=""   >
</g>
</g>
<g transform="matrix(38.57 0 0 38.57 540 540)"  >
<g style=""   >
		<g transform="matrix(1 0 0 1 -3 -1.25)" id="Line"  >
<path style="stroke: none; stroke-width: 1; stroke-dasharray: none; stroke-linecap: butt; stroke-dashoffset: 0; stroke-linejoin: miter; stroke-miterlimit: 4; fill: rgb(255,255,255); fill-rule: nonzero; opacity: 1;" vector-effect="non-scaling-stroke"  transform=" translate(-11, -12.75)" d="M 4 2 L 4 21.5 L 5 21.5 L 5 2 z M 15.5 10 L 4.5 10 L 4.5 11 L 15.5 11 z M 17 12.5 L 17 23.5 L 18 23.5 L 18 12.5 z M 6.29 22.417 L 16.452 12.255 L 15.745000000000001 11.548 L 5.583 21.71 z" stroke-linecap="round" />
</g>
		<g transform="matrix(1 0 0 1 8.21 -8.21)"  >
<path style="stroke: none; stroke-width: 1; stroke-dasharray: none; stroke-linecap: butt; stroke-dashoffset: 0; stroke-linejoin: miter; stroke-miterlimit: 4; fill: rgb(255,255,255); fill-rule: nonzero; opacity: 1;" vector-effect="non-scaling-stroke"  transform=" translate(-22.21, -5.79)" d="M 19.264 9.443 L 25.853 2.853999999999999 L 25.146 2.1469999999999994 L 18.557000000000002 8.736 z" stroke-linecap="round" />
</g>
		<g transform="matrix(1 0 0 1 1.96 5.95)"  >
<path style="stroke: none; stroke-width: 1; stroke-dasharray: none; stroke-linecap: butt; stroke-dashoffset: 0; stroke-linejoin: miter; stroke-miterlimit: 4; fill: rgb(255,255,255); fill-rule: nonzero; opacity: 1;" vector-effect="non-scaling-stroke"  transform=" translate(-15.96, -19.95)" d="M 6.577 23.381 L 25.648000000000003 17.478 L 25.352000000000004 16.523000000000003 L 6.281000000000002 22.426000000000002 z" stroke-linecap="round" />
</g>
		<g transform="matrix(1 0 0 1 -5.95 -1.96)"  >
<path style="stroke: none; stroke-width: 1; stroke-dasharray: none; stroke-linecap: butt; stroke-dashoffset: 0; stroke-linejoin: miter; stroke-miterlimit: 4; fill: rgb(255,255,255); fill-rule: nonzero; opacity: 1;" vector-effect="non-scaling-stroke"  transform=" translate(-8.05, -12.04)" d="M 5.573 21.724 L 11.478000000000002 2.6479999999999997 L 10.523000000000001 2.352 L 4.618000000000001 21.428 z" stroke-linecap="round" />
</g>
		<g transform="matrix(1 0 0 1 2.25 9.5)"  >
<path style="stroke: none; stroke-width: 1; stroke-dasharray: none; stroke-linecap: butt; stroke-dashoffset: 0; stroke-linejoin: miter; stroke-miterlimit: 4; fill: rgb(255,255,255); fill-rule: nonzero; opacity: 1;" vector-effect="non-scaling-stroke"  transform=" translate(-16.25, -23.5)" d="M 6.5 24 L 26 24 L 26 23 L 6.5 23 z" stroke-linecap="round" />
</g>
		<g transform="matrix(1 0 0 1 -3 3)"  >
<path style="stroke: none; stroke-width: 1; stroke-dasharray: none; stroke-linecap: butt; stroke-dashoffset: 0; stroke-linejoin: miter; stroke-miterlimit: 4; fill: rgb(255,255,255); fill-rule: nonzero; opacity: 1;" vector-effect="non-scaling-stroke"  transform=" translate(-11, -17)" d="M 4.5 25 C 5.328 25 6 24.328 6 23.5 C 6 22.672 5.328 22 4.5 22 C 3.6719999999999997 22 3 22.672 3 23.5 C 3 24.328 3.672 25 4.5 25 z M 4.5 26 C 3.1189999999999998 26 2 24.881 2 23.5 C 2 22.119 3.1189999999999998 21 4.5 21 C 5.881 21 7 22.119 7 23.5 C 7 24.881 5.881 26 4.5 26 z M 17.5 12 C 18.328 12 19 11.328 19 10.5 C 19 9.672 18.328 9 17.5 9 C 16.672 9 16 9.672 16 10.5 C 16 11.328 16.672 12 17.5 12 z M 17.5 13 C 16.119 13 15 11.881 15 10.5 C 15 9.119 16.119 8 17.5 8 C 18.881 8 20 9.119 20 10.5 C 20 11.881 18.881 13 17.5 13 z" stroke-linecap="round" />
</g>
</g>
</g>
</svg>