<?xml version="1.0" encoding="UTF-8" standalone="no" ?>
<!DOCTYPE svg PUBLIC "-//W3C//DTD SVG 1.1//EN" "http://www.w3.org/Graphics/SVG/1.1/DTD/svg11.dtd">
<svg xmlns="http://www.w3.org/2000/svg" xmlns:xlink="http://www.w3.org/1999/xlink" version="1.1" width="1080" height="1080" viewBox="0 0 1080 1080" xml:space="preserve">
<desc>Created with Fabric.js 5.2.4</desc>
<defs>
</defs>
<rect x="0" y="0" width="100%" height="100%" fill="transparent"></rect>
<g transform="matrix(1 0 0 1 540 540)" id="ecda8231-fafe-4c32-a9ad-bb854779b4d2"  >
<rect style="stroke: none; stroke-width: 1; stroke-dasharray: none; stroke-linecap: butt; stroke-dashoffset: 0; stroke-linejoin: miter; stroke-miterlimit: 4; fill: #0055ff; fill-rule: nonzero; opacity: 1; visibility: hidden;" vector-effect="non-scaling-stroke"  x="-540" y="-540" rx="0" ry="0" width="1080" height="1080" />
</g>
<g transform="matrix(1 0 0 1 540 540)" id="8f6e485d-4389-4eb9-82c6-68fdef7a6da4"  >
</g>
<g transform="matrix(38.57 0 0 38.57 540 540)"  >
<g style=""   >
		<g transform="matrix(1 0 0 1 -1.25 -1.25)"  >
<path style="stroke: none; stroke-width: 1; stroke-dasharray: none; stroke-linecap: butt; stroke-dashoffset: 0; stroke-linejoin: miter; stroke-miterlimit: 4; fill: #0055ff; fill-rule: nonzero; opacity: 1;" vector-effect="non-scaling-stroke"  transform=" translate(-12.75, -12.75)" d="M 22.5 4 L 22.5 3 L 3 3 L 3 22.5 L 4 22.5 L 4 4 z" stroke-linecap="round" />
</g>
		<g transform="matrix(1 0 0 1 1.25 1.25)"  >
<path style="stroke: none; stroke-width: 1; stroke-dasharray: none; stroke-linecap: butt; stroke-dashoffset: 0; stroke-linejoin: miter; stroke-miterlimit: 4; fill: #0055ff; fill-rule: nonzero; opacity: 1;" vector-effect="non-scaling-stroke"  transform=" translate(-15.25, -15.25)" d="M 5.493 24 L 5.493 25 L 25 25 L 25 5.5 L 24 5.5 L 24 24 z" stroke-linecap="round" />
</g>
		<g transform="matrix(1 0 0 1 0.03 -0.03)"  >
<path style="stroke: none; stroke-width: 1; stroke-dasharray: none; stroke-linecap: butt; stroke-dashoffset: 0; stroke-linejoin: miter; stroke-miterlimit: 4; fill: #0055ff; fill-rule: nonzero; opacity: 1;" vector-effect="non-scaling-stroke"  transform=" translate(-14.03, -13.97)" d="M 5.275 23.432 L 23.488 5.218999999999998 L 22.781 4.511999999999998 L 4.567999999999998 22.724999999999998 z" stroke-linecap="round" />
</g>
		<g transform="matrix(1 0 0 1 0.96 6.95)" id="Line-Copy-18"  >
<path style="stroke: none; stroke-width: 1; stroke-dasharray: none; stroke-linecap: butt; stroke-dashoffset: 0; stroke-linejoin: miter; stroke-miterlimit: 4; fill: #0055ff; fill-rule: nonzero; opacity: 1;" vector-effect="non-scaling-stroke"  transform=" translate(-14.96, -20.95)" d="M 5.568 24.383 L 24.647 18.477 L 24.351 17.522000000000002 L 5.2719999999999985 23.428 z" stroke-linecap="round" />
</g>
		<g transform="matrix(1 0 0 1 -6.95 -0.98)"  >
<path style="stroke: none; stroke-width: 1; stroke-dasharray: none; stroke-linecap: butt; stroke-dashoffset: 0; stroke-linejoin: miter; stroke-miterlimit: 4; fill: #0055ff; fill-rule: nonzero; opacity: 1;" vector-effect="non-scaling-stroke"  transform=" translate(-7.05, -13.02)" d="M 4.587 22.68 L 10.478 3.6479999999999997 L 9.523 3.352 L 3.6319999999999997 22.384 z" stroke-linecap="round" />
</g>
		<g transform="matrix(1 0 0 1 0 -3.5)"  >
<path style="stroke: none; stroke-width: 1; stroke-dasharray: none; stroke-linecap: butt; stroke-dashoffset: 0; stroke-linejoin: miter; stroke-miterlimit: 4; fill: #0055ff; fill-rule: nonzero; opacity: 1;" vector-effect="non-scaling-stroke"  transform=" translate(-14, -10.5)" d="M 3.5 11 L 24.5 11 L 24.5 10 L 3.5 10 z" stroke-linecap="round" />
</g>
		<g transform="matrix(1 0 0 1 0 3.5)"  >
<path style="stroke: none; stroke-width: 1; stroke-dasharray: none; stroke-linecap: butt; stroke-dashoffset: 0; stroke-linejoin: miter; stroke-miterlimit: 4; fill: #0055ff; fill-rule: nonzero; opacity: 1;" vector-effect="non-scaling-stroke"  transform=" translate(-14, -17.5)" d="M 3.5 18 L 24.5 18 L 24.5 17 L 3.5 17 z" stroke-linecap="round" />
</g>
		<g transform="matrix(1 0 0 1 -3.5 0)"  >
<path style="stroke: none; stroke-width: 1; stroke-dasharray: none; stroke-linecap: butt; stroke-dashoffset: 0; stroke-linejoin: miter; stroke-miterlimit: 4; fill: #0055ff; fill-rule: nonzero; opacity: 1;" vector-effect="non-scaling-stroke"  transform=" translate(-10.5, -14)" d="M 10 3.5 L 10 24.5 L 11 24.5 L 11 3.5 z" stroke-linecap="round" />
</g>
		<g transform="matrix(1 0 0 1 3.5 0)"  >
<path style="stroke: none; stroke-width: 1; stroke-dasharray: none; stroke-linecap: butt; stroke-dashoffset: 0; stroke-linejoin: miter; stroke-miterlimit: 4; fill: #0055ff; fill-rule: nonzero; opacity: 1;" vector-effect="non-scaling-stroke"  transform=" translate(-17.5, -14)" d="M 17 3.5 L 17 24.5 L 18 24.5 L 18 3.5 z" stroke-linecap="round" />
</g>
		<g transform="matrix(1 0 0 1 0.25 -0.25)"  >
<path style="stroke: none; stroke-width: 1; stroke-dasharray: none; stroke-linecap: butt; stroke-dashoffset: 0; stroke-linejoin: miter; stroke-miterlimit: 4; fill: #0055ff; fill-rule: nonzero; opacity: 1;" vector-effect="non-scaling-stroke"  transform=" translate(-14.25, -13.75)" d="M 23.975 23.475 L 25 24.5 C 25 12.626 15.374 3 3.5 3 L 4.525 4.025 C 15.031 4.542000000000001 23.457 12.969000000000001 23.975 23.475 z" stroke-linecap="round" />
</g>
		<g transform="matrix(1 0 0 1 0 0)"  >
<path style="stroke: none; stroke-width: 1; stroke-dasharray: none; stroke-linecap: butt; stroke-dashoffset: 0; stroke-linejoin: miter; stroke-miterlimit: 4; fill: #0055ff; fill-rule: nonzero; opacity: 1;" vector-effect="non-scaling-stroke"  transform=" translate(-14, -14)" d="M 3.5 26 C 4.328 26 5 25.328 5 24.5 C 5 23.672 4.328 23 3.5 23 C 2.6719999999999997 23 2 23.672 2 24.5 C 2 25.328 2.672 26 3.5 26 z M 3.5 27 C 2.1189999999999998 27 1 25.881 1 24.5 C 1 23.119 2.1189999999999998 22 3.5 22 C 4.881 22 6 23.119 6 24.5 C 6 25.881 4.881 27 3.5 27 z M 24.5 5 C 25.328 5 26 4.328 26 3.5 C 26 2.6719999999999997 25.328 2 24.5 2 C 23.672 2 23 2.672 23 3.5 C 23 4.327999999999999 23.672 5 24.5 5 z M 24.5 6 C 23.119 6 22 4.881 22 3.5 C 22 2.1189999999999998 23.119 1 24.5 1 C 25.881 1 27 2.1189999999999998 27 3.5 C 27 4.881 25.881 6 24.5 6 z" stroke-linecap="round" />
</g>
</g>
</g>
</svg>