<?xml version="1.0" encoding="UTF-8" standalone="no" ?>
<!DOCTYPE svg PUBLIC "-//W3C//DTD SVG 1.1//EN" "http://www.w3.org/Graphics/SVG/1.1/DTD/svg11.dtd">
<svg xmlns="http://www.w3.org/2000/svg" xmlns:xlink="http://www.w3.org/1999/xlink" version="1.1" width="1080" height="1080" viewBox="0 0 1080 1080" xml:space="preserve">
<desc>Created with Fabric.js 5.2.4</desc>
<defs>
</defs>
<rect x="0" y="0" width="100%" height="100%" fill="transparent"></rect>
<g transform="matrix(1 0 0 1 540 540)" id="7e338bf1-c6b6-4884-9701-fb6f7d6dccf1"  >
<rect style="stroke: none; stroke-width: 1; stroke-dasharray: none; stroke-linecap: butt; stroke-dashoffset: 0; stroke-linejoin: miter; stroke-miterlimit: 4; fill: rgb(255,255,255); fill-rule: nonzero; opacity: 1; visibility: hidden;" vector-effect="non-scaling-stroke"  x="-540" y="-540" rx="0" ry="0" width="1080" height="1080" />
</g>
<g transform="matrix(1 0 0 1 540 540)" id="91246ef7-d0c0-4ca1-88d7-86dbc8e9f50f"  >
</g>
<g transform="matrix(NaN NaN NaN NaN 0 0)"  >
<path style="stroke: none; stroke-width: 1; stroke-dasharray: none; stroke-linecap: butt; stroke-dashoffset: 0; stroke-linejoin: miter; stroke-miterlimit: 4; fill: rgb(255,255,255); fill-opacity: 0; fill-rule: nonzero; opacity: 1;"  transform=" translate(-14, -14)" d="M 18.15 7.02 C 16.86792926413812 6.35357920720155 15.444924699068723 6.003828687594131 14 6 C 10.55 6 7.92 8 6.2 9.92 C 5.158917456694092 11.081451049015199 4.2716303074457596 12.372050538830948 3.559999999999998 13.759999999999998 L 3.56 13.78 L 3.5500000000000003 13.78 L 4 14 L 3.55 13.79 L 3.4499999999999997 14 L 3.55 14.21 L 4 14 L 3.55 14.21 L 3.5599999999999996 14.24 C 3.6100583684495273 14.348272965949668 3.6634166483099837 14.45498952567058 3.7200000000000015 14.560000000000002 C 3.8299999999999996 14.76 4 15.07 4.22 15.43 C 4.90472110323624 16.553797171719346 5.709436771287258 17.59992754018566 6.620000000000005 18.55 L 7.329999999999999 17.84 C 6.2338623100758035 16.693980258865842 5.301678191023692 15.40171057758061 4.559999999999996 14 C 4.717387583812404 13.687828699934947 4.89095688403333 13.38408242454833 5.080000000000001 13.090000000000002 C 5.49 12.4 6.12 11.49 6.93 10.59 C 8.58 8.75 10.95 7 14 7 C 15.176156600044125 7.003611551132665 16.337049006403852 7.266519537278839 17.399999999999995 7.769999999999998 L 18.15 7.02 z M 15.04 10.14 C 13.659267176828244 9.769499591766337 12.185766680511822 10.16403787501631 11.174902277764065 11.174902277764065 C 10.164037875016309 12.185766680511822 9.769499591766337 13.659267176828244 10.139999999999999 15.04 L 10.999999999999998 14.170000000000002 L 10.999999999999998 14 C 10.998672684091105 13.17400097783497 11.337971116145816 12.383999862116703 11.937906400581774 11.81623776328141 C 12.537841685017732 11.24847566444612 13.345327227298055 10.953192261866247 14.169999999999998 11 L 15.039999999999997 10.14 z M 17 13.84 L 17.86 12.959999999999999 C 18.230500408233663 14.340732823171756 17.835962124983688 15.814233319488178 16.82509772223593 16.825097722235935 C 15.814233319488174 17.83596212498369 14.340732823171754 18.230500408233663 12.959999999999997 17.86 L 13.829999999999998 17 C 14.685085988232109 17.049998117376397 15.52076577761374 16.732105415380182 16.12643559649696 16.12643559649696 C 16.732105415380182 15.520765777613741 17.049998117376397 14.68508598823211 17 13.83 z M 10.6 20.240000000000002 C 11.663739913047209 20.740030382130378 12.824596770704304 20.99951603266549 14 21 C 17.05 21 19.42 19.24 21.07 17.42 C 21.99564381039453 16.38023107735222 22.791479238159965 15.231810333488172 23.44 13.999999999999998 C 23.283598166261203 13.687300043995288 23.109999031121287 13.38350155750043 22.92 13.089999999999996 C 22.27749225514361 12.03530109060134 21.5231321599674 11.052956611105209 20.669999999999995 10.159999999999991 L 21.37 9.46 C 22.593725910114227 10.736862143007542 23.624585546955508 12.18545575033353 24.43 13.759999999999998 L 24.45 13.780000000000001 L 24 14 L 24.45 14.21 L 24.439999999999998 14.24 C 24.38938998318 14.34800673462167 24.336039377605335 14.454707945770998 24.279999999999998 14.56 C 24.169999999999998 14.76 23.999999999999996 15.07 23.779999999999998 15.43 C 23.339999999999996 16.15 22.679999999999996 17.12 21.81 18.08 C 20.08 20.01 17.45 22 14 22 C 12.45 22 11.06 21.6 9.85 20.98 L 10.6 20.23 z M 24 14 L 24.45 13.79 L 24.55 14 L 24.45 14.21 L 24 14 z M 22.2 6.5 L 6.5 22.2 L 5.8 21.5 L 21.5 5.8 L 22.2 6.5 z" stroke-linecap="round" />
</g>
<g transform="matrix(NaN NaN NaN NaN 0 0)"  >
<path style="stroke: none; stroke-width: 1; stroke-dasharray: none; stroke-linecap: butt; stroke-dashoffset: 0; stroke-linejoin: miter; stroke-miterlimit: 4; fill: rgb(255,0,0); fill-rule: nonzero; opacity: 1;"  transform=" translate(-14, -14)" d="M 18.15 7.02 C 16.86792926413812 6.35357920720155 15.444924699068723 6.003828687594131 14 6 C 10.55 6 7.92 8 6.2 9.92 C 5.158917456694092 11.081451049015199 4.2716303074457596 12.372050538830948 3.559999999999998 13.759999999999998 L 3.56 13.78 L 3.5500000000000003 13.78 L 4 14 L 3.55 13.79 L 3.4499999999999997 14 L 3.55 14.21 L 4 14 L 3.55 14.21 L 3.5599999999999996 14.24 C 3.6100583684495273 14.348272965949668 3.6634166483099837 14.45498952567058 3.7200000000000015 14.560000000000002 C 3.8299999999999996 14.76 4 15.07 4.22 15.43 C 4.90472110323624 16.553797171719346 5.709436771287258 17.59992754018566 6.620000000000005 18.55 L 7.329999999999999 17.84 C 6.2338623100758035 16.693980258865842 5.301678191023692 15.40171057758061 4.559999999999996 14 C 4.717387583812404 13.687828699934947 4.89095688403333 13.38408242454833 5.080000000000001 13.090000000000002 C 5.49 12.4 6.12 11.49 6.93 10.59 C 8.58 8.75 10.95 7 14 7 C 15.176156600044125 7.003611551132665 16.337049006403852 7.266519537278839 17.399999999999995 7.769999999999998 L 18.15 7.02 z M 15.04 10.14 C 13.659267176828244 9.769499591766337 12.185766680511822 10.16403787501631 11.174902277764065 11.174902277764065 C 10.164037875016309 12.185766680511822 9.769499591766337 13.659267176828244 10.139999999999999 15.04 L 10.999999999999998 14.170000000000002 L 10.999999999999998 14 C 10.998672684091105 13.17400097783497 11.337971116145816 12.383999862116703 11.937906400581774 11.81623776328141 C 12.537841685017732 11.24847566444612 13.345327227298055 10.953192261866247 14.169999999999998 11 L 15.039999999999997 10.14 z M 17 13.84 L 17.86 12.959999999999999 C 18.230500408233663 14.340732823171756 17.835962124983688 15.814233319488178 16.82509772223593 16.825097722235935 C 15.814233319488174 17.83596212498369 14.340732823171754 18.230500408233663 12.959999999999997 17.86 L 13.829999999999998 17 C 14.685085988232109 17.049998117376397 15.52076577761374 16.732105415380182 16.12643559649696 16.12643559649696 C 16.732105415380182 15.520765777613741 17.049998117376397 14.68508598823211 17 13.83 z M 10.6 20.240000000000002 C 11.663739913047209 20.740030382130378 12.824596770704304 20.99951603266549 14 21 C 17.05 21 19.42 19.24 21.07 17.42 C 21.99564381039453 16.38023107735222 22.791479238159965 15.231810333488172 23.44 13.999999999999998 C 23.283598166261203 13.687300043995288 23.109999031121287 13.38350155750043 22.92 13.089999999999996 C 22.27749225514361 12.03530109060134 21.5231321599674 11.052956611105209 20.669999999999995 10.159999999999991 L 21.37 9.46 C 22.593725910114227 10.736862143007542 23.624585546955508 12.18545575033353 24.43 13.759999999999998 L 24.45 13.780000000000001 L 24 14 L 24.45 14.21 L 24.439999999999998 14.24 C 24.38938998318 14.34800673462167 24.336039377605335 14.454707945770998 24.279999999999998 14.56 C 24.169999999999998 14.76 23.999999999999996 15.07 23.779999999999998 15.43 C 23.339999999999996 16.15 22.679999999999996 17.12 21.81 18.08 C 20.08 20.01 17.45 22 14 22 C 12.45 22 11.06 21.6 9.85 20.98 L 10.6 20.23 z M 24 14 L 24.45 13.79 L 24.55 14 L 24.45 14.21 L 24 14 z M 22.2 6.5 L 6.5 22.2 L 5.8 21.5 L 21.5 5.8 L 22.2 6.5 z" stroke-linecap="round" />
</g>
<g transform="matrix(NaN NaN NaN NaN 0 0)"  >
<path style="stroke: none; stroke-width: 1; stroke-dasharray: none; stroke-linecap: butt; stroke-dashoffset: 0; stroke-linejoin: miter; stroke-miterlimit: 4; fill: rgb(255,0,0); fill-rule: nonzero; opacity: 1;"  transform=" translate(-14, -14)" d="M 18.15 7.02 C 16.86792926413812 6.35357920720155 15.444924699068723 6.003828687594131 14 6 C 10.55 6 7.92 8 6.2 9.92 C 5.158917456694092 11.081451049015199 4.2716303074457596 12.372050538830948 3.559999999999998 13.759999999999998 L 3.56 13.78 L 3.5500000000000003 13.78 L 4 14 L 3.55 13.79 L 3.4499999999999997 14 L 3.55 14.21 L 4 14 L 3.55 14.21 L 3.5599999999999996 14.24 C 3.6100583684495273 14.348272965949668 3.6634166483099837 14.45498952567058 3.7200000000000015 14.560000000000002 C 3.8299999999999996 14.76 4 15.07 4.22 15.43 C 4.90472110323624 16.553797171719346 5.709436771287258 17.59992754018566 6.620000000000005 18.55 L 7.329999999999999 17.84 C 6.2338623100758035 16.693980258865842 5.301678191023692 15.40171057758061 4.559999999999996 14 C 4.717387583812404 13.687828699934947 4.89095688403333 13.38408242454833 5.080000000000001 13.090000000000002 C 5.49 12.4 6.12 11.49 6.93 10.59 C 8.58 8.75 10.95 7 14 7 C 15.176156600044125 7.003611551132665 16.337049006403852 7.266519537278839 17.399999999999995 7.769999999999998 L 18.15 7.02 z M 15.04 10.14 C 13.659267176828244 9.769499591766337 12.185766680511822 10.16403787501631 11.174902277764065 11.174902277764065 C 10.164037875016309 12.185766680511822 9.769499591766337 13.659267176828244 10.139999999999999 15.04 L 10.999999999999998 14.170000000000002 L 10.999999999999998 14 C 10.998672684091105 13.17400097783497 11.337971116145816 12.383999862116703 11.937906400581774 11.81623776328141 C 12.537841685017732 11.24847566444612 13.345327227298055 10.953192261866247 14.169999999999998 11 L 15.039999999999997 10.14 z M 17 13.84 L 17.86 12.959999999999999 C 18.230500408233663 14.340732823171756 17.835962124983688 15.814233319488178 16.82509772223593 16.825097722235935 C 15.814233319488174 17.83596212498369 14.340732823171754 18.230500408233663 12.959999999999997 17.86 L 13.829999999999998 17 C 14.685085988232109 17.049998117376397 15.52076577761374 16.732105415380182 16.12643559649696 16.12643559649696 C 16.732105415380182 15.520765777613741 17.049998117376397 14.68508598823211 17 13.83 z M 10.6 20.240000000000002 C 11.663739913047209 20.740030382130378 12.824596770704304 20.99951603266549 14 21 C 17.05 21 19.42 19.24 21.07 17.42 C 21.99564381039453 16.38023107735222 22.791479238159965 15.231810333488172 23.44 13.999999999999998 C 23.283598166261203 13.687300043995288 23.109999031121287 13.38350155750043 22.92 13.089999999999996 C 22.27749225514361 12.03530109060134 21.5231321599674 11.052956611105209 20.669999999999995 10.159999999999991 L 21.37 9.46 C 22.593725910114227 10.736862143007542 23.624585546955508 12.18545575033353 24.43 13.759999999999998 L 24.45 13.780000000000001 L 24 14 L 24.45 14.21 L 24.439999999999998 14.24 C 24.38938998318 14.34800673462167 24.336039377605335 14.454707945770998 24.279999999999998 14.56 C 24.169999999999998 14.76 23.999999999999996 15.07 23.779999999999998 15.43 C 23.339999999999996 16.15 22.679999999999996 17.12 21.81 18.08 C 20.08 20.01 17.45 22 14 22 C 12.45 22 11.06 21.6 9.85 20.98 L 10.6 20.23 z M 24 14 L 24.45 13.79 L 24.55 14 L 24.45 14.21 L 24 14 z M 22.2 6.5 L 6.5 22.2 L 5.8 21.5 L 21.5 5.8 L 22.2 6.5 z" stroke-linecap="round" />
</g>
<g transform="matrix(NaN NaN NaN NaN 0 0)"  >
<path style="stroke: none; stroke-width: 1; stroke-dasharray: none; stroke-linecap: butt; stroke-dashoffset: 0; stroke-linejoin: miter; stroke-miterlimit: 4; fill: rgb(255,0,0); fill-rule: nonzero; opacity: 1;"  transform=" translate(-14, -14)" d="M 18.15 7.02 C 16.86792926413812 6.35357920720155 15.444924699068723 6.003828687594131 14 6 C 10.55 6 7.92 8 6.2 9.92 C 5.158917456694092 11.081451049015199 4.2716303074457596 12.372050538830948 3.559999999999998 13.759999999999998 L 3.56 13.78 L 3.5500000000000003 13.78 L 4 14 L 3.55 13.79 L 3.4499999999999997 14 L 3.55 14.21 L 4 14 L 3.55 14.21 L 3.5599999999999996 14.24 C 3.6100583684495273 14.348272965949668 3.6634166483099837 14.45498952567058 3.7200000000000015 14.560000000000002 C 3.8299999999999996 14.76 4 15.07 4.22 15.43 C 4.90472110323624 16.553797171719346 5.709436771287258 17.59992754018566 6.620000000000005 18.55 L 7.329999999999999 17.84 C 6.2338623100758035 16.693980258865842 5.301678191023692 15.40171057758061 4.559999999999996 14 C 4.717387583812404 13.687828699934947 4.89095688403333 13.38408242454833 5.080000000000001 13.090000000000002 C 5.49 12.4 6.12 11.49 6.93 10.59 C 8.58 8.75 10.95 7 14 7 C 15.176156600044125 7.003611551132665 16.337049006403852 7.266519537278839 17.399999999999995 7.769999999999998 L 18.15 7.02 z M 15.04 10.14 C 13.659267176828244 9.769499591766337 12.185766680511822 10.16403787501631 11.174902277764065 11.174902277764065 C 10.164037875016309 12.185766680511822 9.769499591766337 13.659267176828244 10.139999999999999 15.04 L 10.999999999999998 14.170000000000002 L 10.999999999999998 14 C 10.998672684091105 13.17400097783497 11.337971116145816 12.383999862116703 11.937906400581774 11.81623776328141 C 12.537841685017732 11.24847566444612 13.345327227298055 10.953192261866247 14.169999999999998 11 L 15.039999999999997 10.14 z M 17 13.84 L 17.86 12.959999999999999 C 18.230500408233663 14.340732823171756 17.835962124983688 15.814233319488178 16.82509772223593 16.825097722235935 C 15.814233319488174 17.83596212498369 14.340732823171754 18.230500408233663 12.959999999999997 17.86 L 13.829999999999998 17 C 14.685085988232109 17.049998117376397 15.52076577761374 16.732105415380182 16.12643559649696 16.12643559649696 C 16.732105415380182 15.520765777613741 17.049998117376397 14.68508598823211 17 13.83 z M 10.6 20.240000000000002 C 11.663739913047209 20.740030382130378 12.824596770704304 20.99951603266549 14 21 C 17.05 21 19.42 19.24 21.07 17.42 C 21.99564381039453 16.38023107735222 22.791479238159965 15.231810333488172 23.44 13.999999999999998 C 23.283598166261203 13.687300043995288 23.109999031121287 13.38350155750043 22.92 13.089999999999996 C 22.27749225514361 12.03530109060134 21.5231321599674 11.052956611105209 20.669999999999995 10.159999999999991 L 21.37 9.46 C 22.593725910114227 10.736862143007542 23.624585546955508 12.18545575033353 24.43 13.759999999999998 L 24.45 13.780000000000001 L 24 14 L 24.45 14.21 L 24.439999999999998 14.24 C 24.38938998318 14.34800673462167 24.336039377605335 14.454707945770998 24.279999999999998 14.56 C 24.169999999999998 14.76 23.999999999999996 15.07 23.779999999999998 15.43 C 23.339999999999996 16.15 22.679999999999996 17.12 21.81 18.08 C 20.08 20.01 17.45 22 14 22 C 12.45 22 11.06 21.6 9.85 20.98 L 10.6 20.23 z M 24 14 L 24.45 13.79 L 24.55 14 L 24.45 14.21 L 24 14 z M 22.2 6.5 L 6.5 22.2 L 5.8 21.5 L 21.5 5.8 L 22.2 6.5 z" stroke-linecap="round" />
</g>
<g transform="matrix(NaN NaN NaN NaN 0 0)"  >
<path style="stroke: none; stroke-width: 1; stroke-dasharray: none; stroke-linecap: butt; stroke-dashoffset: 0; stroke-linejoin: miter; stroke-miterlimit: 4; fill: rgb(255,0,0); fill-rule: nonzero; opacity: 1;"  transform=" translate(-14, -14)" d="M 18.15 7.02 C 16.86792926413812 6.35357920720155 15.444924699068723 6.003828687594131 14 6 C 10.55 6 7.92 8 6.2 9.92 C 5.158917456694092 11.081451049015199 4.2716303074457596 12.372050538830948 3.559999999999998 13.759999999999998 L 3.56 13.78 L 3.5500000000000003 13.78 L 4 14 L 3.55 13.79 L 3.4499999999999997 14 L 3.55 14.21 L 4 14 L 3.55 14.21 L 3.5599999999999996 14.24 C 3.6100583684495273 14.348272965949668 3.6634166483099837 14.45498952567058 3.7200000000000015 14.560000000000002 C 3.8299999999999996 14.76 4 15.07 4.22 15.43 C 4.90472110323624 16.553797171719346 5.709436771287258 17.59992754018566 6.620000000000005 18.55 L 7.329999999999999 17.84 C 6.2338623100758035 16.693980258865842 5.301678191023692 15.40171057758061 4.559999999999996 14 C 4.717387583812404 13.687828699934947 4.89095688403333 13.38408242454833 5.080000000000001 13.090000000000002 C 5.49 12.4 6.12 11.49 6.93 10.59 C 8.58 8.75 10.95 7 14 7 C 15.176156600044125 7.003611551132665 16.337049006403852 7.266519537278839 17.399999999999995 7.769999999999998 L 18.15 7.02 z M 15.04 10.14 C 13.659267176828244 9.769499591766337 12.185766680511822 10.16403787501631 11.174902277764065 11.174902277764065 C 10.164037875016309 12.185766680511822 9.769499591766337 13.659267176828244 10.139999999999999 15.04 L 10.999999999999998 14.170000000000002 L 10.999999999999998 14 C 10.998672684091105 13.17400097783497 11.337971116145816 12.383999862116703 11.937906400581774 11.81623776328141 C 12.537841685017732 11.24847566444612 13.345327227298055 10.953192261866247 14.169999999999998 11 L 15.039999999999997 10.14 z M 17 13.84 L 17.86 12.959999999999999 C 18.230500408233663 14.340732823171756 17.835962124983688 15.814233319488178 16.82509772223593 16.825097722235935 C 15.814233319488174 17.83596212498369 14.340732823171754 18.230500408233663 12.959999999999997 17.86 L 13.829999999999998 17 C 14.685085988232109 17.049998117376397 15.52076577761374 16.732105415380182 16.12643559649696 16.12643559649696 C 16.732105415380182 15.520765777613741 17.049998117376397 14.68508598823211 17 13.83 z M 10.6 20.240000000000002 C 11.663739913047209 20.740030382130378 12.824596770704304 20.99951603266549 14 21 C 17.05 21 19.42 19.24 21.07 17.42 C 21.99564381039453 16.38023107735222 22.791479238159965 15.231810333488172 23.44 13.999999999999998 C 23.283598166261203 13.687300043995288 23.109999031121287 13.38350155750043 22.92 13.089999999999996 C 22.27749225514361 12.03530109060134 21.5231321599674 11.052956611105209 20.669999999999995 10.159999999999991 L 21.37 9.46 C 22.593725910114227 10.736862143007542 23.624585546955508 12.18545575033353 24.43 13.759999999999998 L 24.45 13.780000000000001 L 24 14 L 24.45 14.21 L 24.439999999999998 14.24 C 24.38938998318 14.34800673462167 24.336039377605335 14.454707945770998 24.279999999999998 14.56 C 24.169999999999998 14.76 23.999999999999996 15.07 23.779999999999998 15.43 C 23.339999999999996 16.15 22.679999999999996 17.12 21.81 18.08 C 20.08 20.01 17.45 22 14 22 C 12.45 22 11.06 21.6 9.85 20.98 L 10.6 20.23 z M 24 14 L 24.45 13.79 L 24.55 14 L 24.45 14.21 L 24 14 z M 22.2 6.5 L 6.5 22.2 L 5.8 21.5 L 21.5 5.8 L 22.2 6.5 z" stroke-linecap="round" />
</g>
<g transform="matrix(NaN NaN NaN NaN 0 0)"  >
<path style="stroke: none; stroke-width: 1; stroke-dasharray: none; stroke-linecap: butt; stroke-dashoffset: 0; stroke-linejoin: miter; stroke-miterlimit: 4; fill: rgb(255,0,0); fill-rule: nonzero; opacity: 1;"  transform=" translate(-14, -14)" d="M 18.15 7.02 C 16.86792926413812 6.35357920720155 15.444924699068723 6.003828687594131 14 6 C 10.55 6 7.92 8 6.2 9.92 C 5.158917456694092 11.081451049015199 4.2716303074457596 12.372050538830948 3.559999999999998 13.759999999999998 L 3.56 13.78 L 3.5500000000000003 13.78 L 4 14 L 3.55 13.79 L 3.4499999999999997 14 L 3.55 14.21 L 4 14 L 3.55 14.21 L 3.5599999999999996 14.24 C 3.6100583684495273 14.348272965949668 3.6634166483099837 14.45498952567058 3.7200000000000015 14.560000000000002 C 3.8299999999999996 14.76 4 15.07 4.22 15.43 C 4.90472110323624 16.553797171719346 5.709436771287258 17.59992754018566 6.620000000000005 18.55 L 7.329999999999999 17.84 C 6.2338623100758035 16.693980258865842 5.301678191023692 15.40171057758061 4.559999999999996 14 C 4.717387583812404 13.687828699934947 4.89095688403333 13.38408242454833 5.080000000000001 13.090000000000002 C 5.49 12.4 6.12 11.49 6.93 10.59 C 8.58 8.75 10.95 7 14 7 C 15.176156600044125 7.003611551132665 16.337049006403852 7.266519537278839 17.399999999999995 7.769999999999998 L 18.15 7.02 z M 15.04 10.14 C 13.659267176828244 9.769499591766337 12.185766680511822 10.16403787501631 11.174902277764065 11.174902277764065 C 10.164037875016309 12.185766680511822 9.769499591766337 13.659267176828244 10.139999999999999 15.04 L 10.999999999999998 14.170000000000002 L 10.999999999999998 14 C 10.998672684091105 13.17400097783497 11.337971116145816 12.383999862116703 11.937906400581774 11.81623776328141 C 12.537841685017732 11.24847566444612 13.345327227298055 10.953192261866247 14.169999999999998 11 L 15.039999999999997 10.14 z M 17 13.84 L 17.86 12.959999999999999 C 18.230500408233663 14.340732823171756 17.835962124983688 15.814233319488178 16.82509772223593 16.825097722235935 C 15.814233319488174 17.83596212498369 14.340732823171754 18.230500408233663 12.959999999999997 17.86 L 13.829999999999998 17 C 14.685085988232109 17.049998117376397 15.52076577761374 16.732105415380182 16.12643559649696 16.12643559649696 C 16.732105415380182 15.520765777613741 17.049998117376397 14.68508598823211 17 13.83 z M 10.6 20.240000000000002 C 11.663739913047209 20.740030382130378 12.824596770704304 20.99951603266549 14 21 C 17.05 21 19.42 19.24 21.07 17.42 C 21.99564381039453 16.38023107735222 22.791479238159965 15.231810333488172 23.44 13.999999999999998 C 23.283598166261203 13.687300043995288 23.109999031121287 13.38350155750043 22.92 13.089999999999996 C 22.27749225514361 12.03530109060134 21.5231321599674 11.052956611105209 20.669999999999995 10.159999999999991 L 21.37 9.46 C 22.593725910114227 10.736862143007542 23.624585546955508 12.18545575033353 24.43 13.759999999999998 L 24.45 13.780000000000001 L 24 14 L 24.45 14.21 L 24.439999999999998 14.24 C 24.38938998318 14.34800673462167 24.336039377605335 14.454707945770998 24.279999999999998 14.56 C 24.169999999999998 14.76 23.999999999999996 15.07 23.779999999999998 15.43 C 23.339999999999996 16.15 22.679999999999996 17.12 21.81 18.08 C 20.08 20.01 17.45 22 14 22 C 12.45 22 11.06 21.6 9.85 20.98 L 10.6 20.23 z M 24 14 L 24.45 13.79 L 24.55 14 L 24.45 14.21 L 24 14 z M 22.2 6.5 L 6.5 22.2 L 5.8 21.5 L 21.5 5.8 L 22.2 6.5 z" stroke-linecap="round" />
</g>
<g transform="matrix(NaN NaN NaN NaN 0 0)"  >
<path style="stroke: rgb(0,0,0); stroke-width: 1; stroke-dasharray: none; stroke-linecap: butt; stroke-dashoffset: 0; stroke-linejoin: miter; stroke-miterlimit: 4; fill: none; fill-rule: nonzero; opacity: 1;"  transform=" translate(-14, -14)" d="M 8 9.5 L 6.5 9.5 C 5.947715250169207 9.5 5.5 9.947715250169207 5.5 10.5 L 5.5 21.5 C 5.5 22.052284749830793 5.947715250169207 22.5 6.5 22.5 L 17.5 22.5 C 18.052284749830793 22.5 18.5 22.052284749830793 18.5 21.5 L 18.5 20 M 10.5 18.5 L 21.5 18.5 C 22.052284749830793 18.5 22.5 18.052284749830793 22.5 17.5 L 22.5 6.5 C 22.5 5.947715250169207 22.052284749830793 5.5 21.5 5.5 L 10.5 5.5 C 9.947715250169207 5.5 9.5 5.947715250169207 9.5 6.5 L 9.5 17.5 C 9.5 18.052284749830793 9.947715250169207 18.5 10.5 18.5 z" stroke-linecap="round" />
</g>
<g transform="matrix(NaN NaN NaN NaN 0 0)"  >
<path style="stroke: none; stroke-width: 1; stroke-dasharray: none; stroke-linecap: butt; stroke-dashoffset: 0; stroke-linejoin: miter; stroke-miterlimit: 4; fill: rgb(0,0,0); fill-rule: evenodd; opacity: 1;"  transform=" translate(-10, -9.15)" d="M 9.103 0.687 C 9.271350605464942 0.34537090703666035 9.619142594243769 0.12903054193121033 10 0.12903054193121033 C 10.380857405756231 0.12903054193121033 10.728649394535058 0.34537090703666007 10.897 0.6869999999999996 L 13.271 5.497 L 18.580000000000002 6.269 C 18.956782145130553 6.323715370902575 19.269804392609654 6.5876413761285155 19.387397645404416 6.949760670835846 C 19.504990898199175 7.311879965543177 19.40675045754162 7.709357863634128 19.134 7.974999999999999 L 15.293 11.719999999999999 L 16.198999999999998 17.006999999999998 C 16.26300374914376 17.381862867983845 16.108844775294706 17.760585637703045 15.801237447156813 17.984184343811556 C 15.49363011901892 18.207783049920064 15.085819368761609 18.237554134827146 14.748999999999999 18.060999999999996 L 10 15.565 L 5.252 18.06 C 4.915211228471538 18.237513968149656 4.506842571388248 18.20839525817233 4.198648401341296 17.984890808406877 C 3.8904542312943438 17.76138635864142 3.735904209714234 17.382272721075662 3.8 17.007 L 4.707 11.720000000000002 L 0.866 7.975 C 0.5932495424583797 7.7093578636341284 0.4950091018008241 7.311879965543177 0.6126023545955847 6.949760670835847 C 0.7301956073903453 6.587641376128515 1.043217854869447 6.323715370902574 1.4200000000000004 6.269 L 6.7299999999999995 5.498 L 9.102 0.688 z M 10 1.13 L 7.393 6.412 L 1.564 7.259 L 5.782 11.370000000000001 L 4.786 17.176000000000002 L 10 14.436 L 15.214 17.176000000000002 L 14.218 11.371000000000002 L 18.436 7.259000000000002 L 12.606 6.412000000000003 L 10 1.13 z" stroke-linecap="round" />
</g>
<g transform="matrix(38.57 0 0 38.57 540 540)"  >
<path style="stroke: none; stroke-width: 1; stroke-dasharray: none; stroke-linecap: butt; stroke-dashoffset: 0; stroke-linejoin: miter; stroke-miterlimit: 4; fill: rgb(0,0,0); fill-rule: nonzero; opacity: 1;"  transform=" translate(-14, -14)" d="M 14 4 C 8.477152501692068 4 4 8.477152501692068 4 14 C 4 19.522847498307932 8.477152501692068 24 14 24 C 19.522847498307932 24 24 19.522847498307932 24 14 C 24 8.477152501692068 19.522847498307932 4 14 4 Z M 3 14 C 3 7.924867751861274 7.924867751861274 3 14 3 C 20.075132248138726 3 25 7.924867751861271 25 13.999999999999996 C 25 20.075132248138726 20.075132248138726 25 14 25 C 7.9248677518612745 25 3 20.075132248138726 3 14 Z M 14 21 C 14.57 21 15 20.56 15 20 C 15 19.43 14.57 19 14 19 C 13.44 19 13 19.43 13 20 C 13 20.56 13.44 21 14 21 Z M 14 7 C 12.6 7 11.58 7.57 10.93 8.370000000000001 C 10.331531339862268 9.116286833943514 10.003694980998139 10.043393956322715 10 11 L 11 11 C 11 10.35 11.22 9.6 11.7 9 C 12.17 8.43 12.899999999999999 8 14 8 C 15.09 8 15.870000000000001 8.36 16.4 8.88 C 16.919999999999998 9.4 17.209999999999997 10.110000000000001 17.25 10.84 C 17.304681031697328 11.630006589291234 17.038355092336996 12.408666893934976 16.511313543802242 12.999706344791807 C 15.98427199526749 13.590745795648637 15.241086221028329 13.944180769827186 14.450000000000003 13.98 C 13.95 14.030000000000001 13.5 14.43 13.5 15 L 13.5 17 L 14.5 17 L 14.5 15 C 14.51 14.98 14.53 14.97 14.55 14.97 C 15.596642817782937 14.910879357513057 16.576286787627076 14.436047746241638 17.271113512165574 13.651081338519766 C 17.96594023670407 12.866114930797897 18.31835487897518 11.836080326220204 18.25 10.790000000000003 C 18.20660238738212 9.803861883618346 17.796474008470707 8.869482446446254 17.1 8.17 C 16.26566314624238 7.379607736059644 15.148508405042877 6.957971914381121 13.999999999999996 7 Z" stroke-linecap="round" />
</g>
</svg>