<?xml version="1.0" encoding="UTF-8" standalone="no" ?>
<!DOCTYPE svg PUBLIC "-//W3C//DTD SVG 1.1//EN" "http://www.w3.org/Graphics/SVG/1.1/DTD/svg11.dtd">
<svg xmlns="http://www.w3.org/2000/svg" xmlns:xlink="http://www.w3.org/1999/xlink" version="1.1" width="1080" height="1080" viewBox="0 0 1080 1080" xml:space="preserve">
<desc>Created with Fabric.js 5.2.4</desc>
<defs>
</defs>
<rect x="0" y="0" width="100%" height="100%" fill="transparent"></rect>
<g transform="matrix(1 0 0 1 540 540)" id="9412f0e9-6590-45c7-92b6-3c568b86ec3e"  >
<rect style="stroke: none; stroke-width: 1; stroke-dasharray: none; stroke-linecap: butt; stroke-dashoffset: 0; stroke-linejoin: miter; stroke-miterlimit: 4; fill: #0055ff; fill-rule: nonzero; opacity: 1; visibility: hidden;" vector-effect="non-scaling-stroke"  x="-540" y="-540" rx="0" ry="0" width="1080" height="1080" />
</g>
<g transform="matrix(1 0 0 1 540 540)" id="77a50504-0f50-43c8-84a0-dfc11a3296c3"  >
</g>
<g transform="matrix(NaN NaN NaN NaN 0 0)"  >
<g style=""   >
</g>
</g>
<g transform="matrix(38.57 0 0 38.57 540 540)"  >
<g style=""   >
		<g transform="matrix(1 0 0 1 -3.5 -3.5)"  >
<path style="stroke: none; stroke-width: 1; stroke-dasharray: none; stroke-linecap: butt; stroke-dashoffset: 0; stroke-linejoin: miter; stroke-miterlimit: 4; fill: #0055ff; fill-rule: evenodd; opacity: 1;" vector-effect="non-scaling-stroke"  transform=" translate(-10.5, -10.5)" d="M 10.5 13 C 11.880711874576983 13 13 11.880711874576983 13 10.5 C 13 9.119288125423017 11.880711874576983 8 10.5 8 C 9.119288125423017 8 8 9.119288125423017 8 10.5 C 8 11.880711874576983 9.119288125423017 13 10.5 13 z M 10.5 12 C 11.32842712474619 12 12 11.32842712474619 12 10.5 C 12 9.67157287525381 11.32842712474619 9 10.5 9 C 9.67157287525381 9 9 9.67157287525381 9 10.5 C 9 11.32842712474619 9.67157287525381 12 10.5 12 z" stroke-linecap="round" />
</g>
		<g transform="matrix(1 0 0 1 0 0)"  >
<path style="stroke: none; stroke-width: 1; stroke-dasharray: none; stroke-linecap: butt; stroke-dashoffset: 0; stroke-linejoin: miter; stroke-miterlimit: 4; fill: #0055ff; fill-rule: evenodd; opacity: 1;" vector-effect="non-scaling-stroke"  transform=" translate(-14, -14)" d="M 6 5 C 4.8954305003384135 5 4 5.8954305003384135 4 7 L 4 21 C 4 22.1 4.9 23 6 23 L 22 23 C 23.104569499661586 23 24 22.104569499661586 24 21 L 24 7 C 24 5.8954305003384135 23.104569499661586 5 22 5 L 6 5 z M 22 6 L 6 6 C 5.447715250169207 6 5 6.447715250169207 5 7 L 5 19.060000000000002 L 7.79 16.270000000000003 C 8.252324562636721 15.808570642469357 8.960100703155831 15.69937089507498 9.54 16 L 12.02 17.29 C 12.2 17.39 12.43 17.349999999999998 12.59 17.21 L 16.82 13.290000000000001 C 17.411444694770566 12.742257894114339 18.33005181850176 12.759923415724554 18.9 13.33 L 23 17.43 L 23 7 C 23 6.447715250169207 22.552284749830793 6 22 6 z M 23 18.84 L 18.2 14.04 C 18.011070750622373 13.843765998117311 17.699825270285483 13.834873270107686 17.5 14.02 L 13.27 17.939999999999998 C 12.807816040540077 18.372959044506576 12.12351178975848 18.469001746370658 11.559999999999999 18.179999999999996 L 9.079999999999998 16.889999999999997 C 8.88289232402833 16.7889755114883 8.642809873224351 16.829667452302534 8.489999999999998 16.99 L 5 20.46 L 5 21 C 5 21.552284749830793 5.447715250169207 22 6 22 L 22 22 C 22.552284749830793 22 23 21.552284749830793 23 21 L 23 18.84 z" stroke-linecap="round" />
</g>
</g>
</g>
</svg>