<?xml version="1.0" standalone="no"?>
<!DOCTYPE svg PUBLIC "-//W3C//DTD SVG 20010904//EN"
 "http://www.w3.org/TR/2001/REC-SVG-20010904/DTD/svg10.dtd">
<svg xmlns="http://www.w3.org/2000/svg" width="44" height="44" fill="none"><path fill="#fd6a25" fill-rule="evenodd" clip-rule="evenodd" d="M22.308 8.606a.5.5 0 0 0-.616 0l-11.5 9a.5.5 0 0 0 0 .788l11.5 9a.5.5 0 0 0 .616 0l11.5-9a.5.5 0 0 0 0-.788l-11.5-9zM22 26.366L11.311 18 22 9.635 32.689 18 22 26.365zm0 4l-11.192-8.76-.616.788 11.5 9a.5.5 0 0 0 .616 0l11.5-9-.616-.788L22 30.366zm0 4l-11.192-8.76-.616.788 11.5 9a.5.5 0 0 0 .616 0l11.5-9-.616-.788L22 34.366z"></path></svg>
