<?xml version="1.0" encoding="UTF-8" standalone="no" ?>
<!DOCTYPE svg PUBLIC "-//W3C//DTD SVG 1.1//EN" "http://www.w3.org/Graphics/SVG/1.1/DTD/svg11.dtd">
<svg xmlns="http://www.w3.org/2000/svg" xmlns:xlink="http://www.w3.org/1999/xlink" version="1.1" width="1080" height="1080" viewBox="0 0 1080 1080" xml:space="preserve">
<desc>Created with Fabric.js 5.2.4</desc>
<defs>
</defs>
<rect x="0" y="0" width="100%" height="100%" fill="transparent"></rect>
<g transform="matrix(1 0 0 1 540 540)" id="9412f0e9-6590-45c7-92b6-3c568b86ec3e"  >
<rect style="stroke: none; stroke-width: 1; stroke-dasharray: none; stroke-linecap: butt; stroke-dashoffset: 0; stroke-linejoin: miter; stroke-miterlimit: 4; fill: rgb(255,255,255); fill-rule: nonzero; opacity: 1; visibility: hidden;" vector-effect="non-scaling-stroke"  x="-540" y="-540" rx="0" ry="0" width="1080" height="1080" />
</g>
<g transform="matrix(1 0 0 1 540 540)" id="77a50504-0f50-43c8-84a0-dfc11a3296c3"  >
</g>
<g transform="matrix(NaN NaN NaN NaN 0 0)"  >
<g style=""   >
</g>
</g>
<g transform="matrix(NaN NaN NaN NaN 0 0)"  >
<path style="stroke: none; stroke-width: 1; stroke-dasharray: none; stroke-linecap: butt; stroke-dashoffset: 0; stroke-linejoin: miter; stroke-miterlimit: 4; fill: rgb(0,0,0); fill-rule: nonzero; opacity: 1;"  transform=" translate(-14, -14)" d="M 2 9.75 C 1.17157287525381 9.75 0.5 10.42157287525381 0.5 11.25 L 0.5 16.75 C 0.5 17.57842712474619 1.17157287525381 18.25 2 18.25 L 26 18.25 C 26.82842712474619 18.25 27.5 17.57842712474619 27.5 16.75 L 27.5 11.25 C 27.5 10.42157287525381 26.82842712474619 9.75 26 9.75 z M 2 10.75 L 5 10.75 L 5 13.25 L 6 13.25 L 6 10.75 L 9.25 10.75 L 9.25 14.65 L 10.25 14.65 L 10.25 10.75 L 13.5 10.75 L 13.5 13.25 L 14.5 13.25 L 14.5 10.75 L 17.75 10.75 L 17.75 14.65 L 18.75 14.65 L 18.75 10.75 L 22 10.75 L 22 13.25 L 23 13.25 L 23 10.75 L 26 10.75 C 26.2761423749154 10.75 26.5 10.973857625084603 26.5 11.25 L 26.5 16.75 C 26.5 17.0261423749154 26.2761423749154 17.25 26 17.25 L 2 17.25 C 1.7238576250846034 17.25 1.5 17.0261423749154 1.5 16.75 L 1.5 11.25 C 1.5 10.973857625084603 1.7238576250846034 10.75 2 10.75 z" stroke-linecap="round" />
</g>
<g transform="matrix(NaN NaN NaN NaN 0 0)"  >
<path style="stroke: none; stroke-width: 1; stroke-dasharray: none; stroke-linecap: butt; stroke-dashoffset: 0; stroke-linejoin: miter; stroke-miterlimit: 4; fill: rgb(0,0,0); fill-rule: nonzero; opacity: 1;"  transform=" translate(-14, -14)" d="M 2 9.75 C 1.17157287525381 9.75 0.5 10.42157287525381 0.5 11.25 L 0.5 16.75 C 0.5 17.57842712474619 1.17157287525381 18.25 2 18.25 L 26 18.25 C 26.82842712474619 18.25 27.5 17.57842712474619 27.5 16.75 L 27.5 11.25 C 27.5 10.42157287525381 26.82842712474619 9.75 26 9.75 z M 2 10.75 L 5 10.75 L 5 13.25 L 6 13.25 L 6 10.75 L 9.25 10.75 L 9.25 14.65 L 10.25 14.65 L 10.25 10.75 L 13.5 10.75 L 13.5 13.25 L 14.5 13.25 L 14.5 10.75 L 17.75 10.75 L 17.75 14.65 L 18.75 14.65 L 18.75 10.75 L 22 10.75 L 22 13.25 L 23 13.25 L 23 10.75 L 26 10.75 C 26.2761423749154 10.75 26.5 10.973857625084603 26.5 11.25 L 26.5 16.75 C 26.5 17.0261423749154 26.2761423749154 17.25 26 17.25 L 2 17.25 C 1.7238576250846034 17.25 1.5 17.0261423749154 1.5 16.75 L 1.5 11.25 C 1.5 10.973857625084603 1.7238576250846034 10.75 2 10.75 z" stroke-linecap="round" />
</g>
<g transform="matrix(NaN NaN NaN NaN 0 0)"  >
<path style="stroke: none; stroke-width: 1; stroke-dasharray: none; stroke-linecap: butt; stroke-dashoffset: 0; stroke-linejoin: miter; stroke-miterlimit: 4; fill: rgb(0,0,0); fill-rule: nonzero; opacity: 1;"  transform=" translate(-14, -14)" d="M 2 9.75 C 1.17157287525381 9.75 0.5 10.42157287525381 0.5 11.25 L 0.5 16.75 C 0.5 17.57842712474619 1.17157287525381 18.25 2 18.25 L 26 18.25 C 26.82842712474619 18.25 27.5 17.57842712474619 27.5 16.75 L 27.5 11.25 C 27.5 10.42157287525381 26.82842712474619 9.75 26 9.75 z M 2 10.75 L 5 10.75 L 5 13.25 L 6 13.25 L 6 10.75 L 9.25 10.75 L 9.25 14.65 L 10.25 14.65 L 10.25 10.75 L 13.5 10.75 L 13.5 13.25 L 14.5 13.25 L 14.5 10.75 L 17.75 10.75 L 17.75 14.65 L 18.75 14.65 L 18.75 10.75 L 22 10.75 L 22 13.25 L 23 13.25 L 23 10.75 L 26 10.75 C 26.2761423749154 10.75 26.5 10.973857625084603 26.5 11.25 L 26.5 16.75 C 26.5 17.0261423749154 26.2761423749154 17.25 26 17.25 L 2 17.25 C 1.7238576250846034 17.25 1.5 17.0261423749154 1.5 16.75 L 1.5 11.25 C 1.5 10.973857625084603 1.7238576250846034 10.75 2 10.75 z" stroke-linecap="round" />
</g>
<g transform="matrix(NaN NaN NaN NaN 0 0)"  >
<path style="stroke: none; stroke-width: 1; stroke-dasharray: none; stroke-linecap: butt; stroke-dashoffset: 0; stroke-linejoin: miter; stroke-miterlimit: 4; fill: rgb(0,0,0); fill-rule: nonzero; opacity: 1;"  transform=" translate(-14, -14)" d="M 2 9.75 C 1.17157287525381 9.75 0.5 10.42157287525381 0.5 11.25 L 0.5 16.75 C 0.5 17.57842712474619 1.17157287525381 18.25 2 18.25 L 26 18.25 C 26.82842712474619 18.25 27.5 17.57842712474619 27.5 16.75 L 27.5 11.25 C 27.5 10.42157287525381 26.82842712474619 9.75 26 9.75 z M 2 10.75 L 5 10.75 L 5 13.25 L 6 13.25 L 6 10.75 L 9.25 10.75 L 9.25 14.65 L 10.25 14.65 L 10.25 10.75 L 13.5 10.75 L 13.5 13.25 L 14.5 13.25 L 14.5 10.75 L 17.75 10.75 L 17.75 14.65 L 18.75 14.65 L 18.75 10.75 L 22 10.75 L 22 13.25 L 23 13.25 L 23 10.75 L 26 10.75 C 26.2761423749154 10.75 26.5 10.973857625084603 26.5 11.25 L 26.5 16.75 C 26.5 17.0261423749154 26.2761423749154 17.25 26 17.25 L 2 17.25 C 1.7238576250846034 17.25 1.5 17.0261423749154 1.5 16.75 L 1.5 11.25 C 1.5 10.973857625084603 1.7238576250846034 10.75 2 10.75 z" stroke-linecap="round" />
</g>
<g transform="matrix(NaN NaN NaN NaN 0 0)"  >
<path style="stroke: none; stroke-width: 1; stroke-dasharray: none; stroke-linecap: butt; stroke-dashoffset: 0; stroke-linejoin: miter; stroke-miterlimit: 4; fill: rgb(0,0,0); fill-rule: nonzero; opacity: 1;"  transform=" translate(-14, -14)" d="M 2 9.75 C 1.17157287525381 9.75 0.5 10.42157287525381 0.5 11.25 L 0.5 16.75 C 0.5 17.57842712474619 1.17157287525381 18.25 2 18.25 L 26 18.25 C 26.82842712474619 18.25 27.5 17.57842712474619 27.5 16.75 L 27.5 11.25 C 27.5 10.42157287525381 26.82842712474619 9.75 26 9.75 z M 2 10.75 L 5 10.75 L 5 13.25 L 6 13.25 L 6 10.75 L 9.25 10.75 L 9.25 14.65 L 10.25 14.65 L 10.25 10.75 L 13.5 10.75 L 13.5 13.25 L 14.5 13.25 L 14.5 10.75 L 17.75 10.75 L 17.75 14.65 L 18.75 14.65 L 18.75 10.75 L 22 10.75 L 22 13.25 L 23 13.25 L 23 10.75 L 26 10.75 C 26.2761423749154 10.75 26.5 10.973857625084603 26.5 11.25 L 26.5 16.75 C 26.5 17.0261423749154 26.2761423749154 17.25 26 17.25 L 2 17.25 C 1.7238576250846034 17.25 1.5 17.0261423749154 1.5 16.75 L 1.5 11.25 C 1.5 10.973857625084603 1.7238576250846034 10.75 2 10.75 z" stroke-linecap="round" />
</g>
<g transform="matrix(NaN NaN NaN NaN 0 0)"  >
<path style="stroke: none; stroke-width: 1; stroke-dasharray: none; stroke-linecap: butt; stroke-dashoffset: 0; stroke-linejoin: miter; stroke-miterlimit: 4; fill: rgb(0,0,0); fill-rule: nonzero; opacity: 1;"  transform=" translate(-14, -14)" d="M 2 9.75 C 1.17157287525381 9.75 0.5 10.42157287525381 0.5 11.25 L 0.5 16.75 C 0.5 17.57842712474619 1.17157287525381 18.25 2 18.25 L 26 18.25 C 26.82842712474619 18.25 27.5 17.57842712474619 27.5 16.75 L 27.5 11.25 C 27.5 10.42157287525381 26.82842712474619 9.75 26 9.75 z M 2 10.75 L 5 10.75 L 5 13.25 L 6 13.25 L 6 10.75 L 9.25 10.75 L 9.25 14.65 L 10.25 14.65 L 10.25 10.75 L 13.5 10.75 L 13.5 13.25 L 14.5 13.25 L 14.5 10.75 L 17.75 10.75 L 17.75 14.65 L 18.75 14.65 L 18.75 10.75 L 22 10.75 L 22 13.25 L 23 13.25 L 23 10.75 L 26 10.75 C 26.2761423749154 10.75 26.5 10.973857625084603 26.5 11.25 L 26.5 16.75 C 26.5 17.0261423749154 26.2761423749154 17.25 26 17.25 L 2 17.25 C 1.7238576250846034 17.25 1.5 17.0261423749154 1.5 16.75 L 1.5 11.25 C 1.5 10.973857625084603 1.7238576250846034 10.75 2 10.75 z" stroke-linecap="round" />
</g>
<g transform="matrix(NaN NaN NaN NaN 0 0)"  >
<path style="stroke: none; stroke-width: 1; stroke-dasharray: none; stroke-linecap: butt; stroke-dashoffset: 0; stroke-linejoin: miter; stroke-miterlimit: 4; fill: rgb(0,0,0); fill-rule: nonzero; opacity: 1;"  transform=" translate(-14, -14)" d="M 2 9.75 C 1.17157287525381 9.75 0.5 10.42157287525381 0.5 11.25 L 0.5 16.75 C 0.5 17.57842712474619 1.17157287525381 18.25 2 18.25 L 26 18.25 C 26.82842712474619 18.25 27.5 17.57842712474619 27.5 16.75 L 27.5 11.25 C 27.5 10.42157287525381 26.82842712474619 9.75 26 9.75 z M 2 10.75 L 5 10.75 L 5 13.25 L 6 13.25 L 6 10.75 L 9.25 10.75 L 9.25 14.65 L 10.25 14.65 L 10.25 10.75 L 13.5 10.75 L 13.5 13.25 L 14.5 13.25 L 14.5 10.75 L 17.75 10.75 L 17.75 14.65 L 18.75 14.65 L 18.75 10.75 L 22 10.75 L 22 13.25 L 23 13.25 L 23 10.75 L 26 10.75 C 26.2761423749154 10.75 26.5 10.973857625084603 26.5 11.25 L 26.5 16.75 C 26.5 17.0261423749154 26.2761423749154 17.25 26 17.25 L 2 17.25 C 1.7238576250846034 17.25 1.5 17.0261423749154 1.5 16.75 L 1.5 11.25 C 1.5 10.973857625084603 1.7238576250846034 10.75 2 10.75 z" stroke-linecap="round" />
</g>
<g transform="matrix(38.57 0 0 38.57 540 540)"  >
<path style="stroke: none; stroke-width: 1; stroke-dasharray: none; stroke-linecap: butt; stroke-dashoffset: 0; stroke-linejoin: miter; stroke-miterlimit: 4; fill: rgb(0,0,0); fill-rule: evenodd; opacity: 1;"  transform=" translate(-14, -14.5)" d="M 14 6 C 12.34314575050762 6 11 7.34314575050762 11 9 L 11 12 L 17 12 L 17 9 C 17 7.34314575050762 15.65685424949238 6 14 6 z M 18 12 L 18 9 C 18 6.790861000676827 16.209138999323173 5 14 5 C 11.790861000676827 5 10 6.790861000676826 10 9 L 10 12 L 8.5 12 C 7.119288125423017 12 6 13.119288125423017 6 14.5 L 6 21.5 C 6 22.880711874576985 7.119288125423017 24 8.5 24 L 19.5 24 C 20.880711874576985 24 22 22.880711874576985 22 21.5 L 22 14.5 C 22 13.119288125423017 20.880711874576985 12 19.5 12 L 18 12 z M 13 17 C 13 16.447715250169207 13.447715250169207 16 14 16 C 14.552284749830793 16 15 16.447715250169207 15 17 L 15 19 C 15 19.552284749830793 14.552284749830793 20 14 20 C 13.447715250169207 20 13 19.552284749830793 13 19 L 13 17 z M 7 14.5 C 7 13.67 7.67 13 8.5 13 L 19.5 13 C 20.33 13 21 13.67 21 14.5 L 21 21.5 C 21 22.33 20.33 23 19.5 23 L 8.5 23 C 7.67157287525381 23 7 22.32842712474619 7 21.5 L 7 14.5 z" stroke-linecap="round" />
</g>
</svg>