<?xml version="1.0" encoding="UTF-8" standalone="no" ?>
<!DOCTYPE svg PUBLIC "-//W3C//DTD SVG 1.1//EN" "http://www.w3.org/Graphics/SVG/1.1/DTD/svg11.dtd">
<svg xmlns="http://www.w3.org/2000/svg" xmlns:xlink="http://www.w3.org/1999/xlink" version="1.1" width="1080" height="1080" viewBox="0 0 1080 1080" xml:space="preserve">
<desc>Created with Fabric.js 5.2.4</desc>
<defs>
</defs>
<rect x="0" y="0" width="100%" height="100%" fill="transparent"></rect>
<g transform="matrix(1 0 0 1 540 540)" id="9412f0e9-6590-45c7-92b6-3c568b86ec3e"  >
<rect style="stroke: none; stroke-width: 1; stroke-dasharray: none; stroke-linecap: butt; stroke-dashoffset: 0; stroke-linejoin: miter; stroke-miterlimit: 4; fill: #0055ff; fill-rule: nonzero; opacity: 1; visibility: hidden;" vector-effect="non-scaling-stroke"  x="-540" y="-540" rx="0" ry="0" width="1080" height="1080" />
</g>
<g transform="matrix(1 0 0 1 540 540)" id="77a50504-0f50-43c8-84a0-dfc11a3296c3"  >
</g>
<g transform="matrix(NaN NaN NaN NaN 0 0)"  >
<g style=""   >
</g>
</g>
<g transform="matrix(38.57 0 0 38.57 540 540)"  >
<path style="stroke: none; stroke-width: 1; stroke-dasharray: none; stroke-linecap: butt; stroke-dashoffset: 0; stroke-linejoin: miter; stroke-miterlimit: 4; fill: #0055ff; fill-rule: evenodd; opacity: 1;"  transform=" translate(-17, -14.5)" d="M 18.4 17.78 C 19.97 15.440000000000001 21 13.220000000000002 21 11.25 C 21.06686663417921 7.315825653758832 17.934098791657767 4.0711732454330525 14 4 C 10.16 4 7 7.220000000000001 7 11.25 C 7 13.22 8.03 15.45 9.6 17.78 C 10.916516012649371 19.667334382483045 12.328346502599786 21.486359481828128 13.82999999999999 23.229999999999976 L 14 23.43 L 14.17 23.23 C 15.671680330214276 21.486381425760296 17.083511902940785 19.667354931349074 18.39999999999999 17.78000000000002 Z M 14.649999999999999 24.220000000000002 L 14.929999999999998 23.880000000000003 C 18.1 20.06 22 15.4 22 11.25 C 22.066793361731637 6.763575334110515 18.486356111155303 3.0712494194536664 14 3 C 9.58 3 6 6.7 6 11.25 C 6 15.39 9.89 20.060000000000002 13.07 23.880000000000003 L 13.35 24.220000000000002 L 14 25.000000000000004 L 14.65 24.220000000000002 Z M 14 14 C 15.65685424949238 14 17 12.65685424949238 17 11 C 17 9.34314575050762 15.65685424949238 8 14 8 C 12.34314575050762 8 11 9.34314575050762 11 11 C 11 12.65685424949238 12.34314575050762 14 14 14 Z M 14 15 C 16.209138999323173 15 18 13.209138999323173 18 11 C 18 8.790861000676827 16.209138999323173 7 14 7 C 11.790861000676827 7 10 8.790861000676827 10 11 C 10 13.209138999323173 11.790861000676827 15 14 15 Z M 25 17.5 C 25 17.7761423749154 24.7761423749154 18 24.5 18 C 24.223857625084605 18 24 17.7761423749154 24 17.5 C 24 17.2238576250846 24.2238576250846 17 24.5 17 C 24.776142374915395 17 25 17.2238576250846 25 17.5 Z M 25 18.91 C 25.68877334265647 18.66648184935354 26.101936042870097 17.96216688511815 25.978397839480234 17.24213346953826 C 25.85485963609037 16.52210005395837 25.230554451939376 15.995786437626904 24.5 15.995786437626904 C 23.769445548060624 15.995786437626904 23.14514036390963 16.52210005395837 23.021602160519766 17.24213346953826 C 22.898063957129903 17.96216688511815 23.31122665734353 18.66648184935354 24 18.91 L 24 20 L 22 20 L 22 21 L 24 21 L 24 24.93 C 23.60895394708073 24.837998367086694 23.23679036926047 24.678983020199855 22.9 24.46 C 22.36 24.09 22 23.6 22 23 L 21 23 C 21 24.06 21.64 24.82 22.35 25.29 C 23.05 25.75 23.89 26 24.5 26 C 25.1 26 25.95 25.75 26.65 25.29 C 27.462176831577217 24.807930824580367 27.971458768757962 23.944037760770065 28 23 L 27 23 C 27 23.6 26.64 24.1 26.1 24.46 C 25.740000000000002 24.69 25.34 24.86 25 24.93 L 25 21 L 27 21 L 27 20 L 25 20 L 25 18.91 Z" stroke-linecap="round" />
</g>
</svg>