<?xml version="1.0" encoding="UTF-8" standalone="no" ?>
<!DOCTYPE svg PUBLIC "-//W3C//DTD SVG 1.1//EN" "http://www.w3.org/Graphics/SVG/1.1/DTD/svg11.dtd">
<svg xmlns="http://www.w3.org/2000/svg" xmlns:xlink="http://www.w3.org/1999/xlink" version="1.1" width="1080" height="1080" viewBox="0 0 1080 1080" xml:space="preserve">
<desc>Created with Fabric.js 5.2.4</desc>
<defs>
</defs>
<rect x="0" y="0" width="100%" height="100%" fill="transparent"></rect>
<g transform="matrix(1 0 0 1 540 540)" id="e8c8f618-96ba-4784-90d1-b20bd5ccc995"  >
<rect style="stroke: none; stroke-width: 1; stroke-dasharray: none; stroke-linecap: butt; stroke-dashoffset: 0; stroke-linejoin: miter; stroke-miterlimit: 4; fill: #0055ff; fill-rule: nonzero; opacity: 1; visibility: hidden;" vector-effect="non-scaling-stroke"  x="-540" y="-540" rx="0" ry="0" width="1080" height="1080" />
</g>
<g transform="matrix(1 0 0 1 540 540)" id="5e645da5-4b7f-4aa7-937b-67bb204a7508"  >
</g>
<g transform="matrix(38.57 0 0 38.57 540 540)"  >
<path style="stroke: none; stroke-width: 1; stroke-dasharray: none; stroke-linecap: butt; stroke-dashoffset: 0; stroke-linejoin: miter; stroke-miterlimit: 4; fill: #0055ff; fill-rule: nonzero; opacity: 1;"  transform=" translate(-14, -13.5)" d="M 11 10.5 C 11 11.32842712474619 10.32842712474619 12 9.5 12 C 8.67157287525381 12 8 11.32842712474619 8 10.5 C 8 9.67157287525381 8.67157287525381 9 9.5 9 C 10.32842712474619 9 11 9.67157287525381 11 10.5 z M 15 17.5 C 15 16.67157287525381 15.67157287525381 16 16.5 16 C 17.32842712474619 16 18 16.67157287525381 18 17.5 C 18 18.32842712474619 17.32842712474619 19 16.5 19 C 15.67157287525381 19 15 18.32842712474619 15 17.5 z M 26 8.7 L 26 13 L 27 13 L 27 7 L 21 7 L 21 8 L 25.3 8 L 17.880000000000003 15.41 C 17.04416273982081 14.85347607190654 15.955837260179193 14.85347607190654 15.120000000000001 15.41 L 11.590000000000003 11.88 C 12.280632505442094 10.836098898044446 12.092818224266646 9.442335801925784 11.15049922969884 8.618480425834832 C 10.208180235131035 7.794625049743882 8.801819764868974 7.794625049743882 7.8595007703011674 8.618480425834832 C 6.917181775733361 9.442335801925783 6.729367494557913 10.836098898044444 7.4200000000000035 11.88 L 1 18.29 L 1.7 19 L 8.12 12.59 C 8.955837260179191 13.14652392809346 10.044162739820807 13.14652392809346 10.879999999999999 12.59 L 14.409999999999998 16.12 C 13.719367494557908 17.163901101955556 13.907181775733356 18.557664198074217 14.849500770301162 19.381519574165168 C 15.791819764868967 20.20537495025612 17.198180235131026 20.20537495025612 18.140499229698833 19.381519574165168 C 19.08281822426664 18.557664198074217 19.270632505442087 17.16390110195556 18.58 16.12 z" stroke-linecap="round" />
</g>
</svg>