<?xml version="1.0" encoding="UTF-8" standalone="no" ?>
<!DOCTYPE svg PUBLIC "-//W3C//DTD SVG 1.1//EN" "http://www.w3.org/Graphics/SVG/1.1/DTD/svg11.dtd">
<svg xmlns="http://www.w3.org/2000/svg" xmlns:xlink="http://www.w3.org/1999/xlink" version="1.1" width="1080" height="1080" viewBox="0 0 1080 1080" xml:space="preserve">
<desc>Created with Fabric.js 5.2.4</desc>
<defs>
</defs>
<rect x="0" y="0" width="100%" height="100%" fill="transparent"></rect>
<g transform="matrix(1 0 0 1 540 540)" id="e8c8f618-96ba-4784-90d1-b20bd5ccc995"  >
<rect style="stroke: none; stroke-width: 1; stroke-dasharray: none; stroke-linecap: butt; stroke-dashoffset: 0; stroke-linejoin: miter; stroke-miterlimit: 4; fill: rgb(255,255,255); fill-rule: nonzero; opacity: 1; visibility: hidden;" vector-effect="non-scaling-stroke"  x="-540" y="-540" rx="0" ry="0" width="1080" height="1080" />
</g>
<g transform="matrix(1 0 0 1 540 540)" id="5e645da5-4b7f-4aa7-937b-67bb204a7508"  >
</g>
<g transform="matrix(38.57 0 0 38.57 540 540)"  >
<g style=""   >
		<g transform="matrix(1 0 0 1 4.5 -8.5)" id="Line"  >
<path style="stroke: none; stroke-width: 1; stroke-dasharray: none; stroke-linecap: butt; stroke-dashoffset: 0; stroke-linejoin: miter; stroke-miterlimit: 4; fill: rgb(255,255,255); fill-rule: nonzero; opacity: 1;" vector-effect="non-scaling-stroke"  transform=" translate(-18.5, -5.5)" d="M 16.5 6 L 20.5 6 L 20.5 5 L 16.5 5 z" stroke-linecap="round" />
</g>
		<g transform="matrix(1 0 0 1 4.5 0.5)"  >
<path style="stroke: none; stroke-width: 1; stroke-dasharray: none; stroke-linecap: butt; stroke-dashoffset: 0; stroke-linejoin: miter; stroke-miterlimit: 4; fill: rgb(255,255,255); fill-rule: nonzero; opacity: 1;" vector-effect="non-scaling-stroke"  transform=" translate(-18.5, -14.5)" d="M 16.5 15 L 20.5 15 L 20.5 14 L 16.5 14 z" stroke-linecap="round" />
</g>
		<g transform="matrix(1 0 0 1 -3.5 8.5)"  >
<path style="stroke: none; stroke-width: 1; stroke-dasharray: none; stroke-linecap: butt; stroke-dashoffset: 0; stroke-linejoin: miter; stroke-miterlimit: 4; fill: rgb(255,255,255); fill-rule: nonzero; opacity: 1;" vector-effect="non-scaling-stroke"  transform=" translate(-10.5, -22.5)" d="M 8.5 23 L 12.5 23 L 12.5 22 L 8.5 22 z" stroke-linecap="round" />
</g>
		<g transform="matrix(1 0 0 1 1.32 -4.56)"  >
<path style="stroke: none; stroke-width: 1; stroke-dasharray: none; stroke-linecap: butt; stroke-dashoffset: 0; stroke-linejoin: miter; stroke-miterlimit: 4; fill: rgb(255,255,255); fill-rule: nonzero; opacity: 1;" vector-effect="non-scaling-stroke"  transform=" translate(-15.32, -9.44)" d="M 8.298 11.591 L 13.395 7.130999999999999 L 12.735999999999999 6.377999999999999 L 7.6389999999999985 10.838 z M 22 7.5 L 22 12.5 L 23 12.5 L 23 7.5 z" stroke-linecap="round" />
</g>
		<g transform="matrix(1 0 0 1 0.5 4.5)"  >
<path style="stroke: none; stroke-width: 1; stroke-dasharray: none; stroke-linecap: butt; stroke-dashoffset: 0; stroke-linejoin: miter; stroke-miterlimit: 4; fill: rgb(255,255,255); fill-rule: nonzero; opacity: 1;" vector-effect="non-scaling-stroke"  transform=" translate(-14.5, -18.5)" d="M 14 16.5 L 14 20.5 L 15 20.5 L 15 16.5 z" stroke-linecap="round" />
</g>
		<g transform="matrix(1 0 0 1 -7.5 3.5)"  >
<path style="stroke: none; stroke-width: 1; stroke-dasharray: none; stroke-linecap: butt; stroke-dashoffset: 0; stroke-linejoin: miter; stroke-miterlimit: 4; fill: rgb(255,255,255); fill-rule: nonzero; opacity: 1;" vector-effect="non-scaling-stroke"  transform=" translate(-6.5, -17.5)" d="M 6 14.5 L 6 20.5 L 7 20.5 L 7 14.5 z" stroke-linecap="round" />
</g>
		<g transform="matrix(1 0 0 1 0.5 0)"  >
<path style="stroke: none; stroke-width: 1; stroke-dasharray: none; stroke-linecap: butt; stroke-dashoffset: 0; stroke-linejoin: miter; stroke-miterlimit: 4; fill: rgb(255,255,255); fill-rule: nonzero; opacity: 1;" vector-effect="non-scaling-stroke"  transform=" translate(-14.5, -14)" d="M 6.5 14 C 7.328 14 8 13.328 8 12.5 C 8 11.672 7.328 11 6.5 11 C 5.672 11 5 11.672 5 12.5 C 5 13.328 5.672 14 6.5 14 z M 6.5 15 C 5.119 15 4 13.881 4 12.5 C 4 11.119 5.119 10 6.5 10 C 7.881 10 9 11.119 9 12.5 C 9 13.881 7.881 15 6.5 15 z M 14.5 7 C 15.328 7 16 6.328 16 5.5 C 16 4.672 15.328 4 14.5 4 C 13.672 4 13 4.672 13 5.5 C 13 6.328 13.672 7 14.5 7 z M 14.5 8 C 13.119 8 12 6.881 12 5.5 C 12 4.119 13.119 3 14.5 3 C 15.881 3 17 4.119 17 5.5 C 17 6.881 15.881 8 14.5 8 z M 22.5 7 C 23.328 7 24 6.328 24 5.5 C 24 4.672 23.328 4 22.5 4 C 21.672 4 21 4.672 21 5.5 C 21 6.328 21.672 7 22.5 7 z M 22.5 8 C 21.119 8 20 6.881 20 5.5 C 20 4.119 21.119 3 22.5 3 C 23.881 3 25 4.119 25 5.5 C 25 6.881 23.881 8 22.5 8 z M 14.5 16 C 15.328 16 16 15.328 16 14.5 C 16 13.672 15.328 13 14.5 13 C 13.672 13 13 13.672 13 14.5 C 13 15.328 13.672 16 14.5 16 z M 14.5 17 C 13.119 17 12 15.881 12 14.5 C 12 13.119 13.119 12 14.5 12 C 15.881 12 17 13.119 17 14.5 C 17 15.881 15.881 17 14.5 17 z M 22.5 16 C 23.328 16 24 15.328 24 14.5 C 24 13.672 23.328 13 22.5 13 C 21.672 13 21 13.672 21 14.5 C 21 15.328 21.672 16 22.5 16 z M 22.5 17 C 21.119 17 20 15.881 20 14.5 C 20 13.119 21.119 12 22.5 12 C 23.881 12 25 13.119 25 14.5 C 25 15.881 23.881 17 22.5 17 z M 6.5 24 C 7.328 24 8 23.328 8 22.5 C 8 21.672 7.328 21 6.5 21 C 5.672 21 5 21.672 5 22.5 C 5 23.328 5.672 24 6.5 24 z M 6.5 25 C 5.119 25 4 23.881 4 22.5 C 4 21.119 5.119 20 6.5 20 C 7.881 20 9 21.119 9 22.5 C 9 23.881 7.881 25 6.5 25 z M 14.5 24 C 15.328 24 16 23.328 16 22.5 C 16 21.672 15.328 21 14.5 21 C 13.672 21 13 21.672 13 22.5 C 13 23.328 13.672 24 14.5 24 z M 14.5 25 C 13.119 25 12 23.881 12 22.5 C 12 21.119 13.119 20 14.5 20 C 15.881 20 17 21.119 17 22.5 C 17 23.881 15.881 25 14.5 25 z" stroke-linecap="round" />
</g>
</g>
</g>
</svg>