<?xml version="1.0" encoding="UTF-8" standalone="no" ?>
<!DOCTYPE svg PUBLIC "-//W3C//DTD SVG 1.1//EN" "http://www.w3.org/Graphics/SVG/1.1/DTD/svg11.dtd">
<svg xmlns="http://www.w3.org/2000/svg" xmlns:xlink="http://www.w3.org/1999/xlink" version="1.1" width="1080" height="1080" viewBox="0 0 1080 1080" xml:space="preserve">
<desc>Created with Fabric.js 5.2.4</desc>
<defs>
</defs>
<rect x="0" y="0" width="100%" height="100%" fill="transparent"></rect>
<g transform="matrix(1 0 0 1 540 540)" id="9412f0e9-6590-45c7-92b6-3c568b86ec3e"  >
<rect style="stroke: none; stroke-width: 1; stroke-dasharray: none; stroke-linecap: butt; stroke-dashoffset: 0; stroke-linejoin: miter; stroke-miterlimit: 4; fill: #0055ff; fill-rule: nonzero; opacity: 1; visibility: hidden;" vector-effect="non-scaling-stroke"  x="-540" y="-540" rx="0" ry="0" width="1080" height="1080" />
</g>
<g transform="matrix(1 0 0 1 540 540)" id="77a50504-0f50-43c8-84a0-dfc11a3296c3"  >
</g>
<g transform="matrix(NaN NaN NaN NaN 0 0)"  >
<g style=""   >
</g>
</g>
<g transform="matrix(38.57 0 0 38.57 540 540)"  >
<path style="stroke: none; stroke-width: 1; stroke-dasharray: none; stroke-linecap: butt; stroke-dashoffset: 0; stroke-linejoin: miter; stroke-miterlimit: 4; fill: #0055ff; fill-rule: evenodd; opacity: 1;"  transform=" translate(-13.5, -14)" d="M 5 14 L 13 14 L 13 20.05 C 11.742518390156729 20.30668235875413 10.88366523027006 21.47384935498062 11.01265961748719 22.7507621477962 C 11.141654004704321 24.02767494061178 12.216588206229346 24.99948974278318 13.5 24.99948974278318 C 14.783411793770654 24.99948974278318 15.858345995295679 24.02767494061178 15.98734038251281 22.7507621477962 C 16.116334769729942 21.47384935498062 15.257481609843271 20.30668235875413 14 20.05 L 14 14 L 22 14 C 22.552284749830793 14 23 13.552284749830793 23 13 L 23 4 C 23 3.4477152501692068 22.552284749830793 3 22 3 L 5 3 C 4.447715250169207 3 4 3.4477152501692068 4 4 L 4 13 C 4 13.552284749830793 4.447715250169207 14 5 14 z M 22 4 L 5 4 L 5 13 L 22 13 L 22 4 z M 13.5 21 C 12.67157287525381 21 12 21.67157287525381 12 22.5 C 12 23.32842712474619 12.67157287525381 24 13.5 24 C 14.32842712474619 24 15 23.32842712474619 15 22.5 C 15 21.67157287525381 14.32842712474619 21 13.5 21 z" stroke-linecap="round" />
</g>
</svg>