<?xml version="1.0" encoding="UTF-8" standalone="no" ?>
<!DOCTYPE svg PUBLIC "-//W3C//DTD SVG 1.1//EN" "http://www.w3.org/Graphics/SVG/1.1/DTD/svg11.dtd">
<svg xmlns="http://www.w3.org/2000/svg" xmlns:xlink="http://www.w3.org/1999/xlink" version="1.1" width="1080" height="1080" viewBox="0 0 1080 1080" xml:space="preserve">
<desc>Created with Fabric.js 5.2.4</desc>
<defs>
</defs>
<rect x="0" y="0" width="100%" height="100%" fill="transparent"></rect>
<g transform="matrix(1 0 0 1 540 540)" id="a6474d76-c44b-4cb3-bcc2-9e97042a2b6d"  >
<rect style="stroke: none; stroke-width: 1; stroke-dasharray: none; stroke-linecap: butt; stroke-dashoffset: 0; stroke-linejoin: miter; stroke-miterlimit: 4; fill: rgb(255,255,255); fill-rule: nonzero; opacity: 1; visibility: hidden;" vector-effect="non-scaling-stroke"  x="-540" y="-540" rx="0" ry="0" width="1080" height="1080" />
</g>
<g transform="matrix(1 0 0 1 540 540)" id="1fc2687a-fc2d-4a62-942d-07f30305f0f7"  >
</g>
<g transform="matrix(38.57 0 0 38.57 540 540)"  >
<g style=""   >
		<g transform="matrix(1 0 0 1 0.5 0.5)" id="Line"  >
<path style="stroke: none; stroke-width: 1; stroke-dasharray: none; stroke-linecap: butt; stroke-dashoffset: 0; stroke-linejoin: miter; stroke-miterlimit: 4; fill: rgb(0,0,0); fill-rule: nonzero; opacity: 1;" vector-effect="non-scaling-stroke"  transform=" translate(-14.5, -14.5)" d="M 4 5 L 20.5 5 L 20.5 4 L 4 4 z M 25 24 L 8.5 24 L 8.5 25 L 25 25 z" stroke-linecap="round" />
</g>
		<g transform="matrix(1 0 0 1 0.5 0.5)"  >
<path style="stroke: none; stroke-width: 1; stroke-dasharray: none; stroke-linecap: butt; stroke-dashoffset: 0; stroke-linejoin: miter; stroke-miterlimit: 4; fill: rgb(0,0,0); fill-rule: nonzero; opacity: 1;" vector-effect="non-scaling-stroke"  transform=" translate(-14.5, -14.5)" d="M 6.5 26 C 7.328 26 8 25.328 8 24.5 C 8 23.672 7.328 23 6.5 23 C 5.672 23 5 23.672 5 24.5 C 5 25.328 5.672 26 6.5 26 z M 6.5 27 C 5.119 27 4 25.881 4 24.5 C 4 23.119 5.119 22 6.5 22 C 7.881 22 9 23.119 9 24.5 C 9 25.881 7.881 27 6.5 27 z M 22.5 6 C 23.328 6 24 5.328 24 4.5 C 24 3.6719999999999997 23.328 3 22.5 3 C 21.672 3 21 3.672 21 4.5 C 21 5.327999999999999 21.672 6 22.5 6 z M 22.5 7 C 21.119 7 20 5.881 20 4.5 C 20 3.1189999999999998 21.119 2 22.5 2 C 23.881 2 25 3.1189999999999998 25 4.5 C 25 5.881 23.881 7 22.5 7 z" stroke-linecap="round" />
</g>
		<g transform="matrix(1 0 0 1 0.5 2)"  >
<path style="stroke: none; stroke-width: 1; stroke-dasharray: none; stroke-linecap: butt; stroke-dashoffset: 0; stroke-linejoin: miter; stroke-miterlimit: 4; fill: rgb(0,0,0); fill-rule: nonzero; opacity: 1;" vector-effect="non-scaling-stroke"  transform=" translate(-14.5, -16)" d="M 14 9 L 14 23 L 15 23 L 15 9 z" stroke-linecap="round" />
</g>
		<g transform="matrix(1 0 0 1 0.5 -6.5)"  >
<path style="stroke: none; stroke-width: 1; stroke-dasharray: none; stroke-linecap: butt; stroke-dashoffset: 0; stroke-linejoin: miter; stroke-miterlimit: 4; fill: rgb(0,0,0); fill-rule: nonzero; opacity: 1;" vector-effect="non-scaling-stroke"  transform=" translate(-14.5, -7.5)" d="M 14.5 6 L 17 9 L 12 9 z" stroke-linecap="round" />
</g>
</g>
</g>
</svg>