<?xml version="1.0" encoding="UTF-8" standalone="no" ?>
<!DOCTYPE svg PUBLIC "-//W3C//DTD SVG 1.1//EN" "http://www.w3.org/Graphics/SVG/1.1/DTD/svg11.dtd">
<svg xmlns="http://www.w3.org/2000/svg" xmlns:xlink="http://www.w3.org/1999/xlink" version="1.1" width="1080" height="1080" viewBox="0 0 1080 1080" xml:space="preserve">
<desc>Created with Fabric.js 5.2.4</desc>
<defs>
</defs>
<rect x="0" y="0" width="100%" height="100%" fill="transparent"></rect>
<g transform="matrix(1 0 0 1 540 540)" id="a6474d76-c44b-4cb3-bcc2-9e97042a2b6d"  >
<rect style="stroke: none; stroke-width: 1; stroke-dasharray: none; stroke-linecap: butt; stroke-dashoffset: 0; stroke-linejoin: miter; stroke-miterlimit: 4; fill: rgb(255,255,255); fill-rule: nonzero; opacity: 1; visibility: hidden;" vector-effect="non-scaling-stroke"  x="-540" y="-540" rx="0" ry="0" width="1080" height="1080" />
</g>
<g transform="matrix(1 0 0 1 540 540)" id="1fc2687a-fc2d-4a62-942d-07f30305f0f7"  >
</g>
<g transform="matrix(38.57 0 0 38.57 540 540)"  >
<g style=""   >
		<g transform="matrix(1 0 0 1 1.68 -0.67)"  >
<path style="stroke: none; stroke-width: 1; stroke-dasharray: none; stroke-linecap: butt; stroke-dashoffset: 0; stroke-linejoin: miter; stroke-miterlimit: 4; fill: rgb(0,0,0); fill-rule: nonzero; opacity: 1;" vector-effect="non-scaling-stroke"  transform=" translate(-15.68, -13.33)" d="M 23.886 21.431 C 22.933 12.873000000000001 16.144 6.077000000000002 7.587 5.116 L 7.475 6.109999999999999 C 15.568 7.018999999999999 21.991 13.448 22.892 21.542 L 23.886 21.431 z" stroke-linecap="round" />
</g>
		<g transform="matrix(1 0 0 1 -0.75 1.75)"  >
<path style="stroke: none; stroke-width: 1; stroke-dasharray: none; stroke-linecap: butt; stroke-dashoffset: 0; stroke-linejoin: miter; stroke-miterlimit: 4; fill: rgb(0,0,0); fill-rule: nonzero; opacity: 1;" vector-effect="non-scaling-stroke"  transform=" translate(-13.25, -15.75)" d="M 5 7.5 L 5 21.5 L 6 21.5 L 6 7.5 z M 21.5 23 L 7.5 23 L 7.5 24 L 21.5 24 z" stroke-linecap="round" />
</g>
		<g transform="matrix(1 0 0 1 0.5 0.5)"  >
<path style="stroke: none; stroke-width: 1; stroke-dasharray: none; stroke-linecap: butt; stroke-dashoffset: 0; stroke-linejoin: miter; stroke-miterlimit: 4; fill: rgb(0,0,0); fill-rule: nonzero; opacity: 1;" vector-effect="non-scaling-stroke"  transform=" translate(-14.5, -14.5)" d="M 5.5 7 C 6.328 7 7 6.328 7 5.5 C 7 4.672 6.328 4 5.5 4 C 4.672 4 4 4.672 4 5.5 C 4 6.328 4.672 7 5.5 7 z M 5.5 8 C 4.119 8 3 6.881 3 5.5 C 3 4.119 4.119 3 5.5 3 C 6.881 3 8 4.119 8 5.5 C 8 6.881 6.881 8 5.5 8 z M 23.5 25 C 24.328 25 25 24.328 25 23.5 C 25 22.672 24.328 22 23.5 22 C 22.672 22 22 22.672 22 23.5 C 22 24.328 22.672 25 23.5 25 z M 23.5 26 C 22.119 26 21 24.881 21 23.5 C 21 22.119 22.119 21 23.5 21 C 24.881 21 26 22.119 26 23.5 C 26 24.881 24.881 26 23.5 26 z M 5.5 25 C 6.328 25 7 24.328 7 23.5 C 7 22.672 6.328 22 5.5 22 C 4.672 22 4 22.672 4 23.5 C 4 24.328 4.672 25 5.5 25 z M 5.5 26 C 4.119 26 3 24.881 3 23.5 C 3 22.119 4.119 21 5.5 21 C 6.881 21 8 22.119 8 23.5 C 8 24.881 6.881 26 5.5 26 z" stroke-linecap="round" />
</g>
</g>
</g>
</svg>