<?xml version="1.0" encoding="UTF-8" standalone="no" ?>
<!DOCTYPE svg PUBLIC "-//W3C//DTD SVG 1.1//EN" "http://www.w3.org/Graphics/SVG/1.1/DTD/svg11.dtd">
<svg xmlns="http://www.w3.org/2000/svg" xmlns:xlink="http://www.w3.org/1999/xlink" version="1.1" width="1080" height="1080" viewBox="0 0 1080 1080" xml:space="preserve">
<desc>Created with Fabric.js 5.2.4</desc>
<defs>
</defs>
<rect x="0" y="0" width="100%" height="100%" fill="transparent"></rect>
<g transform="matrix(1 0 0 1 540 540)" id="7e338bf1-c6b6-4884-9701-fb6f7d6dccf1"  >
<rect style="stroke: none; stroke-width: 1; stroke-dasharray: none; stroke-linecap: butt; stroke-dashoffset: 0; stroke-linejoin: miter; stroke-miterlimit: 4; fill: #0055ff; fill-rule: nonzero; opacity: 1; visibility: hidden;" vector-effect="non-scaling-stroke"  x="-540" y="-540" rx="0" ry="0" width="1080" height="1080" />
</g>
<g transform="matrix(1 0 0 1 540 540)" id="91246ef7-d0c0-4ca1-88d7-86dbc8e9f50f"  >
</g>
<g transform="matrix(NaN NaN NaN NaN 0 0)"  >
<path style="stroke: none; stroke-width: 1; stroke-dasharray: none; stroke-linecap: butt; stroke-dashoffset: 0; stroke-linejoin: miter; stroke-miterlimit: 4; fill: #0055ff; fill-opacity: 0; fill-rule: nonzero; opacity: 1;"  transform=" translate(-14, -14)" d="M 18.15 7.02 C 16.86792926413812 6.35357920720155 15.444924699068723 6.003828687594131 14 6 C 10.55 6 7.92 8 6.2 9.92 C 5.158917456694092 11.081451049015199 4.2716303074457596 12.372050538830948 3.559999999999998 13.759999999999998 L 3.56 13.78 L 3.5500000000000003 13.78 L 4 14 L 3.55 13.79 L 3.4499999999999997 14 L 3.55 14.21 L 4 14 L 3.55 14.21 L 3.5599999999999996 14.24 C 3.6100583684495273 14.348272965949668 3.6634166483099837 14.45498952567058 3.7200000000000015 14.560000000000002 C 3.8299999999999996 14.76 4 15.07 4.22 15.43 C 4.90472110323624 16.553797171719346 5.709436771287258 17.59992754018566 6.620000000000005 18.55 L 7.329999999999999 17.84 C 6.2338623100758035 16.693980258865842 5.301678191023692 15.40171057758061 4.559999999999996 14 C 4.717387583812404 13.687828699934947 4.89095688403333 13.38408242454833 5.080000000000001 13.090000000000002 C 5.49 12.4 6.12 11.49 6.93 10.59 C 8.58 8.75 10.95 7 14 7 C 15.176156600044125 7.003611551132665 16.337049006403852 7.266519537278839 17.399999999999995 7.769999999999998 L 18.15 7.02 z M 15.04 10.14 C 13.659267176828244 9.769499591766337 12.185766680511822 10.16403787501631 11.174902277764065 11.174902277764065 C 10.164037875016309 12.185766680511822 9.769499591766337 13.659267176828244 10.139999999999999 15.04 L 10.999999999999998 14.170000000000002 L 10.999999999999998 14 C 10.998672684091105 13.17400097783497 11.337971116145816 12.383999862116703 11.937906400581774 11.81623776328141 C 12.537841685017732 11.24847566444612 13.345327227298055 10.953192261866247 14.169999999999998 11 L 15.039999999999997 10.14 z M 17 13.84 L 17.86 12.959999999999999 C 18.230500408233663 14.340732823171756 17.835962124983688 15.814233319488178 16.82509772223593 16.825097722235935 C 15.814233319488174 17.83596212498369 14.340732823171754 18.230500408233663 12.959999999999997 17.86 L 13.829999999999998 17 C 14.685085988232109 17.049998117376397 15.52076577761374 16.732105415380182 16.12643559649696 16.12643559649696 C 16.732105415380182 15.520765777613741 17.049998117376397 14.68508598823211 17 13.83 z M 10.6 20.240000000000002 C 11.663739913047209 20.740030382130378 12.824596770704304 20.99951603266549 14 21 C 17.05 21 19.42 19.24 21.07 17.42 C 21.99564381039453 16.38023107735222 22.791479238159965 15.231810333488172 23.44 13.999999999999998 C 23.283598166261203 13.687300043995288 23.109999031121287 13.38350155750043 22.92 13.089999999999996 C 22.27749225514361 12.03530109060134 21.5231321599674 11.052956611105209 20.669999999999995 10.159999999999991 L 21.37 9.46 C 22.593725910114227 10.736862143007542 23.624585546955508 12.18545575033353 24.43 13.759999999999998 L 24.45 13.780000000000001 L 24 14 L 24.45 14.21 L 24.439999999999998 14.24 C 24.38938998318 14.34800673462167 24.336039377605335 14.454707945770998 24.279999999999998 14.56 C 24.169999999999998 14.76 23.999999999999996 15.07 23.779999999999998 15.43 C 23.339999999999996 16.15 22.679999999999996 17.12 21.81 18.08 C 20.08 20.01 17.45 22 14 22 C 12.45 22 11.06 21.6 9.85 20.98 L 10.6 20.23 z M 24 14 L 24.45 13.79 L 24.55 14 L 24.45 14.21 L 24 14 z M 22.2 6.5 L 6.5 22.2 L 5.8 21.5 L 21.5 5.8 L 22.2 6.5 z" stroke-linecap="round" />
</g>
<g transform="matrix(NaN NaN NaN NaN 0 0)"  >
<path style="stroke: none; stroke-width: 1; stroke-dasharray: none; stroke-linecap: butt; stroke-dashoffset: 0; stroke-linejoin: miter; stroke-miterlimit: 4; fill: rgb(255,0,0); fill-rule: nonzero; opacity: 1;"  transform=" translate(-14, -14)" d="M 18.15 7.02 C 16.86792926413812 6.35357920720155 15.444924699068723 6.003828687594131 14 6 C 10.55 6 7.92 8 6.2 9.92 C 5.158917456694092 11.081451049015199 4.2716303074457596 12.372050538830948 3.559999999999998 13.759999999999998 L 3.56 13.78 L 3.5500000000000003 13.78 L 4 14 L 3.55 13.79 L 3.4499999999999997 14 L 3.55 14.21 L 4 14 L 3.55 14.21 L 3.5599999999999996 14.24 C 3.6100583684495273 14.348272965949668 3.6634166483099837 14.45498952567058 3.7200000000000015 14.560000000000002 C 3.8299999999999996 14.76 4 15.07 4.22 15.43 C 4.90472110323624 16.553797171719346 5.709436771287258 17.59992754018566 6.620000000000005 18.55 L 7.329999999999999 17.84 C 6.2338623100758035 16.693980258865842 5.301678191023692 15.40171057758061 4.559999999999996 14 C 4.717387583812404 13.687828699934947 4.89095688403333 13.38408242454833 5.080000000000001 13.090000000000002 C 5.49 12.4 6.12 11.49 6.93 10.59 C 8.58 8.75 10.95 7 14 7 C 15.176156600044125 7.003611551132665 16.337049006403852 7.266519537278839 17.399999999999995 7.769999999999998 L 18.15 7.02 z M 15.04 10.14 C 13.659267176828244 9.769499591766337 12.185766680511822 10.16403787501631 11.174902277764065 11.174902277764065 C 10.164037875016309 12.185766680511822 9.769499591766337 13.659267176828244 10.139999999999999 15.04 L 10.999999999999998 14.170000000000002 L 10.999999999999998 14 C 10.998672684091105 13.17400097783497 11.337971116145816 12.383999862116703 11.937906400581774 11.81623776328141 C 12.537841685017732 11.24847566444612 13.345327227298055 10.953192261866247 14.169999999999998 11 L 15.039999999999997 10.14 z M 17 13.84 L 17.86 12.959999999999999 C 18.230500408233663 14.340732823171756 17.835962124983688 15.814233319488178 16.82509772223593 16.825097722235935 C 15.814233319488174 17.83596212498369 14.340732823171754 18.230500408233663 12.959999999999997 17.86 L 13.829999999999998 17 C 14.685085988232109 17.049998117376397 15.52076577761374 16.732105415380182 16.12643559649696 16.12643559649696 C 16.732105415380182 15.520765777613741 17.049998117376397 14.68508598823211 17 13.83 z M 10.6 20.240000000000002 C 11.663739913047209 20.740030382130378 12.824596770704304 20.99951603266549 14 21 C 17.05 21 19.42 19.24 21.07 17.42 C 21.99564381039453 16.38023107735222 22.791479238159965 15.231810333488172 23.44 13.999999999999998 C 23.283598166261203 13.687300043995288 23.109999031121287 13.38350155750043 22.92 13.089999999999996 C 22.27749225514361 12.03530109060134 21.5231321599674 11.052956611105209 20.669999999999995 10.159999999999991 L 21.37 9.46 C 22.593725910114227 10.736862143007542 23.624585546955508 12.18545575033353 24.43 13.759999999999998 L 24.45 13.780000000000001 L 24 14 L 24.45 14.21 L 24.439999999999998 14.24 C 24.38938998318 14.34800673462167 24.336039377605335 14.454707945770998 24.279999999999998 14.56 C 24.169999999999998 14.76 23.999999999999996 15.07 23.779999999999998 15.43 C 23.339999999999996 16.15 22.679999999999996 17.12 21.81 18.08 C 20.08 20.01 17.45 22 14 22 C 12.45 22 11.06 21.6 9.85 20.98 L 10.6 20.23 z M 24 14 L 24.45 13.79 L 24.55 14 L 24.45 14.21 L 24 14 z M 22.2 6.5 L 6.5 22.2 L 5.8 21.5 L 21.5 5.8 L 22.2 6.5 z" stroke-linecap="round" />
</g>
<g transform="matrix(NaN NaN NaN NaN 0 0)"  >
<path style="stroke: none; stroke-width: 1; stroke-dasharray: none; stroke-linecap: butt; stroke-dashoffset: 0; stroke-linejoin: miter; stroke-miterlimit: 4; fill: rgb(255,0,0); fill-rule: nonzero; opacity: 1;"  transform=" translate(-14, -14)" d="M 18.15 7.02 C 16.86792926413812 6.35357920720155 15.444924699068723 6.003828687594131 14 6 C 10.55 6 7.92 8 6.2 9.92 C 5.158917456694092 11.081451049015199 4.2716303074457596 12.372050538830948 3.559999999999998 13.759999999999998 L 3.56 13.78 L 3.5500000000000003 13.78 L 4 14 L 3.55 13.79 L 3.4499999999999997 14 L 3.55 14.21 L 4 14 L 3.55 14.21 L 3.5599999999999996 14.24 C 3.6100583684495273 14.348272965949668 3.6634166483099837 14.45498952567058 3.7200000000000015 14.560000000000002 C 3.8299999999999996 14.76 4 15.07 4.22 15.43 C 4.90472110323624 16.553797171719346 5.709436771287258 17.59992754018566 6.620000000000005 18.55 L 7.329999999999999 17.84 C 6.2338623100758035 16.693980258865842 5.301678191023692 15.40171057758061 4.559999999999996 14 C 4.717387583812404 13.687828699934947 4.89095688403333 13.38408242454833 5.080000000000001 13.090000000000002 C 5.49 12.4 6.12 11.49 6.93 10.59 C 8.58 8.75 10.95 7 14 7 C 15.176156600044125 7.003611551132665 16.337049006403852 7.266519537278839 17.399999999999995 7.769999999999998 L 18.15 7.02 z M 15.04 10.14 C 13.659267176828244 9.769499591766337 12.185766680511822 10.16403787501631 11.174902277764065 11.174902277764065 C 10.164037875016309 12.185766680511822 9.769499591766337 13.659267176828244 10.139999999999999 15.04 L 10.999999999999998 14.170000000000002 L 10.999999999999998 14 C 10.998672684091105 13.17400097783497 11.337971116145816 12.383999862116703 11.937906400581774 11.81623776328141 C 12.537841685017732 11.24847566444612 13.345327227298055 10.953192261866247 14.169999999999998 11 L 15.039999999999997 10.14 z M 17 13.84 L 17.86 12.959999999999999 C 18.230500408233663 14.340732823171756 17.835962124983688 15.814233319488178 16.82509772223593 16.825097722235935 C 15.814233319488174 17.83596212498369 14.340732823171754 18.230500408233663 12.959999999999997 17.86 L 13.829999999999998 17 C 14.685085988232109 17.049998117376397 15.52076577761374 16.732105415380182 16.12643559649696 16.12643559649696 C 16.732105415380182 15.520765777613741 17.049998117376397 14.68508598823211 17 13.83 z M 10.6 20.240000000000002 C 11.663739913047209 20.740030382130378 12.824596770704304 20.99951603266549 14 21 C 17.05 21 19.42 19.24 21.07 17.42 C 21.99564381039453 16.38023107735222 22.791479238159965 15.231810333488172 23.44 13.999999999999998 C 23.283598166261203 13.687300043995288 23.109999031121287 13.38350155750043 22.92 13.089999999999996 C 22.27749225514361 12.03530109060134 21.5231321599674 11.052956611105209 20.669999999999995 10.159999999999991 L 21.37 9.46 C 22.593725910114227 10.736862143007542 23.624585546955508 12.18545575033353 24.43 13.759999999999998 L 24.45 13.780000000000001 L 24 14 L 24.45 14.21 L 24.439999999999998 14.24 C 24.38938998318 14.34800673462167 24.336039377605335 14.454707945770998 24.279999999999998 14.56 C 24.169999999999998 14.76 23.999999999999996 15.07 23.779999999999998 15.43 C 23.339999999999996 16.15 22.679999999999996 17.12 21.81 18.08 C 20.08 20.01 17.45 22 14 22 C 12.45 22 11.06 21.6 9.85 20.98 L 10.6 20.23 z M 24 14 L 24.45 13.79 L 24.55 14 L 24.45 14.21 L 24 14 z M 22.2 6.5 L 6.5 22.2 L 5.8 21.5 L 21.5 5.8 L 22.2 6.5 z" stroke-linecap="round" />
</g>
<g transform="matrix(NaN NaN NaN NaN 0 0)"  >
<path style="stroke: none; stroke-width: 1; stroke-dasharray: none; stroke-linecap: butt; stroke-dashoffset: 0; stroke-linejoin: miter; stroke-miterlimit: 4; fill: rgb(255,0,0); fill-rule: nonzero; opacity: 1;"  transform=" translate(-14, -14)" d="M 18.15 7.02 C 16.86792926413812 6.35357920720155 15.444924699068723 6.003828687594131 14 6 C 10.55 6 7.92 8 6.2 9.92 C 5.158917456694092 11.081451049015199 4.2716303074457596 12.372050538830948 3.559999999999998 13.759999999999998 L 3.56 13.78 L 3.5500000000000003 13.78 L 4 14 L 3.55 13.79 L 3.4499999999999997 14 L 3.55 14.21 L 4 14 L 3.55 14.21 L 3.5599999999999996 14.24 C 3.6100583684495273 14.348272965949668 3.6634166483099837 14.45498952567058 3.7200000000000015 14.560000000000002 C 3.8299999999999996 14.76 4 15.07 4.22 15.43 C 4.90472110323624 16.553797171719346 5.709436771287258 17.59992754018566 6.620000000000005 18.55 L 7.329999999999999 17.84 C 6.2338623100758035 16.693980258865842 5.301678191023692 15.40171057758061 4.559999999999996 14 C 4.717387583812404 13.687828699934947 4.89095688403333 13.38408242454833 5.080000000000001 13.090000000000002 C 5.49 12.4 6.12 11.49 6.93 10.59 C 8.58 8.75 10.95 7 14 7 C 15.176156600044125 7.003611551132665 16.337049006403852 7.266519537278839 17.399999999999995 7.769999999999998 L 18.15 7.02 z M 15.04 10.14 C 13.659267176828244 9.769499591766337 12.185766680511822 10.16403787501631 11.174902277764065 11.174902277764065 C 10.164037875016309 12.185766680511822 9.769499591766337 13.659267176828244 10.139999999999999 15.04 L 10.999999999999998 14.170000000000002 L 10.999999999999998 14 C 10.998672684091105 13.17400097783497 11.337971116145816 12.383999862116703 11.937906400581774 11.81623776328141 C 12.537841685017732 11.24847566444612 13.345327227298055 10.953192261866247 14.169999999999998 11 L 15.039999999999997 10.14 z M 17 13.84 L 17.86 12.959999999999999 C 18.230500408233663 14.340732823171756 17.835962124983688 15.814233319488178 16.82509772223593 16.825097722235935 C 15.814233319488174 17.83596212498369 14.340732823171754 18.230500408233663 12.959999999999997 17.86 L 13.829999999999998 17 C 14.685085988232109 17.049998117376397 15.52076577761374 16.732105415380182 16.12643559649696 16.12643559649696 C 16.732105415380182 15.520765777613741 17.049998117376397 14.68508598823211 17 13.83 z M 10.6 20.240000000000002 C 11.663739913047209 20.740030382130378 12.824596770704304 20.99951603266549 14 21 C 17.05 21 19.42 19.24 21.07 17.42 C 21.99564381039453 16.38023107735222 22.791479238159965 15.231810333488172 23.44 13.999999999999998 C 23.283598166261203 13.687300043995288 23.109999031121287 13.38350155750043 22.92 13.089999999999996 C 22.27749225514361 12.03530109060134 21.5231321599674 11.052956611105209 20.669999999999995 10.159999999999991 L 21.37 9.46 C 22.593725910114227 10.736862143007542 23.624585546955508 12.18545575033353 24.43 13.759999999999998 L 24.45 13.780000000000001 L 24 14 L 24.45 14.21 L 24.439999999999998 14.24 C 24.38938998318 14.34800673462167 24.336039377605335 14.454707945770998 24.279999999999998 14.56 C 24.169999999999998 14.76 23.999999999999996 15.07 23.779999999999998 15.43 C 23.339999999999996 16.15 22.679999999999996 17.12 21.81 18.08 C 20.08 20.01 17.45 22 14 22 C 12.45 22 11.06 21.6 9.85 20.98 L 10.6 20.23 z M 24 14 L 24.45 13.79 L 24.55 14 L 24.45 14.21 L 24 14 z M 22.2 6.5 L 6.5 22.2 L 5.8 21.5 L 21.5 5.8 L 22.2 6.5 z" stroke-linecap="round" />
</g>
<g transform="matrix(NaN NaN NaN NaN 0 0)"  >
<path style="stroke: none; stroke-width: 1; stroke-dasharray: none; stroke-linecap: butt; stroke-dashoffset: 0; stroke-linejoin: miter; stroke-miterlimit: 4; fill: rgb(255,0,0); fill-rule: nonzero; opacity: 1;"  transform=" translate(-14, -14)" d="M 18.15 7.02 C 16.86792926413812 6.35357920720155 15.444924699068723 6.003828687594131 14 6 C 10.55 6 7.92 8 6.2 9.92 C 5.158917456694092 11.081451049015199 4.2716303074457596 12.372050538830948 3.559999999999998 13.759999999999998 L 3.56 13.78 L 3.5500000000000003 13.78 L 4 14 L 3.55 13.79 L 3.4499999999999997 14 L 3.55 14.21 L 4 14 L 3.55 14.21 L 3.5599999999999996 14.24 C 3.6100583684495273 14.348272965949668 3.6634166483099837 14.45498952567058 3.7200000000000015 14.560000000000002 C 3.8299999999999996 14.76 4 15.07 4.22 15.43 C 4.90472110323624 16.553797171719346 5.709436771287258 17.59992754018566 6.620000000000005 18.55 L 7.329999999999999 17.84 C 6.2338623100758035 16.693980258865842 5.301678191023692 15.40171057758061 4.559999999999996 14 C 4.717387583812404 13.687828699934947 4.89095688403333 13.38408242454833 5.080000000000001 13.090000000000002 C 5.49 12.4 6.12 11.49 6.93 10.59 C 8.58 8.75 10.95 7 14 7 C 15.176156600044125 7.003611551132665 16.337049006403852 7.266519537278839 17.399999999999995 7.769999999999998 L 18.15 7.02 z M 15.04 10.14 C 13.659267176828244 9.769499591766337 12.185766680511822 10.16403787501631 11.174902277764065 11.174902277764065 C 10.164037875016309 12.185766680511822 9.769499591766337 13.659267176828244 10.139999999999999 15.04 L 10.999999999999998 14.170000000000002 L 10.999999999999998 14 C 10.998672684091105 13.17400097783497 11.337971116145816 12.383999862116703 11.937906400581774 11.81623776328141 C 12.537841685017732 11.24847566444612 13.345327227298055 10.953192261866247 14.169999999999998 11 L 15.039999999999997 10.14 z M 17 13.84 L 17.86 12.959999999999999 C 18.230500408233663 14.340732823171756 17.835962124983688 15.814233319488178 16.82509772223593 16.825097722235935 C 15.814233319488174 17.83596212498369 14.340732823171754 18.230500408233663 12.959999999999997 17.86 L 13.829999999999998 17 C 14.685085988232109 17.049998117376397 15.52076577761374 16.732105415380182 16.12643559649696 16.12643559649696 C 16.732105415380182 15.520765777613741 17.049998117376397 14.68508598823211 17 13.83 z M 10.6 20.240000000000002 C 11.663739913047209 20.740030382130378 12.824596770704304 20.99951603266549 14 21 C 17.05 21 19.42 19.24 21.07 17.42 C 21.99564381039453 16.38023107735222 22.791479238159965 15.231810333488172 23.44 13.999999999999998 C 23.283598166261203 13.687300043995288 23.109999031121287 13.38350155750043 22.92 13.089999999999996 C 22.27749225514361 12.03530109060134 21.5231321599674 11.052956611105209 20.669999999999995 10.159999999999991 L 21.37 9.46 C 22.593725910114227 10.736862143007542 23.624585546955508 12.18545575033353 24.43 13.759999999999998 L 24.45 13.780000000000001 L 24 14 L 24.45 14.21 L 24.439999999999998 14.24 C 24.38938998318 14.34800673462167 24.336039377605335 14.454707945770998 24.279999999999998 14.56 C 24.169999999999998 14.76 23.999999999999996 15.07 23.779999999999998 15.43 C 23.339999999999996 16.15 22.679999999999996 17.12 21.81 18.08 C 20.08 20.01 17.45 22 14 22 C 12.45 22 11.06 21.6 9.85 20.98 L 10.6 20.23 z M 24 14 L 24.45 13.79 L 24.55 14 L 24.45 14.21 L 24 14 z M 22.2 6.5 L 6.5 22.2 L 5.8 21.5 L 21.5 5.8 L 22.2 6.5 z" stroke-linecap="round" />
</g>
<g transform="matrix(NaN NaN NaN NaN 0 0)"  >
<path style="stroke: none; stroke-width: 1; stroke-dasharray: none; stroke-linecap: butt; stroke-dashoffset: 0; stroke-linejoin: miter; stroke-miterlimit: 4; fill: rgb(255,0,0); fill-rule: nonzero; opacity: 1;"  transform=" translate(-14, -14)" d="M 18.15 7.02 C 16.86792926413812 6.35357920720155 15.444924699068723 6.003828687594131 14 6 C 10.55 6 7.92 8 6.2 9.92 C 5.158917456694092 11.081451049015199 4.2716303074457596 12.372050538830948 3.559999999999998 13.759999999999998 L 3.56 13.78 L 3.5500000000000003 13.78 L 4 14 L 3.55 13.79 L 3.4499999999999997 14 L 3.55 14.21 L 4 14 L 3.55 14.21 L 3.5599999999999996 14.24 C 3.6100583684495273 14.348272965949668 3.6634166483099837 14.45498952567058 3.7200000000000015 14.560000000000002 C 3.8299999999999996 14.76 4 15.07 4.22 15.43 C 4.90472110323624 16.553797171719346 5.709436771287258 17.59992754018566 6.620000000000005 18.55 L 7.329999999999999 17.84 C 6.2338623100758035 16.693980258865842 5.301678191023692 15.40171057758061 4.559999999999996 14 C 4.717387583812404 13.687828699934947 4.89095688403333 13.38408242454833 5.080000000000001 13.090000000000002 C 5.49 12.4 6.12 11.49 6.93 10.59 C 8.58 8.75 10.95 7 14 7 C 15.176156600044125 7.003611551132665 16.337049006403852 7.266519537278839 17.399999999999995 7.769999999999998 L 18.15 7.02 z M 15.04 10.14 C 13.659267176828244 9.769499591766337 12.185766680511822 10.16403787501631 11.174902277764065 11.174902277764065 C 10.164037875016309 12.185766680511822 9.769499591766337 13.659267176828244 10.139999999999999 15.04 L 10.999999999999998 14.170000000000002 L 10.999999999999998 14 C 10.998672684091105 13.17400097783497 11.337971116145816 12.383999862116703 11.937906400581774 11.81623776328141 C 12.537841685017732 11.24847566444612 13.345327227298055 10.953192261866247 14.169999999999998 11 L 15.039999999999997 10.14 z M 17 13.84 L 17.86 12.959999999999999 C 18.230500408233663 14.340732823171756 17.835962124983688 15.814233319488178 16.82509772223593 16.825097722235935 C 15.814233319488174 17.83596212498369 14.340732823171754 18.230500408233663 12.959999999999997 17.86 L 13.829999999999998 17 C 14.685085988232109 17.049998117376397 15.52076577761374 16.732105415380182 16.12643559649696 16.12643559649696 C 16.732105415380182 15.520765777613741 17.049998117376397 14.68508598823211 17 13.83 z M 10.6 20.240000000000002 C 11.663739913047209 20.740030382130378 12.824596770704304 20.99951603266549 14 21 C 17.05 21 19.42 19.24 21.07 17.42 C 21.99564381039453 16.38023107735222 22.791479238159965 15.231810333488172 23.44 13.999999999999998 C 23.283598166261203 13.687300043995288 23.109999031121287 13.38350155750043 22.92 13.089999999999996 C 22.27749225514361 12.03530109060134 21.5231321599674 11.052956611105209 20.669999999999995 10.159999999999991 L 21.37 9.46 C 22.593725910114227 10.736862143007542 23.624585546955508 12.18545575033353 24.43 13.759999999999998 L 24.45 13.780000000000001 L 24 14 L 24.45 14.21 L 24.439999999999998 14.24 C 24.38938998318 14.34800673462167 24.336039377605335 14.454707945770998 24.279999999999998 14.56 C 24.169999999999998 14.76 23.999999999999996 15.07 23.779999999999998 15.43 C 23.339999999999996 16.15 22.679999999999996 17.12 21.81 18.08 C 20.08 20.01 17.45 22 14 22 C 12.45 22 11.06 21.6 9.85 20.98 L 10.6 20.23 z M 24 14 L 24.45 13.79 L 24.55 14 L 24.45 14.21 L 24 14 z M 22.2 6.5 L 6.5 22.2 L 5.8 21.5 L 21.5 5.8 L 22.2 6.5 z" stroke-linecap="round" />
</g>
<g transform="matrix(NaN NaN NaN NaN 0 0)"  >
<path style="stroke: #0055ff; stroke-width: 1; stroke-dasharray: none; stroke-linecap: butt; stroke-dashoffset: 0; stroke-linejoin: miter; stroke-miterlimit: 4; fill: none; fill-rule: nonzero; opacity: 1;"  transform=" translate(-14, -14)" d="M 8 9.5 L 6.5 9.5 C 5.947715250169207 9.5 5.5 9.947715250169207 5.5 10.5 L 5.5 21.5 C 5.5 22.052284749830793 5.947715250169207 22.5 6.5 22.5 L 17.5 22.5 C 18.052284749830793 22.5 18.5 22.052284749830793 18.5 21.5 L 18.5 20 M 10.5 18.5 L 21.5 18.5 C 22.052284749830793 18.5 22.5 18.052284749830793 22.5 17.5 L 22.5 6.5 C 22.5 5.947715250169207 22.052284749830793 5.5 21.5 5.5 L 10.5 5.5 C 9.947715250169207 5.5 9.5 5.947715250169207 9.5 6.5 L 9.5 17.5 C 9.5 18.052284749830793 9.947715250169207 18.5 10.5 18.5 z" stroke-linecap="round" />
</g>
<g transform="matrix(38.57 0 0 38.57 540 540)"  >
<path style="stroke: none; stroke-width: 1; stroke-dasharray: none; stroke-linecap: butt; stroke-dashoffset: 0; stroke-linejoin: miter; stroke-miterlimit: 4; fill: #0055ff; fill-rule: nonzero; opacity: 1;"  transform=" translate(-14.5, -14.5)" d="M 18 5 L 18 10 L 21 10 L 21 5 L 18 5 z M 17 4 L 22 4 L 22 11 L 17 11 L 17 4 z M 13 17 L 16 17 L 16 12 L 13 12 L 13 17 z M 12 11 L 17 11 L 17 18 L 12 18 L 12 11 z M 8 24 L 11 24 L 11 19 L 8 19 L 8 24 z M 7 18 L 12 18 L 12 25 L 7 25 L 7 18 z" stroke-linecap="round" />
</g>
</svg>