<?xml version="1.0" encoding="UTF-8" standalone="no" ?>
<!DOCTYPE svg PUBLIC "-//W3C//DTD SVG 1.1//EN" "http://www.w3.org/Graphics/SVG/1.1/DTD/svg11.dtd">
<svg xmlns="http://www.w3.org/2000/svg" xmlns:xlink="http://www.w3.org/1999/xlink" version="1.1" width="1080" height="1080" viewBox="0 0 1080 1080" xml:space="preserve">
<desc>Created with Fabric.js 5.2.4</desc>
<defs>
</defs>
<rect x="0" y="0" width="100%" height="100%" fill="transparent"></rect>
<g transform="matrix(1 0 0 1 540 540)" id="a6474d76-c44b-4cb3-bcc2-9e97042a2b6d"  >
<rect style="stroke: none; stroke-width: 1; stroke-dasharray: none; stroke-linecap: butt; stroke-dashoffset: 0; stroke-linejoin: miter; stroke-miterlimit: 4; fill: rgb(255,255,255); fill-rule: nonzero; opacity: 1; visibility: hidden;" vector-effect="non-scaling-stroke"  x="-540" y="-540" rx="0" ry="0" width="1080" height="1080" />
</g>
<g transform="matrix(1 0 0 1 540 540)" id="1fc2687a-fc2d-4a62-942d-07f30305f0f7"  >
</g>
<g transform="matrix(38.57 0 0 38.57 540 540)"  >
<g style=""   >
		<g transform="matrix(1 0 0 1 -0.5 0.5)"  >
<path style="stroke: none; stroke-width: 1; stroke-dasharray: none; stroke-linecap: butt; stroke-dashoffset: 0; stroke-linejoin: miter; stroke-miterlimit: 4; fill: rgb(255,255,255); fill-rule: evenodd; opacity: 1;" vector-effect="non-scaling-stroke"  transform=" translate(-13.5, -14.5)" d="M 4.5 24 C 3.67157287525381 24 3 23.32842712474619 3 22.5 C 3 21.67157287525381 3.67157287525381 21 4.5 21 C 5.32842712474619 21 6 21.67157287525381 6 22.5 C 6 23.32842712474619 5.328427124746191 24 4.500000000000001 24 z M 2 22.5 C 1.9987091951636407 23.784382757169325 2.970871157172235 24.86077660136769 4.248751972564712 24.989855471609356 C 5.5266327879571895 25.11893434185102 6.694414123676625 24.258696386312053 6.95 23 L 24 23 L 24 22 L 6.95 22 C 6.694414123676625 20.741303613687947 5.526632787957189 19.88106565814898 4.248751972564712 20.010144528390644 C 2.970871157172234 20.13922339863231 1.9987091951636415 21.215617242830675 2.000000000000001 22.5 z M 4.5 14 C 3.67157287525381 14 3 13.32842712474619 3 12.5 C 3 11.67157287525381 3.67157287525381 11 4.5 11 C 5.32842712474619 11 6 11.67157287525381 6 12.5 C 6 13.32842712474619 5.328427124746191 14 4.500000000000001 14 z M 2 12.5 C 1.9987091951636407 13.784382757169327 2.970871157172235 14.860776601367691 4.248751972564712 14.989855471609355 C 5.5266327879571895 15.11893434185102 6.694414123676625 14.258696386312053 6.95 13 L 20.05 13 C 20.30668235875413 14.257481609843271 21.47384935498062 15.11633476972994 22.7507621477962 14.98734038251281 C 24.02767494061178 14.858345995295679 24.99948974278318 13.783411793770654 24.99948974278318 12.5 C 24.99948974278318 11.216588206229346 24.02767494061178 10.141654004704321 22.7507621477962 10.01265961748719 C 21.47384935498062 9.88366523027006 20.30668235875413 10.742518390156729 20.05 12 L 6.95 12 C 6.694414123676625 10.741303613687947 5.526632787957189 9.88106565814898 4.248751972564712 10.010144528390645 C 2.970871157172234 10.13922339863231 1.9987091951636415 11.215617242830673 2.000000000000001 12.5 z M 22.5 14 C 21.67157287525381 14 21 13.32842712474619 21 12.5 C 21 11.67157287525381 21.67157287525381 11 22.5 11 C 23.32842712474619 11 24 11.67157287525381 24 12.5 C 24 13.32842712474619 23.32842712474619 14 22.5 14 z M 4.5 8 C 3.67157287525381 8 3 7.32842712474619 3 6.5 C 3 5.67157287525381 3.67157287525381 5 4.5 5 C 5.32842712474619 5 6 5.671572875253809 6 6.5 C 6 7.32842712474619 5.328427124746191 8 4.500000000000001 8 z M 2 6.5 C 1.9987091951636407 7.784382757169326 2.970871157172235 8.860776601367691 4.248751972564712 8.989855471609355 C 5.5266327879571895 9.11893434185102 6.694414123676625 8.258696386312053 6.95 7 L 24 7 L 24 6 L 6.95 6 C 6.694414123676625 4.741303613687948 5.526632787957189 3.8810656581489806 4.248751972564712 4.010144528390645 C 2.970871157172234 4.13922339863231 1.9987091951636415 5.215617242830674 2.000000000000001 6.5 z" stroke-linecap="round" />
</g>
		<g transform="matrix(1 0 0 1 1.5 3.5)"  >
<path style="stroke: none; stroke-width: 1; stroke-dasharray: none; stroke-linecap: butt; stroke-dashoffset: 0; stroke-linejoin: miter; stroke-miterlimit: 4; fill: rgb(255,255,255); fill-rule: evenodd; opacity: 1;" vector-effect="non-scaling-stroke"  transform=" translate(-15.5, -17.5)" d="M 22.4 20.06 L 21.009999999999998 19.43 L 20.599999999999998 20.34 L 21.99 20.97 L 22.4 20.06 z M 18.4 18.259999999999998 L 17.009999999999998 17.63 L 16.599999999999998 18.54 L 17.99 19.169999999999998 L 18.4 18.259999999999998 z M 14.399999999999999 16.459999999999997 L 12.999999999999998 15.829999999999997 L 12.599999999999998 16.739999999999995 L 13.989999999999998 17.369999999999994 L 14.399999999999999 16.459999999999994 z M 10.399999999999999 14.659999999999997 L 9 14.03 L 8.6 14.94 L 9.99 15.57 L 10.4 14.66 z" stroke-linecap="round" />
</g>
</g>
</g>
</svg>