<?xml version="1.0" encoding="UTF-8" standalone="no" ?>
<!DOCTYPE svg PUBLIC "-//W3C//DTD SVG 1.1//EN" "http://www.w3.org/Graphics/SVG/1.1/DTD/svg11.dtd">
<svg xmlns="http://www.w3.org/2000/svg" xmlns:xlink="http://www.w3.org/1999/xlink" version="1.1" width="1080" height="1080" viewBox="0 0 1080 1080" xml:space="preserve">
<desc>Created with Fabric.js 5.2.4</desc>
<defs>
</defs>
<rect x="0" y="0" width="100%" height="100%" fill="transparent"></rect>
<g transform="matrix(1 0 0 1 540 540)" id="e8c8f618-96ba-4784-90d1-b20bd5ccc995"  >
<rect style="stroke: none; stroke-width: 1; stroke-dasharray: none; stroke-linecap: butt; stroke-dashoffset: 0; stroke-linejoin: miter; stroke-miterlimit: 4; fill: rgb(255,255,255); fill-rule: nonzero; opacity: 1; visibility: hidden;" vector-effect="non-scaling-stroke"  x="-540" y="-540" rx="0" ry="0" width="1080" height="1080" />
</g>
<g transform="matrix(1 0 0 1 540 540)" id="5e645da5-4b7f-4aa7-937b-67bb204a7508"  >
</g>
<g transform="matrix(38.57 0 0 38.57 540 540)"  >
<g style=""   >
		<g transform="matrix(1 0 0 1 -0.75 1.3)"  >
<path style="stroke: none; stroke-width: 1; stroke-dasharray: none; stroke-linecap: butt; stroke-dashoffset: 0; stroke-linejoin: miter; stroke-miterlimit: 4; fill: rgb(0,0,0); fill-rule: nonzero; opacity: 1;" vector-effect="non-scaling-stroke"  transform=" translate(-13.25, -15.3)" d="M 8.5 23 L 19.5 23 L 19.5 22 L 8.5 22 z M 6 8.5 L 6 20.5 L 7 20.5 L 7 8.5 z M 7.483 8.28 L 19.776 21.392 L 20.506 20.708 L 8.213000000000001 7.595999999999998 z" stroke-linecap="round" />
</g>
		<g transform="matrix(1 0 0 1 0 0.5)"  >
<path style="stroke: none; stroke-width: 1; stroke-dasharray: none; stroke-linecap: butt; stroke-dashoffset: 0; stroke-linejoin: miter; stroke-miterlimit: 4; fill: rgb(0,0,0); fill-rule: nonzero; opacity: 1;" vector-effect="non-scaling-stroke"  transform=" translate(-14, -14.5)" d="M 6.5 8 C 7.328 8 8 7.328 8 6.5 C 8 5.672 7.328 5 6.5 5 C 5.672 5 5 5.672 5 6.5 C 5 7.328 5.672 8 6.5 8 z M 6.5 9 C 5.119 9 4 7.881 4 6.5 C 4 5.119 5.119 4 6.5 4 C 7.881 4 9 5.119 9 6.5 C 9 7.881 7.881 9 6.5 9 z M 6.5 24 C 7.328 24 8 23.328 8 22.5 C 8 21.672 7.328 21 6.5 21 C 5.672 21 5 21.672 5 22.5 C 5 23.328 5.672 24 6.5 24 z M 6.5 25 C 5.119 25 4 23.881 4 22.5 C 4 21.119 5.119 20 6.5 20 C 7.881 20 9 21.119 9 22.5 C 9 23.881 7.881 25 6.5 25 z M 21.5 24 C 22.328 24 23 23.328 23 22.5 C 23 21.672 22.328 21 21.5 21 C 20.672 21 20 21.672 20 22.5 C 20 23.328 20.672 24 21.5 24 z M 21.5 25 C 20.119 25 19 23.881 19 22.5 C 19 21.119 20.119 20 21.5 20 C 22.881 20 24 21.119 24 22.5 C 24 23.881 22.881 25 21.5 25 z" stroke-linecap="round" />
</g>
</g>
</g>
</svg>