<svg width="30" height="30" viewBox="0 0 30 30" fill="none" xmlns="http://www.w3.org/2000/svg">
<path d="M0 0H30V30H0V0Z" fill="black"/>
<path d="M8.26647 13.0659V15.3384C8.26647 16.0959 7.92897 16.4109 7.14146 16.4109C6.35395 16.4109 6.01645 16.0959 6.01645 15.3384V12.9684H5.26645C5.19895 12.9684 5.16895 12.9984 5.16895 13.0659V15.3684C5.16895 16.6359 5.97895 17.0784 7.14896 17.0784C8.31897 17.0784 9.12898 16.6359 9.12898 15.3684V12.9609H8.37147C8.30397 12.9684 8.26647 12.9984 8.26647 13.0659V13.0659Z" fill="white"/>
<path d="M19.2538 13.6209C19.3138 13.6209 19.3438 13.5984 19.3663 13.5534L19.5838 13.0134C19.5988 12.9834 19.5838 12.9609 19.5538 12.9609H16.5013C16.2163 12.9609 16.1113 13.0509 16.1113 13.2459V16.7709C16.1113 16.9359 16.1938 17.0109 16.4113 17.0109H19.2538C19.3138 17.0109 19.3438 16.9884 19.3663 16.9434L19.5838 16.4034C19.5988 16.3734 19.5838 16.3509 19.5538 16.3509H16.9513V15.6309C16.9513 15.3834 17.0863 15.2709 17.4538 15.2709H18.5863C18.6463 15.2709 18.6763 15.2484 18.6988 15.2034L18.9088 14.6784C18.9238 14.6484 18.9088 14.6259 18.8788 14.6259H16.9513V13.6134H19.2538V13.6209Z" fill="white"/>
<path d="M13.8765 14.8813C14.2065 14.7088 14.3415 14.3788 14.3415 13.9963C14.3415 13.1037 13.614 12.9688 12.8565 12.9688H11.1315C10.8465 12.9688 10.7415 13.0587 10.7415 13.2537V16.7787C10.7415 16.9438 10.824 17.0188 11.0415 17.0188H13.164C13.9665 17.0188 14.5365 16.7113 14.5365 15.9013C14.544 15.4062 14.334 15.0013 13.8765 14.8813ZM11.589 13.6137H12.924C13.374 13.6137 13.494 13.7788 13.494 14.1313C13.494 14.4838 13.3665 14.6487 12.924 14.6487H11.589V13.6137ZM13.0815 16.3588H11.589V15.6162C11.589 15.3687 11.724 15.2563 12.0915 15.2563H13.0815C13.554 15.2563 13.689 15.4363 13.689 15.8113C13.6965 16.1863 13.5615 16.3588 13.0815 16.3588V16.3588Z" fill="white"/>
<path d="M24.8713 16.9437L23.9638 15.3837C24.4138 15.2712 24.7813 14.9712 24.7813 14.2137C24.7813 13.2312 24.1738 12.9688 23.1689 12.9688H21.4364C21.1514 12.9688 21.0464 13.0587 21.0464 13.2537V16.9212C21.0464 16.9887 21.0764 17.0187 21.1439 17.0187H21.8864V15.8412C21.8864 15.5937 22.0214 15.4812 22.3889 15.4812H23.1314L23.9488 16.9587C23.9713 17.0037 24.0013 17.0262 24.0613 17.0262H24.8338C24.8863 17.0112 24.8863 16.9662 24.8713 16.9437V16.9437ZM23.2889 14.8437H21.8789V13.6212H23.2889C23.8138 13.6212 23.9338 13.8237 23.9338 14.2362C23.9338 14.6412 23.8138 14.8437 23.2889 14.8437V14.8437Z" fill="white"/>
</svg>
